<?xml version="1.0" encoding="UTF-8"?><svg id="Layer" xmlns="http://www.w3.org/2000/svg" xmlns:xlink="http://www.w3.org/1999/xlink" viewBox="0 0 721 379.91"><defs><style>.cls-1{stroke:url(#linear-gradient-9);}.cls-1,.cls-2,.cls-3,.cls-4,.cls-5,.cls-6{stroke-miterlimit:10;}.cls-1,.cls-2,.cls-6{stroke-width:4.75px;}.cls-1,.cls-6{fill:#e2131b;}.cls-7,.cls-8{fill:#030404;}.cls-9,.cls-10{fill:#020303;}.cls-11{fill:#332116;}.cls-8{opacity:.05;}.cls-8,.cls-10,.cls-12,.cls-13{isolation:isolate;}.cls-2,.cls-4{fill:none;stroke:#1f1f1d;}.cls-14{fill:url(#linear-gradient-6);}.cls-15{fill:#946137;}.cls-3{fill:#fff;opacity:0;stroke:#1d1d1b;}.cls-10{opacity:.15;}.cls-16{fill:url(#radial-gradient);}.cls-4{stroke-width:1.49px;}.cls-5{fill:#0d582a;stroke:#1e4523;stroke-width:3.68px;}.cls-12{fill:url(#linear-gradient-5);}.cls-12,.cls-13{opacity:.4;}.cls-6{stroke:url(#linear-gradient-10);}.cls-17{fill:url(#linear-gradient-7);}.cls-18{fill:url(#linear-gradient-3);}.cls-19{fill:url(#linear-gradient);}.cls-20{fill:#4bad39;}.cls-21{fill:url(#linear-gradient-4);}.cls-22{fill:url(#linear-gradient-8);}.cls-13{fill:url(#linear-gradient-2);}</style><linearGradient id="linear-gradient" x1="-678.92" y1="1334.21" x2="-601.45" y2="1256.74" gradientTransform="translate(-190.6 -1064.17) rotate(-45)" gradientUnits="userSpaceOnUse"><stop offset="0" stop-color="#452b1a"/><stop offset=".05" stop-color="#583519"/><stop offset=".1" stop-color="#683e15"/><stop offset=".32" stop-color="#76481e"/><stop offset=".75" stop-color="#8c5a31"/><stop offset="1" stop-color="#946137"/></linearGradient><linearGradient id="linear-gradient-2" x1="431.4" y1="-230.52" x2="431.4" y2="-92.01" gradientTransform="translate(0 143.45) scale(1 -1)" gradientUnits="userSpaceOnUse"><stop offset="0" stop-color="#ffdc15"/><stop offset="0" stop-color="#ffdb16"/><stop offset=".05" stop-color="#f9bb24"/><stop offset=".1" stop-color="#f59d1e"/><stop offset=".16" stop-color="#ef7c1e"/><stop offset=".22" stop-color="#e86312"/><stop offset=".27" stop-color="#e94c21"/><stop offset=".34" stop-color="#e63b23"/><stop offset=".41" stop-color="#e63624"/><stop offset=".5" stop-color="#e63324"/><stop offset=".59" stop-color="#e63624"/><stop offset=".66" stop-color="#e63b23"/><stop offset=".73" stop-color="#e94c21"/><stop offset=".78" stop-color="#e86312"/><stop offset=".84" stop-color="#ef7c1e"/><stop offset=".9" stop-color="#f59d1e"/><stop offset=".95" stop-color="#f9bb24"/><stop offset="1" stop-color="#ffdb16"/><stop offset="1" stop-color="#ffdc15"/></linearGradient><linearGradient id="linear-gradient-3" x1="431.42" y1="-225.42" x2="431.42" y2="-97.11" xlink:href="#linear-gradient-2"/><linearGradient id="linear-gradient-4" x1="-565.39" y1="-1065.35" x2="-488.82" y2="-988.78" gradientTransform="translate(77.99 -794.09) rotate(-45) scale(1 -1)" gradientUnits="userSpaceOnUse"><stop offset="0" stop-color="#116a37"/><stop offset=".04" stop-color="#156d38"/><stop offset=".08" stop-color="#0a783a"/><stop offset=".13" stop-color="#148837"/><stop offset=".15" stop-color="#0f9039"/><stop offset=".35" stop-color="#38993d"/><stop offset=".76" stop-color="#61b149"/><stop offset="1" stop-color="#70b74b"/></linearGradient><linearGradient id="linear-gradient-5" x1="573.4" x2="573.4" xlink:href="#linear-gradient-2"/><linearGradient id="linear-gradient-6" x1="573.42" y1="-225.42" x2="573.42" y2="-97.11" xlink:href="#linear-gradient-2"/><linearGradient id="linear-gradient-7" x1="-464.98" y1="-1165.76" x2="-388.41" y2="-1089.19" xlink:href="#linear-gradient-4"/><linearGradient id="linear-gradient-8" x1="-775.08" y1="1238.04" x2="-697.61" y2="1160.58" xlink:href="#linear-gradient"/><radialGradient id="radial-gradient" cx="360.5" cy="361.71" fx="360.5" fy="361.71" r="96.38" gradientTransform="translate(0 -253.17)" gradientUnits="userSpaceOnUse"><stop offset="0" stop-color="#f6ee82"/><stop offset=".78" stop-color="#f6ee82"/><stop offset=".91" stop-color="#f6ee82"/><stop offset=".91" stop-color="#f7ee85"/><stop offset=".94" stop-color="#faf4b6"/><stop offset=".96" stop-color="#fdfada"/><stop offset=".97" stop-color="#fefcef"/><stop offset=".99" stop-color="#fffffd"/><stop offset="1" stop-color="#fff"/></radialGradient><linearGradient id="linear-gradient-9" x1="368.34" y1="400.89" x2="313.56" y2="346.1" gradientTransform="translate(0 -253.17)" gradientUnits="userSpaceOnUse"><stop offset="0" stop-color="#5c1410"/><stop offset=".1" stop-color="#611912"/><stop offset=".26" stop-color="#722a22"/><stop offset=".48" stop-color="#904c43"/><stop offset=".73" stop-color="#be887f"/><stop offset="1" stop-color="#fbdede"/></linearGradient><linearGradient id="linear-gradient-10" x1="407.15" y1="374.69" x2="352.37" y2="319.91" xlink:href="#linear-gradient-9"/></defs><rect class="cls-3" x=".5" y=".5" width="720" height="378.91"/><g id="steel"><rect class="cls-9" x="214.62" y="246.4" width="116.27" height="116.27"/><rect class="cls-19" x="217.98" y="249.75" width="109.56" height="109.56"/><rect class="cls-15" x="223.3" y="255.07" width="98.93" height="98.93"/><g><path class="cls-11" d="M283.06,337.21l2.42-45.97-5.59-.65-.84-1.96h-4.29l-.75,2.05-6.53-.28v-11.93h7.55l.56,2.33,3.54,.47,.84-2.7h7.74l1.49,1.31,1.31-1.31h9.6l1.12,1.86,1.68-1.86,7.27,5.97-.47,4.1s-4.01-3.73-5.97-3.73-4.76-.09-4.76-.09l-4.01,6.43-2.42,.19,2.24,45.78h-11.75Z"/><polygon class="cls-11" points="261.34 276.51 253.5 272.22 253.41 282.85 246.32 282.85 246.32 272.22 237.37 276.33 237.37 289.38 245.67 293.39 242.78 337.21 256.12 337.21 253.5 293.39 261.34 289.85 261.34 276.51"/></g><path id="darker" class="cls-10" d="M327.54,359.31h-109.56v-60.05s34.5,5.31,54.73,5.31,54.82-5.31,54.82-5.31v60.05Z"/></g><g id="plant-2"><rect class="cls-13" x="362.15" y="235.46" width="138.51" height="138.51"/><rect class="cls-18" x="367.27" y="240.56" width="128.31" height="128.31"/><rect class="cls-7" x="374.06" y="247.43" width="114.91" height="114.91"/><rect class="cls-21" x="377.37" y="250.73" width="108.29" height="108.29"/><rect class="cls-20" x="382.62" y="255.98" width="97.77" height="97.77"/><path id="leaf-2" class="cls-5" d="M431.46,280.13c-14,1.94-24.7,11.07-24.7,24.7,0,3.31,.65,6.54,1.84,9.5-2.59,1.74-6.37,4.05-8.21,4.7-3.23,1.09-9.67,.37-9.95,.92s1.84,6.37,2.59,6.64,6.64,.27,9.95-.92c2.39-.82,6.72-3.61,9.23-5.45,4.53,5.72,11.52,9.3,19.35,9.3,13.63,0,24.52-8.58,24.52-22.21,0-5.25,1.29-11.89,3.23-16.04,2.11-4.6,13.08-7.56,13.08-7.56-1.09-3.61-35.39-4.33-40.91-3.61h0l-.02,.02h0Z"/><path id="darker-2" class="cls-8" d="M485.66,359.02h-108.29v-59.34s34.1,5.25,54.1,5.25,54.19-5.25,54.19-5.25v59.34Z"/></g><g id="plant-2-2"><rect class="cls-12" x="504.15" y="235.46" width="138.51" height="138.51"/><rect class="cls-14" x="509.27" y="240.56" width="128.31" height="128.31"/><rect class="cls-7" x="516.06" y="247.43" width="114.91" height="114.91"/><rect class="cls-17" x="519.37" y="250.73" width="108.29" height="108.29"/><rect class="cls-20" x="524.62" y="255.98" width="97.77" height="97.77"/><path id="leaf-2-2" class="cls-5" d="M573.46,280.13c-14,1.94-24.7,11.07-24.7,24.7,0,3.31,.65,6.54,1.84,9.5-2.59,1.74-6.37,4.05-8.21,4.7-3.23,1.09-9.67,.37-9.95,.92s1.84,6.37,2.59,6.64,6.64,.27,9.95-.92c2.39-.82,6.72-3.61,9.23-5.45,4.53,5.72,11.52,9.3,19.35,9.3,13.63,0,24.52-8.58,24.52-22.21,0-5.25,1.29-11.89,3.23-16.04,2.11-4.6,13.08-7.56,13.08-7.56-1.09-3.61-35.39-4.33-40.91-3.61h0l-.02,.02h0Z"/><path id="darker-2-2" class="cls-8" d="M627.66,359.02h-108.29v-59.34s34.1,5.25,54.1,5.25,54.19-5.25,54.19-5.25v59.34Z"/></g><g id="steel-2"><rect class="cls-9" x="78.62" y="246.4" width="116.27" height="116.27"/><rect class="cls-22" x="81.98" y="249.75" width="109.56" height="109.56"/><rect class="cls-15" x="87.3" y="255.07" width="98.93" height="98.93"/><g><path class="cls-11" d="M147.06,337.21l2.42-45.97-5.59-.65-.84-1.96h-4.29l-.75,2.05-6.53-.28v-11.93h7.55l.56,2.33,3.54,.47,.84-2.7h7.74l1.49,1.31,1.31-1.31h9.6l1.12,1.86,1.68-1.86,7.27,5.97-.47,4.1s-4.01-3.73-5.97-3.73-4.76-.09-4.76-.09l-4.01,6.43-2.42,.19,2.24,45.78h-11.75Z"/><polygon class="cls-11" points="125.34 276.51 117.5 272.22 117.41 282.85 110.32 282.85 110.32 272.22 101.37 276.33 101.37 289.38 109.67 293.39 106.78 337.21 120.12 337.21 117.5 293.39 125.34 289.85 125.34 276.51"/></g><path id="darker-2" class="cls-10" d="M191.54,359.31H81.98v-60.05s34.5,5.31,54.73,5.31,54.82-5.31,54.82-5.31v60.05Z"/></g><g id="oxIcon"><path class="cls-16" d="M456.88,108.53c0,53.2-43.18,96.38-96.38,96.38s-96.38-43.18-96.38-96.38S307.3,12.16,360.5,12.16c53.2,.16,96.38,43.18,96.38,96.38Z"/><path class="cls-2" d="M456.72,108.53c0,53.2-43.18,96.38-96.38,96.38s-96.22-43.18-96.22-96.38S307.3,12.16,360.5,12.16s96.22,43.34,96.22,96.38Z"/><path class="cls-4" d="M445.72,108.53c0,47.06-38.16,85.22-85.22,85.22s-85.22-38.16-85.22-85.22,38.16-85.06,85.22-85.06,85.22,38,85.22,85.06Z"/><path class="cls-1" d="M377.32,120.34c0,20.05-16.33,36.38-36.38,36.38s-36.38-16.33-36.38-36.38,16.33-36.38,36.38-36.38c20.21,0,36.38,16.33,36.38,36.38Z"/><path class="cls-6" d="M416.13,94.14c0,20.05-16.33,36.38-36.38,36.38s-36.38-16.33-36.38-36.38,16.33-36.38,36.38-36.38c20.21,0,36.38,16.33,36.38,36.38Z"/></g></svg>