<?xml version="1.0" encoding="utf-8"?>
<!-- Generator: Adobe Illustrator 27.5.0, SVG Export Plug-In . SVG Version: 6.00 Build 0)  -->
<svg version="1.1" id="Layer" xmlns="http://www.w3.org/2000/svg" xmlns:xlink="http://www.w3.org/1999/xlink" x="0px" y="0px"
	 viewBox="0 0 721 379.9" style="enable-background:new 0 0 721 379.9;" xml:space="preserve">
<style type="text/css">
	.st0{fill:#FFFFFF;fill-opacity:0;}
	.st1{fill:#020303;}
	.st2{fill:url(#SVGID_1_);}
	.st3{fill:#946137;}
	.st4{fill:#332116;}
	.st5{opacity:0.15;fill:#020303;enable-background:new    ;}
	.st6{opacity:0.4;}
	.st7{opacity:0.4;fill:url(#SVGID_00000023251285840274911620000013763685203073397645_);enable-background:new    ;}
	.st8{fill:url(#SVGID_00000101102199573999948880000008012851436213904516_);}
	.st9{fill:#030404;}
	.st10{fill:url(#SVGID_00000036954089481945807840000013452449598599162800_);}
	.st11{fill:#4BAD39;}
	.st12{fill:#0D582A;stroke:#1E4523;stroke-width:3.68;stroke-miterlimit:10;}
	.st13{opacity:5.000000e-02;fill:#030404;enable-background:new    ;}
	.st14{opacity:0.4;fill:url(#SVGID_00000005962378280151470200000007835636523559142567_);enable-background:new    ;}
	.st15{fill:url(#SVGID_00000150794530552072274560000008945660328915439259_);}
	.st16{fill:url(#SVGID_00000047760418503376260070000015395626458136478631_);}
	.st17{fill:url(#SVGID_00000117638772171505571320000018291460858499591315_);}
	.st18{fill:url(#SVGID_00000099627187964256229430000018422836420015764360_);}
	.st19{fill:none;stroke:#1F1F1D;stroke-width:4.75;stroke-miterlimit:10;}
	.st20{fill:none;stroke:#1F1F1D;stroke-width:1.49;stroke-miterlimit:10;}
	
		.st21{fill:#E2131B;stroke:url(#SVGID_00000134951294688112892710000007202142982211738276_);stroke-width:4.75;stroke-miterlimit:10;}
	
		.st22{fill:#E2131B;stroke:url(#SVGID_00000021078953275175661990000001483681556028808334_);stroke-width:4.75;stroke-miterlimit:10;}
</style>
<rect x="0.5" y="0.5" class="st0" width="720" height="378.9"/>
<g id="steel">
	<rect x="324.6" y="246.4" class="st1" width="116.3" height="116.3"/>
	
		<linearGradient id="SVGID_1_" gradientUnits="userSpaceOnUse" x1="-2032.4797" y1="3025.2495" x2="-1954.98" y2="2947.75" gradientTransform="matrix(0.7071 -0.7071 0.7071 0.7071 -319.1875 -3217.0322)">
		<stop  offset="0" style="stop-color:#452B1A"/>
		<stop  offset="5.000000e-02" style="stop-color:#583519"/>
		<stop  offset="0.1" style="stop-color:#683E15"/>
		<stop  offset="0.32" style="stop-color:#76481E"/>
		<stop  offset="0.75" style="stop-color:#8C5A31"/>
		<stop  offset="1" style="stop-color:#946137"/>
	</linearGradient>
	<rect x="328" y="249.8" class="st2" width="109.6" height="109.6"/>
	<rect x="333.3" y="255.1" class="st3" width="98.9" height="98.9"/>
	<g>
		<path class="st4" d="M393.1,337.2l2.4-46l-5.6-0.6l-0.8-2h-4.3l-0.8,2l-6.5-0.3v-11.9h7.5l0.6,2.3l3.5,0.5l0.8-2.7h7.7l1.5,1.3
			l1.3-1.3h9.6l1.1,1.9l1.7-1.9l7.3,6l-0.5,4.1c0,0-4-3.7-6-3.7s-4.8-0.1-4.8-0.1l-4,6.4l-2.4,0.2l2.2,45.8L393.1,337.2L393.1,337.2
			z"/>
		<polygon class="st4" points="371.3,276.5 363.5,272.2 363.4,282.9 356.3,282.9 356.3,272.2 347.4,276.3 347.4,289.4 355.7,293.4 
			352.8,337.2 366.1,337.2 363.5,293.4 371.3,289.9 		"/>
	</g>
	<path id="darker" class="st5" d="M437.5,359.3H328v-60c0,0,34.5,5.3,54.7,5.3c20.2,0,54.8-5.3,54.8-5.3V359.3L437.5,359.3z"/>
</g>
<g id="plant-2" class="st6">
	
		<linearGradient id="SVGID_00000084512733073163810220000006856771686789599921_" gradientUnits="userSpaceOnUse" x1="538.4342" y1="-2049.4609" x2="538.4342" y2="-1958.002" gradientTransform="matrix(1 0 0 -1 0 -1698.9814)">
		<stop  offset="0" style="stop-color:#FFDC15"/>
		<stop  offset="0" style="stop-color:#FFDB16"/>
		<stop  offset="5.000000e-02" style="stop-color:#F9BB24"/>
		<stop  offset="0.1" style="stop-color:#F59D1E"/>
		<stop  offset="0.16" style="stop-color:#EF7C1E"/>
		<stop  offset="0.22" style="stop-color:#E86312"/>
		<stop  offset="0.27" style="stop-color:#E94C21"/>
		<stop  offset="0.34" style="stop-color:#E63B23"/>
		<stop  offset="0.41" style="stop-color:#E63624"/>
		<stop  offset="0.5" style="stop-color:#E63324"/>
		<stop  offset="0.59" style="stop-color:#E63624"/>
		<stop  offset="0.66" style="stop-color:#E63B23"/>
		<stop  offset="0.73" style="stop-color:#E94C21"/>
		<stop  offset="0.78" style="stop-color:#E86312"/>
		<stop  offset="0.84" style="stop-color:#EF7C1E"/>
		<stop  offset="0.9" style="stop-color:#F59D1E"/>
		<stop  offset="0.95" style="stop-color:#F9BB24"/>
		<stop  offset="1" style="stop-color:#FFDB16"/>
		<stop  offset="1" style="stop-color:#FFDC15"/>
	</linearGradient>
	
		<rect x="492.7" y="259" style="opacity:0.4;fill:url(#SVGID_00000084512733073163810220000006856771686789599921_);enable-background:new    ;" width="91.5" height="91.5"/>
	
		<linearGradient id="SVGID_00000026845999700597598420000015897747429548781717_" gradientUnits="userSpaceOnUse" x1="538.5002" y1="-2046.0931" x2="538.5002" y2="-1961.3698" gradientTransform="matrix(1 0 0 -1 0 -1698.9814)">
		<stop  offset="0" style="stop-color:#FFDC15"/>
		<stop  offset="0" style="stop-color:#FFDB16"/>
		<stop  offset="5.000000e-02" style="stop-color:#F9BB24"/>
		<stop  offset="0.1" style="stop-color:#F59D1E"/>
		<stop  offset="0.16" style="stop-color:#EF7C1E"/>
		<stop  offset="0.22" style="stop-color:#E86312"/>
		<stop  offset="0.27" style="stop-color:#E94C21"/>
		<stop  offset="0.34" style="stop-color:#E63B23"/>
		<stop  offset="0.41" style="stop-color:#E63624"/>
		<stop  offset="0.5" style="stop-color:#E63324"/>
		<stop  offset="0.59" style="stop-color:#E63624"/>
		<stop  offset="0.66" style="stop-color:#E63B23"/>
		<stop  offset="0.73" style="stop-color:#E94C21"/>
		<stop  offset="0.78" style="stop-color:#E86312"/>
		<stop  offset="0.84" style="stop-color:#EF7C1E"/>
		<stop  offset="0.9" style="stop-color:#F59D1E"/>
		<stop  offset="0.95" style="stop-color:#F9BB24"/>
		<stop  offset="1" style="stop-color:#FFDB16"/>
		<stop  offset="1" style="stop-color:#FFDC15"/>
	</linearGradient>
	
		<rect x="496.1" y="262.4" style="fill:url(#SVGID_00000026845999700597598420000015897747429548781717_);" width="84.7" height="84.7"/>
	<rect x="500.6" y="266.9" class="st9" width="75.9" height="75.9"/>
	
		<linearGradient id="SVGID_00000041281397593892442250000014544184715703205256_" gradientUnits="userSpaceOnUse" x1="-1908.0488" y1="-3886.1482" x2="-1857.4785" y2="-3835.5781" gradientTransform="matrix(0.7071 -0.7071 -0.7071 -0.7071 -860.1478 -3756.5024)">
		<stop  offset="0" style="stop-color:#116A37"/>
		<stop  offset="4.000000e-02" style="stop-color:#156D38"/>
		<stop  offset="8.000000e-02" style="stop-color:#0A783A"/>
		<stop  offset="0.13" style="stop-color:#148837"/>
		<stop  offset="0.15" style="stop-color:#0F9039"/>
		<stop  offset="0.35" style="stop-color:#38993D"/>
		<stop  offset="0.76" style="stop-color:#61B149"/>
		<stop  offset="1" style="stop-color:#70B74B"/>
	</linearGradient>
	
		<rect x="502.8" y="269.1" style="fill:url(#SVGID_00000041281397593892442250000014544184715703205256_);" width="71.5" height="71.5"/>
	<rect x="506.2" y="272.6" class="st11" width="64.6" height="64.6"/>
	<path id="leaf-2" class="st12" d="M538.5,288.5c-9.2,1.3-16.3,7.3-16.3,16.3c0,2.2,0.4,4.3,1.2,6.3c-1.7,1.1-4.2,2.6-5.4,3.1
		c-2.1,0.7-6.4,0.3-6.6,0.6c-0.2,0.3,1.2,4.2,1.7,4.4c0.5,0.1,4.4,0.2,6.6-0.6c1.6-0.5,4.4-2.4,6.1-3.6c3,3.8,7.6,6.1,12.8,6.1
		c9,0,16.2-5.7,16.2-14.7c0-3.4,0.9-7.9,2.1-10.6c1.4-3,8.7-5,8.7-5C564.8,288.5,542.2,288,538.5,288.5L538.5,288.5L538.5,288.5
		L538.5,288.5L538.5,288.5z"/>
	<path id="darker-2" class="st13" d="M574.3,340.6h-71.5v-39.2c0,0,22.5,3.4,35.7,3.4s35.8-3.4,35.8-3.4V340.6z"/>
</g>
<g id="plant-2-2" class="st6">
	
		<linearGradient id="SVGID_00000173878015849772442640000010431359001429078445_" gradientUnits="userSpaceOnUse" x1="632.2705" y1="-2049.4609" x2="632.2705" y2="-1958.002" gradientTransform="matrix(1 0 0 -1 0 -1698.9814)">
		<stop  offset="0" style="stop-color:#FFDC15"/>
		<stop  offset="0" style="stop-color:#FFDB16"/>
		<stop  offset="5.000000e-02" style="stop-color:#F9BB24"/>
		<stop  offset="0.1" style="stop-color:#F59D1E"/>
		<stop  offset="0.16" style="stop-color:#EF7C1E"/>
		<stop  offset="0.22" style="stop-color:#E86312"/>
		<stop  offset="0.27" style="stop-color:#E94C21"/>
		<stop  offset="0.34" style="stop-color:#E63B23"/>
		<stop  offset="0.41" style="stop-color:#E63624"/>
		<stop  offset="0.5" style="stop-color:#E63324"/>
		<stop  offset="0.59" style="stop-color:#E63624"/>
		<stop  offset="0.66" style="stop-color:#E63B23"/>
		<stop  offset="0.73" style="stop-color:#E94C21"/>
		<stop  offset="0.78" style="stop-color:#E86312"/>
		<stop  offset="0.84" style="stop-color:#EF7C1E"/>
		<stop  offset="0.9" style="stop-color:#F59D1E"/>
		<stop  offset="0.95" style="stop-color:#F9BB24"/>
		<stop  offset="1" style="stop-color:#FFDB16"/>
		<stop  offset="1" style="stop-color:#FFDC15"/>
	</linearGradient>
	
		<rect x="586.5" y="259" style="opacity:0.4;fill:url(#SVGID_00000173878015849772442640000010431359001429078445_);enable-background:new    ;" width="91.5" height="91.5"/>
	
		<linearGradient id="SVGID_00000102510051414070025580000005446044637909121706_" gradientUnits="userSpaceOnUse" x1="632.2704" y1="-2046.0931" x2="632.2704" y2="-1961.3698" gradientTransform="matrix(1 0 0 -1 0 -1698.9814)">
		<stop  offset="0" style="stop-color:#FFDC15"/>
		<stop  offset="0" style="stop-color:#FFDB16"/>
		<stop  offset="5.000000e-02" style="stop-color:#F9BB24"/>
		<stop  offset="0.1" style="stop-color:#F59D1E"/>
		<stop  offset="0.16" style="stop-color:#EF7C1E"/>
		<stop  offset="0.22" style="stop-color:#E86312"/>
		<stop  offset="0.27" style="stop-color:#E94C21"/>
		<stop  offset="0.34" style="stop-color:#E63B23"/>
		<stop  offset="0.41" style="stop-color:#E63624"/>
		<stop  offset="0.5" style="stop-color:#E63324"/>
		<stop  offset="0.59" style="stop-color:#E63624"/>
		<stop  offset="0.66" style="stop-color:#E63B23"/>
		<stop  offset="0.73" style="stop-color:#E94C21"/>
		<stop  offset="0.78" style="stop-color:#E86312"/>
		<stop  offset="0.84" style="stop-color:#EF7C1E"/>
		<stop  offset="0.9" style="stop-color:#F59D1E"/>
		<stop  offset="0.95" style="stop-color:#F9BB24"/>
		<stop  offset="1" style="stop-color:#FFDB16"/>
		<stop  offset="1" style="stop-color:#FFDC15"/>
	</linearGradient>
	
		<rect x="589.9" y="262.4" style="fill:url(#SVGID_00000102510051414070025580000005446044637909121706_);" width="84.7" height="84.7"/>
	<rect x="594.4" y="266.9" class="st9" width="75.9" height="75.9"/>
	
		<linearGradient id="SVGID_00000069366046418886005680000003910288821163581328_" gradientUnits="userSpaceOnUse" x1="-1841.7426" y1="-3952.4546" x2="-1791.1724" y2="-3901.8843" gradientTransform="matrix(0.7071 -0.7071 -0.7071 -0.7071 -860.1478 -3756.5024)">
		<stop  offset="0" style="stop-color:#116A37"/>
		<stop  offset="4.000000e-02" style="stop-color:#156D38"/>
		<stop  offset="8.000000e-02" style="stop-color:#0A783A"/>
		<stop  offset="0.13" style="stop-color:#148837"/>
		<stop  offset="0.15" style="stop-color:#0F9039"/>
		<stop  offset="0.35" style="stop-color:#38993D"/>
		<stop  offset="0.76" style="stop-color:#61B149"/>
		<stop  offset="1" style="stop-color:#70B74B"/>
	</linearGradient>
	
		<rect x="596.6" y="269.1" style="fill:url(#SVGID_00000069366046418886005680000003910288821163581328_);" width="71.5" height="71.5"/>
	<rect x="600" y="272.6" class="st11" width="64.6" height="64.6"/>
	<path id="leaf-2-2" class="st12" d="M632.3,288.5c-9.2,1.3-16.3,7.3-16.3,16.3c0,2.2,0.5,4.3,1.2,6.3c-1.7,1.1-4.2,2.6-5.4,3.1
		c-2.1,0.7-6.4,0.3-6.6,0.6c-0.2,0.3,1.2,4.2,1.7,4.4c0.5,0.1,4.4,0.2,6.6-0.6c1.6-0.5,4.4-2.4,6.1-3.6c3,3.8,7.6,6.1,12.7,6.1
		c9,0,16.2-5.7,16.2-14.7c0-3.4,0.9-7.9,2.1-10.6c1.4-3,8.7-5,8.7-5C658.6,288.5,635.9,288,632.3,288.5L632.3,288.5L632.3,288.5
		L632.3,288.5L632.3,288.5z"/>
	<path id="darker-2-2" class="st13" d="M668.1,340.6h-71.5v-39.2c0,0,22.5,3.4,35.7,3.4c13.2,0,35.8-3.4,35.8-3.4V340.6z"/>
</g>
<g id="steel-2">
	<rect x="188.6" y="246.4" class="st1" width="116.3" height="116.3"/>
	
		<linearGradient id="SVGID_00000043420838426082254020000015460139770966724008_" gradientUnits="userSpaceOnUse" x1="-2128.6521" y1="2929.082" x2="-2051.1426" y2="2851.5825" gradientTransform="matrix(0.7071 -0.7071 0.7071 0.7071 -319.1875 -3217.0322)">
		<stop  offset="0" style="stop-color:#452B1A"/>
		<stop  offset="5.000000e-02" style="stop-color:#583519"/>
		<stop  offset="0.1" style="stop-color:#683E15"/>
		<stop  offset="0.32" style="stop-color:#76481E"/>
		<stop  offset="0.75" style="stop-color:#8C5A31"/>
		<stop  offset="1" style="stop-color:#946137"/>
	</linearGradient>
	
		<rect x="192" y="249.8" style="fill:url(#SVGID_00000043420838426082254020000015460139770966724008_);" width="109.6" height="109.6"/>
	<rect x="197.3" y="255.1" class="st3" width="98.9" height="98.9"/>
	<g>
		<path class="st4" d="M257.1,337.2l2.4-46l-5.6-0.6l-0.8-2h-4.3l-0.8,2l-6.5-0.3v-11.9h7.6l0.6,2.3l3.5,0.5l0.8-2.7h7.7l1.5,1.3
			l1.3-1.3h9.6l1.1,1.9l1.7-1.9l7.3,6l-0.5,4.1c0,0-4-3.7-6-3.7s-4.8-0.1-4.8-0.1l-4,6.4l-2.4,0.2l2.2,45.8L257.1,337.2L257.1,337.2
			z"/>
		<polygon class="st4" points="235.3,276.5 227.5,272.2 227.4,282.9 220.3,282.9 220.3,272.2 211.4,276.3 211.4,289.4 219.7,293.4 
			216.8,337.2 230.1,337.2 227.5,293.4 235.3,289.9 		"/>
	</g>
	<path id="darker-2_00000049902544138085294640000015128927791989562505_" class="st5" d="M301.5,359.3H192v-60
		c0,0,34.5,5.3,54.7,5.3s54.8-5.3,54.8-5.3V359.3L301.5,359.3z"/>
</g>
<g id="oxIcon">
	
		<radialGradient id="SVGID_00000074443186858704826730000007515759255822308527_" cx="360.5" cy="1059.2384" r="96.4" gradientTransform="matrix(1 0 0 1 0 -950.7384)" gradientUnits="userSpaceOnUse">
		<stop  offset="0" style="stop-color:#F6EE82"/>
		<stop  offset="0.78" style="stop-color:#F6EE82"/>
		<stop  offset="0.91" style="stop-color:#F6EE82"/>
		<stop  offset="0.91" style="stop-color:#F7EE85"/>
		<stop  offset="0.94" style="stop-color:#FAF4B6"/>
		<stop  offset="0.96" style="stop-color:#FDFADA"/>
		<stop  offset="0.97" style="stop-color:#FEFCEF"/>
		<stop  offset="0.99" style="stop-color:#FFFFFD"/>
		<stop  offset="1" style="stop-color:#FFFFFF"/>
	</radialGradient>
	<path style="fill:url(#SVGID_00000074443186858704826730000007515759255822308527_);" d="M456.9,108.5c0,53.2-43.2,96.4-96.4,96.4
		s-96.4-43.2-96.4-96.4s43.2-96.4,96.4-96.4C413.7,12.3,456.9,55.3,456.9,108.5L456.9,108.5z"/>
	<path class="st19" d="M456.7,108.5c0,53.2-43.2,96.4-96.4,96.4s-96.2-43.2-96.2-96.4s43.2-96.4,96.4-96.4S456.7,55.5,456.7,108.5
		L456.7,108.5z"/>
	<path class="st20" d="M445.7,108.5c0,47.1-38.2,85.2-85.2,85.2s-85.2-38.2-85.2-85.2s38.2-85.1,85.2-85.1S445.7,61.5,445.7,108.5z"
		/>
	
		<linearGradient id="SVGID_00000070811662865993321120000005024026259878804405_" gradientUnits="userSpaceOnUse" x1="368.3019" y1="1098.4703" x2="313.5168" y2="1043.6752" gradientTransform="matrix(1 0 0 1 0 -950.7384)">
		<stop  offset="0" style="stop-color:#5C1410"/>
		<stop  offset="0.1" style="stop-color:#611912"/>
		<stop  offset="0.26" style="stop-color:#722A22"/>
		<stop  offset="0.48" style="stop-color:#904C43"/>
		<stop  offset="0.73" style="stop-color:#BE887F"/>
		<stop  offset="1" style="stop-color:#FBDEDE"/>
	</linearGradient>
	
		<path style="fill:#E2131B;stroke:url(#SVGID_00000070811662865993321120000005024026259878804405_);stroke-width:4.75;stroke-miterlimit:10;" d="
		M377.3,120.3c0,20.1-16.3,36.4-36.4,36.4s-36.4-16.3-36.4-36.4S320.9,84,340.9,84C361.1,84,377.3,100.3,377.3,120.3z"/>
	
		<linearGradient id="SVGID_00000120526005253553293990000009654573323160777603_" gradientUnits="userSpaceOnUse" x1="407.1169" y1="1072.2552" x2="352.3407" y2="1017.4791" gradientTransform="matrix(1 0 0 1 0 -950.7384)">
		<stop  offset="0" style="stop-color:#5C1410"/>
		<stop  offset="0.1" style="stop-color:#611912"/>
		<stop  offset="0.26" style="stop-color:#722A22"/>
		<stop  offset="0.48" style="stop-color:#904C43"/>
		<stop  offset="0.73" style="stop-color:#BE887F"/>
		<stop  offset="1" style="stop-color:#FBDEDE"/>
	</linearGradient>
	
		<path style="fill:#E2131B;stroke:url(#SVGID_00000120526005253553293990000009654573323160777603_);stroke-width:4.75;stroke-miterlimit:10;" d="
		M416.1,94.1c0,20.1-16.3,36.4-36.4,36.4s-36.4-16.3-36.4-36.4s16.3-36.4,36.4-36.4C400,57.8,416.1,74.1,416.1,94.1z"/>
</g>
<path class="st6" d="M465.3,309.3v-9h21.6v9H465.3z"/>
</svg>
