<?xml version="1.0" encoding="utf-8"?>
<!-- Generator: Adobe Illustrator 27.5.0, SVG Export Plug-In . SVG Version: 6.00 Build 0)  -->
<svg version="1.1" id="Layer" xmlns="http://www.w3.org/2000/svg" xmlns:xlink="http://www.w3.org/1999/xlink" x="0px" y="0px"
	 viewBox="0 0 720 378.9" style="enable-background:new 0 0 720 378.9;" xml:space="preserve">
<style type="text/css">
	.st0{opacity:0;}
	.st1{opacity:0.4;}
	.st2{opacity:0.4;fill:url(#SVGID_1_);enable-background:new    ;}
	.st3{fill:url(#SVGID_00000162342184132348940000000017682868178917866112_);}
	.st4{fill:#020303;}
	.st5{fill:url(#SVGID_00000155132819731987706100000011248123117245790089_);}
	.st6{fill:#50504F;}
	.st7{opacity:0.64;fill:#020303;enable-background:new    ;}
	.st8{fill:none;stroke:#FFD80C;stroke-width:3.84;stroke-miterlimit:10;}
	.st9{opacity:0.4;fill:url(#SVGID_00000100366283212795652060000015003606627737872056_);enable-background:new    ;}
	.st10{fill:url(#SVGID_00000160902712637864220790000006037475951331868859_);}
	.st11{fill:url(#SVGID_00000070816257335711179770000004227294146311286450_);}
	.st12{fill:#946137;}
	.st13{fill:#332116;}
	.st14{opacity:0.15;fill:#020303;enable-background:new    ;}
	.st15{opacity:0.4;fill:url(#obram_czarne_00000048498998826553635810000007805285716108623232_);enable-background:new    ;}
	.st16{fill:url(#obram_czarne-2_00000110463407538061154910000006467871542245403821_);}
	.st17{fill:#010101;stroke:#020303;stroke-width:1.57;stroke-miterlimit:10;}
	.st18{fill:url(#obram_zolte_00000127021481572973207470000015412199392343686078_);}
	.st19{fill:url(#tlo_wew_00000026885097293618563700000009665217707013931908_);}
	.st20{fill:url(#obram_skosne_00000094609423791692824730000013066947485131784844_);}
	.st21{fill:url(#tlo_zew_00000180359642065909768060000006413442063542600121_);}
</style>
<rect class="st0" width="720" height="378.9"/>
<g id="titan" class="st1">
	
		<linearGradient id="SVGID_1_" gradientUnits="userSpaceOnUse" x1="123.16" y1="1183.55" x2="123.16" y2="1070.3101" gradientTransform="matrix(1 0 0 1 0 -937.55)">
		<stop  offset="0" style="stop-color:#FFDC15"/>
		<stop  offset="0" style="stop-color:#FFDB16"/>
		<stop  offset="5.000000e-02" style="stop-color:#F9BB24"/>
		<stop  offset="0.1" style="stop-color:#F59D1E"/>
		<stop  offset="0.16" style="stop-color:#EF7C1E"/>
		<stop  offset="0.22" style="stop-color:#E86312"/>
		<stop  offset="0.27" style="stop-color:#E94C21"/>
		<stop  offset="0.34" style="stop-color:#E63B23"/>
		<stop  offset="0.41" style="stop-color:#E63624"/>
		<stop  offset="0.5" style="stop-color:#E63324"/>
		<stop  offset="0.59" style="stop-color:#E63624"/>
		<stop  offset="0.66" style="stop-color:#E63B23"/>
		<stop  offset="0.73" style="stop-color:#E94C21"/>
		<stop  offset="0.78" style="stop-color:#E86312"/>
		<stop  offset="0.84" style="stop-color:#EF7C1E"/>
		<stop  offset="0.9" style="stop-color:#F59D1E"/>
		<stop  offset="0.95" style="stop-color:#F9BB24"/>
		<stop  offset="1" style="stop-color:#FFDB16"/>
		<stop  offset="1" style="stop-color:#FFDC15"/>
	</linearGradient>
	<rect x="66.5" y="132.8" class="st2" width="113.2" height="113.2"/>
	
		<linearGradient id="SVGID_00000044162411897730402870000013125174730152777861_" gradientUnits="userSpaceOnUse" x1="123.175" y1="1180.6" x2="123.175" y2="1073.27" gradientTransform="matrix(1 0 0 1 0 -937.55)">
		<stop  offset="0" style="stop-color:#FFDC15"/>
		<stop  offset="0" style="stop-color:#FFDB16"/>
		<stop  offset="5.000000e-02" style="stop-color:#F9BB24"/>
		<stop  offset="0.1" style="stop-color:#F59D1E"/>
		<stop  offset="0.16" style="stop-color:#EF7C1E"/>
		<stop  offset="0.22" style="stop-color:#E86312"/>
		<stop  offset="0.27" style="stop-color:#E94C21"/>
		<stop  offset="0.34" style="stop-color:#E63B23"/>
		<stop  offset="0.41" style="stop-color:#E63624"/>
		<stop  offset="0.5" style="stop-color:#E63324"/>
		<stop  offset="0.59" style="stop-color:#E63624"/>
		<stop  offset="0.66" style="stop-color:#E63B23"/>
		<stop  offset="0.73" style="stop-color:#E94C21"/>
		<stop  offset="0.78" style="stop-color:#E86312"/>
		<stop  offset="0.84" style="stop-color:#EF7C1E"/>
		<stop  offset="0.9" style="stop-color:#F59D1E"/>
		<stop  offset="0.95" style="stop-color:#F9BB24"/>
		<stop  offset="1" style="stop-color:#FFDB16"/>
		<stop  offset="1" style="stop-color:#FFDC15"/>
	</linearGradient>
	
		<rect x="69.5" y="135.7" style="fill:url(#SVGID_00000044162411897730402870000013125174730152777861_);" width="107.3" height="107.3"/>
	<rect x="75.3" y="141.5" class="st4" width="95.7" height="95.7"/>
	
		<linearGradient id="SVGID_00000036965392892788377670000001320196506916837030_" gradientUnits="userSpaceOnUse" x1="-1119.5543" y1="-843.3444" x2="-1055.7946" y2="-779.5847" gradientTransform="matrix(0.7071 -0.7071 -0.7071 -0.7071 318.4749 -1153.509)">
		<stop  offset="0" style="stop-color:#020303"/>
		<stop  offset="1" style="stop-color:#797879"/>
	</linearGradient>
	
		<rect x="78.1" y="144.3" style="fill:url(#SVGID_00000036965392892788377670000001320196506916837030_);" width="90.2" height="90.2"/>
	<rect x="82.4" y="148.7" class="st6" width="81.4" height="81.4"/>
	<path id="darker" class="st7" d="M168.2,234.5H78.1v-49.4c0,0,28.4,4.4,45.1,4.4s45.1-4.4,45.1-4.4V234.5z"/>
	<polygon class="st8" points="123.7,162.8 132.2,180.7 151.8,183.2 137.4,196.8 141.1,216.2 123.7,206.7 106.3,216.2 110,196.8 
		95.6,183.2 115.2,180.7 	"/>
</g>
<g id="steel" class="st1">
	
		<linearGradient id="SVGID_00000016067786209755768290000014660772027075378336_" gradientUnits="userSpaceOnUse" x1="402.27" y1="1183.55" x2="402.27" y2="1070.3101" gradientTransform="matrix(1 0 0 1 0 -937.55)">
		<stop  offset="0" style="stop-color:#FFDC15"/>
		<stop  offset="0" style="stop-color:#FFDB16"/>
		<stop  offset="5.000000e-02" style="stop-color:#F9BB24"/>
		<stop  offset="0.1" style="stop-color:#F59D1E"/>
		<stop  offset="0.16" style="stop-color:#EF7C1E"/>
		<stop  offset="0.22" style="stop-color:#E86312"/>
		<stop  offset="0.27" style="stop-color:#E94C21"/>
		<stop  offset="0.34" style="stop-color:#E63B23"/>
		<stop  offset="0.41" style="stop-color:#E63624"/>
		<stop  offset="0.5" style="stop-color:#E63324"/>
		<stop  offset="0.59" style="stop-color:#E63624"/>
		<stop  offset="0.66" style="stop-color:#E63B23"/>
		<stop  offset="0.73" style="stop-color:#E94C21"/>
		<stop  offset="0.78" style="stop-color:#E86312"/>
		<stop  offset="0.84" style="stop-color:#EF7C1E"/>
		<stop  offset="0.9" style="stop-color:#F59D1E"/>
		<stop  offset="0.95" style="stop-color:#F9BB24"/>
		<stop  offset="1" style="stop-color:#FFDB16"/>
		<stop  offset="1" style="stop-color:#FFDC15"/>
	</linearGradient>
	
		<rect x="345.6" y="132.8" style="opacity:0.4;fill:url(#SVGID_00000016067786209755768290000014660772027075378336_);enable-background:new    ;" width="113.2" height="113.2"/>
	
		<linearGradient id="SVGID_00000100351303291017953520000002772507352898817719_" gradientUnits="userSpaceOnUse" x1="402.275" y1="1180.6" x2="402.275" y2="1073.27" gradientTransform="matrix(1 0 0 1 0 -937.55)">
		<stop  offset="0" style="stop-color:#FFDC15"/>
		<stop  offset="0" style="stop-color:#FFDB16"/>
		<stop  offset="5.000000e-02" style="stop-color:#F9BB24"/>
		<stop  offset="0.1" style="stop-color:#F59D1E"/>
		<stop  offset="0.16" style="stop-color:#EF7C1E"/>
		<stop  offset="0.22" style="stop-color:#E86312"/>
		<stop  offset="0.27" style="stop-color:#E94C21"/>
		<stop  offset="0.34" style="stop-color:#E63B23"/>
		<stop  offset="0.41" style="stop-color:#E63624"/>
		<stop  offset="0.5" style="stop-color:#E63324"/>
		<stop  offset="0.59" style="stop-color:#E63624"/>
		<stop  offset="0.66" style="stop-color:#E63B23"/>
		<stop  offset="0.73" style="stop-color:#E94C21"/>
		<stop  offset="0.78" style="stop-color:#E86312"/>
		<stop  offset="0.84" style="stop-color:#EF7C1E"/>
		<stop  offset="0.9" style="stop-color:#F59D1E"/>
		<stop  offset="0.95" style="stop-color:#F9BB24"/>
		<stop  offset="1" style="stop-color:#FFDB16"/>
		<stop  offset="1" style="stop-color:#FFDC15"/>
	</linearGradient>
	
		<rect x="348.6" y="135.7" style="fill:url(#SVGID_00000100351303291017953520000002772507352898817719_);" width="107.3" height="107.3"/>
	<rect x="354.6" y="141.5" class="st4" width="95.7" height="95.7"/>
	
		<linearGradient id="SVGID_00000025441200979673839930000011916401129379600532_" gradientUnits="userSpaceOnUse" x1="-922.0311" y1="2360.2949" x2="-858.2713" y2="2296.5349" gradientTransform="matrix(0.7071 -0.7071 0.7071 0.7071 -614.511 -2086.4849)">
		<stop  offset="0" style="stop-color:#452B1A"/>
		<stop  offset="5.000000e-02" style="stop-color:#583519"/>
		<stop  offset="0.1" style="stop-color:#683E15"/>
		<stop  offset="0.32" style="stop-color:#76481E"/>
		<stop  offset="0.75" style="stop-color:#8C5A31"/>
		<stop  offset="1" style="stop-color:#946137"/>
	</linearGradient>
	
		<rect x="357.4" y="144.3" style="fill:url(#SVGID_00000025441200979673839930000011916401129379600532_);" width="90.2" height="90.2"/>
	<rect x="361.8" y="148.7" class="st12" width="81.4" height="81.4"/>
	<g>
		<path class="st13" d="M411,216.3l2-37.8l-4.6-0.5l-0.7-1.6h-3.5l-0.6,1.7l-5.4-0.2v-9.8h6.2l0.5,1.9l2.9,0.4l0.7-2.2h6.4l1.2,1.1
			l1.1-1.1h7.9l0.9,1.5l1.4-1.5l6,4.9l-0.4,3.4c0,0-3.3-3.1-4.9-3.1s-3.9-0.1-3.9-0.1l-3.3,5.3l-2,0.1l1.8,37.7H411L411,216.3z"/>
		<polygon class="st13" points="393.1,166.3 386.6,162.8 386.6,171.5 380.7,171.5 380.7,162.8 373.4,166.2 373.4,176.9 380.2,180.2 
			377.8,216.3 388.8,216.3 386.6,180.2 393.1,177.3 		"/>
	</g>
	<path id="darker-2" class="st14" d="M447.6,234.5h-90.2v-49.4c0,0,28.4,4.4,45,4.4s45.1-4.4,45.1-4.4L447.6,234.5L447.6,234.5
		L447.6,234.5z"/>
</g>
<g id="mln" class="st1">
	
		<linearGradient id="obram_czarne_00000074419491547240196030000009466094009853912975_" gradientUnits="userSpaceOnUse" x1="655.21" y1="134.05" x2="655.21" y2="249.24" gradientTransform="matrix(1 0 0 -1 0 381.18)">
		<stop  offset="0" style="stop-color:#FFDC15"/>
		<stop  offset="0" style="stop-color:#FFDB16"/>
		<stop  offset="5.000000e-02" style="stop-color:#F9BB24"/>
		<stop  offset="0.1" style="stop-color:#F59D1E"/>
		<stop  offset="0.16" style="stop-color:#EF7C1E"/>
		<stop  offset="0.22" style="stop-color:#E86312"/>
		<stop  offset="0.27" style="stop-color:#E94C21"/>
		<stop  offset="0.34" style="stop-color:#E63B23"/>
		<stop  offset="0.41" style="stop-color:#E63624"/>
		<stop  offset="0.5" style="stop-color:#E63324"/>
		<stop  offset="0.59" style="stop-color:#E63624"/>
		<stop  offset="0.66" style="stop-color:#E63B23"/>
		<stop  offset="0.73" style="stop-color:#E94C21"/>
		<stop  offset="0.78" style="stop-color:#E86312"/>
		<stop  offset="0.84" style="stop-color:#EF7C1E"/>
		<stop  offset="0.9" style="stop-color:#F59D1E"/>
		<stop  offset="0.95" style="stop-color:#F9BB24"/>
		<stop  offset="1" style="stop-color:#FFDB16"/>
		<stop  offset="1" style="stop-color:#FFDC15"/>
	</linearGradient>
	
		<polygon id="obram_czarne" style="opacity:0.4;fill:url(#obram_czarne_00000074419491547240196030000009466094009853912975_);enable-background:new    ;" points="
		615.1,131.9 597.6,149.4 597.6,229.7 615.1,247.1 695.5,247.1 712.8,229.7 712.8,149.4 695.5,131.9 	"/>
	
		<linearGradient id="obram_czarne-2_00000155141079478284477720000008416030408103138706_" gradientUnits="userSpaceOnUse" x1="655.215" y1="136.7" x2="655.215" y2="246.58" gradientTransform="matrix(1 0 0 -1 0 381.18)">
		<stop  offset="0" style="stop-color:#FFDC15"/>
		<stop  offset="0" style="stop-color:#FFDB16"/>
		<stop  offset="5.000000e-02" style="stop-color:#F9BB24"/>
		<stop  offset="0.1" style="stop-color:#F59D1E"/>
		<stop  offset="0.16" style="stop-color:#EF7C1E"/>
		<stop  offset="0.22" style="stop-color:#E86312"/>
		<stop  offset="0.27" style="stop-color:#E94C21"/>
		<stop  offset="0.34" style="stop-color:#E63B23"/>
		<stop  offset="0.41" style="stop-color:#E63624"/>
		<stop  offset="0.5" style="stop-color:#E63324"/>
		<stop  offset="0.59" style="stop-color:#E63624"/>
		<stop  offset="0.66" style="stop-color:#E63B23"/>
		<stop  offset="0.73" style="stop-color:#E94C21"/>
		<stop  offset="0.78" style="stop-color:#E86312"/>
		<stop  offset="0.84" style="stop-color:#EF7C1E"/>
		<stop  offset="0.9" style="stop-color:#F59D1E"/>
		<stop  offset="0.95" style="stop-color:#F9BB24"/>
		<stop  offset="1" style="stop-color:#FFDB16"/>
		<stop  offset="1" style="stop-color:#FFDC15"/>
	</linearGradient>
	<polygon id="obram_czarne-2" style="fill:url(#obram_czarne-2_00000155141079478284477720000008416030408103138706_);" points="
		616.9,134.6 600.3,151.2 600.3,227.8 616.9,244.5 693.6,244.5 710.2,227.8 710.2,151.2 693.6,134.6 	"/>
	<polygon id="obram_czarne-2-2" class="st17" points="621.9,141.6 607.4,156.1 607.4,222.8 621.9,237.3 688.6,237.3 703.1,222.8 
		703.1,156.1 688.6,141.6 	"/>
	
		<linearGradient id="obram_zolte_00000021829069470193484700000012130594011646885565_" gradientUnits="userSpaceOnUse" x1="655.245" y1="129.58" x2="655.245" y2="219.79" gradientTransform="matrix(1 0 0 -1 0 364.18)">
		<stop  offset="0.16" style="stop-color:#813912"/>
		<stop  offset="0.18" style="stop-color:#975A19"/>
		<stop  offset="0.22" style="stop-color:#AE7D21"/>
		<stop  offset="0.26" style="stop-color:#C39D27"/>
		<stop  offset="0.3" style="stop-color:#D6B92E"/>
		<stop  offset="0.35" style="stop-color:#E4CF35"/>
		<stop  offset="0.41" style="stop-color:#EFE036"/>
		<stop  offset="0.48" style="stop-color:#F6E942"/>
		<stop  offset="0.58" style="stop-color:#F8EA48"/>
		<stop  offset="0.86" style="stop-color:#F7EA47"/>
		<stop  offset="1" style="stop-color:#FCF4F9"/>
	</linearGradient>
	<polygon id="obram_zolte" style="fill:url(#obram_zolte_00000021829069470193484700000012130594011646885565_);" points="
		623.7,144.4 610.2,158 610.2,221 623.7,234.6 686.7,234.6 700.3,221 700.3,158 686.7,144.4 	"/>
	
		<linearGradient id="tlo_wew_00000079480306156613398260000012475386146436377014_" gradientUnits="userSpaceOnUse" x1="655.25" y1="224.59" x2="655.25" y2="86.7" gradientTransform="matrix(1 0 0 -1 0 364.18)">
		<stop  offset="0.26" style="stop-color:#F7EA47"/>
		<stop  offset="0.86" style="stop-color:#803612"/>
	</linearGradient>
	<polygon id="tlo_wew" style="fill:url(#tlo_wew_00000079480306156613398260000012475386146436377014_);" points="624.7,145.7 
		611.4,159 611.4,220 624.7,233.3 685.8,233.3 699.1,220 699.1,159 685.8,145.7 	"/>
	
		<linearGradient id="obram_skosne_00000050658263672869847210000002082954593089348740_" gradientUnits="userSpaceOnUse" x1="655.28" y1="130.82" x2="655.28" y2="218.46" gradientTransform="matrix(1 0 0 -1 0 364.18)">
		<stop  offset="0.16" style="stop-color:#803612"/>
		<stop  offset="0.17" style="stop-color:#8B461E"/>
		<stop  offset="0.18" style="stop-color:#A26A3B"/>
		<stop  offset="0.2" style="stop-color:#B78954"/>
		<stop  offset="0.22" style="stop-color:#C7A468"/>
		<stop  offset="0.24" style="stop-color:#D7BB7A"/>
		<stop  offset="0.26" style="stop-color:#E2CC88"/>
		<stop  offset="0.3" style="stop-color:#EAD891"/>
		<stop  offset="0.34" style="stop-color:#EEDE97"/>
		<stop  offset="0.46" style="stop-color:#EFE097"/>
		<stop  offset="0.7" style="stop-color:#803612"/>
		<stop  offset="0.73" style="stop-color:#E6D234"/>
		<stop  offset="0.74" style="stop-color:#EAD848"/>
		<stop  offset="0.75" style="stop-color:#EEDE6D"/>
		<stop  offset="0.77" style="stop-color:#F1E38B"/>
		<stop  offset="0.79" style="stop-color:#F7EAA9"/>
		<stop  offset="0.8" style="stop-color:#F8EDBF"/>
		<stop  offset="0.83" style="stop-color:#FAF0CF"/>
		<stop  offset="0.85" style="stop-color:#FCF2DA"/>
		<stop  offset="0.89" style="stop-color:#FDF4E1"/>
		<stop  offset="0.99" style="stop-color:#FDF5E3"/>
	</linearGradient>
	<path id="obram_skosne" style="fill:url(#obram_skosne_00000050658263672869847210000002082954593089348740_);" d="M692.7,206.4
		c-2.4,0-4.4-2-4.4-4.4v-25c0-2.4,2-4.4,4.4-4.4h6.3V159l-13.2-13.2h-13.7v6.3c0,2.4-2,4.4-4.4,4.4h-25c-2.4,0-4.4-2-4.4-4.4v-6.3
		h-13.6L611.4,159v13.7h6.3c2.4,0,4.4,2,4.4,4.4v25c0,2.4-2,4.4-4.4,4.4h-6.3v13.6l13.2,13.2h13.7v-6.3c0-2.4,2-4.4,4.4-4.4h25
		c2.4,0,4.4,2,4.4,4.4v6.3h13.7l13.2-13.2v-13.7H692.7z"/>
	
		<linearGradient id="tlo_zew_00000017512988167465587210000001281842167217231796_" gradientUnits="userSpaceOnUse" x1="655.24" y1="205.6" x2="655.24" y2="70.36" gradientTransform="matrix(1 0 0 -1 0 364.18)">
		<stop  offset="0.26" style="stop-color:#F7EA47"/>
		<stop  offset="0.77" style="stop-color:#803612"/>
	</linearGradient>
	<path id="tlo_zew" style="fill:url(#tlo_zew_00000017512988167465587210000001281842167217231796_);" d="M692.5,207.9
		c-3,0-5.4-3-5.4-6v-24.9c0-3,2.4-6,5.4-6h5.1V160l-12.8-12.8h-11v5.1c0,3-3,5.4-6,5.4h-24.8c-3,0-6-2.4-6-5.4v-5.1h-11.2L612.9,160
		v11.1h5.1c3,0,5.4,3,5.4,6v24.9c0,3-2.4,6-5.4,6h-5.1V219l12.8,12.8h11.1v-5.1c0-3,3-5.4,6-5.4h24.8c3,0,6,2.4,6,5.4v5.1h11.1
		l12.8-12.8v-11.1H692.5L692.5,207.9z"/>
</g>
<path class="st1" d="M643.7,211.5c0.2-2.1,0.6-3.8,1.1-5.3s1.3-3.2,2.4-5.2c1.1-2,3.4-5.6,6.9-10.8l10.1-14.7h-22.3v-6.9h29.3v6.9
	c-4.1,5.2-7.4,9.9-9.8,14.1c-2.4,4.2-4.4,8.2-5.9,11.8s-2.2,7-2.2,10L643.7,211.5L643.7,211.5z"/>
<g class="st1">
	<path d="M9.7,195.9v-5.4h12.9v5.4H9.7z"/>
	<path d="M30.3,211.1v-6.4c4.2,1.6,7.8,2.5,10.6,2.5c2.5,0,4.5-0.6,6.1-1.9c1.6-1.3,2.4-3.1,2.4-5.2c0-1.6-0.4-3.1-1.2-4.4
		c-0.8-1.3-2-2.3-3.6-3c-1.6-0.7-4.1-1.1-7.5-1.1h-2.6v-5.1l2.2,0c3.3,0,5.6-0.3,7.1-0.9c1.4-0.6,2.5-1.5,3.4-2.7s1.2-2.6,1.2-4
		c0-1.7-0.6-3.1-1.8-4.2s-3-1.6-5.5-1.6c-3.1,0-6.5,0.8-10,2.4v-5.9c1.8-0.6,3.2-1,4.3-1.2s2.3-0.4,3.7-0.5c1.4-0.1,2.7-0.2,4-0.2
		c4.5,0,8,0.9,10.4,2.8s3.7,4.3,3.7,7.5c0,2.5-0.8,4.7-2.4,6.5c-1.6,1.8-3.9,3.2-7.1,4.2c2.8,0.6,4.9,1.5,6.3,2.6s2.6,2.5,3.3,4
		c0.8,1.5,1.2,3.2,1.2,4.9c0,3.2-1.3,6.1-3.8,8.7s-6.7,3.8-12.4,3.8c-1.5,0-3.1,0-4.8-0.1C35.5,212.3,33.2,211.8,30.3,211.1
		L30.3,211.1L30.3,211.1z"/>
</g>
<g class="st1">
	<path d="M288.2,197v-5.4H301v5.4H288.2z"/>
	<path d="M325.7,212.5v-11.4h-20v-6.4l19.7-25h7.8v25h5v6.4h-5v11.4L325.7,212.5L325.7,212.5z M312.5,194.6h13.3v-16.8L312.5,194.6z
		"/>
</g>
<path class="st1" d="M577.2,194.3v-5.4H590v5.4H577.2z"/>
<g class="st1">
	<path d="M213.1,213.5c-4.5,0-8.3-0.9-11.6-2.8s-5.8-4.5-7.5-8s-2.6-7.4-2.6-11.8s0.9-8.3,2.6-11.8s4.2-6.1,7.6-8
		c3.3-1.8,7.2-2.8,11.6-2.8s8.3,0.9,11.6,2.8s5.8,4.5,7.6,8c1.7,3.5,2.6,7.4,2.6,11.8s-0.9,8.3-2.6,11.8c-1.7,3.5-4.2,6.1-7.5,8
		C221.5,212.6,217.6,213.5,213.1,213.5L213.1,213.5L213.1,213.5z M213.1,207.7c4.1,0,7.2-1.7,9.2-5.1c2-3.4,3-7.2,3-11.6
		s-1-8.2-3-11.6s-5.1-5-9.2-5s-7.2,1.7-9.2,5s-3,7.2-3,11.6s1,8.2,3,11.6C205.9,206,209,207.7,213.1,207.7L213.1,207.7L213.1,207.7z
		"/>
	<path d="M242.9,212.5v-42.8h16c3.3,0,5.8,0.4,7.5,1.2c1.7,0.8,3.1,2.1,4.1,3.7c1,1.7,1.5,3.6,1.5,5.7c0,2.5-0.7,4.9-2.2,7.1
		s-3.5,3.9-6.1,5.1l14,20h-10.9L256.2,195h-4.9v17.5H242.9z M251.2,189.1h2.1c3.7,0,6.2-0.8,7.6-2.4c1.4-1.6,2.1-3.4,2.1-5.4
		c0-1.8-0.6-3.1-1.7-4.2c-1.1-1-3.5-1.6-7-1.6h-3.1L251.2,189.1L251.2,189.1L251.2,189.1z"/>
</g>
<g class="st1">
	<path d="M496.8,213.6c-4.5,0-8.3-0.9-11.6-2.8s-5.8-4.5-7.5-8s-2.6-7.4-2.6-11.8s0.9-8.3,2.6-11.8s4.2-6.1,7.6-8
		c3.3-1.8,7.2-2.8,11.6-2.8s8.3,0.9,11.6,2.8c3.3,1.8,5.8,4.5,7.5,8s2.6,7.4,2.6,11.8s-0.9,8.3-2.6,11.8c-1.7,3.5-4.2,6.1-7.5,8
		C505.1,212.7,501.2,213.6,496.8,213.6L496.8,213.6L496.8,213.6z M496.8,207.7c4.1,0,7.2-1.7,9.2-5.1c2-3.4,3-7.2,3-11.6
		s-1-8.2-3-11.6s-5.1-5-9.2-5s-7.2,1.7-9.2,5s-3,7.2-3,11.6s1,8.2,3,11.6C489.6,206,492.6,207.7,496.8,207.7L496.8,207.7
		L496.8,207.7z"/>
	<path d="M526.5,212.5v-42.8h16c3.3,0,5.8,0.4,7.5,1.2c1.7,0.8,3.1,2.1,4.1,3.7c1,1.7,1.5,3.6,1.5,5.7c0,2.5-0.7,4.9-2.2,7.1
		s-3.5,3.9-6.1,5.1l14,20h-10.9L539.8,195h-4.9v17.5H526.5z M534.9,189.1h2c3.7,0,6.2-0.8,7.6-2.4s2.1-3.4,2.1-5.4
		c0-1.8-0.6-3.1-1.7-4.2s-3.5-1.6-7-1.6h-3.1L534.9,189.1L534.9,189.1L534.9,189.1z"/>
</g>
</svg>
