<?xml version="1.0" encoding="utf-8"?>
<!-- Generator: Adobe Illustrator 27.5.0, SVG Export Plug-In . SVG Version: 6.00 Build 0)  -->
<svg version="1.1" id="Layer" xmlns="http://www.w3.org/2000/svg" xmlns:xlink="http://www.w3.org/1999/xlink" x="0px" y="0px"
	 viewBox="0 0 721 379.9" style="enable-background:new 0 0 721 379.9;" xml:space="preserve">
<style type="text/css">
	.st0{fill:none;}
	.st1{fill:#1F1F1E;}
	.st2{fill:#20201E;}
	.st3{fill:#FFFFFF;fill-opacity:0;}
	.st4{fill:url(#external-border_00000103258854900157629660000009794915128497524375_);}
	.st5{fill:url(#internal-border_00000049904528587012977120000012292747166910014110_);}
	.st6{fill:url(#bg_00000126296508661445034070000010194819646454283150_);}
	.st7{opacity:0.1;fill:url(#bgPattern_00000059306622116591413500000015848792540251987883_);enable-background:new    ;}
	.st8{fill:#010202;stroke:#030304;stroke-width:1.67;stroke-miterlimit:10;}
	.st9{fill:url(#obram_zolte_00000155132735378481181120000001219726510497445505_);}
	.st10{fill:url(#tlo_wew_00000142140911983697006060000014416935537162920107_);}
	.st11{fill:url(#obram_skosne_00000084493598562754218170000017990672475517391019_);}
	.st12{fill:url(#tlo_zew_00000125574424272925182200000002149368463450166164_);}
	.st13{fill:#010101;}
	.st14{fill:#030304;}
	.st15{fill:url(#SVGID_1_);}
	.st16{fill:#7F358B;}
	.st17{fill:#FFFFFF;stroke:#030304;stroke-width:0.81;stroke-miterlimit:10;}
	.st18{opacity:0.15;fill:#030304;enable-background:new    ;}
	.st19{fill:url(#SVGID_00000120518839099499010820000009699998845563745155_);}
	.st20{fill:url(#SVGID_00000087393897941971680960000008766960725401444502_);}
	.st21{opacity:0.29;fill:#010101;enable-background:new    ;}
	.st22{fill:none;stroke:#020303;stroke-width:1.32;stroke-miterlimit:10;}
	.st23{fill:#020303;}
	.st24{fill:url(#SVGID_00000064323343403243758790000012850859242567191432_);}
	.st25{fill:url(#SVGID_00000170963569182808777550000008277456710075903905_);}
	.st26{opacity:0.29;fill:#020303;enable-background:new    ;}
	.st27{fill:none;stroke:#030404;stroke-width:1.32;stroke-miterlimit:10;}
	.st28{fill:#030404;}
	.st29{fill:url(#external-border-2_00000054233599359551382910000006527433575124326281_);}
	.st30{fill:url(#internal-border-2_00000013887583519543197060000008708716252429902764_);}
	.st31{fill:url(#bg-2_00000010305897105625903610000016589827737281232534_);}
	.st32{opacity:0.1;fill:url(#bgPattern-2_00000127763844272861836700000014477489262171222931_);enable-background:new    ;}
	.st33{fill:#020303;stroke:#030404;stroke-width:1.66;stroke-miterlimit:10;}
	.st34{fill:url(#obram_zolte-2_00000052089757320292278900000016609575180825983385_);}
	.st35{fill:url(#tlo_wew-2_00000093895871808025087510000006078825916222587566_);}
	.st36{fill:url(#obram_skosne-2_00000095304157709439745520000014348177240558586251_);}
	.st37{fill:url(#tlo_zew-2_00000082348533074598447630000012417006489665517470_);}
	.st38{fill:#010202;}
</style>
<pattern  y="379.9" width="19.7" height="21.7" patternUnits="userSpaceOnUse" id="Nowy_wzorek_3" viewBox="0 -21.7 19.7 21.7" style="overflow:visible;">
	<g>
		<rect y="-21.7" class="st0" width="19.7" height="21.7"/>
		<g>
			<rect y="-21.7" class="st0" width="19.7" height="21.7"/>
			<g>
				<rect y="-21.7" class="st0" width="19.7" height="21.7"/>
				<g>
					<rect y="-21.7" class="st0" width="19.7" height="21.7"/>
					<g>
						<rect y="-21.7" class="st0" width="19.7" height="21.7"/>
						<g>
							<rect y="-21.7" class="st0" width="19.7" height="21.7"/>
							<g>
								<rect y="-21.7" class="st0" width="19.7" height="21.7"/>
								<path class="st1" d="M16.6-13c2.1,2.1,2.1,5.6,0,7.7l-1.2,1.2C13.3-2,9.8-2,7.6-4.1L3.1-8.7c-2.1-2.1-2.1-5.6,0-7.7l1.2-1.2
									c2.1-2.1,5.6-2.1,7.7,0L16.6-13z"/>
							</g>
						</g>
					</g>
				</g>
			</g>
		</g>
	</g>
</pattern>
<pattern  y="379.9" width="19.7" height="21.7" patternUnits="userSpaceOnUse" id="bgPattern_000001774652474383983" viewBox="0 -21.7 19.7 21.7" style="overflow:visible;">
	<g>
		<rect y="-21.7" class="st0" width="19.7" height="21.7"/>
		<g>
			<rect y="-21.7" class="st0" width="19.7" height="21.7"/>
			<g>
				<rect y="-21.7" class="st0" width="19.7" height="21.7"/>
				<g>
					<rect y="-21.7" class="st0" width="19.7" height="21.7"/>
					<g>
						<rect y="-21.7" class="st0" width="19.7" height="21.7"/>
						<g>
							<rect y="-21.7" class="st0" width="19.7" height="21.7"/>
							<g>
								<rect y="-21.7" class="st0" width="19.7" height="21.7"/>
								<g>
									<rect y="-21.7" class="st0" width="19.7" height="21.7"/>
									<path class="st2" d="M16.6-8.7c2.1-2.1,2.1-5.6,0-7.7l-1.2-1.2c-2.1-2.1-5.6-2.1-7.8,0L3.1-13C1-10.9,1-7.4,3.1-5.3
										l1.2,1.2C6.4-2,9.9-2,12-4.1C12-4.1,16.6-8.7,16.6-8.7z"/>
								</g>
							</g>
						</g>
					</g>
				</g>
			</g>
		</g>
	</g>
</pattern>
<rect x="0.5" y="0.5" class="st3" width="720" height="378.9"/>
<g id="prodBg">
	
		<linearGradient id="external-border_00000021115446104253252320000009849895720960733628_" gradientUnits="userSpaceOnUse" x1="369.8182" y1="1131.8528" x2="146.9375" y2="908.9445" gradientTransform="matrix(1 0 0 1 0 -715.37)">
		<stop  offset="0" style="stop-color:#9E9D9C"/>
		<stop  offset="0.54" style="stop-color:#010202"/>
		<stop  offset="1" style="stop-color:#9E9D9C"/>
	</linearGradient>
	
		<rect id="external-border" x="105.5" y="235" style="fill:url(#external-border_00000021115446104253252320000009849895720960733628_);" width="305.7" height="140.1"/>
	
		<linearGradient id="internal-border_00000128449532762375121020000011620382174733401535_" gradientUnits="userSpaceOnUse" x1="258.4237" y1="1086.7905" x2="258.4237" y2="954.0344" gradientTransform="matrix(1 0 0 1 0 -715.37)">
		<stop  offset="0" style="stop-color:#462C1B"/>
		<stop  offset="1" style="stop-color:#B18048"/>
	</linearGradient>
	
		<rect id="internal-border" x="109.2" y="238.7" style="fill:url(#internal-border_00000128449532762375121020000011620382174733401535_);" width="298.4" height="132.8"/>
	
		<linearGradient id="bg_00000169518683448386963960000012783163489888533182_" gradientUnits="userSpaceOnUse" x1="258.3641" y1="1083.4321" x2="258.3641" y2="957.2734" gradientTransform="matrix(1 0 0 1 0 -715.37)">
		<stop  offset="0" style="stop-color:#946137"/>
		<stop  offset="1" style="stop-color:#805127"/>
	</linearGradient>
	
		<rect id="bg" x="112.5" y="241.9" style="fill:url(#bg_00000169518683448386963960000012783163489888533182_);" width="291.8" height="126.2"/>
	
		<pattern  id="bgPattern_00000003827438261149328750000007577503719750340009_" xlink:href="#Nowy_wzorek_3" patternTransform="matrix(1 0 0 1 51.9 33240.918)">
	</pattern>
	
		<rect id="bgPattern" x="112.5" y="241.9" style="opacity:0.1;fill:url(#bgPattern_00000003827438261149328750000007577503719750340009_);enable-background:new    ;" width="291.8" height="126.2"/>
</g>
<g id="mln">
	<polygon id="obram_czarne" class="st8" points="306.5,258.1 292.4,272.2 292.4,336.9 306.5,351 371.3,351 385.4,336.9 385.4,272.2 
		371.3,258.1 	"/>
	
		<linearGradient id="obram_zolte_00000028303968506955656420000000240301783497853346_" gradientUnits="userSpaceOnUse" x1="338.9189" y1="1064.7416" x2="338.9189" y2="977.1122" gradientTransform="matrix(1 0 0 1 0 -716.38)">
		<stop  offset="0.16" style="stop-color:#823A13"/>
		<stop  offset="0.18" style="stop-color:#985C1A"/>
		<stop  offset="0.22" style="stop-color:#AE7D22"/>
		<stop  offset="0.26" style="stop-color:#C39D26"/>
		<stop  offset="0.3" style="stop-color:#D6B92E"/>
		<stop  offset="0.35" style="stop-color:#E4CF36"/>
		<stop  offset="0.41" style="stop-color:#EFE036"/>
		<stop  offset="0.48" style="stop-color:#F6E947"/>
		<stop  offset="0.58" style="stop-color:#F8EA4E"/>
		<stop  offset="0.86" style="stop-color:#F6EA4D"/>
		<stop  offset="1" style="stop-color:#FCF4F9"/>
	</linearGradient>
	<polygon id="obram_zolte" style="fill:url(#obram_zolte_00000028303968506955656420000000240301783497853346_);" points="
		308.3,260.7 295.1,274 295.1,335.1 308.3,348.4 369.5,348.4 382.7,335.1 382.7,274 369.5,260.7 	"/>
	
		<linearGradient id="tlo_wew_00000105425549891037903690000010122103307212118429_" gradientUnits="userSpaceOnUse" x1="338.928" y1="972.4418" x2="338.928" y2="1106.3816" gradientTransform="matrix(1 0 0 1 0 -716.38)">
		<stop  offset="0.26" style="stop-color:#F6EA4D"/>
		<stop  offset="0.86" style="stop-color:#803813"/>
	</linearGradient>
	<polygon id="tlo_wew" style="fill:url(#tlo_wew_00000105425549891037903690000010122103307212118429_);" points="309.2,262 
		296.4,274.9 296.4,334.2 309.2,347.1 368.6,347.1 381.5,334.2 381.5,274.9 368.6,262 	"/>
	
		<linearGradient id="obram_skosne_00000083073040688484431760000006903633543129832069_" gradientUnits="userSpaceOnUse" x1="338.9648" y1="1063.5304" x2="338.9648" y2="978.4153" gradientTransform="matrix(1 0 0 1 0 -716.38)">
		<stop  offset="0.16" style="stop-color:#803813"/>
		<stop  offset="0.17" style="stop-color:#8C471E"/>
		<stop  offset="0.18" style="stop-color:#A26B3C"/>
		<stop  offset="0.2" style="stop-color:#B78954"/>
		<stop  offset="0.22" style="stop-color:#C7A468"/>
		<stop  offset="0.24" style="stop-color:#D7BB7A"/>
		<stop  offset="0.26" style="stop-color:#E2CC88"/>
		<stop  offset="0.3" style="stop-color:#EAD891"/>
		<stop  offset="0.34" style="stop-color:#EEDE97"/>
		<stop  offset="0.46" style="stop-color:#EFE097"/>
		<stop  offset="0.7" style="stop-color:#803813"/>
		<stop  offset="0.73" style="stop-color:#E6D234"/>
		<stop  offset="0.74" style="stop-color:#EBD948"/>
		<stop  offset="0.75" style="stop-color:#EEDE6D"/>
		<stop  offset="0.77" style="stop-color:#F0E28A"/>
		<stop  offset="0.79" style="stop-color:#F8EBAA"/>
		<stop  offset="0.8" style="stop-color:#F8EDBF"/>
		<stop  offset="0.83" style="stop-color:#FAF0CF"/>
		<stop  offset="0.85" style="stop-color:#FCF2DA"/>
		<stop  offset="0.89" style="stop-color:#FDF4E1"/>
		<stop  offset="0.99" style="stop-color:#FDF5E3"/>
	</linearGradient>
	<path id="obram_skosne" style="fill:url(#obram_skosne_00000083073040688484431760000006903633543129832069_);" d="M375.3,321
		c-2.4,0-4.3-1.9-4.3-4.3v-24.3c0-2.4,1.9-4.3,4.3-4.3h6.1v-13.2L368.6,262h-13.3v6.1c0,2.4-1.9,4.3-4.3,4.3h-24.3
		c-2.4,0-4.3-1.9-4.3-4.3V262h-13.2l-12.9,12.9v13.3h6.1c2.4,0,4.3,1.9,4.3,4.3v24.3c0,2.4-1.9,4.3-4.3,4.3h-6.1v13.2l12.9,12.9
		h13.3v-6.1c0-2.4,1.9-4.3,4.3-4.3h24.3c2.4,0,4.3,1.9,4.3,4.3v6.1h13.3l12.9-12.9V321H375.3L375.3,321z"/>
	
		<linearGradient id="tlo_zew_00000054242211182828730810000011549827245259089038_" gradientUnits="userSpaceOnUse" x1="338.9051" y1="990.8852" x2="338.9051" y2="1122.2559" gradientTransform="matrix(1 0 0 1 0 -716.38)">
		<stop  offset="0.26" style="stop-color:#F6EA4D"/>
		<stop  offset="0.77" style="stop-color:#803813"/>
	</linearGradient>
	<path id="tlo_zew" style="fill:url(#tlo_zew_00000054242211182828730810000011549827245259089038_);" d="M375.1,322.4
		c-2.9,0-5.2-2.9-5.2-5.8v-24.1c0-2.9,2.4-5.8,5.2-5.8h4.9v-10.8l-12.5-12.4h-10.7v4.9c0,2.9-2.9,5.2-5.8,5.2h-24.1
		c-2.9,0-5.8-2.4-5.8-5.2v-4.9h-10.9l-12.4,12.4v10.8h4.9c2.9,0,5.2,2.9,5.2,5.8v24.1c0,2.9-2.4,5.8-5.2,5.8h-4.9v10.8l12.4,12.4
		H321v-4.9c0-2.9,2.9-5.2,5.8-5.2h24.1c2.9,0,5.8,2.4,5.8,5.2v4.9h10.8l12.4-12.4v-10.8L375.1,322.4L375.1,322.4z"/>
</g>
<g>
	<path class="st13" d="M315.3,309.1v-4.9H327v4.9H315.3z"/>
	<path class="st13" d="M332.7,323.3v-6.2c2.4-3.2,4.7-5.8,6.9-7.7l3.2-2.8c2.3-2,4.2-4,5.7-6c1.5-2,2.3-4.1,2.3-6.2
		c0-2-0.6-3.5-1.9-4.6c-1.3-1.1-3-1.6-5.1-1.6c-2.9,0-6.2,1-10,2.9v-5.8c4-1.5,7.8-2.2,11.6-2.2c4.1,0,7.4,1,10,3
		c2.5,2,3.8,4.6,3.8,7.9c0,2.1-0.5,4.1-1.6,5.9c-1.1,1.9-3.3,4.1-6.7,6.9l-2.7,2.1c-1.2,0.9-2.4,2.1-3.8,3.6c-1.4,1.5-2.3,3-2.7,4.7
		h17.3v6.2L332.7,323.3L332.7,323.3z"/>
</g>
<g id="energy">
	<rect x="173.4" y="258.1" class="st14" width="92.9" height="92.9"/>
	
		<linearGradient id="SVGID_1_" gradientUnits="userSpaceOnUse" x1="-1130.5973" y1="2073.6782" x2="-1068.6324" y2="2011.741" gradientTransform="matrix(0.7071 -0.7071 0.7071 0.7071 -446.9881 -1917.412)">
		<stop  offset="0" style="stop-color:#1D1427"/>
		<stop  offset="0.24" style="stop-color:#372348"/>
		<stop  offset="0.49" style="stop-color:#573B6C"/>
		<stop  offset="0.71" style="stop-color:#72508C"/>
		<stop  offset="0.89" style="stop-color:#835CA0"/>
		<stop  offset="1" style="stop-color:#8963A7"/>
	</linearGradient>
	<rect x="176.1" y="260.8" class="st15" width="87.6" height="87.6"/>
	<polygon class="st16" points="259.4,265 259.4,344.1 180.3,344.1 180.3,265 	"/>
	<polygon class="st17" points="210.2,295.5 236.3,279.3 222.4,299.5 229.8,311.5 204.1,327.7 217,307.6 	"/>
	<path id="darker" class="st18" d="M263.7,348.3h-87.6v-48c0,0,27.6,4.2,43.8,4.2s43.8-4.2,43.8-4.2V348.3z"/>
</g>
<path class="st13" d="M130,312.5v-10.9h26.2v10.9C156.1,312.5,130,312.5,130,312.5z"/>
<g id="city">
	<polygon class="st13" points="611.2,332 611.2,246.8 537.5,204.3 463.7,246.8 463.7,332 537.5,374.6 	"/>
	
		<linearGradient id="SVGID_00000154387680601100958240000007637221262174666132_" gradientUnits="userSpaceOnUse" x1="537.4567" y1="1088.7893" x2="537.4567" y2="923.7067" gradientTransform="matrix(1 0 0 1 0 -716.91)">
		<stop  offset="0" style="stop-color:#010101"/>
		<stop  offset="1" style="stop-color:#FFFFFF"/>
	</linearGradient>
	<polygon style="fill:url(#SVGID_00000154387680601100958240000007637221262174666132_);" points="608.9,330.6 608.9,248.1 
		537.5,206.8 466,248.1 466,330.6 537.5,371.9 	"/>
	
		<radialGradient id="SVGID_00000006693473134602027280000015314196686592411321_" cx="611.2728" cy="1050.7341" r="81.0706" gradientTransform="matrix(0.89 0 0 0.89 -5.39 -645.82)" gradientUnits="userSpaceOnUse">
		<stop  offset="0" style="stop-color:#C8C7C7"/>
		<stop  offset="1" style="stop-color:#727070"/>
	</radialGradient>
	<polygon style="fill:url(#SVGID_00000006693473134602027280000015314196686592411321_);" points="604.3,328 604.3,250.8 
		537.5,212.3 470.9,250.8 470.9,328 537.5,366.4 	"/>
	<path class="st21" d="M610.8,329.5v-53.1l0,0c-48.9,7.3-97.8,7.3-146.7,0l0,0v53.1l73.3,42.4L610.8,329.5L610.8,329.5z"/>
	<g id="city-logo">
		<path class="st22" d="M486.5,298.7c0-27.3,22.9-49.3,50.9-49.3"/>
		<path class="st22" d="M588.2,298.7c0-27.3-23-49.3-51.5-49.3"/>
		<rect x="485.5" y="295.5" class="st23" width="103.7" height="6.5"/>
		<rect x="490.9" y="289.5" class="st23" width="3.2" height="6.1"/>
		<rect x="492.5" y="284.6" class="st23" width="1.5" height="5"/>
		<rect x="497.2" y="288.8" class="st23" width="5.7" height="6.9"/>
		<rect x="497.2" y="280.9" class="st23" width="2.8" height="7.9"/>
		<rect x="504.7" y="287" class="st23" width="2.3" height="8.4"/>
		<rect x="507" y="270.1" class="st23" width="2.6" height="25.4"/>
		<rect x="508.4" y="267.4" class="st23" width="1.4" height="2.6"/>
		<rect x="509.8" y="289.5" class="st23" width="4.4" height="6.1"/>
		<rect x="513.4" y="286.4" class="st23" width="0.8" height="3.2"/>
		<rect x="514.2" y="263.9" class="st23" width="3.6" height="31.6"/>
		<rect x="517.8" y="269.6" class="st23" width="1.8" height="25.8"/>
		<rect x="519.7" y="278.8" class="st23" width="3.7" height="16.7"/>
		<rect x="523.4" y="282.3" class="st23" width="2.3" height="13.4"/>
		<rect x="527.9" y="274.2" class="st23" width="5" height="21.4"/>
		<rect x="533" y="282.6" class="st23" width="2.5" height="13"/>
		<rect x="535.5" y="258.7" class="st23" width="6.1" height="36.9"/>
		<rect x="544.4" y="266.8" class="st23" width="3.2" height="28.7"/>
		<rect x="550.8" y="272.8" class="st23" width="3.5" height="22.8"/>
		<rect x="547.3" y="288" class="st23" width="3.5" height="7.6"/>
		<rect x="554.2" y="291.4" class="st23" width="2.5" height="4.3"/>
		<rect x="559.6" y="289.1" class="st23" width="2.2" height="6.3"/>
		<rect x="561.8" y="278.8" class="st23" width="3.9" height="16.7"/>
		<rect x="565.5" y="271.1" class="st23" width="2.8" height="24.4"/>
		<rect x="568.3" y="288.2" class="st23" width="2.3" height="7.3"/>
		<rect x="572" y="283.8" class="st23" width="3" height="11.7"/>
		<rect x="575.1" y="282.6" class="st23" width="3.3" height="13"/>
		<rect x="580.5" y="289.7" class="st23" width="1.5" height="5.9"/>
		<rect x="582" y="292.6" class="st23" width="2.8" height="3"/>
	</g>
</g>
<g id="cityAny">
	<polygon class="st23" points="314.1,136.8 314.1,49.1 238.2,5.4 162.2,49.1 162.2,136.8 238.2,180.6 	"/>
	
		<linearGradient id="SVGID_00000111910534881061353810000003170618118332164798_" gradientUnits="userSpaceOnUse" x1="238.2205" y1="-53.1271" x2="238.2205" y2="116.8993" gradientTransform="matrix(1 0 0 -1 0 124.83)">
		<stop  offset="0" style="stop-color:#020303"/>
		<stop  offset="1" style="stop-color:#FFFFFF"/>
	</linearGradient>
	<polygon style="fill:url(#SVGID_00000111910534881061353810000003170618118332164798_);" points="311.7,135.5 311.7,50.6 
		238.2,7.9 164.7,50.6 164.7,135.5 238.2,178 	"/>
	
		<radialGradient id="SVGID_00000007394634390276341130000005095736863128428687_" cx="238.2866" cy="31.82" r="74.2086" gradientTransform="matrix(1 0 0 -1 0 124.83)" gradientUnits="userSpaceOnUse">
		<stop  offset="0" style="stop-color:#CAC8C8"/>
		<stop  offset="1" style="stop-color:#747272"/>
	</radialGradient>
	<polygon style="fill:url(#SVGID_00000007394634390276341130000005095736863128428687_);" points="307,132.6 307,53.3 238.2,13.7 
		169.6,53.3 169.6,132.6 238.2,172.3 	"/>
	<path class="st26" d="M313.7,134.4V79.5l0,0c-50.3,7.5-100.6,7.5-151,0l0,0v54.7l75.4,43.6L313.7,134.4L313.7,134.4L313.7,134.4z"
		/>
	<g id="city-logo-2">
		<path class="st27" d="M185.7,102.7c0-28.2,23.6-50.8,52.4-50.8"/>
		<path class="st27" d="M290.5,102.7c0-28.2-23.7-50.8-53-50.8"/>
		<rect x="184.7" y="99.4" class="st28" width="106.6" height="6.7"/>
		<rect x="190.2" y="93.1" class="st28" width="3.2" height="6.3"/>
		<rect x="192" y="88.1" class="st28" width="1.5" height="5.1"/>
		<rect x="196.8" y="92.4" class="st28" width="5.8" height="7"/>
		<rect x="196.8" y="84.4" class="st28" width="2.9" height="8.2"/>
		<rect x="204.4" y="90.7" class="st28" width="2.4" height="8.7"/>
		<rect x="207" y="73.1" class="st28" width="2.8" height="26.1"/>
		<rect x="208.3" y="70.4" class="st28" width="1.3" height="2.8"/>
		<rect x="209.7" y="93.1" class="st28" width="4.6" height="6.3"/>
		<rect x="213.3" y="90" class="st28" width="0.9" height="3.2"/>
		<rect x="214.2" y="66.9" class="st28" width="3.6" height="32.6"/>
		<rect x="218" y="72.7" class="st28" width="1.9" height="26.7"/>
		<rect x="220" y="82.2" class="st28" width="3.9" height="17.2"/>
		<rect x="223.7" y="85.7" class="st28" width="2.4" height="13.8"/>
		<rect x="228.3" y="77.3" class="st28" width="5.1" height="22"/>
		<rect x="233.5" y="86" class="st28" width="2.6" height="13.3"/>
		<rect x="236.1" y="61.4" class="st28" width="6.3" height="37.9"/>
		<rect x="245.3" y="69.7" class="st28" width="3.2" height="29.5"/>
		<rect x="251.9" y="75.9" class="st28" width="3.5" height="23.5"/>
		<rect x="248.4" y="91.5" class="st28" width="3.5" height="7.8"/>
		<rect x="255.4" y="95.1" class="st28" width="2.6" height="4.4"/>
		<rect x="260.9" y="92.7" class="st28" width="2.3" height="6.6"/>
		<rect x="263.3" y="82.2" class="st28" width="4" height="17.2"/>
		<rect x="267" y="74.2" class="st28" width="2.9" height="25.1"/>
		<rect x="270" y="91.9" class="st28" width="2.4" height="7.5"/>
		<rect x="273.8" y="87.2" class="st28" width="3.1" height="12.1"/>
		<rect x="276.8" y="86" class="st28" width="3.4" height="13.3"/>
		<rect x="282.5" y="93.4" class="st28" width="1.5" height="6.2"/>
		<rect x="284.1" y="96.4" class="st28" width="2.9" height="3.1"/>
	</g>
</g>
<g id="prodBg-2">
	
		<linearGradient id="external-border-2_00000083807266167064851770000009405022281248160419_" gradientUnits="userSpaceOnUse" x1="561.1528" y1="-37.8884" x2="420.0535" y2="103.2109" gradientTransform="matrix(1 0 0 -1 0 124.83)">
		<stop  offset="0" style="stop-color:#9F9D9C"/>
		<stop  offset="0.54" style="stop-color:#020303"/>
		<stop  offset="1" style="stop-color:#9F9D9C"/>
	</linearGradient>
	
		<rect id="external-border-2" x="419.1" y="22.6" style="fill:url(#external-border-2_00000083807266167064851770000009405022281248160419_);" width="143" height="139.2"/>
	
		<linearGradient id="internal-border-2_00000037657458472436153750000005319723751212155046_" gradientUnits="userSpaceOnUse" x1="490.5986" y1="-33.1817" x2="490.5986" y2="98.6225" gradientTransform="matrix(1 0 0 -1 0 124.83)">
		<stop  offset="0" style="stop-color:#472D1C"/>
		<stop  offset="1" style="stop-color:#B18047"/>
	</linearGradient>
	
		<rect id="internal-border-2" x="422.7" y="26.2" style="fill:url(#internal-border-2_00000037657458472436153750000005319723751212155046_);" width="135.8" height="131.8"/>
	
		<linearGradient id="bg-2_00000085963522364247194800000007005308118550204056_" gradientUnits="userSpaceOnUse" x1="490.6031" y1="-29.8166" x2="490.6031" y2="95.4029" gradientTransform="matrix(1 0 0 -1 0 124.83)">
		<stop  offset="0" style="stop-color:#946137"/>
		<stop  offset="1" style="stop-color:#815228"/>
	</linearGradient>
	
		<rect id="bg-2" x="425.9" y="29.4" style="fill:url(#bg-2_00000085963522364247194800000007005308118550204056_);" width="129.4" height="125.2"/>
	
		<pattern  id="bgPattern-2_00000013871530092075784780000017352258749658757774_" xlink:href="#bgPattern_000001774652474383983" patternTransform="matrix(1 0 0 -1 -2.43 -15740.5801)">
	</pattern>
	
		<rect id="bgPattern-2" x="425.9" y="29.4" style="opacity:0.1;fill:url(#bgPattern-2_00000013871530092075784780000017352258749658757774_);enable-background:new    ;" width="129.4" height="125.2"/>
</g>
<g id="mln-2">
	<polygon id="obram_czarne-2" class="st33" points="458.6,46.9 444.8,60.8 444.8,124.7 458.6,138.6 522.6,138.6 536.4,124.7 
		536.4,60.8 522.6,46.9 	"/>
	
		<linearGradient id="obram_zolte-2_00000121976568486227495260000002015052560365347225_" gradientUnits="userSpaceOnUse" x1="490.5986" y1="855.2355" x2="490.5986" y2="768.897" gradientTransform="matrix(1 0 0 1 0 -719.37)">
		<stop  offset="0.16" style="stop-color:#823B14"/>
		<stop  offset="0.18" style="stop-color:#995D1A"/>
		<stop  offset="0.22" style="stop-color:#AE7D22"/>
		<stop  offset="0.26" style="stop-color:#C39D25"/>
		<stop  offset="0.3" style="stop-color:#D6B92E"/>
		<stop  offset="0.35" style="stop-color:#E4CF36"/>
		<stop  offset="0.41" style="stop-color:#EFE036"/>
		<stop  offset="0.48" style="stop-color:#F5E94D"/>
		<stop  offset="0.58" style="stop-color:#F8EB53"/>
		<stop  offset="0.86" style="stop-color:#F5EA52"/>
		<stop  offset="1" style="stop-color:#FCF4F9"/>
	</linearGradient>
	<polygon id="obram_zolte-2" style="fill:url(#obram_zolte-2_00000121976568486227495260000002015052560365347225_);" points="
		460.5,49.5 447.4,62.6 447.4,122.8 460.5,135.9 520.7,135.9 533.8,122.8 533.8,62.6 520.7,49.5 	"/>
	
		<linearGradient id="tlo_wew-2_00000144318558132146443060000013341695675985710254_" gradientUnits="userSpaceOnUse" x1="490.6577" y1="764.3404" x2="490.6577" y2="896.3083" gradientTransform="matrix(1 0 0 1 0 -719.37)">
		<stop  offset="0.26" style="stop-color:#F5EA52"/>
		<stop  offset="0.86" style="stop-color:#813A14"/>
	</linearGradient>
	<polygon id="tlo_wew-2" style="fill:url(#tlo_wew-2_00000144318558132146443060000013341695675985710254_);" points="461.3,50.8 
		448.7,63.5 448.7,122 461.3,134.6 519.9,134.6 532.6,122 532.6,63.5 519.9,50.8 	"/>
	
		<linearGradient id="obram_skosne-2_00000136374859407376082320000013098981879843170699_" gradientUnits="userSpaceOnUse" x1="490.6577" y1="854.0714" x2="490.6577" y2="770.1976" gradientTransform="matrix(1 0 0 1 0 -719.37)">
		<stop  offset="0.16" style="stop-color:#813A14"/>
		<stop  offset="0.17" style="stop-color:#8D481F"/>
		<stop  offset="0.18" style="stop-color:#A36C3D"/>
		<stop  offset="0.2" style="stop-color:#B78954"/>
		<stop  offset="0.22" style="stop-color:#C7A468"/>
		<stop  offset="0.24" style="stop-color:#D7BB7A"/>
		<stop  offset="0.26" style="stop-color:#E2CC88"/>
		<stop  offset="0.3" style="stop-color:#EAD891"/>
		<stop  offset="0.34" style="stop-color:#EEDE97"/>
		<stop  offset="0.46" style="stop-color:#EFE097"/>
		<stop  offset="0.7" style="stop-color:#813A14"/>
		<stop  offset="0.73" style="stop-color:#E6D234"/>
		<stop  offset="0.74" style="stop-color:#EBDA49"/>
		<stop  offset="0.75" style="stop-color:#EEDE6D"/>
		<stop  offset="0.77" style="stop-color:#F0E18A"/>
		<stop  offset="0.79" style="stop-color:#F8EBAB"/>
		<stop  offset="0.8" style="stop-color:#F8EDBF"/>
		<stop  offset="0.83" style="stop-color:#FAF0CF"/>
		<stop  offset="0.85" style="stop-color:#FCF2DA"/>
		<stop  offset="0.89" style="stop-color:#FDF4E1"/>
		<stop  offset="0.99" style="stop-color:#FDF5E3"/>
	</linearGradient>
	<path id="obram_skosne-2" style="fill:url(#obram_skosne-2_00000136374859407376082320000013098981879843170699_);" d="
		M526.5,108.9c-2.4,0-4.2-1.9-4.2-4.2V80.8c0-2.4,1.9-4.2,4.2-4.2h6V63.5l-12.6-12.7h-13.2v6c0,2.4-1.9,4.2-4.2,4.2h-23.9
		c-2.4,0-4.2-1.9-4.2-4.2v-6h-13.1l-12.7,12.7v13.2h6c2.4,0,4.2,1.9,4.2,4.2v23.9c0,2.4-1.9,4.2-4.2,4.2h-6v13.1l12.7,12.7h13.2v-6
		c0-2.4,1.9-4.2,4.2-4.2h23.9c2.4,0,4.2,1.9,4.2,4.2v6H520l12.7-12.7v-13.2C532.7,108.9,526.5,108.9,526.5,108.9z"/>
	
		<linearGradient id="tlo_zew-2_00000133505328443158814840000013421956784467961260_" gradientUnits="userSpaceOnUse" x1="490.5985" y1="782.5031" x2="490.5985" y2="911.9517" gradientTransform="matrix(1 0 0 1 0 -719.37)">
		<stop  offset="0.26" style="stop-color:#F5EA52"/>
		<stop  offset="0.77" style="stop-color:#813A14"/>
	</linearGradient>
	<path id="tlo_zew-2" style="fill:url(#tlo_zew-2_00000133505328443158814840000013421956784467961260_);" d="M526.2,110.3
		c-2.8,0-5.2-2.8-5.2-5.6V80.8c0-2.8,2.4-5.6,5.2-5.6h4.8V64.5l-12.4-12.2h-10.6V57c0,2.8-2.8,5.2-5.6,5.2h-23.8
		c-2.8,0-5.6-2.4-5.6-5.2v-4.8h-10.7l-12.2,12.2v10.7h4.8c2.8,0,5.2,2.8,5.2,5.6v23.8c0,2.8-2.4,5.6-5.2,5.6h-4.8v10.7l12.2,12.2
		h10.7v-4.8c0-2.8,2.8-5.2,5.6-5.2h23.8c2.8,0,5.6,2.4,5.6,5.2v4.8h10.7l12.1-12.2v-10.7h-4.7C526.2,110.2,526.2,110.3,526.2,110.3z
		"/>
</g>
<path d="M343.4,79.9V62.7h17.2v17.2H343.4z M343.4,126.5v-17.2h17.2v17.2H343.4z"/>
<path class="st38" d="M489.4,116.8V76.3h-6.1l-0.2-4.5l15.5-1.3v46.3L489.4,116.8L489.4,116.8L489.4,116.8z"/>
</svg>
