<?xml version="1.0" encoding="utf-8"?>
<!-- Generator: Adobe Illustrator 27.5.0, SVG Export Plug-In . SVG Version: 6.00 Build 0)  -->
<svg version="1.1" id="Layer" xmlns="http://www.w3.org/2000/svg" xmlns:xlink="http://www.w3.org/1999/xlink" x="0px" y="0px"
	 viewBox="0 0 721 379.9" style="enable-background:new 0 0 721 379.9;" xml:space="preserve">
<style type="text/css">
	.st0{fill:#FFFFFF;fill-opacity:0;}
	.st1{fill:#030404;}
	.st2{fill:url(#SVGID_1_);}
	.st3{fill:#97C22A;}
	.st4{fill:#3E4A21;}
	.st5{opacity:0.12;fill:#030404;enable-background:new    ;}
	.st6{opacity:0.4;}
	.st7{opacity:0.5;fill:#E03E17;enable-background:new    ;}
	.st8{fill:url(#SVGID_00000068667584813208131600000000913987808365957554_);}
	.st9{fill:#CE141E;}
	.st10{fill:none;stroke:#020303;stroke-width:1.88;stroke-miterlimit:10;}
	.st11{opacity:0.15;fill:url(#SVGID_00000142139012120162529720000007499693755147697326_);enable-background:new    ;}
	.st12{opacity:0.4;fill:url(#SVGID_00000035489799453710085510000012616264259593321347_);}
	.st13{opacity:0.4;fill:#030404;}
	.st14{opacity:0.4;fill:url(#SVGID_00000003090499252679025180000015598534998969770635_);}
	.st15{opacity:0.4;fill:#97C22A;}
	.st16{opacity:5.000000e-02;fill:#030404;enable-background:new    ;}
</style>
<rect x="0.5" y="0.5" class="st0" width="720" height="378.9"/>
<g id="microbe">
	<rect x="361.1" y="135.4" class="st1" width="116.2" height="116.2"/>
	
		<linearGradient id="SVGID_1_" gradientUnits="userSpaceOnUse" x1="-1061.955" y1="-1636.4572" x2="-984.5308" y2="-1559.0431" gradientTransform="matrix(0.7071 -0.7071 -0.7071 -0.7071 12.952 -1659.8019)">
		<stop  offset="0" style="stop-color:#3E4A21"/>
		<stop  offset="0.14" style="stop-color:#4C5E25"/>
		<stop  offset="0.42" style="stop-color:#6A852B"/>
		<stop  offset="0.66" style="stop-color:#82A52E"/>
		<stop  offset="0.86" style="stop-color:#8FB923"/>
		<stop  offset="1" style="stop-color:#97C22A"/>
	</linearGradient>
	<rect x="364.5" y="138.8" class="st2" width="109.5" height="109.5"/>
	<rect x="369.8" y="144.1" class="st3" width="98.8" height="98.9"/>
	<g id="microbes">
		<polygon class="st4" points="420.5,203.4 415.8,204 416.4,208.7 411.8,207.9 411,212.6 406.8,210.4 404.8,214.6 401.3,211.4 
			398.2,214.8 395.8,210.7 391.7,212.9 390.8,208.4 386.2,209.4 386.6,204.8 382,204.3 383.7,200 379.5,198.2 382.4,194.6 
			378.8,191.6 382.7,189 380.1,185.2 384.6,183.9 383.3,179.3 387.9,179.4 388,174.7 392.5,176.1 393.9,171.8 397.7,174.4 
			400.4,170.6 403.3,174.3 406.9,171.4 408.6,175.8 413,174.2 413.3,178.8 417.9,178.6 416.8,183.1 421.4,184.2 419,188.2 
			423.1,190.6 419.5,193.8 422.7,197.2 418.4,199.2 		"/>
		<polygon class="st4" points="460.6,184.7 459,185.3 459,187.4 456.6,186.7 455.1,188.1 452.7,186.5 450.3,187.1 443.5,188.1 
			440.6,187.8 437.6,182.1 434.2,181.1 431.5,178.2 428.3,176.6 425.8,173.5 422.7,172.1 420.8,168.7 418.2,166.4 417.2,163.8 
			415.3,161.8 415.1,159.6 413.6,157.8 414.9,156.4 415,154.3 416.4,154.4 417.7,152.9 419.6,153.8 422.8,150.8 425.2,152.6 
			428,152.8 430.8,154.8 434.1,155.7 435.8,160.3 439.4,161.7 441.8,164.7 445.2,166.6 447.2,169.4 450.4,171.6 455.6,174.4 
			458.1,176.8 458.5,178.8 460.2,180.9 459.7,182.7 		"/>
		<polygon class="st4" points="455.4,207 455.8,207.6 456.4,208.9 455.1,209.8 455.2,211.4 452,212.6 450.7,214.6 446.8,218.4 
			442.4,220.5 436.7,222.2 433.2,224.3 428.6,225.3 424.6,227.2 420.1,228 416.4,229.8 412.1,230 408.2,231.2 405.1,231.1 
			401.9,231.9 399.9,231.3 397,231.8 396.8,230.4 395.9,230 396.1,228.6 395.9,227.2 398.1,226.1 397.9,222.7 401.3,221.5 
			403.6,219.6 407.5,218.3 412.1,217.1 416.2,216.4 420.1,214.2 424.6,213.4 428.7,211.6 432.8,211 437.1,209.4 443.6,206.4 
			447.7,205.5 449.7,205.9 452.8,205.3 453.9,206.2 		"/>
	</g>
	<path id="darker" class="st5" d="M473.9,248.3H364.5v-60c0,0,34.5,5.3,54.7,5.3s54.8-5.3,54.8-5.3L473.9,248.3L473.9,248.3
		L473.9,248.3z"/>
</g>
<g id="strzalka_efekt" class="st6">
	<path class="st7" d="M331,193.5l-36.7-17l4.4,8.8h-41.4c0,0-1.2,4-1.2,7.8s1.2,6.9,1.2,6.9h42.1l-5.2,10.4L331,193.5L331,193.5
		L331,193.5L331,193.5z"/>
	
		<linearGradient id="SVGID_00000098912594420478280870000016588342329057117114_" gradientUnits="userSpaceOnUse" x1="292.5226" y1="-61.9716" x2="292.5226" y2="-34.3612" gradientTransform="matrix(1 0 0 -1 0 145.36)">
		<stop  offset="0" style="stop-color:#532A15"/>
		<stop  offset="0.45" style="stop-color:#532A15;stop-opacity:0.7"/>
		<stop  offset="0.58" style="stop-color:#E03E17;stop-opacity:0.5"/>
		<stop  offset="1" style="stop-color:#E03E17;stop-opacity:0.5"/>
	</linearGradient>
	<path style="fill:url(#SVGID_00000098912594420478280870000016588342329057117114_);" d="M302,198.6h-43.5
		c-0.3-1.1-0.8-3.2-0.8-5.4c0-2.4,0.5-4.9,0.9-6.3h42.6l-3.6-7.1l29.9,13.8l-29.9,13.8L302,198.6L302,198.6L302,198.6z"/>
	<path class="st9" d="M305.2,196.6H260c-0.2-1-0.4-2.2-0.4-3.5c0-1.5,0.2-3.1,0.5-4.3h44.3l-2.5-5l20.8,9.6l-20.8,9.6L305.2,196.6
		L305.2,196.6L305.2,196.6z"/>
	<path class="st10" d="M302,198.6h-43.5c-0.3-1.1-0.8-3.2-0.8-5.4c0-2.4,0.5-4.9,0.9-6.3h42.6l-3.6-7.1l29.9,13.8l-29.9,13.8
		L302,198.6L302,198.6L302,198.6z"/>
</g>
<g id="microbe-2">
	
		<linearGradient id="SVGID_00000025431164202921123400000013058414347885798024_" gradientUnits="userSpaceOnUse" x1="193.4277" y1="-89.4477" x2="193.4277" y2="-6.8723" gradientTransform="matrix(1 0 0 -1 0 145.36)">
		<stop  offset="0" style="stop-color:#FFDC12"/>
		<stop  offset="0" style="stop-color:#FFDB13"/>
		<stop  offset="5.000000e-02" style="stop-color:#F9BB1B"/>
		<stop  offset="0.1" style="stop-color:#F59B18"/>
		<stop  offset="0.16" style="stop-color:#EF7B19"/>
		<stop  offset="0.22" style="stop-color:#E86112"/>
		<stop  offset="0.27" style="stop-color:#E84A1D"/>
		<stop  offset="0.34" style="stop-color:#E5391E"/>
		<stop  offset="0.41" style="stop-color:#E63121"/>
		<stop  offset="0.5" style="stop-color:#E62E21"/>
		<stop  offset="0.59" style="stop-color:#E63121"/>
		<stop  offset="0.66" style="stop-color:#E5391E"/>
		<stop  offset="0.73" style="stop-color:#E84A1D"/>
		<stop  offset="0.78" style="stop-color:#E86112"/>
		<stop  offset="0.84" style="stop-color:#EF7B19"/>
		<stop  offset="0.9" style="stop-color:#F59B18"/>
		<stop  offset="0.95" style="stop-color:#F9BB1B"/>
		<stop  offset="1" style="stop-color:#FFDB13"/>
		<stop  offset="1" style="stop-color:#FFDC12"/>
	</linearGradient>
	
		<rect x="152.1" y="152.2" style="opacity:0.15;fill:url(#SVGID_00000025431164202921123400000013058414347885798024_);enable-background:new    ;" width="82.6" height="82.6"/>
	
		<linearGradient id="SVGID_00000032621431225602100330000008802975850141713541_" gradientUnits="userSpaceOnUse" x1="193.4373" y1="-88.3479" x2="193.4373" y2="-7.9657" gradientTransform="matrix(1 0 0 -1 0 145.36)">
		<stop  offset="0" style="stop-color:#FFDC12"/>
		<stop  offset="0" style="stop-color:#FFDB13"/>
		<stop  offset="5.000000e-02" style="stop-color:#F9BB1B"/>
		<stop  offset="0.1" style="stop-color:#F59B18"/>
		<stop  offset="0.16" style="stop-color:#EF7B19"/>
		<stop  offset="0.22" style="stop-color:#E86112"/>
		<stop  offset="0.27" style="stop-color:#E84A1D"/>
		<stop  offset="0.34" style="stop-color:#E5391E"/>
		<stop  offset="0.41" style="stop-color:#E63121"/>
		<stop  offset="0.5" style="stop-color:#E62E21"/>
		<stop  offset="0.59" style="stop-color:#E63121"/>
		<stop  offset="0.66" style="stop-color:#E5391E"/>
		<stop  offset="0.73" style="stop-color:#E84A1D"/>
		<stop  offset="0.78" style="stop-color:#E86112"/>
		<stop  offset="0.84" style="stop-color:#EF7B19"/>
		<stop  offset="0.9" style="stop-color:#F59B18"/>
		<stop  offset="0.95" style="stop-color:#F9BB1B"/>
		<stop  offset="1" style="stop-color:#FFDB13"/>
		<stop  offset="1" style="stop-color:#FFDC12"/>
	</linearGradient>
	
		<rect x="153.2" y="153.3" style="opacity:0.4;fill:url(#SVGID_00000032621431225602100330000008802975850141713541_);" width="80.4" height="80.4"/>
	<rect x="156.3" y="156.4" class="st13" width="74.3" height="74.3"/>
	
		<linearGradient id="SVGID_00000121270335016391089810000011005065489597748634_" gradientUnits="userSpaceOnUse" x1="-1207.6299" y1="-1462.8668" x2="-1158.1229" y2="-1413.3663" gradientTransform="matrix(0.7071 -0.7071 -0.7071 -0.7071 12.952 -1659.8019)">
		<stop  offset="0" style="stop-color:#3E4A21"/>
		<stop  offset="0.14" style="stop-color:#4C5E25"/>
		<stop  offset="0.42" style="stop-color:#6A852B"/>
		<stop  offset="0.66" style="stop-color:#82A52E"/>
		<stop  offset="0.86" style="stop-color:#8FB923"/>
		<stop  offset="1" style="stop-color:#97C22A"/>
	</linearGradient>
	
		<rect x="158.4" y="158.5" style="opacity:0.4;fill:url(#SVGID_00000121270335016391089810000011005065489597748634_);" width="70" height="70"/>
	<rect x="161.8" y="161.9" class="st15" width="63.2" height="63.2"/>
	<g id="microbes-2" class="st6">
		<polygon class="st4" points="194.2,199.9 191.3,200.2 191.7,203.2 188.7,202.7 188.2,205.7 185.5,204.3 184.2,207 182,204.9 
			180,207.1 178.5,204.5 175.9,205.9 175.3,203 172.4,203.7 172.6,200.7 169.6,200.4 170.8,197.7 168,196.5 169.9,194.2 
			167.6,192.3 170.1,190.6 168.4,188.2 171.3,187.4 170.5,184.4 173.4,184.5 173.5,181.5 176.4,182.4 177.3,179.6 179.7,181.3 
			181.4,178.8 183.3,181.2 185.6,179.4 186.7,182.2 189.5,181.2 189.6,184.1 192.6,184 191.9,186.9 194.8,187.5 193.3,190.1 
			195.9,191.6 193.6,193.7 195.7,195.9 192.9,197.1 		"/>
		<polygon class="st4" points="219.9,187.9 218.9,188.3 218.9,189.6 217.4,189.1 216.4,190 214.9,189 213.3,189.4 209,190 
			207.1,189.9 205.2,186.2 203.1,185.6 201.3,183.7 199.2,182.7 197.6,180.7 195.7,179.8 194.5,177.6 192.8,176.2 192.2,174.5 
			191,173.2 190.8,171.9 189.8,170.7 190.7,169.8 190.7,168.5 191.6,168.5 192.4,167.6 193.7,168.1 195.7,166.2 197.3,167.3 
			199.1,167.5 200.9,168.8 202.9,169.4 204.1,172.3 206.3,173.2 207.9,175.1 210,176.3 211.3,178.1 213.4,179.5 216.7,181.3 
			218.3,182.8 218.6,184.1 219.6,185.5 219.3,186.6 		"/>
		<polygon class="st4" points="216.6,202.1 216.8,202.5 217.2,203.4 216.4,203.9 216.5,204.9 214.4,205.7 213.6,207 211.1,209.5 
			208.3,210.8 204.6,211.8 202.4,213.2 199.4,213.9 196.9,215 194,215.6 191.7,216.7 188.9,216.8 186.4,217.6 184.4,217.6 
			182.4,218 181.1,217.7 179.2,218 179.1,217.1 178.6,216.8 178.7,215.9 178.6,215 179.9,214.3 179.8,212.2 182,211.4 183.5,210.2 
			186,209.3 188.9,208.6 191.5,208.1 194,206.7 196.9,206.2 199.5,205.1 202.2,204.7 204.9,203.7 209,201.8 211.6,201.2 
			212.9,201.4 214.9,201.1 215.6,201.7 		"/>
	</g>
	<path id="darker-2" class="st16" d="M228.4,228.5h-70v-38.4c0,0,22,3.4,35,3.4c12.9,0,35-3.4,35-3.4L228.4,228.5L228.4,228.5z"/>
</g>
</svg>
