<?xml version="1.0" encoding="utf-8"?>
<!-- Generator: Adobe Illustrator 27.5.0, SVG Export Plug-In . SVG Version: 6.00 Build 0)  -->
<svg version="1.1" id="Layer" xmlns="http://www.w3.org/2000/svg" xmlns:xlink="http://www.w3.org/1999/xlink" x="0px" y="0px"
	 viewBox="0 0 721 379.9" style="enable-background:new 0 0 721 379.9;" xml:space="preserve">
<style type="text/css">
	.st0{fill:#FFFFFF;fill-opacity:0;}
	.st1{fill:#020303;}
	.st2{fill:url(#SVGID_1_);}
	.st3{fill:#50504F;}
	.st4{opacity:0.64;fill:#020303;enable-background:new    ;}
	.st5{fill:none;stroke:#FFD80C;stroke-width:4.66;stroke-miterlimit:10;}
	.st6{fill:url(#SVGID_00000147204775641038707710000016867610006323588262_);}
	.st7{opacity:0.4;}
	.st8{opacity:0.4;fill:url(#SVGID_00000155838907022969935240000006772247039674528905_);enable-background:new    ;}
	.st9{fill:url(#SVGID_00000052089533684430608300000000867053140178142107_);}
	.st10{fill:#030304;}
	.st11{fill:url(#SVGID_00000153696575019348889640000000121823140915280299_);}
	.st12{fill:#48AD38;}
	.st13{fill:#0B572A;stroke:#1D4422;stroke-width:3.68;stroke-miterlimit:10;}
	.st14{opacity:5.000000e-02;fill:#030304;enable-background:new    ;}
	.st15{opacity:0.4;fill:url(#SVGID_00000009566542747403090760000015735494145012695707_);enable-background:new    ;}
	.st16{fill:url(#SVGID_00000105388964459951710180000010553493755410990246_);}
	.st17{fill:url(#SVGID_00000015354041729260342330000017333239034788766119_);}
	.st18{opacity:0.4;fill:url(#SVGID_00000103965936746796374220000016554642634576463282_);enable-background:new    ;}
	.st19{fill:url(#SVGID_00000079478094276369977320000003795184841487735446_);}
	.st20{fill:url(#SVGID_00000041262848744346171040000011559591474218244762_);}
	
		.st21{fill:url(#SVGID_00000132806435147188982300000006176982371975121823_);stroke:#030304;stroke-width:3.34;stroke-miterlimit:10;}
	.st22{fill:none;stroke:#FFFFFF;stroke-width:3.34;stroke-miterlimit:10;}
	.st23{opacity:0.5;fill:url(#SVGID_00000050652015561106275670000017775134952532053640_);enable-background:new    ;}
</style>
<rect x="0.5" y="0.5" class="st0" width="720" height="378.9"/>
<g id="titan">
	<rect x="146.4" y="108.3" class="st1" width="116.3" height="116.3"/>
	
		<linearGradient id="SVGID_1_" gradientUnits="userSpaceOnUse" x1="-1051.7513" y1="1973.3887" x2="-974.2808" y2="1895.9181" gradientTransform="matrix(0.7071 -0.7071 0.7071 0.7071 -447.1781 -1917.8719)">
		<stop  offset="0" style="stop-color:#020303"/>
		<stop  offset="1" style="stop-color:#797879"/>
	</linearGradient>
	<rect x="149.7" y="111.7" class="st2" width="109.6" height="109.6"/>
	<rect x="155.1" y="117" class="st3" width="98.9" height="98.9"/>
	<path id="darker" class="st4" d="M259.3,221.2H149.7v-60.1c0,0,34.5,5.3,54.7,5.3s54.8-5.3,54.8-5.3V221.2z"/>
	<polygon class="st5" points="205.1,134.1 215.5,155.9 239.3,158.9 221.8,175.4 226.3,199 205.1,187.5 184.1,199 188.5,175.4 
		171,158.9 194.9,155.9 	"/>
</g>
<g id="titan-2">
	<rect x="286.4" y="108.3" class="st1" width="116.3" height="116.3"/>
	
		<linearGradient id="SVGID_00000055685262298683392660000000302248773605908880_" gradientUnits="userSpaceOnUse" x1="-952.7564" y1="2072.3835" x2="-875.2858" y2="1994.913" gradientTransform="matrix(0.7071 -0.7071 0.7071 0.7071 -447.1781 -1917.8719)">
		<stop  offset="0" style="stop-color:#020303"/>
		<stop  offset="1" style="stop-color:#797879"/>
	</linearGradient>
	
		<rect x="289.7" y="111.7" style="fill:url(#SVGID_00000055685262298683392660000000302248773605908880_);" width="109.6" height="109.6"/>
	<rect x="295.1" y="117" class="st3" width="98.9" height="98.9"/>
	<path id="darker-2" class="st4" d="M399.3,221.2H289.7v-60.1c0,0,34.5,5.3,54.7,5.3s54.8-5.3,54.8-5.3V221.2z"/>
	<polygon class="st5" points="345.1,134.1 355.5,155.9 379.3,158.9 361.8,175.4 366.3,199 345.1,187.5 324.1,199 328.5,175.4 
		311,158.9 334.9,155.9 	"/>
</g>
<g id="plant" class="st7">
	
		<linearGradient id="SVGID_00000073709568723042972690000003003435843382906537_" gradientUnits="userSpaceOnUse" x1="204.6755" y1="-199.7448" x2="204.6755" y2="-115.0549" gradientTransform="matrix(1 0 0 -1 0 145.36)">
		<stop  offset="0" style="stop-color:#FFDC15"/>
		<stop  offset="0" style="stop-color:#FFDB16"/>
		<stop  offset="5.000000e-02" style="stop-color:#F9BB1F"/>
		<stop  offset="0.1" style="stop-color:#F59C1B"/>
		<stop  offset="0.16" style="stop-color:#EF7B1B"/>
		<stop  offset="0.22" style="stop-color:#E86212"/>
		<stop  offset="0.27" style="stop-color:#E84B1F"/>
		<stop  offset="0.34" style="stop-color:#E63A21"/>
		<stop  offset="0.41" style="stop-color:#E63323"/>
		<stop  offset="0.5" style="stop-color:#E63023"/>
		<stop  offset="0.59" style="stop-color:#E63323"/>
		<stop  offset="0.66" style="stop-color:#E63A21"/>
		<stop  offset="0.73" style="stop-color:#E84B1F"/>
		<stop  offset="0.78" style="stop-color:#E86212"/>
		<stop  offset="0.84" style="stop-color:#EF7B1B"/>
		<stop  offset="0.9" style="stop-color:#F59C1B"/>
		<stop  offset="0.95" style="stop-color:#F9BB1F"/>
		<stop  offset="1" style="stop-color:#FFDB16"/>
		<stop  offset="1" style="stop-color:#FFDC15"/>
	</linearGradient>
	
		<rect x="162.3" y="260.4" style="opacity:0.4;fill:url(#SVGID_00000073709568723042972690000003003435843382906537_);enable-background:new    ;" width="84.7" height="84.7"/>
	
		<linearGradient id="SVGID_00000178168022510768199900000010344160738341161907_" gradientUnits="userSpaceOnUse" x1="204.6878" y1="-196.6265" x2="204.6878" y2="-118.1732" gradientTransform="matrix(1 0 0 -1 0 145.36)">
		<stop  offset="0" style="stop-color:#FFDC15"/>
		<stop  offset="0" style="stop-color:#FFDB16"/>
		<stop  offset="5.000000e-02" style="stop-color:#F9BB1F"/>
		<stop  offset="0.1" style="stop-color:#F59C1B"/>
		<stop  offset="0.16" style="stop-color:#EF7B1B"/>
		<stop  offset="0.22" style="stop-color:#E86212"/>
		<stop  offset="0.27" style="stop-color:#E84B1F"/>
		<stop  offset="0.34" style="stop-color:#E63A21"/>
		<stop  offset="0.41" style="stop-color:#E63323"/>
		<stop  offset="0.5" style="stop-color:#E63023"/>
		<stop  offset="0.59" style="stop-color:#E63323"/>
		<stop  offset="0.66" style="stop-color:#E63A21"/>
		<stop  offset="0.73" style="stop-color:#E84B1F"/>
		<stop  offset="0.78" style="stop-color:#E86212"/>
		<stop  offset="0.84" style="stop-color:#EF7B1B"/>
		<stop  offset="0.9" style="stop-color:#F59C1B"/>
		<stop  offset="0.95" style="stop-color:#F9BB1F"/>
		<stop  offset="1" style="stop-color:#FFDB16"/>
		<stop  offset="1" style="stop-color:#FFDC15"/>
	</linearGradient>
	
		<rect x="165.5" y="263.5" style="fill:url(#SVGID_00000178168022510768199900000010344160738341161907_);" width="78.5" height="78.5"/>
	<rect x="169.6" y="267.7" class="st10" width="70.3" height="70.3"/>
	
		<linearGradient id="SVGID_00000075144969470912111390000017175999125397355394_" gradientUnits="userSpaceOnUse" x1="-1132.5199" y1="-1209.0188" x2="-1085.7007" y2="-1162.1936" gradientTransform="matrix(0.7071 -0.7071 -0.7071 -0.7071 150.652 -1319.7518)">
		<stop  offset="0" style="stop-color:#0F6936"/>
		<stop  offset="4.000000e-02" style="stop-color:#0F6C37"/>
		<stop  offset="8.000000e-02" style="stop-color:#077739"/>
		<stop  offset="0.13" style="stop-color:#108837"/>
		<stop  offset="0.15" style="stop-color:#0A9039"/>
		<stop  offset="0.35" style="stop-color:#36993D"/>
		<stop  offset="0.76" style="stop-color:#5FB048"/>
		<stop  offset="1" style="stop-color:#6FB74B"/>
	</linearGradient>
	
		<rect x="171.6" y="269.8" style="fill:url(#SVGID_00000075144969470912111390000017175999125397355394_);" width="66.2" height="66.2"/>
	<rect x="174.8" y="273" class="st12" width="59.8" height="59.8"/>
	<path id="leaf" class="st13" d="M204.7,287.7c-8.6,1.2-15.1,6.8-15.1,15.1c0,2,0.4,4,1.1,5.8c-1.6,1.1-3.9,2.5-5,2.9
		c-2,0.7-5.9,0.2-6.1,0.6s1.1,3.9,1.6,4.1c0.5,0.2,4.1,0.2,6.1-0.6c1.5-0.5,4.1-2.2,5.6-3.3c2.8,3.5,7,5.7,11.8,5.7
		c8.3,0,15-5.2,15-13.6c0-3.2,0.8-7.3,2-9.8c1.3-2.8,8-4.6,8-4.6C229.1,287.7,208.1,287.3,204.7,287.7L204.7,287.7L204.7,287.7
		L204.7,287.7z"/>
	<path id="darker-3" class="st14" d="M237.8,336h-66.2v-36.3c0,0,20.8,3.2,33.1,3.2s33.1-3.2,33.1-3.2V336z"/>
</g>
<g id="plant-2" class="st7">
	
		<linearGradient id="SVGID_00000096768712974891033180000014460318564177750712_" gradientUnits="userSpaceOnUse" x1="290.2765" y1="-199.7448" x2="290.2765" y2="-115.0549" gradientTransform="matrix(1 0 0 -1 0 145.36)">
		<stop  offset="0" style="stop-color:#FFDC15"/>
		<stop  offset="0" style="stop-color:#FFDB16"/>
		<stop  offset="5.000000e-02" style="stop-color:#F9BB1F"/>
		<stop  offset="0.1" style="stop-color:#F59C1B"/>
		<stop  offset="0.16" style="stop-color:#EF7B1B"/>
		<stop  offset="0.22" style="stop-color:#E86212"/>
		<stop  offset="0.27" style="stop-color:#E84B1F"/>
		<stop  offset="0.34" style="stop-color:#E63A21"/>
		<stop  offset="0.41" style="stop-color:#E63323"/>
		<stop  offset="0.5" style="stop-color:#E63023"/>
		<stop  offset="0.59" style="stop-color:#E63323"/>
		<stop  offset="0.66" style="stop-color:#E63A21"/>
		<stop  offset="0.73" style="stop-color:#E84B1F"/>
		<stop  offset="0.78" style="stop-color:#E86212"/>
		<stop  offset="0.84" style="stop-color:#EF7B1B"/>
		<stop  offset="0.9" style="stop-color:#F59C1B"/>
		<stop  offset="0.95" style="stop-color:#F9BB1F"/>
		<stop  offset="1" style="stop-color:#FFDB16"/>
		<stop  offset="1" style="stop-color:#FFDC15"/>
	</linearGradient>
	
		<rect x="247.9" y="260.4" style="opacity:0.4;fill:url(#SVGID_00000096768712974891033180000014460318564177750712_);enable-background:new    ;" width="84.7" height="84.7"/>
	
		<linearGradient id="SVGID_00000139278129494350073860000001390717306125379518_" gradientUnits="userSpaceOnUse" x1="290.2888" y1="-196.6265" x2="290.2888" y2="-118.1732" gradientTransform="matrix(1 0 0 -1 0 145.36)">
		<stop  offset="0" style="stop-color:#FFDC15"/>
		<stop  offset="0" style="stop-color:#FFDB16"/>
		<stop  offset="5.000000e-02" style="stop-color:#F9BB1F"/>
		<stop  offset="0.1" style="stop-color:#F59C1B"/>
		<stop  offset="0.16" style="stop-color:#EF7B1B"/>
		<stop  offset="0.22" style="stop-color:#E86212"/>
		<stop  offset="0.27" style="stop-color:#E84B1F"/>
		<stop  offset="0.34" style="stop-color:#E63A21"/>
		<stop  offset="0.41" style="stop-color:#E63323"/>
		<stop  offset="0.5" style="stop-color:#E63023"/>
		<stop  offset="0.59" style="stop-color:#E63323"/>
		<stop  offset="0.66" style="stop-color:#E63A21"/>
		<stop  offset="0.73" style="stop-color:#E84B1F"/>
		<stop  offset="0.78" style="stop-color:#E86212"/>
		<stop  offset="0.84" style="stop-color:#EF7B1B"/>
		<stop  offset="0.9" style="stop-color:#F59C1B"/>
		<stop  offset="0.95" style="stop-color:#F9BB1F"/>
		<stop  offset="1" style="stop-color:#FFDB16"/>
		<stop  offset="1" style="stop-color:#FFDC15"/>
	</linearGradient>
	
		<rect x="251.1" y="263.5" style="fill:url(#SVGID_00000139278129494350073860000001390717306125379518_);" width="78.5" height="78.5"/>
	<rect x="255.2" y="267.7" class="st10" width="70.3" height="70.3"/>
	
		<linearGradient id="SVGID_00000121984060059021930380000001332807309874579387_" gradientUnits="userSpaceOnUse" x1="-1071.9939" y1="-1269.5448" x2="-1025.1686" y2="-1222.7256" gradientTransform="matrix(0.7071 -0.7071 -0.7071 -0.7071 150.652 -1319.7518)">
		<stop  offset="0" style="stop-color:#0F6936"/>
		<stop  offset="4.000000e-02" style="stop-color:#0F6C37"/>
		<stop  offset="8.000000e-02" style="stop-color:#077739"/>
		<stop  offset="0.13" style="stop-color:#108837"/>
		<stop  offset="0.15" style="stop-color:#0A9039"/>
		<stop  offset="0.35" style="stop-color:#36993D"/>
		<stop  offset="0.76" style="stop-color:#5FB048"/>
		<stop  offset="1" style="stop-color:#6FB74B"/>
	</linearGradient>
	
		<rect x="257.2" y="269.8" style="fill:url(#SVGID_00000121984060059021930380000001332807309874579387_);" width="66.2" height="66.2"/>
	<rect x="260.4" y="273" class="st12" width="59.8" height="59.8"/>
	<path id="leaf-2" class="st13" d="M290.3,287.7c-8.6,1.2-15.1,6.8-15.1,15.1c0,2,0.4,4,1.1,5.8c-1.6,1.1-3.9,2.5-5,2.9
		c-2,0.7-5.9,0.2-6.1,0.6s1.1,3.9,1.6,4.1c0.5,0.2,4.1,0.2,6.1-0.6c1.5-0.5,4.1-2.2,5.6-3.3c2.8,3.5,7,5.7,11.8,5.7
		c8.3,0,15-5.2,15-13.6c0-3.2,0.8-7.3,2-9.8c1.3-2.8,8-4.6,8-4.6C314.7,287.7,293.7,287.3,290.3,287.7L290.3,287.7L290.3,287.7
		L290.3,287.7z"/>
	<path id="darker-4" class="st14" d="M323.4,336h-66.2v-36.3c0,0,20.8,3.2,33.1,3.2c12.2,0,33.1-3.2,33.1-3.2V336z"/>
</g>
<g id="plant-3" class="st7">
	
		<linearGradient id="SVGID_00000107557255215184663390000017485160356576318632_" gradientUnits="userSpaceOnUse" x1="375.8775" y1="-199.7448" x2="375.8775" y2="-115.0549" gradientTransform="matrix(1 0 0 -1 0 145.36)">
		<stop  offset="0" style="stop-color:#FFDC15"/>
		<stop  offset="0" style="stop-color:#FFDB16"/>
		<stop  offset="5.000000e-02" style="stop-color:#F9BB1F"/>
		<stop  offset="0.1" style="stop-color:#F59C1B"/>
		<stop  offset="0.16" style="stop-color:#EF7B1B"/>
		<stop  offset="0.22" style="stop-color:#E86212"/>
		<stop  offset="0.27" style="stop-color:#E84B1F"/>
		<stop  offset="0.34" style="stop-color:#E63A21"/>
		<stop  offset="0.41" style="stop-color:#E63323"/>
		<stop  offset="0.5" style="stop-color:#E63023"/>
		<stop  offset="0.59" style="stop-color:#E63323"/>
		<stop  offset="0.66" style="stop-color:#E63A21"/>
		<stop  offset="0.73" style="stop-color:#E84B1F"/>
		<stop  offset="0.78" style="stop-color:#E86212"/>
		<stop  offset="0.84" style="stop-color:#EF7B1B"/>
		<stop  offset="0.9" style="stop-color:#F59C1B"/>
		<stop  offset="0.95" style="stop-color:#F9BB1F"/>
		<stop  offset="1" style="stop-color:#FFDB16"/>
		<stop  offset="1" style="stop-color:#FFDC15"/>
	</linearGradient>
	
		<rect x="333.5" y="260.4" style="opacity:0.4;fill:url(#SVGID_00000107557255215184663390000017485160356576318632_);enable-background:new    ;" width="84.7" height="84.7"/>
	
		<linearGradient id="SVGID_00000062886565516465954970000003588632740235023754_" gradientUnits="userSpaceOnUse" x1="375.8897" y1="-196.6265" x2="375.8897" y2="-118.1732" gradientTransform="matrix(1 0 0 -1 0 145.36)">
		<stop  offset="0" style="stop-color:#FFDC15"/>
		<stop  offset="0" style="stop-color:#FFDB16"/>
		<stop  offset="5.000000e-02" style="stop-color:#F9BB1F"/>
		<stop  offset="0.1" style="stop-color:#F59C1B"/>
		<stop  offset="0.16" style="stop-color:#EF7B1B"/>
		<stop  offset="0.22" style="stop-color:#E86212"/>
		<stop  offset="0.27" style="stop-color:#E84B1F"/>
		<stop  offset="0.34" style="stop-color:#E63A21"/>
		<stop  offset="0.41" style="stop-color:#E63323"/>
		<stop  offset="0.5" style="stop-color:#E63023"/>
		<stop  offset="0.59" style="stop-color:#E63323"/>
		<stop  offset="0.66" style="stop-color:#E63A21"/>
		<stop  offset="0.73" style="stop-color:#E84B1F"/>
		<stop  offset="0.78" style="stop-color:#E86212"/>
		<stop  offset="0.84" style="stop-color:#EF7B1B"/>
		<stop  offset="0.9" style="stop-color:#F59C1B"/>
		<stop  offset="0.95" style="stop-color:#F9BB1F"/>
		<stop  offset="1" style="stop-color:#FFDB16"/>
		<stop  offset="1" style="stop-color:#FFDC15"/>
	</linearGradient>
	
		<rect x="336.7" y="263.5" style="fill:url(#SVGID_00000062886565516465954970000003588632740235023754_);" width="78.5" height="78.5"/>
	<rect x="340.8" y="267.7" class="st10" width="70.3" height="70.3"/>
	
		<linearGradient id="SVGID_00000147927383627233279230000006830108262342090632_" gradientUnits="userSpaceOnUse" x1="-1011.4618" y1="-1330.0769" x2="-964.6426" y2="-1283.2516" gradientTransform="matrix(0.7071 -0.7071 -0.7071 -0.7071 150.652 -1319.7518)">
		<stop  offset="0" style="stop-color:#0F6936"/>
		<stop  offset="4.000000e-02" style="stop-color:#0F6C37"/>
		<stop  offset="8.000000e-02" style="stop-color:#077739"/>
		<stop  offset="0.13" style="stop-color:#108837"/>
		<stop  offset="0.15" style="stop-color:#0A9039"/>
		<stop  offset="0.35" style="stop-color:#36993D"/>
		<stop  offset="0.76" style="stop-color:#5FB048"/>
		<stop  offset="1" style="stop-color:#6FB74B"/>
	</linearGradient>
	
		<rect x="342.8" y="269.8" style="fill:url(#SVGID_00000147927383627233279230000006830108262342090632_);" width="66.2" height="66.2"/>
	<rect x="346" y="273" class="st12" width="59.8" height="59.8"/>
	<path id="leaf-3" class="st13" d="M375.9,287.7c-8.6,1.2-15.1,6.8-15.1,15.1c0,2,0.4,4,1.1,5.8c-1.6,1.1-3.9,2.5-5,2.9
		c-2,0.7-5.9,0.2-6.1,0.6s1.1,3.9,1.6,4.1s4.1,0.2,6.1-0.6c1.5-0.5,4.1-2.2,5.6-3.3c2.8,3.5,7,5.7,11.8,5.7c8.3,0,15-5.2,15-13.6
		c0-3.2,0.8-7.3,2-9.8c1.3-2.8,8-4.6,8-4.6C400.3,287.7,379.3,287.3,375.9,287.7L375.9,287.7L375.9,287.7L375.9,287.7z"/>
	<path id="darker-5" class="st14" d="M409.1,336h-66.2v-36.3c0,0,20.8,3.2,33.1,3.2s33.1-3.2,33.1-3.2V336z"/>
</g>
<g id="tempIcon">
	
		<linearGradient id="SVGID_00000173845224438057829660000009096108782673740179_" gradientUnits="userSpaceOnUse" x1="534.288" y1="5.335" x2="534.288" y2="240.625" gradientTransform="matrix(1 0 0 -1 0 314.18)">
		<stop  offset="8.000000e-02" style="stop-color:#47C0F0"/>
		<stop  offset="0.15" style="stop-color:#52A5D5"/>
		<stop  offset="0.23" style="stop-color:#5D85B4"/>
		<stop  offset="0.3" style="stop-color:#626A9C"/>
		<stop  offset="0.37" style="stop-color:#67568C"/>
		<stop  offset="0.42" style="stop-color:#684981"/>
		<stop  offset="0.46" style="stop-color:#68457E"/>
		<stop  offset="0.55" style="stop-color:#923E61"/>
		<stop  offset="0.67" style="stop-color:#B7323C"/>
		<stop  offset="0.75" style="stop-color:#CC2321"/>
		<stop  offset="0.79" style="stop-color:#D41A1C"/>
	</linearGradient>
	
		<path style="fill:url(#SVGID_00000173845224438057829660000009096108782673740179_);stroke:#030304;stroke-width:3.34;stroke-miterlimit:10;" d="
		M549.9,246.4V89.2c0-8.5-7.1-15.6-15.6-15.6s-15.6,7.1-15.6,15.6V246c-10.3,5.7-17.7,16.7-17.7,29.5c0,18.5,14.9,33.4,33.4,33.4
		s33.4-14.9,33.4-33.4C567.6,262.7,560.5,251.7,549.9,246.4L549.9,246.4L549.9,246.4z"/>
	<line class="st22" x1="527.5" y1="107.6" x2="541.4" y2="107.6"/>
	<line class="st22" x1="527.5" y1="151.3" x2="541.4" y2="151.3"/>
	<line class="st22" x1="527.5" y1="191" x2="541.4" y2="191"/>
	<line class="st22" x1="527.5" y1="227.9" x2="541.4" y2="227.9"/>
	<line class="st22" x1="527.5" y1="274.8" x2="541.4" y2="274.8"/>
	
		<linearGradient id="SVGID_00000055665463126638588390000016597900924261502080_" gradientUnits="userSpaceOnUse" x1="524.6655" y1="47.2525" x2="511.9855" y2="59.9425" gradientTransform="matrix(1 0 0 -1 0 314.18)">
		<stop  offset="0" style="stop-color:#1F1F1E;stop-opacity:0"/>
		<stop  offset="1" style="stop-color:#FFFFFF"/>
	</linearGradient>
	<path style="opacity:0.5;fill:url(#SVGID_00000055665463126638588390000016597900924261502080_);enable-background:new    ;" d="
		M524.7,266.6c-5,5.3-12.1,6.4-15.6,3.2c-3.5-3.5-2.1-10.6,2.8-15.6c5-5,12.1-6.4,15.6-2.8S530,261.6,524.7,266.6L524.7,266.6z"/>
</g>
<path class="st7" d="M130.8,307v-8.3h20v8.3H130.8z"/>
</svg>
