<?xml version="1.0" encoding="utf-8"?>
<!-- Generator: Adobe Illustrator 27.5.0, SVG Export Plug-In . SVG Version: 6.00 Build 0)  -->
<svg version="1.1" id="Layer" xmlns="http://www.w3.org/2000/svg" xmlns:xlink="http://www.w3.org/1999/xlink" x="0px" y="0px"
	 viewBox="0 0 721 379.9" style="enable-background:new 0 0 721 379.9;" xml:space="preserve">
<style type="text/css">
	.st0{fill:#FFFFFF;fill-opacity:0;}
	.st1{fill:#030304;}
	.st2{fill:url(#SVGID_1_);}
	.st3{fill:#515150;}
	.st4{opacity:0.64;fill:#030304;enable-background:new    ;}
	.st5{fill:none;stroke:#FFD80C;stroke-width:4.66;stroke-miterlimit:10;}
	.st6{opacity:0.4;}
	.st7{opacity:0.4;fill:url(#SVGID_00000163795709849773551760000003413904050674074300_);enable-background:new    ;}
	.st8{fill:url(#SVGID_00000035493866937123458060000008961234682524564384_);}
	.st9{fill:#030404;}
	.st10{fill:url(#SVGID_00000183953515165985055830000009181739108865490315_);}
	.st11{fill:#4BAD39;}
	.st12{fill:#0D582A;stroke:#1E4523;stroke-width:3.68;stroke-miterlimit:10;}
	.st13{opacity:5.000000e-02;fill:#030404;enable-background:new    ;}
	
		.st14{fill:url(#SVGID_00000139269928114527001830000011552054131254458502_);stroke:#030404;stroke-width:3.34;stroke-miterlimit:10;}
	.st15{fill:none;stroke:#FFFFFF;stroke-width:3.34;stroke-miterlimit:10;}
	.st16{opacity:0.5;fill:url(#SVGID_00000063609237943385946580000008849465992008256384_);enable-background:new    ;}
	
		.st17{fill:url(#SVGID_00000052092390291967139860000008799430276587270591_);stroke:#030404;stroke-width:3.34;stroke-miterlimit:10;}
	.st18{opacity:0.5;fill:url(#SVGID_00000055669499234455519840000006007109207422032037_);enable-background:new    ;}
</style>
<rect x="0.5" y="0.5" class="st0" width="720" height="378.9"/>
<g id="titan">
	<rect x="216.9" y="105" class="st1" width="116.3" height="116.3"/>
	
		<linearGradient id="SVGID_1_" gradientUnits="userSpaceOnUse" x1="-998.6782" y1="-936.9374" x2="-921.2076" y2="-859.4667" gradientTransform="matrix(0.7071 -0.7071 -0.7071 -0.7071 318.702 -1150.7719)">
		<stop  offset="0" style="stop-color:#030304"/>
		<stop  offset="1" style="stop-color:#7A7879"/>
	</linearGradient>
	<rect x="220.3" y="108.4" class="st2" width="109.6" height="109.6"/>
	<rect x="225.6" y="113.7" class="st3" width="98.9" height="98.9"/>
	<path id="darker" class="st4" d="M329.8,217.9H220.3v-60.1c0,0,34.5,5.3,54.7,5.3s54.8-5.3,54.8-5.3L329.8,217.9L329.8,217.9z"/>
	<polygon class="st5" points="275.7,130.8 286,152.6 309.9,155.6 292.3,172.1 296.8,195.7 275.7,184.2 254.6,195.7 259.1,172.1 
		241.5,155.6 265.4,152.6 	"/>
</g>
<g id="plant" class="st6">
	
		<linearGradient id="SVGID_00000115515469126487692120000012384431520279047103_" gradientUnits="userSpaceOnUse" x1="279.305" y1="1291.0697" x2="279.305" y2="1197.2303" gradientTransform="matrix(1 0 0 1 0 -936.55)">
		<stop  offset="0" style="stop-color:#FFDC15"/>
		<stop  offset="0" style="stop-color:#FFDB16"/>
		<stop  offset="5.000000e-02" style="stop-color:#F9BB24"/>
		<stop  offset="0.1" style="stop-color:#F59D1E"/>
		<stop  offset="0.16" style="stop-color:#EF7C1E"/>
		<stop  offset="0.22" style="stop-color:#E86312"/>
		<stop  offset="0.27" style="stop-color:#E94C21"/>
		<stop  offset="0.34" style="stop-color:#E63B23"/>
		<stop  offset="0.41" style="stop-color:#E63624"/>
		<stop  offset="0.5" style="stop-color:#E63324"/>
		<stop  offset="0.59" style="stop-color:#E63624"/>
		<stop  offset="0.66" style="stop-color:#E63B23"/>
		<stop  offset="0.73" style="stop-color:#E94C21"/>
		<stop  offset="0.78" style="stop-color:#E86312"/>
		<stop  offset="0.84" style="stop-color:#EF7C1E"/>
		<stop  offset="0.9" style="stop-color:#F59D1E"/>
		<stop  offset="0.95" style="stop-color:#F9BB24"/>
		<stop  offset="1" style="stop-color:#FFDB16"/>
		<stop  offset="1" style="stop-color:#FFDC15"/>
	</linearGradient>
	
		<rect x="232.4" y="260.7" style="opacity:0.4;fill:url(#SVGID_00000115515469126487692120000012384431520279047103_);enable-background:new    ;" width="93.8" height="93.8"/>
	
		<linearGradient id="SVGID_00000059287300773348969820000014203106902390533055_" gradientUnits="userSpaceOnUse" x1="279.3185" y1="1287.6145" x2="279.3185" y2="1200.6855" gradientTransform="matrix(1 0 0 1 0 -936.55)">
		<stop  offset="0" style="stop-color:#FFDC15"/>
		<stop  offset="0" style="stop-color:#FFDB16"/>
		<stop  offset="5.000000e-02" style="stop-color:#F9BB24"/>
		<stop  offset="0.1" style="stop-color:#F59D1E"/>
		<stop  offset="0.16" style="stop-color:#EF7C1E"/>
		<stop  offset="0.22" style="stop-color:#E86312"/>
		<stop  offset="0.27" style="stop-color:#E94C21"/>
		<stop  offset="0.34" style="stop-color:#E63B23"/>
		<stop  offset="0.41" style="stop-color:#E63624"/>
		<stop  offset="0.5" style="stop-color:#E63324"/>
		<stop  offset="0.59" style="stop-color:#E63624"/>
		<stop  offset="0.66" style="stop-color:#E63B23"/>
		<stop  offset="0.73" style="stop-color:#E94C21"/>
		<stop  offset="0.78" style="stop-color:#E86312"/>
		<stop  offset="0.84" style="stop-color:#EF7C1E"/>
		<stop  offset="0.9" style="stop-color:#F59D1E"/>
		<stop  offset="0.95" style="stop-color:#F9BB24"/>
		<stop  offset="1" style="stop-color:#FFDB16"/>
		<stop  offset="1" style="stop-color:#FFDC15"/>
	</linearGradient>
	
		<rect x="235.9" y="264.1" style="fill:url(#SVGID_00000059287300773348969820000014203106902390533055_);" width="86.9" height="86.9"/>
	<rect x="240.5" y="268.8" class="st9" width="77.9" height="77.9"/>
	
		<linearGradient id="SVGID_00000140003539961736484540000003576186729968635308_" gradientUnits="userSpaceOnUse" x1="-1084.8473" y1="2348.7722" x2="-1032.97" y2="2296.8882" gradientTransform="matrix(0.7071 -0.7071 0.7071 0.7071 -614.3481 -2083.542)">
		<stop  offset="0" style="stop-color:#116A37"/>
		<stop  offset="4.000000e-02" style="stop-color:#156D38"/>
		<stop  offset="8.000000e-02" style="stop-color:#0A783A"/>
		<stop  offset="0.13" style="stop-color:#148837"/>
		<stop  offset="0.15" style="stop-color:#0F9039"/>
		<stop  offset="0.35" style="stop-color:#38993D"/>
		<stop  offset="0.76" style="stop-color:#61B149"/>
		<stop  offset="1" style="stop-color:#70B74B"/>
	</linearGradient>
	
		<rect x="242.7" y="271" style="fill:url(#SVGID_00000140003539961736484540000003576186729968635308_);" width="73.4" height="73.4"/>
	<rect x="246.3" y="274.6" class="st11" width="66.2" height="66.2"/>
	<path id="leaf" class="st12" d="M279.3,290.9c-9.5,1.3-16.7,7.5-16.7,16.7c0,2.2,0.4,4.4,1.2,6.4c-1.8,1.2-4.3,2.7-5.6,3.2
		c-2.2,0.7-6.6,0.3-6.7,0.6c-0.2,0.4,1.2,4.3,1.8,4.5c0.5,0.2,4.5,0.2,6.7-0.6c1.6-0.6,4.6-2.4,6.3-3.7c3.1,3.9,7.8,6.3,13.1,6.3
		c9.2,0,16.6-5.8,16.6-15c0-3.6,0.9-8.1,2.2-10.9c1.4-3.1,8.9-5.1,8.9-5.1C306.3,290.9,283.1,290.4,279.3,290.9L279.3,290.9
		L279.3,290.9L279.3,290.9L279.3,290.9z"/>
	<path id="darker-3" class="st13" d="M316.1,344.4h-73.4v-40.2c0,0,23.1,3.6,36.7,3.6s36.7-3.6,36.7-3.6V344.4z"/>
</g>
<g id="tempIcon">
	
		<linearGradient id="SVGID_00000148621408519091884620000012686850167523148952_" gradientUnits="userSpaceOnUse" x1="427.4754" y1="1075.3301" x2="427.4754" y2="840.04" gradientTransform="matrix(1 0 0 1 0 -767.73)">
		<stop  offset="8.000000e-02" style="stop-color:#4AC0EF"/>
		<stop  offset="0.15" style="stop-color:#54A5D6"/>
		<stop  offset="0.23" style="stop-color:#5E86B5"/>
		<stop  offset="0.3" style="stop-color:#636B9D"/>
		<stop  offset="0.37" style="stop-color:#68578D"/>
		<stop  offset="0.42" style="stop-color:#6A4A82"/>
		<stop  offset="0.46" style="stop-color:#69467F"/>
		<stop  offset="0.55" style="stop-color:#943F62"/>
		<stop  offset="0.67" style="stop-color:#B7343D"/>
		<stop  offset="0.75" style="stop-color:#CD2522"/>
		<stop  offset="0.79" style="stop-color:#D41D1E"/>
	</linearGradient>
	
		<path style="fill:url(#SVGID_00000148621408519091884620000012686850167523148952_);stroke:#030404;stroke-width:3.34;stroke-miterlimit:10;" d="
		M443.1,245.1V87.9c0-8.5-7.1-15.6-15.6-15.6s-15.6,7.1-15.6,15.6v156.9c-10.3,5.7-17.7,16.7-17.7,29.5c0,18.5,14.9,33.4,33.4,33.4
		s33.4-14.9,33.4-33.4C460.8,261.5,453.7,250.5,443.1,245.1L443.1,245.1L443.1,245.1z"/>
	<line class="st15" x1="420.7" y1="106.4" x2="434.6" y2="106.4"/>
	<line class="st15" x1="420.7" y1="150" x2="434.6" y2="150"/>
	<line class="st15" x1="420.7" y1="189.8" x2="434.6" y2="189.8"/>
	<line class="st15" x1="420.7" y1="226.7" x2="434.6" y2="226.7"/>
	<line class="st15" x1="420.7" y1="273.5" x2="434.6" y2="273.5"/>
	
		<linearGradient id="SVGID_00000114786631736277591580000003506685642833665430_" gradientUnits="userSpaceOnUse" x1="417.8528" y1="1033.4125" x2="405.1728" y2="1020.7225" gradientTransform="matrix(1 0 0 1 0 -767.73)">
		<stop  offset="0" style="stop-color:#20201E;stop-opacity:0"/>
		<stop  offset="1" style="stop-color:#FFFFFF"/>
	</linearGradient>
	<path style="opacity:0.5;fill:url(#SVGID_00000114786631736277591580000003506685642833665430_);enable-background:new    ;" d="
		M417.9,265.4c-5,5.3-12.1,6.4-15.6,3.2c-3.5-3.5-2.1-10.6,2.8-15.6c5-5,12.1-6.4,15.6-2.8C424.3,253.6,423.2,260.4,417.9,265.4
		L417.9,265.4z"/>
</g>
<path class="st6" d="M156.8,312.3v-9.2H179v9.2H156.8z"/>
<path d="M177.2,191.9v-15.4h-27v-8.7l26.5-33.7h10.6v33.7h6.8v8.7h-6.8v15.4H177.2z M159.4,167.8h18v-22.7L159.4,167.8z"/>
<path class="st6" d="M212.9,325.8v-10.5h-18.3v-5.9l18-22.8h7.2v22.8h4.6v5.9h-4.6v10.5H212.9z M200.9,309.4h12.2v-15.4L200.9,309.4
	z"/>
<g id="tempIcon-2">
	
		<linearGradient id="SVGID_00000046321502181897736060000011377465082005084600_" gradientUnits="userSpaceOnUse" x1="537.4754" y1="1075.3301" x2="537.4754" y2="840.04" gradientTransform="matrix(1 0 0 1 0 -767.73)">
		<stop  offset="8.000000e-02" style="stop-color:#4AC0EF"/>
		<stop  offset="0.15" style="stop-color:#54A5D6"/>
		<stop  offset="0.23" style="stop-color:#5E86B5"/>
		<stop  offset="0.3" style="stop-color:#636B9D"/>
		<stop  offset="0.37" style="stop-color:#68578D"/>
		<stop  offset="0.42" style="stop-color:#6A4A82"/>
		<stop  offset="0.46" style="stop-color:#69467F"/>
		<stop  offset="0.55" style="stop-color:#943F62"/>
		<stop  offset="0.67" style="stop-color:#B7343D"/>
		<stop  offset="0.75" style="stop-color:#CD2522"/>
		<stop  offset="0.79" style="stop-color:#D41D1E"/>
	</linearGradient>
	
		<path style="fill:url(#SVGID_00000046321502181897736060000011377465082005084600_);stroke:#030404;stroke-width:3.34;stroke-miterlimit:10;" d="
		M553.1,245.1V87.9c0-8.5-7.1-15.6-15.6-15.6s-15.6,7.1-15.6,15.6v156.9c-10.3,5.7-17.7,16.7-17.7,29.5c0,18.5,14.9,33.4,33.4,33.4
		s33.4-14.9,33.4-33.4C570.8,261.5,563.7,250.5,553.1,245.1L553.1,245.1L553.1,245.1z"/>
	<line class="st15" x1="530.7" y1="106.4" x2="544.6" y2="106.4"/>
	<line class="st15" x1="530.7" y1="150" x2="544.6" y2="150"/>
	<line class="st15" x1="530.7" y1="189.8" x2="544.6" y2="189.8"/>
	<line class="st15" x1="530.7" y1="226.7" x2="544.6" y2="226.7"/>
	<line class="st15" x1="530.7" y1="273.5" x2="544.6" y2="273.5"/>
	
		<linearGradient id="SVGID_00000046311302486583603350000006828266981986498972_" gradientUnits="userSpaceOnUse" x1="527.8528" y1="1033.4125" x2="515.1729" y2="1020.7225" gradientTransform="matrix(1 0 0 1 0 -767.73)">
		<stop  offset="0" style="stop-color:#20201E;stop-opacity:0"/>
		<stop  offset="1" style="stop-color:#FFFFFF"/>
	</linearGradient>
	<path style="opacity:0.5;fill:url(#SVGID_00000046311302486583603350000006828266981986498972_);enable-background:new    ;" d="
		M527.9,265.4c-5,5.3-12.1,6.4-15.6,3.2c-3.6-3.5-2.1-10.6,2.8-15.6c5-5,12.1-6.4,15.6-2.8C534.3,253.6,533.2,260.4,527.9,265.4
		L527.9,265.4z"/>
</g>
</svg>
