<?xml version="1.0" encoding="utf-8"?>
<!-- Generator: Adobe Illustrator 27.5.0, SVG Export Plug-In . SVG Version: 6.00 Build 0)  -->
<svg version="1.1" id="Layer" xmlns="http://www.w3.org/2000/svg" xmlns:xlink="http://www.w3.org/1999/xlink" x="0px" y="0px"
	 viewBox="0 0 720 378.9" style="enable-background:new 0 0 720 378.9;" xml:space="preserve">
<style type="text/css">
	.st0{opacity:0;}
	.st1{opacity:0.4;}
	.st2{opacity:0.4;fill:url(#SVGID_1_);enable-background:new    ;}
	.st3{fill:url(#SVGID_00000018944410609904259450000010213070234240691645_);}
	.st4{fill:#030404;}
	.st5{fill:url(#SVGID_00000019645654096735950440000009333870077731515010_);}
	.st6{fill:url(#SVGID_00000067949975601054206910000007842925708346544303_);}
	.st7{opacity:8.000000e-02;fill:#030404;enable-background:new    ;}
	.st8{fill:#155929;}
	.st9{fill:#1A291D;}
	.st10{fill:#010101;}
	.st11{opacity:0.4;fill:url(#SVGID_00000178916264317081251360000017638371219818140573_);enable-background:new    ;}
	.st12{fill:url(#SVGID_00000044870464159695679530000011375922354655223446_);}
	.st13{fill:#020202;}
	.st14{fill:url(#SVGID_00000106838962218903167340000015231405192649879955_);}
	.st15{fill:#43AA35;}
	.st16{fill:#05562A;stroke:#1B4420;stroke-width:3.73;stroke-miterlimit:10;}
	.st17{opacity:5.000000e-02;fill:#020202;enable-background:new    ;}
</style>
<rect class="st0" width="720" height="378.9"/>
<path class="st1" d="M88.9,220.6v-8.9c3.4-4.5,6.7-8.2,9.8-11l4.6-4.1c3.3-2.9,6-5.8,8.1-8.6c2.1-2.8,3.2-5.8,3.2-8.9
	c0-2.8-0.9-5-2.7-6.5c-1.8-1.5-4.2-2.3-7.3-2.3c-4.1,0-8.8,1.4-14.3,4.2v-8.2c5.7-2.1,11.2-3.2,16.5-3.2c5.9,0,10.6,1.4,14.2,4.2
	c3.6,2.8,5.4,6.6,5.4,11.3c0,3-0.8,5.8-2.3,8.4s-4.7,5.9-9.5,9.8l-3.8,3c-1.7,1.3-3.5,3.1-5.4,5.1c-2,2.1-3.3,4.3-3.9,6.7h24.7v8.9
	L88.9,220.6L88.9,220.6z"/>
<g id="animal" class="st1">
	
		<linearGradient id="SVGID_1_" gradientUnits="userSpaceOnUse" x1="205.265" y1="1200.01" x2="205.265" y2="1060.3" gradientTransform="matrix(1 0 0 1 0 -938.73)">
		<stop  offset="0" style="stop-color:#FFDC12"/>
		<stop  offset="0" style="stop-color:#FFDB13"/>
		<stop  offset="5.000000e-02" style="stop-color:#F9BB1B"/>
		<stop  offset="0.1" style="stop-color:#F59B18"/>
		<stop  offset="0.16" style="stop-color:#EF7B19"/>
		<stop  offset="0.22" style="stop-color:#E86112"/>
		<stop  offset="0.27" style="stop-color:#E84A1D"/>
		<stop  offset="0.34" style="stop-color:#E5391E"/>
		<stop  offset="0.41" style="stop-color:#E63121"/>
		<stop  offset="0.5" style="stop-color:#E62E21"/>
		<stop  offset="0.59" style="stop-color:#E63121"/>
		<stop  offset="0.66" style="stop-color:#E5391E"/>
		<stop  offset="0.73" style="stop-color:#E84A1D"/>
		<stop  offset="0.78" style="stop-color:#E86112"/>
		<stop  offset="0.84" style="stop-color:#EF7B19"/>
		<stop  offset="0.9" style="stop-color:#F59B18"/>
		<stop  offset="0.95" style="stop-color:#F9BB1B"/>
		<stop  offset="1" style="stop-color:#FFDB13"/>
		<stop  offset="1" style="stop-color:#FFDC12"/>
	</linearGradient>
	<rect x="135.4" y="121.6" class="st2" width="139.7" height="139.7"/>
	
		<linearGradient id="SVGID_00000168801265796296985380000008245481104381688969_" gradientUnits="userSpaceOnUse" x1="205.285" y1="1196.36" x2="205.285" y2="1063.95" gradientTransform="matrix(1 0 0 1 0 -938.73)">
		<stop  offset="0" style="stop-color:#FFDC12"/>
		<stop  offset="0" style="stop-color:#FFDB13"/>
		<stop  offset="5.000000e-02" style="stop-color:#F9BB1B"/>
		<stop  offset="0.1" style="stop-color:#F59B18"/>
		<stop  offset="0.16" style="stop-color:#EF7B19"/>
		<stop  offset="0.22" style="stop-color:#E86112"/>
		<stop  offset="0.27" style="stop-color:#E84A1D"/>
		<stop  offset="0.34" style="stop-color:#E5391E"/>
		<stop  offset="0.41" style="stop-color:#E63121"/>
		<stop  offset="0.5" style="stop-color:#E62E21"/>
		<stop  offset="0.59" style="stop-color:#E63121"/>
		<stop  offset="0.66" style="stop-color:#E5391E"/>
		<stop  offset="0.73" style="stop-color:#E84A1D"/>
		<stop  offset="0.78" style="stop-color:#E86112"/>
		<stop  offset="0.84" style="stop-color:#EF7B19"/>
		<stop  offset="0.9" style="stop-color:#F59B18"/>
		<stop  offset="0.95" style="stop-color:#F9BB1B"/>
		<stop  offset="1" style="stop-color:#FFDB13"/>
		<stop  offset="1" style="stop-color:#FFDC12"/>
	</linearGradient>
	
		<rect x="139.1" y="125.2" style="fill:url(#SVGID_00000168801265796296985380000008245481104381688969_);" width="132.4" height="132.4"/>
	<rect x="146.9" y="133.9" class="st4" width="116.1" height="116.1"/>
	
		<linearGradient id="SVGID_00000151520136228769005330000005762621361285788573_" gradientUnits="userSpaceOnUse" x1="-1236.7411" y1="2370.0671" x2="-1159.3666" y2="2292.7024" gradientTransform="matrix(0.7071 -0.7071 0.7071 0.7071 -596.451 -2303.7449)">
		<stop  offset="0" style="stop-color:#1F4D23"/>
		<stop  offset="0.43" style="stop-color:#4C7030"/>
		<stop  offset="1" style="stop-color:#97AB45"/>
	</linearGradient>
	
		<rect x="150.2" y="137.2" style="fill:url(#SVGID_00000151520136228769005330000005762621361285788573_);" width="109.4" height="109.4"/>
	
		<radialGradient id="SVGID_00000133496090884898925730000013598720925397184387_" cx="204.94" cy="1146.02" r="49.4" gradientTransform="matrix(1 0 0 1 0 -954.08)" gradientUnits="userSpaceOnUse">
		<stop  offset="0.25" style="stop-color:#97AB45"/>
		<stop  offset="1" style="stop-color:#3C7B31"/>
	</radialGradient>
	
		<rect x="155.5" y="142.5" style="fill:url(#SVGID_00000133496090884898925730000013598720925397184387_);" width="98.8" height="98.8"/>
	<path id="darker" class="st7" d="M259.6,246.6H150.2v-60c0,0,34.5,5.3,54.7,5.3s54.8-5.3,54.8-5.3V246.6L259.6,246.6z"/>
	<path class="st8" d="M193.3,164.1c-0.3,0-3,0.4-4.6,2.6c-0.6,0.8-0.9,1.8-1.1,2.8c-0.4,2.1-1.1,5.8,0.4,10.3c0.7,2.1,1.6,4.8,4,6.5
		c0.7,0.6,2.2,1.6,4.2,1.4c2.1-0.2,3.4-1.8,3.9-2.3c1.9-2.1,1.9-4.7,1.9-7.4c0-1.3,0-5.3-2.1-9.5c-1.4-2.8-2.6-3.5-3.2-3.8
		C195.4,163.9,193.8,164.1,193.3,164.1L193.3,164.1L193.3,164.1z"/>
	<path class="st8" d="M219,162.6c-0.3-0.1-2.9-0.6-5.1,0.8c-0.8,0.6-1.5,1.3-2.1,2.2c-1.1,1.8-3.1,4.9-3.2,9.8
		c-0.1,2.3-0.2,5,1.5,7.5c0.6,0.7,1.6,2.2,3.4,2.7c2.1,0.6,3.9-0.5,4.5-0.8c2.4-1.4,3.4-3.7,4.5-6.2c0.5-1.2,1.9-4.9,1.4-9.6
		c-0.3-3.1-1.2-4.2-1.7-4.7C221,163.1,219.5,162.7,219,162.6L219,162.6L219,162.6z"/>
	<path class="st8" d="M175.9,179c-0.3,0.1-2.9,0.6-4.3,3c-0.6,0.9-0.7,1.8-0.8,2.9c-0.2,2.1-0.6,5.8,1.3,10.2
		c0.9,2.1,1.9,4.6,4.7,6.1c0.8,0.5,2.4,1.3,4.3,0.9c2.1-0.4,3.2-2.1,3.7-2.7c1.6-2.3,1.5-4.8,1.3-7.5c-0.1-1.3-0.5-5.2-3-9.2
		c-1.6-2.6-2.9-3.2-3.5-3.5C177.9,178.7,176.5,178.9,175.9,179L175.9,179L175.9,179z"/>
	<path class="st8" d="M234.6,176.8c-0.3-0.1-2.9-0.6-5.1,0.9c-0.8,0.6-1.4,1.4-1.9,2.3c-1,1.9-3,5-3,9.9c0,2.3-0.1,5,1.7,7.4
		c0.6,0.7,1.7,2.2,3.5,2.6c2.1,0.5,3.8-0.6,4.5-0.9c2.4-1.4,3.4-3.8,4.3-6.3c0.5-1.2,1.8-4.9,1.1-9.6c-0.4-3.1-1.3-4.2-1.8-4.7
		C236.6,177.2,235.1,176.9,234.6,176.8L234.6,176.8L234.6,176.8L234.6,176.8z"/>
	<path class="st9" d="M233.9,179.8c-0.2,0-2.1-0.5-3.8,0.7c-0.6,0.5-1,1-1.5,1.7c-0.7,1.4-2.1,3.7-2.2,7.4c0,1.7-0.1,3.7,1.3,5.6
		c0.4,0.6,1.2,1.7,2.6,1.9c1.6,0.4,2.9-0.5,3.4-0.6c1.8-1.1,2.4-2.8,3.2-4.8c0.4-0.9,1.3-3.7,0.8-7.2c-0.3-2.2-1-3.1-1.3-3.4
		C235.4,180.1,234.3,179.8,233.9,179.8L233.9,179.8L233.9,179.8L233.9,179.8z"/>
	<path class="st9" d="M218.3,165.6c-0.2-0.1-2.1-0.5-3.8,0.6c-0.6,0.5-1,0.9-1.5,1.7c-0.8,1.3-2.2,3.6-2.4,7.3
		c-0.1,1.7-0.2,3.7,1.1,5.6c0.4,0.6,1.1,1.7,2.5,2.1c1.6,0.4,2.9-0.4,3.4-0.6c1.8-1,2.5-2.7,3.2-4.6c0.4-0.9,1.4-3.6,1-7.1
		c-0.3-2.2-0.9-3.1-1.2-3.4C219.7,166,218.7,165.7,218.3,165.6L218.3,165.6L218.3,165.6L218.3,165.6z"/>
	<path class="st9" d="M193.7,167.2c-0.2,0-2.1,0.3-3.4,1.9c-0.5,0.6-0.6,1.3-0.8,2.1c-0.3,1.5-0.8,4.2,0.3,7.6
		c0.6,1.6,1.1,3.5,3,4.8c0.6,0.4,1.7,1.1,3.1,1c1.6-0.2,2.5-1.3,2.9-1.7c1.3-1.6,1.4-3.4,1.5-5.4c0-0.9,0-3.9-1.6-7
		c-1-2.1-1.9-2.6-2.3-2.8C195.2,167,194.1,167.1,193.7,167.2L193.7,167.2L193.7,167.2z"/>
	<path class="st9" d="M176.6,181.8c-0.2,0-2.2,0.5-3.2,2.3c-0.5,0.7-0.6,1.4-0.6,2.2c-0.2,1.6-0.5,4.5,1,7.8
		c0.6,1.6,1.5,3.5,3.5,4.7c0.6,0.4,1.9,1,3.2,0.7c1.6-0.3,2.5-1.6,2.8-2.1c1.2-1.8,1.1-3.7,1-5.8c-0.1-1-0.4-4-2.2-7.1
		c-1.2-2.1-2.2-2.5-2.7-2.7C178.1,181.4,176.8,181.7,176.6,181.8L176.6,181.8L176.6,181.8L176.6,181.8z"/>
	<path class="st8" d="M205.7,186.7c-1.3,0.1-2.7,0.1-4.3,0.9c-1.8,0.9-2.8,2.3-3.7,3.5c-0.8,1.1-0.7,1.2-1.9,3.2
		c-1.1,1.7-1.7,2.7-2.7,3.8c-1.2,1.4-2.4,2.2-4.6,3.9c-2.3,1.8-2.5,1.7-3.2,2.4c-1.6,1.9-1.9,3.9-2.2,5.3c-0.2,1.3-0.6,3.7,0.4,6.5
		c0.5,1.2,1.3,3.5,3.4,4.6c0.8,0.4,1.7,0.5,3.7,0.4c3.4-0.2,5.8-0.8,7.8-1.3c2.4-0.6,4.9-1.1,8.1-1.2c3.8-0.1,7.2,0.6,8.9,0.8
		c2.1,0.4,3.5,0.8,6.4,1.1c2.4,0.3,3.6,0.2,5-0.3c0.8-0.3,2.3-0.7,3.4-2.1c1.2-1.5,1.3-3.1,1.3-4.8c0.1-1.1,0.1-3.8-1.5-7
		c-0.6-1.4-1.2-2.1-3.4-4.7c-5.8-7.2-6.1-8-8.4-10c-1.4-1.2-2.8-2.4-4.9-3.4C212.4,187.9,209.5,186.5,205.7,186.7L205.7,186.7
		L205.7,186.7L205.7,186.7z"/>
	<path class="st9" d="M206,189.1c-1.1,0.1-2.3,0.1-3.7,0.8c-1.5,0.8-2.4,2.1-3.2,3.1c-0.7,0.9-0.6,1-1.7,2.8
		c-0.9,1.5-1.5,2.3-2.3,3.2c-1,1.2-2.1,1.9-3.9,3.4c-2.1,1.6-2.1,1.4-2.8,2.1c-1.4,1.6-2.6,4-2.9,5.1c-0.2,1.1-0.6,3.2,0.3,5.6
		c0.4,1.1,1.1,3.1,3,3.9c0.7,0.4,2.4-0.1,4.1-0.3c3-0.2,5-0.7,6.8-1.1c2.1-0.5,4.3-0.9,7-1c3.2-0.1,6.1,0.5,7.7,0.7
		c1.8,0.4,3.1,0.7,5.5,0.9c2.1,0.2,4.6,1,5.7,0.6c0.7-0.2,1.9-0.7,3-1.9s0.7-3.8,0.8-5.3c0.1-0.9-0.7-3-2.3-5.7
		c-0.7-1.3-1.1-1.8-2.9-4c-4.9-6.1-5.2-6.9-7.2-8.6c-1.2-1-2.4-2.1-4.3-3C211.8,190.1,209.3,188.9,206,189.1L206,189.1L206,189.1z"
		/>
</g>
<g class="st1">
	<path class="st10" d="M338.5,224.4c-5.9,0-11.1-1.2-15.5-3.7c-4.4-2.4-7.7-6-10-10.6c-2.3-4.6-3.4-9.8-3.4-15.7s1.1-11,3.4-15.6
		s5.6-8.2,10.1-10.6c4.4-2.4,9.6-3.7,15.5-3.7s11,1.2,15.4,3.7s7.8,6,10.1,10.6c2.3,4.6,3.4,9.8,3.4,15.6s-1.1,11.1-3.4,15.7
		c-2.3,4.6-5.6,8.1-10,10.6C349.6,223.2,344.4,224.4,338.5,224.4L338.5,224.4L338.5,224.4z M338.5,216.6c5.5,0,9.6-2.2,12.3-6.7
		c2.7-4.5,4-9.6,4-15.4s-1.4-10.9-4-15.4s-6.8-6.7-12.2-6.7s-9.6,2.2-12.3,6.7s-4,9.6-4,15.4s1.3,10.9,4,15.4
		C328.8,214.3,333,216.6,338.5,216.6L338.5,216.6z"/>
	<path class="st10" d="M378,223v-57h21.4c4.4,0,7.7,0.6,10,1.6c2.3,1.1,4.1,2.7,5.4,5c1.3,2.2,2,4.7,2,7.5c0,3.3-1,6.5-2.9,9.5
		c-1.9,3-4.6,5.2-8.2,6.8l18.7,26.6h-14.5l-14.2-23.3h-6.5V223L378,223L378,223z M389.2,191.8h2.7c4.9,0,8.3-1.1,10.2-3.2
		c1.9-2.1,2.8-4.5,2.8-7.2c0-2.3-0.8-4.2-2.3-5.6c-1.5-1.4-4.6-2.1-9.3-2.1h-4.1L389.2,191.8L389.2,191.8L389.2,191.8z"/>
</g>
<path class="st1" d="M48.6,198.1v-9h21.7v9H48.6z"/>
<path class="st1" d="M448.1,198.4v-9h21.7v9H448.1z"/>
<path class="st1" d="M488.7,221v-8.5c5,1.9,9.2,2.9,12.5,2.9c3.7,0,6.4-1.1,8.2-3.3c1.8-2.2,2.7-4.8,2.7-7.8c0-3.8-1.5-6.8-4.5-9.1
	s-7.5-3.5-13.6-3.5c-1.4,0-2.9,0.1-4.3,0.4v-29.4h33.6v9.2h-25.1l-0.6,12.6c9.1,0,15.9,1.9,20.3,5.6c4.4,3.7,6.6,8.4,6.6,14
	c0,5.2-1.9,9.6-5.8,13.1c-3.9,3.6-9.6,5.3-17.3,5.3c-1.9,0-3.5-0.1-5-0.3S492.4,221.8,488.7,221L488.7,221L488.7,221z"/>
<g id="plant" class="st1">
	
		<linearGradient id="SVGID_00000044881520449610517550000016294123308620723617_" gradientUnits="userSpaceOnUse" x1="606.395" y1="1200.53" x2="606.395" y2="1060.8199" gradientTransform="matrix(1 0 0 1 0 -938.73)">
		<stop  offset="0" style="stop-color:#FFDB13"/>
		<stop  offset="0" style="stop-color:#FFDA13"/>
		<stop  offset="5.000000e-02" style="stop-color:#F8BA1D"/>
		<stop  offset="0.1" style="stop-color:#F49A1A"/>
		<stop  offset="0.16" style="stop-color:#EE7B1A"/>
		<stop  offset="0.22" style="stop-color:#E76111"/>
		<stop  offset="0.27" style="stop-color:#E74A1E"/>
		<stop  offset="0.34" style="stop-color:#E43920"/>
		<stop  offset="0.41" style="stop-color:#E53123"/>
		<stop  offset="0.5" style="stop-color:#E52F23"/>
		<stop  offset="0.59" style="stop-color:#E53123"/>
		<stop  offset="0.66" style="stop-color:#E43920"/>
		<stop  offset="0.73" style="stop-color:#E74A1E"/>
		<stop  offset="0.78" style="stop-color:#E76111"/>
		<stop  offset="0.84" style="stop-color:#EE7B1A"/>
		<stop  offset="0.9" style="stop-color:#F49A1A"/>
		<stop  offset="0.95" style="stop-color:#F8BA1D"/>
		<stop  offset="1" style="stop-color:#FFDA13"/>
		<stop  offset="1" style="stop-color:#FFDB13"/>
	</linearGradient>
	
		<rect x="536.5" y="122.1" style="opacity:0.4;fill:url(#SVGID_00000044881520449610517550000016294123308620723617_);enable-background:new    ;" width="139.7" height="139.7"/>
	
		<linearGradient id="SVGID_00000109720100585520832130000014407071697359025281_" gradientUnits="userSpaceOnUse" x1="606.405" y1="1196.88" x2="606.405" y2="1064.47" gradientTransform="matrix(1 0 0 1 0 -938.73)">
		<stop  offset="0" style="stop-color:#FFDB13"/>
		<stop  offset="0" style="stop-color:#FFDA13"/>
		<stop  offset="5.000000e-02" style="stop-color:#F8BA1D"/>
		<stop  offset="0.1" style="stop-color:#F49A1A"/>
		<stop  offset="0.16" style="stop-color:#EE7B1A"/>
		<stop  offset="0.22" style="stop-color:#E76111"/>
		<stop  offset="0.27" style="stop-color:#E74A1E"/>
		<stop  offset="0.34" style="stop-color:#E43920"/>
		<stop  offset="0.41" style="stop-color:#E53123"/>
		<stop  offset="0.5" style="stop-color:#E52F23"/>
		<stop  offset="0.59" style="stop-color:#E53123"/>
		<stop  offset="0.66" style="stop-color:#E43920"/>
		<stop  offset="0.73" style="stop-color:#E74A1E"/>
		<stop  offset="0.78" style="stop-color:#E76111"/>
		<stop  offset="0.84" style="stop-color:#EE7B1A"/>
		<stop  offset="0.9" style="stop-color:#F49A1A"/>
		<stop  offset="0.95" style="stop-color:#F8BA1D"/>
		<stop  offset="1" style="stop-color:#FFDA13"/>
		<stop  offset="1" style="stop-color:#FFDB13"/>
	</linearGradient>
	
		<rect x="540.2" y="125.7" style="fill:url(#SVGID_00000109720100585520832130000014407071697359025281_);" width="132.4" height="132.4"/>
	<rect x="548.5" y="133.5" class="st13" width="116.2" height="116.2"/>
	
		<linearGradient id="SVGID_00000117673093482955511180000005664636901996821691_" gradientUnits="userSpaceOnUse" x1="-786.9384" y1="-1431.8108" x2="-709.5031" y2="-1354.3655" gradientTransform="matrix(0.7071 -0.7071 -0.7071 -0.7071 150.6249 -1322.569)">
		<stop  offset="0" style="stop-color:#096835"/>
		<stop  offset="4.000000e-02" style="stop-color:#066A35"/>
		<stop  offset="8.000000e-02" style="stop-color:#007538"/>
		<stop  offset="0.13" style="stop-color:#028538"/>
		<stop  offset="0.15" style="stop-color:#008D39"/>
		<stop  offset="0.35" style="stop-color:#32973C"/>
		<stop  offset="0.76" style="stop-color:#5DAE46"/>
		<stop  offset="1" style="stop-color:#6DB549"/>
	</linearGradient>
	
		<rect x="551.9" y="136.8" style="fill:url(#SVGID_00000117673093482955511180000005664636901996821691_);" width="109.5" height="109.5"/>
	<rect x="557.2" y="142.1" class="st15" width="98.9" height="98.9"/>
	<path id="leaf" class="st16" d="M606.6,166.5c-14.2,2-25,11.2-25,25c0,3.4,0.7,6.6,1.9,9.6c-2.6,1.8-6.4,4.1-8.3,4.8
		c-3.3,1.1-9.8,0.4-10.1,0.9s1.9,6.4,2.6,6.7s6.7,0.3,10.1-0.9c2.4-0.8,6.8-3.6,9.3-5.5c4.6,5.8,11.7,9.4,19.6,9.4
		c13.8,0,24.8-8.7,24.8-22.5c0-5.3,1.3-12,3.3-16.2c2.1-4.7,13.2-7.6,13.2-7.6C646.8,166.5,612.2,165.8,606.6,166.5L606.6,166.5z"/>
	<path id="darker-2" class="st17" d="M661.4,246.3H551.9v-60c0,0,34.5,5.3,54.7,5.3s54.8-5.3,54.8-5.3V246.3z"/>
</g>
</svg>
