<?xml version="1.0" encoding="utf-8"?>
<!-- Generator: Adobe Illustrator 27.5.0, SVG Export Plug-In . SVG Version: 6.00 Build 0)  -->
<svg version="1.1" id="Layer" xmlns="http://www.w3.org/2000/svg" xmlns:xlink="http://www.w3.org/1999/xlink" x="0px" y="0px"
	 viewBox="0 0 721 379.9" style="enable-background:new 0 0 721 379.9;" xml:space="preserve">
<style type="text/css">
	.st0{fill:none;}
	.st1{fill:#20201E;}
	.st2{fill:#FFFFFF;fill-opacity:0;}
	.st3{fill:url(#external-border_00000018210509671304650300000016456930748228795835_);}
	.st4{fill:url(#internal-border_00000168102531522331032060000002710545109174559890_);}
	.st5{fill:url(#bg_00000127025638007625527910000003562560065270689451_);}
	.st6{opacity:0.14;fill:url(#bgPattern_00000103944817674387785850000002064180210351480503_);enable-background:new    ;}
	.st7{opacity:0.4;fill:#010101;}
	.st8{fill:#010101;}
	.st9{fill:#020303;}
	.st10{fill:url(#SVGID_1_);}
	.st11{fill:#946137;}
	.st12{fill:#332116;}
	.st13{opacity:0.15;fill:#020303;enable-background:new    ;}
	.st14{opacity:0.4;}
	.st15{opacity:0.4;fill:url(#SVGID_00000171706958472914895580000007834242787073635469_);enable-background:new    ;}
	.st16{fill:url(#SVGID_00000074419918522581936310000006938941616054483391_);}
	.st17{fill:url(#SVGID_00000119804467375795469760000013995922677427142544_);}
</style>
<pattern  y="379.9" width="56.7" height="62.5" patternUnits="userSpaceOnUse" id="Nowy_wzorek_7" viewBox="0 -62.5 56.7 62.5" style="overflow:visible;">
	<g>
		<rect y="-62.5" class="st0" width="56.7" height="62.5"/>
		<g>
			<rect y="-62.5" class="st0" width="56.7" height="62.5"/>
			<g>
				<rect y="-62.5" class="st0" width="56.7" height="62.5"/>
				<g>
					<rect y="-62.5" class="st0" width="56.7" height="62.5"/>
					<g>
						<rect y="-62.5" class="st0" width="56.7" height="62.5"/>
						<g>
							<rect y="-62.5" class="st0" width="56.7" height="62.5"/>
							<path class="st1" d="M47.8-37.4c6,6,6,16.1,0,22.2l-3.5,3.4c-6,6-16.1,6-22.5,0L8.9-25c-6-6-6-16.1,0-22.2l3.4-3.5
								c6-6,16.1-6,22.2,0C34.5-50.7,47.8-37.4,47.8-37.4z"/>
						</g>
					</g>
				</g>
			</g>
		</g>
	</g>
</pattern>
<rect x="0.5" y="0.5" class="st2" width="720" height="378.9"/>
<g id="prodBg">
	
		<linearGradient id="external-border_00000096771468556308048990000011019597827741000594_" gradientUnits="userSpaceOnUse" x1="512" y1="1290.99" x2="225.15" y2="1004.14" gradientTransform="matrix(1 0 0 1 0 -952.55)">
		<stop  offset="0" style="stop-color:#9F9D9C"/>
		<stop  offset="0.54" style="stop-color:#020303"/>
		<stop  offset="1" style="stop-color:#9F9D9C"/>
	</linearGradient>
	
		<rect id="external-border" x="237.4" y="39.3" style="fill:url(#external-border_00000096771468556308048990000011019597827741000594_);" width="262.3" height="311.4"/>
	
		<linearGradient id="internal-border_00000034088552091031551620000001786522630902620589_" gradientUnits="userSpaceOnUse" x1="368.65" y1="1298.65" x2="368.65" y2="996.5" gradientTransform="matrix(1 0 0 1 0 -952.55)">
		<stop  offset="0" style="stop-color:#472D1C"/>
		<stop  offset="1" style="stop-color:#B18047"/>
	</linearGradient>
	
		<rect id="internal-border" x="242" y="44" style="fill:url(#internal-border_00000034088552091031551620000001786522630902620589_);" width="253.2" height="302.1"/>
	
		<linearGradient id="bg_00000099663940445264063880000017646606668353891969_" gradientUnits="userSpaceOnUse" x1="368.585" y1="1294.45" x2="368.585" y2="1000.55" gradientTransform="matrix(1 0 0 1 0 -952.55)">
		<stop  offset="0" style="stop-color:#946137"/>
		<stop  offset="1" style="stop-color:#815228"/>
	</linearGradient>
	
		<rect id="bg" x="246.1" y="48" style="fill:url(#bg_00000099663940445264063880000017646606668353891969_);" width="245" height="293.9"/>
	
		<pattern  id="bgPattern_00000156555347454378671120000010942711975291802550_" xlink:href="#Nowy_wzorek_7" patternTransform="matrix(1 0 0 1 32.1 16747.1504)">
	</pattern>
	
		<rect id="bgPattern" x="246.1" y="48" style="opacity:0.14;fill:url(#bgPattern_00000156555347454378671120000010942711975291802550_);enable-background:new    ;" width="245" height="293.9"/>
</g>
<path class="st7" d="M316.4,131.8v-9.1h21.8v9.1H316.4z"/>
<path class="st8" d="M292.9,291.2v-24.3h-24.3v-10h24.3v-24.3h10v24.3h24.3v10h-24.3v24.3H292.9z"/>
<g id="steel">
	<rect x="350.4" y="204.1" class="st9" width="116.3" height="116.3"/>
	
		<linearGradient id="SVGID_1_" gradientUnits="userSpaceOnUse" x1="-975.2233" y1="-1339.6259" x2="-897.7526" y2="-1262.1453" gradientTransform="matrix(0.7071 -0.7071 -0.7071 -0.7071 150.852 -1319.8319)">
		<stop  offset="0" style="stop-color:#452B1A"/>
		<stop  offset="5.000000e-02" style="stop-color:#583519"/>
		<stop  offset="0.1" style="stop-color:#683E15"/>
		<stop  offset="0.32" style="stop-color:#76481E"/>
		<stop  offset="0.75" style="stop-color:#8C5A31"/>
		<stop  offset="1" style="stop-color:#946137"/>
	</linearGradient>
	<rect x="353.7" y="207.4" class="st10" width="109.6" height="109.6"/>
	<rect x="359.1" y="212.8" class="st11" width="98.9" height="98.9"/>
	<g>
		<path class="st12" d="M418.8,294.9l2.4-46l-5.6-0.6l-0.8-2h-4.3l-0.8,2l-6.5-0.3v-11.9h7.5l0.6,2.3l3.5,0.5l0.8-2.7h7.7l1.5,1.3
			l1.3-1.3h9.6l1.1,1.9l1.7-1.9l7.3,6l-0.5,4.1c0,0-4-3.7-6-3.7s-4.8-0.1-4.8-0.1l-4,6.4l-2.4,0.2l2.2,45.8L418.8,294.9L418.8,294.9
			z"/>
		<polygon class="st12" points="397.1,234.2 389.3,229.9 389.2,240.5 382.1,240.5 382.1,229.9 373.1,234 373.1,247.1 381.4,251.1 
			378.5,294.9 391.9,294.9 389.3,251.1 397.1,247.5 		"/>
	</g>
	<path id="darker" class="st13" d="M463.3,317H353.7v-60c0,0,34.5,5.3,54.7,5.3s54.8-5.3,54.8-5.3L463.3,317L463.3,317z"/>
</g>
<g id="steel-2" class="st14">
	
		<linearGradient id="SVGID_00000043459434763418579430000000582681898543954840_" gradientUnits="userSpaceOnUse" x1="399.3352" y1="1110.5248" x2="399.3352" y2="1017.3152" gradientTransform="matrix(1 0 0 1 0 -936.55)">
		<stop  offset="0" style="stop-color:#FFDC15"/>
		<stop  offset="0" style="stop-color:#FFDB16"/>
		<stop  offset="5.000000e-02" style="stop-color:#F9BB24"/>
		<stop  offset="0.1" style="stop-color:#F59D1E"/>
		<stop  offset="0.16" style="stop-color:#EF7C1E"/>
		<stop  offset="0.22" style="stop-color:#E86312"/>
		<stop  offset="0.27" style="stop-color:#E94C21"/>
		<stop  offset="0.34" style="stop-color:#E63B23"/>
		<stop  offset="0.41" style="stop-color:#E63624"/>
		<stop  offset="0.5" style="stop-color:#E63324"/>
		<stop  offset="0.59" style="stop-color:#E63624"/>
		<stop  offset="0.66" style="stop-color:#E63B23"/>
		<stop  offset="0.73" style="stop-color:#E94C21"/>
		<stop  offset="0.78" style="stop-color:#E86312"/>
		<stop  offset="0.84" style="stop-color:#EF7C1E"/>
		<stop  offset="0.9" style="stop-color:#F59D1E"/>
		<stop  offset="0.95" style="stop-color:#F9BB24"/>
		<stop  offset="1" style="stop-color:#FFDB16"/>
		<stop  offset="1" style="stop-color:#FFDC15"/>
	</linearGradient>
	
		<rect x="352.7" y="80.8" style="opacity:0.4;fill:url(#SVGID_00000043459434763418579430000000582681898543954840_);enable-background:new    ;" width="93.2" height="93.2"/>
	
		<linearGradient id="SVGID_00000140698324922040410420000015244876338265536171_" gradientUnits="userSpaceOnUse" x1="399.3518" y1="1107.0901" x2="399.3518" y2="1020.7433" gradientTransform="matrix(1 0 0 1 0 -936.55)">
		<stop  offset="0" style="stop-color:#FFDC15"/>
		<stop  offset="0" style="stop-color:#FFDB16"/>
		<stop  offset="5.000000e-02" style="stop-color:#F9BB24"/>
		<stop  offset="0.1" style="stop-color:#F59D1E"/>
		<stop  offset="0.16" style="stop-color:#EF7C1E"/>
		<stop  offset="0.22" style="stop-color:#E86312"/>
		<stop  offset="0.27" style="stop-color:#E94C21"/>
		<stop  offset="0.34" style="stop-color:#E63B23"/>
		<stop  offset="0.41" style="stop-color:#E63624"/>
		<stop  offset="0.5" style="stop-color:#E63324"/>
		<stop  offset="0.59" style="stop-color:#E63624"/>
		<stop  offset="0.66" style="stop-color:#E63B23"/>
		<stop  offset="0.73" style="stop-color:#E94C21"/>
		<stop  offset="0.78" style="stop-color:#E86312"/>
		<stop  offset="0.84" style="stop-color:#EF7C1E"/>
		<stop  offset="0.9" style="stop-color:#F59D1E"/>
		<stop  offset="0.95" style="stop-color:#F9BB24"/>
		<stop  offset="1" style="stop-color:#FFDB16"/>
		<stop  offset="1" style="stop-color:#FFDC15"/>
	</linearGradient>
	
		<rect x="356.2" y="84.2" style="fill:url(#SVGID_00000140698324922040410420000015244876338265536171_);" width="86.3" height="86.3"/>
	<rect x="360.7" y="88.7" class="st9" width="77.2" height="77.2"/>
	
		<linearGradient id="SVGID_00000007419843995579381880000004694023704972913798_" gradientUnits="userSpaceOnUse" x1="-873.2906" y1="-1224.7023" x2="-821.8223" y2="-1173.2272" gradientTransform="matrix(0.7071 -0.7071 -0.7071 -0.7071 150.852 -1319.8319)">
		<stop  offset="0" style="stop-color:#452B1A"/>
		<stop  offset="5.000000e-02" style="stop-color:#583519"/>
		<stop  offset="0.1" style="stop-color:#683E15"/>
		<stop  offset="0.32" style="stop-color:#76481E"/>
		<stop  offset="0.75" style="stop-color:#8C5A31"/>
		<stop  offset="1" style="stop-color:#946137"/>
	</linearGradient>
	
		<rect x="362.9" y="90.9" style="fill:url(#SVGID_00000007419843995579381880000004694023704972913798_);" width="72.8" height="72.8"/>
	<rect x="366.5" y="94.4" class="st11" width="65.7" height="65.7"/>
	<g>
		<path class="st12" d="M406.2,149l1.6-30.5l-3.7-0.4l-0.6-1.3h-2.9l-0.5,1.4l-4.3-0.2V110h5l0.4,1.5l2.4,0.3l0.6-1.8h5.1l1,0.9
			l0.9-0.9h6.4l0.7,1.2l1.1-1.2l4.8,4l-0.3,2.7c0,0-2.7-2.5-4-2.5c-1.3,0-3.2-0.1-3.2-0.1l-2.7,4.3l-1.6,0.1L414,149L406.2,149
			L406.2,149z"/>
		<polygon class="st12" points="391.7,108.7 386.5,105.8 386.5,112.9 381.8,112.9 381.8,105.8 375.8,108.5 375.8,117.2 381.3,119.9 
			379.4,149 388.3,149 386.5,119.9 391.7,117.5 		"/>
	</g>
	<path id="darker-2" class="st13" d="M435.7,163.7h-72.8v-39.9c0,0,22.9,3.5,36.4,3.5s36.4-3.5,36.4-3.5L435.7,163.7L435.7,163.7z"
		/>
</g>
</svg>
