<?xml version="1.0" encoding="utf-8"?>
<!-- Generator: Adobe Illustrator 27.5.0, SVG Export Plug-In . SVG Version: 6.00 Build 0)  -->
<svg version="1.1" id="Layer" xmlns="http://www.w3.org/2000/svg" xmlns:xlink="http://www.w3.org/1999/xlink" x="0px" y="0px"
	 viewBox="0 0 721 379.9" style="enable-background:new 0 0 721 379.9;" xml:space="preserve">
<style type="text/css">
	.st0{fill:#FFFFFF;fill-opacity:0;}
	.st1{fill:#010202;}
	.st2{fill:#030304;stroke:#030404;stroke-width:1.9;stroke-miterlimit:10;}
	.st3{fill:url(#obram_zolte_00000022531278224314325530000001576859603620604585_);}
	.st4{fill:url(#tlo_wew_00000110459230917006925500000007276486646226006462_);}
	.st5{fill:url(#obram_skosne_00000098179575456786969500000018235513953703947421_);}
	.st6{fill:url(#tlo_zew_00000152254257695046119440000010805980984023211151_);}
	.st7{fill:#020303;}
	.st8{fill:url(#SVGID_1_);}
	.st9{fill:url(#SVGID_00000036936442959776880430000009080979507550907573_);}
	.st10{opacity:8.000000e-02;fill:#020303;enable-background:new    ;}
	.st11{fill:#222222;}
	.st12{fill:#010101;}
</style>
<rect x="0.5" y="0.5" class="st0" width="720" height="378.9"/>
<path class="st1" d="M342.3,225l32.2-68.8h8.3L350.6,225H342.3z"/>
<g id="mln">
	<polygon id="obram_czarne" class="st2" points="222.7,135.3 205.1,152.8 205.1,233.5 222.7,251 303.4,251 320.8,233.5 320.8,152.8 
		303.4,135.3 	"/>
	
		<linearGradient id="obram_zolte_00000075160392206716222330000000613668103796310940_" gradientUnits="userSpaceOnUse" x1="263.035" y1="-118.13" x2="263.035" y2="-9.07" gradientTransform="matrix(1 0 0 -1 0 129.53)">
		<stop  offset="0.16" style="stop-color:#833C15"/>
		<stop  offset="0.18" style="stop-color:#9A5E1A"/>
		<stop  offset="0.22" style="stop-color:#AE7D22"/>
		<stop  offset="0.26" style="stop-color:#C39D24"/>
		<stop  offset="0.3" style="stop-color:#D6B92E"/>
		<stop  offset="0.35" style="stop-color:#E4CF36"/>
		<stop  offset="0.41" style="stop-color:#EFE036"/>
		<stop  offset="0.48" style="stop-color:#F5E952"/>
		<stop  offset="0.58" style="stop-color:#F8EB57"/>
		<stop  offset="0.86" style="stop-color:#F4E956"/>
		<stop  offset="1" style="stop-color:#FCF4F9"/>
	</linearGradient>
	<polygon id="obram_zolte" style="fill:url(#obram_zolte_00000075160392206716222330000000613668103796310940_);" points="
		224.9,138.6 208.5,155.1 208.5,231.2 224.9,247.7 301,247.7 317.5,231.2 317.5,155.1 301,138.6 	"/>
	
		<linearGradient id="tlo_wew_00000062913269106831909740000000335438832634005913_" gradientUnits="userSpaceOnUse" x1="263.04" y1="-3.23" x2="263.04" y2="-169.95" gradientTransform="matrix(1 0 0 -1 0 129.53)">
		<stop  offset="0.26" style="stop-color:#F4E956"/>
		<stop  offset="0.86" style="stop-color:#823B15"/>
	</linearGradient>
	<polygon id="tlo_wew" style="fill:url(#tlo_wew_00000062913269106831909740000000335438832634005913_);" points="226.1,140.2 
		210.1,156.2 210.1,230.1 226.1,246.1 300,246.1 316,230.1 316,156.2 300,140.2 	"/>
	
		<linearGradient id="obram_skosne_00000116923188306836327870000016803076197508774810_" gradientUnits="userSpaceOnUse" x1="263.095" y1="-116.63" x2="263.095" y2="-10.66" gradientTransform="matrix(1 0 0 -1 0 129.53)">
		<stop  offset="0.16" style="stop-color:#823B15"/>
		<stop  offset="0.17" style="stop-color:#8E491F"/>
		<stop  offset="0.18" style="stop-color:#A36D3E"/>
		<stop  offset="0.2" style="stop-color:#B78954"/>
		<stop  offset="0.22" style="stop-color:#C7A468"/>
		<stop  offset="0.24" style="stop-color:#D7BB7A"/>
		<stop  offset="0.26" style="stop-color:#E2CC88"/>
		<stop  offset="0.3" style="stop-color:#EAD891"/>
		<stop  offset="0.34" style="stop-color:#EEDE97"/>
		<stop  offset="0.46" style="stop-color:#EFE097"/>
		<stop  offset="0.7" style="stop-color:#823B15"/>
		<stop  offset="0.73" style="stop-color:#E6D234"/>
		<stop  offset="0.74" style="stop-color:#ECDA49"/>
		<stop  offset="0.75" style="stop-color:#EEDE6D"/>
		<stop  offset="0.77" style="stop-color:#EFE18A"/>
		<stop  offset="0.79" style="stop-color:#F8EBAC"/>
		<stop  offset="0.8" style="stop-color:#F8EDBF"/>
		<stop  offset="0.83" style="stop-color:#FAF0CF"/>
		<stop  offset="0.85" style="stop-color:#FCF2DA"/>
		<stop  offset="0.89" style="stop-color:#FDF4E1"/>
		<stop  offset="0.99" style="stop-color:#FDF5E3"/>
	</linearGradient>
	<path id="obram_skosne" style="fill:url(#obram_skosne_00000116923188306836327870000016803076197508774810_);" d="M308.3,213.6
		c-2.9,0-5.3-2.4-5.3-5.3V178c0-2.9,2.4-5.3,5.3-5.3h7.6v-16.5l-15.9-16h-16.6v7.6c0,2.9-2.4,5.3-5.3,5.3h-30.2
		c-2.9,0-5.3-2.4-5.3-5.3v-7.6h-16.5l-16,16v16.6h7.6c2.9,0,5.3,2.4,5.3,5.3v30.2c0,2.9-2.4,5.3-5.3,5.3h-7.6v16.5l16,16h16.6v-7.6
		c0-2.9,2.4-5.3,5.3-5.3h30.2c2.9,0,5.3,2.4,5.3,5.3v7.6h16.6l16-16v-16.6H308.3z"/>
	
		<linearGradient id="tlo_zew_00000140713259987998425940000015453804464234082441_" gradientUnits="userSpaceOnUse" x1="263.035" y1="-26.2" x2="263.035" y2="-189.73" gradientTransform="matrix(1 0 0 -1 0 129.53)">
		<stop  offset="0.26" style="stop-color:#F4E956"/>
		<stop  offset="0.77" style="stop-color:#823B15"/>
	</linearGradient>
	<path id="tlo_zew" style="fill:url(#tlo_zew_00000140713259987998425940000015453804464234082441_);" d="M308.1,215.4
		c-3.6,0-6.5-3.6-6.5-7.2v-30.1c0-3.6,2.9-7.2,6.5-7.2h6.2v-13.4L298.7,142h-13.4v6.2c0,3.6-3.6,6.5-7.2,6.5h-30.1
		c-3.6,0-7.2-2.9-7.2-6.5V142h-13.6l-15.4,15.4v13.4h6.2c3.6,0,6.5,3.6,6.5,7.2v30.1c0,3.6-2.9,7.2-6.5,7.2h-6.2v13.4l15.4,15.4
		h13.4v-6.2c0-3.6,3.6-6.5,7.2-6.5h29.9c3.6,0,7.2,2.9,7.2,6.5v6.2h13.5l15.5-15.4v-13.4H308.1L308.1,215.4z"/>
</g>
<path class="st7" d="M259.9,214.1v-43.2h-6.5l-0.2-4.9l16.5-1.4v49.5L259.9,214.1L259.9,214.1z"/>
<g id="tagEvent">
	<path class="st7" d="M523,192.6c0,34.6-28.1,62.8-62.8,62.8s-62.8-28.1-62.8-62.8s28.1-62.8,62.8-62.8
		C495,129.8,523,157.9,523,192.6z"/>
	
		<linearGradient id="SVGID_1_" gradientUnits="userSpaceOnUse" x1="460.3472" y1="-121.8459" x2="460.3472" y2="-5.5569" gradientTransform="matrix(1 0 0 -1 0 128.83)">
		<stop  offset="0" style="stop-color:#ED932A"/>
		<stop  offset="1" style="stop-color:#F7EA47"/>
	</linearGradient>
	<path class="st8" d="M518.4,192.6c0,32.1-26,58.1-58.1,58.1s-58.1-26-58.1-58.1s25.9-58.2,58-58.2S518.4,160.4,518.4,192.6z"/>
	
		<linearGradient id="SVGID_00000070120635311847662180000000883216119317072560_" gradientUnits="userSpaceOnUse" x1="407.8234" y1="909.49" x2="512.7739" y2="909.49" gradientTransform="matrix(1 0 0 1 0 -716.91)">
		<stop  offset="9.000000e-02" style="stop-color:#F7EA47"/>
		<stop  offset="0.98" style="stop-color:#F7EA47"/>
	</linearGradient>
	<path style="fill:url(#SVGID_00000070120635311847662180000000883216119317072560_);" d="M512.8,192.6c0,29-23.5,52.5-52.5,52.5
		s-52.4-23.6-52.4-52.5s23.5-52.5,52.5-52.5C489.4,140.1,512.8,163.5,512.8,192.6z"/>
	<path id="darker" class="st10" d="M518.4,192.6c0-1.2,0-2.3-0.1-3.4c-11.7,3.2-31.9,7.4-58,7.4c-26.1,0-45.6-5.2-57.9-9.4
		c-0.2,1.8-0.3,3.6-0.3,5.5c0,32.1,26,58.1,58.1,58.1S518.4,224.7,518.4,192.6L518.4,192.6z"/>
	<rect x="446.9" y="153.8" class="st11" width="26.4" height="42.8"/>
	<polygon class="st12" points="433.7,196.7 486,196.7 461.2,231.5 	"/>
</g>
</svg>
