<?xml version="1.0" encoding="utf-8"?>
<!-- Generator: Adobe Illustrator 27.5.0, SVG Export Plug-In . SVG Version: 6.00 Build 0)  -->
<svg version="1.1" id="Layer" xmlns="http://www.w3.org/2000/svg" xmlns:xlink="http://www.w3.org/1999/xlink" x="0px" y="0px"
	 viewBox="0 0 721 379.9" style="enable-background:new 0 0 721 379.9;" xml:space="preserve">
<style type="text/css">
	.st0{fill:#FFFFFF;fill-opacity:0;}
	.st1{fill:#020303;}
	.st2{fill:url(#SVGID_1_);}
	.st3{fill:url(#SVGID_00000183220322776234172030000002028036443235451787_);}
	.st4{opacity:8.000000e-02;fill:#020303;enable-background:new    ;}
	.st5{fill:#115729;}
	.st6{fill:#18291B;}
	.st7{opacity:0.4;}
	.st8{opacity:0.5;fill:#E03D15;enable-background:new    ;}
	.st9{fill:url(#SVGID_00000141419880789102145190000016072640780801771156_);}
	.st10{fill:#CD141B;}
	.st11{fill:none;stroke:#010202;stroke-width:1.86;stroke-miterlimit:10;}
	.st12{opacity:0.15;fill:url(#SVGID_00000085959005692076383660000001579118831400728752_);enable-background:new    ;}
	.st13{opacity:0.4;fill:url(#SVGID_00000039117210220783487740000004919163311955404215_);}
	.st14{fill:url(#SVGID_00000164503864992500521180000003272048367977255310_);}
	.st15{fill:url(#SVGID_00000034089235284467606410000012515222128331827856_);}
</style>
<rect x="0.5" y="0.5" class="st0" width="720" height="378.9"/>
<g id="animal">
	<rect x="337.7" y="133.3" class="st1" width="115.8" height="115.8"/>
	
		<linearGradient id="SVGID_1_" gradientUnits="userSpaceOnUse" x1="-1105.4066" y1="-1677.9573" x2="-1028.2512" y2="-1600.8119" gradientTransform="matrix(0.7071 -0.7071 -0.7071 -0.7071 -9.278 -1722.3918)">
		<stop  offset="0" style="stop-color:#1F4D23"/>
		<stop  offset="0.43" style="stop-color:#4B6E30"/>
		<stop  offset="1" style="stop-color:#95A946"/>
	</linearGradient>
	<rect x="341" y="136.6" class="st2" width="109.1" height="109.1"/>
	
		<radialGradient id="SVGID_00000003099538607502275950000010321266940324193159_" cx="395.59" cy="-62.37" r="49.26" gradientTransform="matrix(1 0 0 -1 0 128.82)" gradientUnits="userSpaceOnUse">
		<stop  offset="0.25" style="stop-color:#95A946"/>
		<stop  offset="1" style="stop-color:#397931"/>
	</radialGradient>
	
		<rect x="346.3" y="141.9" style="fill:url(#SVGID_00000003099538607502275950000010321266940324193159_);" width="98.5" height="98.5"/>
	<path id="darker" class="st4" d="M450.1,245.7H341v-59.8c0,0,34.4,5.3,54.5,5.3s54.6-5.3,54.6-5.3V245.7z"/>
	<path class="st5" d="M384,163.5c-0.3,0-3,0.4-4.5,2.6c-0.6,0.8-0.9,1.8-1.1,2.8c-0.4,2.1-1.1,5.8,0.4,10.3c0.8,2.1,1.6,4.7,4,6.5
		c0.8,0.6,2.2,1.6,4.2,1.4c2.1-0.2,3.4-1.8,3.9-2.3c1.9-2.1,1.9-4.6,2-7.3c0-1.3,0-5.3-2-9.5c-1.4-2.8-2.6-3.5-3.2-3.8
		C386.1,163.2,384.5,163.4,384,163.5L384,163.5L384,163.5z"/>
	<path class="st5" d="M409.7,161.9c-0.3-0.1-2.9-0.6-5.1,0.8c-0.8,0.6-1.5,1.3-2,2.2c-1.1,1.8-3.1,4.9-3.2,9.8
		c-0.1,2.3-0.2,5,1.5,7.5c0.5,0.8,1.6,2.2,3.4,2.7c2,0.6,3.9-0.5,4.5-0.8c2.4-1.4,3.4-3.7,4.5-6.2c0.5-1.2,1.9-4.9,1.4-9.6
		c-0.3-3.1-1.2-4.2-1.7-4.6C411.6,162.4,410.1,162.1,409.7,161.9L409.7,161.9L409.7,161.9z"/>
	<path class="st5" d="M366.7,178.3c-0.3,0.1-2.9,0.6-4.3,3c-0.5,0.9-0.8,1.8-0.8,2.9c-0.2,2.1-0.5,5.8,1.3,10.2
		c0.9,2.1,2,4.6,4.6,6.1c0.8,0.5,2.4,1.3,4.3,0.9c2.1-0.4,3.2-2.1,3.7-2.7c1.6-2.3,1.5-4.8,1.3-7.5c-0.1-1.3-0.5-5.2-3-9.2
		c-1.6-2.6-2.9-3.2-3.5-3.5C368.6,178,367.2,178.2,366.7,178.3L366.7,178.3L366.7,178.3z"/>
	<path class="st5" d="M425.2,176.1c-0.3-0.1-2.9-0.6-5.1,0.9c-0.8,0.6-1.4,1.4-2,2.3c-1,1.9-3,5-3,9.9c0,2.3-0.1,5,1.7,7.4
		c0.5,0.8,1.7,2.2,3.5,2.6c2,0.5,3.8-0.6,4.5-0.9c2.4-1.4,3.3-3.8,4.3-6.3c0.5-1.2,1.8-4.9,1.1-9.6c-0.4-3.1-1.3-4.2-1.8-4.6
		C427.1,176.6,425.6,176.2,425.2,176.1L425.2,176.1L425.2,176.1z"/>
	<path class="st6" d="M424.5,179.1c-0.2,0-2.1-0.5-3.8,0.8c-0.7,0.5-1,1-1.5,1.7c-0.8,1.4-2.1,3.7-2.2,7.3c0,1.7-0.1,3.7,1.3,5.6
		c0.4,0.6,1.2,1.7,2.6,1.9c1.6,0.4,2.9-0.5,3.3-0.6c1.8-1.1,2.4-2.8,3.2-4.7c0.4-0.9,1.3-3.7,0.8-7.1c-0.3-2.2-1-3.1-1.3-3.4
		C426,179.4,424.9,179.1,424.5,179.1L424.5,179.1L424.5,179.1z"/>
	<path class="st6" d="M408.9,165c-0.2-0.1-2.1-0.5-3.8,0.6c-0.7,0.5-1,0.9-1.5,1.7c-0.8,1.3-2.2,3.6-2.4,7.2
		c-0.1,1.7-0.2,3.7,1.1,5.6c0.4,0.6,1.1,1.7,2.5,2.1c1.6,0.4,2.9-0.4,3.3-0.6c1.8-1,2.5-2.7,3.2-4.6c0.4-0.9,1.4-3.6,1-7.1
		c-0.3-2.2-0.9-3.1-1.2-3.4C410.3,165.3,409.3,165.1,408.9,165L408.9,165L408.9,165z"/>
	<path class="st6" d="M384.4,166.5c-0.2,0-2.1,0.3-3.3,1.9c-0.5,0.6-0.6,1.3-0.8,2.1c-0.3,1.5-0.8,4.2,0.3,7.6
		c0.5,1.6,1.1,3.5,3,4.8c0.5,0.4,1.7,1.1,3.1,1c1.6-0.2,2.5-1.3,2.9-1.7c1.3-1.6,1.4-3.4,1.5-5.4c0-0.9,0-3.9-1.6-7
		c-1-2.1-2-2.6-2.3-2.8C385.9,166.4,384.8,166.5,384.4,166.5L384.4,166.5L384.4,166.5z"/>
	<path class="st6" d="M367.3,181c-0.2,0-2.2,0.5-3.2,2.3c-0.5,0.8-0.5,1.4-0.6,2.2c-0.2,1.6-0.5,4.5,1,7.8c0.6,1.6,1.5,3.5,3.5,4.6
		c0.6,0.4,1.9,1,3.2,0.8c1.6-0.3,2.5-1.6,2.8-2.1c1.2-1.8,1.1-3.7,1-5.8c-0.1-1-0.4-4-2.2-7.1c-1.2-2.1-2.2-2.5-2.7-2.7
		C368.8,180.7,367.6,181,367.3,181L367.3,181L367.3,181z"/>
	<path class="st5" d="M396.4,185.9c-1.3,0.1-2.7,0.1-4.3,0.9c-1.8,0.9-2.8,2.3-3.7,3.5c-0.8,1.1-0.8,1.2-2,3.2
		c-1.1,1.7-1.7,2.7-2.7,3.8c-1.2,1.4-2.4,2.2-4.5,3.9c-2.3,1.8-2.5,1.7-3.2,2.4c-1.6,1.9-2,3.9-2.2,5.3c-0.2,1.3-0.6,3.7,0.4,6.5
		c0.5,1.2,1.3,3.5,3.4,4.6c0.8,0.4,1.7,0.5,3.7,0.4c3.4-0.2,5.8-0.8,7.8-1.3c2.4-0.6,4.9-1.1,8.1-1.2c3.8-0.1,7.2,0.6,8.9,0.8
		c2,0.4,3.5,0.8,6.4,1.1c2.4,0.3,3.6,0.2,5-0.3c0.8-0.3,2.3-0.8,3.4-2.1c1.2-1.5,1.3-3.1,1.3-4.7c0.1-1.1,0.1-3.8-1.5-7
		c-0.7-1.4-1.2-2.1-3.3-4.6c-5.8-7.1-6-8-8.3-9.9c-1.4-1.2-2.8-2.4-4.9-3.4C403.1,187.1,400.2,185.7,396.4,185.9L396.4,185.9
		L396.4,185.9z"/>
	<path class="st6" d="M396.7,188.4c-1.1,0.1-2.3,0.1-3.7,0.8c-1.5,0.8-2.4,2.1-3.2,3.1c-0.8,0.9-0.6,1-1.7,2.8
		c-0.9,1.5-1.5,2.3-2.3,3.2c-1,1.2-2,1.9-3.9,3.3c-2,1.6-2.1,1.4-2.8,2.1c-1.4,1.6-2.6,4-2.9,5.1c-0.2,1.1-0.5,3.2,0.3,5.6
		c0.4,1.1,1.1,3.1,3,3.9c0.8,0.4,2.4-0.1,4.1-0.3c3-0.2,5-0.8,6.8-1.1c2.1-0.5,4.3-0.9,7-1c3.2-0.1,6.1,0.5,7.7,0.8
		c1.8,0.4,3.1,0.8,5.5,0.9c2,0.2,4.5,1,5.7,0.6c0.8-0.2,2-0.8,3-1.9c1-1.2,0.8-3.8,0.8-5.3c0.1-0.9-0.8-3-2.3-5.7
		c-0.8-1.3-1.1-1.8-2.9-4c-4.9-6.1-5.2-6.9-7.2-8.5c-1.2-1-2.4-2.1-4.3-3C402.4,189.4,399.9,188.2,396.7,188.4L396.7,188.4
		L396.7,188.4z"/>
</g>
<g id="arrow" class="st7">
	<path class="st8" d="M311.9,191.5l-33.1-15.3l4,8h-37.3c0,0-1.1,3.6-1.1,7c0,3.4,1.1,6.3,1.1,6.3h38l-4.7,9.4L311.9,191.5
		L311.9,191.5L311.9,191.5z"/>
	
		<linearGradient id="SVGID_00000047761257129539726650000009796461163113769132_" gradientUnits="userSpaceOnUse" x1="277.1702" y1="919.887" x2="277.1702" y2="894.971" gradientTransform="matrix(1 0 0 1 0 -715.91)">
		<stop  offset="0" style="stop-color:#542913"/>
		<stop  offset="0.45" style="stop-color:#542913;stop-opacity:0.7"/>
		<stop  offset="0.58" style="stop-color:#E03D15;stop-opacity:0.5"/>
		<stop  offset="1" style="stop-color:#E03D15;stop-opacity:0.5"/>
	</linearGradient>
	<path style="fill:url(#SVGID_00000047761257129539726650000009796461163113769132_);" d="M285.7,196.1h-39.2
		c-0.3-1-0.7-2.9-0.7-4.9c0-2.2,0.5-4.4,0.8-5.7H285l-3.2-6.4l26.9,12.5L281.7,204L285.7,196.1L285.7,196.1L285.7,196.1L285.7,196.1
		z"/>
	<path class="st10" d="M288.6,194.3h-40.8c-0.2-0.9-0.3-2-0.3-3.1c0-1.4,0.2-2.8,0.4-3.9h40l-2.2-4.5l18.8,8.7l-18.8,8.7
		L288.6,194.3L288.6,194.3L288.6,194.3z"/>
	<path class="st11" d="M285.7,196.1h-39.2c-0.3-1-0.7-2.9-0.7-4.9c0-2.2,0.5-4.4,0.8-5.7H285l-3.2-6.4l26.9,12.5L281.7,204
		L285.7,196.1L285.7,196.1L285.7,196.1L285.7,196.1z"/>
</g>
<linearGradient id="SVGID_00000091010383185305087990000001188745823461383325_" gradientUnits="userSpaceOnUse" x1="188.8053" y1="-85.2686" x2="188.8053" y2="-7.9114" gradientTransform="matrix(1 0 0 -1 0 145.36)">
	<stop  offset="0" style="stop-color:#FFDC12"/>
	<stop  offset="0" style="stop-color:#FFDB13"/>
	<stop  offset="5.000000e-02" style="stop-color:#F9BB1B"/>
	<stop  offset="0.1" style="stop-color:#F59B18"/>
	<stop  offset="0.16" style="stop-color:#EF7B19"/>
	<stop  offset="0.22" style="stop-color:#E86112"/>
	<stop  offset="0.27" style="stop-color:#E84A1D"/>
	<stop  offset="0.34" style="stop-color:#E5391E"/>
	<stop  offset="0.41" style="stop-color:#E63121"/>
	<stop  offset="0.5" style="stop-color:#E62E21"/>
	<stop  offset="0.59" style="stop-color:#E63121"/>
	<stop  offset="0.66" style="stop-color:#E5391E"/>
	<stop  offset="0.73" style="stop-color:#E84A1D"/>
	<stop  offset="0.78" style="stop-color:#E86112"/>
	<stop  offset="0.84" style="stop-color:#EF7B19"/>
	<stop  offset="0.9" style="stop-color:#F59B18"/>
	<stop  offset="0.95" style="stop-color:#F9BB1B"/>
	<stop  offset="1" style="stop-color:#FFDB13"/>
	<stop  offset="1" style="stop-color:#FFDC12"/>
</linearGradient>
<rect x="150.1" y="153.3" style="opacity:0.15;fill:url(#SVGID_00000091010383185305087990000001188745823461383325_);enable-background:new    ;" width="77.4" height="77.4"/>
<linearGradient id="SVGID_00000161629751346341536020000005583453645367445404_" gradientUnits="userSpaceOnUse" x1="188.2956" y1="-83.2359" x2="188.2956" y2="-8.9248" gradientTransform="matrix(1 0 0 -1 0 145.36)">
	<stop  offset="0" style="stop-color:#FFDC12"/>
	<stop  offset="0" style="stop-color:#FFDB13"/>
	<stop  offset="5.000000e-02" style="stop-color:#F9BB1B"/>
	<stop  offset="0.1" style="stop-color:#F59B18"/>
	<stop  offset="0.16" style="stop-color:#EF7B19"/>
	<stop  offset="0.22" style="stop-color:#E86112"/>
	<stop  offset="0.27" style="stop-color:#E84A1D"/>
	<stop  offset="0.34" style="stop-color:#E5391E"/>
	<stop  offset="0.41" style="stop-color:#E63121"/>
	<stop  offset="0.5" style="stop-color:#E62E21"/>
	<stop  offset="0.59" style="stop-color:#E63121"/>
	<stop  offset="0.66" style="stop-color:#E5391E"/>
	<stop  offset="0.73" style="stop-color:#E84A1D"/>
	<stop  offset="0.78" style="stop-color:#E86112"/>
	<stop  offset="0.84" style="stop-color:#EF7B19"/>
	<stop  offset="0.9" style="stop-color:#F59B18"/>
	<stop  offset="0.95" style="stop-color:#F9BB1B"/>
	<stop  offset="1" style="stop-color:#FFDB13"/>
	<stop  offset="1" style="stop-color:#FFDC12"/>
</linearGradient>
<rect x="151.1" y="154.3" style="opacity:0.4;fill:url(#SVGID_00000161629751346341536020000005583453645367445404_);" width="74.3" height="74.3"/>
<g id="animal-2" class="st7">
	<rect x="154.1" y="157.2" class="st1" width="67.4" height="67.4"/>
	
		<linearGradient id="SVGID_00000138564648792919500070000008513007301401991584_" gradientUnits="userSpaceOnUse" x1="-1236.0466" y1="-1514.7755" x2="-1191.1096" y2="-1469.8444" gradientTransform="matrix(0.7071 -0.7071 -0.7071 -0.7071 -9.278 -1722.3918)">
		<stop  offset="0" style="stop-color:#1F4D23"/>
		<stop  offset="0.43" style="stop-color:#4B6E30"/>
		<stop  offset="1" style="stop-color:#95A946"/>
	</linearGradient>
	
		<rect x="156" y="159.2" style="fill:url(#SVGID_00000138564648792919500070000008513007301401991584_);" width="63.5" height="63.5"/>
	
		<radialGradient id="SVGID_00000082326584084302677400000000345786894022942393_" cx="187.821" cy="43.5885" r="28.6901" gradientTransform="matrix(1 0 0 -1 0 382)" gradientUnits="userSpaceOnUse">
		<stop  offset="0.25" style="stop-color:#95A946"/>
		<stop  offset="1" style="stop-color:#397931"/>
	</radialGradient>
	
		<rect x="159.1" y="162.3" style="fill:url(#SVGID_00000082326584084302677400000000345786894022942393_);" width="57.4" height="57.4"/>
	<path id="darker-2" class="st4" d="M219.6,222.7H156v-34.8c0,0,20,3.1,31.7,3.1s31.8-3.1,31.8-3.1V222.7z"/>
	<path class="st5" d="M181.1,174.8c-0.2,0-1.7,0.2-2.7,1.5c-0.4,0.5-0.5,1-0.6,1.6c-0.2,1.2-0.6,3.4,0.2,6c0.4,1.2,0.9,2.8,2.3,3.8
		c0.4,0.3,1.3,0.9,2.4,0.8c1.2-0.1,2-1,2.3-1.4c1.1-1.2,1.1-2.7,1.1-4.3c0-0.8,0-3.1-1.2-5.5c-0.8-1.6-1.5-2.1-1.8-2.2
		C182.3,174.6,181.4,174.8,181.1,174.8L181.1,174.8L181.1,174.8z"/>
	<path class="st5" d="M196,173.9c-0.2-0.1-1.7-0.4-3,0.5c-0.5,0.3-0.9,0.8-1.2,1.3c-0.6,1-1.8,2.9-1.9,5.7c-0.1,1.4-0.1,2.9,0.9,4.4
		c0.3,0.4,0.9,1.3,2,1.6c1.2,0.3,2.3-0.3,2.6-0.5c1.4-0.8,2-2.2,2.6-3.6c0.3-0.7,1.1-2.9,0.8-5.6c-0.2-1.8-0.7-2.4-1-2.7
		C197.1,174.2,196.3,174,196,173.9L196,173.9L196,173.9z"/>
	<path class="st5" d="M171,183.5c-0.2,0.1-1.7,0.4-2.5,1.7c-0.3,0.5-0.4,1-0.5,1.7c-0.1,1.2-0.3,3.4,0.8,6c0.5,1.2,1.1,2.7,2.7,3.6
		c0.5,0.3,1.4,0.8,2.5,0.5c1.2-0.2,1.9-1.2,2.2-1.6c0.9-1.4,0.9-2.8,0.8-4.4c-0.1-0.8-0.3-3-1.7-5.4c-0.9-1.5-1.7-1.9-2.1-2.1
		C172.1,183.3,171.3,183.4,171,183.5L171,183.5L171,183.5z"/>
	<path class="st5" d="M205,182.2c-0.2-0.1-1.7-0.4-3,0.5c-0.5,0.4-0.8,0.8-1.1,1.4c-0.6,1.1-1.7,2.9-1.7,5.7c0,1.4-0.1,2.9,1,4.3
		c0.3,0.4,1,1.3,2.1,1.5c1.2,0.3,2.2-0.3,2.6-0.5c1.4-0.8,1.9-2.2,2.5-3.7c0.3-0.7,1-2.9,0.6-5.6c-0.2-1.8-0.8-2.4-1-2.7
		C206.2,182.4,205.3,182.2,205,182.2L205,182.2L205,182.2z"/>
	<path class="st6" d="M204.7,183.9c-0.1,0-1.2-0.3-2.2,0.4c-0.4,0.3-0.6,0.6-0.9,1c-0.4,0.8-1.2,2.2-1.3,4.3c0,1-0.1,2.2,0.8,3.2
		c0.2,0.3,0.7,1,1.5,1.1c0.9,0.2,1.7-0.3,1.9-0.4c1-0.6,1.4-1.6,1.8-2.8c0.2-0.5,0.8-2.2,0.5-4.2c-0.2-1.3-0.6-1.8-0.8-2
		C205.5,184.1,204.9,183.9,204.7,183.9L204.7,183.9L204.7,183.9z"/>
	<path class="st6" d="M195.6,175.7c-0.1-0.1-1.2-0.3-2.2,0.3c-0.4,0.3-0.6,0.5-0.9,1c-0.5,0.8-1.3,2.1-1.4,4.2
		c-0.1,1-0.1,2.2,0.6,3.2c0.2,0.3,0.6,1,1.5,1.2c0.9,0.2,1.7-0.2,1.9-0.3c1-0.6,1.5-1.6,1.9-2.7c0.2-0.5,0.8-2.1,0.6-4.1
		c-0.2-1.3-0.5-1.8-0.7-2C196.4,175.9,195.8,175.7,195.6,175.7L195.6,175.7L195.6,175.7z"/>
	<path class="st6" d="M181.3,176.6c-0.1,0-1.2,0.2-1.9,1.1c-0.3,0.4-0.4,0.8-0.5,1.2c-0.2,0.9-0.5,2.4,0.2,4.4
		c0.3,0.9,0.6,2.1,1.7,2.8c0.3,0.2,1,0.6,1.8,0.6c0.9-0.1,1.5-0.8,1.7-1c0.8-0.9,0.8-2,0.9-3.1c0-0.5,0-2.3-0.9-4.1
		c-0.6-1.2-1.1-1.5-1.4-1.6C182.2,176.5,181.5,176.6,181.3,176.6L181.3,176.6L181.3,176.6z"/>
	<path class="st6" d="M171.4,185c-0.1,0-1.3,0.3-1.9,1.4c-0.3,0.4-0.3,0.8-0.4,1.3c-0.1,0.9-0.3,2.6,0.6,4.5
		c0.4,0.9,0.9,2.1,2.1,2.7c0.4,0.2,1.1,0.6,1.9,0.4c0.9-0.2,1.5-0.9,1.6-1.2c0.7-1,0.6-2.2,0.6-3.4c-0.1-0.6-0.2-2.3-1.3-4.1
		c-0.7-1.2-1.3-1.5-1.6-1.6C172.2,184.9,171.5,185,171.4,185L171.4,185L171.4,185z"/>
	<path class="st5" d="M188.3,187.9c-0.8,0.1-1.6,0.1-2.5,0.5c-1,0.5-1.6,1.4-2.2,2.1c-0.5,0.6-0.4,0.7-1.1,1.8c-0.6,1-1,1.6-1.6,2.2
		c-0.7,0.8-1.4,1.3-2.7,2.3c-1.4,1-1.5,1-1.8,1.4c-0.9,1.1-1.1,2.3-1.3,3.1c-0.1,0.8-0.4,2.2,0.2,3.8c0.3,0.7,0.8,2.1,2,2.7
		c0.5,0.2,1,0.3,2.2,0.2c2-0.1,3.4-0.5,4.5-0.8c1.4-0.3,2.9-0.6,4.7-0.7c2.2-0.1,4.2,0.3,5.2,0.5c1.2,0.2,2.1,0.5,3.7,0.6
		c1.4,0.2,2.1,0.1,2.9-0.2c0.5-0.2,1.4-0.4,2-1.2c0.7-0.9,0.8-1.8,0.8-2.8c0.1-0.6,0.1-2.2-0.9-4.1c-0.4-0.8-0.7-1.2-1.9-2.7
		c-3.4-4.2-3.5-4.7-4.9-5.8c-0.8-0.7-1.6-1.4-2.9-2C192.2,188.6,190.5,187.8,188.3,187.9L188.3,187.9L188.3,187.9z"/>
	<path class="st6" d="M188.4,189.3c-0.6,0.1-1.4,0.1-2.2,0.5c-0.9,0.5-1.4,1.2-1.8,1.8c-0.4,0.5-0.4,0.6-1,1.6
		c-0.5,0.9-0.9,1.4-1.4,1.9c-0.6,0.7-1.2,1.1-2.3,1.9c-1.2,0.9-1.2,0.8-1.6,1.2c-0.8,0.9-1.5,2.3-1.7,3c-0.1,0.6-0.3,1.8,0.2,3.2
		c0.2,0.6,0.6,1.8,1.7,2.3c0.4,0.2,1.4-0.1,2.4-0.2c1.7-0.1,2.9-0.4,3.9-0.6c1.2-0.3,2.5-0.5,4.1-0.6c1.9-0.1,3.6,0.3,4.5,0.4
		c1,0.2,1.8,0.4,3.2,0.5c1.2,0.1,2.7,0.6,3.3,0.4c0.4-0.1,1.1-0.4,1.7-1.1c0.6-0.7,0.4-2.2,0.5-3.1c0.1-0.5-0.4-1.7-1.4-3.3
		c-0.4-0.8-0.6-1-1.7-2.3c-2.9-3.6-3-4-4.2-5c-0.7-0.6-1.4-1.2-2.5-1.7C191.8,189.9,190.3,189.2,188.4,189.3L188.4,189.3
		L188.4,189.3z"/>
</g>
</svg>
