<?xml version="1.0" encoding="utf-8"?>
<!-- Generator: Adobe Illustrator 27.5.0, SVG Export Plug-In . SVG Version: 6.00 Build 0)  -->
<svg version="1.1" id="Layer" xmlns="http://www.w3.org/2000/svg" xmlns:xlink="http://www.w3.org/1999/xlink" x="0px" y="0px"
	 viewBox="0 0 721 379.9" style="enable-background:new 0 0 721 379.9;" xml:space="preserve">
<style type="text/css">
	.st0{fill:#FFFFFF;fill-opacity:0;}
	.st1{opacity:0.4;}
</style>
<rect x="0.5" y="0.5" class="st0" width="720" height="378.9"/>
<g class="st1">
	<path d="M22.1,159.7v-28.9H32c2.9,0,4.9,0.3,6.1,0.9s2.1,1.5,2.7,2.6s0.9,2.5,0.9,4.2c0,3.2-1,5.7-3,7.4s-4.8,2.5-8.2,2.5H28v11.3
		H22.1L22.1,159.7z M28,144.4h1.1c2.2,0,3.8-0.5,4.9-1.6s1.6-2.3,1.6-3.7c0-0.8-0.2-1.5-0.5-2.2s-0.8-1.2-1.5-1.6s-1.8-0.6-3.3-0.6
		H28L28,144.4L28,144.4z"/>
	<path d="M46.6,159.7v-28.9h6v24.8h12.9v4.1L46.6,159.7L46.6,159.7z"/>
	<path d="M66.7,159.7L78,130.8h6l11.2,28.9h-6.2l-3-7.7h-12l-3,7.7H66.7L66.7,159.7z M75.6,148.1h9l-4.5-11.5L75.6,148.1z"/>
	<path d="M122.6,158.6c-1.3,0.6-2.4,0.9-3.3,1.1s-2,0.4-3.2,0.5s-2.4,0.2-3.5,0.2c-5.1,0-8.8-1.4-11.3-4.3s-3.7-6.5-3.7-10.9
		s1.2-8.1,3.7-10.9s6.4-4.3,11.7-4.3c3.1,0,6.3,0.4,9.4,1.1v4.7c-1.5-0.5-2.7-0.9-3.7-1.1s-1.8-0.4-2.7-0.5
		c-0.8-0.1-1.7-0.2-2.6-0.2c-3.3,0-5.7,1.1-7.2,3.2c-1.5,2.1-2.2,4.8-2.2,7.9c0,3.3,0.8,6,2.6,8s4.2,3.1,7.6,3.1
		c2.8,0,5.6-0.7,8.5-2.1V158.6L122.6,158.6z"/>
	<path d="M127.8,159.7v-28.9h18.5v4h-12.5v8.1h10.3v4h-10.3v8.8h13.4v4.1L127.8,159.7L127.8,159.7z"/>
	<path d="M171.5,159.7v-12.1l-9.7-16.8h6.6l7.1,12.2l7.4-12.2h4.8l-10.1,16.8v12.1L171.5,159.7L171.5,159.7z"/>
	<path d="M205,160.4c-3,0-5.6-0.6-7.9-1.9s-3.9-3-5.1-5.4s-1.7-5-1.7-7.9s0.6-5.6,1.7-7.9s2.9-4.1,5.1-5.4s4.9-1.9,7.8-1.9
		s5.6,0.6,7.8,1.9c2.2,1.2,3.9,3,5.1,5.4c1.2,2.3,1.7,5,1.7,7.9s-0.6,5.6-1.7,7.9s-2.9,4.1-5.1,5.4C210.6,159.8,208,160.4,205,160.4
		z M205,156.4c2.8,0,4.9-1.1,6.2-3.4s2-4.9,2-7.8s-0.7-5.6-2.1-7.8s-3.4-3.4-6.2-3.4s-4.9,1.1-6.2,3.4s-2.1,4.9-2.1,7.8
		s0.7,5.5,2,7.8S202.2,156.4,205,156.4L205,156.4z"/>
	<path d="M224.8,130.8h6v17.7c0,3.2,0.5,5.3,1.6,6.4c1.1,1,2.5,1.6,4.2,1.6s3.1-0.5,4.1-1.5c1-1,1.5-3,1.5-6v-18.2h5.2v17.8
		c0,3.4-0.4,5.8-1.3,7.2s-2.1,2.6-3.6,3.4c-1.6,0.8-3.6,1.2-6,1.2s-4.4-0.4-6.2-1.2s-3.1-1.9-4.1-3.5c-1-1.5-1.5-4-1.5-7.3
		L224.8,130.8L224.8,130.8z"/>
	<path d="M254.5,159.7v-28.9h10.8c2.2,0,3.9,0.3,5.1,0.8s2.1,1.4,2.7,2.5c0.7,1.1,1,2.4,1,3.8c0,1.7-0.5,3.3-1.5,4.8
		s-2.4,2.6-4.1,3.4l9.5,13.5h-7.3l-7.2-11.8h-3.3v11.8H254.5z M260.1,143.9h1.4c2.5,0,4.2-0.5,5.1-1.6s1.4-2.3,1.4-3.7
		c0-1.2-0.4-2.1-1.2-2.8c-0.8-0.7-2.3-1-4.7-1h-2.1L260.1,143.9L260.1,143.9z"/>
	<path d="M294.9,159.7v-28.9h8l7,20.3l7.2-20.3h7v28.9h-5.5v-21.8l-7.1,19.9h-4.8l-6.9-20.2v22.1L294.9,159.7L294.9,159.7z"/>
	<path d="M328,159.7l11.3-28.9h6l11.2,28.9h-6.2l-3-7.7h-12l-3,7.7H328L328,159.7z M336.9,148.1h9l-4.5-11.5L336.9,148.1z"/>
	<path d="M360.6,159.7v-28.9h10.8c2.2,0,3.9,0.3,5.1,0.8s2.1,1.4,2.7,2.5s1,2.4,1,3.8c0,1.7-0.5,3.3-1.5,4.8s-2.4,2.6-4.1,3.4
		l9.5,13.5h-7.3l-7.2-11.8h-3.3v11.8H360.6z M366.3,143.9h1.4c2.5,0,4.2-0.5,5.1-1.6c1-1.1,1.4-2.3,1.4-3.7c0-1.2-0.4-2.1-1.2-2.8
		s-2.3-1-4.7-1h-2.1L366.3,143.9L366.3,143.9z"/>
	<path d="M388.2,159.7v-28.9h5.8v14l10.7-14h4.9l-9.7,12.9l12.1,16h-7.5L394,145.4v14.2L388.2,159.7L388.2,159.7z"/>
	<path d="M416.6,159.7v-28.9h18.5v4h-12.5v8.1h10.3v4h-10.3v8.8H436v4.1L416.6,159.7L416.6,159.7z"/>
	<path d="M440.6,159.7v-28.9h10.8c2.2,0,3.9,0.3,5.1,0.8s2.1,1.4,2.7,2.5s1,2.4,1,3.8c0,1.7-0.5,3.3-1.5,4.8s-2.4,2.6-4.1,3.4
		l9.5,13.5h-7.3l-7.2-11.8h-3.3v11.8H440.6z M446.3,143.9h1.4c2.5,0,4.2-0.5,5.1-1.6c1-1.1,1.4-2.3,1.4-3.7c0-1.2-0.4-2.1-1.2-2.8
		s-2.3-1-4.7-1h-2.1L446.3,143.9L446.3,143.9z"/>
	<path d="M493.9,160.4c-3,0-5.6-0.6-7.9-1.9s-3.9-3-5.1-5.4s-1.7-5-1.7-7.9s0.6-5.6,1.7-7.9s2.9-4.1,5.1-5.4s4.9-1.9,7.8-1.9
		s5.6,0.6,7.8,1.9s3.9,3,5.1,5.4s1.7,5,1.7,7.9s-0.6,5.6-1.7,7.9s-2.9,4.1-5.1,5.4S496.9,160.4,493.9,160.4z M493.9,156.4
		c2.8,0,4.9-1.1,6.2-3.4s2-4.9,2-7.8s-0.7-5.6-2-7.8s-3.4-3.4-6.2-3.4s-4.9,1.1-6.2,3.4s-2,4.9-2,7.8s0.7,5.5,2,7.8
		S491.1,156.4,493.9,156.4L493.9,156.4z"/>
	<path d="M513.9,159.7v-28.9h5.3l13.4,19.8v-19.8h4.8v28.9H532l-13.3-19.8v19.8H513.9L513.9,159.7z"/>
	<path d="M554.3,159.7l11.3-28.9h6l11.2,28.9h-6.2l-3-7.7h-12l-3,7.7H554.3L554.3,159.7z M563.2,148.1h9l-4.5-11.5L563.2,148.1z"/>
	<path d="M599.7,159.7v-28.9h5.3l13.4,19.8v-19.8h4.8v28.9h-5.4l-13.3-19.8v19.8H599.7L599.7,159.7z"/>
	<path d="M643.3,160.4c-3,0-5.6-0.6-7.8-1.9s-3.9-3-5.1-5.4s-1.7-5-1.7-7.9s0.6-5.6,1.7-7.9s2.9-4.1,5.1-5.4s4.8-1.9,7.8-1.9
		s5.6,0.6,7.8,1.9s3.9,3,5.1,5.4s1.7,5,1.7,7.9s-0.6,5.6-1.7,7.9s-2.8,4.1-5.1,5.4S646.3,160.4,643.3,160.4L643.3,160.4z
		 M643.3,156.4c2.8,0,4.9-1.1,6.2-3.4s2-4.9,2-7.8s-0.7-5.6-2-7.8s-3.4-3.4-6.2-3.4s-4.9,1.1-6.2,3.4s-2,4.9-2,7.8s0.7,5.5,2,7.8
		S640.5,156.4,643.3,156.4L643.3,156.4z"/>
	<path d="M663.3,159.7v-28.9h5.3l13.4,19.8v-19.8h4.8v28.9h-5.4l-13.3-19.8v19.8H663.3L663.3,159.7z"/>
	<path d="M692.2,149.2v-3.6h8.7v3.6H692.2z"/>
	<path d="M24.7,207.7v-28.9h10.8c2.2,0,3.9,0.3,5.1,0.8s2.1,1.4,2.7,2.5c0.7,1.1,1,2.4,1,3.8c0,1.7-0.5,3.3-1.5,4.8
		c-1,1.5-2.4,2.6-4.1,3.4l9.5,13.5h-7.3l-7.2-11.8h-3.3v11.8L24.7,207.7L24.7,207.7z M30.4,191.9h1.4c2.5,0,4.2-0.5,5.1-1.6
		c1-1.1,1.4-2.3,1.4-3.7c0-1.2-0.4-2.1-1.2-2.8c-0.8-0.7-2.3-1-4.7-1h-2.1L30.4,191.9L30.4,191.9z"/>
	<path d="M52.3,207.7v-28.9h18.5v4H58.4v8.1h10.3v4H58.4v8.8h13.4v4.1L52.3,207.7L52.3,207.7z"/>
	<path d="M74.7,207.4v-5c2.3,0.9,3.9,1.5,5.1,1.7s2.1,0.3,3.1,0.3c1.7,0,2.9-0.4,3.8-1.1c0.8-0.8,1.2-1.7,1.2-2.7
		c0-0.8-0.2-1.5-0.7-2.2c-0.5-0.6-1.6-1.5-3.4-2.5l-1.9-1.1c-2.8-1.6-4.7-3-5.7-4.3c-1-1.3-1.5-2.8-1.5-4.6c0-2.2,0.8-4,2.5-5.6
		c1.7-1.6,4.1-2.3,7.2-2.3c2.3,0,4.9,0.3,7.9,1v4.6c-3-1.1-5.4-1.7-7.1-1.7c-1.4,0-2.6,0.3-3.3,0.9s-1.1,1.4-1.1,2.3
		c0,0.7,0.2,1.3,0.7,1.9c0.4,0.6,1.6,1.4,3.4,2.4l2.1,1.1c3.2,1.8,5.2,3.3,6.1,4.6c0.9,1.3,1.3,2.8,1.3,4.5c0,2.4-0.9,4.4-2.7,6.1
		s-4.7,2.5-8.6,2.5C80.6,208.4,77.9,208.1,74.7,207.4L74.7,207.4z"/>
	<path d="M99.2,207.7v-28.9h18.5v4h-12.5v8.1h10.3v4h-10.3v8.8h13.4v4.1L99.2,207.7L99.2,207.7z"/>
	<path d="M123.2,207.7v-28.9h10.8c2.2,0,3.9,0.3,5.1,0.8s2.1,1.4,2.7,2.5s1,2.4,1,3.8c0,1.7-0.5,3.3-1.5,4.8c-1,1.5-2.4,2.6-4.1,3.4
		l9.5,13.5h-7.3l-7.2-11.8h-3.3v11.8L123.2,207.7L123.2,207.7z M128.9,191.9h1.4c2.5,0,4.2-0.5,5.1-1.6c0.9-1.1,1.4-2.3,1.4-3.7
		c0-1.2-0.4-2.1-1.2-2.8c-0.8-0.7-2.3-1-4.7-1h-2.1L128.9,191.9L128.9,191.9z"/>
	<path d="M158.4,207.7l-10.7-28.9h6.4l8.3,22.4l8-22.4h4.3l-10.4,28.9H158.4L158.4,207.7z"/>
	<path d="M178.8,207.7v-28.9h18.5v4h-12.5v8.1h10.3v4h-10.3v8.8h13.4v4.1L178.8,207.7L178.8,207.7z"/>
	<path d="M202.8,207.7v-28.9h12.4c3.3,0,5.9,0.5,7.8,1.6s3.3,2.6,4.4,4.7c1.1,2.1,1.6,4.6,1.6,7.5s-0.5,5.4-1.6,7.7
		c-1.1,2.3-2.6,4.1-4.6,5.4c-2,1.3-4.8,2-8.2,2L202.8,207.7L202.8,207.7z M208.8,203.6h4.5c2.3,0,4.1-0.4,5.4-1.1s2.2-2,2.9-3.7
		s1.1-3.7,1.1-5.8s-0.4-3.9-1.1-5.4s-1.7-2.8-2.9-3.6s-3.3-1.2-6.3-1.2h-3.6V203.6L208.8,203.6z"/>
	<path d="M244.1,207.7l11.3-28.9h6l11.2,28.9h-6.2l-3-7.7h-12l-3,7.7H244.1L244.1,207.7z M253,196.1h9l-4.5-11.5L253,196.1
		L253,196.1z"/>
	<path d="M276.8,207.7v-28.9h10.8c2.2,0,3.9,0.3,5.1,0.8s2.1,1.4,2.7,2.5c0.7,1.1,1,2.4,1,3.8c0,1.7-0.5,3.3-1.5,4.8
		c-1,1.5-2.4,2.6-4.1,3.4l9.5,13.5h-7.3l-7.2-11.8h-3.3v11.8L276.8,207.7L276.8,207.7z M282.4,191.9h1.4c2.5,0,4.2-0.5,5.1-1.6
		c1-1.1,1.4-2.3,1.4-3.7c0-1.2-0.4-2.1-1.2-2.8c-0.8-0.7-2.3-1-4.7-1h-2.1L282.4,191.9L282.4,191.9z"/>
	<path d="M304.4,207.7v-28.9h18.5v4h-12.5v8.1h10.3v4h-10.3v8.8h13.4v4.1L304.4,207.7L304.4,207.7z"/>
	<path d="M325.2,207.7l11.3-28.9h6l11.2,28.9h-6.2l-3-7.7h-12l-3,7.7H325.2L325.2,207.7z M334.1,196.1h9l-4.5-11.5L334.1,196.1z"/>
	<path d="M356,207.7v-6.3h6.3v6.3H356z"/>
	<path d="M393.4,208.4c-3,0-5.6-0.6-7.9-1.9s-3.9-3-5.1-5.4s-1.7-5-1.7-7.9s0.6-5.6,1.7-7.9s2.9-4.1,5.1-5.4s4.9-1.9,7.8-1.9
		s5.6,0.6,7.8,1.9s3.9,3,5.1,5.4s1.7,5,1.7,7.9s-0.6,5.6-1.7,7.9s-2.9,4.1-5.1,5.4S396.4,208.4,393.4,208.4z M393.4,204.4
		c2.8,0,4.9-1.1,6.2-3.4s2-4.9,2-7.8s-0.7-5.6-2-7.8s-3.4-3.4-6.2-3.4s-4.9,1.1-6.2,3.4s-2,4.9-2,7.8s0.7,5.5,2,7.8
		S390.6,204.4,393.4,204.4L393.4,204.4z"/>
	<path d="M413.4,207.7v-28.9h5.3l13.4,19.8v-19.8h4.8v28.9h-5.4l-13.3-19.8v19.8H413.4L413.4,207.7z"/>
	<path d="M444.1,207.7v-28.9h6v24.8H463v4.1H444.1L444.1,207.7z"/>
	<path d="M474.3,207.7v-12.1l-9.7-16.8h6.6l7,12.2l7.4-12.2h4.8l-10.1,16.8v12.1L474.3,207.7L474.3,207.7z"/>
	<path d="M514.5,207.7v-12.1l-9.7-16.8h6.6l7,12.2l7.4-12.2h4.8l-10.1,16.8v12.1L514.5,207.7L514.5,207.7z"/>
	<path d="M548,208.4c-3,0-5.6-0.6-7.8-1.9s-3.9-3-5.1-5.4s-1.7-5-1.7-7.9s0.6-5.6,1.7-7.9s2.9-4.1,5.1-5.4s4.8-1.9,7.8-1.9
		s5.6,0.6,7.8,1.9s3.9,3,5.1,5.4s1.7,5,1.7,7.9s-0.6,5.6-1.7,7.9s-2.8,4.1-5.1,5.4S551,208.4,548,208.4L548,208.4z M548,204.4
		c2.8,0,4.9-1.1,6.2-3.4s2-4.9,2-7.8s-0.7-5.6-2-7.8s-3.4-3.4-6.2-3.4s-4.9,1.1-6.2,3.4s-2,4.9-2,7.8s0.7,5.5,2,7.8
		S545.2,204.4,548,204.4L548,204.4z"/>
	<path d="M567.8,178.8h6v17.7c0,3.2,0.5,5.3,1.6,6.4s2.5,1.6,4.2,1.6s3.1-0.5,4.1-1.5s1.5-3,1.5-6v-18.2h5.2v17.8
		c0,3.4-0.4,5.8-1.3,7.2s-2,2.6-3.6,3.4s-3.6,1.2-6,1.2s-4.5-0.4-6.2-1.2s-3.1-1.9-4.1-3.5s-1.5-4-1.5-7.3V178.8L567.8,178.8z"/>
	<path d="M610.3,207.7v-28.9h8l7,20.3l7.2-20.3h7v28.9h-5.5v-21.8l-7.1,19.9h-4.8l-6.9-20.2v22.1L610.3,207.7L610.3,207.7z"/>
	<path d="M643.4,207.7l11.3-28.9h6l11.2,28.9h-6.2l-3-7.7h-12l-3,7.7H643.4L643.4,207.7z M652.3,196.1h9l-4.5-11.5L652.3,196.1z"/>
	<path d="M682.9,207.7v-12.1l-9.7-16.8h6.7l7,12.2l7.3-12.2h4.8l-10.1,16.8v12.1L682.9,207.7L682.9,207.7z"/>
	<path d="M162.9,255.7v-28.9h9.9c2.9,0,4.9,0.3,6.1,0.9c1.2,0.6,2.1,1.5,2.7,2.6s0.9,2.5,0.9,4.2c0,3.2-1,5.7-3.1,7.4
		s-4.8,2.5-8.2,2.5h-2.4v11.3H162.9L162.9,255.7z M168.8,240.4h1.1c2.2,0,3.8-0.5,4.9-1.6s1.6-2.3,1.6-3.7c0-0.8-0.2-1.5-0.5-2.2
		s-0.8-1.2-1.5-1.6s-1.8-0.6-3.3-0.6h-2.3V240.4L168.8,240.4z"/>
	<path d="M187.4,255.7v-28.9h6v24.8h12.9v4.1L187.4,255.7L187.4,255.7z"/>
	<path d="M207.5,255.7l11.3-28.9h6l11.2,28.9h-6.2l-3-7.7h-12l-3,7.7H207.5L207.5,255.7z M216.4,244.1h9l-4.5-11.5L216.4,244.1z"/>
	<path d="M263.4,254.6c-1.3,0.6-2.4,0.9-3.3,1.1s-2,0.4-3.2,0.5s-2.4,0.2-3.5,0.2c-5.1,0-8.8-1.4-11.3-4.3
		c-2.5-2.9-3.7-6.5-3.7-10.9s1.2-8.1,3.7-10.9s6.4-4.3,11.7-4.3c3.1,0,6.3,0.4,9.4,1.1v4.7c-1.5-0.5-2.7-0.9-3.7-1.1
		s-1.9-0.4-2.7-0.5c-0.9-0.1-1.7-0.2-2.6-0.2c-3.3,0-5.7,1.1-7.2,3.2c-1.5,2.1-2.2,4.8-2.2,7.9c0,3.3,0.9,6,2.6,8s4.2,3.1,7.6,3.1
		c2.8,0,5.6-0.7,8.5-2.1V254.6L263.4,254.6z"/>
	<path d="M268.6,255.7v-28.9h18.5v4h-12.5v8.1H285v4h-10.3v8.8h13.4v4.1L268.6,255.7L268.6,255.7z"/>
	<path d="M302.3,255.7l11.3-28.9h6l11.2,28.9h-6.2l-3-7.7h-12l-3,7.7H302.3L302.3,255.7z M311.2,244.1h9l-4.5-11.5L311.2,244.1z"/>
	<path d="M354.9,255.7v-24.9h-10.4v-4h26.7v4h-10.4v24.9H354.9z"/>
	<path d="M375.3,255.7v-28.9h6v28.9H375.3z"/>
	<path d="M388.5,255.7v-28.9h6v24.8h12.9v4.1L388.5,255.7L388.5,255.7z"/>
	<path d="M411.8,255.7v-28.9h18.5v4h-12.5v8.1h10.3v4h-10.3v8.8h13.4v4.1L411.8,255.7L411.8,255.7z"/>
	<path d="M448.6,255.7v-28.9h6v11.7h12v-11.7h6v28.9h-6v-13.2h-12v13.2H448.6z"/>
	<path d="M479.8,255.7v-28.9h18.5v4h-12.5v8.1h10.3v4h-10.3v8.8h13.4v4.1L479.8,255.7L479.8,255.7z"/>
	<path d="M503.8,255.7v-28.9h10.8c2.2,0,3.9,0.3,5.1,0.8s2.1,1.4,2.8,2.5c0.7,1.1,1,2.4,1,3.8c0,1.7-0.5,3.3-1.5,4.8
		c-1,1.5-2.4,2.6-4.1,3.4l9.5,13.5H520l-7.2-11.8h-3.3v11.8H503.8L503.8,255.7z M509.5,239.9h1.4c2.5,0,4.2-0.5,5.1-1.6
		c1-1.1,1.4-2.3,1.4-3.7c0-1.2-0.4-2.1-1.2-2.8s-2.3-1-4.7-1h-2.1L509.5,239.9L509.5,239.9z"/>
	<path d="M531.4,255.7v-28.9h18.5v4h-12.5v8.1h10.3v4h-10.3v8.8h13.4v4.1L531.4,255.7L531.4,255.7z"/>
	<path d="M553.7,255.7v-6.3h6.3v6.3H553.7z"/>
</g>
</svg>
