<?xml version="1.0" encoding="utf-8"?>
<!-- Generator: Adobe Illustrator 27.5.0, SVG Export Plug-In . SVG Version: 6.00 Build 0)  -->
<svg version="1.1" id="Layer" xmlns="http://www.w3.org/2000/svg" xmlns:xlink="http://www.w3.org/1999/xlink" x="0px" y="0px"
	 viewBox="0 0 721 379.9" style="enable-background:new 0 0 721 379.9;" xml:space="preserve">
<style type="text/css">
	.st0{fill:#FFFFFF;fill-opacity:0;}
	.st1{fill:#020303;}
	.st2{fill:url(#SVGID_1_);}
	.st3{fill:#84A3D5;}
	.st4{fill:#11478D;}
	.st5{fill:#1D2D4C;}
	.st6{fill:#93C6EC;}
	.st7{fill:#7CA5D8;}
	.st8{fill:#415FA9;}
	.st9{fill:url(#SVGID_00000168117585227530355330000004666799237865782447_);}
	.st10{opacity:0.4;}
	.st11{opacity:0.4;fill:url(#obram_czarne_00000001655175620232613580000002504922359641565073_);enable-background:new    ;}
	.st12{fill:url(#obram_czarne-2_00000043438878277669075230000012559672974045661111_);}
	.st13{fill:#010101;stroke:#020303;stroke-width:1.9;stroke-miterlimit:10;}
	.st14{fill:url(#obram_zolte_00000129895051087225687970000002442518831511784071_);}
	.st15{fill:url(#tlo_wew_00000012451743373755274680000008160775359060927139_);}
	.st16{fill:url(#obram_skosne_00000114756430593553584170000006570692500151965598_);}
	.st17{fill:url(#tlo_zew_00000042697785617326249480000002351027866938234270_);}
</style>
<rect x="0.5" y="0.5" class="st0" width="720" height="378.9"/>
<g>
	<g id="ocean">
		<polygon class="st1" points="445.6,195.3 445.6,98.8 362.2,50.7 278.7,98.8 278.7,195.3 362.2,243.4 		"/>
		
			<linearGradient id="SVGID_1_" gradientUnits="userSpaceOnUse" x1="362.22" y1="960.09" x2="362.22" y2="773.49" gradientTransform="matrix(1 0 0 1 0 -719.73)">
			<stop  offset="0" style="stop-color:#C3DCF4"/>
			<stop  offset="1" style="stop-color:#2A5488"/>
		</linearGradient>
		<polygon class="st2" points="443,193.8 443,100.4 362.2,53.8 281.4,100.4 281.4,193.8 362.2,240.4 		"/>
		<polygon class="st3" points="437.6,190.6 437.6,103.5 362.2,59.9 286.7,103.5 286.7,190.6 362.2,234.2 		"/>
		<path class="st4" d="M437.6,158.6c-3.4-3.2-10-4.5-21.2-6c-11-1.4-16.4-2.1-19.2-2.1c-17.4-0.2-18.5,4.7-32.8,4.8
			c-3.9,0-14.2-2.1-35.1-6.4c-12.1-2.4-15.8-3.4-21.9-2.9c-8.5,0.6-15.6,3.5-20.8,6.6v38l75.7,43.6l75.4-43.6L437.6,158.6
			L437.6,158.6L437.6,158.6z"/>
		<path class="st5" d="M362.4,210.7L362.4,210.7c34-0.6,50.5-34.9,34.8-72.4c-1.3-3.2-3.1-6.6-5-10.1c-30-54.7-30-54.4-30-54.4
			s0-0.3-30,54.4c-1.9,3.5-3.5,6.9-5,10.1c-15.8,37.5,0.8,71.8,34.8,72.4l0,0"/>
		<path class="st6" d="M362.4,208.6L362.4,208.6c32.2-0.6,47.8-33,33-68.6c-1.3-3.1-2.9-6.3-4.7-9.7c-28.3-51.8-28.3-51.5-28.3-51.5
			s0-0.3-28.3,51.5c-1.8,3.4-3.4,6.4-4.7,9.7C314.2,175.6,329.8,208.1,362.4,208.6L362.4,208.6"/>
		<path class="st7" d="M362.2,204.9L362.2,204.9c29.6-0.5,44-30.3,30.3-62.8c-1.1-2.9-2.7-5.8-4.4-8.8C362.2,85.6,362.2,86,362.2,86
			s0-0.3-26.1,47.3c-1.6,3.1-3.1,6-4.4,8.8C318.3,174.7,332.6,204.3,362.2,204.9L362.2,204.9"/>
		<path class="st8" d="M395.5,150.5c-15.8,0.2-17.2,4.7-31.2,4.8c-3.9,0-14.2-2.1-34.9-6.3c-9,29.8,5.3,55.4,32.8,55.9h0.2
			C389.3,204.5,403.6,179.7,395.5,150.5L395.5,150.5L395.5,150.5z"/>
		
			<radialGradient id="SVGID_00000036251182833461889690000001262698277683449234_" cx="362.06" cy="878.46" r="80.92" gradientTransform="matrix(1 0 0 1 0 -719.73)" gradientUnits="userSpaceOnUse">
			<stop  offset="0" style="stop-color:#FFFFFF;stop-opacity:0.7"/>
			<stop  offset="0.13" style="stop-color:#FAFCFE;stop-opacity:0.68"/>
			<stop  offset="0.28" style="stop-color:#E4E9F7;stop-opacity:0.62"/>
			<stop  offset="0.44" style="stop-color:#C4CEEA;stop-opacity:0.53"/>
			<stop  offset="0.62" style="stop-color:#93A7D6;stop-opacity:0.4"/>
			<stop  offset="0.79" style="stop-color:#5673B7;stop-opacity:0.23"/>
			<stop  offset="0.98" style="stop-color:#30519E;stop-opacity:3.000000e-02"/>
			<stop  offset="1" style="stop-color:#2E4D9B;stop-opacity:0"/>
		</radialGradient>
		<circle style="fill:url(#SVGID_00000036251182833461889690000001262698277683449234_);" cx="362.1" cy="158.7" r="80.8"/>
	</g>
	<g id="mln" class="st10">
		
			<linearGradient id="obram_czarne_00000128452387552477798960000006893090272535998139_" gradientUnits="userSpaceOnUse" x1="361.1225" y1="17.2701" x2="361.1225" y2="119.9999" gradientTransform="matrix(1 0 0 -1 0 382)">
			<stop  offset="0" style="stop-color:#FFDC15"/>
			<stop  offset="0" style="stop-color:#FFDB16"/>
			<stop  offset="5.000000e-02" style="stop-color:#F9BB1F"/>
			<stop  offset="0.1" style="stop-color:#F59C1B"/>
			<stop  offset="0.16" style="stop-color:#EF7B1B"/>
			<stop  offset="0.22" style="stop-color:#E86212"/>
			<stop  offset="0.27" style="stop-color:#E84B1F"/>
			<stop  offset="0.34" style="stop-color:#E63A21"/>
			<stop  offset="0.41" style="stop-color:#E63323"/>
			<stop  offset="0.5" style="stop-color:#E63023"/>
			<stop  offset="0.59" style="stop-color:#E63323"/>
			<stop  offset="0.66" style="stop-color:#E63A21"/>
			<stop  offset="0.73" style="stop-color:#E84B1F"/>
			<stop  offset="0.78" style="stop-color:#E86212"/>
			<stop  offset="0.84" style="stop-color:#EF7B1B"/>
			<stop  offset="0.9" style="stop-color:#F59C1B"/>
			<stop  offset="0.95" style="stop-color:#F9BB1F"/>
			<stop  offset="1" style="stop-color:#FFDB16"/>
			<stop  offset="1" style="stop-color:#FFDC15"/>
		</linearGradient>
		
			<polygon id="obram_czarne" style="opacity:0.4;fill:url(#obram_czarne_00000128452387552477798960000006893090272535998139_);enable-background:new    ;" points="
			325.3,262 309.8,277.6 309.8,349.2 325.3,364.7 397,364.7 412.5,349.2 412.5,277.6 397,262 		"/>
		
			<linearGradient id="obram_czarne-2_00000164474127142766523090000007838416730727627419_" gradientUnits="userSpaceOnUse" x1="361.1262" y1="19.6281" x2="361.1262" y2="117.6345" gradientTransform="matrix(1 0 0 -1 0 382)">
			<stop  offset="0" style="stop-color:#FFDC15"/>
			<stop  offset="0" style="stop-color:#FFDB16"/>
			<stop  offset="5.000000e-02" style="stop-color:#F9BB1F"/>
			<stop  offset="0.1" style="stop-color:#F59C1B"/>
			<stop  offset="0.16" style="stop-color:#EF7B1B"/>
			<stop  offset="0.22" style="stop-color:#E86212"/>
			<stop  offset="0.27" style="stop-color:#E84B1F"/>
			<stop  offset="0.34" style="stop-color:#E63A21"/>
			<stop  offset="0.41" style="stop-color:#E63323"/>
			<stop  offset="0.5" style="stop-color:#E63023"/>
			<stop  offset="0.59" style="stop-color:#E63323"/>
			<stop  offset="0.66" style="stop-color:#E63A21"/>
			<stop  offset="0.73" style="stop-color:#E84B1F"/>
			<stop  offset="0.78" style="stop-color:#E86212"/>
			<stop  offset="0.84" style="stop-color:#EF7B1B"/>
			<stop  offset="0.9" style="stop-color:#F59C1B"/>
			<stop  offset="0.95" style="stop-color:#F9BB1F"/>
			<stop  offset="1" style="stop-color:#FFDB16"/>
			<stop  offset="1" style="stop-color:#FFDC15"/>
		</linearGradient>
		<polygon id="obram_czarne-2" style="fill:url(#obram_czarne-2_00000164474127142766523090000007838416730727627419_);" points="
			327,264.4 312.1,279.2 312.1,347.5 327,362.4 395.4,362.4 410.1,347.5 410.1,279.2 395.4,264.4 		"/>
		<polygon id="obram_czarne-3" class="st13" points="330.9,270 317.8,283.1 317.8,343.6 330.9,356.7 391.4,356.7 404.5,343.6 
			404.5,283.1 391.4,270 		"/>
		
			<linearGradient id="obram_zolte_00000072958640998081035380000004382661684744077757_" gradientUnits="userSpaceOnUse" x1="361.1598" y1="1071.1558" x2="361.1598" y2="989.4017" gradientTransform="matrix(1 0 0 1 0 -716.91)">
			<stop  offset="0.16" style="stop-color:#813912"/>
			<stop  offset="0.18" style="stop-color:#975A19"/>
			<stop  offset="0.22" style="stop-color:#AE7D21"/>
			<stop  offset="0.26" style="stop-color:#C39D27"/>
			<stop  offset="0.3" style="stop-color:#D6B92E"/>
			<stop  offset="0.35" style="stop-color:#E4CF35"/>
			<stop  offset="0.41" style="stop-color:#EFE036"/>
			<stop  offset="0.48" style="stop-color:#F6E942"/>
			<stop  offset="0.58" style="stop-color:#F8EA48"/>
			<stop  offset="0.86" style="stop-color:#F7EA47"/>
			<stop  offset="1" style="stop-color:#FCF4F9"/>
		</linearGradient>
		<polygon id="obram_zolte" style="fill:url(#obram_zolte_00000072958640998081035380000004382661684744077757_);" points="
			332.6,272.5 320.3,284.8 320.3,341.9 332.6,354.2 389.6,354.2 402,341.9 402,284.8 389.6,272.5 		"/>
		
			<linearGradient id="tlo_wew_00000145775741100343084800000014742687383705651347_" gradientUnits="userSpaceOnUse" x1="361.1598" y1="985.0513" x2="361.1598" y2="1110.0106" gradientTransform="matrix(1 0 0 1 0 -716.91)">
			<stop  offset="0.26" style="stop-color:#F7EA47"/>
			<stop  offset="0.86" style="stop-color:#803612"/>
		</linearGradient>
		<polygon id="tlo_wew" style="fill:url(#tlo_wew_00000145775741100343084800000014742687383705651347_);" points="333.5,273.7 
			321.5,285.7 321.5,341 333.5,353 388.9,353 400.9,341 400.9,285.7 388.9,273.7 		"/>
		
			<linearGradient id="obram_skosne_00000106105243419709798980000002887868936216616847_" gradientUnits="userSpaceOnUse" x1="361.1934" y1="1070.0216" x2="361.1934" y2="990.6105" gradientTransform="matrix(1 0 0 1 0 -716.91)">
			<stop  offset="0.16" style="stop-color:#803612"/>
			<stop  offset="0.17" style="stop-color:#8B461E"/>
			<stop  offset="0.18" style="stop-color:#A26A3B"/>
			<stop  offset="0.2" style="stop-color:#B78954"/>
			<stop  offset="0.22" style="stop-color:#C7A468"/>
			<stop  offset="0.24" style="stop-color:#D7BB7A"/>
			<stop  offset="0.26" style="stop-color:#E2CC88"/>
			<stop  offset="0.3" style="stop-color:#EAD891"/>
			<stop  offset="0.34" style="stop-color:#EEDE97"/>
			<stop  offset="0.46" style="stop-color:#EFE097"/>
			<stop  offset="0.7" style="stop-color:#803612"/>
			<stop  offset="0.73" style="stop-color:#E6D234"/>
			<stop  offset="0.74" style="stop-color:#EAD848"/>
			<stop  offset="0.75" style="stop-color:#EEDE6D"/>
			<stop  offset="0.77" style="stop-color:#F1E38B"/>
			<stop  offset="0.79" style="stop-color:#F7EAA9"/>
			<stop  offset="0.8" style="stop-color:#F8EDBF"/>
			<stop  offset="0.83" style="stop-color:#FAF0CF"/>
			<stop  offset="0.85" style="stop-color:#FCF2DA"/>
			<stop  offset="0.89" style="stop-color:#FDF4E1"/>
			<stop  offset="0.99" style="stop-color:#FDF5E3"/>
		</linearGradient>
		<path id="obram_skosne" style="fill:url(#obram_skosne_00000106105243419709798980000002887868936216616847_);" d="M395.1,328.7
			c-2.2,0-4-1.8-4-4V302c0-2.2,1.8-4,4-4h5.7v-12.4l-11.9-12h-12.4v5.7c0,2.2-1.8,4-4,4h-22.7c-2.2,0-4-1.8-4-4v-5.7h-12.4l-12,12
			v12.4h5.7c2.2,0,4,1.8,4,4v22.7c0,2.2-1.8,4-4,4h-5.7v12.4l12,12h12.4v-5.7c0-2.2,1.8-4,4-4h22.7c2.2,0,4,1.8,4,4v5.7h12.4l12-12
			v-12.4H395.1z"/>
		
			<linearGradient id="tlo_zew_00000062167028817768804830000008527821255967919501_" gradientUnits="userSpaceOnUse" x1="361.1672" y1="1002.2588" x2="361.1672" y2="1124.8228" gradientTransform="matrix(1 0 0 1 0 -716.91)">
			<stop  offset="0.26" style="stop-color:#F7EA47"/>
			<stop  offset="0.77" style="stop-color:#803612"/>
		</linearGradient>
		<path id="tlo_zew" style="fill:url(#tlo_zew_00000062167028817768804830000008527821255967919501_);" d="M394.9,330
			c-2.7,0-4.9-2.7-4.9-5.4v-22.5c0-2.7,2.2-5.4,4.9-5.4h4.6v-10.1l-11.6-11.6h-10v4.6c0,2.7-2.7,4.9-5.4,4.9h-22.5
			c-2.7,0-5.4-2.2-5.4-4.9v-4.6h-10.2l-11.6,11.6v10.1h4.6c2.7,0,4.9,2.7,4.9,5.4v22.5c0,2.7-2.2,5.4-4.9,5.4h-4.6v10.1l11.6,11.6
			h10.1v-4.6c0-2.7,2.7-4.9,5.4-4.9h22.4c2.7,0,5.4,2.2,5.4,4.9v4.6h10.1l11.6-11.6V330L394.9,330L394.9,330z"/>
	</g>
	<path class="st10" d="M363.8,332.9v-10.2h-17.9v-5.7l17.6-22.3h7v22.3h4.5v5.7h-4.5v10.2H363.8L363.8,332.9z M352,316.9h11.9v-15
		L352,316.9z"/>
	<path class="st10" d="M427,282.4l-7.5-0.9l1.7-5.3l6.6,3.7c-0.6,0.6-0.9,1.3-0.9,2.1C427,282,427,282.2,427,282.4L427,282.4z
		 M429.4,284.5l-3.2,6.9l-4.5-3.3l5.5-5.2C427.7,283.8,428.4,284.3,429.4,284.5L429.4,284.5z M426.8,272.1h5.6l-1.4,7.5
		c-0.5-0.2-0.9-0.3-1.4-0.3s-0.9,0.1-1.3,0.3L426.8,272.1z M432.1,282.9l5.5,5.2l-4.5,3.3l-3.2-6.9
		C430.9,284.3,431.6,283.8,432.1,282.9L432.1,282.9z M431.4,279.8l6.7-3.7l1.7,5.3l-7.5,0.9c0-0.2,0.1-0.4,0.1-0.5
		C432.3,281.2,432,280.5,431.4,279.8L431.4,279.8z"/>
	<path class="st10" d="M282.5,317.1v-6.7h16.2v6.7H282.5L282.5,317.1z"/>
</g>
</svg>
