<?xml version="1.0" encoding="utf-8"?>
<!-- Generator: Adobe Illustrator 27.5.0, SVG Export Plug-In . SVG Version: 6.00 Build 0)  -->
<svg version="1.1" id="Layer" xmlns="http://www.w3.org/2000/svg" xmlns:xlink="http://www.w3.org/1999/xlink" x="0px" y="0px"
	 viewBox="0 0 721 379.9" style="enable-background:new 0 0 721 379.9;" xml:space="preserve">
<style type="text/css">
	.st0{fill:#FFFFFF;fill-opacity:0;}
	.st1{fill:#020303;stroke:#030404;stroke-width:1.9;stroke-miterlimit:10;}
	.st2{fill:url(#obram_zolte_00000043432086478433691190000011871184368860589222_);}
	.st3{fill:url(#tlo_wew_00000100354732544068973120000003609907810527314580_);}
	.st4{fill:url(#obram_skosne_00000165221175532135469840000012983416373243300516_);}
	.st5{fill:url(#tlo_zew_00000008117860528965045740000000043327408237718160_);}
	.st6{fill:#010202;}
	.st7{fill:#020303;}
	.st8{fill:url(#SVGID_1_);}
	.st9{fill:url(#SVGID_00000081619499254541027270000016327302982727709860_);}
	.st10{opacity:0.29;fill:#020303;enable-background:new    ;}
	.st11{fill:none;stroke:#030404;stroke-width:0.98;stroke-miterlimit:10;}
	.st12{fill:#030404;}
</style>
<rect x="0.5" y="0.5" class="st0" width="720" height="378.9"/>
<g id="mln">
	<polygon id="obram_czarne" class="st1" points="425.7,135.4 408.2,153 408.2,233.6 425.7,251 506.4,251 523.7,233.6 523.7,153 
		506.4,135.4 	"/>
	
		<linearGradient id="obram_zolte_00000053503154679092347330000003123744692917872828_" gradientUnits="userSpaceOnUse" x1="466.07" y1="-126.88" x2="466.07" y2="-17.88" gradientTransform="matrix(1 0 0 -1 0 120.83)">
		<stop  offset="0.16" style="stop-color:#823B14"/>
		<stop  offset="0.18" style="stop-color:#995D1A"/>
		<stop  offset="0.22" style="stop-color:#AE7D22"/>
		<stop  offset="0.26" style="stop-color:#C39D25"/>
		<stop  offset="0.3" style="stop-color:#D6B92E"/>
		<stop  offset="0.35" style="stop-color:#E4CF36"/>
		<stop  offset="0.41" style="stop-color:#EFE036"/>
		<stop  offset="0.48" style="stop-color:#F5E94D"/>
		<stop  offset="0.58" style="stop-color:#F8EB53"/>
		<stop  offset="0.86" style="stop-color:#F5EA52"/>
		<stop  offset="1" style="stop-color:#FCF4F9"/>
	</linearGradient>
	<polygon id="obram_zolte" style="fill:url(#obram_zolte_00000053503154679092347330000003123744692917872828_);" points="
		427.9,138.7 411.6,155.2 411.6,231.3 427.9,247.7 504,247.7 520.5,231.3 520.5,155.2 504,138.7 	"/>
	
		<linearGradient id="tlo_wew_00000155866481199133793960000017230007672844699561_" gradientUnits="userSpaceOnUse" x1="466.02" y1="-12.13" x2="466.02" y2="-178.74" gradientTransform="matrix(1 0 0 -1 0 120.83)">
		<stop  offset="0.26" style="stop-color:#F5EA52"/>
		<stop  offset="0.86" style="stop-color:#813A14"/>
	</linearGradient>
	<polygon id="tlo_wew" style="fill:url(#tlo_wew_00000155866481199133793960000017230007672844699561_);" points="429.1,140.3 
		413.1,156.4 413.1,230.1 429.1,246.1 503,246.1 518.9,230.1 518.9,156.4 503,140.3 	"/>
	
		<linearGradient id="obram_skosne_00000070830756626421023350000013223133998405941173_" gradientUnits="userSpaceOnUse" x1="466.065" y1="-125.49" x2="466.065" y2="-19.58" gradientTransform="matrix(1 0 0 -1 0 120.83)">
		<stop  offset="0.16" style="stop-color:#813A14"/>
		<stop  offset="0.17" style="stop-color:#8D481F"/>
		<stop  offset="0.18" style="stop-color:#A36C3D"/>
		<stop  offset="0.2" style="stop-color:#B78954"/>
		<stop  offset="0.22" style="stop-color:#C7A468"/>
		<stop  offset="0.24" style="stop-color:#D7BB7A"/>
		<stop  offset="0.26" style="stop-color:#E2CC88"/>
		<stop  offset="0.3" style="stop-color:#EAD891"/>
		<stop  offset="0.34" style="stop-color:#EEDE97"/>
		<stop  offset="0.46" style="stop-color:#EFE097"/>
		<stop  offset="0.7" style="stop-color:#813A14"/>
		<stop  offset="0.73" style="stop-color:#E6D234"/>
		<stop  offset="0.74" style="stop-color:#EBDA49"/>
		<stop  offset="0.75" style="stop-color:#EEDE6D"/>
		<stop  offset="0.77" style="stop-color:#F0E18A"/>
		<stop  offset="0.79" style="stop-color:#F8EBAB"/>
		<stop  offset="0.8" style="stop-color:#F8EDBF"/>
		<stop  offset="0.83" style="stop-color:#FAF0CF"/>
		<stop  offset="0.85" style="stop-color:#FCF2DA"/>
		<stop  offset="0.89" style="stop-color:#FDF4E1"/>
		<stop  offset="0.99" style="stop-color:#FDF5E3"/>
	</linearGradient>
	<path id="obram_skosne" style="fill:url(#obram_skosne_00000070830756626421023350000013223133998405941173_);" d="M511.3,213.7
		c-2.9,0-5.3-2.4-5.3-5.3v-30.3c0-2.9,2.4-5.3,5.3-5.3h7.6v-16.5l-15.9-16h-16.6v7.6c0,2.9-2.4,5.3-5.3,5.3h-30.3
		c-2.9,0-5.3-2.4-5.3-5.3v-7.6h-16.5l-16,16V173h7.6c2.9,0,5.3,2.4,5.3,5.3v30.3c0,2.9-2.4,5.3-5.3,5.3h-7.6v16.5l16,16h16.6v-7.6
		c0-2.9,2.4-5.3,5.3-5.3h30.3c2.9,0,5.3,2.4,5.3,5.3v7.6H503l16-16v-16.6H511.3L511.3,213.7z"/>
	
		<linearGradient id="tlo_zew_00000180335216799514610420000013074697244838659459_" gradientUnits="userSpaceOnUse" x1="466.02" y1="-35.07" x2="466.02" y2="-198.49" gradientTransform="matrix(1 0 0 -1 0 120.83)">
		<stop  offset="0.26" style="stop-color:#F5EA52"/>
		<stop  offset="0.77" style="stop-color:#813A14"/>
	</linearGradient>
	<path id="tlo_zew" style="fill:url(#tlo_zew_00000180335216799514610420000013074697244838659459_);" d="M511.1,215.4
		c-3.6,0-6.5-3.6-6.5-7.2v-30c0-3.6,2.9-7.2,6.5-7.2h6.1v-13.4l-15.6-15.4h-13.4v6.1c0,3.6-3.6,6.5-7.2,6.5h-30
		c-3.6,0-7.2-2.9-7.2-6.5v-6.1h-13.5l-15.5,15.4v13.5h6.1c3.6,0,6.5,3.6,6.5,7.2v30c0,3.6-2.9,7.2-6.5,7.2h-6.1v13.4l15.5,15.4h13.4
		v-6.1c0-3.6,3.6-6.5,7.2-6.5h29.9c3.6,0,7.2,2.9,7.2,6.5v6.1h13.4l15.4-15.4v-13.5H511.1z"/>
</g>
<path class="st6" d="M447.5,220.9v-8.7c3.3-4.5,6.5-8.1,9.7-10.7l4.5-4c3.2-2.9,5.9-5.7,7.9-8.5c2.1-2.8,3.1-5.7,3.1-8.8
	c0-2.8-0.9-4.8-2.7-6.3s-4.2-2.2-7.2-2.2c-4,0-8.7,1.4-14,4.1v-8.1c5.6-2,10.9-3.1,16.2-3.1c5.8,0,10.4,1.4,14,4.2s5.4,6.4,5.4,11.1
	c0,2.9-0.8,5.7-2.2,8.3c-1.5,2.6-4.6,5.8-9.3,9.6l-3.8,3c-1.6,1.3-3.4,3-5.4,5s-3.2,4.2-3.9,6.5h24.2v8.7L447.5,220.9L447.5,220.9z"
	/>
<path d="M348,182.6v-14.3h14.3v14.3H348z M348,221.2v-14.3h14.3v14.3H348z"/>
<g id="cityAny">
	<polygon class="st7" points="322.8,229.5 322.8,156.6 259.7,120.3 196.6,156.6 196.6,229.5 259.7,266 	"/>
	
		<linearGradient id="SVGID_1_" gradientUnits="userSpaceOnUse" x1="259.705" y1="983.0944" x2="259.705" y2="841.8392" gradientTransform="matrix(1 0 0 1 0 -719.37)">
		<stop  offset="0" style="stop-color:#020303"/>
		<stop  offset="1" style="stop-color:#FFFFFF"/>
	</linearGradient>
	<polygon class="st8" points="320.8,228.4 320.8,157.8 259.7,122.5 198.6,157.8 198.6,228.4 259.7,263.7 	"/>
	
		<radialGradient id="SVGID_00000157290158146919915020000000732252615015953561_" cx="259.7632" cy="912.4721" r="61.6787" gradientTransform="matrix(1 0 0 1 0 -719.37)" gradientUnits="userSpaceOnUse">
		<stop  offset="0" style="stop-color:#CAC8C8"/>
		<stop  offset="1" style="stop-color:#747272"/>
	</radialGradient>
	<polygon style="fill:url(#SVGID_00000157290158146919915020000000732252615015953561_);" points="316.8,226.1 316.8,160.2 
		259.7,127.1 202.7,160.2 202.7,226.1 259.7,259.1 	"/>
	<path class="st10" d="M322.5,227.5V182l0,0c-41.8,6.1-83.6,6.1-125.5,0l0,0v45.5l62.7,36.2L322.5,227.5L322.5,227.5L322.5,227.5z"
		/>
	<g id="city-logo">
		<path class="st11" d="M216,201.2c0-23.4,19.5-42.2,43.6-42.2"/>
		<path class="st11" d="M303.1,201.2c0-23.4-19.8-42.2-44.1-42.2"/>
		<rect x="215.2" y="198.4" class="st12" width="88.7" height="5.6"/>
		<rect x="219.9" y="193.2" class="st12" width="2.7" height="5.2"/>
		<rect x="221.2" y="189.1" class="st12" width="1.2" height="4.2"/>
		<rect x="225.3" y="192.6" class="st12" width="4.9" height="5.9"/>
		<rect x="225.3" y="185.9" class="st12" width="2.4" height="6.7"/>
		<rect x="231.7" y="191.2" class="st12" width="2" height="7.3"/>
		<rect x="233.7" y="176.6" class="st12" width="2.3" height="21.7"/>
		<rect x="234.8" y="174.4" class="st12" width="1.1" height="2.3"/>
		<rect x="236" y="193.2" class="st12" width="3.9" height="5.2"/>
		<rect x="239" y="190.6" class="st12" width="0.8" height="2.6"/>
		<rect x="239.7" y="171.4" class="st12" width="3.1" height="27"/>
		<rect x="242.8" y="176.3" class="st12" width="1.5" height="22.1"/>
		<rect x="244.5" y="184.1" class="st12" width="3.2" height="14.2"/>
		<rect x="247.7" y="187.1" class="st12" width="2" height="11.5"/>
		<rect x="251.5" y="180" class="st12" width="4.2" height="18.3"/>
		<rect x="255.8" y="187.3" class="st12" width="2.2" height="11"/>
		<rect x="258" y="166.9" class="st12" width="5.2" height="31.6"/>
		<rect x="265.6" y="173.8" class="st12" width="2.7" height="24.5"/>
		<rect x="271.1" y="178.9" class="st12" width="3" height="19.4"/>
		<rect x="268.1" y="191.8" class="st12" width="3" height="6.5"/>
		<rect x="274" y="194.8" class="st12" width="2.2" height="3.6"/>
		<rect x="278.5" y="192.9" class="st12" width="1.9" height="5.5"/>
		<rect x="280.5" y="184.1" class="st12" width="3.3" height="14.2"/>
		<rect x="283.7" y="177.5" class="st12" width="2.4" height="20.9"/>
		<rect x="286.1" y="192.2" class="st12" width="2" height="6.2"/>
		<rect x="289.2" y="188.3" class="st12" width="2.5" height="10"/>
		<rect x="291.8" y="187.3" class="st12" width="2.8" height="11"/>
		<rect x="296.5" y="193.4" class="st12" width="1.2" height="5.1"/>
		<rect x="297.7" y="195.9" class="st12" width="2.4" height="2.5"/>
	</g>
</g>
</svg>
