<?xml version="1.0" encoding="utf-8"?>
<!-- Generator: Adobe Illustrator 27.5.0, SVG Export Plug-In . SVG Version: 6.00 Build 0)  -->
<svg version="1.1" id="Layer" xmlns="http://www.w3.org/2000/svg" xmlns:xlink="http://www.w3.org/1999/xlink" x="0px" y="0px"
	 viewBox="0 0 721 379.9" style="enable-background:new 0 0 721 379.9;" xml:space="preserve">
<style type="text/css">
	.st0{fill:none;}
	.st1{fill:#1F1F1E;}
	.st2{fill:#FFFFFF;fill-opacity:0;}
	.st3{opacity:0.4;}
	.st4{fill:url(#external-border_00000084531871101540970970000002445671380217171902_);}
	.st5{fill:url(#internal-border_00000114066243238295312410000007151773980887403941_);}
	.st6{fill:url(#bg_00000154403751895345730890000000643296075511741082_);}
	.st7{opacity:0.1;fill:url(#bgPattern_00000096021070446500760760000009968404443137982642_);enable-background:new    ;}
	.st8{fill:#020303;}
	.st9{fill:url(#SVGID_1_);}
	.st10{fill:url(#SVGID_00000162316336472253687040000002488911912754344851_);}
	.st11{opacity:8.000000e-02;fill:#020303;enable-background:new    ;}
	.st12{fill:#115729;}
	.st13{fill:#18291B;}
	.st14{opacity:0.5;fill:#E03D15;enable-background:new    ;}
	.st15{fill:url(#SVGID_00000033347628622252656080000005730672697686896263_);}
	.st16{fill:#CD141B;}
	.st17{fill:none;stroke:#010202;stroke-width:1.88;stroke-miterlimit:10;}
	.st18{opacity:0.4;fill:#010101;}
	.st19{opacity:0.4;fill:url(#SVGID_00000027562723758461680800000006251175433364889275_);enable-background:new    ;}
	.st20{fill:url(#SVGID_00000009572488482577427030000017115752981118911158_);}
	.st21{fill:url(#SVGID_00000158712673310519006590000016468418254838067863_);}
	.st22{fill:#44AC36;}
	.st23{fill:#07562A;stroke:#1C4421;stroke-width:3.73;stroke-miterlimit:10;}
	.st24{opacity:5.000000e-02;fill:#020303;enable-background:new    ;}
	.st25{opacity:0.4;fill:url(#SVGID_00000075851103632945524100000001596077333298738330_);enable-background:new    ;}
	.st26{fill:url(#SVGID_00000021838424433979672580000008306436569068110502_);}
	.st27{fill:url(#SVGID_00000160910054056743640530000001989143157299960224_);}
</style>
<pattern  y="379.9" width="19.7" height="21.7" patternUnits="userSpaceOnUse" id="Nowy_wzorek_4" viewBox="0 -21.7 19.7 21.7" style="overflow:visible;">
	<g>
		<rect y="-21.7" class="st0" width="19.7" height="21.7"/>
		<g>
			<rect y="-21.7" class="st0" width="19.7" height="21.7"/>
			<g>
				<rect y="-21.7" class="st0" width="19.7" height="21.7"/>
				<g>
					<rect y="-21.7" class="st0" width="19.7" height="21.7"/>
					<g>
						<rect y="-21.7" class="st0" width="19.7" height="21.7"/>
						<g>
							<rect y="-21.7" class="st0" width="19.7" height="21.7"/>
							<path class="st1" d="M16.6-8.7c2.1-2.1,2.1-5.6,0-7.7l-1.2-1.2c-2.1-2.1-5.6-2.1-7.8,0L3.1-13C1-10.9,1-7.4,3.1-5.3l1.2,1.2
								C6.4-2,9.9-2,12-4.1C12-4.1,16.6-8.7,16.6-8.7z"/>
						</g>
					</g>
				</g>
			</g>
		</g>
	</g>
</pattern>
<rect x="0.5" y="0.5" class="st2" width="720" height="378.9"/>
<g id="prodBg" class="st3">
	
		<linearGradient id="external-border_00000155834187886379325540000006112314795077009826_" gradientUnits="userSpaceOnUse" x1="446.7005" y1="-261.6805" x2="276.8495" y2="-91.8295" gradientTransform="matrix(1 0 0 -1 0 129.36)">
		<stop  offset="0" style="stop-color:#9E9D9C"/>
		<stop  offset="0.54" style="stop-color:#010202"/>
		<stop  offset="1" style="stop-color:#9E9D9C"/>
	</linearGradient>
	
		<rect id="external-border" x="245.6" y="252.5" style="fill:url(#external-border_00000155834187886379325540000006112314795077009826_);" width="232.4" height="107.3"/>
	
		<linearGradient id="internal-border_00000067945481091902228960000017848123038951725730_" gradientUnits="userSpaceOnUse" x1="361.8211" y1="-227.5652" x2="361.8211" y2="-125.9632" gradientTransform="matrix(1 0 0 -1 0 129.36)">
		<stop  offset="0" style="stop-color:#462C1B"/>
		<stop  offset="1" style="stop-color:#B18048"/>
	</linearGradient>
	
		<rect id="internal-border" x="248.4" y="255.3" style="fill:url(#internal-border_00000067945481091902228960000017848123038951725730_);" width="226.9" height="101.6"/>
	
		<linearGradient id="bg_00000098185812635815196200000008360572750817145249_" gradientUnits="userSpaceOnUse" x1="361.7689" y1="-224.9953" x2="361.7689" y2="-128.4409" gradientTransform="matrix(1 0 0 -1 0 129.36)">
		<stop  offset="0" style="stop-color:#946137"/>
		<stop  offset="1" style="stop-color:#805127"/>
	</linearGradient>
	
		<rect id="bg" x="250.8" y="257.8" style="fill:url(#bg_00000098185812635815196200000008360572750817145249_);" width="221.8" height="96.6"/>
	
		<pattern  id="bgPattern_00000098911696913620471970000007837824250234240434_" xlink:href="#Nowy_wzorek_4" patternTransform="matrix(1 0 0 -1 51.9 -32372.8906)"  class="st3">
	</pattern>
	
		<rect id="bgPattern" x="250.8" y="257.8" style="opacity:0.1;fill:url(#bgPattern_00000098911696913620471970000007837824250234240434_);enable-background:new    ;" width="221.8" height="96.6"/>
</g>
<g id="animal">
	<rect x="377.3" y="111.9" class="st8" width="117" height="117"/>
	
		<linearGradient id="SVGID_1_" gradientUnits="userSpaceOnUse" x1="-1062.6818" y1="-1692.1383" x2="-984.709" y2="-1614.1656" gradientTransform="matrix(0.7071 -0.7071 -0.7071 -0.7071 -9.278 -1722.3918)">
		<stop  offset="0" style="stop-color:#1F4D23"/>
		<stop  offset="0.43" style="stop-color:#4B6E30"/>
		<stop  offset="1" style="stop-color:#95A946"/>
	</linearGradient>
	<rect x="380.7" y="115.3" class="st9" width="110.3" height="110.3"/>
	
		<radialGradient id="SVGID_00000011728587256034166080000003135153296045957004_" cx="435.825" cy="-41.605" r="49.785" gradientTransform="matrix(1 0 0 -1 0 128.82)" gradientUnits="userSpaceOnUse">
		<stop  offset="0.25" style="stop-color:#95A946"/>
		<stop  offset="1" style="stop-color:#397931"/>
	</radialGradient>
	
		<rect x="386" y="120.6" style="fill:url(#SVGID_00000011728587256034166080000003135153296045957004_);" width="99.6" height="99.6"/>
	<path id="darker" class="st11" d="M491,225.6H380.7v-60.4c0,0,34.7,5.4,55.1,5.4s55.2-5.4,55.2-5.4V225.6z"/>
	<path class="st12" d="M424.1,142.4c-0.3,0-3,0.4-4.6,2.6c-0.7,0.8-0.9,1.8-1.1,2.8c-0.4,2.1-1.1,5.8,0.4,10.4
		c0.8,2.2,1.6,4.8,4,6.6c0.8,0.6,2.2,1.6,4.2,1.4c2.2-0.2,3.5-1.8,4-2.3c1.9-2.2,1.9-4.7,2-7.4c0-1.3,0-5.4-2.1-9.6
		c-1.4-2.8-2.6-3.6-3.2-3.8C426.2,142.1,424.6,142.3,424.1,142.4L424.1,142.4L424.1,142.4z"/>
	<path class="st12" d="M450,140.8c-0.3-0.1-2.9-0.7-5.2,0.8c-0.8,0.6-1.5,1.3-2.1,2.2c-1.1,1.8-3.1,5-3.3,9.9
		c-0.1,2.3-0.2,5.1,1.5,7.6c0.6,0.8,1.6,2.2,3.5,2.7c2.1,0.6,4-0.5,4.5-0.8c2.4-1.4,3.5-3.8,4.5-6.3c0.5-1.2,1.9-5,1.4-9.7
		c-0.3-3.1-1.2-4.2-1.7-4.7C452,141.4,450.5,141,450,140.8L450,140.8L450,140.8z"/>
	<path class="st12" d="M406.6,157.4c-0.3,0.1-2.9,0.7-4.3,3c-0.6,0.9-0.8,1.8-0.8,2.9c-0.2,2.1-0.6,5.8,1.3,10.3
		c0.9,2.1,2,4.6,4.7,6.2c0.8,0.5,2.4,1.3,4.3,0.9c2.2-0.4,3.3-2.1,3.8-2.7c1.6-2.4,1.5-4.9,1.3-7.6c-0.1-1.3-0.5-5.2-3-9.3
		c-1.6-2.6-2.9-3.3-3.6-3.6C408.6,157.1,407.2,157.4,406.6,157.4L406.6,157.4L406.6,157.4z"/>
	<path class="st12" d="M465.7,155.2c-0.3-0.1-2.9-0.7-5.2,0.9c-0.8,0.7-1.4,1.4-2,2.3c-1,1.9-3,5.1-3,10c0,2.3-0.1,5.1,1.7,7.5
		c0.6,0.8,1.7,2.2,3.6,2.6c2.1,0.5,3.9-0.6,4.5-0.9c2.4-1.4,3.4-3.8,4.3-6.4c0.5-1.2,1.8-5,1.1-9.7c-0.4-3.1-1.3-4.2-1.8-4.7
		C467.7,155.6,466.2,155.3,465.7,155.2L465.7,155.2z"/>
	<path class="st13" d="M465,158.2c-0.2,0-2.2-0.5-3.9,0.8c-0.7,0.5-1,1-1.5,1.7c-0.8,1.4-2.2,3.8-2.2,7.4c0,1.7-0.1,3.8,1.3,5.6
		c0.4,0.6,1.2,1.7,2.6,2c1.6,0.4,2.9-0.5,3.4-0.7c1.8-1.1,2.4-2.8,3.2-4.8c0.4-0.9,1.3-3.8,0.8-7.2c-0.3-2.2-1-3.1-1.3-3.5
		C466.5,158.5,465.4,158.2,465,158.2L465,158.2L465,158.2z"/>
	<path class="st13" d="M449.3,143.9c-0.2-0.1-2.2-0.5-3.9,0.6c-0.7,0.5-1,0.9-1.5,1.7c-0.8,1.3-2.2,3.7-2.4,7.3
		c-0.1,1.7-0.2,3.8,1.1,5.6c0.4,0.6,1.1,1.7,2.5,2.1c1.6,0.4,2.9-0.4,3.4-0.6c1.8-1,2.5-2.7,3.3-4.6c0.4-0.9,1.4-3.6,1-7.1
		c-0.3-2.2-0.9-3.1-1.2-3.5C450.7,144.3,449.6,144,449.3,143.9L449.3,143.9L449.3,143.9z"/>
	<path class="st13" d="M424.5,145.5c-0.2,0-2.2,0.3-3.4,1.9c-0.5,0.7-0.7,1.3-0.8,2.1c-0.3,1.5-0.8,4.2,0.3,7.7
		c0.6,1.6,1.1,3.6,3,4.9c0.6,0.4,1.7,1.1,3.1,1c1.6-0.2,2.5-1.3,2.9-1.7c1.3-1.6,1.4-3.5,1.5-5.4c0-0.9,0-3.9-1.6-7
		c-1-2.1-2-2.6-2.4-2.8C426,145.3,424.9,145.4,424.5,145.5L424.5,145.5L424.5,145.5z"/>
	<path class="st13" d="M407.2,160.1c-0.2,0-2.2,0.5-3.3,2.4c-0.5,0.8-0.6,1.4-0.7,2.2c-0.2,1.6-0.5,4.5,1,7.9
		c0.7,1.6,1.5,3.6,3.6,4.7c0.7,0.4,1.9,1,3.3,0.8c1.6-0.3,2.5-1.6,2.8-2.1c1.2-1.8,1.1-3.8,1-5.8c-0.1-1-0.4-4-2.2-7.1
		c-1.2-2.1-2.2-2.5-2.7-2.7C408.7,159.9,407.5,160.1,407.2,160.1L407.2,160.1L407.2,160.1z"/>
	<path class="st12" d="M436.6,165.1c-1.3,0.1-2.7,0.1-4.3,0.9c-1.8,0.9-2.8,2.4-3.8,3.6c-0.8,1.1-0.8,1.2-2,3.2
		c-1.1,1.7-1.7,2.7-2.7,3.9c-1.2,1.4-2.4,2.2-4.6,3.9c-2.4,1.8-2.5,1.7-3.2,2.4c-1.6,1.9-2,4-2.2,5.4c-0.2,1.3-0.7,3.8,0.4,6.6
		c0.5,1.2,1.3,3.6,3.5,4.6c0.8,0.4,1.7,0.5,3.8,0.4c3.5-0.2,5.8-0.8,7.9-1.3c2.4-0.6,5-1.1,8.2-1.2c3.9-0.1,7.2,0.6,9,0.8
		c2.1,0.4,3.6,0.8,6.5,1.1c2.4,0.3,3.6,0.2,5.1-0.3c0.8-0.3,2.4-0.8,3.5-2.1c1.2-1.5,1.3-3.1,1.3-4.8c0.1-1.1,0.1-3.8-1.5-7
		c-0.7-1.4-1.2-2.1-3.4-4.7c-5.8-7.2-6.1-8.1-8.4-10c-1.4-1.2-2.8-2.4-5-3.5C443.4,166.3,440.5,164.9,436.6,165.1L436.6,165.1
		L436.6,165.1z"/>
	<path class="st13" d="M436.9,167.6c-1.1,0.1-2.4,0.1-3.8,0.8c-1.5,0.8-2.4,2.1-3.2,3.1c-0.8,0.9-0.7,1-1.7,2.8
		c-0.9,1.5-1.5,2.4-2.4,3.3c-1,1.2-2.1,2-4,3.4c-2.1,1.6-2.2,1.4-2.8,2.2c-1.4,1.6-2.6,4-2.9,5.2c-0.2,1.1-0.6,3.2,0.3,5.6
		c0.4,1.1,1.1,3.1,3,3.9c0.8,0.4,2.4-0.1,4.1-0.3c3-0.2,5.1-0.8,6.9-1.1c2.1-0.5,4.3-0.9,7-1c3.3-0.1,6.2,0.5,7.8,0.8
		c1.8,0.4,3.1,0.8,5.5,0.9c2.1,0.2,4.6,1,5.7,0.7c0.8-0.2,2-0.8,3-2c1-1.2,0.8-3.9,0.8-5.4c0.1-0.9-0.8-3-2.4-5.7
		c-0.8-1.3-1.1-1.8-2.9-4c-5-6.2-5.2-6.9-7.2-8.6c-1.2-1-2.4-2.1-4.3-3C442.7,168.6,440.2,167.4,436.9,167.6L436.9,167.6
		L436.9,167.6z"/>
</g>
<g id="arrow">
	<path class="st14" d="M344.3,170.4l-57.5-26.5l7,13.8H229c0,0-1.9,6.2-1.9,12.2c0,6,1.9,10.9,1.9,10.9h66l-8.2,16.2L344.3,170.4
		L344.3,170.4L344.3,170.4z"/>
	
		<linearGradient id="SVGID_00000170981196523922586090000015256210648314163599_" gradientUnits="userSpaceOnUse" x1="284.04" y1="907.98" x2="284.04" y2="864.74" gradientTransform="matrix(1 0 0 1 0 -715.91)">
		<stop  offset="0" style="stop-color:#542913"/>
		<stop  offset="0.45" style="stop-color:#542913;stop-opacity:0.7"/>
		<stop  offset="0.58" style="stop-color:#E03D15;stop-opacity:0.5"/>
		<stop  offset="1" style="stop-color:#E03D15;stop-opacity:0.5"/>
	</linearGradient>
	<path style="fill:url(#SVGID_00000170981196523922586090000015256210648314163599_);" d="M298.8,178.4h-68.1
		c-0.5-1.8-1.3-5-1.3-8.5c0-3.8,0.8-7.7,1.4-9.9h66.8l-5.6-11.2l46.8,21.6l-46.8,21.6L298.8,178.4L298.8,178.4L298.8,178.4
		L298.8,178.4z"/>
	<path class="st16" d="M303.8,175.3h-70.7c-0.3-1.5-0.6-3.4-0.6-5.4c0-2.4,0.4-4.8,0.8-6.8h69.3l-3.9-7.8l32.6,15.1l-32.6,15.1
		L303.8,175.3L303.8,175.3L303.8,175.3z"/>
	<path class="st17" d="M298.8,178.4h-68.1c-0.5-1.8-1.3-5-1.3-8.5c0-3.8,0.8-7.7,1.4-9.9h66.8l-5.6-11.2l46.8,21.6l-46.8,21.6
		L298.8,178.4L298.8,178.4L298.8,178.4L298.8,178.4z"/>
</g>
<path class="st18" d="M267.7,309.2v-5.6H281v5.6H267.7L267.7,309.2z"/>
<g id="plant" class="st3">
	
		<linearGradient id="SVGID_00000136392803045959839860000001204280912852835486_" gradientUnits="userSpaceOnUse" x1="336.7157" y1="1285.8086" x2="336.7157" y2="1199.9148" gradientTransform="matrix(1 0 0 1 0 -936.55)">
		<stop  offset="0" style="stop-color:#FFDC15"/>
		<stop  offset="0" style="stop-color:#FFDB16"/>
		<stop  offset="5.000000e-02" style="stop-color:#F9BB1F"/>
		<stop  offset="0.1" style="stop-color:#F59C1B"/>
		<stop  offset="0.16" style="stop-color:#EF7B1B"/>
		<stop  offset="0.22" style="stop-color:#E86212"/>
		<stop  offset="0.27" style="stop-color:#E84B1F"/>
		<stop  offset="0.34" style="stop-color:#E63A21"/>
		<stop  offset="0.41" style="stop-color:#E63323"/>
		<stop  offset="0.5" style="stop-color:#E63023"/>
		<stop  offset="0.59" style="stop-color:#E63323"/>
		<stop  offset="0.66" style="stop-color:#E63A21"/>
		<stop  offset="0.73" style="stop-color:#E84B1F"/>
		<stop  offset="0.78" style="stop-color:#E86212"/>
		<stop  offset="0.84" style="stop-color:#EF7B1B"/>
		<stop  offset="0.9" style="stop-color:#F59C1B"/>
		<stop  offset="0.95" style="stop-color:#F9BB1F"/>
		<stop  offset="1" style="stop-color:#FFDB16"/>
		<stop  offset="1" style="stop-color:#FFDC15"/>
	</linearGradient>
	
		<rect x="293.8" y="263.4" style="opacity:0.4;fill:url(#SVGID_00000136392803045959839860000001204280912852835486_);enable-background:new    ;" width="85.9" height="85.9"/>
	
		<linearGradient id="SVGID_00000071543061848916995960000009656029674819355056_" gradientUnits="userSpaceOnUse" x1="336.7219" y1="1283.5646" x2="336.7219" y2="1202.1588" gradientTransform="matrix(1 0 0 1 0 -936.55)">
		<stop  offset="0" style="stop-color:#FFDC15"/>
		<stop  offset="0" style="stop-color:#FFDB16"/>
		<stop  offset="5.000000e-02" style="stop-color:#F9BB1F"/>
		<stop  offset="0.1" style="stop-color:#F59C1B"/>
		<stop  offset="0.16" style="stop-color:#EF7B1B"/>
		<stop  offset="0.22" style="stop-color:#E86212"/>
		<stop  offset="0.27" style="stop-color:#E84B1F"/>
		<stop  offset="0.34" style="stop-color:#E63A21"/>
		<stop  offset="0.41" style="stop-color:#E63323"/>
		<stop  offset="0.5" style="stop-color:#E63023"/>
		<stop  offset="0.59" style="stop-color:#E63323"/>
		<stop  offset="0.66" style="stop-color:#E63A21"/>
		<stop  offset="0.73" style="stop-color:#E84B1F"/>
		<stop  offset="0.78" style="stop-color:#E86212"/>
		<stop  offset="0.84" style="stop-color:#EF7B1B"/>
		<stop  offset="0.9" style="stop-color:#F59C1B"/>
		<stop  offset="0.95" style="stop-color:#F9BB1F"/>
		<stop  offset="1" style="stop-color:#FFDB16"/>
		<stop  offset="1" style="stop-color:#FFDC15"/>
	</linearGradient>
	
		<rect x="296" y="265.6" style="fill:url(#SVGID_00000071543061848916995960000009656029674819355056_);" width="81.4" height="81.4"/>
	<rect x="301.1" y="270.4" class="st8" width="71.5" height="71.5"/>
	
		<linearGradient id="SVGID_00000155128021187890899720000015212044677424639908_" gradientUnits="userSpaceOnUse" x1="-1041.9775" y1="-1305.0168" x2="-994.3642" y2="-1257.4095" gradientTransform="matrix(0.7071 -0.7071 -0.7071 -0.7071 150.852 -1319.8319)">
		<stop  offset="0" style="stop-color:#0C6835"/>
		<stop  offset="4.000000e-02" style="stop-color:#0A6B36"/>
		<stop  offset="8.000000e-02" style="stop-color:#047638"/>
		<stop  offset="0.13" style="stop-color:#078738"/>
		<stop  offset="0.15" style="stop-color:#058F39"/>
		<stop  offset="0.35" style="stop-color:#34993D"/>
		<stop  offset="0.76" style="stop-color:#5EAF47"/>
		<stop  offset="1" style="stop-color:#6EB74A"/>
	</linearGradient>
	
		<rect x="303.2" y="272.4" style="fill:url(#SVGID_00000155128021187890899720000015212044677424639908_);" width="67.3" height="67.3"/>
	<rect x="306.5" y="275.7" class="st22" width="60.8" height="60.8"/>
	<path id="leaf" class="st23" d="M336.8,290.7c-8.7,1.2-15.4,6.9-15.4,15.4c0,2.1,0.4,4.1,1.1,5.9c-1.6,1.1-4,2.5-5.1,2.9
		c-2,0.7-6,0.2-6.2,0.6c-0.2,0.3,1.1,4,1.6,4.1c0.5,0.2,4.1,0.2,6.2-0.6c1.5-0.5,4.2-2.2,5.7-3.4c2.8,3.6,7.2,5.8,12,5.8
		c8.5,0,15.2-5.3,15.2-13.8c0-3.3,0.8-7.4,2-10c1.3-2.9,8.1-4.7,8.1-4.7C361.6,290.7,340.3,290.2,336.8,290.7L336.8,290.7z"/>
	<path id="darker-2" class="st24" d="M370.5,339.7h-67.3v-36.9c0,0,21.2,3.3,33.6,3.3s33.7-3.3,33.7-3.3V339.7L370.5,339.7z"/>
</g>
<g id="plant-2" class="st3">
	
		<linearGradient id="SVGID_00000060014849924491163070000011558744293921253761_" gradientUnits="userSpaceOnUse" x1="424.0174" y1="1285.8086" x2="424.0174" y2="1199.9148" gradientTransform="matrix(1 0 0 1 0 -936.55)">
		<stop  offset="0" style="stop-color:#FFDC15"/>
		<stop  offset="0" style="stop-color:#FFDB16"/>
		<stop  offset="5.000000e-02" style="stop-color:#F9BB1F"/>
		<stop  offset="0.1" style="stop-color:#F59C1B"/>
		<stop  offset="0.16" style="stop-color:#EF7B1B"/>
		<stop  offset="0.22" style="stop-color:#E86212"/>
		<stop  offset="0.27" style="stop-color:#E84B1F"/>
		<stop  offset="0.34" style="stop-color:#E63A21"/>
		<stop  offset="0.41" style="stop-color:#E63323"/>
		<stop  offset="0.5" style="stop-color:#E63023"/>
		<stop  offset="0.59" style="stop-color:#E63323"/>
		<stop  offset="0.66" style="stop-color:#E63A21"/>
		<stop  offset="0.73" style="stop-color:#E84B1F"/>
		<stop  offset="0.78" style="stop-color:#E86212"/>
		<stop  offset="0.84" style="stop-color:#EF7B1B"/>
		<stop  offset="0.9" style="stop-color:#F59C1B"/>
		<stop  offset="0.95" style="stop-color:#F9BB1F"/>
		<stop  offset="1" style="stop-color:#FFDB16"/>
		<stop  offset="1" style="stop-color:#FFDC15"/>
	</linearGradient>
	
		<rect x="381.1" y="263.4" style="opacity:0.4;fill:url(#SVGID_00000060014849924491163070000011558744293921253761_);enable-background:new    ;" width="85.9" height="85.9"/>
	
		<linearGradient id="SVGID_00000109708022924341190090000013836995488621697421_" gradientUnits="userSpaceOnUse" x1="424.0236" y1="1283.5646" x2="424.0236" y2="1202.1588" gradientTransform="matrix(1 0 0 1 0 -936.55)">
		<stop  offset="0" style="stop-color:#FFDC15"/>
		<stop  offset="0" style="stop-color:#FFDB16"/>
		<stop  offset="5.000000e-02" style="stop-color:#F9BB1F"/>
		<stop  offset="0.1" style="stop-color:#F59C1B"/>
		<stop  offset="0.16" style="stop-color:#EF7B1B"/>
		<stop  offset="0.22" style="stop-color:#E86212"/>
		<stop  offset="0.27" style="stop-color:#E84B1F"/>
		<stop  offset="0.34" style="stop-color:#E63A21"/>
		<stop  offset="0.41" style="stop-color:#E63323"/>
		<stop  offset="0.5" style="stop-color:#E63023"/>
		<stop  offset="0.59" style="stop-color:#E63323"/>
		<stop  offset="0.66" style="stop-color:#E63A21"/>
		<stop  offset="0.73" style="stop-color:#E84B1F"/>
		<stop  offset="0.78" style="stop-color:#E86212"/>
		<stop  offset="0.84" style="stop-color:#EF7B1B"/>
		<stop  offset="0.9" style="stop-color:#F59C1B"/>
		<stop  offset="0.95" style="stop-color:#F9BB1F"/>
		<stop  offset="1" style="stop-color:#FFDB16"/>
		<stop  offset="1" style="stop-color:#FFDC15"/>
	</linearGradient>
	
		<rect x="383.3" y="265.6" style="fill:url(#SVGID_00000109708022924341190090000013836995488621697421_);" width="81.4" height="81.4"/>
	<rect x="388.4" y="270.4" class="st8" width="71.5" height="71.5"/>
	
		<linearGradient id="SVGID_00000069397675402800344330000001426268977749891506_" gradientUnits="userSpaceOnUse" x1="-980.246" y1="-1366.7484" x2="-932.6326" y2="-1319.1412" gradientTransform="matrix(0.7071 -0.7071 -0.7071 -0.7071 150.852 -1319.8319)">
		<stop  offset="0" style="stop-color:#0C6835"/>
		<stop  offset="4.000000e-02" style="stop-color:#0A6B36"/>
		<stop  offset="8.000000e-02" style="stop-color:#047638"/>
		<stop  offset="0.13" style="stop-color:#078738"/>
		<stop  offset="0.15" style="stop-color:#058F39"/>
		<stop  offset="0.35" style="stop-color:#34993D"/>
		<stop  offset="0.76" style="stop-color:#5EAF47"/>
		<stop  offset="1" style="stop-color:#6EB74A"/>
	</linearGradient>
	
		<rect x="390.5" y="272.4" style="fill:url(#SVGID_00000069397675402800344330000001426268977749891506_);" width="67.3" height="67.3"/>
	<rect x="393.8" y="275.7" class="st22" width="60.8" height="60.8"/>
	<path id="leaf-2" class="st23" d="M424.1,290.7c-8.7,1.2-15.4,6.9-15.4,15.4c0,2.1,0.4,4.1,1.1,5.9c-1.6,1.1-4,2.5-5.1,2.9
		c-2,0.7-6,0.2-6.2,0.6c-0.2,0.3,1.1,4,1.6,4.1c0.5,0.2,4.1,0.2,6.2-0.6c1.5-0.5,4.2-2.2,5.7-3.4c2.8,3.6,7.2,5.8,12,5.8
		c8.5,0,15.2-5.3,15.2-13.8c0-3.3,0.8-7.4,2-10c1.3-2.9,8.1-4.7,8.1-4.7C448.9,290.7,427.6,290.2,424.1,290.7L424.1,290.7z"/>
	<path id="darker-3" class="st24" d="M457.8,339.7h-67.3v-36.9c0,0,21.2,3.3,33.6,3.3s33.7-3.3,33.7-3.3V339.7z"/>
</g>
</svg>
