<?xml version="1.0" encoding="utf-8"?>
<!-- Generator: Adobe Illustrator 27.5.0, SVG Export Plug-In . SVG Version: 6.00 Build 0)  -->
<svg version="1.1" id="Layer" xmlns="http://www.w3.org/2000/svg" xmlns:xlink="http://www.w3.org/1999/xlink" x="0px" y="0px"
	 viewBox="0 0 721 379.9" style="enable-background:new 0 0 721 379.9;" xml:space="preserve">
<style type="text/css">
	.st0{fill:#FFFFFF;fill-opacity:0;}
	.st1{opacity:0.4;}
	.st2{opacity:0.4;fill:url(#SVGID_1_);enable-background:new    ;}
	.st3{fill:url(#SVGID_00000153685093433050602890000007568787267991387063_);}
	.st4{fill:#030404;}
	.st5{fill:url(#SVGID_00000067213247100941129630000007982774776809693089_);}
	.st6{fill:#4BAD39;}
	.st7{fill:#0D582A;stroke:#1E4523;stroke-width:3.68;stroke-miterlimit:10;}
	.st8{opacity:5.000000e-02;fill:#030404;enable-background:new    ;}
	
		.st9{fill:url(#SVGID_00000132790321528052052700000008933412232181569937_);stroke:#020303;stroke-width:2.81;stroke-miterlimit:10;}
	.st10{fill:none;stroke:#FFFFFF;stroke-width:2.81;stroke-miterlimit:10;}
	.st11{opacity:0.5;fill:url(#SVGID_00000178920020853405240230000010914801309139096208_);enable-background:new    ;}
	.st12{fill:#020303;}
	.st13{fill:url(#SVGID_00000158010890128099929980000006198845082132236162_);}
	.st14{fill:#946137;}
	.st15{fill:#332116;}
	.st16{opacity:0.15;fill:#020303;enable-background:new    ;}
	
		.st17{fill:url(#SVGID_00000049196288646703397940000007299088624569488824_);stroke:#020303;stroke-width:2.81;stroke-miterlimit:10;}
	.st18{opacity:0.5;fill:url(#SVGID_00000047058285170032961010000011041280830051527091_);enable-background:new    ;}
	
		.st19{fill:url(#SVGID_00000065051365206938633020000000247916994028670889_);stroke:#020303;stroke-width:2.81;stroke-miterlimit:10;}
	.st20{opacity:0.5;fill:url(#SVGID_00000016784929891605380780000004643847812553080217_);enable-background:new    ;}
</style>
<rect x="0.5" y="0.5" class="st0" width="720" height="378.9"/>
<g id="plant" class="st1">
	
		<linearGradient id="SVGID_1_" gradientUnits="userSpaceOnUse" x1="537.0037" y1="1303.4283" x2="537.0037" y2="1214.6183" gradientTransform="matrix(1 0 0 1 0 -936.55)">
		<stop  offset="0" style="stop-color:#FFDC15"/>
		<stop  offset="0" style="stop-color:#FFDB16"/>
		<stop  offset="5.000000e-02" style="stop-color:#F9BB24"/>
		<stop  offset="0.1" style="stop-color:#F59D1E"/>
		<stop  offset="0.16" style="stop-color:#EF7C1E"/>
		<stop  offset="0.22" style="stop-color:#E86312"/>
		<stop  offset="0.27" style="stop-color:#E94C21"/>
		<stop  offset="0.34" style="stop-color:#E63B23"/>
		<stop  offset="0.41" style="stop-color:#E63624"/>
		<stop  offset="0.5" style="stop-color:#E63324"/>
		<stop  offset="0.59" style="stop-color:#E63624"/>
		<stop  offset="0.66" style="stop-color:#E63B23"/>
		<stop  offset="0.73" style="stop-color:#E94C21"/>
		<stop  offset="0.78" style="stop-color:#E86312"/>
		<stop  offset="0.84" style="stop-color:#EF7C1E"/>
		<stop  offset="0.9" style="stop-color:#F59D1E"/>
		<stop  offset="0.95" style="stop-color:#F9BB24"/>
		<stop  offset="1" style="stop-color:#FFDB16"/>
		<stop  offset="1" style="stop-color:#FFDC15"/>
	</linearGradient>
	<rect x="492.6" y="278.1" class="st2" width="88.8" height="88.8"/>
	
		<linearGradient id="SVGID_00000183225726553314499860000006997553389941827262_" gradientUnits="userSpaceOnUse" x1="537.0165" y1="1300.1583" x2="537.0165" y2="1217.8883" gradientTransform="matrix(1 0 0 1 0 -936.55)">
		<stop  offset="0" style="stop-color:#FFDC15"/>
		<stop  offset="0" style="stop-color:#FFDB16"/>
		<stop  offset="5.000000e-02" style="stop-color:#F9BB24"/>
		<stop  offset="0.1" style="stop-color:#F59D1E"/>
		<stop  offset="0.16" style="stop-color:#EF7C1E"/>
		<stop  offset="0.22" style="stop-color:#E86312"/>
		<stop  offset="0.27" style="stop-color:#E94C21"/>
		<stop  offset="0.34" style="stop-color:#E63B23"/>
		<stop  offset="0.41" style="stop-color:#E63624"/>
		<stop  offset="0.5" style="stop-color:#E63324"/>
		<stop  offset="0.59" style="stop-color:#E63624"/>
		<stop  offset="0.66" style="stop-color:#E63B23"/>
		<stop  offset="0.73" style="stop-color:#E94C21"/>
		<stop  offset="0.78" style="stop-color:#E86312"/>
		<stop  offset="0.84" style="stop-color:#EF7C1E"/>
		<stop  offset="0.9" style="stop-color:#F59D1E"/>
		<stop  offset="0.95" style="stop-color:#F9BB24"/>
		<stop  offset="1" style="stop-color:#FFDB16"/>
		<stop  offset="1" style="stop-color:#FFDC15"/>
	</linearGradient>
	
		<rect x="495.9" y="281.3" style="fill:url(#SVGID_00000183225726553314499860000006997553389941827262_);" width="82.3" height="82.3"/>
	<rect x="500.2" y="285.7" class="st4" width="73.7" height="73.7"/>
	
		<linearGradient id="SVGID_00000096780813193567529140000002041028963133194157_" gradientUnits="userSpaceOnUse" x1="-911.7523" y1="2540.1094" x2="-862.6553" y2="2491.0125" gradientTransform="matrix(0.7071 -0.7071 0.7071 0.7071 -614.3481 -2083.542)">
		<stop  offset="0" style="stop-color:#116A37"/>
		<stop  offset="4.000000e-02" style="stop-color:#156D38"/>
		<stop  offset="8.000000e-02" style="stop-color:#0A783A"/>
		<stop  offset="0.13" style="stop-color:#148837"/>
		<stop  offset="0.15" style="stop-color:#0F9039"/>
		<stop  offset="0.35" style="stop-color:#38993D"/>
		<stop  offset="0.76" style="stop-color:#61B149"/>
		<stop  offset="1" style="stop-color:#70B74B"/>
	</linearGradient>
	
		<rect x="502.4" y="287.9" style="fill:url(#SVGID_00000096780813193567529140000002041028963133194157_);" width="69.4" height="69.4"/>
	<rect x="505.7" y="291.2" class="st6" width="62.7" height="62.7"/>
	<path id="leaf" class="st7" d="M537,306.7c-9,1.2-15.8,7.1-15.8,15.8c0,2.1,0.4,4.2,1.2,6.1c-1.7,1.1-4.1,2.6-5.3,3
		c-2.1,0.7-6.2,0.2-6.4,0.6c-0.2,0.4,1.2,4.1,1.7,4.3c0.5,0.2,4.3,0.2,6.4-0.6c1.5-0.5,4.3-2.3,5.9-3.5c2.9,3.7,7.4,6,12.4,6
		c8.7,0,15.7-5.5,15.7-14.2c0-3.4,0.8-7.6,2.1-10.3c1.4-2.9,8.4-4.8,8.4-4.8C562.6,306.7,540.6,306.2,537,306.7L537,306.7L537,306.7
		L537,306.7L537,306.7z"/>
	<path id="darker" class="st8" d="M571.8,357.3h-69.4v-38c0,0,21.9,3.4,34.7,3.4s34.7-3.4,34.7-3.4V357.3z"/>
</g>
<path class="st1" d="M427,326.2v-8.7h21v8.7H427z"/>
<g id="tempIcon">
	
		<linearGradient id="SVGID_00000095337733347500812280000012380525895673985939_" gradientUnits="userSpaceOnUse" x1="118.79" y1="1063.48" x2="118.79" y2="865.72" gradientTransform="matrix(1 0 0 1 0 -768.91)">
		<stop  offset="8.000000e-02" style="stop-color:#42C0F0"/>
		<stop  offset="0.15" style="stop-color:#51A5D4"/>
		<stop  offset="0.23" style="stop-color:#5C84B3"/>
		<stop  offset="0.3" style="stop-color:#62699B"/>
		<stop  offset="0.37" style="stop-color:#66558B"/>
		<stop  offset="0.42" style="stop-color:#674880"/>
		<stop  offset="0.46" style="stop-color:#67447D"/>
		<stop  offset="0.55" style="stop-color:#903D60"/>
		<stop  offset="0.67" style="stop-color:#B6303B"/>
		<stop  offset="0.75" style="stop-color:#CC2021"/>
		<stop  offset="0.79" style="stop-color:#D4161A"/>
	</linearGradient>
	
		<path style="fill:url(#SVGID_00000095337733347500812280000012380525895673985939_);stroke:#020303;stroke-width:2.81;stroke-miterlimit:10;" d="
		M131.9,242.1V109.9c0-7.2-6-13.1-13.1-13.1s-13.1,6-13.1,13.1v131.8c-8.7,4.8-14.9,14-14.9,24.8c0,15.5,12.5,28,28,28
		s28-12.5,28-28C146.8,255.8,140.9,246.5,131.9,242.1L131.9,242.1z"/>
	<line class="st10" x1="113.1" y1="125.4" x2="124.7" y2="125.4"/>
	<line class="st10" x1="113.1" y1="162.1" x2="124.7" y2="162.1"/>
	<line class="st10" x1="113.1" y1="195.5" x2="124.7" y2="195.5"/>
	<line class="st10" x1="113.1" y1="226.6" x2="124.7" y2="226.6"/>
	<line class="st10" x1="113.1" y1="265.9" x2="124.7" y2="265.9"/>
	
		<linearGradient id="SVGID_00000129896672914426879680000016923439485892874383_" gradientUnits="userSpaceOnUse" x1="110.695" y1="1028.245" x2="100.035" y2="1017.585" gradientTransform="matrix(1 0 0 1 0 -768.91)">
		<stop  offset="0" style="stop-color:#1F1F1D;stop-opacity:0"/>
		<stop  offset="1" style="stop-color:#FFFFFF"/>
	</linearGradient>
	<path style="opacity:0.5;fill:url(#SVGID_00000129896672914426879680000016923439485892874383_);enable-background:new    ;" d="
		M110.7,259.1c-4.2,4.5-10.1,5.4-13.1,2.7c-3-3-1.8-8.9,2.4-13.1s10.1-5.4,13.1-2.4S115.2,254.9,110.7,259.1z"/>
</g>
<g id="steel">
	<rect x="484.6" y="112.3" class="st12" width="116.2" height="116.2"/>
	
		<linearGradient id="SVGID_00000169527952602235449270000000271652918851067023_" gradientUnits="userSpaceOnUse" x1="-815.3773" y1="-1369.6138" x2="-737.942" y2="-1292.1786" gradientTransform="matrix(0.7071 -0.7071 -0.7071 -0.7071 150.852 -1319.8319)">
		<stop  offset="0" style="stop-color:#452B1A"/>
		<stop  offset="5.000000e-02" style="stop-color:#583519"/>
		<stop  offset="0.1" style="stop-color:#683E15"/>
		<stop  offset="0.32" style="stop-color:#76481E"/>
		<stop  offset="0.75" style="stop-color:#8C5A31"/>
		<stop  offset="1" style="stop-color:#946137"/>
	</linearGradient>
	
		<rect x="488" y="115.7" style="fill:url(#SVGID_00000169527952602235449270000000271652918851067023_);" width="109.5" height="109.5"/>
	<rect x="493.3" y="121" class="st14" width="98.9" height="98.9"/>
	<g>
		<path class="st15" d="M553.1,203.1l2.4-45.9l-5.6-0.7l-0.8-2h-4.3l-0.8,2.1l-6.5-0.3v-11.9h7.5l0.6,2.3l3.5,0.5l0.8-2.7h7.7
			l1.5,1.3l1.3-1.3h9.6l1.1,1.9l1.7-1.9l7.3,6l-0.5,4.1c0,0-4-3.7-6-3.7s-4.8-0.1-4.8-0.1l-4,6.4l-2.4,0.2l2.2,45.8H553.1
			L553.1,203.1z"/>
		<polygon class="st15" points="531.3,142.4 523.5,138.1 523.4,148.8 516.3,148.8 516.3,138.1 507.4,142.2 507.4,155.3 515.7,159.3 
			512.8,203.1 526.1,203.1 523.5,159.3 531.3,155.8 		"/>
	</g>
	<path id="darker-2" class="st16" d="M597.5,225.2H488v-60c0,0,34.5,5.3,54.7,5.3s54.8-5.3,54.8-5.3V225.2z"/>
</g>
<g id="tempIcon-2">
	
		<linearGradient id="SVGID_00000157291147794250431630000011905308139105975734_" gradientUnits="userSpaceOnUse" x1="203.29" y1="1063.48" x2="203.29" y2="865.72" gradientTransform="matrix(1 0 0 1 0 -768.91)">
		<stop  offset="8.000000e-02" style="stop-color:#42C0F0"/>
		<stop  offset="0.15" style="stop-color:#51A5D4"/>
		<stop  offset="0.23" style="stop-color:#5C84B3"/>
		<stop  offset="0.3" style="stop-color:#62699B"/>
		<stop  offset="0.37" style="stop-color:#66558B"/>
		<stop  offset="0.42" style="stop-color:#674880"/>
		<stop  offset="0.46" style="stop-color:#67447D"/>
		<stop  offset="0.55" style="stop-color:#903D60"/>
		<stop  offset="0.67" style="stop-color:#B6303B"/>
		<stop  offset="0.75" style="stop-color:#CC2021"/>
		<stop  offset="0.79" style="stop-color:#D4161A"/>
	</linearGradient>
	
		<path style="fill:url(#SVGID_00000157291147794250431630000011905308139105975734_);stroke:#020303;stroke-width:2.81;stroke-miterlimit:10;" d="
		M216.4,242.1V109.9c0-7.2-6-13.1-13.1-13.1s-13.1,6-13.1,13.1v131.8c-8.6,4.8-14.9,14-14.9,24.8c0,15.5,12.5,28,28,28
		s28-12.5,28-28C231.3,255.8,225.4,246.5,216.4,242.1L216.4,242.1z"/>
	<line class="st10" x1="197.6" y1="125.4" x2="209.2" y2="125.4"/>
	<line class="st10" x1="197.6" y1="162.1" x2="209.2" y2="162.1"/>
	<line class="st10" x1="197.6" y1="195.5" x2="209.2" y2="195.5"/>
	<line class="st10" x1="197.6" y1="226.6" x2="209.2" y2="226.6"/>
	<line class="st10" x1="197.6" y1="265.9" x2="209.2" y2="265.9"/>
	
		<linearGradient id="SVGID_00000183230695682336871720000014986894450719800452_" gradientUnits="userSpaceOnUse" x1="195.195" y1="1028.245" x2="184.535" y2="1017.585" gradientTransform="matrix(1 0 0 1 0 -768.91)">
		<stop  offset="0" style="stop-color:#1F1F1D;stop-opacity:0"/>
		<stop  offset="1" style="stop-color:#FFFFFF"/>
	</linearGradient>
	<path style="opacity:0.5;fill:url(#SVGID_00000183230695682336871720000014986894450719800452_);enable-background:new    ;" d="
		M195.2,259.1c-4.2,4.5-10.1,5.4-13.1,2.7c-3-3-1.8-8.9,2.4-13.1s10.1-5.4,13.1-2.4S199.7,254.9,195.2,259.1z"/>
</g>
<g id="tempIcon-3">
	
		<linearGradient id="SVGID_00000173154306347000585880000011307774305485237394_" gradientUnits="userSpaceOnUse" x1="287.79" y1="1063.48" x2="287.79" y2="865.72" gradientTransform="matrix(1 0 0 1 0 -768.91)">
		<stop  offset="8.000000e-02" style="stop-color:#42C0F0"/>
		<stop  offset="0.15" style="stop-color:#51A5D4"/>
		<stop  offset="0.23" style="stop-color:#5C84B3"/>
		<stop  offset="0.3" style="stop-color:#62699B"/>
		<stop  offset="0.37" style="stop-color:#66558B"/>
		<stop  offset="0.42" style="stop-color:#674880"/>
		<stop  offset="0.46" style="stop-color:#67447D"/>
		<stop  offset="0.55" style="stop-color:#903D60"/>
		<stop  offset="0.67" style="stop-color:#B6303B"/>
		<stop  offset="0.75" style="stop-color:#CC2021"/>
		<stop  offset="0.79" style="stop-color:#D4161A"/>
	</linearGradient>
	
		<path style="fill:url(#SVGID_00000173154306347000585880000011307774305485237394_);stroke:#020303;stroke-width:2.81;stroke-miterlimit:10;" d="
		M300.9,242.1V109.9c0-7.2-6-13.1-13.1-13.1s-13.1,6-13.1,13.1v131.8c-8.6,4.8-14.9,14-14.9,24.8c0,15.5,12.5,28,28,28
		s28-12.5,28-28C315.8,255.8,309.9,246.5,300.9,242.1L300.9,242.1z"/>
	<line class="st10" x1="282.1" y1="125.4" x2="293.7" y2="125.4"/>
	<line class="st10" x1="282.1" y1="162.1" x2="293.7" y2="162.1"/>
	<line class="st10" x1="282.1" y1="195.5" x2="293.7" y2="195.5"/>
	<line class="st10" x1="282.1" y1="226.6" x2="293.7" y2="226.6"/>
	<line class="st10" x1="282.1" y1="265.9" x2="293.7" y2="265.9"/>
	
		<linearGradient id="SVGID_00000166644098875262064230000009558471375999313081_" gradientUnits="userSpaceOnUse" x1="279.695" y1="1028.245" x2="269.035" y2="1017.585" gradientTransform="matrix(1 0 0 1 0 -768.91)">
		<stop  offset="0" style="stop-color:#1F1F1D;stop-opacity:0"/>
		<stop  offset="1" style="stop-color:#FFFFFF"/>
	</linearGradient>
	<path style="opacity:0.5;fill:url(#SVGID_00000166644098875262064230000009558471375999313081_);enable-background:new    ;" d="
		M279.7,259.1c-4.2,4.5-10.1,5.4-13.1,2.7c-3-3-1.8-8.9,2.4-13.1s10.1-5.4,13.1-2.4C285.1,249.2,284.2,254.9,279.7,259.1z"/>
</g>
<path d="M452,199.6v-14.3h-25v-8l24.5-31.2h9.8v31.2h6.2v8h-6.2v14.3L452,199.6L452,199.6z M435.6,177.3h16.6v-21L435.6,177.3
	L435.6,177.3z"/>
<path class="st1" d="M466.7,321.7c-3.3-2.2-5-4.8-5-7.9c0-1.6,0.5-3.1,1.4-4.6s2.3-2.5,3.9-3.2c1.7-0.7,3.7-1.1,5.9-1.1
	c3.4,0,6,0.7,7.8,2.2c1.8,1.5,2.7,3.3,2.7,5.5c0,1.4-0.4,2.8-1.2,4.1c-0.8,1.4-2.3,2.9-4.6,4.5c4.9,2.6,7.3,5.8,7.3,9.6
	c0,2.7-1.1,5.1-3.3,7.1s-5.4,3-9.5,3c-4.1,0-7.2-0.9-9.3-2.8c-2.1-1.9-3.1-4-3.1-6.5c0-1.8,0.6-3.6,1.7-5.3
	C462.7,324.6,464.4,323,466.7,321.7L466.7,321.7z M470.1,324c-1.7,1.5-2.8,2.7-3.2,3.6s-0.6,1.9-0.6,2.9c0,2,0.7,3.5,2.1,4.6
	c1.4,1.1,2.9,1.6,4.5,1.6s3-0.4,4.2-1.3c1.2-0.9,1.8-2,1.8-3.4c0-1.1-0.3-2.1-1-2.9s-2.2-1.9-4.6-3.2L470.1,324L470.1,324z
	 M474.2,319.3c2.3-1.8,3.4-3.7,3.4-5.7c0-1.3-0.5-2.4-1.4-3.2c-1-0.8-2.2-1.2-3.7-1.2s-2.7,0.4-3.5,1.1c-0.9,0.7-1.3,1.6-1.3,2.7
	c0,0.9,0.4,1.8,1.1,2.7S471.3,317.7,474.2,319.3L474.2,319.3z"/>
</svg>
