<?xml version="1.0" encoding="utf-8"?>
<!-- Generator: Adobe Illustrator 27.5.0, SVG Export Plug-In . SVG Version: 6.00 Build 0)  -->
<svg version="1.1" id="Layer" xmlns="http://www.w3.org/2000/svg" xmlns:xlink="http://www.w3.org/1999/xlink" x="0px" y="0px"
	 viewBox="0 0 721 379.9" style="enable-background:new 0 0 721 379.9;" xml:space="preserve">
<style type="text/css">
	.st0{fill:#FFFFFF;fill-opacity:0;}
	.st1{fill:#030404;}
	.st2{fill:url(#SVGID_1_);}
	.st3{fill:#98C32C;}
	.st4{fill:#3F4B22;}
	.st5{opacity:0.12;fill:#030404;enable-background:new    ;}
	.st6{opacity:0.5;fill:#E03F19;enable-background:new    ;}
	.st7{fill:url(#SVGID_00000183942418625309261670000011247923691981226415_);}
	.st8{fill:#CF1820;}
	.st9{fill:none;stroke:#030304;stroke-width:1.4558;stroke-miterlimit:10;}
	
		.st10{fill:url(#SVGID_00000097482390354055507130000016907207363508222645_);stroke:#030404;stroke-width:2.3745;stroke-miterlimit:10;}
	.st11{fill:url(#SVGID_00000055696757146970263200000010648169863136806029_);}
	.st12{fill:none;stroke:#030404;stroke-width:3.5657;stroke-miterlimit:10;}
	.st13{fill:none;stroke:#030404;stroke-width:1.775;stroke-miterlimit:10;}
	.st14{fill:none;stroke:#030404;stroke-width:2.3745;stroke-linecap:square;stroke-miterlimit:10;}
	.st15{opacity:0.31;fill:url(#darker_00000013910451453072347580000006955398892592577696_);enable-background:new    ;}
	.st16{fill:url(#SVGID_00000124152672530762917160000001848207689405368511_);}
	.st17{fill:url(#SVGID_00000119099479983023896180000000552599038610849923_);}
	.st18{fill:url(#SVGID_00000104685272390528772280000008801025170833431481_);}
	.st19{fill:url(#SVGID_00000016036686944091349060000007679372551858713245_);}
	.st20{fill:url(#SVGID_00000153679245704163583380000007643441724563597491_);}
</style>
<rect x="0.5" y="0.5" class="st0" width="720" height="378.9"/>
<g>
	<g>
		<g id="microbe-4">
			<rect x="370.6" y="9.6" class="st1" width="75.4" height="75.4"/>
			
				<linearGradient id="SVGID_1_" gradientUnits="userSpaceOnUse" x1="-1875.4867" y1="-3495.4329" x2="-1825.2058" y2="-3445.1519" gradientTransform="matrix(0.7071 -0.7071 -0.7071 -0.7071 -737.1477 -3714.9023)">
				<stop  offset="0" style="stop-color:#3F4B22"/>
				<stop  offset="0.14" style="stop-color:#4D5F26"/>
				<stop  offset="0.42" style="stop-color:#6B862B"/>
				<stop  offset="0.66" style="stop-color:#83A530"/>
				<stop  offset="0.86" style="stop-color:#8FB923"/>
				<stop  offset="1" style="stop-color:#98C32C"/>
			</linearGradient>
			<rect x="372.8" y="11.8" class="st2" width="71.1" height="71.1"/>
			<rect x="376.3" y="15.2" class="st3" width="64.2" height="64.2"/>
			<g id="microbes-3">
				<polygon class="st4" points="409.1,53.7 406.1,54.2 406.5,57.2 403.5,56.7 403,59.7 400.3,58.3 398.9,61 396.8,58.9 394.7,61.2 
					393.2,58.5 390.5,59.9 389.9,56.9 386.9,57.7 387.2,54.6 384.2,54.3 385.4,51.5 382.5,50.4 384.5,48 382.1,46.1 384.7,44.4 
					382.9,41.9 385.9,41 385,38.1 388,38.2 388.1,35.1 391,36 391.9,33.2 394.4,34.9 396.2,32.4 398,34.9 400.4,32.9 401.5,35.8 
					404.3,34.8 404.5,37.8 407.5,37.6 406.8,40.5 409.8,41.3 408.2,43.9 410.9,45.4 408.6,47.5 410.6,49.7 407.8,51 				"/>
				<polygon class="st4" points="435.2,41.6 434.2,41.9 434.2,43.4 432.6,42.9 431.7,43.8 430.1,42.8 428.5,43.2 424.1,43.8 
					422.2,43.6 420.3,39.9 418.1,39.3 416.4,37.4 414.3,36.4 412.6,34.4 410.6,33.4 409.4,31.2 407.7,29.8 407,28 405.9,26.7 
					405.7,25.4 404.6,24.1 405.5,23.2 405.5,21.9 406.4,21.9 407.3,20.9 408.6,21.5 410.7,19.6 412.2,20.8 414,20.9 415.9,22.2 
					417.9,22.8 419.1,25.8 421.4,26.7 423,28.6 425.2,29.8 426.5,31.7 428.5,33.1 431.9,34.9 433.6,36.4 433.9,37.8 435,39.1 
					434.6,40.3 				"/>
				<polygon class="st4" points="431.9,56 432,56.4 432.5,57.3 431.7,57.9 431.7,58.9 429.6,59.7 428.9,61 426.3,63.5 423.4,64.8 
					419.7,66 417.4,67.4 414.4,68 411.9,69.2 408.9,69.7 406.5,70.9 403.8,71 401.1,71.8 399.2,71.7 397.1,72.2 395.8,71.9 
					393.9,72.2 393.8,71.3 393.3,71 393.4,70.1 393.3,69.2 394.6,68.5 394.5,66.3 396.8,65.5 398.2,64.3 400.7,63.5 403.8,62.5 
					406.4,62.1 408.9,60.8 411.8,60.3 414.5,59 417.2,58.6 420,57.7 424.1,55.7 426.8,55 428.1,55.4 430.1,55 430.9,55.5 				"/>
			</g>
			<path id="darker-3" class="st5" d="M443.9,82.9h-71.1V43.9c0,0,22.4,3.4,35.5,3.4c13.1,0,35.6-3.4,35.6-3.4L443.9,82.9
				L443.9,82.9L443.9,82.9z"/>
		</g>
		<g id="arrow-2">
			<path class="st6" d="M350.9,47.4l-37.2-17.2l4.5,8.9h-41.9c0,0-1.3,4-1.3,7.9s1.3,7,1.3,7h42.8l-5.3,10.5L350.9,47.4L350.9,47.4
				L350.9,47.4z"/>
			
				<linearGradient id="SVGID_00000178899693982441813720000013100663447125066625_" gradientUnits="userSpaceOnUse" x1="311.992" y1="-1528.9247" x2="311.992" y2="-1500.9336" gradientTransform="matrix(1 0 0 -1 0 -1467.6213)">
				<stop  offset="0" style="stop-color:#522B16"/>
				<stop  offset="0.45" style="stop-color:#522B16;stop-opacity:0.7"/>
				<stop  offset="0.58" style="stop-color:#E03F19;stop-opacity:0.5"/>
				<stop  offset="1" style="stop-color:#E03F19;stop-opacity:0.5"/>
			</linearGradient>
			<path style="fill:url(#SVGID_00000178899693982441813720000013100663447125066625_);" d="M321.5,52.4h-44.1
				c-0.3-1.1-0.8-3.3-0.8-5.5c0-2.4,0.6-5,0.9-6.4h43.3l-3.7-7.3l30.3,13.9l-30.3,14L321.5,52.4L321.5,52.4L321.5,52.4z"/>
			<path class="st8" d="M324.7,50.5h-45.8c-0.2-1-0.3-2.2-0.3-3.5c0-1.6,0.3-3.2,0.5-4.3H324l-2.5-5.1l21.1,9.7l-21.1,9.8
				L324.7,50.5L324.7,50.5L324.7,50.5z"/>
			<path class="st9" d="M321.5,52.4h-44.1c-0.3-1.1-0.8-3.3-0.8-5.5c0-2.4,0.6-5,0.9-6.4h43.3l-3.7-7.3l30.3,13.9l-30.3,14
				L321.5,52.4L321.5,52.4L321.5,52.4z"/>
		</g>
	</g>
	<g>
		<g id="tr">
			
				<linearGradient id="SVGID_00000083048050514967089620000015526413295925262214_" gradientUnits="userSpaceOnUse" x1="523.7715" y1="-1676.626" x2="523.7715" y2="-1591.0973" gradientTransform="matrix(1 0 0 -1 0 -1484.6313)">
				<stop  offset="0" style="stop-color:#95191B"/>
				<stop  offset="0.21" style="stop-color:#B13C1E"/>
				<stop  offset="0.44" style="stop-color:#CB5E26"/>
				<stop  offset="0.66" style="stop-color:#E27A34"/>
				<stop  offset="0.85" style="stop-color:#EF8E3B"/>
				<stop  offset="1" style="stop-color:#F3943D"/>
			</linearGradient>
			
				<rect x="463.3" y="106.5" style="fill:url(#SVGID_00000083048050514967089620000015526413295925262214_);stroke:#030404;stroke-width:2.3745;stroke-miterlimit:10;" width="121" height="85.5"/>
			
				<radialGradient id="SVGID_00000127022303387970733920000004317804675638790829_" cx="523.7299" cy="-1633.7366" r="48.6904" gradientTransform="matrix(1 0 0 -1 0 -1484.6313)" gradientUnits="userSpaceOnUse">
				<stop  offset="0" style="stop-color:#F3943D;stop-opacity:0.5"/>
				<stop  offset="1" style="stop-color:#D34118"/>
			</radialGradient>
			
				<rect x="467" y="110.1" style="fill:url(#SVGID_00000127022303387970733920000004317804675638790829_);" width="113.5" height="77.9"/>
			<g id="logo">
				<g>
					<circle class="st12" cx="523.7" cy="146.4" r="22"/>
					<path class="st13" d="M523.7,124.4c0,0,11.4,4.7,11.4,22s-11.4,21.9-11.4,21.9"/>
					<path class="st13" d="M523.7,124.4c0,0-11.4,4.7-11.4,22s11.4,22,11.4,22"/>
					<line class="st13" x1="523.7" y1="124.4" x2="523.7" y2="168.3"/>
					<line class="st13" x1="501.8" y1="146.4" x2="545.7" y2="146.4"/>
					<path class="st13" d="M506.6,132.5c0,0,6.4,3.3,17.1,3.3c10.7,0,17.1-3.3,17.1-3.3"/>
					<path class="st13" d="M506.6,160.6c0-0.1,6.4-3.3,17.1-3.3c10.7,0,17.1,3.3,17.1,3.3"/>
					<polygon class="st1" points="536.9,128.3 542.7,123 535.1,121.4 551.9,116.6 548,134.1 545.7,125.3 540.2,131.8 					"/>
					<polyline class="st14" points="523.7,173.3 515.9,173.3 519.2,173.3 519.2,181.2 					"/>
					<polyline class="st14" points="529.4,181.2 529.4,173.3 527.9,173.3 526,178.7 525.4,178.7 523.8,176.2 522.6,176.2 
						522.6,181.2 					"/>
					<path class="st1" d="M516.5,178.3c0,1.2-3,3-4.2,3c-1.2,0-8.3,0.5-8.3-0.7c0-1.2,7.2-3.7,8.3-3.7
						C513.5,177.1,516.5,177.2,516.5,178.3L516.5,178.3L516.5,178.3z"/>
					<path class="st1" d="M512.9,175.7c-0.7,0.6-3.3-0.4-4-1.1c-0.7-0.7-4.3-4.8-3.7-5.5c0.7-0.7,5.8,2.7,6.3,3.4
						S513.6,175.1,512.9,175.7L512.9,175.7L512.9,175.7z"/>
					<path class="st1" d="M507.6,177.1c-0.2,0.9-2.8,1.9-3.8,1.7c-0.9-0.2-8.4-0.8-8.3-1.7c0.2-0.9,8-1.9,8.9-1.7
						C505.6,175.6,507.8,176.2,507.6,177.1L507.6,177.1L507.6,177.1z"/>
					<path class="st1" d="M505.6,174.7c-0.9,0.3-3.1-1.4-3.3-2.3c-0.3-0.8-3.8-7.7-3-7.9c0.8-0.3,5.8,5.8,6.2,6.8
						C505.7,172.1,506.4,174.3,505.6,174.7L505.6,174.7L505.6,174.7z"/>
					<path class="st1" d="M500.2,174.2c-0.6,0.9-3.5,0.9-4.3,0.4c-0.8-0.5-7.8-3.8-7.3-4.8c0.6-0.9,8.5,1,9.3,1.6
						C498.8,172,500.8,173.4,500.2,174.2L500.2,174.2L500.2,174.2z"/>
					<path class="st1" d="M498.2,171.1c-1,0-2.3-2.3-2.3-3.2s-0.8-7.9,0.2-7.9c1,0,3.3,7.2,3.3,8
						C499.3,168.8,499.2,171.1,498.2,171.1L498.2,171.1z"/>
					<path class="st1" d="M493,165.2c-0.9-0.2-1.8-2.7-1.6-3.6c0.2-0.8,1-7.8,1.9-7.5c0.9,0.3,1.6,7.5,1.4,8.3
						C494.5,163.2,493.9,165.3,493,165.2L493,165.2z"/>
					<path class="st1" d="M493.5,168.9c-0.8,0.6-3.5-0.3-4.1-1s-6.2-6.1-5.3-6.7s7.5,3.7,8.2,4.3
						C492.7,166.3,494.1,168.3,493.5,168.9L493.5,168.9L493.5,168.9z"/>
					<path class="st1" d="M488.9,161.6c-0.8,0.4-3.2-0.9-3.6-1.7c-0.4-0.8-4.7-6.8-3.8-7.3c0.8-0.4,6.3,4.8,6.8,5.7
						C488.7,159.1,489.7,161,488.9,161.6L488.9,161.6L488.9,161.6z"/>
					<path class="st1" d="M489.4,158.7c-0.7-0.3-1-2.8-0.7-3.6c0.3-0.8,2.2-7.7,2.9-7.3c0.7,0.3,0.1,7.5-0.2,8.3
						C491,157,490.1,159,489.4,158.7L489.4,158.7L489.4,158.7z"/>
					<path class="st1" d="M486.3,154c-0.8,0.2-2.5-1.8-2.7-2.8c-0.2-0.9-2.5-7.8-1.8-8c0.8-0.2,4.3,6.5,4.6,7.4
						C486.6,151.6,487.1,153.9,486.3,154L486.3,154L486.3,154z"/>
					<path class="st1" d="M487.7,150.9c-0.7-0.4-0.6-2.7-0.2-3.4c0.4-0.8,3-6.3,3.7-5.8s-0.9,6.8-1.3,7.3
						C489.5,149.7,488.4,151.3,487.7,150.9L487.7,150.9z"/>
					<path class="st1" d="M485.6,145.3c-0.8-0.1-1.9-2.3-1.8-3.3c0.2-0.9-0.1-7.8,0.7-7.8c0.8,0.1,2.3,7.2,2.2,8
						C486.6,143.1,486.4,145.4,485.6,145.3L485.6,145.3L485.6,145.3z"/>
					<path class="st1" d="M487.6,143c-0.5-0.5,0.3-2.8,0.9-3.3c0.7-0.5,5-5.4,5.4-4.8c0.5,0.5-3.1,6.3-3.7,6.8
						C489.7,142.2,488.1,143.6,487.6,143L487.6,143L487.6,143z"/>
					<path class="st1" d="M490.6,135.7c-0.4-0.5,0.2-2.2,0.7-2.7c0.5-0.4,4-4.3,4.3-3.8c0.3,0.5-2.3,5.1-2.9,5.6
						C492.1,135.1,491,136.1,490.6,135.7L490.6,135.7z"/>
					<path class="st1" d="M487.2,136.7c-0.6-0.2-1-2.6-0.8-3.3c0.2-0.8,1.6-7.5,2.2-7.4c0.6,0.2,0.3,7.3,0.1,8
						C488.6,135,487.9,137.1,487.2,136.7L487.2,136.7L487.2,136.7z"/>
					<path class="st1" d="M491,131.5c-0.8-0.3-1.2-2.7-0.9-3.5c0.3-0.8,1.9-7.3,2.7-6.9c0.8,0.3,0.4,7.3,0.1,8
						C492.6,129.8,491.8,131.8,491,131.5L491,131.5L491,131.5z"/>
					<path class="st1" d="M531.1,178c0,1.2,3,3,4.2,3c1.2,0,8.3,0.5,8.3-0.7c0-1.2-7.2-3.7-8.3-3.7
						C534.1,176.7,531.1,176.8,531.1,178L531.1,178L531.1,178z"/>
					<path class="st1" d="M534.7,175.3c0.7,0.6,3.3-0.4,4-1.1c0.7-0.7,4.3-4.8,3.7-5.5c-0.7-0.7-5.8,2.7-6.3,3.4
						S533.9,174.7,534.7,175.3L534.7,175.3L534.7,175.3z"/>
					<path class="st1" d="M539.9,176.7c0.2,0.9,2.8,1.9,3.8,1.7c0.9-0.2,8.4-0.8,8.3-1.7c-0.2-0.9-8-1.9-8.9-1.7
						C542,175.2,539.7,175.8,539.9,176.7L539.9,176.7L539.9,176.7z"/>
					<path class="st1" d="M541.9,174.3c0.9,0.3,3.1-1.4,3.3-2.3c0.3-0.8,3.8-7.7,2.9-7.9c-0.8-0.3-5.8,5.8-6.2,6.8
						C541.8,171.7,541.1,174.1,541.9,174.3L541.9,174.3L541.9,174.3z"/>
					<path class="st1" d="M547.3,174c0.6,0.9,3.5,0.9,4.3,0.4c0.8-0.5,7.8-3.8,7.2-4.8c-0.6-0.9-8.5,1-9.3,1.6
						C548.7,171.7,546.7,173.1,547.3,174L547.3,174L547.3,174z"/>
					<path class="st1" d="M549.3,170.8c1,0,2.3-2.3,2.3-3.2c0-0.9,0.8-7.9-0.2-7.9s-3.3,7.2-3.3,8
						C548.2,168.7,548.3,170.8,549.3,170.8L549.3,170.8z"/>
					<path class="st1" d="M554.6,164.7c0.9-0.2,1.8-2.7,1.6-3.6c-0.2-0.8-1-7.8-1.9-7.5c-0.9,0.3-1.6,7.5-1.4,8.3
						C553.1,162.9,553.7,165,554.6,164.7L554.6,164.7z"/>
					<path class="st1" d="M554.1,168.7c0.8,0.6,3.5-0.3,4.1-1c0.6-0.8,6.2-6.1,5.3-6.7s-7.5,3.7-8.2,4.3
						C554.7,166.2,553.3,168,554.1,168.7L554.1,168.7L554.1,168.7z"/>
					<path class="st1" d="M558.7,161.2c0.8,0.4,3.2-0.9,3.6-1.7s4.7-6.8,3.8-7.3c-0.8-0.4-6.3,4.8-6.8,5.7
						C558.8,158.7,557.8,160.8,558.7,161.2L558.7,161.2L558.7,161.2z"/>
					<path class="st1" d="M558.2,158.5c0.7-0.3,1.1-2.8,0.7-3.6s-2.2-7.7-2.9-7.3c-0.7,0.3-0.1,7.5,0.2,8.3
						C556.6,156.6,557.4,158.7,558.2,158.5L558.2,158.5L558.2,158.5z"/>
					<path class="st1" d="M561.2,153.7c0.8,0.2,2.5-1.8,2.7-2.8c0.2-0.9,2.6-7.8,1.8-8c-0.8-0.2-4.3,6.5-4.6,7.4
						C560.9,151.3,560.4,153.6,561.2,153.7L561.2,153.7L561.2,153.7z"/>
					<path class="st1" d="M559.8,150.6c0.7-0.4,0.7-2.7,0.2-3.4c-0.4-0.7-3.1-6.3-3.7-5.8c-0.6,0.4,0.9,6.8,1.3,7.3
						C558.1,149.4,559.2,151.1,559.8,150.6L559.8,150.6z"/>
					<path class="st1" d="M561.9,145c0.8-0.1,1.9-2.3,1.8-3.3c-0.1-0.9,0.1-7.8-0.7-7.8c-0.8,0.1-2.3,7.2-2.2,8
						C560.8,142.9,561.1,145.1,561.9,145L561.9,145L561.9,145z"/>
					<path class="st1" d="M559.9,142.7c0.5-0.5-0.3-2.8-0.9-3.3s-5-5.4-5.4-4.8c-0.5,0.5,3.1,6.3,3.7,6.8
						C557.8,141.9,559.4,143.3,559.9,142.7L559.9,142.7L559.9,142.7z"/>
					<path class="st1" d="M556.9,135.5c0.4-0.5-0.2-2.2-0.7-2.7c-0.5-0.5-4-4.3-4.3-3.8c-0.3,0.5,2.3,5.1,2.9,5.6
						C555.2,134.9,556.6,135.9,556.9,135.5L556.9,135.5z"/>
					<path class="st1" d="M560.2,136.6c0.6-0.2,1-2.6,0.8-3.3c-0.2-0.8-1.6-7.5-2.2-7.4c-0.6,0.2-0.3,7.3-0.1,8
						C558.9,134.6,559.7,136.7,560.2,136.6L560.2,136.6L560.2,136.6z"/>
					<path class="st1" d="M556.6,131.2c0.8-0.3,1.2-2.7,0.9-3.5c-0.3-0.8-1.9-7.3-2.7-6.9c-0.8,0.3-0.4,7.3-0.1,8
						C554.9,129.5,555.7,131.5,556.6,131.2L556.6,131.2L556.6,131.2z"/>
				</g>
			</g>
			
				<linearGradient id="darker_00000071529925297824630070000012273906015246002599_" gradientUnits="userSpaceOnUse" x1="523.7716" y1="-1676.5426" x2="523.7716" y2="-1622.0906" gradientTransform="matrix(1 0 0 -1 0 -1484.6313)">
				<stop  offset="0" style="stop-color:#20201E"/>
				<stop  offset="1" style="stop-color:#403E3C"/>
			</linearGradient>
			
				<path id="darker" style="opacity:0.31;fill:url(#darker_00000071529925297824630070000012273906015246002599_);enable-background:new    ;" d="
				M583.8,137.6c-1.9,3.8-33.8,9.9-60,9.9c-26.3,0-58.6-6.8-60.5-9.9v54.3h121v-53.7C584.1,137.6,583.9,137.2,583.8,137.6
				L583.8,137.6z"/>
		</g>
		<g id="arrow">
			<path class="st6" d="M442.6,149.2l-37.2-17.2l4.5,8.9h-41.8c0,0-1.3,4-1.3,7.8c0,3.8,1.3,7,1.3,7h42.7l-5.3,10.5L442.6,149.2
				L442.6,149.2L442.6,149.2z"/>
			
				<linearGradient id="SVGID_00000098909790075215272900000012948920494254288803_" gradientUnits="userSpaceOnUse" x1="403.6895" y1="-1630.7816" x2="403.6895" y2="-1602.8296" gradientTransform="matrix(1 0 0 -1 0 -1467.6213)">
				<stop  offset="0" style="stop-color:#522B16"/>
				<stop  offset="0.45" style="stop-color:#522B16;stop-opacity:0.7"/>
				<stop  offset="0.58" style="stop-color:#E03F19;stop-opacity:0.5"/>
				<stop  offset="1" style="stop-color:#E03F19;stop-opacity:0.5"/>
			</linearGradient>
			<path style="fill:url(#SVGID_00000098909790075215272900000012948920494254288803_);" d="M413.2,154.3h-44
				c-0.3-1.1-0.8-3.3-0.8-5.5c0-2.4,0.6-5,0.9-6.4h43.2l-3.7-7.3l30.3,13.9L408.8,163L413.2,154.3L413.2,154.3L413.2,154.3z"/>
			<path class="st8" d="M416.4,152.4h-45.8c-0.2-1-0.3-2.2-0.3-3.5c0-1.6,0.2-3.1,0.5-4.3h44.8l-2.5-5.1l21.1,9.8l-21.2,9.7
				L416.4,152.4L416.4,152.4L416.4,152.4z"/>
			<path class="st9" d="M413.2,154.3h-44c-0.3-1.1-0.8-3.3-0.8-5.5c0-2.4,0.6-5,0.9-6.4h43.2l-3.7-7.3l30.3,13.9L408.8,163
				L413.2,154.3L413.2,154.3L413.2,154.3z"/>
		</g>
		<g id="microbe-3">
			<rect x="274.1" y="111.5" class="st1" width="75.4" height="75.4"/>
			
				<linearGradient id="SVGID_00000141450107054840739140000015097363942060708250_" gradientUnits="userSpaceOnUse" x1="-2015.6602" y1="-3499.3232" x2="-1965.3793" y2="-3449.0422" gradientTransform="matrix(0.7071 -0.7071 -0.7071 -0.7071 -737.1477 -3714.9023)">
				<stop  offset="0" style="stop-color:#3F4B22"/>
				<stop  offset="0.14" style="stop-color:#4D5F26"/>
				<stop  offset="0.42" style="stop-color:#6B862B"/>
				<stop  offset="0.66" style="stop-color:#83A530"/>
				<stop  offset="0.86" style="stop-color:#8FB923"/>
				<stop  offset="1" style="stop-color:#98C32C"/>
			</linearGradient>
			
				<rect x="276.4" y="113.6" style="fill:url(#SVGID_00000141450107054840739140000015097363942060708250_);" width="71.1" height="71.1"/>
			<rect x="279.8" y="117.1" class="st3" width="64.2" height="64.2"/>
			<g id="microbes-2">
				<polygon class="st4" points="312.7,155.6 309.7,156 310.1,159.1 307.1,158.6 306.6,161.6 303.9,160.2 302.6,162.9 300.3,160.8 
					298.2,163.1 296.7,160.4 294.1,161.7 293.4,158.8 290.5,159.5 290.7,156.5 287.7,156.1 288.8,153.4 286.1,152.2 288,149.9 
					285.6,148 288.2,146.2 286.5,143.8 289.4,142.9 288.6,140 291.6,140 291.7,137 294.6,137.9 295.5,135.1 297.9,136.8 
					299.7,134.2 301.6,136.7 303.9,134.8 305,137.6 307.9,136.6 308,139.6 311,139.5 310.3,142.4 313.2,143.1 311.7,145.7 
					314.4,147.2 312.1,149.3 314.1,151.6 311.4,152.8 				"/>
				<polygon class="st4" points="338.8,143.5 337.8,143.8 337.8,145.2 336.2,144.7 335.2,145.6 333.6,144.6 332.1,145.1 
					327.7,145.6 325.7,145.5 323.8,141.8 321.7,141.1 319.8,139.2 317.7,138.2 316.2,136.2 314.1,135.3 312.9,133.1 311.2,131.6 
					310.6,129.9 309.3,128.6 309.2,127.1 308.2,126 309.1,125.1 309.2,123.7 310.1,123.8 310.9,122.8 312.2,123.4 314.2,121.4 
					315.8,122.6 317.7,122.7 319.4,124.1 321.6,124.6 322.7,127.6 325,128.5 326.5,130.5 328.7,131.6 330,133.6 332.1,135 
					335.5,136.8 337.2,138.3 337.3,139.6 338.5,141 338.2,142.1 				"/>
				<polygon class="st4" points="335.3,157.9 335.6,158.2 336.1,159.2 335.2,159.7 335.2,160.8 333.2,161.6 332.3,162.9 
					329.8,165.3 327,166.7 323.2,167.8 321,169.2 318,169.8 315.4,171 312.4,171.6 310.1,172.7 307.2,172.8 304.7,173.7 
					302.7,173.6 300.7,174.1 299.3,173.7 297.4,174.1 297.3,173.2 296.8,172.8 296.9,171.9 296.8,171 298.2,170.3 298.1,168.2 
					300.3,167.4 301.7,166.2 304.3,165.2 307.2,164.4 309.9,164 312.4,162.6 315.4,162.2 318.1,160.9 320.7,160.5 323.5,159.5 
					327.7,157.6 330.3,156.9 331.7,157.2 333.7,156.8 334.4,157.4 				"/>
			</g>
			<path id="darker-2" class="st5" d="M347.4,184.7h-71.1v-38.9c0,0,22.4,3.4,35.5,3.4s35.6-3.4,35.6-3.4L347.4,184.7L347.4,184.7z"
				/>
		</g>
		<g>
			<path d="M154.4,167.3c-3.6,0-6.8-0.8-9.4-2.3c-2.7-1.5-4.7-3.7-6-6.4c-1.3-2.8-2.1-6-2.1-9.5s0.7-6.7,2.1-9.5
				c1.4-2.8,3.4-4.9,6.1-6.4c2.7-1.5,5.8-2.3,9.3-2.3s6.7,0.8,9.3,2.3c2.7,1.5,4.7,3.7,6.1,6.4c1.4,2.8,2.1,6,2.1,9.5
				s-0.7,6.7-2.1,9.5c-1.4,2.8-3.4,4.9-6,6.4C161.2,166.6,157.9,167.3,154.4,167.3L154.4,167.3z M154.4,162.6c3.3,0,5.8-1.3,7.4-4.1
				s2.4-5.8,2.4-9.3s-0.8-6.7-2.4-9.3c-1.6-2.7-4.2-4.1-7.4-4.1c-3.3,0-5.8,1.3-7.4,4.1c-1.6,2.8-2.4,5.8-2.4,9.3s0.8,6.6,2.4,9.3
				C148.5,161.2,151,162.6,154.4,162.6L154.4,162.6z"/>
			<path d="M178.4,166.5V132h12.9c2.7,0,4.7,0.3,6,1c1.3,0.7,2.4,1.7,3.3,3c0.8,1.3,1.2,2.8,1.2,4.6c0,2-0.6,3.9-1.8,5.8
				c-1.2,1.8-2.8,3.2-4.9,4.2l11.3,16.2h-8.8l-8.6-14.1h-3.9v14.1L178.4,166.5L178.4,166.5L178.4,166.5z M185.1,147.6h1.7
				c2.9,0,5-0.7,6.2-2c1.2-1.3,1.7-2.8,1.7-4.3c0-1.4-0.4-2.5-1.4-3.3c-0.9-0.8-2.8-1.3-5.6-1.3h-2.5V147.6L185.1,147.6L185.1,147.6
				z"/>
		</g>
		<path d="M237.9,167.1v-5.4c3.6,1.4,6.5,2,8.8,2c2.1,0,3.8-0.6,5.1-1.6c1.3-1.1,2-2.6,2-4.4c0-1.3-0.3-2.6-1.1-3.7
			c-0.7-1.1-1.7-2-3.1-2.5c-1.4-0.5-3.4-0.9-6.3-0.9h-2.2v-4.3h1.9c2.8,0,4.8-0.2,6-0.8c1.2-0.5,2.1-1.3,2.8-2.3
			c0.7-1.1,1.1-2.2,1.1-3.3c0-1.5-0.5-2.6-1.5-3.5s-2.5-1.3-4.6-1.3c-2.6,0-5.5,0.7-8.4,2v-4.9c1.5-0.5,2.8-0.8,3.6-1.1
			c0.9-0.2,1.9-0.3,3.1-0.4c1.2-0.2,2.3-0.2,3.3-0.2c3.8,0,6.7,0.8,8.8,2.3c2.1,1.6,3.1,3.7,3.1,6.3c0,2.1-0.7,3.9-2,5.4
			c-1.3,1.5-3.3,2.7-6,3.6c2.3,0.6,4.1,1.3,5.3,2.3c1.3,1,2.2,2,2.8,3.3c0.7,1.3,1,2.7,1,4.2c0,2.8-1.1,5.1-3.3,7.3
			c-2.2,2.2-5.6,3.3-10.4,3.3c-1.3,0-2.6-0.1-4-0.2C242.2,168,240.3,167.7,237.9,167.1L237.9,167.1L237.9,167.1z"/>
	</g>
</g>
<g id="microbe-4_00000088106574271677006060000014086023155912820613_">
	<rect x="237.7" y="293.8" class="st1" width="70.5" height="70.5"/>
	
		<linearGradient id="SVGID_00000156589499147152911770000013558012746342410378_" gradientUnits="userSpaceOnUse" x1="-2168.6877" y1="-3597.1985" x2="-2121.7642" y2="-3550.2749" gradientTransform="matrix(0.7071 -0.7071 -0.7071 -0.7071 -737.1477 -3714.9023)">
		<stop  offset="0" style="stop-color:#3F4B22"/>
		<stop  offset="0.14" style="stop-color:#4D5F26"/>
		<stop  offset="0.42" style="stop-color:#6B862B"/>
		<stop  offset="0.66" style="stop-color:#83A530"/>
		<stop  offset="0.86" style="stop-color:#8FB923"/>
		<stop  offset="1" style="stop-color:#98C32C"/>
	</linearGradient>
	
		<rect x="239.8" y="295.8" style="fill:url(#SVGID_00000156589499147152911770000013558012746342410378_);" width="66.4" height="66.4"/>
	<rect x="242.9" y="299" class="st3" width="60" height="60"/>
	<g id="microbes-3_00000123441423913252263260000010118671985791209355_">
		<polygon class="st4" points="273.7,335.1 270.8,335.4 271.3,338.2 268.4,337.8 268,340.6 265.4,339.3 264.2,341.8 262.2,339.8 
			260.2,342 258.8,339.4 256.3,340.8 255.7,338 253,338.7 253.2,335.9 250.4,335.5 251.4,333 248.9,331.8 250.7,329.7 248.4,327.9 
			250.8,326.3 249.3,324 251.9,323.1 251.1,320.4 254,320.4 254,317.6 256.8,318.5 257.6,315.8 259.9,317.4 261.6,315.1 
			263.3,317.4 265.5,315.6 266.5,318.3 269.2,317.3 269.4,320.2 272.2,319.9 271.5,322.7 274.2,323.3 272.7,325.8 275.2,327.2 
			273.2,329.2 275.1,331.2 272.4,332.5 		"/>
		<polygon class="st4" points="298,323.6 297,324 297,325.3 295.6,324.9 294.7,325.7 293.2,324.8 291.8,325.2 287.6,325.7 
			285.9,325.5 284.1,322.1 282.1,321.5 280.4,319.8 278.4,318.8 276.9,317 275.1,316 273.9,314 272.3,312.6 271.8,311 270.6,309.8 
			270.4,308.4 269.5,307.4 270.3,306.5 270.3,305.3 271.2,305.3 272,304.4 273.2,304.9 275.1,303.1 276.5,304.2 278.3,304.3 
			279.9,305.5 281.9,306.1 283,308.9 285.1,309.7 286.6,311.6 288.7,312.7 289.9,314.5 291.8,315.7 295,317.4 296.5,318.9 
			296.7,320.2 297.8,321.4 297.5,322.4 		"/>
		<polygon class="st4" points="294.9,337.2 295.1,337.5 295.5,338.4 294.7,338.9 294.8,339.8 292.8,340.6 292.1,341.8 289.7,344.1 
			287,345.4 283.5,346.5 281.4,347.7 278.6,348.3 276.2,349.4 273.5,349.9 271.3,351 268.6,351.2 266.2,351.8 264.4,351.8 
			262.5,352.2 261.3,351.9 259.4,352.2 259.4,351.4 258.9,351.2 258.9,350.3 258.9,349.4 260.1,348.8 260,346.7 262.2,346 
			263.5,344.8 265.8,344.1 268.6,343.2 271.1,342.9 273.5,341.6 276.1,341.1 278.7,340 281.2,339.6 283.8,338.7 287.7,336.9 
			290.2,336.3 291.4,336.5 293.2,336.2 294,336.7 		"/>
	</g>
	<path id="darker-3_00000121243061929478349760000002473422511773838991_" class="st5" d="M306.1,362.2h-66.4v-36.4
		c0,0,20.9,3.2,33.1,3.2s33.2-3.2,33.2-3.2V362.2L306.1,362.2L306.1,362.2z"/>
</g>
<g id="microbe-4_00000102518698086343787700000003259244366893718152_">
	<rect x="325.4" y="293.8" class="st1" width="70.5" height="70.5"/>
	
		<linearGradient id="SVGID_00000174570141109160152500000006242124340515262888_" gradientUnits="userSpaceOnUse" x1="-2106.7463" y1="-3659.1399" x2="-2059.8228" y2="-3612.2163" gradientTransform="matrix(0.7071 -0.7071 -0.7071 -0.7071 -737.1477 -3714.9023)">
		<stop  offset="0" style="stop-color:#3F4B22"/>
		<stop  offset="0.14" style="stop-color:#4D5F26"/>
		<stop  offset="0.42" style="stop-color:#6B862B"/>
		<stop  offset="0.66" style="stop-color:#83A530"/>
		<stop  offset="0.86" style="stop-color:#8FB923"/>
		<stop  offset="1" style="stop-color:#98C32C"/>
	</linearGradient>
	
		<rect x="327.4" y="295.8" style="fill:url(#SVGID_00000174570141109160152500000006242124340515262888_);" width="66.4" height="66.4"/>
	<rect x="330.6" y="299" class="st3" width="60" height="60"/>
	<g id="microbes-3_00000029736991168830313650000006803014809559178940_">
		<polygon class="st4" points="361.3,335.1 358.5,335.4 358.9,338.2 356.1,337.8 355.6,340.6 353.1,339.3 351.8,341.8 349.8,339.8 
			347.9,342 346.5,339.4 344,340.8 343.4,338 340.7,338.7 340.8,335.9 338,335.5 339.1,333 336.5,331.8 338.4,329.7 336.1,327.9 
			338.4,326.3 336.9,324 339.6,323.1 338.8,320.4 341.7,320.4 341.7,317.6 344.5,318.5 345.3,315.8 347.6,317.4 349.3,315.1 
			351,317.4 353.2,315.6 354.2,318.3 356.9,317.3 357,320.2 359.8,319.9 359.2,322.7 361.9,323.3 360.4,325.8 362.9,327.2 
			360.8,329.2 362.7,331.2 360.1,332.5 		"/>
		<polygon class="st4" points="385.7,323.6 384.7,324 384.7,325.3 383.3,324.9 382.4,325.7 380.9,324.8 379.4,325.2 375.3,325.7 
			373.6,325.5 371.7,322.1 369.8,321.5 368.1,319.8 366.1,318.8 364.6,317 362.7,316 361.6,314 360,312.6 359.4,311 358.3,309.8 
			358.1,308.4 357.1,307.4 358,306.5 358,305.3 358.9,305.3 359.7,304.4 360.8,304.9 362.8,303.1 364.2,304.2 366,304.3 
			367.6,305.5 369.6,306.1 370.7,308.9 372.8,309.7 374.3,311.6 376.4,312.7 377.6,314.5 379.5,315.7 382.7,317.4 384.2,318.9 
			384.4,320.2 385.5,321.4 385.1,322.4 		"/>
		<polygon class="st4" points="382.6,337.2 382.8,337.5 383.2,338.4 382.4,338.9 382.5,339.8 380.5,340.6 379.8,341.8 377.4,344.1 
			374.7,345.4 371.2,346.5 369.1,347.7 366.3,348.3 363.9,349.4 361.2,349.9 358.9,351 356.3,351.2 353.9,351.8 352.1,351.8 
			350.2,352.2 348.9,351.9 347.1,352.2 347,351.4 346.5,351.2 346.6,350.3 346.5,349.4 347.8,348.8 347.7,346.7 349.8,346 
			351.2,344.8 353.5,344.1 356.3,343.2 358.8,342.9 361.2,341.6 363.8,341.1 366.4,340 368.9,339.6 371.5,338.7 375.4,336.9 
			377.9,336.3 379.1,336.5 380.9,336.2 381.7,336.7 		"/>
	</g>
	<path id="darker-3_00000129913507819827008520000008386859939423558840_" class="st5" d="M393.8,362.2h-66.4v-36.4
		c0,0,20.9,3.2,33.1,3.2c12.2,0,33.2-3.2,33.2-3.2V362.2L393.8,362.2L393.8,362.2z"/>
</g>
<g id="microbe-4_00000112595169067671980540000012997680229256066727_">
	<rect x="414.8" y="293.9" class="st1" width="70.5" height="70.5"/>
	
		<linearGradient id="SVGID_00000060736846806341748590000017478759142552135041_" gradientUnits="userSpaceOnUse" x1="-2043.5779" y1="-3722.4253" x2="-1996.6543" y2="-3675.5017" gradientTransform="matrix(0.7071 -0.7071 -0.7071 -0.7071 -737.1477 -3714.9023)">
		<stop  offset="0" style="stop-color:#3F4B22"/>
		<stop  offset="0.14" style="stop-color:#4D5F26"/>
		<stop  offset="0.42" style="stop-color:#6B862B"/>
		<stop  offset="0.66" style="stop-color:#83A530"/>
		<stop  offset="0.86" style="stop-color:#8FB923"/>
		<stop  offset="1" style="stop-color:#98C32C"/>
	</linearGradient>
	
		<rect x="416.8" y="295.9" style="fill:url(#SVGID_00000060736846806341748590000017478759142552135041_);" width="66.4" height="66.4"/>
	<rect x="420" y="299.1" class="st3" width="60" height="60"/>
	<g id="microbes-3_00000022521263632746526520000012115276350883004816_">
		<polygon class="st4" points="450.8,335.1 447.9,335.5 448.4,338.3 445.5,337.9 445,340.7 442.5,339.3 441.2,341.9 439.3,339.9 
			437.3,342 435.9,339.5 433.4,340.8 432.8,338.1 430.1,338.8 430.3,336 427.4,335.6 428.5,333.1 426,331.9 427.8,329.8 
			425.5,327.9 427.9,326.4 426.3,324.1 429,323.2 428.2,320.4 431.1,320.5 431.1,317.7 433.9,318.5 434.7,315.9 437,317.5 
			438.6,315.1 440.4,317.4 442.6,315.7 443.6,318.3 446.2,317.4 446.5,320.2 449.3,320 448.6,322.7 451.3,323.4 449.8,325.8 
			452.3,327.3 450.3,329.3 452.2,331.3 449.5,332.5 		"/>
		<polygon class="st4" points="475.1,323.7 474.1,324.1 474.1,325.4 472.7,324.9 471.8,325.8 470.3,324.9 468.8,325.2 464.7,325.8 
			463,325.6 461.2,322.2 459.2,321.6 457.5,319.8 455.5,318.9 454,317 452.2,316.1 451,314.1 449.4,312.7 448.8,311.1 447.7,309.8 
			447.5,308.5 446.5,307.4 447.4,306.5 447.4,305.3 448.3,305.4 449.1,304.5 450.3,305 452.2,303.2 453.6,304.3 455.4,304.4 
			457,305.5 459,306.2 460.1,308.9 462.2,309.8 463.7,311.6 465.8,312.7 467,314.5 468.9,315.8 472.1,317.5 473.6,318.9 
			473.8,320.2 474.9,321.4 474.6,322.5 		"/>
		<polygon class="st4" points="472,337.3 472.2,337.6 472.6,338.4 471.8,338.9 471.9,339.9 469.9,340.7 469.2,341.9 466.8,344.2 
			464.1,345.5 460.6,346.5 458.5,347.8 455.7,348.4 453.3,349.5 450.6,350 448.4,351.1 445.7,351.2 443.3,351.9 441.5,351.8 
			439.6,352.3 438.4,352 436.5,352.3 436.5,351.5 436,351.2 436,350.3 436,349.5 437.2,348.9 437.1,346.8 439.3,346.1 440.6,344.9 
			442.9,344.1 445.7,343.3 448.2,342.9 450.6,341.7 453.2,341.2 455.8,340.1 458.3,339.7 460.9,338.8 464.8,337 467.3,336.3 
			468.5,336.6 470.3,336.3 471.1,336.8 		"/>
	</g>
	<path id="darker-3_00000123434999930744578000000018181066390487060643_" class="st5" d="M483.2,362.2h-66.4v-36.4
		c0,0,20.9,3.2,33.1,3.2s33.2-3.2,33.2-3.2L483.2,362.2L483.2,362.2L483.2,362.2z"/>
</g>
</svg>
