<?xml version="1.0" encoding="utf-8"?>
<!-- Generator: Adobe Illustrator 27.5.0, SVG Export Plug-In . SVG Version: 6.00 Build 0)  -->
<svg version="1.1" id="Layer" xmlns="http://www.w3.org/2000/svg" xmlns:xlink="http://www.w3.org/1999/xlink" x="0px" y="0px"
	 viewBox="0 0 721 379.9" style="enable-background:new 0 0 721 379.9;" xml:space="preserve">
<style type="text/css">
	.st0{fill:none;}
	.st1{fill:#1F1F1E;}
	.st2{fill:#FFFFFF;fill-opacity:0;}
	.st3{fill:url(#external-border_00000102512577897362668270000015600224010250949010_);}
	.st4{fill:url(#internal-border_00000012466051364720386220000005867409276648091019_);}
	.st5{fill:url(#bg_00000084523065842275438450000012937487144862410430_);}
	.st6{opacity:0.1;fill:url(#bgPattern_00000116940744805439260070000004008751206866854334_);enable-background:new    ;}
	.st7{opacity:0.4;}
	.st8{opacity:0.4;fill:url(#SVGID_1_);enable-background:new    ;}
	.st9{fill:url(#SVGID_00000168822591436193226170000010639754159904976059_);}
	.st10{fill:#030304;}
	.st11{fill:url(#SVGID_00000019677903790046637810000007978380593794026941_);}
	.st12{fill:#48AD38;}
	.st13{fill:#0B572A;stroke:#1D4422;stroke-width:3.74;stroke-miterlimit:10;}
	.st14{opacity:5.000000e-02;fill:#030304;enable-background:new    ;}
	.st15{fill:#010101;}
	.st16{opacity:0.4;fill:#010101;}
	.st17{fill:url(#SVGID_00000096035183236047338150000003843850853335771543_);}
	.st18{fill:#7F358B;}
	.st19{fill:#FFFFFF;stroke:#030304;stroke-width:0.93;stroke-miterlimit:10;}
	.st20{opacity:0.15;fill:#030304;enable-background:new    ;}
	.st21{fill:url(#SVGID_00000095338932241440052510000011215307959734348178_);}
</style>
<pattern  y="379.9" width="19.7" height="21.7" patternUnits="userSpaceOnUse" id="Nowy_wzorek_3" viewBox="0 -21.7 19.7 21.7" style="overflow:visible;">
	<g>
		<rect y="-21.7" class="st0" width="19.7" height="21.7"/>
		<g>
			<rect y="-21.7" class="st0" width="19.7" height="21.7"/>
			<g>
				<rect y="-21.7" class="st0" width="19.7" height="21.7"/>
				<g>
					<rect y="-21.7" class="st0" width="19.7" height="21.7"/>
					<g>
						<rect y="-21.7" class="st0" width="19.7" height="21.7"/>
						<g>
							<rect y="-21.7" class="st0" width="19.7" height="21.7"/>
							<g>
								<rect y="-21.7" class="st0" width="19.7" height="21.7"/>
								<path class="st1" d="M16.6-13c2.1,2.1,2.1,5.6,0,7.7l-1.2,1.2C13.3-2,9.8-2,7.6-4.1L3.1-8.7c-2.1-2.1-2.1-5.6,0-7.7l1.2-1.2
									c2.1-2.1,5.6-2.1,7.7,0L16.6-13z"/>
							</g>
						</g>
					</g>
				</g>
			</g>
		</g>
	</g>
</pattern>
<rect x="0.5" y="0.5" class="st2" width="720" height="378.9"/>
<g>
	<g id="prodBg">
		
			<linearGradient id="external-border_00000079443515133316100060000012431124501817846930_" gradientUnits="userSpaceOnUse" x1="532.7361" y1="1078.5365" x2="188.2739" y2="734.1135" gradientTransform="matrix(1 0 0 1 0 -715.37)">
			<stop  offset="0" style="stop-color:#9E9D9C"/>
			<stop  offset="0.54" style="stop-color:#010202"/>
			<stop  offset="1" style="stop-color:#9E9D9C"/>
		</linearGradient>
		
			<rect id="external-border" x="165.3" y="41.7" style="fill:url(#external-border_00000079443515133316100060000012431124501817846930_);" width="390.3" height="298.5"/>
		
			<linearGradient id="internal-border_00000030460960076426486620000000129173369831044760_" gradientUnits="userSpaceOnUse" x1="360.575" y1="1050.97" x2="360.575" y2="761.71" gradientTransform="matrix(1 0 0 1 0 -715.37)">
			<stop  offset="0" style="stop-color:#462C1B"/>
			<stop  offset="1" style="stop-color:#B18048"/>
		</linearGradient>
		
			<rect id="internal-border" x="170" y="46.3" style="fill:url(#internal-border_00000030460960076426486620000000129173369831044760_);" width="381.2" height="289.3"/>
		
			<linearGradient id="bg_00000085246536655910504700000012283294546332276358_" gradientUnits="userSpaceOnUse" x1="360.515" y1="1046.74" x2="360.515" y2="765.77" gradientTransform="matrix(1 0 0 1 0 -715.37)">
			<stop  offset="0" style="stop-color:#946137"/>
			<stop  offset="1" style="stop-color:#805127"/>
		</linearGradient>
		
			<rect id="bg" x="174" y="50.4" style="fill:url(#bg_00000085246536655910504700000012283294546332276358_);" width="373" height="281"/>
		
			<pattern  id="bgPattern_00000013879133857029244930000002658972884508730242_" xlink:href="#Nowy_wzorek_3" patternTransform="matrix(1 0 0 1 51.9 33240.918)">
		</pattern>
		
			<rect id="bgPattern" x="174" y="50.4" style="opacity:0.1;fill:url(#bgPattern_00000013879133857029244930000002658972884508730242_);enable-background:new    ;" width="373" height="281"/>
	</g>
	<g id="plant" class="st7">
		
			<linearGradient id="SVGID_1_" gradientUnits="userSpaceOnUse" x1="390.0492" y1="-29.2158" x2="390.0492" y2="70.6658" gradientTransform="matrix(1 0 0 -1 0 145.36)">
			<stop  offset="0" style="stop-color:#FFDC15"/>
			<stop  offset="0" style="stop-color:#FFDB16"/>
			<stop  offset="5.000000e-02" style="stop-color:#F9BB1F"/>
			<stop  offset="0.1" style="stop-color:#F59C1B"/>
			<stop  offset="0.16" style="stop-color:#EF7B1B"/>
			<stop  offset="0.22" style="stop-color:#E86212"/>
			<stop  offset="0.27" style="stop-color:#E84B1F"/>
			<stop  offset="0.34" style="stop-color:#E63A21"/>
			<stop  offset="0.41" style="stop-color:#E63323"/>
			<stop  offset="0.5" style="stop-color:#E63023"/>
			<stop  offset="0.59" style="stop-color:#E63323"/>
			<stop  offset="0.66" style="stop-color:#E63A21"/>
			<stop  offset="0.73" style="stop-color:#E84B1F"/>
			<stop  offset="0.78" style="stop-color:#E86212"/>
			<stop  offset="0.84" style="stop-color:#EF7B1B"/>
			<stop  offset="0.9" style="stop-color:#F59C1B"/>
			<stop  offset="0.95" style="stop-color:#F9BB1F"/>
			<stop  offset="1" style="stop-color:#FFDB16"/>
			<stop  offset="1" style="stop-color:#FFDC15"/>
		</linearGradient>
		<rect x="340.1" y="74.7" class="st8" width="99.9" height="99.9"/>
		
			<linearGradient id="SVGID_00000161600379919548980970000005013050622458519940_" gradientUnits="userSpaceOnUse" x1="390.0634" y1="-25.5307" x2="390.0634" y2="66.9949" gradientTransform="matrix(1 0 0 -1 0 145.36)">
			<stop  offset="0" style="stop-color:#FFDC15"/>
			<stop  offset="0" style="stop-color:#FFDB16"/>
			<stop  offset="5.000000e-02" style="stop-color:#F9BB1F"/>
			<stop  offset="0.1" style="stop-color:#F59C1B"/>
			<stop  offset="0.16" style="stop-color:#EF7B1B"/>
			<stop  offset="0.22" style="stop-color:#E86212"/>
			<stop  offset="0.27" style="stop-color:#E84B1F"/>
			<stop  offset="0.34" style="stop-color:#E63A21"/>
			<stop  offset="0.41" style="stop-color:#E63323"/>
			<stop  offset="0.5" style="stop-color:#E63023"/>
			<stop  offset="0.59" style="stop-color:#E63323"/>
			<stop  offset="0.66" style="stop-color:#E63A21"/>
			<stop  offset="0.73" style="stop-color:#E84B1F"/>
			<stop  offset="0.78" style="stop-color:#E86212"/>
			<stop  offset="0.84" style="stop-color:#EF7B1B"/>
			<stop  offset="0.9" style="stop-color:#F59C1B"/>
			<stop  offset="0.95" style="stop-color:#F9BB1F"/>
			<stop  offset="1" style="stop-color:#FFDB16"/>
			<stop  offset="1" style="stop-color:#FFDC15"/>
		</linearGradient>
		
			<rect x="343.8" y="78.4" style="fill:url(#SVGID_00000161600379919548980970000005013050622458519940_);" width="92.5" height="92.5"/>
		<rect x="348.7" y="83.3" class="st10" width="82.9" height="82.9"/>
		
			<linearGradient id="SVGID_00000018231106552489074400000005622819651060977298_" gradientUnits="userSpaceOnUse" x1="-879.6892" y1="-1218.3599" x2="-824.4637" y2="-1163.1416" gradientTransform="matrix(0.7071 -0.7071 -0.7071 -0.7071 150.652 -1319.7518)">
			<stop  offset="0" style="stop-color:#0F6936"/>
			<stop  offset="4.000000e-02" style="stop-color:#0F6C37"/>
			<stop  offset="8.000000e-02" style="stop-color:#077739"/>
			<stop  offset="0.13" style="stop-color:#108837"/>
			<stop  offset="0.15" style="stop-color:#0A9039"/>
			<stop  offset="0.35" style="stop-color:#36993D"/>
			<stop  offset="0.76" style="stop-color:#5FB048"/>
			<stop  offset="1" style="stop-color:#6FB74B"/>
		</linearGradient>
		
			<rect x="351.1" y="85.7" style="fill:url(#SVGID_00000018231106552489074400000005622819651060977298_);" width="78.1" height="78.1"/>
		<rect x="354.9" y="89.5" class="st12" width="70.5" height="70.5"/>
		<path id="leaf" class="st13" d="M390.1,106.9c-10.1,1.4-17.8,8-17.8,17.8c0,2.4,0.5,4.7,1.3,6.9c-1.9,1.3-4.6,2.9-5.9,3.4
			c-2.3,0.8-7,0.3-7.2,0.7c-0.2,0.4,1.3,4.6,1.9,4.8c0.5,0.2,4.8,0.2,7.2-0.7c1.7-0.6,4.8-2.6,6.7-3.9c3.3,4.1,8.3,6.7,14,6.7
			c9.8,0,17.7-6.2,17.7-16c0-3.8,0.9-8.6,2.3-11.6c1.5-3.3,9.4-5.5,9.4-5.5C418.8,106.9,394.1,106.4,390.1,106.9L390.1,106.9
			L390.1,106.9L390.1,106.9z"/>
		<path id="darker" class="st14" d="M429.2,163.8h-78.1V121c0,0,24.6,3.8,39,3.8s39.1-3.8,39.1-3.8V163.8z"/>
	</g>
	<path class="st15" d="M218.2,282.7v-24.4h-24.4v-10h24.4v-24.4h10v24.4h24.4v10h-24.4v24.4H218.2L218.2,282.7z"/>
	<path class="st16" d="M299.4,131.8v-9.7h23.3v9.7H299.4L299.4,131.8z"/>
	<g id="energy">
		<rect x="408.8" y="193.3" class="st10" width="116.7" height="116.7"/>
		
			<linearGradient id="SVGID_00000035528956811135487850000004500225345040393867_" gradientUnits="userSpaceOnUse" x1="-926.2832" y1="2219.0779" x2="-848.4756" y2="2141.3103" gradientTransform="matrix(0.7071 -0.7071 0.7071 0.7071 -446.9881 -1917.412)">
			<stop  offset="0" style="stop-color:#1D1427"/>
			<stop  offset="0.24" style="stop-color:#372348"/>
			<stop  offset="0.49" style="stop-color:#573B6C"/>
			<stop  offset="0.71" style="stop-color:#72508C"/>
			<stop  offset="0.89" style="stop-color:#835CA0"/>
			<stop  offset="1" style="stop-color:#8963A7"/>
		</linearGradient>
		
			<rect x="412.2" y="196.7" style="fill:url(#SVGID_00000035528956811135487850000004500225345040393867_);" width="110" height="110"/>
		<polygon class="st18" points="516.8,202 516.8,301.3 417.5,301.3 417.5,202 		"/>
		<polygon class="st19" points="455.1,240.3 487.8,220 470.3,245.4 479.6,260.5 447.4,280.8 463.6,255.5 		"/>
		<path id="darker-2" class="st20" d="M522.2,306.7h-110v-60.3c0,0,34.6,5.3,54.9,5.3s55-5.3,55-5.3V306.7L522.2,306.7z"/>
	</g>
	<g id="energy-2">
		<rect x="272.4" y="193.3" class="st10" width="116.7" height="116.7"/>
		
			<linearGradient id="SVGID_00000102518664888374834770000012713065112825375377_" gradientUnits="userSpaceOnUse" x1="-1022.7125" y1="2122.6587" x2="-944.9449" y2="2044.8309" gradientTransform="matrix(0.7071 -0.7071 0.7071 0.7071 -446.9881 -1917.412)">
			<stop  offset="0" style="stop-color:#1D1427"/>
			<stop  offset="0.24" style="stop-color:#372348"/>
			<stop  offset="0.49" style="stop-color:#573B6C"/>
			<stop  offset="0.71" style="stop-color:#72508C"/>
			<stop  offset="0.89" style="stop-color:#835CA0"/>
			<stop  offset="1" style="stop-color:#8963A7"/>
		</linearGradient>
		
			<rect x="275.8" y="196.7" style="fill:url(#SVGID_00000102518664888374834770000012713065112825375377_);" width="110" height="110"/>
		<polygon class="st18" points="380.4,202 380.4,301.3 281.1,301.3 281.1,202 		"/>
		<polygon class="st19" points="318.7,240.3 351.4,220 333.9,245.4 343.2,260.5 311,280.8 327.2,255.5 		"/>
		<path id="darker-3" class="st20" d="M385.8,306.7h-110v-60.3c0,0,34.6,5.3,54.9,5.3s55-5.3,55-5.3V306.7z"/>
	</g>
</g>
</svg>
