<?xml version="1.0" encoding="utf-8"?>
<!-- Generator: Adobe Illustrator 27.5.0, SVG Export Plug-In . SVG Version: 6.00 Build 0)  -->
<svg version="1.1" id="Layer" xmlns="http://www.w3.org/2000/svg" xmlns:xlink="http://www.w3.org/1999/xlink" x="0px" y="0px"
	 viewBox="0 0 721 379.9" style="enable-background:new 0 0 721 379.9;" xml:space="preserve">
<style type="text/css">
	.st0{fill:none;}
	.st1{fill:#20201E;}
	.st2{fill:#FFFFFF;fill-opacity:0;}
	.st3{fill:url(#external-border_00000132766547104901037660000002791706262147705515_);}
	.st4{fill:url(#internal-border_00000077318268423848720420000007634450997249348242_);}
	.st5{fill:url(#bg_00000147208695411852457240000010933047417879397298_);}
	.st6{opacity:0.14;fill:url(#bgPattern_00000099639563540634856270000013415943032416647843_);enable-background:new    ;}
	.st7{opacity:0.4;fill:#010101;}
	.st8{fill:#010101;}
	.st9{opacity:0.4;}
	.st10{opacity:0.4;fill:url(#SVGID_1_);enable-background:new    ;}
	.st11{fill:url(#SVGID_00000047046498030618797150000003675957171116512924_);}
	.st12{fill:#020303;}
	.st13{fill:url(#SVGID_00000031190321503957424950000007596721731397902233_);}
	.st14{fill:#7E348B;}
	.st15{fill:#FFFFFF;stroke:#020303;stroke-width:0.93;stroke-miterlimit:10;}
	.st16{opacity:0.15;fill:#020303;enable-background:new    ;}
	.st17{fill:url(#SVGID_00000133501110690638432260000002614815298309567124_);}
</style>
<pattern  y="379.9" width="56.7" height="62.5" patternUnits="userSpaceOnUse" id="Nowy_wzorek_9" viewBox="0 -62.5 56.7 62.5" style="overflow:visible;">
	<g>
		<rect y="-62.5" class="st0" width="56.7" height="62.5"/>
		<g>
			<rect y="-62.5" class="st0" width="56.7" height="62.5"/>
			<g>
				<rect y="-62.5" class="st0" width="56.7" height="62.5"/>
				<g>
					<rect y="-62.5" class="st0" width="56.7" height="62.5"/>
					<g>
						<rect y="-62.5" class="st0" width="56.7" height="62.5"/>
						<g>
							<rect y="-62.5" class="st0" width="56.7" height="62.5"/>
							<path class="st1" d="M47.8-37.4c6,6,6,16.1,0,22.2l-3.5,3.4c-6,6-16.1,6-22.5,0L8.9-25c-6-6-6-16.1,0-22.2l3.4-3.5
								c6-6,16.1-6,22.2,0C34.5-50.7,47.8-37.4,47.8-37.4z"/>
						</g>
					</g>
				</g>
			</g>
		</g>
	</g>
</pattern>
<rect x="0.5" y="0.5" class="st2" width="720" height="378.9"/>
<g id="prodBg">
	
		<linearGradient id="external-border_00000137122494418616257480000013399490258812748211_" gradientUnits="userSpaceOnUse" x1="507.18" y1="1284.3" x2="228.83" y2="1005.95" gradientTransform="matrix(1 0 0 1 0 -952.55)">
		<stop  offset="0" style="stop-color:#9F9D9C"/>
		<stop  offset="0.54" style="stop-color:#020303"/>
		<stop  offset="1" style="stop-color:#9F9D9C"/>
	</linearGradient>
	
		<rect id="external-border" x="236.9" y="45.4" style="fill:url(#external-border_00000137122494418616257480000013399490258812748211_);" width="262.3" height="294.4"/>
	
		<linearGradient id="internal-border_00000008127137630615867580000008540174299659142330_" gradientUnits="userSpaceOnUse" x1="368.08" y1="1287.71" x2="368.08" y2="1002.56" gradientTransform="matrix(1 0 0 1 0 -952.55)">
		<stop  offset="0" style="stop-color:#472D1C"/>
		<stop  offset="1" style="stop-color:#B18047"/>
	</linearGradient>
	
		<rect id="internal-border" x="241.5" y="50" style="fill:url(#internal-border_00000008127137630615867580000008540174299659142330_);" width="253.2" height="285.1"/>
	
		<linearGradient id="bg_00000098924951486754741170000016001844728327068076_" gradientUnits="userSpaceOnUse" x1="368.015" y1="1283.51" x2="368.015" y2="1006.61" gradientTransform="matrix(1 0 0 1 0 -952.55)">
		<stop  offset="0" style="stop-color:#946137"/>
		<stop  offset="1" style="stop-color:#815228"/>
	</linearGradient>
	
		<rect id="bg" x="245.5" y="54.1" style="fill:url(#bg_00000098924951486754741170000016001844728327068076_);" width="245" height="276.9"/>
	
		<pattern  id="bgPattern_00000171679584882558642450000011062127428507767220_" xlink:href="#Nowy_wzorek_9" patternTransform="matrix(1 0 0 1 32.1 16747.1504)">
	</pattern>
	
		<rect id="bgPattern" x="245.5" y="54.1" style="opacity:0.14;fill:url(#bgPattern_00000171679584882558642450000011062127428507767220_);enable-background:new    ;" width="245" height="276.9"/>
</g>
<path class="st7" d="M309.2,130v-9.4h22.6v9.4H309.2z"/>
<path class="st8" d="M292.3,280.3V256H268v-10h24.3v-24.3h10V246h24.3v10h-24.3v24.3H292.3z"/>
<g id="energy" class="st9">
	
		<linearGradient id="SVGID_1_" gradientUnits="userSpaceOnUse" x1="395.5032" y1="1110.4768" x2="395.5032" y2="1013.4832" gradientTransform="matrix(1 0 0 1 0 -936.55)">
		<stop  offset="0" style="stop-color:#FFDC15"/>
		<stop  offset="0" style="stop-color:#FFDB16"/>
		<stop  offset="5.000000e-02" style="stop-color:#F9BB24"/>
		<stop  offset="0.1" style="stop-color:#F59D1E"/>
		<stop  offset="0.16" style="stop-color:#EF7C1E"/>
		<stop  offset="0.22" style="stop-color:#E86312"/>
		<stop  offset="0.27" style="stop-color:#E94C21"/>
		<stop  offset="0.34" style="stop-color:#E63B23"/>
		<stop  offset="0.41" style="stop-color:#E63624"/>
		<stop  offset="0.5" style="stop-color:#E63324"/>
		<stop  offset="0.59" style="stop-color:#E63624"/>
		<stop  offset="0.66" style="stop-color:#E63B23"/>
		<stop  offset="0.73" style="stop-color:#E94C21"/>
		<stop  offset="0.78" style="stop-color:#E86312"/>
		<stop  offset="0.84" style="stop-color:#EF7C1E"/>
		<stop  offset="0.9" style="stop-color:#F59D1E"/>
		<stop  offset="0.95" style="stop-color:#F9BB24"/>
		<stop  offset="1" style="stop-color:#FFDB16"/>
		<stop  offset="1" style="stop-color:#FFDC15"/>
	</linearGradient>
	<rect x="347" y="76.9" class="st10" width="97" height="97"/>
	
		<linearGradient id="SVGID_00000129927775926721086120000004856712025798640558_" gradientUnits="userSpaceOnUse" x1="395.5205" y1="1106.9026" x2="395.5205" y2="1017.0505" gradientTransform="matrix(1 0 0 1 0 -936.55)">
		<stop  offset="0" style="stop-color:#FFDC15"/>
		<stop  offset="0" style="stop-color:#FFDB16"/>
		<stop  offset="5.000000e-02" style="stop-color:#F9BB24"/>
		<stop  offset="0.1" style="stop-color:#F59D1E"/>
		<stop  offset="0.16" style="stop-color:#EF7C1E"/>
		<stop  offset="0.22" style="stop-color:#E86312"/>
		<stop  offset="0.27" style="stop-color:#E94C21"/>
		<stop  offset="0.34" style="stop-color:#E63B23"/>
		<stop  offset="0.41" style="stop-color:#E63624"/>
		<stop  offset="0.5" style="stop-color:#E63324"/>
		<stop  offset="0.59" style="stop-color:#E63624"/>
		<stop  offset="0.66" style="stop-color:#E63B23"/>
		<stop  offset="0.73" style="stop-color:#E94C21"/>
		<stop  offset="0.78" style="stop-color:#E86312"/>
		<stop  offset="0.84" style="stop-color:#EF7C1E"/>
		<stop  offset="0.9" style="stop-color:#F59D1E"/>
		<stop  offset="0.95" style="stop-color:#F9BB24"/>
		<stop  offset="1" style="stop-color:#FFDB16"/>
		<stop  offset="1" style="stop-color:#FFDC15"/>
	</linearGradient>
	
		<rect x="350.6" y="80.5" style="fill:url(#SVGID_00000129927775926721086120000004856712025798640558_);" width="89.9" height="89.9"/>
	<rect x="355.3" y="85.3" class="st12" width="80.3" height="80.3"/>
	
		<linearGradient id="SVGID_00000168800652205442095760000009915435934206597530_" gradientUnits="userSpaceOnUse" x1="-875.7288" y1="2067.4651" x2="-822.1955" y2="2013.9318" gradientTransform="matrix(0.7071 -0.7071 0.7071 0.7071 -447.1781 -1917.8719)">
		<stop  offset="0" style="stop-color:#1D1327"/>
		<stop  offset="0.24" style="stop-color:#372348"/>
		<stop  offset="0.49" style="stop-color:#573A6C"/>
		<stop  offset="0.71" style="stop-color:#714F8B"/>
		<stop  offset="0.89" style="stop-color:#825C9F"/>
		<stop  offset="1" style="stop-color:#8862A6"/>
	</linearGradient>
	
		<rect x="357.7" y="87.6" style="fill:url(#SVGID_00000168800652205442095760000009915435934206597530_);" width="75.7" height="75.7"/>
	<polygon class="st14" points="429.7,91.2 429.7,159.6 361.3,159.6 361.3,91.2 	"/>
	<polygon class="st15" points="387.2,117.6 409.7,103.6 397.7,121.1 404,131.5 381.9,145.4 393,128 	"/>
	<path id="darker" class="st16" d="M433.4,163.3h-75.7v-41.5c0,0,23.8,3.7,37.8,3.7c14,0,37.9-3.7,37.9-3.7L433.4,163.3L433.4,163.3
		z"/>
</g>
<g id="energy-2">
	<rect x="349.8" y="193.2" class="st12" width="116.2" height="116.2"/>
	
		<linearGradient id="SVGID_00000101092884295394502480000009599877745417006246_" gradientUnits="userSpaceOnUse" x1="-967.8729" y1="2177.2136" x2="-890.4376" y2="2099.7783" gradientTransform="matrix(0.7071 -0.7071 0.7071 0.7071 -447.1781 -1917.8719)">
		<stop  offset="0" style="stop-color:#1D1327"/>
		<stop  offset="0.24" style="stop-color:#372348"/>
		<stop  offset="0.49" style="stop-color:#573A6C"/>
		<stop  offset="0.71" style="stop-color:#714F8B"/>
		<stop  offset="0.89" style="stop-color:#825C9F"/>
		<stop  offset="1" style="stop-color:#8862A6"/>
	</linearGradient>
	
		<rect x="353.2" y="196.5" style="fill:url(#SVGID_00000101092884295394502480000009599877745417006246_);" width="109.5" height="109.5"/>
	<polygon class="st14" points="457.4,201.8 457.4,300.7 358.5,300.7 358.5,201.8 	"/>
	<polygon class="st15" points="395.9,240 428.5,219.7 411.1,245 420.3,260 388.2,280.2 404.4,255.1 	"/>
	<path id="darker-2" class="st16" d="M462.7,306H353.2v-60c0,0,34.5,5.3,54.7,5.3s54.8-5.3,54.8-5.3L462.7,306L462.7,306z"/>
</g>
</svg>
