<?xml version="1.0" encoding="utf-8"?>
<!-- Generator: Adobe Illustrator 27.5.0, SVG Export Plug-In . SVG Version: 6.00 Build 0)  -->
<svg version="1.1" id="Layer" xmlns="http://www.w3.org/2000/svg" xmlns:xlink="http://www.w3.org/1999/xlink" x="0px" y="0px"
	 viewBox="0 0 721 379.9" style="enable-background:new 0 0 721 379.9;" xml:space="preserve">
<style type="text/css">
	.st0{fill:#FFFFFF;fill-opacity:0;}
	.st1{fill:#020303;stroke:#030404;stroke-width:1.87;stroke-miterlimit:10;}
	.st2{fill:url(#obram_zolte_00000046326410610254257680000003902926801052835980_);}
	.st3{fill:url(#tlo_wew_00000087396428631974892620000016888548959781939336_);}
	.st4{fill:url(#obram_skosne_00000086686933417467633590000012771604681709328571_);}
	.st5{fill:url(#tlo_zew_00000042695371887972910600000015956100556080362416_);}
	.st6{fill:#010202;}
	.st7{fill:#030304;}
	.st8{fill:url(#SVGID_1_);}
	.st9{fill:#6A6A69;}
	.st10{fill:url(#ciemniej_00000034789004816377156010000014701563999223782065_);}
	.st11{fill:#F4E956;}
</style>
<rect x="0.5" y="0.5" class="st0" width="720" height="378.9"/>
<g id="mln">
	<polygon id="obram_czarne" class="st1" points="410.7,134.8 393.5,152.1 393.5,231.6 410.7,248.9 490.3,248.9 507.4,231.6 
		507.4,152.1 490.3,134.8 	"/>
	
		<linearGradient id="obram_zolte_00000072986350045174048410000010075420444949317308_" gradientUnits="userSpaceOnUse" x1="450.485" y1="978.97" x2="450.485" y2="871.44" gradientTransform="matrix(1 0 0 1 0 -733.36)">
		<stop  offset="0.16" style="stop-color:#823B14"/>
		<stop  offset="0.18" style="stop-color:#995D1A"/>
		<stop  offset="0.22" style="stop-color:#AE7D22"/>
		<stop  offset="0.26" style="stop-color:#C39D25"/>
		<stop  offset="0.3" style="stop-color:#D6B92E"/>
		<stop  offset="0.35" style="stop-color:#E4CF36"/>
		<stop  offset="0.41" style="stop-color:#EFE036"/>
		<stop  offset="0.48" style="stop-color:#F5E94D"/>
		<stop  offset="0.58" style="stop-color:#F8EB53"/>
		<stop  offset="0.86" style="stop-color:#F5EA52"/>
		<stop  offset="1" style="stop-color:#FCF4F9"/>
	</linearGradient>
	<polygon id="obram_zolte" style="fill:url(#obram_zolte_00000072986350045174048410000010075420444949317308_);" points="
		412.9,138.1 396.8,154.3 396.8,229.4 412.9,245.6 487.9,245.6 504.2,229.4 504.2,154.3 487.9,138.1 	"/>
	
		<linearGradient id="tlo_wew_00000177466544315011571480000014072888250694521014_" gradientUnits="userSpaceOnUse" x1="450.48" y1="865.76" x2="450.48" y2="1030.0601" gradientTransform="matrix(1 0 0 1 0 -733.36)">
		<stop  offset="0.26" style="stop-color:#F5EA52"/>
		<stop  offset="0.86" style="stop-color:#813A14"/>
	</linearGradient>
	<polygon id="tlo_wew" style="fill:url(#tlo_wew_00000177466544315011571480000014072888250694521014_);" points="414.1,139.7 
		398.2,155.5 398.2,228.3 414.1,244 486.9,244 502.7,228.3 502.7,155.5 486.9,139.7 	"/>
	
		<linearGradient id="obram_skosne_00000079486138051410687800000013107734881975776400_" gradientUnits="userSpaceOnUse" x1="450.525" y1="977.49" x2="450.525" y2="873.04" gradientTransform="matrix(1 0 0 1 0 -733.36)">
		<stop  offset="0.16" style="stop-color:#813A14"/>
		<stop  offset="0.17" style="stop-color:#8D481F"/>
		<stop  offset="0.18" style="stop-color:#A36C3D"/>
		<stop  offset="0.2" style="stop-color:#B78954"/>
		<stop  offset="0.22" style="stop-color:#C7A468"/>
		<stop  offset="0.24" style="stop-color:#D7BB7A"/>
		<stop  offset="0.26" style="stop-color:#E2CC88"/>
		<stop  offset="0.3" style="stop-color:#EAD891"/>
		<stop  offset="0.34" style="stop-color:#EEDE97"/>
		<stop  offset="0.46" style="stop-color:#EFE097"/>
		<stop  offset="0.7" style="stop-color:#813A14"/>
		<stop  offset="0.73" style="stop-color:#E6D234"/>
		<stop  offset="0.74" style="stop-color:#EBDA49"/>
		<stop  offset="0.75" style="stop-color:#EEDE6D"/>
		<stop  offset="0.77" style="stop-color:#F0E18A"/>
		<stop  offset="0.79" style="stop-color:#F8EBAB"/>
		<stop  offset="0.8" style="stop-color:#F8EDBF"/>
		<stop  offset="0.83" style="stop-color:#FAF0CF"/>
		<stop  offset="0.85" style="stop-color:#FCF2DA"/>
		<stop  offset="0.89" style="stop-color:#FDF4E1"/>
		<stop  offset="0.99" style="stop-color:#FDF5E3"/>
	</linearGradient>
	<path id="obram_skosne" style="fill:url(#obram_skosne_00000079486138051410687800000013107734881975776400_);" d="M495.2,212
		c-2.9,0-5.2-2.3-5.2-5.2v-29.8c0-2.9,2.3-5.2,5.2-5.2h7.4v-16.4l-15.7-15.8h-16.4v7.4c0,2.9-2.3,5.2-5.2,5.2h-29.8
		c-2.9,0-5.2-2.3-5.2-5.2v-7.4h-16.3l-15.8,15.8v16.4h7.4c2.9,0,5.2,2.3,5.2,5.2v29.8c0,2.9-2.3,5.2-5.2,5.2h-7.4v16.3l15.8,15.8
		h16.4v-7.4c0-2.9,2.3-5.2,5.2-5.2h29.8c2.9,0,5.2,2.3,5.2,5.2v7.4H487l15.8-15.8V212H495.2L495.2,212z"/>
	
		<linearGradient id="tlo_zew_00000109722824646360081050000003580568538317365167_" gradientUnits="userSpaceOnUse" x1="450.485" y1="888.38" x2="450.485" y2="1049.54" gradientTransform="matrix(1 0 0 1 0 -733.36)">
		<stop  offset="0.26" style="stop-color:#F5EA52"/>
		<stop  offset="0.77" style="stop-color:#813A14"/>
	</linearGradient>
	<path id="tlo_zew" style="fill:url(#tlo_zew_00000109722824646360081050000003580568538317365167_);" d="M494.9,213.7
		c-3.5,0-6.5-3.5-6.5-7.1v-29.5c0-3.5,2.9-7.1,6.5-7.1h6.1v-13.3l-15.3-15.2h-13.2v6.1c0,3.6-3.5,6.5-7.1,6.5h-29.6
		c-3.5,0-7.1-2.9-7.1-6.5v-6.1h-13.4l-15.1,15.2V170h6.1c3.5,0,6.5,3.5,6.5,7.1v29.6c0,3.5-2.9,7.1-6.5,7.1h-6.1v13.3l15.2,15.2
		h13.3v-6.1c0-3.5,3.5-6.5,7.1-6.5h29.5c3.5,0,7.1,2.9,7.1,6.5v6.1h13.3l15.2-15.2v-13.4H494.9L494.9,213.7z"/>
</g>
<path class="st6" d="M439.1,219.2v-8.6c3.3-4.4,6.4-8,9.5-10.6l4.5-3.9c3.2-2.8,5.8-5.5,7.9-8.3s3.1-5.6,3.1-8.6
	c0-2.7-0.9-4.8-2.7-6.3s-4.1-2.2-7.1-2.2c-3.9,0-8.5,1.4-13.8,4v-8c5.5-2,10.8-3.1,15.9-3.1c5.6,0,10.3,1.4,13.8,4s5.2,6.4,5.2,10.9
	c0,2.9-0.7,5.6-2.2,8.2s-4.6,5.7-9.2,9.5l-3.7,3c-1.6,1.3-3.4,3-5.3,5s-3.2,4.1-3.7,6.5h23.9v8.6L439.1,219.2L439.1,219.2
	L439.1,219.2z"/>
<path d="M347.1,182.9v-11.8H359V183h-11.9V182.9z M347.1,215.2v-11.9H359v11.9H347.1z"/>
<g id="tagSpace">
	<path class="st7" d="M325.2,191.9c0,31.7-25.7,57.5-57.5,57.5s-57.5-25.7-57.5-57.5s25.7-57.5,57.5-57.5S325.2,160.2,325.2,191.9
		L325.2,191.9z"/>
	
		<linearGradient id="SVGID_1_" gradientUnits="userSpaceOnUse" x1="267.925" y1="-145.26" x2="267.925" y2="-38.68" gradientTransform="matrix(1 0 0 -1 0 99.82)">
		<stop  offset="0" style="stop-color:#030304"/>
		<stop  offset="7.000000e-02" style="stop-color:#030404"/>
		<stop  offset="0.11" style="stop-color:#070909"/>
		<stop  offset="0.14" style="stop-color:#0F1113"/>
		<stop  offset="0.16" style="stop-color:#1D1F21"/>
		<stop  offset="0.19" style="stop-color:#2D2D2F"/>
		<stop  offset="0.21" style="stop-color:#3F3E3C"/>
		<stop  offset="0.4" style="stop-color:#595756"/>
		<stop  offset="0.67" style="stop-color:#7B7A7A"/>
		<stop  offset="0.88" style="stop-color:#929292"/>
		<stop  offset="1" style="stop-color:#9F9D9C"/>
	</linearGradient>
	<path class="st8" d="M321.1,191.9c0,29.3-23.8,53.1-53.1,53.1s-53.2-23.8-53.2-53.2s23.8-53.3,53.1-53.3
		C297.2,138.6,321.1,162.4,321.1,191.9L321.1,191.9L321.1,191.9z"/>
	<path class="st9" d="M315.9,191.9c0,26.5-21.5,48.1-48.1,48.1s-48-21.6-48-48.1s21.5-48.1,48.1-48.1
		C294.5,143.8,315.9,165.3,315.9,191.9L315.9,191.9z"/>
	
		<linearGradient id="ciemniej_00000092429125648533207440000006808608223283561882_" gradientUnits="userSpaceOnUse" x1="267.82" y1="-145.28" x2="267.82" y2="-87.05" gradientTransform="matrix(1 0 0 -1 0 99.82)">
		<stop  offset="0" style="stop-color:#070808"/>
		<stop  offset="1" style="stop-color:#292A29"/>
	</linearGradient>
	<path id="ciemniej" style="fill:url(#ciemniej_00000092429125648533207440000006808608223283561882_);" d="M321.1,191.9
		c0-1.1,0-2.1-0.1-3.2c-10.7,3-29.2,6.8-53.1,6.8s-41.8-4.7-53-8.6c-0.2,1.7-0.3,3.3-0.3,5c0,29.3,23.8,53.2,53.1,53.2
		S321.1,221.3,321.1,191.9L321.1,191.9L321.1,191.9z"/>
	<g id="gwiazda">
		<circle class="st11" cx="267.8" cy="191.9" r="7.9"/>
		<path class="st11" d="M277.8,187l17.3-22.2l-22.2,17.3C274.9,183,276.7,184.7,277.8,187L277.8,187L277.8,187z"/>
		<path class="st11" d="M262.9,182l-22.2-17.3l17.3,22.2C259,184.8,260.8,183,262.9,182L262.9,182L262.9,182z"/>
		<path class="st11" d="M306.2,191.9l-28-3.5c0.3,1.1,0.5,2.3,0.5,3.5s-0.2,2.4-0.5,3.5L306.2,191.9z"/>
		<path class="st11" d="M271.4,181.4l-3.5-27.9l-3.5,27.9c1.1-0.3,2.3-0.5,3.5-0.5C269.1,180.8,270.2,181.1,271.4,181.4z"/>
		<path class="st11" d="M272.8,201.7L295,219l-17.3-22.2C276.7,199,275,200.7,272.8,201.7L272.8,201.7L272.8,201.7z"/>
		<path class="st11" d="M256.8,191.9c0-1.2,0.2-2.4,0.5-3.5l-27.9,3.5l27.9,3.5C257,194.3,256.8,193.1,256.8,191.9z"/>
		<path class="st11" d="M264.3,202.4l3.5,27.9l3.5-27.9c-1.1,0.3-2.3,0.5-3.5,0.5S265.5,202.8,264.3,202.4z"/>
		<path class="st11" d="M258,196.8L240.7,219l22.2-17.3C260.7,200.8,259,199,258,196.8L258,196.8L258,196.8z"/>
	</g>
</g>
<path class="st6" d="M424.1,195.6v-6.1h14.7v6.1H424.1z"/>
</svg>
