<?xml version="1.0" encoding="utf-8"?>
<!-- Generator: Adobe Illustrator 27.5.0, SVG Export Plug-In . SVG Version: 6.00 Build 0)  -->
<svg version="1.1" id="Layer" xmlns="http://www.w3.org/2000/svg" xmlns:xlink="http://www.w3.org/1999/xlink" x="0px" y="0px"
	 viewBox="0 0 721 379.9" style="enable-background:new 0 0 721 379.9;" xml:space="preserve">
<style type="text/css">
	.st0{fill:none;}
	.st1{fill:#20201E;}
	.st2{fill:#FFFFFF;fill-opacity:0;}
	.st3{fill:#030404;}
	.st4{fill:url(#SVGID_1_);}
	.st5{fill:url(#SVGID_00000024722848218634482390000004404540907801108917_);}
	.st6{opacity:8.000000e-02;fill:#030404;enable-background:new    ;}
	.st7{fill:#175A29;}
	.st8{fill:#1A291D;}
	.st9{fill:url(#SVGID_00000160172962560290181840000011965494407993004178_);}
	.st10{fill:#47AD3E;}
	.st11{fill:url(#SVGID_00000152953218238477468230000002986064576398224513_);}
	.st12{fill:none;stroke:#20201E;stroke-width:0.96;stroke-miterlimit:10;}
	.st13{fill:none;stroke:#20201E;stroke-width:0.3;stroke-miterlimit:10;}
	
		.st14{fill:#E2181E;stroke:url(#SVGID_00000044865910157055798030000017205542457705558717_);stroke-width:0.96;stroke-miterlimit:10;}
	
		.st15{fill:#E2181E;stroke:url(#SVGID_00000029759273566734984140000007598779784441395891_);stroke-width:0.96;stroke-miterlimit:10;}
	.st16{fill:url(#SVGID_00000178177041397344012270000013895411900939647640_);}
	.st17{fill:url(#SVGID_00000056421209733172229700000002694342845592673711_);}
	.st18{opacity:0.4;}
	.st19{fill:url(#external-border_00000062161043819777540380000018360913998808055967_);}
	.st20{fill:url(#internal-border_00000013159610173282775340000003931494602733481096_);}
	.st21{fill:url(#bg_00000150813378894425729120000004388769973951544206_);}
	.st22{opacity:0.1;fill:url(#bgPattern_00000049224046299619967240000016717060516466650291_);enable-background:new    ;}
	.st23{opacity:0.4;fill:#010202;}
	.st24{opacity:0.4;fill:url(#SVGID_00000078031187761782548750000015216020008518906264_);enable-background:new    ;}
	.st25{fill:url(#SVGID_00000072963033708775066940000009241940971413075329_);}
	.st26{fill:#030304;}
	.st27{fill:url(#SVGID_00000058570816603380677170000009844071227247746985_);}
	.st28{fill:#48AD38;}
	.st29{fill:#0B572A;stroke:#1D4422;stroke-width:3.73;stroke-miterlimit:10;}
	.st30{opacity:5.000000e-02;fill:#030304;enable-background:new    ;}
</style>
<pattern  y="379.9" width="19.7" height="21.7" patternUnits="userSpaceOnUse" id="Nowy_wzorek_5" viewBox="0 -21.7 19.7 21.7" style="overflow:visible;">
	<g>
		<rect y="-21.7" class="st0" width="19.7" height="21.7"/>
		<g>
			<rect y="-21.7" class="st0" width="19.7" height="21.7"/>
			<g>
				<rect y="-21.7" class="st0" width="19.7" height="21.7"/>
				<g>
					<rect y="-21.7" class="st0" width="19.7" height="21.7"/>
					<g>
						<rect y="-21.7" class="st0" width="19.7" height="21.7"/>
						<g>
							<rect y="-21.7" class="st0" width="19.7" height="21.7"/>
							<g>
								<rect y="-21.7" class="st0" width="19.7" height="21.7"/>
								<path class="st1" d="M16.6-13c2.1,2.1,2.1,5.6,0,7.7l-1.2,1.2C13.3-2,9.8-2,7.6-4.1L3.1-8.7c-2.1-2.1-2.1-5.6,0-7.7l1.2-1.2
									c2.1-2.1,5.6-2.1,7.7,0L16.6-13z"/>
							</g>
						</g>
					</g>
				</g>
			</g>
		</g>
	</g>
</pattern>
<rect x="0.5" y="0.5" class="st2" width="720" height="378.9"/>
<path d="M356.9,69.5V57h12.6v12.6H356.9z M356.9,103.6V91.1h12.6v12.6H356.9z"/>
<g id="animal">
	<rect x="404.2" y="18.8" class="st3" width="116.1" height="116.1"/>
	
		<linearGradient id="SVGID_1_" gradientUnits="userSpaceOnUse" x1="-971.6235" y1="2468.3792" x2="-894.2389" y2="2391.0144" gradientTransform="matrix(0.7071 -0.7071 0.7071 0.7071 -596.0881 -2300.8821)">
		<stop  offset="0" style="stop-color:#1F4D23"/>
		<stop  offset="0.43" style="stop-color:#4D7131"/>
		<stop  offset="1" style="stop-color:#99AC44"/>
	</linearGradient>
	<rect x="407.6" y="22.1" class="st4" width="109.4" height="109.4"/>
	
		<radialGradient id="SVGID_00000100361163021173129880000006836012355738473871_" cx="462.29" cy="1028.75" r="49.4" gradientTransform="matrix(1 0 0 1 0 -951.9)" gradientUnits="userSpaceOnUse">
		<stop  offset="0.25" style="stop-color:#99AC44"/>
		<stop  offset="1" style="stop-color:#3E7C31"/>
	</radialGradient>
	
		<rect x="412.9" y="27.5" style="fill:url(#SVGID_00000100361163021173129880000006836012355738473871_);" width="98.8" height="98.8"/>
	<path id="darker" class="st6" d="M517,131.6H407.6v-60c0,0,34.5,5.3,54.7,5.3s54.8-5.3,54.8-5.3V131.6L517,131.6z"/>
	<path class="st7" d="M450.7,49.1c-0.3,0-3,0.4-4.6,2.6c-0.6,0.8-0.9,1.8-1.1,2.8c-0.4,2-1.1,5.8,0.4,10.3c0.7,2.1,1.6,4.8,4,6.5
		c0.7,0.6,2.2,1.6,4.2,1.4c2.1-0.2,3.5-1.8,3.9-2.3c1.9-2.1,1.9-4.7,2-7.3c0-1.3,0-5.3-2-9.5c-1.4-2.8-2.6-3.5-3.2-3.8
		C452.7,48.8,451.1,49,450.7,49.1L450.7,49.1L450.7,49.1z"/>
	<path class="st7" d="M476.4,47.5c-0.3-0.1-2.9-0.7-5.1,0.8c-0.8,0.6-1.5,1.3-2,2.2c-1.1,1.8-3.1,4.9-3.2,9.8
		c-0.1,2.3-0.2,5,1.5,7.5c0.6,0.7,1.6,2.2,3.5,2.7c2,0.6,3.9-0.5,4.5-0.8c2.4-1.4,3.5-3.7,4.5-6.2c0.5-1.2,1.9-4.9,1.4-9.6
		c-0.3-3.1-1.2-4.2-1.7-4.7C478.4,48,476.9,47.7,476.4,47.5L476.4,47.5L476.4,47.5z"/>
	<path class="st7" d="M433.3,64c-0.3,0.1-2.9,0.6-4.3,3c-0.6,0.9-0.7,1.8-0.8,2.9c-0.2,2.1-0.6,5.8,1.3,10.2c0.9,2.1,2,4.6,4.7,6.2
		c0.8,0.5,2.4,1.3,4.3,0.9c2.1-0.4,3.2-2.1,3.7-2.7c1.6-2.3,1.5-4.8,1.3-7.5c-0.1-1.3-0.5-5.2-3-9.2c-1.6-2.6-2.9-3.2-3.5-3.5
		C435.3,63.6,433.9,63.9,433.3,64L433.3,64L433.3,64z"/>
	<path class="st7" d="M492,61.7c-0.3-0.1-2.9-0.7-5.1,0.9c-0.8,0.7-1.4,1.4-2,2.3c-1,1.9-3,5-3,9.9c0,2.3-0.1,5,1.7,7.4
		c0.6,0.7,1.7,2.2,3.5,2.6c2,0.5,3.8-0.6,4.5-0.9c2.4-1.4,3.4-3.8,4.3-6.3c0.5-1.2,1.8-4.9,1.1-9.6c-0.4-3.1-1.3-4.2-1.8-4.7
		C493.9,62.1,492.4,61.8,492,61.7L492,61.7L492,61.7L492,61.7z"/>
	<path class="st8" d="M491.3,64.7c-0.2,0-2.1-0.5-3.8,0.7c-0.6,0.5-1,1-1.5,1.7c-0.7,1.4-2.1,3.7-2.2,7.3c0,1.7-0.1,3.7,1.3,5.6
		c0.4,0.6,1.2,1.7,2.6,1.9c1.6,0.4,2.9-0.5,3.4-0.7c1.8-1.1,2.4-2.8,3.2-4.8c0.4-0.9,1.3-3.7,0.8-7.2c-0.3-2.2-1-3.1-1.3-3.4
		C492.8,65,491.7,64.7,491.3,64.7L491.3,64.7L491.3,64.7L491.3,64.7z"/>
	<path class="st8" d="M475.6,50.5c-0.2-0.1-2.1-0.5-3.8,0.6c-0.6,0.5-1,0.9-1.5,1.7c-0.8,1.3-2.2,3.6-2.4,7.3
		c-0.1,1.7-0.2,3.7,1.1,5.6c0.4,0.6,1.1,1.7,2.5,2.1c1.6,0.4,2.9-0.4,3.4-0.6c1.8-1,2.5-2.7,3.2-4.6c0.4-0.9,1.4-3.6,1-7.1
		c-0.3-2.2-0.9-3.1-1.2-3.5C477,50.9,476,50.6,475.6,50.5L475.6,50.5L475.6,50.5L475.6,50.5z"/>
	<path class="st8" d="M451.1,52.1c-0.2,0-2.1,0.3-3.4,1.9c-0.5,0.7-0.6,1.3-0.8,2c-0.3,1.5-0.8,4.2,0.3,7.6c0.6,1.6,1.1,3.5,3,4.8
		c0.6,0.4,1.7,1.1,3.1,1c1.6-0.2,2.5-1.3,2.9-1.7c1.3-1.6,1.4-3.4,1.5-5.4c0-0.9,0-3.9-1.6-7c-1-2-2-2.6-2.3-2.8
		C452.5,51.9,451.4,52,451.1,52.1C451.1,52.1,451.1,52.1,451.1,52.1z"/>
	<path class="st8" d="M433.9,66.7c-0.2,0-2.2,0.5-3.2,2.3c-0.5,0.7-0.6,1.4-0.6,2.2c-0.2,1.6-0.5,4.5,1,7.8c0.6,1.6,1.5,3.5,3.5,4.7
		c0.6,0.4,1.9,1,3.2,0.7c1.6-0.3,2.5-1.6,2.8-2.1c1.2-1.8,1.1-3.7,1-5.8c-0.1-1-0.4-4-2.2-7.1c-1.2-2.1-2.2-2.5-2.7-2.7
		C435.4,66.4,434.2,66.6,433.9,66.7L433.9,66.7L433.9,66.7L433.9,66.7z"/>
	<path class="st7" d="M463.1,71.6c-1.3,0.1-2.7,0.1-4.3,0.9c-1.8,0.9-2.8,2.3-3.7,3.5c-0.8,1.1-0.7,1.2-2,3.2
		c-1.1,1.7-1.7,2.7-2.7,3.8c-1.2,1.4-2.4,2.2-4.6,3.9c-2.3,1.8-2.5,1.7-3.2,2.4c-1.6,1.9-2,3.9-2.2,5.3c-0.2,1.3-0.6,3.7,0.4,6.5
		c0.5,1.2,1.3,3.5,3.5,4.6c0.8,0.4,1.7,0.5,3.7,0.4c3.5-0.2,5.8-0.8,7.8-1.3c2.4-0.6,4.9-1.1,8.1-1.2c3.8-0.1,7.2,0.6,8.9,0.8
		c2,0.4,3.5,0.8,6.4,1.1c2.4,0.3,3.6,0.2,5-0.3c0.8-0.3,2.3-0.7,3.5-2.1c1.2-1.5,1.3-3.1,1.3-4.8c0.1-1.1,0.1-3.8-1.5-7
		c-0.6-1.4-1.2-2.1-3.4-4.7c-5.8-7.2-6-8-8.4-10c-1.4-1.2-2.8-2.4-4.9-3.4C469.8,72.8,466.9,71.4,463.1,71.6L463.1,71.6L463.1,71.6
		L463.1,71.6z"/>
	<path class="st8" d="M463.4,74c-1.1,0.1-2.3,0.1-3.7,0.8c-1.5,0.8-2.4,2.1-3.2,3.1c-0.7,0.9-0.6,1-1.7,2.8
		c-0.9,1.5-1.5,2.3-2.3,3.2c-1,1.2-2,1.9-3.9,3.4c-2,1.6-2.1,1.4-2.8,2.1c-1.4,1.6-2.6,4-2.9,5.1c-0.2,1.1-0.6,3.2,0.3,5.6
		c0.4,1.1,1.1,3.1,3,3.9c0.7,0.4,2.4-0.1,4.1-0.3c3-0.2,5-0.7,6.8-1.1c2-0.5,4.3-0.9,7-1c3.2-0.1,6.1,0.5,7.7,0.7
		c1.8,0.4,3.1,0.7,5.5,0.9c2,0.2,4.6,1,5.7,0.7c0.7-0.2,2-0.7,3-1.9s0.7-3.8,0.8-5.3c0.1-0.9-0.7-3-2.3-5.7c-0.7-1.3-1.1-1.8-2.9-4
		c-4.9-6.2-5.2-6.9-7.2-8.6c-1.2-1-2.4-2.1-4.3-3C469.2,75,466.6,73.8,463.4,74L463.4,74L463.4,74z"/>
</g>
<g id="greenery">
	<polygon class="st3" points="264.6,154.3 199.2,116.5 199.2,41.1 264.6,3.2 330,41.1 330,116.5 	"/>
	
		<linearGradient id="SVGID_00000110442937436956637600000008961720430859113897_" gradientUnits="userSpaceOnUse" x1="264.58" y1="855.53" x2="264.58" y2="711.29" gradientTransform="matrix(1 0 0 1 0 -704.68)">
		<stop  offset="0" style="stop-color:#116A37"/>
		<stop  offset="0.15" style="stop-color:#0F9039"/>
		<stop  offset="0.62" style="stop-color:#28A138"/>
		<stop  offset="0.65" style="stop-color:#2EA43A"/>
		<stop  offset="0.84" style="stop-color:#4EAF45"/>
		<stop  offset="1" style="stop-color:#56B148"/>
	</linearGradient>
	<polygon style="fill:url(#SVGID_00000110442937436956637600000008961720430859113897_);" points="264.6,150.9 202.1,114.8 
		202.1,42.7 264.6,6.6 327.1,42.7 327.1,114.8 	"/>
	<polygon class="st10" points="264.6,145.7 206.7,112.2 206.7,45.4 264.6,11.9 322.6,45.4 322.6,112.2 	"/>
	<path class="st1" d="M273.8,122.9c-0.6,0.6-13.6-0.8-15.7,0c-1.1,1.1,1.7-3.6,1.7-6.2V70h9.6v47.3
		C269.6,120,274.4,122.3,273.8,122.9L273.8,122.9z"/>
	<path class="st1" d="M270.3,51.3c7.4,8.8,8.6,20.1,2.6,25.2s-16.8,1.9-24.3-6.8c-7.4-8.8-8.6-20.1-2.6-25.2S262.9,42.4,270.3,51.3z
		"/>
	<path class="st1" d="M262.9,68.8c0,6.6-7.6,11.9-17,11.9s-17-5.2-17-11.9s7.6-11.9,17-11.9S262.9,62.2,262.9,68.8z"/>
	<path class="st1" d="M291.6,53.2c2.5,11.7-2.2,22.6-10.4,24.3c-8.1,1.7-16.9-6.2-19.4-17.9s2.2-22.6,10.4-24.3
		C280.5,33.4,289.1,41.5,291.6,53.2z"/>
	<path class="st1" d="M296.8,72.2c-1.6,5.5-9.2,7.9-17.1,5.8c-8-2.4-13.2-8.5-11.6-14c1.6-5.3,9.2-8,17.1-5.8
		C293.2,60.6,298.4,66.8,296.8,72.2z"/>
	<path class="st1" d="M290,77.8c-0.1,1.2-5.9,1.7-13.1,1.2c-7.1-0.5-12.9-1.8-12.7-3.1s5.9-1.7,13.1-1.2
		C284.3,75.2,290.1,76.6,290,77.8z"/>
</g>
<g id="oxIcon">
	
		<radialGradient id="SVGID_00000163780520670811573800000006878791552634193326_" cx="328.925" cy="747.27" r="19.5175" gradientTransform="matrix(1 0 0 1 0 -704.68)" gradientUnits="userSpaceOnUse">
		<stop  offset="0" style="stop-color:#F6EE87"/>
		<stop  offset="0.78" style="stop-color:#F6EE87"/>
		<stop  offset="0.91" style="stop-color:#F6EE87"/>
		<stop  offset="0.91" style="stop-color:#F7EE88"/>
		<stop  offset="0.94" style="stop-color:#FAF4B7"/>
		<stop  offset="0.96" style="stop-color:#FDFADE"/>
		<stop  offset="0.97" style="stop-color:#FEFCF2"/>
		<stop  offset="0.99" style="stop-color:#FFFFFF"/>
		<stop  offset="1" style="stop-color:#FFFFFF"/>
	</radialGradient>
	<path style="fill:url(#SVGID_00000163780520670811573800000006878791552634193326_);" d="M348.5,42.6c0,10.8-8.8,19.5-19.5,19.5
		s-19.6-8.7-19.6-19.5s8.8-19.5,19.6-19.5S348.5,31.9,348.5,42.6z"/>
	<path class="st12" d="M348.5,42.6c0,10.8-8.8,19.5-19.5,19.5s-19.6-8.7-19.6-19.5s8.8-19.5,19.5-19.5S348.5,31.9,348.5,42.6z"/>
	<path class="st13" d="M346.2,42.6c0,9.5-7.7,17.2-17.2,17.2s-17.2-7.7-17.2-17.2s7.7-17.2,17.2-17.2S346.2,33.1,346.2,42.6z"/>
	
		<linearGradient id="SVGID_00000147209938132828711330000009729251417000446905_" gradientUnits="userSpaceOnUse" x1="330.4656" y1="755.2957" x2="319.3756" y2="744.1857" gradientTransform="matrix(1 0 0 1 0 -704.68)">
		<stop  offset="0" style="stop-color:#5E1613"/>
		<stop  offset="0.1" style="stop-color:#611912"/>
		<stop  offset="0.26" style="stop-color:#732C23"/>
		<stop  offset="0.48" style="stop-color:#924E45"/>
		<stop  offset="0.73" style="stop-color:#BF8981"/>
		<stop  offset="1" style="stop-color:#FBDEDE"/>
	</linearGradient>
	
		<path style="fill:#E2181E;stroke:url(#SVGID_00000147209938132828711330000009729251417000446905_);stroke-width:0.96;stroke-miterlimit:10;" d="
		M332.3,45c0,4.1-3.3,7.4-7.4,7.4s-7.4-3.3-7.4-7.4s3.3-7.4,7.4-7.4S332.3,41,332.3,45z"/>
	
		<linearGradient id="SVGID_00000142854439439574414550000011092200877655586217_" gradientUnits="userSpaceOnUse" x1="338.4007" y1="749.9407" x2="327.2793" y2="738.8193" gradientTransform="matrix(1 0 0 1 0 -704.68)">
		<stop  offset="0" style="stop-color:#5E1613"/>
		<stop  offset="0.1" style="stop-color:#611912"/>
		<stop  offset="0.26" style="stop-color:#732C23"/>
		<stop  offset="0.48" style="stop-color:#924E45"/>
		<stop  offset="0.73" style="stop-color:#BF8981"/>
		<stop  offset="1" style="stop-color:#FBDEDE"/>
	</linearGradient>
	
		<path style="fill:#E2181E;stroke:url(#SVGID_00000142854439439574414550000011092200877655586217_);stroke-width:0.96;stroke-miterlimit:10;" d="
		M340.2,39.7c0,4.1-3.3,7.4-7.4,7.4s-7.4-3.3-7.4-7.4s3.3-7.4,7.4-7.4S340.2,35.6,340.2,39.7z"/>
</g>
<g id="animal-2">
	<rect x="270.3" y="230.8" class="st3" width="116.1" height="116.1"/>
	
		<linearGradient id="SVGID_00000169554850296742395990000008924855659076581301_" gradientUnits="userSpaceOnUse" x1="-1216.2633" y1="2523.604" x2="-1138.8887" y2="2446.2395" gradientTransform="matrix(0.7071 -0.7071 0.7071 0.7071 -596.0881 -2300.8821)">
		<stop  offset="0" style="stop-color:#1F4D23"/>
		<stop  offset="0.43" style="stop-color:#4D7131"/>
		<stop  offset="1" style="stop-color:#99AC44"/>
	</linearGradient>
	
		<rect x="273.6" y="234.2" style="fill:url(#SVGID_00000169554850296742395990000008924855659076581301_);" width="109.4" height="109.4"/>
	
		<radialGradient id="SVGID_00000118384210013392881160000009553588498911085194_" cx="328.35" cy="542.79" r="49.4" gradientTransform="matrix(1 0 0 -1 0 382)" gradientUnits="userSpaceOnUse">
		<stop  offset="0.25" style="stop-color:#99AC44"/>
		<stop  offset="1" style="stop-color:#3E7C31"/>
	</radialGradient>
	
		<rect x="279" y="239.5" style="fill:url(#SVGID_00000118384210013392881160000009553588498911085194_);" width="98.8" height="98.8"/>
	<path id="darker-2" class="st6" d="M383,343.6H273.6v-60c0,0,34.5,5.3,54.7,5.3s54.8-5.3,54.8-5.3V343.6L383,343.6z"/>
	<path class="st7" d="M316.8,261.1c-0.3,0-3,0.4-4.6,2.6c-0.6,0.8-0.9,1.8-1.1,2.8c-0.4,2-1.1,5.8,0.4,10.3c0.7,2.1,1.6,4.8,4,6.5
		c0.7,0.6,2.2,1.6,4.2,1.4c2.1-0.2,3.4-1.8,3.9-2.3c1.9-2.1,1.9-4.7,2-7.4c0-1.3,0-5.3-2-9.5c-1.4-2.8-2.6-3.5-3.2-3.8
		C318.8,260.8,317.2,261,316.8,261.1L316.8,261.1L316.8,261.1z"/>
	<path class="st7" d="M342.5,259.5c-0.3-0.1-2.9-0.6-5.1,0.8c-0.8,0.6-1.5,1.3-2.1,2.2c-1.1,1.8-3.1,4.9-3.2,9.8
		c-0.1,2.3-0.2,5,1.5,7.5c0.6,0.7,1.6,2.2,3.4,2.7c2.1,0.6,3.9-0.5,4.5-0.8c2.4-1.4,3.5-3.7,4.5-6.2c0.5-1.2,1.9-4.9,1.4-9.6
		c-0.3-3.1-1.2-4.2-1.7-4.7C344.4,260.1,342.9,259.7,342.5,259.5L342.5,259.5L342.5,259.5z"/>
	<path class="st7" d="M299.3,276c-0.3,0.1-2.9,0.6-4.3,3c-0.6,0.9-0.7,1.8-0.8,2.9c-0.2,2-0.6,5.8,1.3,10.2c0.9,2,2,4.6,4.7,6.1
		c0.8,0.5,2.4,1.3,4.3,0.9c2.1-0.4,3.2-2,3.7-2.7c1.6-2.3,1.5-4.8,1.3-7.5c-0.1-1.3-0.5-5.2-3-9.2c-1.6-2.6-2.9-3.2-3.5-3.5
		C301.3,275.6,299.9,275.9,299.3,276L299.3,276L299.3,276z"/>
	<path class="st7" d="M358,273.8c-0.3-0.1-2.9-0.6-5.1,0.9c-0.8,0.6-1.4,1.4-2,2.3c-1,1.9-3,5-3,9.9c0,2.3-0.1,5,1.7,7.5
		c0.6,0.7,1.7,2.2,3.5,2.6c2.1,0.5,3.8-0.6,4.5-0.9c2.4-1.4,3.4-3.8,4.3-6.3c0.5-1.2,1.8-4.9,1.1-9.6c-0.4-3.1-1.3-4.2-1.8-4.7
		C360,274.2,358.5,273.8,358,273.8L358,273.8L358,273.8L358,273.8z"/>
	<path class="st8" d="M357.4,276.7c-0.2,0-2.1-0.5-3.8,0.7c-0.6,0.5-1,1-1.5,1.7c-0.7,1.4-2.1,3.7-2.2,7.4c0,1.7-0.1,3.7,1.3,5.6
		c0.4,0.6,1.2,1.7,2.6,2c1.6,0.4,2.9-0.5,3.4-0.6c1.8-1.1,2.4-2.8,3.2-4.8c0.4-0.9,1.3-3.7,0.8-7.2c-0.3-2.2-1-3.1-1.3-3.5
		C358.8,277,357.7,276.7,357.4,276.7L357.4,276.7L357.4,276.7z"/>
	<path class="st8" d="M341.7,262.6c-0.2-0.1-2.1-0.5-3.8,0.6c-0.7,0.5-1,0.9-1.5,1.7c-0.8,1.3-2.2,3.6-2.4,7.3
		c-0.1,1.7-0.2,3.7,1.1,5.6c0.4,0.6,1.1,1.7,2.5,2c1.6,0.4,2.9-0.4,3.4-0.6c1.8-1,2.5-2.7,3.2-4.6c0.4-0.9,1.4-3.6,1-7.1
		c-0.3-2.2-0.9-3.1-1.2-3.5C343.1,262.9,342.1,262.7,341.7,262.6L341.7,262.6L341.7,262.6L341.7,262.6z"/>
	<path class="st8" d="M317.1,264.2c-0.2,0-2.1,0.3-3.4,1.9c-0.5,0.6-0.7,1.3-0.8,2c-0.3,1.5-0.8,4.2,0.3,7.6c0.6,1.6,1.1,3.5,3,4.8
		c0.6,0.4,1.7,1.1,3.1,1c1.6-0.2,2.5-1.3,2.9-1.7c1.3-1.6,1.4-3.5,1.5-5.4c0-0.9,0-3.9-1.6-7c-1-2-1.9-2.6-2.3-2.8
		C318.6,264,317.5,264.1,317.1,264.2L317.1,264.2L317.1,264.2z"/>
	<path class="st8" d="M300,278.7c-0.2,0-2.2,0.5-3.2,2.3c-0.5,0.7-0.6,1.4-0.6,2.2c-0.2,1.6-0.5,4.5,1,7.8c0.6,1.6,1.5,3.5,3.5,4.7
		c0.6,0.4,1.9,1,3.2,0.7c1.6-0.3,2.5-1.6,2.8-2c1.2-1.8,1.1-3.7,1-5.8c-0.1-1-0.4-4-2.2-7.1c-1.2-2-2.2-2.5-2.7-2.7
		C301.5,278.4,300.2,278.7,300,278.7L300,278.7L300,278.7L300,278.7z"/>
	<path class="st7" d="M329.1,283.6c-1.3,0.1-2.7,0.1-4.3,0.9c-1.8,0.9-2.8,2.3-3.7,3.5c-0.8,1.1-0.7,1.2-1.9,3.2
		c-1.1,1.7-1.7,2.7-2.7,3.8c-1.2,1.4-2.4,2.2-4.6,3.9c-2.3,1.8-2.5,1.7-3.2,2.4c-1.6,1.9-1.9,3.9-2.2,5.3c-0.2,1.3-0.6,3.7,0.4,6.5
		c0.5,1.2,1.3,3.5,3.5,4.6c0.8,0.4,1.7,0.5,3.7,0.4c3.5-0.2,5.8-0.8,7.8-1.3c2.4-0.6,4.9-1.1,8.1-1.2c3.8-0.1,7.2,0.6,8.9,0.8
		c2.1,0.4,3.5,0.8,6.4,1.1c2.4,0.3,3.6,0.2,5-0.3c0.8-0.3,2.3-0.7,3.5-2c1.2-1.5,1.3-3.1,1.3-4.8c0.1-1.1,0.1-3.8-1.5-7
		c-0.6-1.4-1.2-2-3.4-4.7c-5.8-7.2-6.1-8-8.4-10c-1.4-1.2-2.8-2.4-4.9-3.5C335.8,284.8,332.9,283.4,329.1,283.6L329.1,283.6
		L329.1,283.6L329.1,283.6z"/>
	<path class="st8" d="M329.4,286c-1.1,0.1-2.3,0.1-3.7,0.8c-1.5,0.8-2.4,2-3.2,3.1c-0.7,0.9-0.6,1-1.7,2.8c-0.9,1.5-1.5,2.3-2.3,3.2
		c-1,1.2-2,2-3.9,3.4c-2.1,1.6-2.1,1.4-2.8,2.1c-1.4,1.6-2.6,4-2.9,5.1c-0.2,1.1-0.6,3.2,0.3,5.6c0.4,1.1,1.1,3.1,3,3.9
		c0.7,0.4,2.4-0.1,4.1-0.3c3-0.2,5-0.7,6.8-1.1c2.1-0.5,4.3-0.9,7-1c3.2-0.1,6.1,0.5,7.7,0.7c1.8,0.4,3.1,0.7,5.5,0.9
		c2,0.2,4.6,1,5.7,0.6c0.7-0.2,1.9-0.7,3-2c1-1.2,0.7-3.8,0.8-5.3c0.1-0.9-0.7-3-2.3-5.7c-0.7-1.3-1.1-1.8-2.9-4
		c-4.9-6.1-5.2-6.9-7.2-8.6c-1.2-1-2.4-2-4.3-3C335.2,287.1,332.7,285.9,329.4,286L329.4,286L329.4,286z"/>
</g>
<g id="prodBg" class="st18">
	
		<linearGradient id="external-border_00000043416422874610440740000002837713295289898882_" gradientUnits="userSpaceOnUse" x1="585.3773" y1="1304.2573" x2="459.4527" y2="1178.3328" gradientTransform="matrix(1 0 0 1 0 -952.55)">
		<stop  offset="0" style="stop-color:#9F9D9C"/>
		<stop  offset="0.54" style="stop-color:#020303"/>
		<stop  offset="1" style="stop-color:#9F9D9C"/>
	</linearGradient>
	
		<rect id="external-border" x="450.1" y="235.1" style="fill:url(#external-border_00000043416422874610440740000002837713295289898882_);" width="144.6" height="107.3"/>
	
		<linearGradient id="internal-border_00000093150809599810988540000005415360102010736563_" gradientUnits="userSpaceOnUse" x1="522.4611" y1="1292.118" x2="522.4611" y2="1190.4904" gradientTransform="matrix(1 0 0 1 0 -952.55)">
		<stop  offset="0" style="stop-color:#472D1C"/>
		<stop  offset="1" style="stop-color:#B18047"/>
	</linearGradient>
	
		<rect id="internal-border" x="453" y="237.9" style="fill:url(#internal-border_00000093150809599810988540000005415360102010736563_);" width="139" height="101.6"/>
	
		<linearGradient id="bg_00000072959067374976527100000006636821446823873707_" gradientUnits="userSpaceOnUse" x1="522.4088" y1="1289.5476" x2="522.4088" y2="1192.9686" gradientTransform="matrix(1 0 0 1 0 -952.55)">
		<stop  offset="0" style="stop-color:#946137"/>
		<stop  offset="1" style="stop-color:#815228"/>
	</linearGradient>
	
		<rect id="bg" x="455.4" y="240.4" style="fill:url(#bg_00000072959067374976527100000006636821446823873707_);" width="134" height="96.6"/>
	
		<pattern  id="bgPattern_00000036229345644868016330000003293957797996128184_" xlink:href="#Nowy_wzorek_5" patternTransform="matrix(1 0 0 1 51.4 33366.9688)"  class="st18">
	</pattern>
	
		<rect id="bgPattern" x="455.4" y="240.4" style="opacity:0.1;fill:url(#bgPattern_00000036229345644868016330000003293957797996128184_);enable-background:new    ;" width="134" height="96.6"/>
</g>
<path class="st23" d="M472.3,291.8v-5.6h13.3v5.6H472.3z"/>
<g id="plant" class="st18">
	
		<linearGradient id="SVGID_00000111910294325302323540000013930238243554188725_" gradientUnits="userSpaceOnUse" x1="541.3187" y1="-185.3596" x2="541.3187" y2="-99.444" gradientTransform="matrix(1 0 0 -1 0 146.54)">
		<stop  offset="0" style="stop-color:#FFDC15"/>
		<stop  offset="0" style="stop-color:#FFDB16"/>
		<stop  offset="5.000000e-02" style="stop-color:#F9BB24"/>
		<stop  offset="0.1" style="stop-color:#F59D1E"/>
		<stop  offset="0.16" style="stop-color:#EF7C1E"/>
		<stop  offset="0.22" style="stop-color:#E86312"/>
		<stop  offset="0.27" style="stop-color:#E94C21"/>
		<stop  offset="0.34" style="stop-color:#E63B23"/>
		<stop  offset="0.41" style="stop-color:#E63624"/>
		<stop  offset="0.5" style="stop-color:#E63324"/>
		<stop  offset="0.59" style="stop-color:#E63624"/>
		<stop  offset="0.66" style="stop-color:#E63B23"/>
		<stop  offset="0.73" style="stop-color:#E94C21"/>
		<stop  offset="0.78" style="stop-color:#E86312"/>
		<stop  offset="0.84" style="stop-color:#EF7C1E"/>
		<stop  offset="0.9" style="stop-color:#F59D1E"/>
		<stop  offset="0.95" style="stop-color:#F9BB24"/>
		<stop  offset="1" style="stop-color:#FFDB16"/>
		<stop  offset="1" style="stop-color:#FFDC15"/>
	</linearGradient>
	
		<rect x="498.4" y="246" style="opacity:0.4;fill:url(#SVGID_00000111910294325302323540000013930238243554188725_);enable-background:new    ;" width="85.9" height="85.9"/>
	
		<linearGradient id="SVGID_00000007420923195275030560000014110636511061220995_" gradientUnits="userSpaceOnUse" x1="541.3249" y1="-183.115" x2="541.3249" y2="-101.6886" gradientTransform="matrix(1 0 0 -1 0 146.54)">
		<stop  offset="0" style="stop-color:#FFDC15"/>
		<stop  offset="0" style="stop-color:#FFDB16"/>
		<stop  offset="5.000000e-02" style="stop-color:#F9BB24"/>
		<stop  offset="0.1" style="stop-color:#F59D1E"/>
		<stop  offset="0.16" style="stop-color:#EF7C1E"/>
		<stop  offset="0.22" style="stop-color:#E86312"/>
		<stop  offset="0.27" style="stop-color:#E94C21"/>
		<stop  offset="0.34" style="stop-color:#E63B23"/>
		<stop  offset="0.41" style="stop-color:#E63624"/>
		<stop  offset="0.5" style="stop-color:#E63324"/>
		<stop  offset="0.59" style="stop-color:#E63624"/>
		<stop  offset="0.66" style="stop-color:#E63B23"/>
		<stop  offset="0.73" style="stop-color:#E94C21"/>
		<stop  offset="0.78" style="stop-color:#E86312"/>
		<stop  offset="0.84" style="stop-color:#EF7C1E"/>
		<stop  offset="0.9" style="stop-color:#F59D1E"/>
		<stop  offset="0.95" style="stop-color:#F9BB24"/>
		<stop  offset="1" style="stop-color:#FFDB16"/>
		<stop  offset="1" style="stop-color:#FFDC15"/>
	</linearGradient>
	
		<rect x="500.6" y="248.2" style="fill:url(#SVGID_00000007420923195275030560000014110636511061220995_);" width="81.4" height="81.4"/>
	<rect x="505.7" y="253" class="st26" width="71.5" height="71.5"/>
	
		<linearGradient id="SVGID_00000165230168786308858760000012395065799959792022_" gradientUnits="userSpaceOnUse" x1="-884.1663" y1="2518.4407" x2="-836.5469" y2="2470.8091" gradientTransform="matrix(0.7071 -0.7071 0.7071 0.7071 -614.1481 -2083.6221)">
		<stop  offset="0" style="stop-color:#0F6936"/>
		<stop  offset="4.000000e-02" style="stop-color:#0F6C37"/>
		<stop  offset="8.000000e-02" style="stop-color:#077739"/>
		<stop  offset="0.13" style="stop-color:#108837"/>
		<stop  offset="0.15" style="stop-color:#0A9039"/>
		<stop  offset="0.35" style="stop-color:#36993D"/>
		<stop  offset="0.76" style="stop-color:#5FB048"/>
		<stop  offset="1" style="stop-color:#6FB74B"/>
	</linearGradient>
	
		<rect x="507.8" y="255" style="fill:url(#SVGID_00000165230168786308858760000012395065799959792022_);" width="67.3" height="67.3"/>
	<rect x="511" y="258.3" class="st28" width="60.8" height="60.8"/>
	<path id="leaf" class="st29" d="M541.4,273.3c-8.7,1.2-15.4,6.9-15.4,15.4c0,2.1,0.4,4.1,1.1,5.9c-1.6,1.1-4,2.5-5.1,2.9
		c-2,0.7-6,0.2-6.2,0.6c-0.2,0.3,1.1,4,1.6,4.1c0.5,0.2,4.1,0.2,6.2-0.6c1.5-0.5,4.2-2.2,5.7-3.4c2.8,3.6,7.2,5.8,12,5.8
		c8.5,0,15.2-5.3,15.2-13.8c0-3.3,0.8-7.4,2-10c1.3-2.9,8.1-4.7,8.1-4.7C566.2,273.3,544.9,272.9,541.4,273.3L541.4,273.3z"/>
	<path id="darker-2_00000096765623619919318180000011274281673876126370_" class="st30" d="M575.1,322.4h-67.3v-36.9
		c0,0,21.2,3.3,33.6,3.3s33.7-3.3,33.7-3.3V322.4L575.1,322.4z"/>
</g>
</svg>
