<?xml version="1.0" encoding="utf-8"?>
<!-- Generator: Adobe Illustrator 27.5.0, SVG Export Plug-In . SVG Version: 6.00 Build 0)  -->
<svg version="1.1" id="Layer" xmlns="http://www.w3.org/2000/svg" xmlns:xlink="http://www.w3.org/1999/xlink" x="0px" y="0px"
	 viewBox="0 0 721 379.9" style="enable-background:new 0 0 721 379.9;" xml:space="preserve">
<style type="text/css">
	.st0{fill:#FFFFFF;fill-opacity:0;}
	.st1{opacity:0.4;}
	.st2{fill:#020303;}
	.st3{fill:url(#SVGID_1_);}
	.st4{fill:#44AC36;}
	.st5{fill:#07562A;stroke:#1C4421;stroke-width:3.73;stroke-miterlimit:10;}
	.st6{opacity:5.000000e-02;fill:#020303;enable-background:new    ;}
	.st7{fill:url(#SVGID_00000090276180738853172550000001376393232641615753_);}
	.st8{fill:#95C125;}
	.st9{fill:#3C481E;}
	.st10{opacity:0.12;fill:#020303;enable-background:new    ;}
	.st11{fill:url(#SVGID_00000041991233770222218300000011459890659811664028_);}
	.st12{fill:url(#SVGID_00000070802816105334638080000000564581341615399308_);}
	.st13{opacity:8.000000e-02;fill:#020303;enable-background:new    ;}
	.st14{fill:#115729;}
	.st15{fill:#18291B;}
</style>
<rect x="0.5" y="0.5" class="st0" width="720" height="378.9"/>
<g class="st1">
	<g>
		<path d="M158.8,108c-3,0-5.6-0.6-7.9-1.9s-3.9-3-5.1-5.4c-1.2-2.3-1.7-5-1.7-7.9s0.6-5.6,1.7-7.9s2.9-4.1,5.1-5.4s4.9-1.9,7.8-1.9
			s5.6,0.6,7.8,1.9c2.2,1.2,3.9,3,5.1,5.4s1.7,5,1.7,7.9s-0.6,5.6-1.7,7.9c-1.2,2.3-2.9,4.1-5.1,5.4
			C164.4,107.4,161.8,108,158.8,108z M158.8,104c2.8,0,4.9-1.1,6.2-3.4c1.4-2.3,2-4.9,2-7.8s-0.7-5.6-2.1-7.8
			c-1.4-2.3-3.4-3.4-6.2-3.4s-4.9,1.1-6.2,3.4s-2.1,4.9-2.1,7.8s0.7,5.5,2,7.8S156,104,158.8,104L158.8,104z"/>
		<path d="M178.9,107.3V78.4h9.9c2.9,0,4.9,0.3,6.1,0.9c1.2,0.6,2.1,1.5,2.7,2.6s0.9,2.5,0.9,4.2c0,3.2-1,5.7-3.1,7.4
			c-2,1.7-4.8,2.5-8.2,2.5h-2.4v11.3L178.9,107.3L178.9,107.3z M184.8,92h1.1c2.2,0,3.8-0.5,4.9-1.6c1-1.1,1.6-2.3,1.6-3.7
			c0-0.8-0.2-1.5-0.5-2.2c-0.3-0.7-0.8-1.2-1.5-1.6c-0.7-0.4-1.8-0.6-3.3-0.6h-2.3C184.8,82.3,184.8,92,184.8,92z"/>
		<path d="M216.2,108c-3,0-5.6-0.6-7.9-1.9s-3.9-3-5.1-5.4c-1.2-2.3-1.7-5-1.7-7.9s0.6-5.6,1.7-7.9s2.9-4.1,5.1-5.4s4.9-1.9,7.8-1.9
			s5.6,0.6,7.8,1.9c2.2,1.2,3.9,3,5.1,5.4s1.7,5,1.7,7.9s-0.6,5.6-1.7,7.9c-1.2,2.3-2.9,4.1-5.1,5.4
			C221.9,107.4,219.3,108,216.2,108z M216.2,104c2.8,0,4.9-1.1,6.2-3.4c1.4-2.3,2-4.9,2-7.8s-0.7-5.6-2.1-7.8
			c-1.4-2.3-3.4-3.4-6.2-3.4s-4.9,1.1-6.2,3.4s-2.1,4.9-2.1,7.8s0.7,5.5,2,7.8S213.4,104,216.2,104L216.2,104z"/>
		<path d="M236.3,107.3V78.4h5.3L255,98.1V78.4h4.8v28.9h-5.4l-13.3-19.8v19.8L236.3,107.3L236.3,107.3z"/>
		<path d="M267,107.3V78.4h18.5v4h-12.5v8.1h10.3v4h-10.3v8.8h13.4v4.1L267,107.3L267,107.3z"/>
		<path d="M291.1,107.3V78.4h5.3l13.4,19.8V78.4h4.8v28.9h-5.4l-13.3-19.8v19.8L291.1,107.3L291.1,107.3z"/>
		<path d="M329,107.3V82.3h-10.4v-4h26.7v4H335v24.9H329z"/>
		<path d="M347.8,107v-5c2.3,0.9,3.9,1.5,5.1,1.7c1.1,0.2,2.1,0.3,3.1,0.3c1.7,0,3-0.4,3.8-1.1c0.8-0.8,1.2-1.7,1.2-2.7
			c0-0.8-0.2-1.5-0.7-2.2c-0.5-0.6-1.6-1.5-3.4-2.5l-2-1.1c-2.8-1.6-4.7-3-5.7-4.3c-1-1.3-1.5-2.8-1.5-4.6c0-2.2,0.8-4,2.5-5.6
			c1.7-1.6,4-2.3,7.2-2.3c2.3,0,5,0.3,7.9,1v4.6c-3-1.1-5.4-1.7-7.1-1.7c-1.5,0-2.6,0.3-3.3,0.9s-1.1,1.4-1.1,2.3
			c0,0.7,0.2,1.3,0.7,1.9c0.5,0.6,1.6,1.4,3.4,2.4l2.1,1.2c3.2,1.8,5.2,3.3,6.1,4.7c0.9,1.3,1.3,2.8,1.3,4.5c0,2.4-0.9,4.4-2.7,6.1
			s-4.7,2.5-8.6,2.5C353.6,108,350.9,107.7,347.8,107L347.8,107z"/>
		<path d="M385,107.3V78.4h8l7,20.3l7.2-20.3h7v28.9h-5.5V85.5l-7.1,19.9h-4.8l-6.9-20.2v22.1L385,107.3L385,107.3z"/>
		<path d="M418.2,107.3l11.3-28.9h6l11.2,28.9h-6.2l-3-7.7h-12l-3,7.7L418.2,107.3L418.2,107.3z M427.1,95.7h9l-4.5-11.5
			C431.6,84.2,427.1,95.7,427.1,95.7z"/>
		<path d="M457.7,107.3V95.2L448,78.4h6.6l7,12.2l7.4-12.2h4.8l-10.1,16.8v12.2L457.7,107.3L457.7,107.3z"/>
		<path d="M491,107.3V78.4h5.3l13.4,19.8V78.4h4.8v28.9h-5.4l-13.3-19.8v19.8L491,107.3L491,107.3z"/>
		<path d="M534.7,108c-3,0-5.6-0.6-7.8-1.9s-3.9-3-5.1-5.4c-1.2-2.3-1.7-5-1.7-7.9s0.6-5.6,1.7-7.9s2.9-4.1,5.1-5.4s4.8-1.9,7.8-1.9
			s5.6,0.6,7.8,1.9c2.2,1.2,3.9,3,5.1,5.4s1.7,5,1.7,7.9s-0.6,5.6-1.7,7.9c-1.2,2.3-2.8,4.1-5.1,5.4
			C540.3,107.4,537.7,108,534.7,108L534.7,108z M534.7,104c2.8,0,4.9-1.1,6.2-3.4c1.4-2.3,2-4.9,2-7.8s-0.7-5.6-2-7.8
			c-1.4-2.3-3.4-3.4-6.2-3.4s-4.9,1.1-6.2,3.4s-2,4.9-2,7.8s0.7,5.5,2,7.8S531.8,104,534.7,104L534.7,104z"/>
		<path d="M561.9,107.3V82.3h-10.3v-4h26.7v4h-10.3v24.9H561.9z"/>
		<path d="M212.6,155.3v-28.9h10.8c2.2,0,3.9,0.3,5.1,0.8s2.1,1.4,2.7,2.5s1,2.4,1,3.8c0,1.7-0.5,3.3-1.5,4.8s-2.4,2.6-4.1,3.4
			l9.5,13.5h-7.3l-7.2-11.8h-3.3v11.8L212.6,155.3L212.6,155.3z M218.2,139.5h1.4c2.5,0,4.2-0.5,5.1-1.6c0.9-1.1,1.4-2.3,1.4-3.7
			c0-1.2-0.4-2.1-1.2-2.8c-0.8-0.7-2.3-1-4.7-1h-2.1L218.2,139.5L218.2,139.5z"/>
		<path d="M240.2,155.3v-28.9h18.5v4h-12.5v8.1h10.3v4h-10.3v8.8h13.4v4.1L240.2,155.3L240.2,155.3z"/>
		<path d="M264.2,155.3v-28.9h8l7,20.3l7.2-20.3h7v28.9h-5.5v-21.8l-7.1,19.9h-4.8l-6.9-20.2v22.1L264.2,155.3L264.2,155.3z"/>
		<path d="M313.4,156c-3,0-5.6-0.6-7.9-1.9s-3.9-3-5.1-5.4c-1.2-2.3-1.7-5-1.7-7.9s0.6-5.6,1.7-7.9s2.9-4.1,5.1-5.4
			c2.2-1.2,4.9-1.9,7.8-1.9s5.6,0.6,7.8,1.9c2.2,1.2,3.9,3,5.1,5.4s1.7,5,1.7,7.9s-0.6,5.6-1.7,7.9s-2.9,4.1-5.1,5.4
			C319,155.4,316.4,156,313.4,156z M313.4,152c2.8,0,4.9-1.1,6.2-3.4c1.4-2.3,2-4.9,2-7.8s-0.7-5.6-2-7.8s-3.4-3.4-6.2-3.4
			s-4.9,1.1-6.2,3.4c-1.4,2.3-2,4.9-2,7.8s0.7,5.5,2,7.8C308.5,150.9,310.6,152,313.4,152L313.4,152z"/>
		<path d="M341,155.3l-10.7-28.9h6.4l8.3,22.4l8-22.4h4.3L347,155.3H341L341,155.3z"/>
		<path d="M361.4,155.3v-28.9h18.5v4h-12.5v8.1h10.3v4h-10.3v8.8h13.4v4.1L361.4,155.3L361.4,155.3z"/>
		<path d="M405.1,155.3v-12.1l-9.7-16.8h6.6l7,12.2l7.4-12.2h4.8l-10.1,16.8v12.1L405.1,155.3L405.1,155.3z"/>
		<path d="M438.5,156c-3,0-5.6-0.6-7.9-1.9s-3.9-3-5.1-5.4c-1.2-2.3-1.7-5-1.7-7.9s0.6-5.6,1.7-7.9s2.9-4.1,5.1-5.4
			c2.2-1.2,4.9-1.9,7.8-1.9s5.6,0.6,7.8,1.9c2.2,1.2,3.9,3,5.1,5.4s1.7,5,1.7,7.9s-0.6,5.6-1.7,7.9s-2.9,4.1-5.1,5.4
			C444.1,155.4,441.5,156,438.5,156z M438.5,152c2.8,0,4.9-1.1,6.2-3.4c1.4-2.3,2-4.9,2-7.8s-0.7-5.6-2-7.8s-3.4-3.4-6.2-3.4
			s-4.9,1.1-6.2,3.4c-1.4,2.3-2,4.9-2,7.8s0.7,5.5,2,7.8C433.7,150.9,435.7,152,438.5,152L438.5,152z"/>
		<path d="M458.4,126.4h6v17.7c0,3.2,0.5,5.3,1.6,6.4s2.5,1.6,4.2,1.6s3.1-0.5,4.1-1.5s1.5-3,1.5-6v-18.2h5.2v17.8
			c0,3.4-0.4,5.8-1.3,7.2s-2,2.6-3.6,3.4c-1.6,0.8-3.6,1.2-6,1.2s-4.5-0.4-6.2-1.2s-3.1-1.9-4.1-3.5c-1-1.5-1.5-4-1.5-7.3V126.4
			L458.4,126.4z"/>
		<path d="M488,155.3v-28.9h10.8c2.2,0,3.9,0.3,5.1,0.8s2.1,1.4,2.7,2.5c0.7,1.1,1,2.4,1,3.8c0,1.7-0.5,3.3-1.5,4.8
			s-2.4,2.6-4.1,3.4l9.5,13.5h-7.3l-7.2-11.8h-3.3v11.8L488,155.3L488,155.3z M493.7,139.5h1.4c2.5,0,4.2-0.5,5.1-1.6
			c1-1.1,1.4-2.3,1.4-3.7c0-1.2-0.4-2.1-1.1-2.8c-0.8-0.7-2.3-1-4.7-1h-2.1L493.7,139.5L493.7,139.5z"/>
	</g>
	<g id="plant">
		<rect x="150.1" y="190.9" class="st2" width="116.2" height="116.2"/>
		
			<linearGradient id="SVGID_1_" gradientUnits="userSpaceOnUse" x1="-1107.5052" y1="-1188.5864" x2="-1030.0701" y2="-1111.1511" gradientTransform="matrix(0.7071 -0.7071 -0.7071 -0.7071 150.852 -1319.8319)">
			<stop  offset="0" style="stop-color:#0C6835"/>
			<stop  offset="4.000000e-02" style="stop-color:#0A6B36"/>
			<stop  offset="8.000000e-02" style="stop-color:#047638"/>
			<stop  offset="0.13" style="stop-color:#078738"/>
			<stop  offset="0.15" style="stop-color:#058F39"/>
			<stop  offset="0.35" style="stop-color:#34993D"/>
			<stop  offset="0.76" style="stop-color:#5EAF47"/>
			<stop  offset="1" style="stop-color:#6EB74A"/>
		</linearGradient>
		<rect x="153.4" y="194.2" class="st3" width="109.5" height="109.5"/>
		<rect x="158.7" y="199.6" class="st4" width="98.9" height="98.9"/>
		<path id="leaf" class="st5" d="M208.1,224c-14.2,2-25,11.2-25,25c0,3.4,0.6,6.6,1.9,9.6c-2.6,1.8-6.4,4.1-8.3,4.8
			c-3.3,1.1-9.8,0.4-10.1,0.9s1.9,6.4,2.6,6.7s6.7,0.3,10.1-0.9c2.4-0.8,6.8-3.6,9.3-5.5c4.6,5.8,11.6,9.4,19.6,9.4
			c13.8,0,24.8-8.7,24.8-22.5c0-5.3,1.3-12,3.3-16.2c2.1-4.7,13.2-7.6,13.2-7.6C248.4,224,213.7,223.2,208.1,224L208.1,224z"/>
		<path id="darker" class="st6" d="M262.9,303.8H153.4v-60c0,0,34.5,5.3,54.7,5.3s54.8-5.3,54.8-5.3L262.9,303.8L262.9,303.8z"/>
	</g>
	<g id="microbe">
		<rect x="291.6" y="190.9" class="st2" width="116.2" height="116.2"/>
		
			<linearGradient id="SVGID_00000142155622412228943350000009637784817449211280_" gradientUnits="userSpaceOnUse" x1="-1007.4638" y1="-1288.6329" x2="-930.0286" y2="-1211.1875" gradientTransform="matrix(0.7071 -0.7071 -0.7071 -0.7071 150.852 -1319.8319)">
			<stop  offset="0" style="stop-color:#3C481E"/>
			<stop  offset="0.14" style="stop-color:#4A5D23"/>
			<stop  offset="0.42" style="stop-color:#68842B"/>
			<stop  offset="0.66" style="stop-color:#80A42A"/>
			<stop  offset="0.86" style="stop-color:#8FB923"/>
			<stop  offset="1" style="stop-color:#95C125"/>
		</linearGradient>
		
			<rect x="294.9" y="194.2" style="fill:url(#SVGID_00000142155622412228943350000009637784817449211280_);" width="109.5" height="109.5"/>
		<rect x="300.2" y="199.6" class="st8" width="98.9" height="98.9"/>
		<g id="microbes">
			<polygon class="st9" points="350.9,258.9 346.3,259.5 346.9,264.1 342.3,263.4 341.5,268 337.3,265.9 335.3,270.1 331.8,266.8 
				328.6,270.3 326.3,266.2 322.2,268.4 321.3,263.9 316.7,264.9 317.1,260.2 312.4,259.8 314.2,255.5 309.9,253.7 312.9,250.1 
				309.3,247.1 313.2,244.5 310.6,240.6 315,239.3 313.7,234.8 318.4,234.9 318.5,230.2 323,231.6 324.4,227.2 328.2,229.8 
				330.9,226 333.8,229.7 337.4,226.9 339.1,231.2 343.5,229.6 343.8,234.3 348.4,234 347.3,238.6 351.9,239.6 349.4,243.6 
				353.5,246.1 350,249.2 353.2,252.7 348.9,254.6 			"/>
			<polygon class="st9" points="391.1,240.2 389.5,240.7 389.5,242.9 387.1,242.1 385.6,243.5 383.2,241.9 380.8,242.6 374,243.5 
				371.1,243.3 368.1,237.6 364.7,236.6 362,233.7 358.8,232.1 356.2,229 353.2,227.6 351.3,224.1 348.7,221.9 347.7,219.3 
				345.8,217.3 345.6,215.1 344,213.2 345.3,211.9 345.4,209.8 346.8,209.9 348.1,208.4 350.1,209.2 353.3,206.3 355.7,208 
				358.5,208.2 361.3,210.3 364.5,211.2 366.3,215.8 369.9,217.2 372.3,220.1 375.6,222 377.7,224.9 380.8,227 386.1,229.8 
				388.6,232.3 389,234.3 390.6,236.4 390.2,238.1 			"/>
			<polygon class="st9" points="385.9,262.5 386.2,263 386.9,264.4 385.6,265.2 385.7,266.8 382.5,268 381.2,270.1 377.3,273.9 
				372.9,276 367.1,277.6 363.7,279.8 359,280.8 355.1,282.7 350.5,283.5 346.9,285.3 342.5,285.5 338.6,286.7 335.5,286.6 
				332.4,287.3 330.3,286.8 327.4,287.2 327.2,285.9 326.4,285.5 326.6,284.1 326.4,282.7 328.6,281.6 328.4,278.2 331.8,277 
				334.1,275 338,273.7 342.5,272.5 346.6,271.9 350.5,269.6 355,268.9 359.2,267.1 363.3,266.5 367.6,264.9 374,261.9 378.1,261 
				380.2,261.3 383.3,260.8 384.4,261.7 			"/>
		</g>
		<path id="darker-2" class="st10" d="M404.4,303.8H294.9v-60c0,0,34.5,5.3,54.7,5.3s54.8-5.3,54.8-5.3L404.4,303.8L404.4,303.8z"/>
	</g>
	<g id="animal">
		<rect x="433" y="190.9" class="st2" width="116.2" height="116.2"/>
		
			<linearGradient id="SVGID_00000160151222963537077260000017882842030973257107_" gradientUnits="userSpaceOnUse" x1="-907.4153" y1="-1388.6814" x2="-829.98" y2="-1311.2361" gradientTransform="matrix(0.7071 -0.7071 -0.7071 -0.7071 150.852 -1319.8319)">
			<stop  offset="0" style="stop-color:#1F4D23"/>
			<stop  offset="0.43" style="stop-color:#4B6E30"/>
			<stop  offset="1" style="stop-color:#95A946"/>
		</linearGradient>
		
			<rect x="436.4" y="194.2" style="fill:url(#SVGID_00000160151222963537077260000017882842030973257107_);" width="109.5" height="109.5"/>
		
			<radialGradient id="SVGID_00000057106412404062333540000018442015801680607151_" cx="491.155" cy="-120.165" r="49.445" gradientTransform="matrix(1 0 0 -1 0 128.83)" gradientUnits="userSpaceOnUse">
			<stop  offset="0.25" style="stop-color:#95A946"/>
			<stop  offset="1" style="stop-color:#397931"/>
		</radialGradient>
		
			<rect x="441.7" y="199.6" style="fill:url(#SVGID_00000057106412404062333540000018442015801680607151_);" width="98.9" height="98.9"/>
		<path id="darker-3" class="st13" d="M545.9,303.8H436.4v-60c0,0,34.5,5.3,54.7,5.3s54.8-5.3,54.8-5.3V303.8z"/>
		<path class="st14" d="M479.5,221.2c-0.3,0-3,0.4-4.6,2.6c-0.6,0.8-0.9,1.8-1.1,2.8c-0.4,2.1-1.1,5.8,0.4,10.4
			c0.8,2.1,1.6,4.8,4,6.5c0.8,0.6,2.2,1.6,4.2,1.4c2.1-0.2,3.5-1.8,3.9-2.3c1.9-2.1,1.9-4.7,2-7.4c0-1.3,0-5.3-2-9.5
			c-1.4-2.8-2.6-3.5-3.2-3.8C481.6,220.9,480,221.1,479.5,221.2L479.5,221.2z"/>
		<path class="st14" d="M505.3,219.6c-0.3-0.1-2.9-0.6-5.1,0.8c-0.8,0.6-1.5,1.3-2,2.2c-1.1,1.8-3.1,4.9-3.3,9.8
			c-0.1,2.3-0.2,5,1.5,7.6c0.6,0.8,1.6,2.2,3.5,2.7c2,0.6,3.9-0.5,4.5-0.8c2.4-1.4,3.5-3.7,4.5-6.2c0.5-1.2,1.9-4.9,1.4-9.6
			c-0.3-3.1-1.2-4.2-1.7-4.7C507.2,220.2,505.7,219.8,505.3,219.6L505.3,219.6z"/>
		<path class="st14" d="M462.1,236.1c-0.3,0.1-2.9,0.6-4.3,3c-0.6,0.9-0.8,1.8-0.8,2.9c-0.2,2.1-0.6,5.8,1.3,10.2
			c0.9,2.1,2,4.6,4.7,6.2c0.8,0.5,2.4,1.3,4.3,0.9c2.1-0.4,3.3-2,3.7-2.7c1.6-2.3,1.5-4.9,1.3-7.6c-0.1-1.3-0.5-5.2-3-9.2
			c-1.6-2.6-2.9-3.3-3.5-3.5C464.1,235.7,462.7,236,462.1,236.1L462.1,236.1z"/>
		<path class="st14" d="M520.8,233.9c-0.3-0.1-2.9-0.6-5.1,0.9c-0.8,0.6-1.4,1.4-2,2.3c-1,1.9-3,5-3,9.9c0,2.3-0.1,5,1.7,7.5
			c0.6,0.8,1.7,2.2,3.5,2.6c2,0.5,3.8-0.6,4.5-0.9c2.4-1.4,3.4-3.8,4.3-6.3c0.5-1.2,1.8-4.9,1.1-9.6c-0.4-3.1-1.3-4.2-1.8-4.7
			C522.8,234.3,521.3,233.9,520.8,233.9L520.8,233.9z"/>
		<path class="st15" d="M520.2,236.8c-0.2,0-2.1-0.5-3.8,0.8c-0.7,0.5-1,1-1.5,1.7c-0.8,1.4-2.1,3.7-2.2,7.4c0,1.7-0.1,3.7,1.3,5.6
			c0.4,0.6,1.2,1.7,2.6,2c1.6,0.4,2.9-0.5,3.4-0.6c1.8-1.1,2.4-2.8,3.2-4.8c0.4-0.9,1.3-3.7,0.8-7.2c-0.3-2.2-1-3.1-1.3-3.4
			C521.7,237.1,520.6,236.8,520.2,236.8L520.2,236.8z"/>
		<path class="st15" d="M504.5,222.7c-0.2-0.1-2.1-0.5-3.8,0.6c-0.6,0.5-1,0.9-1.5,1.7c-0.8,1.3-2.2,3.6-2.4,7.3
			c-0.1,1.7-0.2,3.7,1.1,5.6c0.4,0.6,1.1,1.7,2.5,2.1c1.6,0.4,2.9-0.4,3.4-0.6c1.8-1,2.5-2.7,3.3-4.6c0.4-0.9,1.4-3.6,1-7.1
			c-0.3-2.2-0.9-3.1-1.2-3.4C505.9,223,504.9,222.8,504.5,222.7L504.5,222.7z"/>
		<path class="st15" d="M479.9,224.2c-0.2,0-2.1,0.3-3.4,1.9c-0.5,0.6-0.6,1.3-0.8,2.1c-0.3,1.5-0.8,4.2,0.3,7.6
			c0.6,1.6,1.1,3.5,3,4.9c0.6,0.4,1.7,1.1,3.1,1c1.6-0.2,2.5-1.3,2.9-1.7c1.3-1.6,1.4-3.4,1.5-5.4c0-0.9,0-3.9-1.6-7
			c-1-2.1-2-2.6-2.3-2.8C481.4,224.1,480.3,224.2,479.9,224.2L479.9,224.2z"/>
		<path class="st15" d="M462.8,238.8c-0.2,0-2.2,0.5-3.3,2.3c-0.5,0.8-0.6,1.4-0.6,2.2c-0.2,1.6-0.5,4.5,1,7.8
			c0.6,1.6,1.5,3.5,3.5,4.7c0.6,0.4,1.9,1,3.3,0.8c1.6-0.3,2.5-1.6,2.8-2.1c1.2-1.8,1.1-3.7,1-5.8c-0.1-1-0.4-4-2.2-7.1
			c-1.2-2.1-2.2-2.5-2.7-2.7C464.3,238.5,463.1,238.8,462.8,238.8L462.8,238.8z"/>
		<path class="st14" d="M492,243.7c-1.3,0.1-2.7,0.1-4.3,0.9c-1.8,0.9-2.8,2.3-3.7,3.5c-0.8,1.1-0.8,1.2-2,3.2
			c-1.1,1.7-1.7,2.7-2.7,3.8c-1.2,1.4-2.4,2.2-4.6,3.9c-2.3,1.8-2.5,1.7-3.2,2.4c-1.6,1.9-2,3.9-2.2,5.3c-0.2,1.3-0.6,3.7,0.4,6.5
			c0.5,1.2,1.3,3.5,3.5,4.6c0.8,0.4,1.7,0.5,3.7,0.4c3.5-0.2,5.8-0.8,7.8-1.3c2.4-0.6,4.9-1.1,8.1-1.2c3.8-0.1,7.2,0.6,9,0.8
			c2,0.4,3.5,0.8,6.4,1.1c2.4,0.3,3.6,0.2,5-0.3c0.8-0.3,2.3-0.8,3.5-2c1.2-1.5,1.3-3.1,1.3-4.8c0.1-1.1,0.1-3.8-1.5-7
			c-0.7-1.4-1.2-2-3.4-4.7c-5.8-7.2-6.1-8-8.4-10c-1.4-1.2-2.8-2.4-4.9-3.4C498.6,244.9,495.8,243.5,492,243.7L492,243.7z"/>
		<path class="st15" d="M492.2,246.1c-1.1,0.1-2.3,0.1-3.7,0.8c-1.5,0.8-2.4,2.1-3.2,3.1c-0.8,0.9-0.6,1-1.7,2.8
			c-0.9,1.5-1.5,2.3-2.3,3.3c-1,1.2-2,2-3.9,3.4c-2,1.6-2.1,1.4-2.8,2.1c-1.4,1.6-2.6,4-2.9,5.1c-0.2,1.1-0.6,3.2,0.3,5.6
			c0.4,1.1,1.1,3.1,3,3.9c0.8,0.4,2.4-0.1,4.1-0.3c3-0.2,5-0.8,6.8-1.1c2-0.5,4.3-0.9,7-1c3.3-0.1,6.1,0.5,7.7,0.8
			c1.8,0.4,3.1,0.8,5.5,0.9c2,0.2,4.6,1,5.7,0.6c0.8-0.2,2-0.8,3-2c1-1.2,0.8-3.8,0.8-5.3c0.1-0.9-0.8-3-2.3-5.7
			c-0.8-1.3-1.1-1.8-2.9-4c-4.9-6.1-5.2-6.9-7.2-8.6c-1.2-1-2.4-2.1-4.3-3C498,247.2,495.5,246,492.2,246.1L492.2,246.1z"/>
	</g>
</g>
</svg>
