<?xml version="1.0" encoding="utf-8"?>
<!-- Generator: Adobe Illustrator 27.5.0, SVG Export Plug-In . SVG Version: 6.00 Build 0)  -->
<svg version="1.1" id="Layer" xmlns="http://www.w3.org/2000/svg" xmlns:xlink="http://www.w3.org/1999/xlink" x="0px" y="0px"
	 viewBox="0 0 721 379.9" style="enable-background:new 0 0 721 379.9;" xml:space="preserve">
<style type="text/css">
	.st0{fill:none;}
	.st1{fill:#1F1F1E;}
	.st2{fill:#FFFFFF;fill-opacity:0;}
	.st3{opacity:0.4;}
	.st4{fill:url(#external-border_00000183222553286037483060000013989478057370521472_);}
	.st5{fill:url(#internal-border_00000094618197303685308040000008698691612119164836_);}
	.st6{fill:url(#bg_00000013906216626658537930000002930319894917322413_);}
	.st7{opacity:0.1;fill:url(#bgPattern_00000040545266811229094150000000415409951809364413_);enable-background:new    ;}
	.st8{fill:#020303;}
	.st9{fill:url(#SVGID_1_);}
	.st10{fill:url(#SVGID_00000048480778706596053120000015154773681929546377_);}
	.st11{opacity:8.000000e-02;fill:#020303;enable-background:new    ;}
	.st12{fill:#115729;}
	.st13{fill:#18291B;}
	.st14{opacity:0.5;fill:#E03D15;enable-background:new    ;}
	.st15{fill:url(#SVGID_00000170984141657478523370000013963874330466304701_);}
	.st16{fill:#CD141B;}
	.st17{fill:none;stroke:#010202;stroke-width:1.88;stroke-miterlimit:10;}
	.st18{opacity:0.4;fill:#010101;}
	.st19{opacity:0.4;fill:url(#SVGID_00000083085817603873961030000016510289189798150794_);enable-background:new    ;}
	.st20{fill:url(#SVGID_00000178194708299837768550000009124900825206334906_);}
	.st21{fill:url(#SVGID_00000147182910535816855910000016385925807440253104_);}
	.st22{fill:#44AC36;}
	.st23{fill:#07562A;stroke:#1C4421;stroke-width:3.73;stroke-miterlimit:10;}
	.st24{opacity:5.000000e-02;fill:#020303;enable-background:new    ;}
</style>
<pattern  y="379.9" width="19.7" height="21.7" patternUnits="userSpaceOnUse" id="Nowy_wzorek_4" viewBox="0 -21.7 19.7 21.7" style="overflow:visible;">
	<g>
		<rect y="-21.7" class="st0" width="19.7" height="21.7"/>
		<g>
			<rect y="-21.7" class="st0" width="19.7" height="21.7"/>
			<g>
				<rect y="-21.7" class="st0" width="19.7" height="21.7"/>
				<g>
					<rect y="-21.7" class="st0" width="19.7" height="21.7"/>
					<g>
						<rect y="-21.7" class="st0" width="19.7" height="21.7"/>
						<g>
							<rect y="-21.7" class="st0" width="19.7" height="21.7"/>
							<path class="st1" d="M16.6-8.7c2.1-2.1,2.1-5.6,0-7.7l-1.2-1.2c-2.1-2.1-5.6-2.1-7.8,0L3.1-13C1-10.9,1-7.4,3.1-5.3l1.2,1.2
								C6.4-2,9.9-2,12-4.1C12-4.1,16.6-8.7,16.6-8.7z"/>
						</g>
					</g>
				</g>
			</g>
		</g>
	</g>
</pattern>
<rect x="0.5" y="0.5" class="st2" width="720" height="378.9"/>
<g id="prodBg" class="st3">
	
		<linearGradient id="external-border_00000068669105280431299020000007382835199238137515_" gradientUnits="userSpaceOnUse" x1="422.0799" y1="-236.8155" x2="300.4582" y2="-115.1938" gradientTransform="matrix(1 0 0 -1 0 129.36)">
		<stop  offset="0" style="stop-color:#9E9D9C"/>
		<stop  offset="0.54" style="stop-color:#010202"/>
		<stop  offset="1" style="stop-color:#9E9D9C"/>
	</linearGradient>
	
		<rect id="external-border" x="291.5" y="253.6" style="fill:url(#external-border_00000068669105280431299020000007382835199238137515_);" width="139.6" height="103.6"/>
	
		<linearGradient id="internal-border_00000181053789133845401970000014501681027027823524_" gradientUnits="userSpaceOnUse" x1="361.3136" y1="-225.0911" x2="361.3136" y2="-126.9361" gradientTransform="matrix(1 0 0 -1 0 129.36)">
		<stop  offset="0" style="stop-color:#462C1B"/>
		<stop  offset="1" style="stop-color:#B18048"/>
	</linearGradient>
	
		<rect id="internal-border" x="294.2" y="256.3" style="fill:url(#internal-border_00000181053789133845401970000014501681027027823524_);" width="134.2" height="98.2"/>
	
		<linearGradient id="bg_00000110429173471639775380000012060936700084564629_" gradientUnits="userSpaceOnUse" x1="361.2631" y1="-222.6084" x2="361.2631" y2="-129.3297" gradientTransform="matrix(1 0 0 -1 0 129.36)">
		<stop  offset="0" style="stop-color:#946137"/>
		<stop  offset="1" style="stop-color:#805127"/>
	</linearGradient>
	
		<rect id="bg" x="296.6" y="258.7" style="fill:url(#bg_00000110429173471639775380000012060936700084564629_);" width="129.4" height="93.3"/>
	
		<pattern  id="bgPattern_00000049202430254126115210000004089713861842869182_" xlink:href="#Nowy_wzorek_4" patternTransform="matrix(1 0 0 -1 51.9 -32372.8906)"  class="st3">
	</pattern>
	
		<rect id="bgPattern" x="296.6" y="258.7" style="opacity:0.1;fill:url(#bgPattern_00000049202430254126115210000004089713861842869182_);enable-background:new    ;" width="129.4" height="93.3"/>
</g>
<g id="animal">
	<rect x="377.3" y="101.9" class="st8" width="117" height="117"/>
	
		<linearGradient id="SVGID_1_" gradientUnits="userSpaceOnUse" x1="-1055.6107" y1="-1685.0673" x2="-977.638" y2="-1607.0946" gradientTransform="matrix(0.7071 -0.7071 -0.7071 -0.7071 -9.278 -1722.3918)">
		<stop  offset="0" style="stop-color:#1F4D23"/>
		<stop  offset="0.43" style="stop-color:#4B6E30"/>
		<stop  offset="1" style="stop-color:#95A946"/>
	</linearGradient>
	<rect x="380.7" y="105.3" class="st9" width="110.3" height="110.3"/>
	
		<radialGradient id="SVGID_00000011028802367584327810000001615020189753682863_" cx="435.825" cy="-31.605" r="49.785" gradientTransform="matrix(1 0 0 -1 0 128.82)" gradientUnits="userSpaceOnUse">
		<stop  offset="0.25" style="stop-color:#95A946"/>
		<stop  offset="1" style="stop-color:#397931"/>
	</radialGradient>
	
		<rect x="386" y="110.6" style="fill:url(#SVGID_00000011028802367584327810000001615020189753682863_);" width="99.6" height="99.6"/>
	<path id="darker" class="st11" d="M491,215.6H380.7v-60.4c0,0,34.7,5.4,55.1,5.4s55.2-5.4,55.2-5.4V215.6z"/>
	<path class="st12" d="M424.1,132.4c-0.3,0-3,0.4-4.6,2.6c-0.7,0.8-0.9,1.8-1.1,2.8c-0.4,2.1-1.1,5.8,0.4,10.4
		c0.8,2.2,1.6,4.8,4,6.6c0.8,0.6,2.2,1.6,4.2,1.4c2.2-0.2,3.5-1.8,4-2.3c1.9-2.2,1.9-4.7,2-7.4c0-1.3,0-5.4-2.1-9.6
		c-1.4-2.8-2.6-3.6-3.2-3.8C426.2,132.1,424.6,132.3,424.1,132.4L424.1,132.4L424.1,132.4z"/>
	<path class="st12" d="M450,130.8c-0.3-0.1-2.9-0.7-5.2,0.8c-0.8,0.6-1.5,1.3-2.1,2.2c-1.1,1.8-3.1,5-3.3,9.9
		c-0.1,2.3-0.2,5.1,1.5,7.6c0.6,0.8,1.6,2.2,3.5,2.7c2.1,0.6,4-0.5,4.5-0.8c2.4-1.4,3.5-3.8,4.5-6.3c0.5-1.2,1.9-5,1.4-9.7
		c-0.3-3.1-1.2-4.2-1.7-4.7C452,131.4,450.5,131,450,130.8L450,130.8L450,130.8z"/>
	<path class="st12" d="M406.6,147.4c-0.3,0.1-2.9,0.7-4.3,3c-0.6,0.9-0.8,1.8-0.8,2.9c-0.2,2.1-0.6,5.8,1.3,10.3
		c0.9,2.1,2,4.6,4.7,6.2c0.8,0.5,2.4,1.3,4.3,0.9c2.2-0.4,3.3-2.1,3.8-2.7c1.6-2.4,1.5-4.9,1.3-7.6c-0.1-1.3-0.5-5.2-3-9.3
		c-1.6-2.6-2.9-3.3-3.6-3.6C408.6,147.1,407.2,147.4,406.6,147.4L406.6,147.4L406.6,147.4z"/>
	<path class="st12" d="M465.7,145.2c-0.3-0.1-2.9-0.7-5.2,0.9c-0.8,0.7-1.4,1.4-2,2.3c-1,1.9-3,5.1-3,10c0,2.3-0.1,5.1,1.7,7.5
		c0.6,0.8,1.7,2.2,3.6,2.6c2.1,0.5,3.9-0.6,4.5-0.9c2.4-1.4,3.4-3.8,4.3-6.4c0.5-1.2,1.8-5,1.1-9.7c-0.4-3.1-1.3-4.2-1.8-4.7
		C467.7,145.6,466.2,145.3,465.7,145.2L465.7,145.2z"/>
	<path class="st13" d="M465,148.2c-0.2,0-2.2-0.5-3.9,0.8c-0.7,0.5-1,1-1.5,1.7c-0.8,1.4-2.2,3.8-2.2,7.4c0,1.7-0.1,3.8,1.3,5.6
		c0.4,0.6,1.2,1.7,2.6,2c1.6,0.4,2.9-0.5,3.4-0.7c1.8-1.1,2.4-2.8,3.2-4.8c0.4-0.9,1.3-3.8,0.8-7.2c-0.3-2.2-1-3.1-1.3-3.5
		C466.5,148.5,465.4,148.2,465,148.2L465,148.2L465,148.2z"/>
	<path class="st13" d="M449.3,133.9c-0.2-0.1-2.2-0.5-3.9,0.6c-0.7,0.5-1,0.9-1.5,1.7c-0.8,1.3-2.2,3.7-2.4,7.3
		c-0.1,1.7-0.2,3.8,1.1,5.6c0.4,0.6,1.1,1.7,2.5,2.1c1.6,0.4,2.9-0.4,3.4-0.6c1.8-1,2.5-2.7,3.3-4.6c0.4-0.9,1.4-3.6,1-7.1
		c-0.3-2.2-0.9-3.1-1.2-3.5C450.7,134.3,449.6,134,449.3,133.9L449.3,133.9L449.3,133.9z"/>
	<path class="st13" d="M424.5,135.5c-0.2,0-2.2,0.3-3.4,1.9c-0.5,0.7-0.7,1.3-0.8,2.1c-0.3,1.5-0.8,4.2,0.3,7.7
		c0.6,1.6,1.1,3.6,3,4.9c0.6,0.4,1.7,1.1,3.1,1c1.6-0.2,2.5-1.3,2.9-1.7c1.3-1.6,1.4-3.5,1.5-5.4c0-0.9,0-3.9-1.6-7
		c-1-2.1-2-2.6-2.4-2.8C426,135.3,424.9,135.4,424.5,135.5L424.5,135.5L424.5,135.5z"/>
	<path class="st13" d="M407.2,150.1c-0.2,0-2.2,0.5-3.3,2.4c-0.5,0.8-0.6,1.4-0.7,2.2c-0.2,1.6-0.5,4.5,1,7.9
		c0.7,1.6,1.5,3.6,3.6,4.7c0.7,0.4,1.9,1,3.3,0.8c1.6-0.3,2.5-1.6,2.8-2.1c1.2-1.8,1.1-3.8,1-5.8c-0.1-1-0.4-4-2.2-7.1
		c-1.2-2.1-2.2-2.5-2.7-2.7C408.7,149.9,407.5,150.1,407.2,150.1L407.2,150.1L407.2,150.1z"/>
	<path class="st12" d="M436.6,155.1c-1.3,0.1-2.7,0.1-4.3,0.9c-1.8,0.9-2.8,2.4-3.8,3.6c-0.8,1.1-0.8,1.2-2,3.2
		c-1.1,1.7-1.7,2.7-2.7,3.9c-1.2,1.4-2.4,2.2-4.6,3.9c-2.4,1.8-2.5,1.7-3.2,2.4c-1.6,1.9-2,4-2.2,5.4c-0.2,1.3-0.7,3.8,0.4,6.6
		c0.5,1.2,1.3,3.6,3.5,4.6c0.8,0.4,1.7,0.5,3.8,0.4c3.5-0.2,5.8-0.8,7.9-1.3c2.4-0.6,5-1.1,8.2-1.2c3.9-0.1,7.2,0.6,9,0.8
		c2.1,0.4,3.6,0.8,6.5,1.1c2.4,0.3,3.6,0.2,5.1-0.3c0.8-0.3,2.4-0.8,3.5-2.1c1.2-1.5,1.3-3.1,1.3-4.8c0.1-1.1,0.1-3.8-1.5-7
		c-0.7-1.4-1.2-2.1-3.4-4.7c-5.8-7.2-6.1-8.1-8.4-10c-1.4-1.2-2.8-2.4-5-3.5C443.4,156.3,440.5,154.9,436.6,155.1L436.6,155.1
		L436.6,155.1z"/>
	<path class="st13" d="M436.9,157.6c-1.1,0.1-2.4,0.1-3.8,0.8c-1.5,0.8-2.4,2.1-3.2,3.1c-0.8,0.9-0.7,1-1.7,2.8
		c-0.9,1.5-1.5,2.4-2.4,3.3c-1,1.2-2.1,2-4,3.4c-2.1,1.6-2.2,1.4-2.8,2.2c-1.4,1.6-2.6,4-2.9,5.2c-0.2,1.1-0.6,3.2,0.3,5.6
		c0.4,1.1,1.1,3.1,3,3.9c0.8,0.4,2.4-0.1,4.1-0.3c3-0.2,5.1-0.8,6.9-1.1c2.1-0.5,4.3-0.9,7-1c3.3-0.1,6.2,0.5,7.8,0.8
		c1.8,0.4,3.1,0.8,5.5,0.9c2.1,0.2,4.6,1,5.7,0.7c0.8-0.2,2-0.8,3-2c1-1.2,0.8-3.9,0.8-5.4c0.1-0.9-0.8-3-2.4-5.7
		c-0.8-1.3-1.1-1.8-2.9-4c-5-6.2-5.2-6.9-7.2-8.6c-1.2-1-2.4-2.1-4.3-3C442.7,158.6,440.2,157.4,436.9,157.6L436.9,157.6
		L436.9,157.6z"/>
</g>
<g id="arrow">
	<path class="st14" d="M344.3,160.4l-57.5-26.5l7,13.8H229c0,0-1.9,6.2-1.9,12.2c0,6,1.9,10.9,1.9,10.9h66l-8.2,16.2L344.3,160.4
		L344.3,160.4L344.3,160.4z"/>
	
		<linearGradient id="SVGID_00000119834057888079681360000014113809366999061950_" gradientUnits="userSpaceOnUse" x1="284.04" y1="897.98" x2="284.04" y2="854.74" gradientTransform="matrix(1 0 0 1 0 -715.91)">
		<stop  offset="0" style="stop-color:#542913"/>
		<stop  offset="0.45" style="stop-color:#542913;stop-opacity:0.7"/>
		<stop  offset="0.58" style="stop-color:#E03D15;stop-opacity:0.5"/>
		<stop  offset="1" style="stop-color:#E03D15;stop-opacity:0.5"/>
	</linearGradient>
	<path style="fill:url(#SVGID_00000119834057888079681360000014113809366999061950_);" d="M298.8,168.4h-68.1
		c-0.5-1.8-1.3-5-1.3-8.5c0-3.8,0.8-7.7,1.4-9.9h66.8l-5.6-11.2l46.8,21.6l-46.8,21.6L298.8,168.4L298.8,168.4L298.8,168.4
		L298.8,168.4z"/>
	<path class="st16" d="M303.8,165.3h-70.7c-0.3-1.5-0.6-3.4-0.6-5.4c0-2.4,0.4-4.8,0.8-6.8h69.3l-3.9-7.8l32.6,15.1l-32.6,15.1
		L303.8,165.3L303.8,165.3L303.8,165.3z"/>
	<path class="st17" d="M298.8,168.4h-68.1c-0.5-1.8-1.3-5-1.3-8.5c0-3.8,0.8-7.7,1.4-9.9h66.8l-5.6-11.2l46.8,21.6l-46.8,21.6
		L298.8,168.4L298.8,168.4L298.8,168.4L298.8,168.4z"/>
</g>
<path class="st18" d="M312.8,308.3V303h12.9v5.4H312.8z"/>
<g id="plant" class="st3">
	
		<linearGradient id="SVGID_00000183940952475491585110000004612052933035330435_" gradientUnits="userSpaceOnUse" x1="379.5269" y1="1283.5946" x2="379.5269" y2="1200.6149" gradientTransform="matrix(1 0 0 1 0 -936.55)">
		<stop  offset="0" style="stop-color:#FFDC15"/>
		<stop  offset="0" style="stop-color:#FFDB16"/>
		<stop  offset="5.000000e-02" style="stop-color:#F9BB1F"/>
		<stop  offset="0.1" style="stop-color:#F59C1B"/>
		<stop  offset="0.16" style="stop-color:#EF7B1B"/>
		<stop  offset="0.22" style="stop-color:#E86212"/>
		<stop  offset="0.27" style="stop-color:#E84B1F"/>
		<stop  offset="0.34" style="stop-color:#E63A21"/>
		<stop  offset="0.41" style="stop-color:#E63323"/>
		<stop  offset="0.5" style="stop-color:#E63023"/>
		<stop  offset="0.59" style="stop-color:#E63323"/>
		<stop  offset="0.66" style="stop-color:#E63A21"/>
		<stop  offset="0.73" style="stop-color:#E84B1F"/>
		<stop  offset="0.78" style="stop-color:#E86212"/>
		<stop  offset="0.84" style="stop-color:#EF7B1B"/>
		<stop  offset="0.9" style="stop-color:#F59C1B"/>
		<stop  offset="0.95" style="stop-color:#F9BB1F"/>
		<stop  offset="1" style="stop-color:#FFDB16"/>
		<stop  offset="1" style="stop-color:#FFDC15"/>
	</linearGradient>
	
		<rect x="338" y="264.1" style="opacity:0.4;fill:url(#SVGID_00000183940952475491585110000004612052933035330435_);enable-background:new    ;" width="83" height="83"/>
	
		<linearGradient id="SVGID_00000021102761944659249040000004858821062653102255_" gradientUnits="userSpaceOnUse" x1="379.5328" y1="1281.4268" x2="379.5328" y2="1202.7827" gradientTransform="matrix(1 0 0 1 0 -936.55)">
		<stop  offset="0" style="stop-color:#FFDC15"/>
		<stop  offset="0" style="stop-color:#FFDB16"/>
		<stop  offset="5.000000e-02" style="stop-color:#F9BB1F"/>
		<stop  offset="0.1" style="stop-color:#F59C1B"/>
		<stop  offset="0.16" style="stop-color:#EF7B1B"/>
		<stop  offset="0.22" style="stop-color:#E86212"/>
		<stop  offset="0.27" style="stop-color:#E84B1F"/>
		<stop  offset="0.34" style="stop-color:#E63A21"/>
		<stop  offset="0.41" style="stop-color:#E63323"/>
		<stop  offset="0.5" style="stop-color:#E63023"/>
		<stop  offset="0.59" style="stop-color:#E63323"/>
		<stop  offset="0.66" style="stop-color:#E63A21"/>
		<stop  offset="0.73" style="stop-color:#E84B1F"/>
		<stop  offset="0.78" style="stop-color:#E86212"/>
		<stop  offset="0.84" style="stop-color:#EF7B1B"/>
		<stop  offset="0.9" style="stop-color:#F59C1B"/>
		<stop  offset="0.95" style="stop-color:#F9BB1F"/>
		<stop  offset="1" style="stop-color:#FFDB16"/>
		<stop  offset="1" style="stop-color:#FFDC15"/>
	</linearGradient>
	
		<rect x="340.2" y="266.2" style="fill:url(#SVGID_00000021102761944659249040000004858821062653102255_);" width="78.6" height="78.6"/>
	<rect x="345.1" y="270.8" class="st8" width="69" height="69"/>
	
		<linearGradient id="SVGID_00000156545438876828621580000014043668424470784923_" gradientUnits="userSpaceOnUse" x1="-1010.3685" y1="-1333.9514" x2="-964.3763" y2="-1287.9534" gradientTransform="matrix(0.7071 -0.7071 -0.7071 -0.7071 150.852 -1319.8319)">
		<stop  offset="0" style="stop-color:#0C6835"/>
		<stop  offset="4.000000e-02" style="stop-color:#0A6B36"/>
		<stop  offset="8.000000e-02" style="stop-color:#047638"/>
		<stop  offset="0.13" style="stop-color:#078738"/>
		<stop  offset="0.15" style="stop-color:#058F39"/>
		<stop  offset="0.35" style="stop-color:#34993D"/>
		<stop  offset="0.76" style="stop-color:#5EAF47"/>
		<stop  offset="1" style="stop-color:#6EB74A"/>
	</linearGradient>
	
		<rect x="347.1" y="272.8" style="fill:url(#SVGID_00000156545438876828621580000014043668424470784923_);" width="65" height="65"/>
	<rect x="350.3" y="276" class="st22" width="58.7" height="58.7"/>
	<path id="leaf" class="st23" d="M379.6,290.5c-8.4,1.2-14.8,6.6-14.8,14.8c0,2,0.4,3.9,1.1,5.7c-1.6,1.1-3.8,2.4-4.9,2.8
		c-1.9,0.7-5.8,0.2-6,0.6c-0.2,0.3,1.1,3.8,1.6,4c0.4,0.2,4,0.2,6-0.6c1.4-0.5,4-2.2,5.5-3.3c2.7,3.4,6.9,5.6,11.6,5.6
		c8.2,0,14.7-5.1,14.7-13.3c0-3.2,0.8-7.1,1.9-9.6c1.3-2.8,7.9-4.5,7.9-4.5C403.5,290.5,382.9,290,379.6,290.5L379.6,290.5z"/>
	<path id="darker-2" class="st24" d="M412.2,337.9h-65v-35.6c0,0,20.5,3.2,32.5,3.2c12,0,32.5-3.2,32.5-3.2V337.9L412.2,337.9z"/>
</g>
</svg>
