<?xml version="1.0" encoding="utf-8"?>
<!-- Generator: Adobe Illustrator 27.5.0, SVG Export Plug-In . SVG Version: 6.00 Build 0)  -->
<svg version="1.1" id="Layer" xmlns="http://www.w3.org/2000/svg" xmlns:xlink="http://www.w3.org/1999/xlink" x="0px" y="0px"
	 viewBox="0 0 721 379.9" style="enable-background:new 0 0 721 379.9;" xml:space="preserve">
<style type="text/css">
	.st0{fill:none;}
	.st1{fill:#1F1F1E;}
	.st2{fill:#FFFFFF;fill-opacity:0;}
	.st3{fill:#020303;stroke:#030404;stroke-width:1.87;stroke-miterlimit:10;}
	.st4{fill:url(#obram_zolte_00000077304961651745452240000018419627039739563709_);}
	.st5{fill:url(#tlo_wew_00000007413151449238430880000009459986276500382903_);}
	.st6{fill:url(#obram_skosne_00000110463169607410521120000002358735541957018803_);}
	.st7{fill:url(#tlo_zew_00000060752770146402563320000009891759717470924464_);}
	.st8{fill:#010202;}
	.st9{fill:#030304;}
	.st10{fill:url(#SVGID_1_);}
	.st11{fill:#6A6A69;}
	.st12{fill:url(#ciemniej_00000147900318901425184930000012553405928925030543_);}
	.st13{fill:#F4E956;}
	.st14{fill:url(#external-border_00000155828995372994613710000015276085457232235426_);}
	.st15{fill:url(#internal-border_00000150063169523838868980000017222260217021155746_);}
	.st16{fill:url(#bg_00000062155271841311553370000015500274976614316732_);}
	.st17{opacity:0.1;fill:url(#bgPattern_00000076570366964763594970000018408904128323474056_);enable-background:new    ;}
	.st18{fill:#010101;}
	.st19{fill:#010202;stroke:#030304;stroke-width:1.9;stroke-miterlimit:10;}
	.st20{fill:url(#obram_zolte-2_00000041287462555117060290000018389583124229318844_);}
	.st21{fill:url(#tlo_wew-2_00000011009836876727060770000000696141072275882632_);}
	.st22{fill:url(#obram_skosne-2_00000083083750261131499500000017959596840493611651_);}
	.st23{fill:url(#tlo_zew-2_00000007386808962865707000000001729541557027319184_);}
	.st24{fill:url(#SVGID_00000132768774679346343360000012719726933048335266_);}
	.st25{fill:#7F358B;}
	.st26{fill:#FFFFFF;stroke:#030304;stroke-width:0.92;stroke-miterlimit:10;}
	.st27{opacity:0.15;fill:#030304;enable-background:new    ;}
</style>
<pattern  y="379.9" width="19.7" height="21.7" patternUnits="userSpaceOnUse" id="Nowy_wzorek_4" viewBox="0 -21.7 19.7 21.7" style="overflow:visible;">
	<g>
		<rect y="-21.7" class="st0" width="19.7" height="21.7"/>
		<g>
			<rect y="-21.7" class="st0" width="19.7" height="21.7"/>
			<g>
				<rect y="-21.7" class="st0" width="19.7" height="21.7"/>
				<g>
					<rect y="-21.7" class="st0" width="19.7" height="21.7"/>
					<g>
						<rect y="-21.7" class="st0" width="19.7" height="21.7"/>
						<g>
							<rect y="-21.7" class="st0" width="19.7" height="21.7"/>
							<g>
								<rect y="-21.7" class="st0" width="19.7" height="21.7"/>
								<path class="st1" d="M16.6-13c2.1,2.1,2.1,5.6,0,7.7l-1.2,1.2C13.3-2,9.8-2,7.6-4.1L3.1-8.7c-2.1-2.1-2.1-5.6,0-7.7l1.2-1.2
									c2.1-2.1,5.6-2.1,7.7,0L16.6-13z"/>
							</g>
						</g>
					</g>
				</g>
			</g>
		</g>
	</g>
</pattern>
<rect x="0.5" y="0.5" class="st2" width="720" height="378.9"/>
<g>
	<g>
		<g id="mln">
			<polygon id="obram_czarne" class="st3" points="565.7,132.9 548.5,150.1 548.5,229.6 565.7,246.9 645.2,246.9 662.3,229.6 
				662.3,150.1 645.2,132.9 			"/>
			
				<linearGradient id="obram_zolte_00000050638810185490989570000011248534380899130796_" gradientUnits="userSpaceOnUse" x1="605.47" y1="976.92" x2="605.47" y2="869.5" gradientTransform="matrix(1 0 0 1 0 -733.36)">
				<stop  offset="0.16" style="stop-color:#823B14"/>
				<stop  offset="0.18" style="stop-color:#995D1A"/>
				<stop  offset="0.22" style="stop-color:#AE7D22"/>
				<stop  offset="0.26" style="stop-color:#C39D25"/>
				<stop  offset="0.3" style="stop-color:#D6B92E"/>
				<stop  offset="0.35" style="stop-color:#E4CF36"/>
				<stop  offset="0.41" style="stop-color:#EFE036"/>
				<stop  offset="0.48" style="stop-color:#F5E94D"/>
				<stop  offset="0.58" style="stop-color:#F8EB53"/>
				<stop  offset="0.86" style="stop-color:#F5EA52"/>
				<stop  offset="1" style="stop-color:#FCF4F9"/>
			</linearGradient>
			<polygon id="obram_zolte" style="fill:url(#obram_zolte_00000050638810185490989570000011248534380899130796_);" points="
				568,136.1 551.8,152.4 551.8,227.3 568,243.6 642.9,243.6 659.1,227.3 659.1,152.4 642.9,136.1 			"/>
			
				<linearGradient id="tlo_wew_00000034799628955328848730000010565429298354848412_" gradientUnits="userSpaceOnUse" x1="605.47" y1="863.83" x2="605.47" y2="1027.95" gradientTransform="matrix(1 0 0 1 0 -733.36)">
				<stop  offset="0.26" style="stop-color:#F5EA52"/>
				<stop  offset="0.86" style="stop-color:#813A14"/>
			</linearGradient>
			<polygon id="tlo_wew" style="fill:url(#tlo_wew_00000034799628955328848730000010565429298354848412_);" points="569.1,137.7 
				553.3,153.5 553.3,226.3 569.1,242 641.8,242 657.6,226.3 657.6,153.5 641.8,137.7 			"/>
			
				<linearGradient id="obram_skosne_00000003072176923839161590000005840146083629121194_" gradientUnits="userSpaceOnUse" x1="605.53" y1="975.44" x2="605.53" y2="871.09" gradientTransform="matrix(1 0 0 1 0 -733.36)">
				<stop  offset="0.16" style="stop-color:#813A14"/>
				<stop  offset="0.17" style="stop-color:#8D481F"/>
				<stop  offset="0.18" style="stop-color:#A36C3D"/>
				<stop  offset="0.2" style="stop-color:#B78954"/>
				<stop  offset="0.22" style="stop-color:#C7A468"/>
				<stop  offset="0.24" style="stop-color:#D7BB7A"/>
				<stop  offset="0.26" style="stop-color:#E2CC88"/>
				<stop  offset="0.3" style="stop-color:#EAD891"/>
				<stop  offset="0.34" style="stop-color:#EEDE97"/>
				<stop  offset="0.46" style="stop-color:#EFE097"/>
				<stop  offset="0.7" style="stop-color:#813A14"/>
				<stop  offset="0.73" style="stop-color:#E6D234"/>
				<stop  offset="0.74" style="stop-color:#EBDA49"/>
				<stop  offset="0.75" style="stop-color:#EEDE6D"/>
				<stop  offset="0.77" style="stop-color:#F0E18A"/>
				<stop  offset="0.79" style="stop-color:#F8EBAB"/>
				<stop  offset="0.8" style="stop-color:#F8EDBF"/>
				<stop  offset="0.83" style="stop-color:#FAF0CF"/>
				<stop  offset="0.85" style="stop-color:#FCF2DA"/>
				<stop  offset="0.89" style="stop-color:#FDF4E1"/>
				<stop  offset="0.99" style="stop-color:#FDF5E3"/>
			</linearGradient>
			<path id="obram_skosne" style="fill:url(#obram_skosne_00000003072176923839161590000005840146083629121194_);" d="M650.1,210
				c-2.9,0-5.2-2.3-5.2-5.2v-29.7c0-2.9,2.3-5.2,5.2-5.2h7.4v-16.4l-15.7-15.8h-16.3v7.4c0,2.9-2.3,5.2-5.2,5.2h-29.7
				c-2.9,0-5.2-2.3-5.2-5.2v-7.4h-16.2l-15.8,15.8v16.4h7.4c2.9,0,5.2,2.3,5.2,5.2v29.7c0,2.9-2.3,5.2-5.2,5.2h-7.4v16.2l15.8,15.8
				h16.3v-7.4c0-2.9,2.3-5.2,5.2-5.2h29.7c2.9,0,5.2,2.3,5.2,5.2v7.4h16.3l15.8-15.8V210H650.1L650.1,210z"/>
			
				<linearGradient id="tlo_zew_00000111158819820774200790000011737869332217494659_" gradientUnits="userSpaceOnUse" x1="605.475" y1="886.42" x2="605.475" y2="1047.41" gradientTransform="matrix(1 0 0 1 0 -733.36)">
				<stop  offset="0.26" style="stop-color:#F5EA52"/>
				<stop  offset="0.77" style="stop-color:#813A14"/>
			</linearGradient>
			<path id="tlo_zew" style="fill:url(#tlo_zew_00000111158819820774200790000011737869332217494659_);" d="M649.8,211.7
				c-3.5,0-6.5-3.5-6.5-7.1v-29.5c0-3.5,2.9-7.1,6.5-7.1h6v-13.3l-15.3-15.2h-13.2v6.1c0,3.6-3.5,6.5-7.1,6.5h-29.6
				c-3.5,0-7.1-2.9-7.1-6.5v-6.1h-13.4l-15.1,15.2V168h6c3.5,0,6.5,3.5,6.5,7.1v29.6c0,3.5-2.9,7.1-6.5,7.1h-6v13.3l15.2,15.2h13.3
				v-6.1c0-3.5,3.5-6.5,7.1-6.5h29.5c3.5,0,7.1,2.9,7.1,6.5v6.1h13.3l15.2-15.2v-13.4L649.8,211.7L649.8,211.7z"/>
		</g>
		<path class="st8" d="M578.2,195.6v-6.1h14.7v6.1H578.2z"/>
		<path class="st8" d="M594.2,217.1v-8.6c3.3-4.4,6.4-8,9.5-10.6l4.5-3.9c3.2-2.8,5.8-5.5,7.9-8.3c2-2.8,3.1-5.6,3.1-8.6
			c0-2.6-0.8-4.8-2.7-6.3s-4.1-2.2-7.1-2.2c-3.9,0-8.5,1.4-13.8,4v-8c5.5-2,10.8-3.1,15.9-3.1c5.6,0,10.3,1.4,13.8,4
			s5.2,6.4,5.2,10.9c0,2.9-0.7,5.6-2.2,8.2s-4.6,5.7-9.2,9.4l-3.7,3c-1.6,1.3-3.4,3-5.3,5s-3.2,4.1-3.7,6.5H630v8.6L594.2,217.1
			L594.2,217.1L594.2,217.1z"/>
		<path d="M502.2,180.9v-11.8h11.9V181h-11.9V180.9z M502.2,213.2v-11.9h11.9v11.9H502.2z"/>
		<g id="tagSpace">
			<path class="st9" d="M480.4,189.9c0,31.6-25.7,57.4-57.4,57.4s-57.4-25.7-57.4-57.4s25.7-57.4,57.4-57.4S480.4,158.2,480.4,189.9
				L480.4,189.9L480.4,189.9z"/>
			
				<linearGradient id="SVGID_1_" gradientUnits="userSpaceOnUse" x1="423.105" y1="-143.2" x2="423.105" y2="-36.73" gradientTransform="matrix(1 0 0 -1 0 99.82)">
				<stop  offset="0" style="stop-color:#030304"/>
				<stop  offset="7.000000e-02" style="stop-color:#030404"/>
				<stop  offset="0.11" style="stop-color:#070909"/>
				<stop  offset="0.14" style="stop-color:#0F1113"/>
				<stop  offset="0.16" style="stop-color:#1D1F21"/>
				<stop  offset="0.19" style="stop-color:#2D2D2F"/>
				<stop  offset="0.21" style="stop-color:#3F3E3C"/>
				<stop  offset="0.4" style="stop-color:#595756"/>
				<stop  offset="0.67" style="stop-color:#7B7A7A"/>
				<stop  offset="0.88" style="stop-color:#929292"/>
				<stop  offset="1" style="stop-color:#9F9D9C"/>
			</linearGradient>
			<path class="st10" d="M476.2,189.9c0,29.3-23.8,53.1-53.1,53.1S370,219.2,370,189.8s23.8-53.3,53.1-53.3
				C452.4,136.7,476.2,160.4,476.2,189.9L476.2,189.9L476.2,189.9z"/>
			<path class="st11" d="M471,189.9c0,26.4-21.4,48.1-48.1,48.1s-48-21.6-48-48.1s21.4-48.1,48.1-48.1
				C449.7,141.9,471,163.3,471,189.9L471,189.9z"/>
			
				<linearGradient id="ciemniej_00000158010302057960749500000013878933363683196554_" gradientUnits="userSpaceOnUse" x1="422.995" y1="-143.22" x2="422.995" y2="-85.05" gradientTransform="matrix(1 0 0 -1 0 99.82)">
				<stop  offset="0" style="stop-color:#070808"/>
				<stop  offset="1" style="stop-color:#292A29"/>
			</linearGradient>
			<path id="ciemniej" style="fill:url(#ciemniej_00000158010302057960749500000013878933363683196554_);" d="M476.2,189.9
				c0-1.1,0-2.1-0.1-3.2c-10.7,3-29.2,6.8-53.1,6.8s-41.7-4.7-53-8.6c-0.2,1.7-0.3,3.3-0.3,5c0,29.3,23.8,53.2,53.1,53.2
				S476.2,219.2,476.2,189.9L476.2,189.9L476.2,189.9z"/>
			<g id="gwiazda">
				<circle class="st13" cx="423" cy="189.9" r="7.9"/>
				<path class="st13" d="M432.9,185l17.3-22.2L428,180.1C430.1,181,431.9,182.7,432.9,185L432.9,185L432.9,185z"/>
				<path class="st13" d="M418.1,180l-22.2-17.3l17.3,22.2C414.1,182.8,415.9,181,418.1,180L418.1,180L418.1,180z"/>
				<path class="st13" d="M461.4,189.9l-27.9-3.5c0.3,1.1,0.5,2.3,0.5,3.5s-0.2,2.4-0.5,3.5L461.4,189.9z"/>
				<path class="st13" d="M426.6,179.4l-3.5-27.9l-3.5,27.9c1.1-0.3,2.3-0.5,3.5-0.5C424.3,178.8,425.4,179.1,426.6,179.4z"/>
				<path class="st13" d="M427.9,199.7l22.2,17.3l-17.3-22.2C431.9,196.9,430.2,198.7,427.9,199.7L427.9,199.7L427.9,199.7z"/>
				<path class="st13" d="M412,189.9c0-1.2,0.2-2.4,0.5-3.5l-27.9,3.5l27.9,3.5C412.2,192.3,412,191.1,412,189.9z"/>
				<path class="st13" d="M419.5,200.4l3.5,27.9l3.5-27.9c-1.1,0.3-2.3,0.5-3.5,0.5S420.7,200.8,419.5,200.4z"/>
				<path class="st13" d="M413.2,194.8L395.9,217l22.2-17.3C416,198.8,414.2,197,413.2,194.8L413.2,194.8L413.2,194.8z"/>
			</g>
		</g>
	</g>
	<g>
		<g id="prodBg">
			
				<linearGradient id="external-border_00000138575466677495578670000013277610835968801920_" gradientUnits="userSpaceOnUse" x1="324.6277" y1="1045.4927" x2="44.3022" y2="765.1572" gradientTransform="matrix(1 0 0 1 0 -715.37)">
				<stop  offset="0" style="stop-color:#9E9D9C"/>
				<stop  offset="0.54" style="stop-color:#010202"/>
				<stop  offset="1" style="stop-color:#9E9D9C"/>
			</linearGradient>
			
				<rect id="external-border" x="58.7" y="35.4" style="fill:url(#external-border_00000138575466677495578670000013277610835968801920_);" width="251.5" height="309.1"/>
			
				<linearGradient id="internal-border_00000109029103062420918950000007763971759510939036_" gradientUnits="userSpaceOnUse" x1="184.535" y1="1055.3" x2="184.535" y2="755.36" gradientTransform="matrix(1 0 0 1 0 -715.37)">
				<stop  offset="0" style="stop-color:#462C1B"/>
				<stop  offset="1" style="stop-color:#B18048"/>
			</linearGradient>
			
				<rect id="internal-border" x="63.3" y="40" style="fill:url(#internal-border_00000109029103062420918950000007763971759510939036_);" width="242.5" height="299.9"/>
			
				<linearGradient id="bg_00000013883269488771842700000010746140915120614048_" gradientUnits="userSpaceOnUse" x1="184.48" y1="1051.14" x2="184.48" y2="759.39" gradientTransform="matrix(1 0 0 1 0 -715.37)">
				<stop  offset="0" style="stop-color:#946137"/>
				<stop  offset="1" style="stop-color:#805127"/>
			</linearGradient>
			
				<rect id="bg" x="67.3" y="44" style="fill:url(#bg_00000013883269488771842700000010746140915120614048_);" width="234.3" height="291.8"/>
			
				<pattern  id="bgPattern_00000069399399407280818190000000541363029758822294_" xlink:href="#Nowy_wzorek_4" patternTransform="matrix(1 0 0 1 51.9 33240.918)">
			</pattern>
			
				<rect id="bgPattern" x="67.3" y="44" style="opacity:0.1;fill:url(#bgPattern_00000069399399407280818190000000541363029758822294_);enable-background:new    ;" width="234.3" height="291.8"/>
		</g>
		<path class="st18" d="M111.4,287.6v-24.2H87.2v-9.9h24.2v-24.2h9.9v24.2h24.2v9.9h-24.2v24.2C121.3,287.6,111.4,287.6,111.4,287.6
			z"/>
		<path class="st18" d="M101.2,129.4v-13.5h32.5v13.5C133.7,129.4,101.2,129.4,101.2,129.4z"/>
		<g id="mln-2">
			<polygon id="obram_czarne-2" class="st19" points="182.5,199.2 165,216.7 165,297.2 182.5,314.7 263,314.7 280.4,297.2 
				280.4,216.7 263,199.2 			"/>
			
				<linearGradient id="obram_zolte-2_00000106106506033852172950000004910372661570661801_" gradientUnits="userSpaceOnUse" x1="222.75" y1="1027.74" x2="222.75" y2="918.91" gradientTransform="matrix(1 0 0 1 0 -716.38)">
				<stop  offset="0.16" style="stop-color:#823A13"/>
				<stop  offset="0.18" style="stop-color:#985C1A"/>
				<stop  offset="0.22" style="stop-color:#AE7D22"/>
				<stop  offset="0.26" style="stop-color:#C39D26"/>
				<stop  offset="0.3" style="stop-color:#D6B92E"/>
				<stop  offset="0.35" style="stop-color:#E4CF36"/>
				<stop  offset="0.41" style="stop-color:#EFE036"/>
				<stop  offset="0.48" style="stop-color:#F6E947"/>
				<stop  offset="0.58" style="stop-color:#F8EA4E"/>
				<stop  offset="0.86" style="stop-color:#F6EA4D"/>
				<stop  offset="1" style="stop-color:#FCF4F9"/>
			</linearGradient>
			<polygon id="obram_zolte-2" style="fill:url(#obram_zolte-2_00000106106506033852172950000004910372661570661801_);" points="
				184.8,202.5 168.4,219 168.4,294.9 184.8,311.4 260.7,311.4 277.1,294.9 277.1,219 260.7,202.5 			"/>
			
				<linearGradient id="tlo_wew-2_00000109738509630008811040000014018175646015380922_" gradientUnits="userSpaceOnUse" x1="222.76" y1="913.11" x2="222.76" y2="1079.45" gradientTransform="matrix(1 0 0 1 0 -716.38)">
				<stop  offset="0.26" style="stop-color:#F6EA4D"/>
				<stop  offset="0.86" style="stop-color:#803813"/>
			</linearGradient>
			<polygon id="tlo_wew-2" style="fill:url(#tlo_wew-2_00000109738509630008811040000014018175646015380922_);" points="
				185.9,204.2 169.9,220.1 169.9,293.8 185.9,309.8 259.6,309.8 275.6,293.8 275.6,220.1 259.6,204.2 			"/>
			
				<linearGradient id="obram_skosne-2_00000037669336092286032150000007493655339883400589_" gradientUnits="userSpaceOnUse" x1="222.805" y1="1026.24" x2="222.805" y2="920.53" gradientTransform="matrix(1 0 0 1 0 -716.38)">
				<stop  offset="0.16" style="stop-color:#803813"/>
				<stop  offset="0.17" style="stop-color:#8C471E"/>
				<stop  offset="0.18" style="stop-color:#A26B3C"/>
				<stop  offset="0.2" style="stop-color:#B78954"/>
				<stop  offset="0.22" style="stop-color:#C7A468"/>
				<stop  offset="0.24" style="stop-color:#D7BB7A"/>
				<stop  offset="0.26" style="stop-color:#E2CC88"/>
				<stop  offset="0.3" style="stop-color:#EAD891"/>
				<stop  offset="0.34" style="stop-color:#EEDE97"/>
				<stop  offset="0.46" style="stop-color:#EFE097"/>
				<stop  offset="0.7" style="stop-color:#803813"/>
				<stop  offset="0.73" style="stop-color:#E6D234"/>
				<stop  offset="0.74" style="stop-color:#EBD948"/>
				<stop  offset="0.75" style="stop-color:#EEDE6D"/>
				<stop  offset="0.77" style="stop-color:#F0E28A"/>
				<stop  offset="0.79" style="stop-color:#F8EBAA"/>
				<stop  offset="0.8" style="stop-color:#F8EDBF"/>
				<stop  offset="0.83" style="stop-color:#FAF0CF"/>
				<stop  offset="0.85" style="stop-color:#FCF2DA"/>
				<stop  offset="0.89" style="stop-color:#FDF4E1"/>
				<stop  offset="0.99" style="stop-color:#FDF5E3"/>
			</linearGradient>
			<path id="obram_skosne-2" style="fill:url(#obram_skosne-2_00000037669336092286032150000007493655339883400589_);" d="
				M267.9,277.3c-2.9,0-5.3-2.4-5.3-5.3v-30.1c0-2.9,2.4-5.3,5.3-5.3h7.6v-16.4l-15.9-16h-16.5v7.6c0,2.9-2.4,5.3-5.3,5.3h-30.1
				c-2.9,0-5.3-2.4-5.3-5.3v-7.6h-16.4l-16,16v16.5h7.6c2.9,0,5.3,2.4,5.3,5.3v30.2c0,2.9-2.4,5.3-5.3,5.3h-7.6v16.4l16,16h16.5
				v-7.6c0-2.9,2.4-5.3,5.3-5.3h30.1c2.9,0,5.3,2.4,5.3,5.3v7.6h16.5l16-16v-16.5H267.9z"/>
			
				<linearGradient id="tlo_zew-2_00000008862610165693893800000000216251242191421363_" gradientUnits="userSpaceOnUse" x1="222.74" y1="936.02" x2="222.74" y2="1099.16" gradientTransform="matrix(1 0 0 1 0 -716.38)">
				<stop  offset="0.26" style="stop-color:#F6EA4D"/>
				<stop  offset="0.77" style="stop-color:#803813"/>
			</linearGradient>
			<path id="tlo_zew-2" style="fill:url(#tlo_zew-2_00000008862610165693893800000000216251242191421363_);" d="M267.7,279.1
				c-3.6,0-6.5-3.6-6.5-7.2v-30c0-3.6,2.9-7.2,6.5-7.2h6.1v-13.4l-15.5-15.4H245v6.1c0,3.6-3.6,6.5-7.2,6.5h-30
				c-3.6,0-7.2-2.9-7.2-6.5v-6.1h-13.5l-15.4,15.4v13.4h6.1c3.6,0,6.5,3.6,6.5,7.2v30c0,3.6-2.9,7.2-6.5,7.2h-6.1v13.4l15.4,15.4
				h13.4v-6.1c0-3.6,3.6-6.5,7.2-6.5h29.9c3.6,0,7.2,2.9,7.2,6.5v6.1h13.4l15.4-15.4v-13.4H267.7L267.7,279.1z"/>
		</g>
		<g id="energy">
			<rect x="165" y="64.9" class="st9" width="115.4" height="115.4"/>
			
				<linearGradient id="SVGID_00000019667307036255550290000010821074048642299555_" gradientUnits="userSpaceOnUse" x1="-1007.4673" y1="1954.5793" x2="-930.5483" y2="1877.6002" gradientTransform="matrix(0.7071 -0.7071 0.7071 0.7071 -446.9881 -1917.412)">
				<stop  offset="0" style="stop-color:#1D1427"/>
				<stop  offset="0.24" style="stop-color:#372348"/>
				<stop  offset="0.49" style="stop-color:#573B6C"/>
				<stop  offset="0.71" style="stop-color:#72508C"/>
				<stop  offset="0.89" style="stop-color:#835CA0"/>
				<stop  offset="1" style="stop-color:#8963A7"/>
			</linearGradient>
			
				<rect x="168.3" y="68.3" style="fill:url(#SVGID_00000019667307036255550290000010821074048642299555_);" width="108.8" height="108.8"/>
			<polygon class="st25" points="271.8,73.6 271.8,171.8 173.6,171.8 173.6,73.6 			"/>
			<polygon class="st26" points="210.7,111.4 243.1,91.3 225.8,116.4 235,131.3 203.1,151.4 219.1,126.4 			"/>
			<path id="darker" class="st27" d="M277.1,177.1H168.3v-59.6c0,0,34.2,5.3,54.3,5.3s54.4-5.3,54.4-5.3V177.1L277.1,177.1z"/>
		</g>
		<path class="st18" d="M207.3,281.5v-7.7c2.9-4,5.8-7.1,8.5-9.5l4-3.5c2.9-2.5,5.2-5,7.1-7.5s2.8-5.1,2.8-7.7
			c0-2.4-0.8-4.3-2.4-5.6s-3.7-2-6.4-2c-3.6,0-7.7,1.2-12.4,3.6v-7.1c4.9-1.9,9.7-2.8,14.4-2.8c5.1,0,9.2,1.2,12.4,3.7
			s4.7,5.7,4.7,9.8c0,2.6-0.7,5.1-2,7.3c-1.3,2.3-4.1,5.1-8.3,8.5l-3.3,2.6c-1.4,1.2-3,2.6-4.8,4.5s-2.9,3.8-3.4,5.8h21.5v7.7
			L207.3,281.5L207.3,281.5L207.3,281.5z"/>
	</g>
</g>
</svg>
