<?xml version="1.0" encoding="utf-8"?>
<!-- Generator: Adobe Illustrator 27.5.0, SVG Export Plug-In . SVG Version: 6.00 Build 0)  -->
<svg version="1.1" id="Layer" xmlns="http://www.w3.org/2000/svg" xmlns:xlink="http://www.w3.org/1999/xlink" x="0px" y="0px"
	 viewBox="0 0 721 379.9" style="enable-background:new 0 0 721 379.9;" xml:space="preserve">
<style type="text/css">
	.st0{fill:#FFFFFF;fill-opacity:0;}
	.st1{opacity:0.4;}
	.st2{opacity:0.4;fill:url(#SVGID_1_);enable-background:new    ;}
	.st3{fill:url(#SVGID_00000026136721246215475190000015115803854365704869_);}
	.st4{fill:#030404;}
	.st5{fill:url(#SVGID_00000091693938871750406260000010071355237899390630_);}
	.st6{fill:#4EAE3B;}
	.st7{fill:#10592A;stroke:#1F4524;stroke-width:3.68;stroke-miterlimit:10;}
	.st8{opacity:5.000000e-02;fill:#030404;enable-background:new    ;}
	.st9{opacity:0.4;fill:#010101;}
	
		.st10{fill:url(#SVGID_00000142165908787127738650000007277621025042959789_);stroke:#030304;stroke-width:2.81;stroke-miterlimit:10;}
	.st11{fill:none;stroke:#FFFFFF;stroke-width:2.81;stroke-miterlimit:10;}
	.st12{opacity:0.5;fill:url(#SVGID_00000119113712886145813040000014888234107567224255_);enable-background:new    ;}
	
		.st13{fill:url(#SVGID_00000078045008123509160420000013066999724471803533_);stroke:#030304;stroke-width:2.81;stroke-miterlimit:10;}
	.st14{opacity:0.5;fill:url(#SVGID_00000120561031730859106830000002381282092333420956_);enable-background:new    ;}
	.st15{opacity:0.4;fill:#1D1D1B;}
	.st16{fill:#010101;}
	.st17{fill:url(#SVGID_00000057118195853461229860000007239880427845745829_);}
	.st18{fill:#82A3D6;}
	.st19{fill:#114490;}
	.st20{fill:#1B2B4C;}
	.st21{fill:#93C6EC;}
	.st22{fill:#7CA5D8;}
	.st23{fill:#3D5DA7;}
	.st24{fill:url(#SVGID_00000175283151140489165000000014918905181832858246_);}
	.st25{fill:url(#SVGID_00000155139359848094945760000014969258866975660941_);}
	.st26{fill:url(#SVGID_00000152261211950665666420000011913780498420989629_);}
</style>
<rect x="0.5" y="0.5" class="st0" width="720" height="378.9"/>
<g id="plant" class="st1">
	
		<linearGradient id="SVGID_1_" gradientUnits="userSpaceOnUse" x1="379.9505" y1="-224.7184" x2="379.9505" y2="-138.0883" gradientTransform="matrix(1 0 0 -1 0 146.54)">
		<stop  offset="0" style="stop-color:#FFDC15"/>
		<stop  offset="0" style="stop-color:#FFDB16"/>
		<stop  offset="5.000000e-02" style="stop-color:#F9BC27"/>
		<stop  offset="0.1" style="stop-color:#F59E22"/>
		<stop  offset="0.16" style="stop-color:#EF7C21"/>
		<stop  offset="0.22" style="stop-color:#E96411"/>
		<stop  offset="0.27" style="stop-color:#E94D23"/>
		<stop  offset="0.34" style="stop-color:#E63C24"/>
		<stop  offset="0.41" style="stop-color:#E63725"/>
		<stop  offset="0.5" style="stop-color:#E63525"/>
		<stop  offset="0.59" style="stop-color:#E63725"/>
		<stop  offset="0.66" style="stop-color:#E63C24"/>
		<stop  offset="0.73" style="stop-color:#E94D23"/>
		<stop  offset="0.78" style="stop-color:#E96411"/>
		<stop  offset="0.84" style="stop-color:#EF7C21"/>
		<stop  offset="0.9" style="stop-color:#F59E22"/>
		<stop  offset="0.95" style="stop-color:#F9BC27"/>
		<stop  offset="1" style="stop-color:#FFDB16"/>
		<stop  offset="1" style="stop-color:#FFDC15"/>
	</linearGradient>
	<rect x="336.6" y="284.6" class="st2" width="86.6" height="86.6"/>
	
		<linearGradient id="SVGID_00000106110758737030273490000002470333810822707635_" gradientUnits="userSpaceOnUse" x1="379.963" y1="-221.5286" x2="379.963" y2="-141.2781" gradientTransform="matrix(1 0 0 -1 0 146.54)">
		<stop  offset="0" style="stop-color:#FFDC15"/>
		<stop  offset="0" style="stop-color:#FFDB16"/>
		<stop  offset="5.000000e-02" style="stop-color:#F9BC27"/>
		<stop  offset="0.1" style="stop-color:#F59E22"/>
		<stop  offset="0.16" style="stop-color:#EF7C21"/>
		<stop  offset="0.22" style="stop-color:#E96411"/>
		<stop  offset="0.27" style="stop-color:#E94D23"/>
		<stop  offset="0.34" style="stop-color:#E63C24"/>
		<stop  offset="0.41" style="stop-color:#E63725"/>
		<stop  offset="0.5" style="stop-color:#E63525"/>
		<stop  offset="0.59" style="stop-color:#E63725"/>
		<stop  offset="0.66" style="stop-color:#E63C24"/>
		<stop  offset="0.73" style="stop-color:#E94D23"/>
		<stop  offset="0.78" style="stop-color:#E96411"/>
		<stop  offset="0.84" style="stop-color:#EF7C21"/>
		<stop  offset="0.9" style="stop-color:#F59E22"/>
		<stop  offset="0.95" style="stop-color:#F9BC27"/>
		<stop  offset="1" style="stop-color:#FFDB16"/>
		<stop  offset="1" style="stop-color:#FFDC15"/>
	</linearGradient>
	
		<rect x="339.8" y="287.8" style="fill:url(#SVGID_00000106110758737030273490000002470333810822707635_);" width="80.3" height="80.3"/>
	<rect x="344.1" y="292.1" class="st4" width="71.9" height="71.9"/>
	
		<linearGradient id="SVGID_00000023252186867972162630000004399691128276702616_" gradientUnits="userSpaceOnUse" x1="-1025.2078" y1="-1348.3375" x2="-977.3159" y2="-1300.4458" gradientTransform="matrix(0.7071 -0.7071 -0.7071 -0.7071 151.532 -1316.4419)">
		<stop  offset="0" style="stop-color:#136B38"/>
		<stop  offset="4.000000e-02" style="stop-color:#176D39"/>
		<stop  offset="8.000000e-02" style="stop-color:#0E793B"/>
		<stop  offset="0.13" style="stop-color:#188937"/>
		<stop  offset="0.15" style="stop-color:#149138"/>
		<stop  offset="0.35" style="stop-color:#3A9A3D"/>
		<stop  offset="0.76" style="stop-color:#63B24A"/>
		<stop  offset="1" style="stop-color:#70B74B"/>
	</linearGradient>
	
		<rect x="346.2" y="294.2" style="fill:url(#SVGID_00000023252186867972162630000004399691128276702616_);" width="67.7" height="67.7"/>
	<rect x="349.4" y="297.5" class="st6" width="61.1" height="61.1"/>
	<path id="leaf" class="st7" d="M380,312.6c-8.8,1.2-15.4,6.9-15.4,15.4c0,2.1,0.4,4.1,1.2,5.9c-1.6,1.1-4,2.5-5.1,2.9
		c-2,0.7-6,0.2-6.2,0.6c-0.2,0.3,1.2,4,1.6,4.2s4.2,0.2,6.2-0.6c1.5-0.5,4.2-2.3,5.8-3.4c2.8,3.6,7.2,5.8,12.1,5.8
		c8.5,0,15.3-5.4,15.3-13.9c0-3.3,0.8-7.4,2-10c1.3-2.9,8.2-4.7,8.2-4.7C404.9,312.5,383.4,312.1,380,312.6L380,312.6L380,312.6
		L380,312.6L380,312.6z"/>
	<path id="darker" class="st8" d="M413.9,361.9h-67.7v-37.1c0,0,21.3,3.3,33.8,3.3s33.9-3.3,33.9-3.3V361.9z"/>
</g>
<path class="st9" d="M272.7,331.6V323h20.5v8.5H272.7L272.7,331.6z"/>
<g id="tempIcon">
	
		<linearGradient id="SVGID_00000086654221485611401110000003575136185827062935_" gradientUnits="userSpaceOnUse" x1="115.7" y1="49.74" x2="115.7" y2="247.5" gradientTransform="matrix(1 0 0 -1 0 314.18)">
		<stop  offset="8.000000e-02" style="stop-color:#47C0F0"/>
		<stop  offset="0.15" style="stop-color:#52A5D5"/>
		<stop  offset="0.23" style="stop-color:#5D85B4"/>
		<stop  offset="0.3" style="stop-color:#626A9C"/>
		<stop  offset="0.37" style="stop-color:#67568C"/>
		<stop  offset="0.42" style="stop-color:#684981"/>
		<stop  offset="0.46" style="stop-color:#68457E"/>
		<stop  offset="0.55" style="stop-color:#923E61"/>
		<stop  offset="0.67" style="stop-color:#B7323C"/>
		<stop  offset="0.75" style="stop-color:#CC2321"/>
		<stop  offset="0.79" style="stop-color:#D41A1C"/>
	</linearGradient>
	
		<path style="fill:url(#SVGID_00000086654221485611401110000003575136185827062935_);stroke:#030304;stroke-width:2.81;stroke-miterlimit:10;" d="
		M128.8,211.9V79.8c0-7.2-6-13.1-13.1-13.1s-13.1,6-13.1,13.1v131.8c-8.7,4.8-14.9,14-14.9,24.8c0,15.5,12.5,28,28,28s28-12.5,28-28
		C143.7,225.7,137.8,216.4,128.8,211.9L128.8,211.9L128.8,211.9z"/>
	<line class="st11" x1="110" y1="95.3" x2="121.7" y2="95.3"/>
	<line class="st11" x1="110" y1="132" x2="121.7" y2="132"/>
	<line class="st11" x1="110" y1="165.4" x2="121.7" y2="165.4"/>
	<line class="st11" x1="110" y1="196.4" x2="121.7" y2="196.4"/>
	<line class="st11" x1="110" y1="235.8" x2="121.7" y2="235.8"/>
	
		<linearGradient id="SVGID_00000066515766264680971930000012412987282767737511_" gradientUnits="userSpaceOnUse" x1="107.6" y1="84.98" x2="96.94" y2="95.64" gradientTransform="matrix(1 0 0 -1 0 314.18)">
		<stop  offset="0" style="stop-color:#1F1F1E;stop-opacity:0"/>
		<stop  offset="1" style="stop-color:#FFFFFF"/>
	</linearGradient>
	<path style="opacity:0.5;fill:url(#SVGID_00000066515766264680971930000012412987282767737511_);enable-background:new    ;" d="
		M107.6,228.9c-4.2,4.5-10.1,5.4-13.1,2.7c-3-3-1.8-8.9,2.4-13.1s10.1-5.4,13.1-2.4S112.1,224.8,107.6,228.9z"/>
</g>
<g id="tempIcon-2">
	
		<linearGradient id="SVGID_00000090292549268617567990000009563247225600081035_" gradientUnits="userSpaceOnUse" x1="200.2" y1="49.74" x2="200.2" y2="247.5" gradientTransform="matrix(1 0 0 -1 0 314.18)">
		<stop  offset="8.000000e-02" style="stop-color:#47C0F0"/>
		<stop  offset="0.15" style="stop-color:#52A5D5"/>
		<stop  offset="0.23" style="stop-color:#5D85B4"/>
		<stop  offset="0.3" style="stop-color:#626A9C"/>
		<stop  offset="0.37" style="stop-color:#67568C"/>
		<stop  offset="0.42" style="stop-color:#684981"/>
		<stop  offset="0.46" style="stop-color:#68457E"/>
		<stop  offset="0.55" style="stop-color:#923E61"/>
		<stop  offset="0.67" style="stop-color:#B7323C"/>
		<stop  offset="0.75" style="stop-color:#CC2321"/>
		<stop  offset="0.79" style="stop-color:#D41A1C"/>
	</linearGradient>
	
		<path style="fill:url(#SVGID_00000090292549268617567990000009563247225600081035_);stroke:#030304;stroke-width:2.81;stroke-miterlimit:10;" d="
		M213.3,211.9V79.8c0-7.2-6-13.1-13.1-13.1s-13.1,6-13.1,13.1v131.8c-8.6,4.8-14.9,14-14.9,24.8c0,15.5,12.5,28,28,28s28-12.5,28-28
		C228.2,225.7,222.3,216.4,213.3,211.9L213.3,211.9L213.3,211.9z"/>
	<line class="st11" x1="194.5" y1="95.3" x2="206.1" y2="95.3"/>
	<line class="st11" x1="194.5" y1="132" x2="206.1" y2="132"/>
	<line class="st11" x1="194.5" y1="165.4" x2="206.1" y2="165.4"/>
	<line class="st11" x1="194.5" y1="196.4" x2="206.1" y2="196.4"/>
	<line class="st11" x1="194.5" y1="235.8" x2="206.1" y2="235.8"/>
	
		<linearGradient id="SVGID_00000088112069700636374840000009677971819815793545_" gradientUnits="userSpaceOnUse" x1="192.1" y1="84.98" x2="181.44" y2="95.64" gradientTransform="matrix(1 0 0 -1 0 314.18)">
		<stop  offset="0" style="stop-color:#1F1F1E;stop-opacity:0"/>
		<stop  offset="1" style="stop-color:#FFFFFF"/>
	</linearGradient>
	<path style="opacity:0.5;fill:url(#SVGID_00000088112069700636374840000009677971819815793545_);enable-background:new    ;" d="
		M192.1,228.9c-4.2,4.5-10.1,5.4-13.1,2.7c-3-3-1.8-8.9,2.4-13.1s10.1-5.4,13.1-2.4S196.6,224.8,192.1,228.9z"/>
</g>
<path class="st15" d="M311.5,326.7c0.8-1,1.6-1.7,2.3-2.1s1.6-0.8,2.5-1.1c0.9-0.3,1.9-0.4,2.8-0.4c1.7,0,3.4,0.4,4.9,1.2
	s2.7,2,3.6,3.5c0.9,1.5,1.3,3.2,1.3,5.1c0,2-0.5,3.9-1.4,5.7c-1,1.8-2.2,3.2-3.9,4.2c-1.6,1-3.7,1.5-6.1,1.5c-4.2,0-7.4-1.5-9.4-4.5
	s-3.1-6.8-3.1-11.3c0-3.3,0.5-6.2,1.6-8.9c1.1-2.7,2.6-4.8,4.6-6.2c2-1.5,4.7-2.2,8.1-2.2c1.1,0,2.1,0.1,3.2,0.2s2.6,0.4,4.8,1v4.6
	c-2.9-1.2-5.5-1.8-7.7-1.8c-1.7,0-3.1,0.4-4.2,1.3c-1.1,0.9-2.1,2.2-2.7,4C311.9,322,311.5,324.2,311.5,326.7L311.5,326.7z
	 M322.6,333.9c0-2.2-0.5-3.9-1.5-5.1c-1-1.2-2.2-1.8-3.8-1.8c-1.4,0-2.7,0.5-3.8,1.6c-1.1,1.1-1.7,2.5-1.7,4.3
	c0,1.8,0.5,3.5,1.4,5.1c0.9,1.5,2.3,2.3,4.3,2.3c1.5,0,2.7-0.6,3.7-1.7C322.1,337.5,322.6,335.9,322.6,333.9L322.6,333.9z"/>
<g id="ocean">
	<polygon class="st16" points="432.8,214.1 432.8,117.1 348.9,68.6 264.8,117.1 264.8,214.1 348.9,262.5 	"/>
	
		<linearGradient id="SVGID_00000151526744706440830630000018416838293837099689_" gradientUnits="userSpaceOnUse" x1="348.89" y1="980.33" x2="348.89" y2="792.6" gradientTransform="matrix(1 0 0 1 0 -720.91)">
		<stop  offset="0" style="stop-color:#C1DCF4"/>
		<stop  offset="1" style="stop-color:#255286"/>
	</linearGradient>
	<polygon style="fill:url(#SVGID_00000151526744706440830630000018416838293837099689_);" points="430.2,212.6 430.2,118.7 
		348.9,71.7 267.6,118.7 267.6,212.6 348.9,259.4 	"/>
	<polygon class="st18" points="424.7,209.4 424.7,121.7 348.9,77.8 272.9,121.7 272.9,209.4 348.9,253.3 	"/>
	<path class="st19" d="M424.7,177.1c-3.4-3.2-10-4.5-21.4-6c-11-1.5-16.5-2.1-19.3-2.1c-17.5-0.2-18.6,4.7-33,4.9
		c-3.9,0-14.2-2.1-35.3-6.5c-12.1-2.4-15.9-3.4-22-2.9c-8.6,0.6-15.7,3.6-20.9,6.6v38.2l76.1,43.9l75.8-43.9L424.7,177.1
		L424.7,177.1L424.7,177.1z"/>
	<path class="st20" d="M349,229.6L349,229.6c34.2-0.6,50.9-35.1,35-72.9c-1.3-3.2-3.1-6.6-5-10.2c-30.1-55.1-30.1-54.8-30.1-54.8
		s0-0.3-30.1,54.8c-1.9,3.6-3.6,7-5,10.2c-15.9,37.7,0.8,72.2,35,72.9l0,0"/>
	<path class="st21" d="M349,227.5L349,227.5c32.4-0.6,48.1-33.2,33.2-69c-1.3-3.1-2.9-6.3-4.7-9.7C349,96.6,349,97,349,97
		s0-0.3-28.5,51.8c-1.8,3.4-3.4,6.5-4.7,9.7C300.6,194.3,316.3,227,349,227.5L349,227.5"/>
	<path class="st22" d="M348.9,223.8L348.9,223.8c29.8-0.5,44.2-30.4,30.5-63.2c-1.1-2.9-2.8-5.8-4.4-8.9
		c-26.1-47.9-26.1-47.6-26.1-47.6s0-0.3-26.2,47.6c-1.6,3.1-3.1,6-4.4,8.9C304.7,193.3,319.1,223.1,348.9,223.8L348.9,223.8"/>
	<path class="st23" d="M382.4,169c-15.9,0.2-17.3,4.7-31.4,4.9c-3.9,0-14.2-2.1-35.1-6.3c-9.1,30,5.4,55.7,33,56.2h0.2
		C376.1,223.3,390.5,198.4,382.4,169L382.4,169L382.4,169z"/>
	
		<radialGradient id="SVGID_00000024702237294866195550000006072386921611879831_" cx="348.73" cy="898.21" r="81.41" gradientTransform="matrix(1 0 0 1 0 -720.91)" gradientUnits="userSpaceOnUse">
		<stop  offset="0" style="stop-color:#FFFFFF;stop-opacity:0.7"/>
		<stop  offset="0.13" style="stop-color:#F8FAFD;stop-opacity:0.68"/>
		<stop  offset="0.28" style="stop-color:#E4E9F7;stop-opacity:0.62"/>
		<stop  offset="0.44" style="stop-color:#C2CDEA;stop-opacity:0.53"/>
		<stop  offset="0.62" style="stop-color:#93A7D6;stop-opacity:0.4"/>
		<stop  offset="0.79" style="stop-color:#5673B7;stop-opacity:0.23"/>
		<stop  offset="0.98" style="stop-color:#2C4F9E;stop-opacity:3.000000e-02"/>
		<stop  offset="1" style="stop-color:#2B4B9B;stop-opacity:0"/>
	</radialGradient>
	<circle style="fill:url(#SVGID_00000024702237294866195550000006072386921611879831_);" cx="348.7" cy="177.3" r="81.3"/>
</g>
<g id="ocean-2">
	<polygon class="st16" points="632.8,214.1 632.8,117.1 548.9,68.6 464.8,117.1 464.8,214.1 548.9,262.5 	"/>
	
		<linearGradient id="SVGID_00000029760112659828181710000011659978186495851699_" gradientUnits="userSpaceOnUse" x1="548.89" y1="980.33" x2="548.89" y2="792.6" gradientTransform="matrix(1 0 0 1 0 -720.91)">
		<stop  offset="0" style="stop-color:#C1DCF4"/>
		<stop  offset="1" style="stop-color:#255286"/>
	</linearGradient>
	<polygon style="fill:url(#SVGID_00000029760112659828181710000011659978186495851699_);" points="630.2,212.6 630.2,118.7 
		548.9,71.7 467.6,118.7 467.6,212.6 548.9,259.4 	"/>
	<polygon class="st18" points="624.7,209.4 624.7,121.7 548.9,77.8 472.9,121.7 472.9,209.4 548.9,253.3 	"/>
	<path class="st19" d="M624.7,177.1c-3.4-3.2-10-4.5-21.4-6c-11-1.5-16.5-2.1-19.3-2.1c-17.5-0.2-18.6,4.7-33,4.9
		c-3.9,0-14.2-2.1-35.3-6.5c-12.1-2.4-15.9-3.4-22-2.9c-8.6,0.6-15.7,3.6-20.9,6.6v38.2l76.1,43.9l75.8-43.9L624.7,177.1
		L624.7,177.1L624.7,177.1z"/>
	<path class="st20" d="M549,229.6L549,229.6c34.2-0.6,50.9-35.1,35-72.9c-1.3-3.2-3.1-6.6-5-10.2c-30.1-55.1-30.1-54.8-30.1-54.8
		s0-0.3-30.1,54.8c-1.9,3.6-3.6,7-5,10.2c-15.9,37.7,0.8,72.2,35,72.9l0,0"/>
	<path class="st21" d="M549,227.5L549,227.5c32.4-0.6,48.1-33.2,33.2-69c-1.3-3.1-2.9-6.3-4.7-9.7C549,96.6,549,97,549,97
		s0-0.3-28.5,51.8c-1.8,3.4-3.4,6.5-4.7,9.7C500.6,194.3,516.3,227,549,227.5L549,227.5"/>
	<path class="st22" d="M548.9,223.8L548.9,223.8c29.8-0.5,44.2-30.4,30.5-63.2c-1.1-2.9-2.8-5.8-4.4-8.9
		c-26.1-47.9-26.1-47.6-26.1-47.6s0-0.3-26.2,47.6c-1.6,3.1-3.1,6-4.4,8.9C504.7,193.3,519.1,223.1,548.9,223.8L548.9,223.8"/>
	<path class="st23" d="M582.4,169c-15.9,0.2-17.3,4.7-31.4,4.9c-3.9,0-14.2-2.1-35.2-6.3c-9.1,30,5.3,55.7,33,56.2h0.2
		C576.1,223.3,590.5,198.4,582.4,169L582.4,169L582.4,169z"/>
	
   <radialGradient id="SVGID_00000118357894195715375310000014092476245833012359_" cx="548.73" cy="80.21" r="81.41" gradientTransform="matrix(1 0 0 -1 0 382)" gradientUnits="userSpaceOnUse">
		<stop  offset="0" style="stop-color:#FFFFFF;stop-opacity:0.7"/>
		<stop  offset="0.13" style="stop-color:#F8FAFD;stop-opacity:0.68"/>
		<stop  offset="0.28" style="stop-color:#E4E9F7;stop-opacity:0.62"/>
		<stop  offset="0.44" style="stop-color:#C2CDEA;stop-opacity:0.53"/>
		<stop  offset="0.62" style="stop-color:#93A7D6;stop-opacity:0.4"/>
		<stop  offset="0.79" style="stop-color:#5673B7;stop-opacity:0.23"/>
		<stop  offset="0.98" style="stop-color:#2C4F9E;stop-opacity:3.000000e-02"/>
		<stop  offset="1" style="stop-color:#2B4B9B;stop-opacity:0"/>
	</radialGradient>
   <circle style="fill:url(#SVGID_00000118357894195715375310000014092476245833012359_);" cx="548.7" cy="177.3" r="81.3"/>
</g>
</svg>
