<?xml version="1.0" encoding="utf-8"?>
<!-- Generator: Adobe Illustrator 27.5.0, SVG Export Plug-In . SVG Version: 6.00 Build 0)  -->
<svg version="1.1" id="Layer" xmlns="http://www.w3.org/2000/svg" xmlns:xlink="http://www.w3.org/1999/xlink" x="0px" y="0px"
	 viewBox="0 0 721 379.9" style="enable-background:new 0 0 721 379.9;" xml:space="preserve">
<style type="text/css">
	.st0{fill:#FFFFFF;fill-opacity:0;}
	.st1{fill:#030404;}
	.st2{fill:url(#SVGID_1_);}
	.st3{fill:url(#SVGID_00000154400518149376965570000013240695649167409854_);}
	.st4{opacity:8.000000e-02;fill:#030404;enable-background:new    ;}
	.st5{fill:#175A29;}
	.st6{fill:#1A291D;}
	.st7{fill:url(#SVGID_00000034803893784526815880000006466981050920998538_);}
	.st8{fill:url(#SVGID_00000179627317636268918530000018389213207017098127_);}
	.st9{fill:url(#SVGID_00000119094980738338879280000013492189819843914118_);}
	.st10{fill:url(#SVGID_00000146472215578049030100000013861218825585270412_);}
	.st11{opacity:0.29;fill:#030404;enable-background:new    ;}
	.st12{fill:none;stroke:#030404;stroke-miterlimit:10;}
</style>
<rect x="0.5" y="0.5" class="st0" width="720" height="378.9"/>
<path d="M355.9,74.5V62h12.6v12.6H355.9z M355.9,108.6V96.1h12.6v12.6H355.9z"/>
<g id="animal">
	<rect x="403.2" y="23.8" class="st1" width="116.1" height="116.1"/>
	
		<linearGradient id="SVGID_1_" gradientUnits="userSpaceOnUse" x1="-975.8611" y1="2471.2075" x2="-898.4865" y2="2393.843" gradientTransform="matrix(0.7071 -0.7071 0.7071 0.7071 -596.0881 -2300.8821)">
		<stop  offset="0" style="stop-color:#1F4D23"/>
		<stop  offset="0.43" style="stop-color:#4D7131"/>
		<stop  offset="1" style="stop-color:#99AC44"/>
	</linearGradient>
	<rect x="406.6" y="27.1" class="st2" width="109.4" height="109.4"/>
	
		<radialGradient id="SVGID_00000132789796347343168430000002213299124999436447_" cx="461.29" cy="1033.75" r="49.4" gradientTransform="matrix(1 0 0 1 0 -951.9)" gradientUnits="userSpaceOnUse">
		<stop  offset="0.25" style="stop-color:#99AC44"/>
		<stop  offset="1" style="stop-color:#3E7C31"/>
	</radialGradient>
	
		<rect x="411.9" y="32.5" style="fill:url(#SVGID_00000132789796347343168430000002213299124999436447_);" width="98.8" height="98.8"/>
	<path id="darker" class="st4" d="M516,136.6H406.6v-60c0,0,34.5,5.3,54.7,5.3s54.8-5.3,54.8-5.3V136.6L516,136.6z"/>
	<path class="st5" d="M449.7,54.1c-0.3,0-3,0.4-4.6,2.6c-0.6,0.8-0.9,1.8-1.1,2.8c-0.4,2-1.1,5.8,0.4,10.3c0.7,2.1,1.6,4.8,4,6.5
		c0.7,0.6,2.2,1.6,4.2,1.4c2.1-0.2,3.5-1.8,3.9-2.3c1.9-2.1,1.9-4.7,2-7.3c0-1.3,0-5.3-2-9.5c-1.4-2.8-2.6-3.5-3.2-3.8
		C451.7,53.8,450.1,54,449.7,54.1L449.7,54.1L449.7,54.1z"/>
	<path class="st5" d="M475.4,52.5c-0.3-0.1-2.9-0.7-5.1,0.8c-0.8,0.6-1.5,1.3-2,2.2c-1.1,1.8-3.1,4.9-3.2,9.8
		c-0.1,2.3-0.2,5,1.5,7.5c0.6,0.7,1.6,2.2,3.5,2.7c2,0.6,3.9-0.5,4.5-0.8c2.4-1.4,3.5-3.7,4.5-6.2c0.5-1.2,1.9-4.9,1.4-9.6
		c-0.3-3.1-1.2-4.2-1.7-4.7C477.4,53,475.9,52.7,475.4,52.5L475.4,52.5L475.4,52.5z"/>
	<path class="st5" d="M432.3,68.9c-0.3,0.1-2.9,0.7-4.3,3c-0.6,0.9-0.7,1.8-0.8,2.9c-0.2,2.1-0.6,5.8,1.3,10.2
		c0.9,2.1,2,4.6,4.7,6.2c0.8,0.5,2.4,1.3,4.3,0.9c2.1-0.4,3.2-2.1,3.7-2.7c1.6-2.3,1.5-4.8,1.3-7.5c-0.1-1.3-0.5-5.2-3-9.2
		c-1.6-2.6-2.9-3.2-3.5-3.5C434.3,68.6,432.9,68.9,432.3,68.9L432.3,68.9L432.3,68.9z"/>
	<path class="st5" d="M491,66.7c-0.3-0.1-2.9-0.7-5.1,0.9c-0.8,0.7-1.4,1.4-2,2.3c-1,1.9-3,5-3,9.9c0,2.3-0.1,5,1.7,7.4
		c0.6,0.7,1.7,2.2,3.5,2.6c2,0.5,3.8-0.6,4.5-0.9c2.4-1.4,3.4-3.8,4.3-6.3c0.5-1.2,1.8-4.9,1.1-9.6c-0.4-3.1-1.3-4.2-1.8-4.7
		C492.9,67.2,491.4,66.8,491,66.7L491,66.7L491,66.7L491,66.7z"/>
	<path class="st6" d="M490.3,69.7c-0.2,0-2.1-0.5-3.8,0.7c-0.6,0.5-1,1-1.5,1.7c-0.7,1.4-2.1,3.7-2.2,7.3c0,1.7-0.1,3.7,1.3,5.6
		c0.4,0.6,1.2,1.7,2.6,1.9c1.6,0.4,2.9-0.5,3.4-0.7c1.8-1.1,2.4-2.8,3.2-4.8c0.4-0.9,1.3-3.7,0.8-7.2c-0.3-2.2-1-3.1-1.3-3.4
		C491.8,70,490.7,69.7,490.3,69.7L490.3,69.7L490.3,69.7L490.3,69.7z"/>
	<path class="st6" d="M474.6,55.5c-0.2-0.1-2.1-0.5-3.8,0.6c-0.6,0.5-1,0.9-1.5,1.7c-0.8,1.3-2.2,3.6-2.4,7.3
		c-0.1,1.7-0.2,3.7,1.1,5.6c0.4,0.6,1.1,1.7,2.5,2.1c1.6,0.4,2.9-0.4,3.4-0.6c1.8-1,2.5-2.7,3.2-4.6c0.4-0.9,1.4-3.6,1-7.1
		c-0.3-2.2-0.9-3.1-1.2-3.5C476,55.9,475,55.6,474.6,55.5L474.6,55.5L474.6,55.5L474.6,55.5z"/>
	<path class="st6" d="M450.1,57.1c-0.2,0-2.1,0.3-3.4,1.9c-0.5,0.7-0.6,1.3-0.8,2c-0.3,1.5-0.8,4.2,0.3,7.6c0.6,1.6,1.1,3.5,3,4.8
		c0.6,0.4,1.7,1.1,3.1,1c1.6-0.2,2.5-1.3,2.9-1.7c1.3-1.6,1.4-3.4,1.5-5.4c0-0.9,0-3.9-1.6-7c-1-2-2-2.6-2.3-2.8
		C451.5,56.9,450.4,57,450.1,57.1L450.1,57.1L450.1,57.1z"/>
	<path class="st6" d="M432.9,71.7c-0.2,0-2.2,0.5-3.2,2.3c-0.5,0.7-0.6,1.4-0.6,2.2c-0.2,1.6-0.5,4.5,1,7.8c0.6,1.6,1.5,3.5,3.5,4.7
		c0.6,0.4,1.9,1,3.2,0.7c1.6-0.3,2.5-1.6,2.8-2.1c1.2-1.8,1.1-3.7,1-5.8c-0.1-1-0.4-4-2.2-7.1c-1.2-2.1-2.2-2.5-2.7-2.7
		C434.4,71.4,433.2,71.6,432.9,71.7L432.9,71.7L432.9,71.7L432.9,71.7z"/>
	<path class="st5" d="M462.1,76.6c-1.3,0.1-2.7,0.1-4.3,0.9c-1.8,0.9-2.8,2.3-3.7,3.5c-0.8,1.1-0.7,1.2-2,3.2
		c-1.1,1.7-1.7,2.7-2.7,3.8c-1.2,1.4-2.4,2.2-4.6,3.9c-2.3,1.8-2.5,1.7-3.2,2.4c-1.6,1.9-2,3.9-2.2,5.3c-0.2,1.3-0.6,3.7,0.4,6.5
		c0.5,1.2,1.3,3.5,3.5,4.6c0.8,0.4,1.7,0.5,3.7,0.4c3.5-0.2,5.8-0.8,7.8-1.3c2.4-0.6,4.9-1.1,8.1-1.2c3.8-0.1,7.2,0.6,8.9,0.8
		c2,0.4,3.5,0.8,6.4,1.1c2.4,0.3,3.6,0.2,5-0.3c0.8-0.3,2.3-0.7,3.5-2.1c1.2-1.5,1.3-3.1,1.3-4.8c0.1-1.1,0.1-3.8-1.5-7
		c-0.6-1.4-1.2-2.1-3.4-4.7c-5.8-7.2-6-8-8.4-10c-1.4-1.2-2.8-2.4-4.9-3.4C468.8,77.8,465.9,76.4,462.1,76.6L462.1,76.6L462.1,76.6
		L462.1,76.6z"/>
	<path class="st6" d="M462.4,79c-1.1,0.1-2.3,0.1-3.7,0.8c-1.5,0.8-2.4,2.1-3.2,3.1c-0.7,0.9-0.6,1-1.7,2.8
		c-0.9,1.5-1.5,2.3-2.3,3.2c-1,1.2-2,1.9-3.9,3.4c-2,1.6-2.1,1.4-2.8,2.1c-1.4,1.6-2.6,4-2.9,5.1c-0.2,1.1-0.6,3.2,0.3,5.6
		c0.4,1.1,1.1,3.1,3,3.9c0.7,0.4,2.4-0.1,4.1-0.3c3-0.2,5-0.7,6.8-1.1c2-0.5,4.3-0.9,7-1c3.2-0.1,6.1,0.5,7.7,0.7
		c1.8,0.4,3.1,0.7,5.5,0.9c2,0.2,4.6,1,5.7,0.7c0.7-0.2,2-0.7,3-1.9s0.7-3.8,0.8-5.3c0.1-0.9-0.7-3-2.3-5.7c-0.7-1.3-1.1-1.8-2.9-4
		c-4.9-6.2-5.2-6.9-7.2-8.6c-1.2-1-2.4-2.1-4.3-3C468.2,80,465.6,78.8,462.4,79L462.4,79L462.4,79z"/>
</g>
<g id="animal-2">
	<rect x="301.1" y="250.2" class="st1" width="116.1" height="116.1"/>
	
		<linearGradient id="SVGID_00000147943007911692477090000001567438069595690373_" gradientUnits="userSpaceOnUse" x1="-1208.1598" y1="2559.115" x2="-1130.7853" y2="2481.7505" gradientTransform="matrix(0.7071 -0.7071 0.7071 0.7071 -596.0881 -2300.8821)">
		<stop  offset="0" style="stop-color:#1F4D23"/>
		<stop  offset="0.43" style="stop-color:#4D7131"/>
		<stop  offset="1" style="stop-color:#99AC44"/>
	</linearGradient>
	
		<rect x="304.5" y="253.6" style="fill:url(#SVGID_00000147943007911692477090000001567438069595690373_);" width="109.4" height="109.4"/>
	
		<radialGradient id="SVGID_00000106129775786005649100000006182792247421930399_" cx="359.19" cy="562.17" r="49.4" gradientTransform="matrix(1 0 0 -1 0 382)" gradientUnits="userSpaceOnUse">
		<stop  offset="0.25" style="stop-color:#99AC44"/>
		<stop  offset="1" style="stop-color:#3E7C31"/>
	</radialGradient>
	
		<rect x="309.8" y="258.9" style="fill:url(#SVGID_00000106129775786005649100000006182792247421930399_);" width="98.8" height="98.8"/>
	<path id="darker-2" class="st4" d="M413.9,363H304.5v-60c0,0,34.5,5.3,54.7,5.3s54.8-5.3,54.8-5.3V363L413.9,363z"/>
	<path class="st5" d="M347.6,280.5c-0.3,0-3,0.4-4.6,2.6c-0.6,0.8-0.9,1.8-1.1,2.8c-0.4,2-1.1,5.8,0.4,10.3c0.7,2.1,1.6,4.8,4,6.5
		c0.7,0.6,2.2,1.6,4.2,1.4c2.1-0.2,3.5-1.8,3.9-2.3c1.9-2.1,1.9-4.7,2-7.4c0-1.3,0-5.3-2-9.5c-1.4-2.8-2.6-3.5-3.2-3.8
		C349.6,280.2,348,280.4,347.6,280.5L347.6,280.5L347.6,280.5z"/>
	<path class="st5" d="M373.3,278.9c-0.3-0.1-2.9-0.6-5.1,0.8c-0.8,0.6-1.5,1.3-2,2.2c-1.1,1.8-3.1,4.9-3.2,9.8
		c-0.1,2.3-0.2,5,1.5,7.5c0.6,0.7,1.6,2.2,3.5,2.7c2,0.6,3.9-0.5,4.5-0.8c2.4-1.4,3.5-3.7,4.5-6.2c0.5-1.2,1.9-4.9,1.4-9.6
		c-0.3-3.1-1.2-4.2-1.7-4.7C375.3,279.5,373.8,279.1,373.3,278.9L373.3,278.9L373.3,278.9z"/>
	<path class="st5" d="M330.2,295.4c-0.3,0.1-2.9,0.6-4.3,3c-0.6,0.9-0.7,1.8-0.8,2.9c-0.2,2-0.6,5.8,1.3,10.2c0.9,2,2,4.6,4.7,6.1
		c0.8,0.5,2.4,1.3,4.3,0.9c2.1-0.4,3.2-2,3.7-2.7c1.6-2.3,1.5-4.8,1.3-7.5c-0.1-1.3-0.5-5.2-3-9.2c-1.6-2.6-2.9-3.2-3.5-3.5
		C332.2,295,330.8,295.3,330.2,295.4L330.2,295.4L330.2,295.4z"/>
	<path class="st5" d="M388.9,293.1c-0.3-0.1-2.9-0.6-5.1,0.9c-0.8,0.6-1.4,1.4-2,2.3c-1,1.9-3,5-3,9.9c0,2.3-0.1,5,1.7,7.5
		c0.6,0.7,1.7,2.2,3.5,2.6c2,0.5,3.8-0.6,4.5-0.9c2.4-1.4,3.4-3.8,4.3-6.3c0.5-1.2,1.8-4.9,1.1-9.6c-0.4-3.1-1.3-4.2-1.8-4.7
		C390.8,293.6,389.3,293.2,388.9,293.1L388.9,293.1L388.9,293.1L388.9,293.1z"/>
	<path class="st6" d="M388.2,296.1c-0.2,0-2.1-0.5-3.8,0.7c-0.6,0.5-1,1-1.5,1.7c-0.7,1.4-2.1,3.7-2.2,7.4c0,1.7-0.1,3.7,1.3,5.6
		c0.4,0.6,1.2,1.7,2.6,2c1.6,0.4,2.9-0.5,3.4-0.6c1.8-1.1,2.4-2.8,3.2-4.8c0.4-0.9,1.3-3.7,0.8-7.2c-0.3-2.2-1-3.1-1.3-3.5
		C389.7,296.4,388.6,296.1,388.2,296.1L388.2,296.1L388.2,296.1L388.2,296.1z"/>
	<path class="st6" d="M372.5,282c-0.2-0.1-2.1-0.5-3.8,0.6c-0.6,0.5-1,0.9-1.5,1.7c-0.8,1.3-2.2,3.6-2.4,7.3
		c-0.1,1.7-0.2,3.7,1.1,5.6c0.4,0.6,1.1,1.7,2.5,2c1.6,0.4,2.9-0.4,3.4-0.6c1.8-1,2.5-2.7,3.2-4.6c0.4-0.9,1.4-3.6,1-7.1
		c-0.3-2.2-0.9-3.1-1.2-3.5C373.9,282.3,372.9,282,372.5,282L372.5,282L372.5,282L372.5,282z"/>
	<path class="st6" d="M348,283.5c-0.2,0-2.1,0.3-3.4,1.9c-0.5,0.6-0.6,1.3-0.8,2c-0.3,1.5-0.8,4.2,0.3,7.6c0.6,1.6,1.1,3.5,3,4.8
		c0.6,0.4,1.7,1.1,3.1,1c1.6-0.2,2.5-1.3,2.9-1.7c1.3-1.6,1.4-3.5,1.5-5.4c0-0.9,0-3.9-1.6-7c-1-2-2-2.6-2.3-2.8
		C349.4,283.4,348.3,283.5,348,283.5L348,283.5L348,283.5z"/>
	<path class="st6" d="M330.8,298.1c-0.2,0-2.2,0.5-3.2,2.3c-0.5,0.7-0.6,1.4-0.6,2.2c-0.2,1.6-0.5,4.5,1,7.8
		c0.6,1.6,1.5,3.5,3.5,4.7c0.6,0.4,1.9,1,3.2,0.7c1.6-0.3,2.5-1.6,2.8-2c1.2-1.8,1.1-3.7,1-5.8c-0.1-1-0.4-4-2.2-7.1
		c-1.2-2-2.2-2.5-2.7-2.7C332.3,297.8,331.1,298.1,330.8,298.1L330.8,298.1L330.8,298.1L330.8,298.1z"/>
	<path class="st5" d="M360,303c-1.3,0.1-2.7,0.1-4.3,0.9c-1.8,0.9-2.8,2.3-3.7,3.5c-0.8,1.1-0.7,1.2-2,3.2c-1.1,1.7-1.7,2.7-2.7,3.8
		c-1.2,1.4-2.4,2.2-4.6,3.9c-2.3,1.8-2.5,1.7-3.2,2.4c-1.6,1.9-2,3.9-2.2,5.3c-0.2,1.3-0.6,3.7,0.4,6.5c0.5,1.2,1.3,3.5,3.5,4.6
		c0.8,0.4,1.7,0.5,3.7,0.4c3.5-0.2,5.8-0.8,7.8-1.3c2.4-0.6,4.9-1.1,8.1-1.2c3.8-0.1,7.2,0.6,8.9,0.8c2,0.4,3.5,0.8,6.4,1.1
		c2.4,0.3,3.6,0.2,5-0.3c0.8-0.3,2.3-0.7,3.5-2c1.2-1.5,1.3-3.1,1.3-4.8c0.1-1.1,0.1-3.8-1.5-7c-0.6-1.4-1.2-2-3.4-4.7
		c-5.8-7.2-6-8-8.4-10c-1.4-1.2-2.8-2.4-4.9-3.5C366.7,304.2,363.8,302.8,360,303L360,303L360,303L360,303z"/>
	<path class="st6" d="M360.3,305.4c-1.1,0.1-2.3,0.1-3.7,0.8c-1.5,0.8-2.4,2-3.2,3.1c-0.7,0.9-0.6,1-1.7,2.8
		c-0.9,1.5-1.5,2.3-2.3,3.2c-1,1.2-2,2-3.9,3.4c-2,1.6-2.1,1.4-2.8,2.1c-1.4,1.6-2.6,4-2.9,5.1c-0.2,1.1-0.6,3.2,0.3,5.6
		c0.4,1.1,1.1,3.1,3,3.9c0.7,0.4,2.4-0.1,4.1-0.3c3-0.2,5-0.7,6.8-1.1c2-0.5,4.3-0.9,7-1c3.2-0.1,6.1,0.5,7.7,0.7
		c1.8,0.4,3.1,0.7,5.5,0.9c2,0.2,4.6,1,5.7,0.6c0.7-0.2,2-0.7,3-2s0.7-3.8,0.8-5.3c0.1-0.9-0.7-3-2.3-5.7c-0.7-1.3-1.1-1.8-2.9-4
		c-4.9-6.1-5.2-6.9-7.2-8.6c-1.2-1-2.4-2-4.3-3C366.1,306.5,363.5,305.2,360.3,305.4L360.3,305.4L360.3,305.4z"/>
</g>
<g id="cityAny">
	<polygon class="st1" points="333.8,122.5 333.8,47.7 269,10.3 204.1,47.7 204.1,122.5 269,160 	"/>
	
		<linearGradient id="SVGID_00000014599536332162947150000010762666384073552776_" gradientUnits="userSpaceOnUse" x1="268.95" y1="-27.0498" x2="268.95" y2="118.0635" gradientTransform="matrix(1 0 0 -1 0 130.55)">
		<stop  offset="0" style="stop-color:#030404"/>
		<stop  offset="1" style="stop-color:#FFFFFF"/>
	</linearGradient>
	<polygon style="fill:url(#SVGID_00000014599536332162947150000010762666384073552776_);" points="331.7,121.3 331.7,48.8 269,12.5 
		206.2,48.8 206.2,121.3 269,157.6 	"/>
	
		<radialGradient id="SVGID_00000092450507955204154920000005643266088338534063_" cx="269.0031" cy="45.4537" r="63.3106" gradientTransform="matrix(1 0 0 -1 0 130.55)" gradientUnits="userSpaceOnUse">
		<stop  offset="0" style="stop-color:#CCC9C9"/>
		<stop  offset="1" style="stop-color:#757474"/>
	</radialGradient>
	<polygon style="fill:url(#SVGID_00000092450507955204154920000005643266088338534063_);" points="327.6,118.9 327.6,51.2 269,17.4 
		210.4,51.2 210.4,118.9 269,152.8 	"/>
	<path class="st11" d="M333.3,120.4V73.7l0,0c-42.9,6.4-85.9,6.4-128.9,0l0,0v46.8l64.4,37.2L333.3,120.4
		C333.3,120.4,333.3,120.4,333.3,120.4z"/>
	<g id="city-logo">
		<path class="st12" d="M224,93.3c0-24,20.1-43.3,44.8-43.3"/>
		<path class="st12" d="M313.5,93.3c0-24-20.2-43.3-45.2-43.3"/>
		<rect x="223.3" y="90.5" class="st1" width="91" height="5.7"/>
		<rect x="228" y="85.2" class="st1" width="2.7" height="5.4"/>
		<rect x="229.4" y="81" class="st1" width="1.3" height="4.3"/>
		<rect x="233.6" y="84.6" class="st1" width="4.9" height="5.9"/>
		<rect x="233.6" y="77.7" class="st1" width="2.5" height="7"/>
		<rect x="240.1" y="83" class="st1" width="2.1" height="7.4"/>
		<rect x="242.2" y="68.2" class="st1" width="2.4" height="22.3"/>
		<rect x="243.5" y="65.8" class="st1" width="1.1" height="2.4"/>
		<rect x="244.6" y="85.2" class="st1" width="3.9" height="5.4"/>
		<rect x="247.7" y="82.6" class="st1" width="0.8" height="2.7"/>
		<rect x="248.5" y="62.8" class="st1" width="3.1" height="27.8"/>
		<rect x="251.6" y="67.8" class="st1" width="1.6" height="22.8"/>
		<rect x="253.3" y="75.8" class="st1" width="3.3" height="14.6"/>
		<rect x="256.6" y="78.9" class="st1" width="2.1" height="11.8"/>
		<rect x="260.5" y="71.7" class="st1" width="4.3" height="18.9"/>
		<rect x="264.9" y="79.1" class="st1" width="2.2" height="11.3"/>
		<rect x="267.1" y="58.1" class="st1" width="5.4" height="32.4"/>
		<rect x="275" y="65.3" class="st1" width="2.7" height="25.2"/>
		<rect x="280.6" y="70.5" class="st1" width="3" height="20"/>
		<rect x="277.6" y="83.8" class="st1" width="3" height="6.6"/>
		<rect x="283.6" y="86.8" class="st1" width="2.2" height="3.8"/>
		<rect x="288.4" y="84.9" class="st1" width="1.9" height="5.6"/>
		<rect x="290.3" y="75.8" class="st1" width="3.4" height="14.6"/>
		<rect x="293.5" y="69.1" class="st1" width="2.5" height="21.4"/>
		<rect x="296.1" y="84.1" class="st1" width="2.1" height="6.4"/>
		<rect x="299.2" y="80.2" class="st1" width="2.6" height="10.3"/>
		<rect x="301.9" y="79.1" class="st1" width="2.9" height="11.3"/>
		<rect x="306.7" y="85.4" class="st1" width="1.3" height="5.3"/>
		<rect x="308.1" y="88.1" class="st1" width="2.5" height="2.6"/>
	</g>
</g>
</svg>
