<?xml version="1.0" encoding="utf-8"?>
<!-- Generator: Adobe Illustrator 27.5.0, SVG Export Plug-In . SVG Version: 6.00 Build 0)  -->
<svg version="1.1" id="Layer" xmlns="http://www.w3.org/2000/svg" xmlns:xlink="http://www.w3.org/1999/xlink" x="0px" y="0px"
	 viewBox="0 0 721 379.9" style="enable-background:new 0 0 721 379.9;" xml:space="preserve">
<style type="text/css">
	.st0{fill:none;}
	.st1{fill:#1F1F1E;}
	.st2{fill:#FFFFFF;fill-opacity:0;}
	.st3{fill:#020303;stroke:#030404;stroke-width:1.89;stroke-miterlimit:10;}
	.st4{fill:url(#obram_zolte_00000038381884343721429750000012680919695175915153_);}
	.st5{fill:url(#tlo_wew_00000080893802532997629490000005796608969854975919_);}
	.st6{fill:url(#obram_skosne_00000086693937966608725620000015604948234746766978_);}
	.st7{fill:url(#tlo_zew_00000106132097128220611330000003111866724766145184_);}
	.st8{fill:#010202;}
	.st9{fill:#030304;}
	.st10{fill:url(#SVGID_1_);}
	.st11{fill:#6A6A69;}
	.st12{fill:url(#ciemniej_00000069397783203105781650000004195024255319708068_);}
	.st13{fill:#F4E956;}
	.st14{fill:url(#external-border_00000134931293065883229050000015941940657119663517_);}
	.st15{fill:url(#internal-border_00000150092931391801585900000014763929363834045085_);}
	.st16{fill:url(#bg_00000124146183977135850960000015299502865934473093_);}
	.st17{opacity:0.1;fill:url(#bgPattern_00000098915444942578785840000006974915240762483097_);enable-background:new    ;}
	.st18{fill:url(#SVGID_00000054953391688189923400000008359814625774666126_);}
	.st19{fill:#7F358B;}
	.st20{fill:#FFFFFF;stroke:#030304;stroke-width:0.92;stroke-miterlimit:10;}
	.st21{opacity:0.15;fill:#030304;enable-background:new    ;}
</style>
<pattern  y="379.9" width="19.7" height="21.7" patternUnits="userSpaceOnUse" id="Nowy_wzorek_4" viewBox="0 -21.7 19.7 21.7" style="overflow:visible;">
	<g>
		<rect y="-21.7" class="st0" width="19.7" height="21.7"/>
		<g>
			<rect y="-21.7" class="st0" width="19.7" height="21.7"/>
			<g>
				<rect y="-21.7" class="st0" width="19.7" height="21.7"/>
				<g>
					<rect y="-21.7" class="st0" width="19.7" height="21.7"/>
					<g>
						<rect y="-21.7" class="st0" width="19.7" height="21.7"/>
						<g>
							<rect y="-21.7" class="st0" width="19.7" height="21.7"/>
							<path class="st1" d="M16.6-8.7c2.1-2.1,2.1-5.6,0-7.7l-1.2-1.2c-2.1-2.1-5.6-2.1-7.8,0L3.1-13C1-10.9,1-7.4,3.1-5.3l1.2,1.2
								C6.4-2,9.9-2,12-4.1C12-4.1,16.6-8.7,16.6-8.7z"/>
						</g>
					</g>
				</g>
			</g>
		</g>
	</g>
</pattern>
<rect x="0.5" y="0.5" class="st2" width="720" height="378.9"/>
<g id="mln">
	<polygon id="obram_czarne" class="st3" points="413,26.3 395.6,43.8 395.6,124.2 413,141.7 493.4,141.7 510.7,124.2 510.7,43.8 
		493.4,26.3 	"/>
	
		<linearGradient id="obram_zolte_00000150064685657334169520000015596387839656057271_" gradientUnits="userSpaceOnUse" x1="453.21" y1="871.73" x2="453.21" y2="763.03" gradientTransform="matrix(1 0 0 1 0 -733.36)">
		<stop  offset="0.16" style="stop-color:#823B14"/>
		<stop  offset="0.18" style="stop-color:#995D1A"/>
		<stop  offset="0.22" style="stop-color:#AE7D22"/>
		<stop  offset="0.26" style="stop-color:#C39D25"/>
		<stop  offset="0.3" style="stop-color:#D6B92E"/>
		<stop  offset="0.35" style="stop-color:#E4CF36"/>
		<stop  offset="0.41" style="stop-color:#EFE036"/>
		<stop  offset="0.48" style="stop-color:#F5E94D"/>
		<stop  offset="0.58" style="stop-color:#F8EB53"/>
		<stop  offset="0.86" style="stop-color:#F5EA52"/>
		<stop  offset="1" style="stop-color:#FCF4F9"/>
	</linearGradient>
	<polygon id="obram_zolte" style="fill:url(#obram_zolte_00000150064685657334169520000015596387839656057271_);" points="
		415.2,29.7 398.9,46.1 398.9,121.9 415.2,138.4 491.1,138.4 507.5,121.9 507.5,46.1 491.1,29.7 	"/>
	
		<linearGradient id="tlo_wew_00000044166626664660971360000010125225713208856448_" gradientUnits="userSpaceOnUse" x1="453.205" y1="757.3" x2="453.205" y2="923.38" gradientTransform="matrix(1 0 0 1 0 -733.36)">
		<stop  offset="0.26" style="stop-color:#F5EA52"/>
		<stop  offset="0.86" style="stop-color:#813A14"/>
	</linearGradient>
	<polygon id="tlo_wew" style="fill:url(#tlo_wew_00000044166626664660971360000010125225713208856448_);" points="416.4,31.3 
		400.4,47.3 400.4,120.9 416.4,136.8 490,136.8 506,120.9 506,47.3 490,31.3 	"/>
	
		<linearGradient id="obram_skosne_00000005244295303911185960000015054940963155186079_" gradientUnits="userSpaceOnUse" x1="453.27" y1="870.22" x2="453.27" y2="764.65" gradientTransform="matrix(1 0 0 1 0 -733.36)">
		<stop  offset="0.16" style="stop-color:#813A14"/>
		<stop  offset="0.17" style="stop-color:#8D481F"/>
		<stop  offset="0.18" style="stop-color:#A36C3D"/>
		<stop  offset="0.2" style="stop-color:#B78954"/>
		<stop  offset="0.22" style="stop-color:#C7A468"/>
		<stop  offset="0.24" style="stop-color:#D7BB7A"/>
		<stop  offset="0.26" style="stop-color:#E2CC88"/>
		<stop  offset="0.3" style="stop-color:#EAD891"/>
		<stop  offset="0.34" style="stop-color:#EEDE97"/>
		<stop  offset="0.46" style="stop-color:#EFE097"/>
		<stop  offset="0.7" style="stop-color:#813A14"/>
		<stop  offset="0.73" style="stop-color:#E6D234"/>
		<stop  offset="0.74" style="stop-color:#EBDA49"/>
		<stop  offset="0.75" style="stop-color:#EEDE6D"/>
		<stop  offset="0.77" style="stop-color:#F0E18A"/>
		<stop  offset="0.79" style="stop-color:#F8EBAB"/>
		<stop  offset="0.8" style="stop-color:#F8EDBF"/>
		<stop  offset="0.83" style="stop-color:#FAF0CF"/>
		<stop  offset="0.85" style="stop-color:#FCF2DA"/>
		<stop  offset="0.89" style="stop-color:#FDF4E1"/>
		<stop  offset="0.99" style="stop-color:#FDF5E3"/>
	</linearGradient>
	<path id="obram_skosne" style="fill:url(#obram_skosne_00000005244295303911185960000015054940963155186079_);" d="M498.4,104.4
		c-2.9,0-5.3-2.4-5.3-5.3V69.1c0-2.9,2.4-5.3,5.3-5.3h7.5V47.3l-15.9-16h-16.5v7.5c0,2.9-2.4,5.3-5.3,5.3h-30.1
		c-2.9,0-5.3-2.4-5.3-5.3v-7.5h-16.4l-16,16v16.5h7.5c2.9,0,5.3,2.4,5.3,5.3v30.1c0,2.9-2.4,5.3-5.3,5.3h-7.5v16.4l16,16H433v-7.5
		c0-2.9,2.4-5.3,5.3-5.3h30.1c2.9,0,5.3,2.4,5.3,5.3v7.5h16.5l16-16v-16.4L498.4,104.4L498.4,104.4z"/>
	
		<linearGradient id="tlo_zew_00000155844726271661459840000016873735937643986843_" gradientUnits="userSpaceOnUse" x1="453.2" y1="780.15" x2="453.2" y2="943.07" gradientTransform="matrix(1 0 0 1 0 -733.36)">
		<stop  offset="0.26" style="stop-color:#F5EA52"/>
		<stop  offset="0.77" style="stop-color:#813A14"/>
	</linearGradient>
	<path id="tlo_zew" style="fill:url(#tlo_zew_00000155844726271661459840000016873735937643986843_);" d="M498,106.2
		c-3.5,0-6.5-3.5-6.5-7.2V69.1c0-3.5,2.9-7.2,6.5-7.2h6.1V48.5l-15.5-15.4h-13.3v6.1c0,3.7-3.5,6.5-7.2,6.5h-30
		c-3.5,0-7.2-2.9-7.2-6.5v-6.1h-13.5l-15.2,15.4v13.4h6.1c3.5,0,6.5,3.5,6.5,7.2v30c0,3.5-2.9,7.2-6.5,7.2h-6.1v13.4l15.4,15.4H431
		v-6.1c0-3.5,3.5-6.6,7.2-6.6h29.9c3.5,0,7.2,2.9,7.2,6.6v6.1h13.4l15.4-15.4v-13.5L498,106.2L498,106.2z"/>
</g>
<path class="st8" d="M426.1,89.6v-6.1h14.7v6.1H426.1z"/>
<path class="st8" d="M443.7,111.6v-8.7c3.3-4.4,6.4-8.1,9.6-10.7l4.5-4c3.2-2.8,5.9-5.6,8-8.4s3.1-5.7,3.1-8.7
	c0-2.7-0.9-4.8-2.7-6.3s-4.2-2.3-7.2-2.3c-4,0-8.6,1.4-14,4.1v-8.1c5.6-2,11-3.1,16.1-3.1c5.7,0,10.4,1.4,14,4.1s5.3,6.4,5.3,11.1
	c0,2.9-0.8,5.7-2.3,8.3s-4.6,5.8-9.3,9.6l-3.8,3c-1.6,1.3-3.4,3-5.4,5.1s-3.2,4.2-3.8,6.6H480v8.7L443.7,111.6L443.7,111.6
	L443.7,111.6z"/>
<path d="M348.8,75V63.1h12v12h-12V75z M348.8,107.7v-12h12v12H348.8z"/>
<g id="tagSpace">
	<path class="st9" d="M326.6,84.1c0,32-26,58.1-58.1,58.1s-58.1-26-58.1-58.1s26-58.1,58.1-58.1S326.6,52,326.6,84.1
		C326.6,84.1,326.6,84.1,326.6,84.1z"/>
	
		<linearGradient id="SVGID_1_" gradientUnits="userSpaceOnUse" x1="268.67" y1="-38.02" x2="268.67" y2="69.71" gradientTransform="matrix(1 0 0 -1 0 99.82)">
		<stop  offset="0" style="stop-color:#030304"/>
		<stop  offset="7.000000e-02" style="stop-color:#030404"/>
		<stop  offset="0.11" style="stop-color:#070909"/>
		<stop  offset="0.14" style="stop-color:#0F1113"/>
		<stop  offset="0.16" style="stop-color:#1D1F21"/>
		<stop  offset="0.19" style="stop-color:#2D2D2F"/>
		<stop  offset="0.21" style="stop-color:#3F3E3C"/>
		<stop  offset="0.4" style="stop-color:#595756"/>
		<stop  offset="0.67" style="stop-color:#7B7A7A"/>
		<stop  offset="0.88" style="stop-color:#929292"/>
		<stop  offset="1" style="stop-color:#9F9D9C"/>
	</linearGradient>
	<path class="st10" d="M322.4,84.1c0,29.7-24.1,53.7-53.7,53.7s-53.8-24.1-53.8-53.8s24.1-53.9,53.7-53.9
		C298.3,30.2,322.4,54.3,322.4,84.1L322.4,84.1L322.4,84.1z"/>
	<path class="st11" d="M317.2,84.1c0,26.8-21.7,48.7-48.7,48.7S220,111,220,84.1s21.7-48.7,48.7-48.7S317.2,57.2,317.2,84.1
		L317.2,84.1L317.2,84.1z"/>
	
		<linearGradient id="ciemniej_00000173119273340664642850000013852502129005676446_" gradientUnits="userSpaceOnUse" x1="268.56" y1="-38.03" x2="268.56" y2="20.83" gradientTransform="matrix(1 0 0 -1 0 99.82)">
		<stop  offset="0" style="stop-color:#070808"/>
		<stop  offset="1" style="stop-color:#292A29"/>
	</linearGradient>
	<path id="ciemniej" style="fill:url(#ciemniej_00000173119273340664642850000013852502129005676446_);" d="M322.4,84.1
		c0-1.1,0-2.2-0.1-3.2c-10.9,3-29.5,6.9-53.7,6.9S226.4,83,215,79.1c-0.2,1.7-0.3,3.3-0.3,5.1c0,29.7,24.1,53.8,53.7,53.8
		S322.4,113.8,322.4,84.1C322.4,84.1,322.4,84.1,322.4,84.1z"/>
	<g id="gwiazda">
		<circle class="st13" cx="268.5" cy="84.1" r="8"/>
		<path class="st13" d="M278.6,79.1l17.5-22.5l-22.5,17.5C275.7,75.1,277.5,76.8,278.6,79.1L278.6,79.1z"/>
		<path class="st13" d="M263.6,74l-22.4-17.5L258.6,79C259.6,76.9,261.4,75.1,263.6,74L263.6,74z"/>
		<path class="st13" d="M307.4,84.1l-28.2-3.5c0.3,1.1,0.5,2.4,0.5,3.5s-0.2,2.5-0.5,3.5L307.4,84.1z"/>
		<path class="st13" d="M272.2,73.5l-3.5-28.2l-3.5,28.2c1.1-0.3,2.4-0.5,3.5-0.5C269.9,72.8,271,73.2,272.2,73.5z"/>
		<path class="st13" d="M273.6,94l22.5,17.5l-17.5-22.4C277.5,91.2,275.8,92.9,273.6,94C273.6,94,273.6,94,273.6,94z"/>
		<path class="st13" d="M257.5,84.1c0-1.2,0.2-2.5,0.5-3.5l-28.2,3.5l28.2,3.5C257.7,86.5,257.5,85.3,257.5,84.1z"/>
		<path class="st13" d="M265,94.7l3.5,28.2l3.5-28.2c-1.1,0.3-2.4,0.5-3.5,0.5S266.2,95.1,265,94.7z"/>
		<path class="st13" d="M258.6,89.1l-17.5,22.5L263.6,94C261.4,93,259.7,91.2,258.6,89.1L258.6,89.1z"/>
	</g>
</g>
<g id="prodBg">
	
		<linearGradient id="external-border_00000133501118210587748380000017581802354029898928_" gradientUnits="userSpaceOnUse" x1="459.395" y1="-246.925" x2="258.195" y2="-45.725" gradientTransform="matrix(1 0 0 -1 0 129.36)">
		<stop  offset="0" style="stop-color:#9E9D9C"/>
		<stop  offset="0.54" style="stop-color:#010202"/>
		<stop  offset="1" style="stop-color:#9E9D9C"/>
	</linearGradient>
	
		<rect id="external-border" x="244.6" y="188.7" style="fill:url(#external-border_00000133501118210587748380000017581802354029898928_);" width="228.4" height="174.1"/>
	
		<linearGradient id="internal-border_00000033369799732180559510000009499933033393868453_" gradientUnits="userSpaceOnUse" x1="358.855" y1="-228.77" x2="358.855" y2="-63.89" gradientTransform="matrix(1 0 0 -1 0 129.36)">
		<stop  offset="0" style="stop-color:#462C1B"/>
		<stop  offset="1" style="stop-color:#B18048"/>
	</linearGradient>
	
		<rect id="internal-border" x="249.2" y="193.2" style="fill:url(#internal-border_00000033369799732180559510000009499933033393868453_);" width="219.3" height="164.9"/>
	
		<linearGradient id="bg_00000170275047870464018340000014228233479946428593_" gradientUnits="userSpaceOnUse" x1="358.775" y1="-224.6" x2="358.775" y2="-67.92" gradientTransform="matrix(1 0 0 -1 0 129.36)">
		<stop  offset="0" style="stop-color:#946137"/>
		<stop  offset="1" style="stop-color:#805127"/>
	</linearGradient>
	
		<rect id="bg" x="253.2" y="197.3" style="fill:url(#bg_00000170275047870464018340000014228233479946428593_);" width="211.1" height="156.7"/>
	
		<pattern  id="bgPattern_00000018213517917803878360000000996340814823532431_" xlink:href="#Nowy_wzorek_4" patternTransform="matrix(1 0 0 -1 51.9 -32372.8906)">
	</pattern>
	
		<rect id="bgPattern" x="253.2" y="197.3" style="opacity:0.1;fill:url(#bgPattern_00000018213517917803878360000000996340814823532431_);enable-background:new    ;" width="211.1" height="156.7"/>
</g>
<g id="energy">
	<rect x="327.5" y="217.4" class="st9" width="115.4" height="115.4"/>
	
		<linearGradient id="SVGID_00000122714864397219938210000005779169367860250279_" gradientUnits="userSpaceOnUse" x1="-1000.2938" y1="-1332.5634" x2="-923.3676" y2="-1255.6172" gradientTransform="matrix(0.7071 -0.7071 -0.7071 -0.7071 150.322 -1320.0919)">
		<stop  offset="0" style="stop-color:#1D1427"/>
		<stop  offset="0.24" style="stop-color:#372348"/>
		<stop  offset="0.49" style="stop-color:#573B6C"/>
		<stop  offset="0.71" style="stop-color:#72508C"/>
		<stop  offset="0.89" style="stop-color:#835CA0"/>
		<stop  offset="1" style="stop-color:#8963A7"/>
	</linearGradient>
	
		<rect x="330.9" y="220.7" style="fill:url(#SVGID_00000122714864397219938210000005779169367860250279_);" width="108.8" height="108.8"/>
	<polygon class="st19" points="434.4,226 434.4,324.2 336.1,324.2 336.1,226 	"/>
	<polygon class="st20" points="373.3,263.8 405.7,243.8 388.4,268.8 397.5,283.8 365.7,303.8 381.7,278.8 	"/>
	<path id="darker" class="st21" d="M439.7,329.5H330.9v-59.6c0,0,34.2,5.3,54.3,5.3s54.4-5.3,54.4-5.3L439.7,329.5L439.7,329.5z"/>
</g>
<path d="M283.6,275c1.3-1.5,2.5-2.7,3.7-3.4c1.2-0.7,2.5-1.3,4-1.7s3-0.6,4.5-0.6c2.8,0,5.4,0.7,7.9,2s4.4,3.2,5.7,5.6
	c1.4,2.4,2,5.1,2,8.1c0,3.2-0.8,6.2-2.3,9c-1.5,2.8-3.6,5-6.2,6.6s-5.9,2.4-9.8,2.4c-6.8,0-11.8-2.4-15.1-7.2s-4.9-10.9-4.9-18.1
	c0-5.2,0.9-10,2.6-14.2s4.2-7.6,7.4-10s7.5-3.5,13-3.5c1.7,0,3.4,0.1,5,0.3c1.6,0.2,4.2,0.7,7.7,1.6v7.4c-4.6-1.9-8.8-2.9-12.4-2.9
	c-2.7,0-4.9,0.7-6.7,2s-3.3,3.5-4.4,6.3C284.2,267.6,283.6,271,283.6,275L283.6,275z M301.3,286.5c0-3.5-0.8-6.2-2.4-8.1
	c-1.6-1.9-3.6-2.9-6-2.9c-2.3,0-4.3,0.9-6.1,2.6s-2.7,4-2.7,6.9s0.7,5.7,2.2,8.1s3.7,3.7,6.8,3.7c2.4,0,4.4-0.9,5.9-2.7
	C300.5,292.3,301.3,289.8,301.3,286.5L301.3,286.5z"/>
</svg>
