<?xml version="1.0" encoding="utf-8"?>
<!-- Generator: Adobe Illustrator 26.3.1, SVG Export Plug-In . SVG Version: 6.00 Build 0)  -->
<svg version="1.1" id="Layer_1" xmlns="http://www.w3.org/2000/svg" xmlns:xlink="http://www.w3.org/1999/xlink" x="0px" y="0px"
	 viewBox="0 0 165.2 813" style="enable-background:new 0 0 165.2 813;" xml:space="preserve">
<style type="text/css">
	.st0{fill:none;}
	.st1{fill:#1F1F1D;}
	.st2{fill:#404040;}
	.st3{fill:url(#SVGID_1_);}
	.st4{fill:url(#SVGID_00000132784725552631752950000001840917818452828330_);}
	.st5{fill:#575756;}
	.st6{fill:url(#SVGID_00000027577098199311944950000014963978248861751476_);}
	.st7{fill:#2161AB;}
	.st8{fill:#010101;}
	.st9{fill:url(#SVGID_00000114778039088350917290000013930814664527623572_);}
	.st10{fill:#82A3D6;}
	.st11{fill:#114490;}
	.st12{fill:#1B2B4C;}
	.st13{fill:#93C6EC;}
	.st14{fill:#7CA5D8;}
	.st15{fill:#3D5DA7;}
	.st16{fill:url(#SVGID_00000112612438710404814300000011329884613410204064_);}
	.st17{fill:#7E7E7E;}
	.st18{fill:#808080;}
	
		.st19{fill:url(#SVGID_00000084490146364379106120000005321750798244168372_);stroke:#020303;stroke-width:0.68;stroke-miterlimit:10;}
	.st20{fill:none;stroke:#FFFFFF;stroke-width:0.68;stroke-miterlimit:10;}
	.st21{opacity:0.5;fill:url(#SVGID_00000096773995193720928390000009122066913275042983_);enable-background:new    ;}
	.st22{fill:url(#SVGID_00000008866074095904911260000016151888565281716666_);}
	.st23{fill:none;stroke:#1F1F1D;stroke-width:0.93;stroke-miterlimit:10;}
	.st24{fill:none;stroke:#1F1F1D;stroke-width:0.29;stroke-miterlimit:10;}
	
		.st25{fill:#E2131B;stroke:url(#SVGID_00000063623789934326589400000017429508697217043584_);stroke-width:0.93;stroke-miterlimit:10;}
	
		.st26{fill:#E2131B;stroke:url(#SVGID_00000121969176686363258200000007507003360266639525_);stroke-width:0.93;stroke-miterlimit:10;}
	.st27{fill:url(#SVGID_00000156559897883493678610000003094250023078596018_);}
	.st28{fill:url(#SVGID_00000172434822538323220080000016581408385896532365_);}
	
		.st29{fill:url(#SVGID_00000034050065251061332890000000700805990277517713_);stroke:#020303;stroke-width:0.68;stroke-miterlimit:10;}
	.st30{opacity:0.5;fill:url(#SVGID_00000055665067817145029200000015518661759713904293_);enable-background:new    ;}
	.st31{fill:url(#external-border_00000146488369849894307140000010602798811433593990_);}
	.st32{fill:url(#internal-border_00000134966552930970127060000010324863012845973156_);}
	.st33{fill:url(#bg_00000077301876190336906200000004169686039958960541_);}
	.st34{opacity:0.1;fill:url(#bgPattern_00000061468208440499830400000003302611355267030968_);enable-background:new    ;}
	.st35{fill:#020303;}
	.st36{fill:url(#SVGID_00000011018114282786403440000017964603383284020655_);}
	.st37{fill:#E52922;}
	.st38{opacity:5.000000e-02;fill:#020303;enable-background:new    ;}
	.st39{fill:#FFD110;}
	.st40{fill:url(#external-border-2_00000135672060301113414600000010379838871319958425_);}
	.st41{fill:url(#internal-border-2_00000037688240004068470450000017702050407231721658_);}
	.st42{fill:url(#bg-2_00000098212427234974474850000011373679523638459559_);}
	.st43{opacity:0.1;fill:url(#bgPattern-2_00000096021496650945986860000006592556580839183290_);enable-background:new    ;}
	.st44{fill:url(#SVGID_00000111152634759592376560000018357922248709902249_);}
</style>
<pattern  y="813" width="19.7" height="21.7" patternUnits="userSpaceOnUse" id="bgPattern_000000211043707808012" viewBox="0 -21.7 19.7 21.7" style="overflow:visible;">
	<g>
		<rect y="-21.7" class="st0" width="19.7" height="21.7"/>
		<g>
			<rect y="-21.7" class="st0" width="19.7" height="21.7"/>
			<g>
				<rect y="-21.7" class="st0" width="19.7" height="21.7"/>
				<g>
					<rect y="-21.7" class="st0" width="19.7" height="21.7"/>
					<g>
						<rect y="-21.7" class="st0" width="19.7" height="21.7"/>
						<g>
							<rect y="-21.7" class="st0" width="19.7" height="21.7"/>
							<g>
								<rect y="-21.7" class="st0" width="19.7" height="21.7"/>
								<g>
									<rect y="-21.7" class="st0" width="19.7" height="21.7"/>
									<g>
										<rect y="-21.7" class="st0" width="19.7" height="21.7"/>
										<g>
											<rect y="-21.7" class="st0" width="19.7" height="21.7"/>
											<g>
												<rect y="-21.7" class="st0" width="19.7" height="21.7"/>
												<path class="st1" d="M16.6-13c2.1,2.1,2.1,5.6,0,7.7l-1.2,1.2C13.3-2,9.8-2,7.6-4.1L3.1-8.7c-2.1-2.1-2.1-5.6,0-7.7
													l1.2-1.2c2.1-2.1,5.6-2.1,7.7,0L16.6-13z"/>
											</g>
										</g>
									</g>
								</g>
							</g>
						</g>
					</g>
				</g>
			</g>
		</g>
	</g>
</pattern>
<pattern  y="813" width="19.7" height="21.7" patternUnits="userSpaceOnUse" id="bgPattern-2_0000017962571381887" viewBox="0 -21.7 19.7 21.7" style="overflow:visible;">
	<g>
		<rect y="-21.7" class="st0" width="19.7" height="21.7"/>
		<g>
			<rect y="-21.7" class="st0" width="19.7" height="21.7"/>
			<g>
				<rect y="-21.7" class="st0" width="19.7" height="21.7"/>
				<g>
					<rect y="-21.7" class="st0" width="19.7" height="21.7"/>
					<g>
						<rect y="-21.7" class="st0" width="19.7" height="21.7"/>
						<g>
							<rect y="-21.7" class="st0" width="19.7" height="21.7"/>
							<g>
								<rect y="-21.7" class="st0" width="19.7" height="21.7"/>
								<g>
									<rect y="-21.7" class="st0" width="19.7" height="21.7"/>
									<g>
										<rect y="-21.7" class="st0" width="19.7" height="21.7"/>
										<g>
											<rect y="-21.7" class="st0" width="19.7" height="21.7"/>
											<g>
												<rect y="-21.7" class="st0" width="19.7" height="21.7"/>
												<path class="st1" d="M16.6-13c2.1,2.1,2.1,5.6,0,7.7l-1.2,1.2C13.3-2,9.8-2,7.6-4.1L3.1-8.7c-2.1-2.1-2.1-5.6,0-7.7
													l1.2-1.2c2.1-2.1,5.6-2.1,7.7,0L16.6-13z"/>
											</g>
										</g>
									</g>
								</g>
							</g>
						</g>
					</g>
				</g>
			</g>
		</g>
	</g>
</pattern>
<rect x="10.7" y="360.1" class="st2" width="9.9" height="6.3"/>
<rect x="125.2" y="544.6" class="st2" width="12.6" height="6.3"/>
<rect x="126.3" y="497.6" class="st2" width="11.9" height="6.3"/>
<rect x="125.7" y="258.8" class="st2" width="15.3" height="6.3"/>
<linearGradient id="SVGID_1_" gradientUnits="userSpaceOnUse" x1="72.8" y1="567.39" x2="72.8" y2="1380.39" gradientTransform="matrix(1 0 0 -1 0 1380.39)">
	<stop  offset="0" style="stop-color:#2061AB"/>
	<stop  offset="0.23" style="stop-color:#404040"/>
	<stop  offset="0.35" style="stop-color:#404040"/>
	<stop  offset="1" style="stop-color:#404040"/>
</linearGradient>
<path class="st3" d="M72.8,0L72.8,0c30.4,0,55,24.6,55,55v703c0,30.4-24.6,55-55,55l0,0c-30.4,0-55-24.6-55-55V55
	C17.8,24.6,42.4,0,72.8,0z"/>
<linearGradient id="SVGID_00000072240882332043618070000008729837483757829820_" gradientUnits="userSpaceOnUse" x1="106.7411" y1="1291.4489" x2="38.8589" y2="1359.3312" gradientTransform="matrix(1 0 0 -1 0 1380.39)">
	<stop  offset="0" style="stop-color:#FFFFFF"/>
	<stop  offset="5.000000e-02" style="stop-color:#F9F9F9"/>
	<stop  offset="0.12" style="stop-color:#E8E8E8"/>
	<stop  offset="0.2" style="stop-color:#CCCCCC"/>
	<stop  offset="0.28" style="stop-color:#A5A5A5"/>
	<stop  offset="0.37" style="stop-color:#737373"/>
	<stop  offset="0.47" style="stop-color:#373737"/>
	<stop  offset="0.5" style="stop-color:#1F1F1F"/>
	<stop  offset="0.55" style="stop-color:#444444"/>
	<stop  offset="0.64" style="stop-color:#7C7C7C"/>
	<stop  offset="0.72" style="stop-color:#ABABAB"/>
	<stop  offset="0.81" style="stop-color:#CFCFCF"/>
	<stop  offset="0.88" style="stop-color:#E9E9E9"/>
	<stop  offset="0.95" style="stop-color:#F9F9F9"/>
	<stop  offset="1" style="stop-color:#FFFFFF"/>
</linearGradient>
<circle style="fill:url(#SVGID_00000072240882332043618070000008729837483757829820_);" cx="72.8" cy="55" r="48"/>
<circle class="st5" cx="72.8" cy="55" r="42.2"/>
<linearGradient id="SVGID_00000066504212597985542930000011896891195722131352_" gradientUnits="userSpaceOnUse" x1="106.7411" y1="588.4489" x2="38.8589" y2="656.3311" gradientTransform="matrix(1 0 0 -1 0 1380.39)">
	<stop  offset="0" style="stop-color:#FFFFFF"/>
	<stop  offset="5.000000e-02" style="stop-color:#F9F9FB"/>
	<stop  offset="0.12" style="stop-color:#E8E9F1"/>
	<stop  offset="0.2" style="stop-color:#CCD0E0"/>
	<stop  offset="0.29" style="stop-color:#A5ACC8"/>
	<stop  offset="0.38" style="stop-color:#737EAA"/>
	<stop  offset="0.47" style="stop-color:#364686"/>
	<stop  offset="0.5" style="stop-color:#26377C"/>
	<stop  offset="0.54" style="stop-color:#44528E"/>
	<stop  offset="0.63" style="stop-color:#7C86B0"/>
	<stop  offset="0.72" style="stop-color:#ABB1CC"/>
	<stop  offset="0.8" style="stop-color:#CFD3E2"/>
	<stop  offset="0.88" style="stop-color:#E9EBF2"/>
	<stop  offset="0.95" style="stop-color:#F9F9FB"/>
	<stop  offset="1" style="stop-color:#FFFFFF"/>
</linearGradient>
<circle style="fill:url(#SVGID_00000066504212597985542930000011896891195722131352_);" cx="72.8" cy="758" r="48"/>
<circle class="st7" cx="72.9" cy="758" r="42.2"/>
<g id="ocean">
	<polygon class="st8" points="94.9,738.1 94.9,712.6 72.8,699.8 50.7,712.6 50.7,738.1 72.8,750.8 	"/>
	
		<linearGradient id="SVGID_00000137828978738358488200000016198642440332156857_" gradientUnits="userSpaceOnUse" x1="72.8" y1="239.79" x2="72.8" y2="190.39" gradientTransform="matrix(1 0 0 1 0 510.21)">
		<stop  offset="0" style="stop-color:#C1DCF4"/>
		<stop  offset="1" style="stop-color:#255286"/>
	</linearGradient>
	<polygon style="fill:url(#SVGID_00000137828978738358488200000016198642440332156857_);" points="94.2,737.7 94.2,713 72.8,700.6 
		51.4,713 51.4,737.7 72.8,750 	"/>
	<polygon class="st10" points="92.8,736.9 92.8,713.8 72.8,702.3 52.8,713.8 52.8,736.9 72.8,748.4 	"/>
	<path class="st11" d="M92.8,728.4c-0.9-0.8-2.6-1.2-5.6-1.6c-2.9-0.4-4.3-0.5-5.1-0.5c-4.6,0-4.9,1.2-8.7,1.3c-1,0-3.8-0.5-9.3-1.7
		c-3.2-0.6-4.2-0.9-5.8-0.8c-2.3,0.2-4.1,0.9-5.5,1.8v10l20,11.5l20-11.5V728.4L92.8,728.4z"/>
	<path class="st12" d="M72.9,742.2L72.9,742.2c9-0.2,13.4-9.2,9.2-19.2c-0.3-0.8-0.8-1.8-1.3-2.7c-8-14.5-8-14.4-8-14.4
		s0-0.1-7.9,14.4c-0.5,0.9-0.9,1.8-1.3,2.7C59.4,732.9,63.8,742,72.9,742.2L72.9,742.2"/>
	<path class="st13" d="M72.9,741.6L72.9,741.6c8.5-0.2,12.6-8.7,8.7-18.2c-0.3-0.8-0.8-1.7-1.2-2.6c-7.6-13.6-7.6-13.5-7.6-13.5
		s0-0.1-7.5,13.6c-0.5,0.9-0.9,1.7-1.2,2.6C60.1,732.9,64.2,741.5,72.9,741.6L72.9,741.6"/>
	<path class="st14" d="M72.8,740.7L72.8,740.7c7.8-0.1,11.6-8,8-16.6c-0.3-0.8-0.7-1.5-1.2-2.3c-6.8-12.7-6.8-12.6-6.8-12.6
		s0-0.1-6.9,12.5c-0.4,0.8-0.8,1.6-1.2,2.3C61.2,732.6,65,740.5,72.8,740.7L72.8,740.7"/>
	<path class="st15" d="M81.6,726.2c-4.2,0-4.6,1.2-8.3,1.3c-1,0-3.8-0.5-9.2-1.7c-2.4,7.9,1.4,14.7,8.7,14.8l0,0
		C80,740.5,83.8,734,81.6,726.2L81.6,726.2L81.6,726.2z"/>
	
		<radialGradient id="SVGID_00000111163637152687857560000016837952474269769129_" cx="72.8" cy="218.1901" r="21.4" gradientTransform="matrix(1 0 0 1 0 510.21)" gradientUnits="userSpaceOnUse">
		<stop  offset="0" style="stop-color:#FFFFFF;stop-opacity:0.7"/>
		<stop  offset="0.13" style="stop-color:#F8FAFD;stop-opacity:0.68"/>
		<stop  offset="0.28" style="stop-color:#E4E9F7;stop-opacity:0.62"/>
		<stop  offset="0.44" style="stop-color:#C2CDEA;stop-opacity:0.53"/>
		<stop  offset="0.62" style="stop-color:#93A7D6;stop-opacity:0.4"/>
		<stop  offset="0.79" style="stop-color:#5673B7;stop-opacity:0.23"/>
		<stop  offset="0.98" style="stop-color:#2C4F9E;stop-opacity:3.000000e-02"/>
		<stop  offset="1" style="stop-color:#2B4B9B;stop-opacity:0"/>
	</radialGradient>
	<circle style="fill:url(#SVGID_00000111163637152687857560000016837952474269769129_);" cx="72.8" cy="728.4" r="21.4"/>
</g>
<path class="st17" d="M24.8,93.3v58.9h45v-35.9C51.6,115.5,35.5,106.7,24.8,93.3z"/>
<path class="st17" d="M24.8,719.7c10.7-13.4,26.8-22.2,45-23v-51.9h-45L24.8,719.7L24.8,719.7z"/>
<path class="st18" d="M120.8,93.3v58.9H75.7v-35.9C94,115.5,110.1,106.7,120.8,93.3z"/>
<path class="st17" d="M120.8,719.7c-10.7-13.4-26.8-22.2-45-23v-51.9h45V719.7L120.8,719.7z"/>
<path d="M44.8,142.7c-2,0-3.8-0.4-5.3-1.3s-2.6-2.1-3.4-3.6s-1.2-3.4-1.2-5.4s0.4-3.8,1.2-5.4c0.8-1.6,1.9-2.8,3.4-3.6
	s3.3-1.3,5.3-1.3s3.8,0.4,5.3,1.3c1.5,0.8,2.7,2.1,3.4,3.6s1.2,3.4,1.2,5.4s-0.4,3.8-1.2,5.4s-1.9,2.8-3.4,3.6
	C48.6,142.3,46.8,142.7,44.8,142.7z M44.8,140c1.9,0,3.3-0.8,4.2-2.3s1.4-3.3,1.4-5.3s-0.5-3.8-1.4-5.3c-0.9-1.5-2.3-2.3-4.2-2.3
	s-3.3,0.8-4.2,2.3c-0.9,1.5-1.4,3.3-1.4,5.3s0.5,3.7,1.4,5.3S42.9,140,44.8,140L44.8,140z"/>
<g>
	<path d="M87.1,126.8c-0.6,0-1.2-0.2-1.6-0.7s-0.7-1-0.7-1.6s0.2-1.1,0.7-1.6c0.4-0.5,1-0.7,1.6-0.7s1.2,0.2,1.6,0.7s0.7,1,0.7,1.6
		s-0.2,1.1-0.7,1.6S87.7,126.8,87.1,126.8z M87.1,125.6c0.3,0,0.6-0.1,0.8-0.3s0.3-0.5,0.3-0.7s-0.1-0.5-0.3-0.7
		c-0.2-0.2-0.5-0.3-0.8-0.3s-0.6,0.1-0.8,0.3s-0.3,0.5-0.3,0.7s0.1,0.5,0.3,0.7C86.5,125.5,86.8,125.6,87.1,125.6L87.1,125.6z"/>
	<path d="M108.6,141.5c-0.8,0.4-1.6,0.6-2.2,0.8c-0.6,0.1-1.3,0.2-2.2,0.4c-0.8,0.1-1.6,0.1-2.4,0.1c-3.4,0-6-1-7.6-2.9
		s-2.5-4.4-2.5-7.4s0.8-5.4,2.5-7.4c1.7-1.9,4.3-2.9,7.9-2.9c2.1,0,4.2,0.2,6.3,0.8v3.2c-1-0.3-1.8-0.6-2.5-0.8s-1.2-0.3-1.8-0.4
		s-1.2-0.1-1.7-0.1c-2.2,0-3.9,0.7-4.9,2.2c-1,1.5-1.5,3.2-1.5,5.4s0.6,4,1.7,5.4s2.8,2.1,5.1,2.1c1.9,0,3.8-0.5,5.8-1.4
		L108.6,141.5L108.6,141.5z"/>
</g>
<path d="M56.6,144.1v-1.3c0.5-0.6,0.9-1.2,1.4-1.6l0.7-0.6c0.5-0.4,0.8-0.8,1.2-1.2c0.3-0.4,0.5-0.8,0.5-1.3c0-0.4-0.1-0.7-0.4-0.9
	c-0.3-0.2-0.6-0.3-1-0.3c-0.6,0-1.3,0.2-2,0.6v-1.2c0.8-0.3,1.6-0.4,2.3-0.4c0.8,0,1.5,0.2,2,0.6c0.5,0.4,0.8,0.9,0.8,1.6
	c0,0.4-0.1,0.8-0.3,1.2s-0.7,0.8-1.3,1.4l-0.5,0.4c-0.2,0.2-0.5,0.4-0.8,0.7s-0.5,0.6-0.5,0.9h3.5v1.3h-5.6
	C56.6,144,56.6,144.1,56.6,144.1z"/>
<g id="tempIcon">
	
		<linearGradient id="SVGID_00000000201864390525473670000011996443195619352209_" gradientUnits="userSpaceOnUse" x1="98.7" y1="235.57" x2="98.7" y2="187.65" gradientTransform="matrix(1 0 0 1 0 462.21)">
		<stop  offset="8.000000e-02" style="stop-color:#42C0F0"/>
		<stop  offset="0.15" style="stop-color:#51A5D4"/>
		<stop  offset="0.23" style="stop-color:#5C84B3"/>
		<stop  offset="0.3" style="stop-color:#62699B"/>
		<stop  offset="0.37" style="stop-color:#66558B"/>
		<stop  offset="0.42" style="stop-color:#674880"/>
		<stop  offset="0.46" style="stop-color:#67447D"/>
		<stop  offset="0.55" style="stop-color:#903D60"/>
		<stop  offset="0.67" style="stop-color:#B6303B"/>
		<stop  offset="0.75" style="stop-color:#CC2021"/>
		<stop  offset="0.79" style="stop-color:#D4161A"/>
	</linearGradient>
	
		<path style="fill:url(#SVGID_00000000201864390525473670000011996443195619352209_);stroke:#020303;stroke-width:0.68;stroke-miterlimit:10;" d="
		M101.9,685.1v-32c0-1.7-1.4-3.2-3.2-3.2s-3.2,1.5-3.2,3.2v32c-2.1,1.2-3.6,3.4-3.6,6c0,3.8,3,6.8,6.8,6.8s6.8-3,6.8-6.8
		C105.5,688.4,104,686.1,101.9,685.1L101.9,685.1z"/>
	<line class="st20" x1="97.3" y1="656.8" x2="100.1" y2="656.8"/>
	<line class="st20" x1="97.3" y1="665.7" x2="100.1" y2="665.7"/>
	<line class="st20" x1="97.3" y1="673.8" x2="100.1" y2="673.8"/>
	<line class="st20" x1="97.3" y1="681.3" x2="100.1" y2="681.3"/>
	<line class="st20" x1="97.3" y1="690.8" x2="100.1" y2="690.8"/>
	
		<linearGradient id="SVGID_00000101105313749999836250000017472989645057449885_" gradientUnits="userSpaceOnUse" x1="96.7226" y1="227.1075" x2="94.1326" y2="224.5275" gradientTransform="matrix(1 0 0 1 0 462.21)">
		<stop  offset="0" style="stop-color:#1F1F1D;stop-opacity:0"/>
		<stop  offset="1" style="stop-color:#FFFFFF"/>
	</linearGradient>
	<path style="opacity:0.5;fill:url(#SVGID_00000101105313749999836250000017472989645057449885_);enable-background:new    ;" d="
		M96.7,689.2c-1,1.1-2.5,1.3-3.2,0.7c-0.7-0.7-0.4-2.2,0.6-3.2s2.5-1.3,3.2-0.6S97.8,688.2,96.7,689.2z"/>
</g>
<g id="oxIcon">
	
		<radialGradient id="SVGID_00000130609825255078715040000015344241328524197820_" cx="47.1" cy="-18.07" r="18.82" gradientTransform="matrix(1 0 0 -1 0 655.73)" gradientUnits="userSpaceOnUse">
		<stop  offset="0" style="stop-color:#F6EE82"/>
		<stop  offset="0.78" style="stop-color:#F6EE82"/>
		<stop  offset="0.91" style="stop-color:#F6EE82"/>
		<stop  offset="0.91" style="stop-color:#F7EE85"/>
		<stop  offset="0.94" style="stop-color:#FAF4B6"/>
		<stop  offset="0.96" style="stop-color:#FDFADA"/>
		<stop  offset="0.97" style="stop-color:#FEFCEF"/>
		<stop  offset="0.99" style="stop-color:#FFFFFD"/>
		<stop  offset="1" style="stop-color:#FFFFFF"/>
	</radialGradient>
	<path style="fill:url(#SVGID_00000130609825255078715040000015344241328524197820_);" d="M65.9,673.8c0,10.4-8.4,18.8-18.8,18.8
		s-18.8-8.4-18.8-18.8S36.7,655,47.1,655S65.9,663.4,65.9,673.8z"/>
	<path class="st23" d="M65.8,673.8c0,10.4-8.4,18.8-18.8,18.8s-18.8-8.4-18.8-18.8S36.6,655,47,655S65.8,663.4,65.8,673.8z"/>
	<path class="st24" d="M63.7,673.8c0,9.2-7.5,16.7-16.7,16.7s-16.7-7.5-16.7-16.7s7.5-16.6,16.7-16.6S63.7,664.6,63.7,673.8z"/>
	
		<linearGradient id="SVGID_00000176748229991464520730000007558682292346917552_" gradientUnits="userSpaceOnUse" x1="48.5774" y1="-25.7524" x2="37.8775" y2="-15.0425" gradientTransform="matrix(1 0 0 -1 0 655.73)">
		<stop  offset="0" style="stop-color:#5C1410"/>
		<stop  offset="0.1" style="stop-color:#611912"/>
		<stop  offset="0.26" style="stop-color:#722A22"/>
		<stop  offset="0.48" style="stop-color:#904C43"/>
		<stop  offset="0.73" style="stop-color:#BE887F"/>
		<stop  offset="1" style="stop-color:#FBDEDE"/>
	</linearGradient>
	
		<path style="fill:#E2131B;stroke:url(#SVGID_00000176748229991464520730000007558682292346917552_);stroke-width:0.93;stroke-miterlimit:10;" d="
		M50.3,676.1c0,3.9-3.2,7.1-7.1,7.1s-7.1-3.2-7.1-7.1s3.2-7.1,7.1-7.1S50.3,672.2,50.3,676.1z"/>
	
		<linearGradient id="SVGID_00000162329929699627801070000010459306292353502890_" gradientUnits="userSpaceOnUse" x1="56.1613" y1="-20.6313" x2="45.4513" y2="-9.9213" gradientTransform="matrix(1 0 0 -1 0 655.73)">
		<stop  offset="0" style="stop-color:#5C1410"/>
		<stop  offset="0.1" style="stop-color:#611912"/>
		<stop  offset="0.26" style="stop-color:#722A22"/>
		<stop  offset="0.48" style="stop-color:#904C43"/>
		<stop  offset="0.73" style="stop-color:#BE887F"/>
		<stop  offset="1" style="stop-color:#FBDEDE"/>
	</linearGradient>
	
		<path style="fill:#E2131B;stroke:url(#SVGID_00000162329929699627801070000010459306292353502890_);stroke-width:0.93;stroke-miterlimit:10;" d="
		M57.9,671c0,3.9-3.2,7.1-7.1,7.1s-7.1-3.2-7.1-7.1s3.2-7.1,7.1-7.1S57.9,667.1,57.9,671z"/>
</g>
<rect x="24.8" y="152.2" width="45" height="492.5"/>
<rect x="75.7" y="152.2" width="45" height="492.5"/>
<g id="ocean-2">
	<polygon class="st8" points="162.7,269.7 162.7,253.7 148.8,245.7 135,253.7 135,269.7 148.8,277.6 	"/>
	
		<linearGradient id="SVGID_00000128483635299616308900000006580192251542885029_" gradientUnits="userSpaceOnUse" x1="148.85" y1="-233.16" x2="148.85" y2="-264.06" gradientTransform="matrix(1 0 0 1 0 510.21)">
		<stop  offset="0" style="stop-color:#C1DCF4"/>
		<stop  offset="1" style="stop-color:#255286"/>
	</linearGradient>
	<polygon style="fill:url(#SVGID_00000128483635299616308900000006580192251542885029_);" points="162.2,269.4 162.2,254 
		148.8,246.2 135.5,254 135.5,269.4 148.8,277.1 	"/>
	<polygon class="st10" points="161.3,268.9 161.3,254.5 148.8,247.2 136.3,254.5 136.3,268.9 148.8,276.1 	"/>
	<path class="st11" d="M161.3,263.6c-0.6-0.5-1.7-0.7-3.5-1c-1.8-0.2-2.7-0.3-3.2-0.3c-2.9,0-3.1,0.8-5.4,0.8
		c-0.6,0-2.3-0.3-5.8-1.1c-2-0.4-2.6-0.6-3.6-0.5c-1.4,0.1-2.6,0.6-3.4,1.1v6.3l12.5,7.2l12.5-7.2v-5.3H161.3z"/>
	<path class="st12" d="M148.9,272.2L148.9,272.2c5.6-0.1,8.4-5.8,5.8-12c-0.2-0.5-0.5-1.1-0.8-1.7c-5-9.1-5-9-5-9s0-0.1-5,9
		c-0.3,0.6-0.6,1.1-0.8,1.7C140.4,266.4,143.2,272.1,148.9,272.2L148.9,272.2"/>
	<path class="st13" d="M148.9,271.9L148.9,271.9c5.3-0.1,7.9-5.5,5.5-11.4c-0.2-0.5-0.5-1-0.8-1.6c-4.7-8.6-4.7-8.5-4.7-8.5
		s0-0.1-4.7,8.5c-0.3,0.6-0.6,1.1-0.8,1.6C140.9,266.4,143.5,271.8,148.9,271.9L148.9,271.9"/>
	<path class="st14" d="M148.8,271.3L148.8,271.3c4.9-0.1,7.3-5,5-10.4c-0.2-0.5-0.5-1-0.7-1.5c-4.3-7.9-4.3-7.8-4.3-7.8
		s0-0.1-4.3,7.8c-0.3,0.5-0.5,1-0.7,1.5C141.6,266.2,143.9,271.1,148.8,271.3L148.8,271.3"/>
	<path class="st15" d="M154.4,262.2c-2.6,0-2.9,0.8-5.2,0.8c-0.6,0-2.3-0.3-5.8-1c-1.5,4.9,0.9,9.2,5.4,9.2l0,0
		C153.3,271.2,155.7,267.1,154.4,262.2L154.4,262.2z"/>
	
		<radialGradient id="SVGID_00000146492634463578667730000016634488025574859397_" cx="148.84" cy="-246.66" r="13.4051" gradientTransform="matrix(1 0 0 1 0 510.21)" gradientUnits="userSpaceOnUse">
		<stop  offset="0" style="stop-color:#FFFFFF;stop-opacity:0.7"/>
		<stop  offset="0.13" style="stop-color:#F8FAFD;stop-opacity:0.68"/>
		<stop  offset="0.28" style="stop-color:#E4E9F7;stop-opacity:0.62"/>
		<stop  offset="0.44" style="stop-color:#C2CDEA;stop-opacity:0.53"/>
		<stop  offset="0.62" style="stop-color:#93A7D6;stop-opacity:0.4"/>
		<stop  offset="0.79" style="stop-color:#5673B7;stop-opacity:0.23"/>
		<stop  offset="0.98" style="stop-color:#2C4F9E;stop-opacity:3.000000e-02"/>
		<stop  offset="1" style="stop-color:#2B4B9B;stop-opacity:0"/>
	</radialGradient>
	<circle style="fill:url(#SVGID_00000146492634463578667730000016634488025574859397_);" cx="148.8" cy="263.6" r="13.4"/>
</g>
<g id="tempIcon-2">
	
		<linearGradient id="SVGID_00000068663876589046479920000017903642683161752728_" gradientUnits="userSpaceOnUse" x1="7.1024" y1="-73.56" x2="7.1024" y2="-121.48" gradientTransform="matrix(1 0 0 1 0 462.21)">
		<stop  offset="8.000000e-02" style="stop-color:#42C0F0"/>
		<stop  offset="0.15" style="stop-color:#51A5D4"/>
		<stop  offset="0.23" style="stop-color:#5C84B3"/>
		<stop  offset="0.3" style="stop-color:#62699B"/>
		<stop  offset="0.37" style="stop-color:#66558B"/>
		<stop  offset="0.42" style="stop-color:#674880"/>
		<stop  offset="0.46" style="stop-color:#67447D"/>
		<stop  offset="0.55" style="stop-color:#903D60"/>
		<stop  offset="0.67" style="stop-color:#B6303B"/>
		<stop  offset="0.75" style="stop-color:#CC2021"/>
		<stop  offset="0.79" style="stop-color:#D4161A"/>
	</linearGradient>
	
		<path style="fill:url(#SVGID_00000068663876589046479920000017903642683161752728_);stroke:#020303;stroke-width:0.68;stroke-miterlimit:10;" d="
		M10.3,375.9v-32c0-1.7-1.4-3.2-3.2-3.2s-3.2,1.5-3.2,3.2v32c-2.1,1.2-3.6,3.4-3.6,6c0,3.8,3,6.8,6.8,6.8s6.8-3,6.8-6.8
		C14,379.3,12.5,377,10.3,375.9z"/>
	<line class="st20" x1="5.8" y1="347.7" x2="8.6" y2="347.7"/>
	<line class="st20" x1="5.8" y1="356.6" x2="8.6" y2="356.6"/>
	<line class="st20" x1="5.8" y1="364.7" x2="8.6" y2="364.7"/>
	<line class="st20" x1="5.8" y1="372.2" x2="8.6" y2="372.2"/>
	<line class="st20" x1="5.8" y1="381.7" x2="8.6" y2="381.7"/>
	
		<linearGradient id="SVGID_00000110463772958969745030000009029283751558262966_" gradientUnits="userSpaceOnUse" x1="5.1925" y1="-82.0225" x2="2.6025" y2="-84.6025" gradientTransform="matrix(1 0 0 1 0 462.21)">
		<stop  offset="0" style="stop-color:#1F1F1D;stop-opacity:0"/>
		<stop  offset="1" style="stop-color:#FFFFFF"/>
	</linearGradient>
	<path style="opacity:0.5;fill:url(#SVGID_00000110463772958969745030000009029283751558262966_);enable-background:new    ;" d="
		M5.2,380.1c-1,1.1-2.5,1.3-3.2,0.7c-0.7-0.7-0.4-2.2,0.6-3.2s2.5-1.3,3.2-0.6S6.3,379,5.2,380.1z"/>
</g>
<g id="prodBg">
	
		<linearGradient id="external-border_00000023276263276765080580000000391165237422628770_" gradientUnits="userSpaceOnUse" x1="165.1" y1="727.3201" x2="134.2" y2="696.42" gradientTransform="matrix(1 0 0 1 0 -164.12)">
		<stop  offset="0" style="stop-color:#9D9D9C"/>
		<stop  offset="0.54" style="stop-color:#010101"/>
		<stop  offset="1" style="stop-color:#9D9D9C"/>
	</linearGradient>
	
		<rect id="external-border" x="134.1" y="532.4" style="fill:url(#external-border_00000023276263276765080580000000391165237422628770_);" width="31.1" height="30.7"/>
	
		<linearGradient id="internal-border_00000029756398040526375260000014877557185717530809_" gradientUnits="userSpaceOnUse" x1="149.65" y1="726.42" x2="149.65" y2="697.32" gradientTransform="matrix(1 0 0 1 0 -164.12)">
		<stop  offset="0" style="stop-color:#452B1A"/>
		<stop  offset="1" style="stop-color:#B18049"/>
	</linearGradient>
	
		<rect id="internal-border" x="134.9" y="533.2" style="fill:url(#internal-border_00000029756398040526375260000014877557185717530809_);" width="29.5" height="29.1"/>
	
		<linearGradient id="bg_00000117642648508530164080000010637060004165329049_" gradientUnits="userSpaceOnUse" x1="149.6" y1="725.6799" x2="149.6" y2="697.9799" gradientTransform="matrix(1 0 0 1 0 -164.12)">
		<stop  offset="0" style="stop-color:#946137"/>
		<stop  offset="1" style="stop-color:#7F5026"/>
	</linearGradient>
	
		<rect id="bg" x="135.6" y="533.9" style="fill:url(#bg_00000117642648508530164080000010637060004165329049_);" width="28" height="27.7"/>
	
		<pattern  id="bgPattern_00000166672696999295787900000015867827673841502854_" xlink:href="#bgPattern_000000211043707808012" patternTransform="matrix(1 0 0 1 36.64 33660.3086)">
	</pattern>
	
		<rect id="bgPattern" x="135.6" y="533.9" style="opacity:0.1;fill:url(#bgPattern_00000166672696999295787900000015867827673841502854_);enable-background:new    ;" width="28" height="27.7"/>
</g>
<g id="heat">
	<rect x="139.7" y="537.5" class="st35" width="20.4" height="20.4"/>
	
		<linearGradient id="SVGID_00000150791679068964256140000001957538462001625773_" gradientUnits="userSpaceOnUse" x1="-1079.3588" y1="-1278.219" x2="-1065.7821" y2="-1264.6418" gradientTransform="matrix(0.7071 -0.7071 -0.7071 -0.7071 9.2861 -1109.7673)">
		<stop  offset="0" style="stop-color:#951917"/>
		<stop  offset="0.21" style="stop-color:#B9231C"/>
		<stop  offset="0.47" style="stop-color:#E52922"/>
		<stop  offset="0.55" style="stop-color:#E62D28"/>
		<stop  offset="0.84" style="stop-color:#E7393A"/>
		<stop  offset="1" style="stop-color:#E83E41"/>
	</linearGradient>
	
		<rect x="140.3" y="538.1" style="fill:url(#SVGID_00000150791679068964256140000001957538462001625773_);" width="19.2" height="19.2"/>
	<rect x="141.2" y="539" class="st37" width="17.3" height="17.3"/>
	<path id="darker" class="st38" d="M159.5,557.3h-19.2v-10.5c0,0,6.1,0.9,9.6,0.9s9.6-0.9,9.6-0.9L159.5,557.3L159.5,557.3
		L159.5,557.3z"/>
	<g>
		<polygon class="st39" points="147.7,548.6 145.6,546.7 145.6,546.7 145.6,540.9 143.4,546.8 145.6,548.7 145.6,548.7 145.6,554.5 
					"/>
		<polygon class="st39" points="152.1,548.6 149.9,546.7 149.9,546.7 149.9,540.9 147.7,546.8 149.9,548.7 149.9,548.7 149.9,554.5 
					"/>
		<polygon class="st39" points="156.6,548.6 154.4,546.7 154.4,546.7 154.4,540.9 152.2,546.8 154.4,548.7 154.4,548.7 154.4,554.5 
					"/>
	</g>
</g>
<g id="prodBg-2">
	
		<linearGradient id="external-border-2_00000091698869071969804760000000238979919997497731_" gradientUnits="userSpaceOnUse" x1="165.1" y1="680.3199" x2="134.2" y2="649.42" gradientTransform="matrix(1 0 0 1 0 -164.12)">
		<stop  offset="0" style="stop-color:#9D9D9C"/>
		<stop  offset="0.54" style="stop-color:#010101"/>
		<stop  offset="1" style="stop-color:#9D9D9C"/>
	</linearGradient>
	
		<rect id="external-border-2" x="134.1" y="485.4" style="fill:url(#external-border-2_00000091698869071969804760000000238979919997497731_);" width="31.1" height="30.7"/>
	
		<linearGradient id="internal-border-2_00000109713491684732650360000013278506610788663484_" gradientUnits="userSpaceOnUse" x1="149.65" y1="679.42" x2="149.65" y2="650.32" gradientTransform="matrix(1 0 0 1 0 -164.12)">
		<stop  offset="0" style="stop-color:#452B1A"/>
		<stop  offset="1" style="stop-color:#B18049"/>
	</linearGradient>
	
		<rect id="internal-border-2" x="134.9" y="486.2" style="fill:url(#internal-border-2_00000109713491684732650360000013278506610788663484_);" width="29.5" height="29.1"/>
	
		<linearGradient id="bg-2_00000103976462699423860340000011316699105602554028_" gradientUnits="userSpaceOnUse" x1="149.6" y1="678.6799" x2="149.6" y2="650.9799" gradientTransform="matrix(1 0 0 1 0 -164.12)">
		<stop  offset="0" style="stop-color:#946137"/>
		<stop  offset="1" style="stop-color:#7F5026"/>
	</linearGradient>
	
		<rect id="bg-2" x="135.6" y="486.9" style="fill:url(#bg-2_00000103976462699423860340000011316699105602554028_);" width="28" height="27.7"/>
	
		<pattern  id="bgPattern-2_00000175320520929103554730000013074220780567405240_" xlink:href="#bgPattern-2_0000017962571381887" patternTransform="matrix(1 0 0 1 36.64 33660.3086)">
	</pattern>
	
		<rect id="bgPattern-2" x="135.6" y="486.9" style="opacity:0.1;fill:url(#bgPattern-2_00000175320520929103554730000013074220780567405240_);enable-background:new    ;" width="28" height="27.7"/>
</g>
<g id="heat-2">
	<rect x="139.7" y="490.5" class="st35" width="20.4" height="20.4"/>
	
		<linearGradient id="SVGID_00000065041269710094677860000007306059075255935410_" gradientUnits="userSpaceOnUse" x1="-1046.1466" y1="-1245.0016" x2="-1032.5601" y2="-1231.425" gradientTransform="matrix(0.7071 -0.7071 -0.7071 -0.7071 9.2861 -1109.7673)">
		<stop  offset="0" style="stop-color:#951917"/>
		<stop  offset="0.21" style="stop-color:#B9231C"/>
		<stop  offset="0.47" style="stop-color:#E52922"/>
		<stop  offset="0.55" style="stop-color:#E62D28"/>
		<stop  offset="0.84" style="stop-color:#E7393A"/>
		<stop  offset="1" style="stop-color:#E83E41"/>
	</linearGradient>
	
		<rect x="140.3" y="491.1" style="fill:url(#SVGID_00000065041269710094677860000007306059075255935410_);" width="19.2" height="19.2"/>
	<rect x="141.2" y="492" class="st37" width="17.3" height="17.3"/>
	<path id="darker-2" class="st38" d="M159.5,510.3h-19.2v-10.5c0,0,6.1,0.9,9.6,0.9s9.6-0.9,9.6-0.9L159.5,510.3L159.5,510.3
		L159.5,510.3z"/>
	<g>
		<polygon class="st39" points="147.7,501.6 145.6,499.7 145.6,499.7 145.6,493.9 143.4,499.8 145.6,501.7 145.6,501.7 145.6,507.5 
					"/>
		<polygon class="st39" points="152.1,501.6 149.9,499.7 149.9,499.7 149.9,493.9 147.7,499.8 149.9,501.7 149.9,501.7 149.9,507.5 
					"/>
		<polygon class="st39" points="156.6,501.6 154.4,499.7 154.4,499.7 154.4,493.9 152.2,499.8 154.4,501.7 154.4,501.7 154.4,507.5 
					"/>
	</g>
</g>
</svg>
