<?xml version="1.0" encoding="UTF-8"?><svg id="Layer_1" xmlns="http://www.w3.org/2000/svg" xmlns:xlink="http://www.w3.org/1999/xlink" viewBox="0 0 168.78 168.78"><defs><style>.cls-1{fill:#054e35;}.cls-2{stroke:#fff;stroke-width:1.04px;}.cls-2,.cls-3{stroke-miterlimit:10;}.cls-3{fill:#fff;stroke:#000;stroke-width:8px;}.cls-4{fill:url(#linear-gradient);}</style><linearGradient id="linear-gradient" x1="84.39" y1="27.22" x2="84.39" y2="139.46" gradientTransform="translate(0 167.73) scale(1 -1)" gradientUnits="userSpaceOnUse"><stop offset="0" stop-color="#4d4d4d"/><stop offset="1" stop-color="#fff"/></linearGradient></defs><circle class="cls-1" cx="84.39" cy="84.39" r="84.39"/><circle class="cls-3" cx="84.39" cy="84.39" r="65.25"/><circle class="cls-4" cx="84.39" cy="84.39" r="56.12"/><polygon points="126.11 47.68 67.97 55.35 81.34 68.72 75.18 74.88 77.95 77.65 74.83 80.77 72.06 78 67.42 82.64 70.26 85.47 67.14 88.59 64.3 85.75 59.73 90.33 62.3 92.9 59.19 96.02 56.61 93.45 52.25 97.81 54.87 100.43 51.75 103.54 49.13 100.92 44.64 105.42 47.93 124.68 68.49 128.76 69.85 127.4 66.93 124.48 70.04 121.36 72.96 124.28 77.32 119.92 74.36 116.96 77.48 113.84 80.44 116.8 85.02 112.23 82.31 109.53 85.43 106.41 88.13 109.11 92.77 104.47 90.01 101.71 93.13 98.59 95.89 101.35 104.93 92.31 117.46 104.84 126.11 47.68"/><polygon points="123 44.57 64.86 52.24 78.23 65.61 72.07 71.77 74.84 74.54 71.72 77.66 68.95 74.88 64.31 79.52 67.14 82.36 64.03 85.48 61.19 82.64 56.62 87.22 59.19 89.79 56.07 92.91 53.5 90.33 49.14 94.69 51.76 97.31 48.64 100.43 46.02 97.81 41.53 102.31 44.82 121.57 65.38 125.64 66.73 124.29 63.82 121.37 66.93 118.25 69.85 121.17 74.21 116.81 71.25 113.85 74.37 110.73 77.33 113.69 81.91 109.12 79.2 106.41 82.32 103.3 85.02 106 89.66 101.36 86.9 98.59 90.01 95.48 92.78 98.24 101.82 89.2 114.35 101.73 123 44.57"/><polygon class="cls-2" points="121.44 42.49 63.3 50.16 76.67 63.53 70.51 69.69 73.28 72.46 70.16 75.58 67.39 72.81 62.75 77.45 65.59 80.28 62.47 83.4 59.64 80.57 55.06 85.14 57.63 87.72 54.52 90.84 51.94 88.26 47.58 92.62 50.2 95.24 47.08 98.36 44.46 95.74 39.97 100.23 43.26 119.5 63.82 123.57 65.18 122.21 62.26 119.29 65.38 116.18 68.3 119.1 72.66 114.74 69.69 111.77 72.81 108.66 75.77 111.62 80.35 107.04 77.65 104.34 80.76 101.22 83.47 103.92 88.11 99.28 85.34 96.52 88.46 93.4 91.22 96.17 100.26 87.13 112.79 99.66 121.44 42.49"/><polygon points="126.11 47.68 122.45 48.16 121.6 44.75 121.92 42.96 126.11 47.68"/></svg>