<?xml version="1.0" encoding="UTF-8"?><svg id="a" xmlns="http://www.w3.org/2000/svg" xmlns:xlink="http://www.w3.org/1999/xlink" viewBox="0 0 297.6 187.1"><defs><style>.j{fill:url(#h);}.k{fill:#fff;opacity:0;}.l{fill:url(#f);}.m{fill:url(#d);}.n{fill:url(#b);}.o{fill:url(#c);}.p{fill:#fcd610;}</style><linearGradient id="b" x1="159.63" y1="36.07" x2="38.85" y2="156.87" gradientTransform="translate(0 190.02) scale(1 -1)" gradientUnits="userSpaceOnUse"><stop offset="0" stop-color="#942100"/><stop offset=".88" stop-color="#ffc515"/><stop offset="1" stop-color="#ffd054"/></linearGradient><radialGradient id="c" cx="99.24" cy="96.47" fx="99.24" fy="96.47" r="81.32" gradientTransform="translate(0 190.02) scale(1 -1)" gradientUnits="userSpaceOnUse"><stop offset="0" stop-color="#fcd610"/><stop offset="1" stop-color="#e3b600"/></radialGradient><radialGradient id="d" cx="99.24" cy="96.47" fx="99.24" fy="96.47" r="76.81" gradientTransform="translate(0 190.02) scale(1 -1)" gradientUnits="userSpaceOnUse"><stop offset="0" stop-color="#fcd610"/><stop offset=".23" stop-color="#fcd610"/><stop offset=".26" stop-color="#fcd610"/><stop offset=".36" stop-color="#f9d20e"/><stop offset=".43" stop-color="#f1c809"/><stop offset=".51" stop-color="#e4b700"/><stop offset=".51" stop-color="#e3b600"/><stop offset="1" stop-color="#fcd610"/></radialGradient><linearGradient id="f" x1="159.38" y1="33.87" x2="159.38" y2="159.36" gradientTransform="translate(0 190.02) scale(1 -1)" gradientUnits="userSpaceOnUse"><stop offset="0" stop-color="#706f6f"/><stop offset=".15" stop-color="#686767"/><stop offset=".39" stop-color="#535252"/><stop offset=".67" stop-color="#313030"/><stop offset=".99" stop-color="#020202"/><stop offset="1" stop-color="#000"/></linearGradient><linearGradient id="h" x1="112.29" y1="30.38" x2="112.29" y2="100.14" gradientTransform="translate(0 190.02) scale(1 -1)" gradientUnits="userSpaceOnUse"><stop offset="0" stop-color="#878787" stop-opacity="0"/><stop offset=".28" stop-color="#4e4e4d" stop-opacity=".53"/><stop offset=".61" stop-color="#292927" stop-opacity=".89"/><stop offset="1" stop-color="#1d1d1b"/></linearGradient></defs><rect class="k" width="297.6" height="187.1"/><g><circle cx="99.25" cy="93.55" r="91.66" transform="translate(-37.08 97.58) rotate(-45)"/><circle class="n" cx="99.24" cy="93.55" r="85.41"/><circle class="o" cx="99.24" cy="93.55" r="81.32"/><polygon class="m" points="99.24 16.75 104.26 55.47 119.11 19.36 113.93 58.07 137.65 27.04 122.62 63.09 153.54 39.25 129.71 70.18 165.75 55.15 134.73 78.86 173.43 73.67 137.3 88.54 176.05 93.55 137.3 98.57 173.43 113.44 134.73 108.24 165.75 131.96 129.71 116.92 153.54 147.85 122.62 124.02 137.65 160.06 113.93 129.03 119.11 167.74 104.26 131.63 99.24 170.36 94.23 131.63 79.36 167.74 84.54 129.03 60.84 160.06 75.85 124.02 44.92 147.85 68.78 116.92 32.71 131.96 63.76 108.24 25.06 113.44 61.16 98.57 22.44 93.55 61.16 88.54 25.06 73.67 63.76 78.86 32.71 55.15 68.78 70.18 44.92 39.25 75.85 63.09 60.84 27.04 84.54 58.07 79.36 19.36 94.23 55.47 99.24 16.75"/><polygon id="e" points="290.01 94.28 199.22 53.03 199.22 77.61 143.63 77.61 143.63 27.14 110.73 27.14 110.73 77.61 85.7 77.61 85.7 27.14 52.8 27.14 52.8 77.61 33.72 77.61 33.72 110.96 52.8 110.96 52.8 159.66 85.7 159.66 85.7 110.96 110.73 110.96 110.73 159.66 143.63 159.66 143.63 110.96 199.22 110.96 199.22 135.52 290.01 94.28"/><polygon id="g" class="l" points="114.23 156.15 114.23 107.45 82.2 107.45 82.2 156.15 56.31 156.15 56.31 107.45 37.23 107.45 37.23 81.12 56.31 81.12 56.31 30.67 82.2 30.67 82.2 81.12 114.23 81.12 114.23 30.67 140.13 30.67 140.13 81.12 202.73 81.12 202.73 58.49 281.53 94.28 202.73 130.08 202.73 107.45 140.13 107.45 140.13 156.15 114.23 156.15"/><path class="p" d="M276.21,94.28l-71.29-32.4v21.42h-14.59c.38,3.36,.56,6.77,.56,10.24,0,3.97-.26,7.88-.75,11.71h14.77v21.42l71.29-32.4v.02Z"/><path id="i" class="j" d="M190.86,96.51c-38.48-2.24-91.19-6.63-120.45-6.63-13.02,0-25.13,.73-36.69,1.87v19.18h19.08v48.7h32.9v-48.7h25v48.7h32.9v-48.7h45.62c.91-4.69,1.45-9.51,1.61-14.43h.02Z"/></g></svg>