<?xml version="1.0" encoding="UTF-8"?><svg id="a" xmlns="http://www.w3.org/2000/svg" xmlns:xlink="http://www.w3.org/1999/xlink" viewBox="0 0 297.6 187.1"><defs><style>.i{fill:#fff;opacity:0;}.j{fill:url(#d);stroke:url(#e);stroke-miterlimit:10;stroke-width:4.02px;}.k{fill:url(#g);}.l{fill:url(#h);isolation:isolate;opacity:.6;}</style><linearGradient id="d" x1="19" y1="123.03" x2="282.15" y2="37.53" gradientTransform="translate(0 190.02) scale(1 -1)" gradientUnits="userSpaceOnUse"><stop offset="0" stop-color="#1f6c17"/><stop offset=".24" stop-color="#2e7a1c"/><stop offset=".7" stop-color="#549e2b"/><stop offset="1" stop-color="#71b935"/></linearGradient><linearGradient id="e" x1="185.91" y1="-.8" x2="82.51" y2="171.3" gradientTransform="translate(0 190.02) scale(1 -1)" gradientUnits="userSpaceOnUse"><stop offset="0" stop-color="#1d1d1b"/><stop offset=".53" stop-color="#1b1b19"/><stop offset=".73" stop-color="#141413"/><stop offset=".86" stop-color="#090908"/><stop offset=".93" stop-color="#000"/><stop offset=".93" stop-color="#111"/><stop offset=".95" stop-color="#3c3c3c"/><stop offset=".97" stop-color="#818181"/><stop offset=".99" stop-color="#e0e0e0"/><stop offset="1" stop-color="#fff"/></linearGradient><linearGradient id="g" x1="159.82" y1="29.31" x2="109.27" y2="168.2" gradientTransform="translate(0 190.02) scale(1 -1)" gradientUnits="userSpaceOnUse"><stop offset="0" stop-color="#1f7e17"/><stop offset=".19" stop-color="#258219"/><stop offset=".45" stop-color="#368f1f"/><stop offset=".74" stop-color="#52a32a"/><stop offset="1" stop-color="#71b935"/></linearGradient><linearGradient id="h" x1="133.33" y1="121.5" x2="121.23" y2="166.67" gradientTransform="translate(0 190.02) scale(1 -1)" gradientUnits="userSpaceOnUse"><stop offset="0" stop-color="#1f6c17"/><stop offset=".13" stop-color="#34811c"/><stop offset=".54" stop-color="#72bf29"/><stop offset=".84" stop-color="#99e632"/><stop offset="1" stop-color="#a8f535"/></linearGradient></defs><rect class="i" width="297.6" height="187.1"/><g id="b"><g id="c"><path id="f" class="j" d="M122.46,19.65c77.19-3.04,128.86,42.55,169.28,103.33H106.35c-1.52,0-1.52-6.38-3.34-12.16-6.08-16.11-22.19-22.49-38.6-22.49v6.99s7.6,1.22,12.16,2.74c15.8,4.86,22.19,17.63,19.45,33.73-6.08,35.86-46.19,45.59-73.55,25.53-29.78-21.88-14.28-73.55,5.77-96.95C53.17,31.5,85.69,20.86,122.46,19.65Z"/><path class="k" d="M53.47,161.27c-9.73,0-19.45-3.34-27.35-9.12-7.9-5.77-12.46-14.59-13.68-25.83-2.43-21.88,8.81-48.63,20.67-62.3,21.27-24.92,49.84-37.08,89.65-38.6h6.69c58.65,0,106.67,29.18,150.74,91.48H110.3v-.3c-.3-2.13-.91-4.86-1.82-7.6v-.61c-6.38-16.41-22.79-26.44-44.07-26.44h-6.08v17.93l5.17,.91c2.13,.3,7.9,1.22,11.24,2.43,15.5,4.86,17.02,17.32,15.5,27.05-3.95,23.1-22.19,31-36.77,31Z"/><path class="l" d="M182.03,46.09c0,10.64-24.62,19.15-54.7,19.15s-54.7-8.51-54.7-19.15,24.62-19.15,54.7-19.15c30.09-.3,54.7,8.51,54.7,19.15Z"/></g></g></svg>