<?xml version="1.0" encoding="UTF-8"?><svg id="a" xmlns="http://www.w3.org/2000/svg" viewBox="0 0 297.64 187.09"><defs><style>.c{stroke-width:1.64px;}.c,.d{stroke:#fff;stroke-miterlimit:10;}.c,.e{fill:#010101;}.d{fill:#be1823;stroke-width:2.47px;}.f{fill:rgba(255,255,255,0);opacity:0;}</style></defs><rect class="f" width="297.64" height="187.09"/><g id="b"><polygon class="e" points="244.09 15 151.97 27.15 173.14 48.34 163.39 58.09 167.79 62.49 162.83 67.43 158.45 63.03 151.09 70.39 155.59 74.89 150.65 79.82 146.16 75.33 138.91 82.58 142.98 86.67 138.05 91.6 133.97 87.51 127.05 94.43 131.2 98.58 126.26 103.52 122.11 99.37 115 106.48 120.22 137.01 152.79 143.48 154.94 141.31 150.31 136.69 155.26 131.75 159.89 136.38 166.79 129.48 162.09 124.77 167.04 119.84 171.73 124.54 178.98 117.27 174.69 113.01 179.63 108.05 183.91 112.34 191.28 104.99 186.9 100.61 191.83 95.66 196.21 100.06 210.54 85.73 230.39 105.59 244.09 15"/><circle class="e" cx="160.94" cy="98.47" r="85.34"/><circle class="d" cx="152.45" cy="88.62" r="85.34"/><polygon class="e" points="239.17 10.07 147.04 22.21 168.21 43.4 158.45 53.16 162.85 57.56 157.9 62.49 153.52 58.11 146.18 65.46 150.65 69.95 145.72 74.89 141.22 70.39 133.97 77.64 138.05 81.73 133.11 86.67 129.04 82.59 122.13 89.5 126.28 93.65 121.33 98.58 117.18 94.43 110.06 101.55 115.29 132.08 147.86 138.54 150 136.38 145.39 131.77 150.33 126.82 154.95 131.45 161.86 124.54 157.15 119.85 162.11 114.9 166.79 119.61 174.04 112.36 169.76 108.07 174.71 103.12 179 107.4 186.34 100.06 181.96 95.68 186.9 90.74 191.28 95.12 205.6 80.8 225.46 100.65 239.17 10.07"/><polygon class="c" points="236.7 6.78 144.57 18.92 165.76 40.11 155.99 49.87 160.39 54.27 155.45 59.2 151.05 54.82 143.71 62.17 148.18 66.66 143.25 71.6 138.75 67.1 131.5 74.35 135.6 78.44 130.64 83.38 126.57 79.3 119.67 86.21 123.82 90.36 118.86 95.3 114.71 91.14 107.6 98.28 112.82 128.79 145.39 135.25 147.55 133.11 142.92 128.48 147.86 123.53 152.49 128.16 159.39 121.25 154.71 116.56 159.64 111.61 164.33 116.32 171.58 109.07 167.29 104.78 172.25 99.85 176.53 104.11 183.87 96.77 179.49 92.39 184.43 87.45 188.81 91.83 203.14 77.51 222.99 97.36 236.7 6.78"/><polygon class="e" points="244.09 15 238.31 15.77 236.95 10.35 237.45 7.52 244.09 15"/></g></svg>