<?xml version="1.0" encoding="UTF-8"?><svg id="a" xmlns="http://www.w3.org/2000/svg" viewBox="0 0 297.64 187.09"><defs><style>.c{fill:#fff;}.c,.d,.e{stroke:#010101;stroke-width:3.04px;}.c,.e{stroke-miterlimit:10;}.f{fill:rgba(255,255,255,0);opacity:0;}.d{fill:#be1823;stroke-linejoin:round;}.e{fill:#302d7e;}</style></defs><rect class="f" width="297.64" height="187.09"/><g id="b"><g><polygon class="d" points="36.22 127.64 36.22 57.58 120.55 25.41 7.45 25.41 7.45 158.81 119.95 158.81 36.22 127.64"/><polygon class="d" points="179.53 25.41 261.42 57.58 261.42 127.64 178.65 158.81 290.19 158.81 290.19 25.41 179.53 25.41"/></g><polygon class="e" points="99.56 78.38 131.37 107.33 120.55 145.26 53.49 121.55 53.49 62.99 136.79 34.19 99.56 78.38"/><polygon class="e" points="159.47 151.52 244.15 122.23 244.15 63.31 175.57 39.28 163.22 80.26 195.53 109.77 159.47 151.52"/><polygon class="c" points="121.4 178.28 182.86 108.53 152.11 80.93 173.38 8.81 112.09 79.05 142.56 107.01 121.4 178.28"/></g></svg>