<?xml version="1.0" encoding="UTF-8"?><svg id="a" xmlns="http://www.w3.org/2000/svg" xmlns:xlink="http://www.w3.org/1999/xlink" viewBox="0 0 297.64 187.09"><defs><style>.d{fill:#fff;}.e{fill:url(#c);}.f{fill:rgba(255,255,255,0);opacity:0;}</style><radialGradient id="c" cx="148.82" cy="93.54" fx="148.82" fy="93.54" r="91.85" gradientTransform="matrix(1, 0, 0, 1, 0, 0)" gradientUnits="userSpaceOnUse"><stop offset="0" stop-color="#25378a"/><stop offset=".65" stop-color="#25378a"/><stop offset="1" stop-color="#25378a" stop-opacity="0"/></radialGradient></defs><rect class="f" width="297.64" height="187.09"/><g id="b"><circle class="e" cx="148.82" cy="93.54" r="91.85"/><path class="d" d="M148.82,74.87c-9.34,0-17.07,6.85-18.45,15.81,6.63-3.21,14.08-2.67,18.8,1.98,4.84,4.81,5.31,12.57,1.82,19.4,9.27-1.07,16.5-8.96,16.5-18.55,0-10.31-8.36-18.67-18.67-18.67v.03Z"/><path class="d" d="M148.82,45.98c-26.28,0-47.59,21.31-47.59,47.59,0,7.23,1.6,14.05,4.5,20.18l18.36-18.52c.16-.16,.35-.31,.53-.47,0-.41-.06-.79-.06-1.19,0-13.42,10.88-24.27,24.27-24.27s24.27,10.88,24.27,24.27-10.88,24.27-24.27,24.27c-.63,0-1.26-.06-1.89-.09l-.06,.06-18.55,18.7c6.19,2.95,13.17,4.62,20.5,4.62,26.28,0,47.59-21.31,47.59-47.59s-21.31-47.59-47.59-47.59v.03Z"/></g></svg>