<?xml version="1.0" encoding="UTF-8"?><svg id="a" xmlns="http://www.w3.org/2000/svg" viewBox="0 0 297.64 188.46"><defs><style>.h{fill:#fff;}.i{fill:#3abff0;}.j{stroke-width:1.88px;}.j,.k{fill:none;stroke:#fff;stroke-miterlimit:10;}.k{stroke-width:4.88px;}.l{fill:rgba(255,255,255,0);opacity:0;}</style></defs><rect class="l" width="297.64" height="187.09"/><g id="b"><polygon id="c" class="i" points="204.34 4.7 93.3 4.7 93.3 188.46 149.11 176.44 204.34 188.46 204.34 4.7"/><g id="d"><g><path class="h" d="M121.25,112.25c.34,0,.64-.06,.91-.17s.49-.28,.68-.48,.32-.45,.42-.75c.09-.29,.15-.62,.15-.97v-5.65h1.75v5.65c0,.56-.09,1.08-.28,1.56-.18,.48-.44,.88-.78,1.24s-.75,.62-1.23,.81-1.03,.29-1.63,.29-1.16-.09-1.64-.29-.89-.46-1.23-.81-.6-.76-.78-1.24-.28-1-.28-1.56v-5.65h1.75v5.64c0,.37,.05,.69,.15,.97s.24,.54,.42,.75,.41,.37,.68,.48,.57,.17,.91,.17h.01Z"/><path class="h" d="M138.23,104.22v9.44h-.91c-.14,0-.25-.02-.34-.07s-.18-.13-.28-.23l-4.93-6.29c.02,.29,.03,.55,.03,.79v5.79h-1.55v-9.44h1.11c.06,0,.1,.02,.14,.03,.05,.02,.08,.05,.13,.08s.08,.09,.13,.15l4.94,6.32-.03-.45c0-.15-.01-.29-.01-.41v-5.73h1.55l.02,.02Z"/><path class="h" d="M145.22,113.66h-1.77v-9.44h1.77v9.44Z"/><path class="h" d="M157.04,105.67h-2.84v7.99h-1.75v-7.99h-2.84v-1.44h7.44v1.44h0Z"/><path class="h" d="M163.17,105.62v2.61h3.3v1.35h-3.3v2.67h4.18v1.4h-5.95v-9.44h5.95v1.4h-4.18Z"/><path class="h" d="M180.42,108.94c0,.69-.11,1.33-.34,1.9s-.55,1.08-.97,1.49-.92,.75-1.5,.97-1.24,.34-1.96,.34h-3.59v-9.44h3.59c.72,0,1.38,.11,1.96,.34s1.09,.56,1.5,.97,.75,.92,.97,1.49,.34,1.22,.34,1.9h0Zm-1.8,.01c0-.52-.07-.99-.21-1.4s-.33-.76-.6-1.04c-.26-.29-.57-.5-.94-.65s-.78-.23-1.24-.23h-1.83v6.64h1.83c.46,0,.87-.08,1.24-.23s.68-.37,.94-.65c.26-.29,.46-.63,.6-1.04,.14-.41,.21-.87,.21-1.39Z"/></g><g><path class="h" d="M125.41,120.39v9.44h-.91c-.14,0-.25-.02-.34-.07s-.18-.13-.28-.23l-4.93-6.29c.02,.29,.03,.55,.03,.79v5.79h-1.55v-9.44h1.11c.06,0,.1,.02,.14,.03,.05,.02,.08,.05,.13,.08s.08,.09,.13,.15l4.94,6.32-.03-.45c0-.15-.01-.29-.01-.41v-5.73h1.55l.02,.02Z"/><path class="h" d="M136.56,129.82h-1.35c-.15,0-.28-.03-.37-.11s-.17-.17-.22-.29l-.7-1.93h-3.91l-.7,1.93c-.03,.1-.1,.19-.21,.28s-.23,.13-.37,.13h-1.36l3.71-9.44h1.79l3.7,9.44h-.02Zm-3.1-3.57l-1.15-3.14c-.06-.14-.11-.31-.17-.49s-.13-.4-.18-.62c-.06,.22-.11,.44-.17,.62s-.11,.37-.17,.5l-1.15,3.13h2.99Z"/><path class="h" d="M144.19,121.83h-2.84v7.99h-1.75v-7.99h-2.84v-1.44h7.44v1.44h0Z"/><path class="h" d="M148.17,129.82h-1.77v-9.44h1.77v9.44Z"/><path class="h" d="M160.25,125.11c0,.69-.11,1.33-.34,1.93-.23,.58-.55,1.1-.96,1.52s-.92,.77-1.5,1.01-1.24,.37-1.96,.37-1.36-.13-1.95-.37-1.09-.57-1.51-1.01-.75-.94-.97-1.52c-.23-.58-.34-1.23-.34-1.93s.11-1.33,.34-1.93c.23-.58,.55-1.1,.97-1.52s.92-.77,1.51-1.01c.58-.24,1.24-.37,1.95-.37,.48,0,.93,.06,1.35,.17s.81,.26,1.16,.47c.36,.21,.66,.45,.95,.73s.52,.61,.71,.97c.19,.36,.34,.75,.45,1.16s.15,.86,.15,1.32h0Zm-1.79,0c0-.52-.07-.99-.21-1.4s-.33-.76-.6-1.04c-.25-.29-.57-.5-.94-.66-.37-.15-.78-.23-1.24-.23s-.87,.08-1.24,.23-.68,.37-.94,.66c-.26,.29-.46,.63-.6,1.04-.14,.41-.21,.87-.21,1.4s.07,.99,.21,1.39c.14,.41,.33,.76,.6,1.04,.26,.29,.57,.5,.94,.65s.78,.23,1.24,.23,.87-.08,1.24-.23,.68-.37,.94-.65c.25-.29,.46-.63,.6-1.04,.14-.41,.21-.87,.21-1.39Z"/><path class="h" d="M170.73,120.39v9.44h-.91c-.14,0-.25-.02-.34-.07s-.18-.13-.28-.23l-4.93-6.29c.02,.29,.03,.55,.03,.79v5.79h-1.55v-9.44h1.11c.06,0,.1,.02,.15,.03,.05,.02,.08,.05,.11,.08s.08,.09,.13,.15l4.94,6.32-.03-.45c-.01-.15-.01-.29-.01-.41v-5.73h1.55l.02,.02Z"/><path class="h" d="M178.82,122.11c-.05,.09-.1,.16-.16,.19-.06,.05-.14,.06-.22,.06s-.19-.03-.3-.1-.23-.14-.38-.23-.32-.16-.52-.23-.44-.1-.7-.1c-.24,0-.46,.03-.64,.09s-.33,.14-.46,.24-.22,.23-.28,.38c-.06,.15-.09,.31-.09,.48,0,.22,.06,.4,.18,.55s.29,.28,.49,.38,.44,.19,.7,.29,.53,.17,.8,.26c.28,.09,.54,.21,.8,.32s.49,.29,.7,.47,.37,.42,.49,.7c.13,.28,.18,.61,.18,1,0,.42-.07,.83-.22,1.19s-.36,.7-.64,.97-.62,.49-1.03,.65c-.4,.16-.87,.24-1.39,.24-.3,0-.6-.03-.88-.09s-.57-.14-.84-.25-.52-.24-.76-.39c-.23-.15-.45-.32-.63-.5l.52-.84c.05-.06,.1-.11,.17-.15s.14-.06,.22-.06c.1,0,.23,.05,.36,.14s.28,.18,.45,.3c.17,.1,.38,.21,.61,.3s.52,.14,.84,.14c.5,0,.88-.11,1.16-.36s.41-.57,.41-1.02c0-.25-.06-.45-.18-.61s-.29-.29-.49-.39-.44-.19-.7-.28-.53-.15-.79-.24c-.28-.09-.54-.19-.79-.31s-.49-.29-.7-.48c-.21-.19-.37-.44-.49-.73-.13-.3-.18-.65-.18-1.09,0-.34,.07-.68,.21-1.01,.14-.32,.33-.62,.6-.87,.26-.25,.58-.46,.96-.61s.83-.23,1.32-.23c.56,0,1.07,.09,1.54,.26s.87,.41,1.2,.73l-.44,.83h-.01Z"/></g><g><path class="h" d="M127.68,136.54v9.44h-1.55v-6.1c0-.24,.01-.5,.03-.79l-2.85,5.35c-.14,.25-.34,.39-.62,.39h-.25c-.28,0-.48-.13-.62-.39l-2.88-5.38c.01,.14,.02,.29,.03,.42,0,.14,.01,.26,.01,.39v6.1h-1.55v-9.44h1.52c.06,0,.1,.01,.15,.03s.09,.05,.13,.08,.07,.09,.1,.16l2.82,5.24c.07,.14,.14,.29,.21,.44,.06,.15,.13,.3,.18,.46,.06-.16,.13-.32,.19-.47s.14-.3,.21-.44l2.79-5.23c.03-.07,.07-.11,.11-.16s.08-.07,.13-.08,.09-.02,.15-.03,.13,0,.21,0h1.34Z"/><path class="h" d="M147.07,145.99h-1.35c-.15,0-.28-.03-.37-.11s-.17-.17-.22-.29l-.7-1.93h-3.91l-.7,1.93c-.03,.1-.1,.19-.21,.28s-.23,.13-.37,.13h-1.36l3.71-9.44h1.79l3.7,9.44h-.02Zm-3.1-3.57l-1.15-3.14c-.06-.14-.11-.31-.17-.49s-.13-.4-.18-.62c-.06,.22-.11,.44-.17,.62s-.11,.37-.17,.5l-1.15,3.13h2.99Z"/><path class="h" d="M164.61,145.99h-1.58c-.3,0-.52-.11-.65-.36l-1.98-3.03c-.07-.11-.16-.19-.24-.24-.09-.05-.22-.07-.39-.07h-.75v3.69h-1.75v-9.44h2.88c.64,0,1.19,.07,1.65,.19,.46,.14,.84,.32,1.12,.56,.3,.24,.52,.53,.65,.86s.21,.7,.21,1.1c0,.32-.05,.62-.14,.91s-.23,.54-.4,.77-.39,.44-.65,.61c-.26,.17-.55,.31-.88,.41,.11,.07,.22,.14,.31,.23s.18,.19,.26,.32l2.36,3.49h-.02Zm-4.52-4.95c.33,0,.62-.05,.86-.13s.45-.19,.61-.34,.28-.32,.36-.52c.08-.19,.11-.42,.11-.66,0-.48-.16-.85-.47-1.1-.32-.25-.8-.39-1.44-.39h-1.12v3.13h1.1Z"/><path class="h" d="M179.84,138.26c-.05,.09-.1,.16-.16,.19-.06,.05-.14,.06-.22,.06s-.19-.03-.3-.1-.23-.14-.38-.23-.32-.16-.52-.23-.44-.1-.7-.1c-.24,0-.46,.03-.64,.09s-.33,.14-.46,.24c-.13,.1-.22,.23-.28,.38s-.09,.31-.09,.48c0,.22,.06,.4,.18,.55s.29,.28,.49,.38,.44,.19,.7,.29,.53,.17,.8,.26c.28,.09,.54,.21,.8,.32s.49,.29,.7,.47,.37,.42,.49,.7c.13,.28,.18,.61,.18,1,0,.42-.07,.83-.22,1.19s-.36,.7-.64,.97-.62,.49-1.03,.65c-.4,.16-.87,.24-1.39,.24-.3,0-.6-.03-.88-.09s-.57-.14-.84-.25-.52-.24-.76-.39c-.23-.15-.45-.32-.63-.5l.52-.84c.05-.06,.1-.11,.17-.15s.14-.06,.22-.06c.1,0,.23,.05,.36,.14s.28,.18,.45,.3c.17,.1,.38,.21,.61,.3s.52,.14,.84,.14c.5,0,.88-.11,1.16-.36s.41-.57,.41-1.02c0-.25-.06-.45-.18-.61s-.29-.29-.49-.39-.44-.19-.7-.28-.53-.15-.79-.24c-.28-.09-.54-.19-.79-.31s-.49-.29-.7-.48c-.21-.19-.37-.44-.49-.73-.13-.3-.18-.65-.18-1.09,0-.34,.07-.68,.21-1.01,.14-.32,.33-.62,.6-.87,.26-.25,.58-.46,.96-.61,.38-.15,.83-.23,1.32-.23,.56,0,1.07,.09,1.54,.26s.87,.41,1.2,.73l-.44,.83h-.01Z"/></g><g><path class="h" d="M119.22,162.52h-1.77v-9.44h1.77v9.44Z"/><path class="h" d="M129.04,153.08v9.44h-.91c-.14,0-.25-.02-.34-.07s-.18-.13-.28-.23l-4.93-6.29c.02,.29,.03,.55,.03,.79v5.79h-1.55v-9.44h1.11c.06,0,.1,.02,.14,.03,.05,.02,.08,.05,.13,.08s.08,.09,.13,.15l4.94,6.32-.03-.45c0-.15-.01-.29-.01-.41v-5.73h1.55l.02,.02Z"/><path class="h" d="M132.67,162.52h-1.77v-9.44h1.77v9.44Z"/><path class="h" d="M141.13,154.53h-2.84v7.99h-1.75v-7.99h-2.84v-1.44h7.44v1.44h0Z"/><path class="h" d="M143.89,162.52h-1.77v-9.44h1.77v9.44Z"/><path class="h" d="M153.84,162.52h-1.35c-.15,0-.28-.03-.37-.11s-.17-.17-.22-.29l-.7-1.93h-3.91l-.7,1.93c-.03,.1-.1,.19-.21,.28s-.23,.13-.37,.13h-1.36l3.71-9.44h1.79l3.7,9.44h-.02Zm-3.1-3.57l-1.15-3.14c-.06-.14-.11-.31-.17-.49s-.13-.4-.18-.62c-.06,.22-.11,.44-.17,.62s-.11,.37-.17,.5l-1.15,3.13h2.99Z"/><path class="h" d="M160.26,154.53h-2.84v7.99h-1.75v-7.99h-2.84v-1.44h7.44v1.44h0Z"/><path class="h" d="M163.02,162.52h-1.77v-9.44h1.77v9.44Z"/><path class="h" d="M172.98,153.08l-3.81,9.44h-1.58l-3.81-9.44h1.41c.15,0,.28,.03,.37,.11s.17,.17,.22,.29l2.22,5.76c.07,.18,.15,.39,.22,.62s.13,.46,.19,.7c.05-.24,.1-.48,.17-.7s.13-.44,.21-.62l2.21-5.76c.03-.1,.1-.19,.21-.28s.23-.13,.38-.13h1.39Z"/><path class="h" d="M175.49,154.48v2.61h3.3v1.35h-3.3v2.67h4.18v1.4h-5.95v-9.44h5.95v1.4h-4.18Z"/></g></g><g id="e"><circle class="k" cx="149.15" cy="56.08" r="29.59"/><line class="j" x1="149.15" y1="26.48" x2="149.15" y2="85.67"/><line class="j" x1="119.55" y1="56.08" x2="178.74" y2="56.08"/><path class="j" d="M144.67,26.82s-10.7,10.65-10.7,29.26,10.7,29.26,10.7,29.26"/><path class="j" d="M153.21,26.82s10.7,10.65,10.7,29.26-10.7,29.26-10.7,29.26"/><path class="j" d="M126.58,75.23s5.98-4.21,22.57-4.21,22.57,4.21,22.57,4.21"/><path class="j" d="M126.58,37.54s5.98,4.21,22.57,4.21,22.57-4.21,22.57-4.21"/><path class="h" d="M166.96,31.09l7.8-6.67-5.17,.47c-2.82-1.66-6.2-2.82-6.2-2.82l24.14-6.67-6.39,24.71s-1.04-4.26-3-6.86l.61-5.49-7.03,7.93-4.77-4.61h.01Z"/></g><rect id="f" class="i" x="124.11" y="47.53" width="48.86" height="15.88"/><g><path class="h" d="M131.68,59.37c.45,0,.85-.07,1.2-.21s.65-.32,.89-.56c.24-.24,.42-.54,.56-.88,.13-.34,.19-.73,.19-1.17v-6.72h2.33v6.72c0,.66-.11,1.28-.36,1.85-.24,.56-.58,1.05-1.03,1.47s-.99,.73-1.63,.96-1.36,.34-2.17,.34-1.54-.11-2.17-.34-1.18-.55-1.63-.96-.79-.91-1.03-1.47-.36-1.18-.36-1.85v-6.72h2.33v6.71c0,.42,.07,.81,.19,1.17s.32,.64,.56,.88,.55,.44,.89,.57c.36,.14,.76,.21,1.2,.21h0Z"/><path class="h" d="M149.71,49.83v11.22h-1.19c-.18,0-.34-.02-.46-.08-.13-.06-.24-.15-.36-.28l-6.52-7.48c.03,.34,.06,.65,.06,.95v6.89h-2.05v-11.22h1.47c.07,0,.14,.02,.19,.05s.1,.06,.16,.1c.05,.05,.11,.1,.17,.17l6.56,7.51c-.02-.18-.03-.36-.05-.54-.01-.17-.02-.34-.02-.49v-6.82h2.04Z"/><path class="h" d="M165.75,49.83v11.22h-2.05v-7.25c0-.29,.01-.61,.05-.94l-3.78,6.37c-.18,.31-.45,.46-.83,.46h-.33c-.37,0-.64-.15-.83-.46l-3.82-6.4c.01,.17,.03,.34,.05,.5,0,.16,.01,.32,.01,.46v7.25h-2.05v-11.22h2.02c.08,0,.14,.02,.21,.03s.11,.06,.16,.1,.09,.1,.14,.18l3.75,6.24c.1,.16,.19,.33,.28,.52,.08,.17,.16,.36,.24,.54,.08-.19,.16-.38,.25-.55,.09-.18,.18-.36,.28-.52l3.69-6.21c.05-.08,.09-.14,.15-.18s.1-.08,.17-.1,.13-.03,.21-.03h2.05Z"/><path class="h" d="M170.56,61.06h-2.34v-11.22h2.34v11.22Z"/></g><g id="g"><path class="h" d="M155.49,21.3c-.46-.21-.96-.56-.77-1,.19-.44,1.02-.58,1.63-.52,.5,.05,4.84,2.58,4.64,3.02s-5.06-1.3-5.51-1.5h.01Z"/><path class="h" d="M153.15,19.52c-.53,.02-1.16-.07-1.17-.48,0-.41,.71-.83,1.32-1.01,.49-.15,5.74,.16,5.76,.57,.01,.41-5.37,.91-5.89,.92h-.01Z"/><path class="h" d="M149.07,20.67c-.48-.14-1.03-.44-.89-.89,.14-.46,.94-.71,1.55-.73,.5-.02,5.14,1.93,5,2.38s-5.18-.62-5.66-.77h.01Z"/><path class="h" d="M146.53,19.21c-.53,.09-1.16,.08-1.23-.32-.07-.41,.6-.92,1.17-1.17,.47-.22,5.72-.58,5.78-.17,.07,.4-5.21,1.59-5.73,1.67h.01Z"/><path class="h" d="M142.34,21.4c-.5-.01-1.1-.16-1.09-.64,.02-.48,.73-.92,1.32-1.09,.48-.15,5.46,.58,5.43,1.07-.02,.48-5.17,.69-5.68,.66h.01Z"/><path class="h" d="M139.51,20.62c-.48,.22-1.1,.37-1.27,0-.16-.38,.36-1.03,.84-1.43,.4-.33,5.39-1.99,5.56-1.62,.16,.38-4.64,2.84-5.12,3.05Z"/><path class="h" d="M136.14,23.21c-.5,.05-1.11-.01-1.16-.49s.61-1.01,1.17-1.25c.46-.21,5.48-.13,5.53,.36,.05,.48-5.03,1.35-5.54,1.4h0Z"/><path class="h" d="M133.24,22.81c-.46,.28-1.04,.5-1.26,.16-.22-.36,.22-1.07,.65-1.52,.36-.38,5.09-2.67,5.3-2.33,.22,.36-4.23,3.42-4.69,3.69Z"/><path class="h" d="M130.38,26.13c-.48,.16-1.09,.22-1.24-.24s.38-1.11,.87-1.48c.4-.3,5.33-1.31,5.48-.85s-4.63,2.41-5.11,2.56h0Z"/><path class="h" d="M127.46,26.36c-.38,.37-.92,.72-1.19,.42-.29-.3-.02-1.09,.31-1.63,.28-.45,4.39-3.7,4.68-3.41s-3.41,4.25-3.78,4.61h-.01Z"/><path class="h" d="M125.18,29.94c-.46,.22-1.05,.37-1.26-.07s.23-1.16,.68-1.58c.37-.36,5.11-1.98,5.32-1.55,.21,.44-4.28,2.99-4.73,3.2Z"/><path class="h" d="M122.3,30.55c-.33,.41-.81,.84-1.14,.57s-.16-1.08,.09-1.65c.21-.48,3.88-4.24,4.2-3.99,.32,.26-2.82,4.65-3.15,5.07Z"/><path class="h" d="M120.64,34.97c-.39,.32-.93,.62-1.24,.24-.31-.37-.07-1.17,.26-1.7,.26-.44,4.46-3.2,4.77-2.82,.31,.37-3.41,3.96-3.78,4.28h-.01Z"/><path class="h" d="M118.01,36.28c-.22,.48-.57,1.01-.95,.84s-.42-1.01-.32-1.63c.08-.52,2.69-5.08,3.07-4.91s-1.57,5.22-1.79,5.69h-.01Z"/><path class="h" d="M117.23,40.45c-.34,.38-.84,.73-1.19,.4s-.22-1.16,.03-1.72c.21-.46,4-3.75,4.36-3.43,.36,.33-2.85,4.37-3.2,4.73h0Z"/><path class="h" d="M114.79,42.08c-.15,.5-.45,1.08-.84,.95-.39-.13-.55-.94-.53-1.57,.01-.52,2.01-5.39,2.41-5.26,.39,.13-.88,5.38-1.03,5.88h-.01Z"/><path class="h" d="M114.92,46.83c-.25,.44-.65,.91-1.08,.66-.41-.24-.47-1.08-.36-1.67,.09-.49,3.05-4.56,3.47-4.32,.41,.24-1.8,4.9-2.05,5.33h.01Z"/><path class="h" d="M112.92,48.97c-.03,.53-.18,1.15-.6,1.12-.41-.03-.76-.79-.87-1.41-.1-.5,.75-5.7,1.16-5.66,.41,.03,.36,5.43,.31,5.96h0Z"/><path class="h" d="M113.65,53.16c-.18,.47-.54,.97-.97,.79-.45-.18-.61-1.01-.56-1.62,.03-.5,2.43-4.92,2.89-4.73,.45,.18-1.15,5.09-1.34,5.56h-.01Z"/><path class="h" d="M111.94,55.54c.03,.53-.03,1.17-.45,1.19s-.85-.69-1.05-1.28c-.17-.49,0-5.74,.41-5.77s1.05,5.34,1.09,5.87h0Z"/><path class="h" d="M113.69,59.92c-.07,.5-.28,1.08-.75,1.01-.48-.07-.84-.83-.95-1.42-.09-.49,1.14-5.37,1.62-5.3,.48,.07,.16,5.22,.09,5.71h-.01Z"/><path class="h" d="M112.64,62.66c.16,.5,.25,1.14-.14,1.26-.39,.13-1-.46-1.34-.99-.29-.44-1.43-5.56-1.04-5.69s2.35,4.91,2.51,5.41h.01Z"/><path class="h" d="M114.87,66.27c0,.5-.13,1.1-.61,1.1s-.94-.71-1.14-1.3c-.16-.48,.42-5.47,.91-5.47s.84,5.15,.83,5.65h.01Z"/><path class="h" d="M114.17,69.13c.23,.48,.4,1.09,.02,1.27-.38,.17-1.04-.32-1.46-.8-.34-.39-2.14-5.33-1.78-5.5s2.97,4.56,3.2,5.03h.01Z"/><path class="h" d="M117.19,72.3c.1,.49,.11,1.11-.37,1.2-.47,.1-1.07-.49-1.38-1.02-.26-.44-.76-5.43-.29-5.54,.47-.1,1.93,4.85,2.03,5.34h0Z"/><path class="h" d="M117.12,75.24c.32,.42,.63,.99,.3,1.24-.32,.25-1.09-.09-1.59-.47-.41-.31-3.24-4.75-2.91-5,.32-.25,3.89,3.82,4.21,4.23Z"/><path class="h" d="M120.44,77.86c.17,.48,.25,1.09-.21,1.25s-1.12-.34-1.5-.83c-.31-.4-1.46-5.29-1-5.46,.46-.16,2.53,4.56,2.71,5.03Z"/><path class="h" d="M120.77,80.79c.38,.37,.75,.89,.46,1.18s-1.09,.06-1.64-.26c-.45-.25-3.83-4.29-3.54-4.57s4.35,3.28,4.72,3.66Z"/><path class="h" d="M125,82.89c.29,.41,.52,.99,.11,1.26-.4,.26-1.18-.06-1.66-.42-.4-.31-2.73-4.76-2.33-5.03,.4-.26,3.59,3.78,3.88,4.21h0Z"/><path class="h" d="M126.03,85.64c.46,.26,.95,.68,.73,1.03-.21,.36-1.04,.32-1.65,.16-.5-.14-4.78-3.2-4.56-3.55,.21-.36,5.02,2.09,5.48,2.36Z"/><path class="h" d="M130.1,86.84c.33,.38,.64,.91,.28,1.23-.37,.32-1.17,.1-1.7-.21-.44-.25-3.32-4.36-2.96-4.69,.37-.32,4.06,3.28,4.39,3.67h-.01Z"/><path class="h" d="M131.49,89.43c.49,.21,1.03,.55,.87,.93-.16,.38-.99,.46-1.62,.37-.52-.07-5.15-2.55-4.99-2.92s5.25,1.42,5.74,1.63h-.01Z"/><path class="h" d="M136.4,89.83c.42,.29,.85,.72,.57,1.12-.28,.4-1.11,.38-1.7,.22-.48-.14-4.3-3.42-4.02-3.82s4.73,2.19,5.15,2.48h0Z"/><path class="h" d="M138.38,92.01c.53,.08,1.14,.28,1.07,.69-.07,.41-.85,.69-1.48,.76-.52,.06-5.62-1.2-5.56-1.62,.07-.4,5.45,.09,5.96,.17h.01Z"/><path class="h" d="M142.61,91.62c.46,.23,.93,.61,.71,1.04-.22,.42-1.05,.53-1.66,.44-.5-.07-4.7-2.83-4.48-3.26,.22-.42,4.98,1.56,5.43,1.79h0Z"/><path class="h" d="M144.84,93.52c.53,0,1.16,.13,1.15,.54,0,.41-.76,.79-1.36,.94-.5,.13-5.73-.46-5.72-.88,0-.41,5.41-.62,5.94-.61h0Z"/><path class="h" d="M149.35,92.13c.49,.1,1.05,.36,.95,.83s-.89,.77-1.5,.84c-.5,.06-5.26-1.57-5.15-2.04,.1-.47,5.22,.26,5.7,.38Z"/><path class="h" d="M152,93.41c.52-.13,1.16-.16,1.25,.24s-.53,.95-1.09,1.25c-.46,.25-5.66,.97-5.76,.57s5.08-1.95,5.59-2.06Z"/><path class="h" d="M155.77,91.47c.5,.05,1.09,.22,1.04,.7s-.78,.88-1.38,1.02c-.49,.11-5.41-.87-5.38-1.35,.05-.48,5.21-.41,5.71-.37Z"/><path class="h" d="M158.55,92.4c.49-.19,1.12-.31,1.27,.08s-.4,1.01-.92,1.39c-.42,.31-5.49,1.71-5.63,1.32-.15-.39,4.79-2.59,5.29-2.77h-.01Z"/><path class="h" d="M162.23,89.4c.5-.07,1.11-.03,1.18,.45s-.56,1.03-1.11,1.31c-.45,.23-5.47,.38-5.54-.1s4.98-1.57,5.47-1.64h0Z"/><path class="h" d="M165.16,89.67c.44-.3,1.02-.55,1.25-.21s-.16,1.08-.58,1.55c-.34,.39-4.96,2.9-5.19,2.56-.23-.34,4.08-3.6,4.52-3.9h.01Z"/><path class="h" d="M168.01,86.53c.48-.14,1.1-.17,1.23,.29s-.42,1.1-.93,1.43c-.41,.29-5.38,1.09-5.51,.62-.13-.47,4.72-2.21,5.22-2.34h0Z"/><path class="h" d="M170.95,86.43c.4-.36,.94-.69,1.22-.38,.28,.31-.02,1.09-.38,1.62-.29,.44-4.54,3.52-4.82,3.21-.28-.31,3.58-4.1,3.98-4.45Z"/><path class="h" d="M173.34,82.36c.44-.25,1.02-.45,1.26-.02,.24,.41-.14,1.17-.54,1.63-.33,.38-4.94,2.38-5.18,1.97s4.02-3.31,4.47-3.57h-.01Z"/><path class="h" d="M176.15,81.52c.3-.44,.75-.89,1.08-.66,.34,.23,.25,1.07,.05,1.66-.17,.49-3.52,4.54-3.86,4.31-.34-.23,2.44-4.86,2.74-5.3h0Z"/><path class="h" d="M177.64,77.54c.4-.31,.95-.57,1.25-.19,.29,.39,.01,1.18-.33,1.69-.29,.42-4.59,3.02-4.88,2.63-.29-.38,3.57-3.82,3.97-4.12h0Z"/><path class="h" d="M180.33,76.34c.24-.47,.62-.99,.99-.8s.38,1.02,.25,1.64c-.1,.5-2.9,4.96-3.27,4.77-.37-.18,1.79-5.14,2.03-5.61Z"/><path class="h" d="M180.99,72.02c.32-.39,.8-.77,1.18-.46,.37,.31,.26,1.15,.03,1.71-.18,.47-3.83,3.92-4.21,3.61-.37-.31,2.66-4.49,2.99-4.87h0Z"/><path class="h" d="M183.35,70.27c.13-.52,.39-1.1,.79-1s.6,.92,.6,1.55c0,.52-1.77,5.47-2.17,5.37s.64-5.4,.78-5.92Z"/><path class="h" d="M183.4,66.03c.28-.42,.7-.86,1.11-.61,.4,.26,.41,1.1,.26,1.7-.13,.49-3.29,4.39-3.7,4.13-.4-.26,2.05-4.8,2.33-5.22Z"/><path class="h" d="M185.51,63.99c.07-.53,.25-1.14,.65-1.09,.41,.06,.71,.83,.8,1.46,.07,.52-1.04,5.65-1.46,5.61s-.07-5.45,0-5.96h0Z"/><path class="h" d="M184.58,59.36c.16-.48,.47-1.01,.92-.86,.46,.15,.68,.96,.68,1.57,0,.5-2.1,5.07-2.56,4.92-.46-.15,.79-5.16,.95-5.63h.01Z"/><path class="h" d="M186.13,56.86c-.07-.53-.05-1.17,.37-1.22s.89,.63,1.14,1.2c.19,.48,.4,5.73-.01,5.79s-1.42-5.25-1.49-5.78h0Z"/><path class="h" d="M184.58,52.9c.09-.49,.33-1.07,.8-.97s.79,.87,.87,1.48c.07,.5-1.41,5.3-1.89,5.22-.47-.09,.11-5.22,.21-5.71h.01Z"/><path class="h" d="M185.78,50.23c-.14-.52-.19-1.15,.21-1.25,.4-.1,.96,.5,1.28,1.05,.26,.45,1.15,5.63,.75,5.74-.4,.1-2.1-5.02-2.22-5.54h-.01Z"/><path class="h" d="M183.64,46.43c.01-.5,.16-1.1,.64-1.09s.92,.73,1.1,1.32c.15,.48-.56,5.46-1.05,5.45-.48-.01-.7-5.17-.69-5.68Z"/><path class="h" d="M184.41,43.6c-.22-.48-.38-1.1,0-1.27,.38-.16,1.03,.34,1.43,.84,.33,.4,2.01,5.38,1.63,5.55-.38,.16-2.85-4.63-3.07-5.11h.01Z"/></g></g></svg>