<?xml version="1.0" encoding="utf-8"?>
<!-- Generator: Adobe Illustrator 27.5.0, SVG Export Plug-In . SVG Version: 6.00 Build 0)  -->
<svg version="1.1" id="ocean" xmlns="http://www.w3.org/2000/svg" xmlns:xlink="http://www.w3.org/1999/xlink" x="0px" y="0px"
	 viewBox="0 0 103.7 119.7" style="enable-background:new 0 0 103.7 119.7;" xml:space="preserve">
<style type="text/css">
	.st0{fill:#977355;}
	.st1{fill:url(#SVGID_1_);stroke:#000000;stroke-width:0.75;stroke-miterlimit:10;}
	.st2{fill:#B78C6C;}
	.st3{opacity:0.15;enable-background:new    ;}
	.st4{fill:#473628;}
</style>
<g id="miningRightsArea_00000089574662872130792260000016830216906101984909_">
	<polygon points="103.7,89.7 103.7,29.9 51.9,0 0,29.9 0,89.7 51.9,119.7 	"/>
	<polygon class="st0" points="102.1,88.8 102.1,30.7 51.9,1.7 1.6,30.7 1.6,88.8 51.9,117.8 	"/>
	
		<linearGradient id="SVGID_1_" gradientUnits="userSpaceOnUse" x1="51.947" y1="-8.8878" x2="51.947" y2="99.366" gradientTransform="matrix(1 0 0 -1 0 104.9921)">
		<stop  offset="0" style="stop-color:#231C1B"/>
		<stop  offset="1" style="stop-color:#D3B39B"/>
	</linearGradient>
	<polygon class="st1" points="98.8,86.9 98.8,32.7 51.9,5.6 5,32.7 5,86.9 51.9,113.9 	"/>
	<polygon class="st2" points="95.5,85 95.5,34.6 51.9,9.6 8.4,34.6 8.4,85 51.9,109.9 	"/>
	<path class="st3" d="M103.4,88V50.6l0,0c-51.5,7.7-51.5,7.7-103.1,0l0,0V88l51.5,29.8L103.4,88z"/>
	<g>
		
			<rect x="22.4" y="38.4" transform="matrix(0.7071 -0.7071 0.7071 0.7071 -20.8549 37.9996)" class="st4" width="26.1" height="11.6"/>
		<path class="st4" d="M74.7,82.9l-0.3,0.3c-1.9,1.9-5.1,1.9-7.2,0L28.1,41.4l4.5-4.5l42.1,38.9C76.6,77.8,76.6,81,74.7,82.9z"/>
		<path class="st4" d="M56.7,39.2l8.3-8.1l11.7,12c3.6,3.8,3.6,9.6-0.1,13.2l-1.6,1.6L56.7,39.2z"/>
		<path class="st4" d="M30.8,83.2l-0.3-0.3c-1.9-2-1.9-5.2,0.1-7.2l42.3-38.6l4.5,4.6L37.9,83.2C36,85.3,32.8,85.2,30.8,83.2z"/>
	</g>
</g>
</svg>
