<?xml version="1.0" encoding="UTF-8"?><svg id="Layer" xmlns="http://www.w3.org/2000/svg" xmlns:xlink="http://www.w3.org/1999/xlink" viewBox="0 0 722.5 380.91"><defs><style>.cls-1{fill:url(#linear-gradient-2);}.cls-2,.cls-3{fill:#020303;}.cls-4{stroke-width:4px;}.cls-4,.cls-5,.cls-6,.cls-7{stroke-miterlimit:10;}.cls-4,.cls-5,.cls-7{stroke:#1d1d1b;}.cls-4,.cls-5,.cls-8{fill:none;}.cls-9{fill:url(#linear-gradient-6);}.cls-10{fill:#1f1f1e;}.cls-5{stroke-width:3px;}.cls-6{fill:#07562a;stroke:#1c4421;stroke-width:3.73px;}.cls-7{fill:#fff;opacity:0;}.cls-11{fill:url(#Nowy_wzorek_4);opacity:.1;}.cls-11,.cls-3{isolation:isolate;}.cls-12{fill:#44ac36;}.cls-13{fill:url(#linear-gradient-5);}.cls-14{fill:url(#linear-gradient-3);}.cls-3{opacity:.05;}.cls-15{fill:url(#linear-gradient);}.cls-16{fill:url(#linear-gradient-4);}</style><linearGradient id="linear-gradient" x1="401.06" y1="567.77" x2="156.84" y2="323.55" gradientTransform="translate(0 -252.64)" gradientUnits="userSpaceOnUse"><stop offset="0" stop-color="#9e9d9c"/><stop offset=".54" stop-color="#010202"/><stop offset="1" stop-color="#9e9d9c"/></linearGradient><linearGradient id="linear-gradient-2" x1="279.03" y1="527.71" x2="279.03" y2="363.64" gradientTransform="translate(0 -252.64)" gradientUnits="userSpaceOnUse"><stop offset="0" stop-color="#462c1b"/><stop offset="1" stop-color="#b18048"/></linearGradient><linearGradient id="linear-gradient-3" x1="278.96" y1="523.53" x2="278.96" y2="367.67" gradientTransform="translate(0 -252.64)" gradientUnits="userSpaceOnUse"><stop offset="0" stop-color="#946137"/><stop offset="1" stop-color="#805127"/></linearGradient><pattern id="Nowy_wzorek_4" x="0" y="0" width="19.7" height="21.7" patternTransform="translate(45.4 16650.47)" patternUnits="userSpaceOnUse" viewBox="0 0 19.7 21.7"><g><rect class="cls-8" width="19.7" height="21.7"/><g><rect class="cls-8" width="19.7" height="21.7"/><g><rect class="cls-8" width="19.7" height="21.7"/><g><rect class="cls-8" width="19.7" height="21.7"/><g><rect class="cls-8" width="19.7" height="21.7"/><path class="cls-10" d="M16.6,8.7c2.1,2.1,2.1,5.6,0,7.7l-1.2,1.2c-2.1,2.1-5.6,2.1-7.8,0L3.1,13c-2.1-2.1-2.1-5.6,0-7.7l1.2-1.2c2.1-2.1,5.6-2.1,7.7,0l4.6,4.6Z"/></g></g></g></g></g></pattern><linearGradient id="linear-gradient-4" x1="-642.68" y1="1210.67" x2="-565.24" y2="1133.24" gradientTransform="translate(-190.87 -1062.82) rotate(-45)" gradientUnits="userSpaceOnUse"><stop offset="0" stop-color="#0c6835"/><stop offset=".04" stop-color="#0a6b36"/><stop offset=".08" stop-color="#047638"/><stop offset=".13" stop-color="#078738"/><stop offset=".15" stop-color="#058f39"/><stop offset=".35" stop-color="#34993d"/><stop offset=".76" stop-color="#5eaf47"/><stop offset="1" stop-color="#6eb74a"/></linearGradient><linearGradient id="linear-gradient-5" x1="-544.39" y1="1308.96" x2="-466.95" y2="1231.53" xlink:href="#linear-gradient-4"/><linearGradient id="linear-gradient-6" x1="-407.21" y1="1446.14" x2="-329.77" y2="1368.71" xlink:href="#linear-gradient-4"/></defs><rect class="cls-7" x="2" y="1.5" width="720" height="378.91"/><line class="cls-5" x1="2" y1="1.5" x2="362" y2="1.5"/><line class="cls-4" x1="2" y1="1.5" x2="2" y2="194.46"/><g id="prodBg"><rect id="external-border" class="cls-15" x="121.37" y="106.39" width="315.15" height="173.28"/><rect id="internal-border" class="cls-1" x="125.99" y="111" width="306.08" height="164.08"/><rect id="bg" class="cls-14" x="130.02" y="115.04" width="297.88" height="155.85"/><rect id="bgPattern" class="cls-11" x="130.02" y="115.04" width="297.88" height="155.85"/></g><g id="plant"><rect class="cls-2" x="152.65" y="134.82" width="116.22" height="116.22"/><rect class="cls-16" x="156" y="138.17" width="109.51" height="109.51"/><rect class="cls-12" x="161.32" y="143.49" width="98.89" height="98.89"/><path id="leaf" class="cls-6" d="M210.71,167.9c-14.17,1.96-24.98,11.18-24.98,24.98,0,3.36,.65,6.62,1.86,9.6-2.61,1.77-6.43,4.1-8.29,4.75-3.26,1.12-9.79,.37-10.07,.93s1.86,6.43,2.61,6.71,6.71,.28,10.07-.93c2.42-.84,6.8-3.63,9.32-5.5,4.57,5.78,11.65,9.41,19.57,9.41,13.79,0,24.79-8.67,24.79-22.46,0-5.31,1.3-12.02,3.26-16.22,2.14-4.66,13.23-7.64,13.23-7.64-1.12-3.63-35.79-4.38-41.38-3.63Z"/><path id="darker" class="cls-3" d="M265.51,247.68h-109.51v-60.02s34.48,5.31,54.71,5.31,54.8-5.31,54.8-5.31v60.02Z"/></g><g id="plant-2"><rect class="cls-2" x="291.65" y="134.82" width="116.22" height="116.22"/><rect class="cls-13" x="295" y="138.17" width="109.51" height="109.51"/><rect class="cls-12" x="300.32" y="143.49" width="98.89" height="98.89"/><path id="leaf-2" class="cls-6" d="M349.71,167.9c-14.17,1.96-24.98,11.18-24.98,24.98,0,3.36,.65,6.62,1.86,9.6-2.61,1.77-6.43,4.1-8.29,4.75-3.26,1.12-9.79,.37-10.07,.93s1.86,6.43,2.61,6.71,6.71,.28,10.07-.93c2.42-.84,6.8-3.63,9.32-5.5,4.57,5.78,11.65,9.41,19.57,9.41,13.79,0,24.79-8.67,24.79-22.46,0-5.31,1.3-12.02,3.26-16.22,2.14-4.66,13.23-7.64,13.23-7.64-1.12-3.63-35.79-4.38-41.38-3.63Z"/><path id="darker-2" class="cls-3" d="M404.51,247.68h-109.51v-60.02s34.48,5.31,54.71,5.31,54.8-5.31,54.8-5.31v60.02Z"/></g><g id="plant-3"><rect class="cls-2" x="485.65" y="134.82" width="116.22" height="116.22"/><rect class="cls-9" x="489" y="138.17" width="109.51" height="109.51"/><rect class="cls-12" x="494.32" y="143.49" width="98.89" height="98.89"/><path id="leaf-3" class="cls-6" d="M543.71,167.9c-14.17,1.96-24.98,11.18-24.98,24.98,0,3.36,.65,6.62,1.86,9.6-2.61,1.77-6.43,4.1-8.29,4.75-3.26,1.12-9.79,.37-10.07,.93s1.86,6.43,2.61,6.71,6.71,.28,10.07-.93c2.42-.84,6.8-3.63,9.32-5.5,4.57,5.78,11.65,9.41,19.57,9.41,13.79,0,24.79-8.67,24.79-22.46,0-5.31,1.3-12.02,3.26-16.22,2.14-4.66,13.23-7.64,13.23-7.64-1.12-3.63-35.79-4.38-41.38-3.63Z"/><path id="darker-3" class="cls-3" d="M598.51,247.68h-109.51v-60.02s34.48,5.31,54.71,5.31,54.8-5.31,54.8-5.31v60.02Z"/></g></svg>