<?xml version="1.0" encoding="UTF-8"?><svg id="Layer" xmlns="http://www.w3.org/2000/svg" xmlns:xlink="http://www.w3.org/1999/xlink" viewBox="0 0 642.87 116.22"><defs><style>.cls-1{fill:url(#linear-gradient-2);}.cls-2{fill:#07562c;stroke:#1d4422;stroke-miterlimit:10;stroke-width:3.72px;}.cls-3,.cls-4,.cls-5,.cls-6{fill:#030404;}.cls-4{opacity:.05;}.cls-4,.cls-5,.cls-6{isolation:isolate;}.cls-7{fill:#18291b;}.cls-8{fill:url(#radial-gradient);}.cls-5{opacity:.08;}.cls-9{fill:#3d4920;}.cls-10{fill:#96c227;}.cls-11{fill:url(#linear-gradient-3);}.cls-12{fill:#46ac36;}.cls-13{fill:#115729;}.cls-14{fill:url(#linear-gradient);}.cls-15{fill:url(#linear-gradient-4);}.cls-6{opacity:.12;}</style><linearGradient id="linear-gradient" x1="-298.22" y1="-779.4" x2="-220.75" y2="-701.94" gradientTransform="translate(244.51 -648.99) rotate(-45) scale(1 -1)" gradientUnits="userSpaceOnUse"><stop offset="0" stop-color="#3d4920"/><stop offset=".14" stop-color="#4b5e24"/><stop offset=".42" stop-color="#69852b"/><stop offset=".66" stop-color="#81a42c"/><stop offset=".86" stop-color="#8fb923"/><stop offset="1" stop-color="#96c227"/></linearGradient><linearGradient id="linear-gradient-2" x1="408.82" y1="383.56" x2="408.82" y2="276.6" gradientTransform="translate(0 -272.18)" gradientUnits="userSpaceOnUse"><stop offset="0" stop-color="#3d4920"/><stop offset=".14" stop-color="#4d5e23"/><stop offset=".42" stop-color="#69852b"/><stop offset=".66" stop-color="#81a42c"/><stop offset=".86" stop-color="#8fb923"/><stop offset="1" stop-color="#96c227"/></linearGradient><linearGradient id="linear-gradient-3" x1="233.36" y1="5.93" x2="233.36" y2="113" gradientTransform="translate(0 117.31) scale(1 -1)" gradientUnits="userSpaceOnUse"><stop offset="0" stop-color="#0f6936"/><stop offset=".03" stop-color="#126a36"/><stop offset=".05" stop-color="#087038"/><stop offset=".07" stop-color="#097939"/><stop offset=".08" stop-color="#0b8439"/><stop offset=".08" stop-color="#0a9039"/><stop offset=".12" stop-color="#0f9039"/><stop offset=".68" stop-color="#46ac36"/><stop offset="1" stop-color="#6eb74b"/></linearGradient><linearGradient id="linear-gradient-4" x1="57.9" y1="383.56" x2="57.9" y2="276.49" gradientTransform="translate(0 -272.18)" gradientUnits="userSpaceOnUse"><stop offset="0" stop-color="#204d23"/><stop offset="1" stop-color="#96aa47"/></linearGradient><radialGradient id="radial-gradient" cx="57.62" cy="329.78" fx="30.77" fy="329.78" r="47.74" gradientTransform="translate(0 -272.18)" gradientUnits="userSpaceOnUse"><stop offset=".24" stop-color="#96aa47"/><stop offset=".39" stop-color="#89a242"/><stop offset=".67" stop-color="#67912e"/><stop offset="1" stop-color="#397931"/></radialGradient></defs><g id="microbe"><rect class="cls-3" x="526.65" width="116.22" height="116.22"/><rect class="cls-14" x="529.99" y="3.44" width="109.55" height="109.55"/><rect class="cls-10" x="535.37" y="8.72" width="98.9" height="98.9"/><g id="microbes"><polygon class="cls-9" points="585.94 68.01 581.32 68.66 581.96 73.28 577.34 72.64 576.58 77.16 572.39 75.11 570.23 79.31 566.9 76.08 563.67 79.42 561.41 75.33 557.32 77.59 556.35 73.07 551.83 73.93 552.15 69.3 547.53 68.98 549.25 64.57 545.05 62.85 547.96 59.29 544.41 56.28 548.28 53.7 545.7 49.72 550.11 48.43 548.82 44.01 553.45 44.12 553.55 39.28 558.07 40.78 559.47 36.37 563.24 39.06 565.93 35.19 568.83 38.96 572.49 36.05 574.22 40.46 578.52 38.74 578.84 43.37 583.47 43.15 582.39 47.67 586.91 48.86 584.55 52.84 588.53 55.31 585.08 58.33 588.31 61.88 584.01 63.81 585.94 68.01"/><polygon class="cls-9" points="626.08 49.39 624.58 49.93 624.58 51.98 622.21 51.22 620.6 52.73 618.23 51.12 615.86 51.76 609.08 52.62 606.18 52.41 603.16 46.81 599.83 45.73 597.03 42.72 593.91 41.22 591.33 38.2 588.31 36.7 586.38 33.25 583.79 31.1 582.72 28.52 580.89 26.47 580.67 24.32 579.17 22.49 580.46 21.09 580.56 18.94 581.96 18.94 583.25 17.65 585.19 18.4 588.31 15.5 590.79 17.22 593.59 17.43 596.38 19.48 599.61 20.34 601.33 24.97 604.88 26.36 607.36 29.27 610.59 31.21 612.74 34.11 615.97 36.27 621.13 38.96 623.72 41.43 624.04 43.48 625.76 45.52 625.22 47.24 626.08 49.39"/><polygon class="cls-9" points="621.03 71.56 621.35 72.21 621.99 73.61 620.7 74.36 620.81 76.08 617.58 77.27 616.29 79.2 612.42 82.97 608.01 85.12 602.19 86.84 598.75 88.99 594.12 89.96 590.25 91.9 585.62 92.76 582.07 94.48 577.55 94.7 573.68 95.88 570.66 95.77 567.33 96.42 565.28 95.88 562.49 96.42 562.38 95.02 561.52 94.7 561.73 93.3 561.41 91.79 563.67 90.72 563.45 87.38 566.79 86.2 569.16 84.26 573.03 82.86 577.66 81.68 581.75 80.92 585.62 78.88 590.03 78.13 594.23 76.19 598.43 75.65 602.73 73.93 609.19 71.13 613.28 70.06 615.32 70.49 618.34 69.84 619.52 70.92 621.03 71.56"/></g><path id="darker" class="cls-6" d="M639.54,112.88h-109.55V52.84s34.44,5.27,54.67,5.27,54.77-5.27,54.77-5.27l.11,60.05h0Z"/></g><path d="M485.87,51.01v-12.38h12.38v12.38h-12.38Zm0,33.57v-12.38h12.38v12.38h-12.38Z"/><g id="tagMicrobe"><path class="cls-3" d="M466.6,57.9c0,31.85-25.93,57.79-57.79,57.79s-57.79-25.93-57.79-57.79S376.96,.11,408.82,.11s57.79,25.83,57.79,57.79Z"/><path class="cls-1" d="M462.3,57.9c0,29.49-24,53.48-53.48,53.48s-53.48-24-53.48-53.48,24-53.48,53.48-53.48,53.48,23.89,53.48,53.48Z"/><path class="cls-10" d="M457.24,57.9c0,26.69-21.63,48.32-48.43,48.32s-48.43-21.63-48.43-48.32,21.63-48.43,48.43-48.43,48.43,21.74,48.43,48.43Z"/><g id="microbes-2"><polygon class="cls-9" points="410.86 63.92 406.66 64.46 407.31 68.76 403.01 68.12 402.36 72.31 398.38 70.49 396.55 74.25 393.43 71.24 390.41 74.47 388.37 70.59 384.5 72.75 383.74 68.44 379.55 69.41 379.87 65.1 375.56 64.78 377.18 60.8 373.2 59.19 375.99 55.85 372.55 53.16 376.21 50.69 373.84 47.13 378.04 45.95 376.75 41.75 381.05 41.86 381.05 37.56 385.14 38.85 386.54 34.76 389.98 37.23 392.57 33.68 395.15 37.13 398.59 34.44 400.1 38.52 404.08 37.02 404.4 41.22 408.71 41 407.63 45.2 411.83 46.17 409.57 49.93 413.34 52.19 410.11 55.1 413.01 58.22 409.14 60.05 410.86 63.92"/><polygon class="cls-9" points="447.88 46.81 446.48 47.24 446.48 49.18 444.22 48.53 442.82 49.82 440.67 48.32 438.41 48.96 432.17 49.72 429.59 49.61 426.79 44.34 423.67 43.37 421.19 40.68 418.18 39.28 415.81 36.37 413.01 35.08 411.29 31.96 408.82 29.92 407.96 27.55 406.23 25.72 406.02 23.67 404.62 21.95 405.8 20.66 405.91 18.83 407.31 18.83 408.39 17.54 410.11 18.29 413.12 15.5 415.38 17.11 417.86 17.33 420.55 19.15 423.56 20.02 425.07 24.32 428.4 25.5 430.55 28.19 433.67 30.02 435.61 32.71 438.62 34.65 443.36 37.13 445.62 39.39 446.05 41.32 447.56 43.15 447.02 44.77 447.88 46.81"/><polygon class="cls-9" points="443.14 67.15 443.47 67.8 444.11 69.09 442.82 69.84 442.93 71.24 440.02 72.42 438.84 74.25 435.18 77.8 431.2 79.63 425.82 81.25 422.7 83.18 418.5 84.15 414.84 85.77 410.65 86.63 407.31 88.24 403.22 88.46 399.67 89.53 396.87 89.43 393.86 90.07 391.92 89.53 389.34 89.96 389.23 88.78 388.37 88.46 388.59 87.17 388.37 85.77 390.41 84.8 390.2 81.68 393.43 80.71 395.47 78.88 399.02 77.59 403.22 76.51 406.99 75.87 410.65 73.93 414.73 73.18 418.5 71.45 422.38 71.02 426.36 69.41 432.28 66.83 435.93 65.86 437.87 66.18 440.78 65.64 441.85 66.5 443.14 67.15"/></g><path id="ciemniej" class="cls-5" d="M462.3,57.9c0-1.08,0-2.15-.11-3.12-10.76,3.01-29.38,6.78-53.38,6.78s-42.08-4.73-53.27-8.72c-.22,1.72-.32,3.34-.32,5.06,0,29.49,24,53.48,53.48,53.48s53.59-24,53.59-53.48h0Z"/></g><path d="M297.55,97.07l36.7-78.45h9.47l-36.7,78.45h-9.47Z"/><g id="tagPlant"><path class="cls-3" d="M291.09,57.9c0,31.85-25.93,57.79-57.79,57.79s-57.79-25.93-57.79-57.79S201.45,.11,233.3,.11s57.79,25.83,57.79,57.79Z"/><path class="cls-11" d="M286.89,57.9c0,29.49-24,53.48-53.48,53.48s-53.59-24-53.59-53.48S203.71,4.3,233.19,4.3s53.7,23.89,53.7,53.59h0Z"/><path class="cls-12" d="M281.62,57.9c0,26.69-21.63,48.32-48.43,48.32s-48.21-21.74-48.21-48.32,21.63-48.43,48.43-48.43,48.21,21.63,48.21,48.43Z"/><path id="leaf" class="cls-2" d="M233.3,36.27c-12.27,1.72-21.63,9.58-21.63,21.63,0,3.01,.54,5.81,1.72,8.29-2.26,1.61-5.49,3.44-7.21,4.09-2.91,.97-8.5,.32-8.61,.75s1.72,5.6,2.26,5.81c.54,.32,5.81,.22,8.61-.75,2.04-.75,5.92-3.12,8.07-4.73,3.87,4.95,10.12,8.18,17,8.18,11.94,0,21.52-7.53,21.52-19.48,0-4.63,1.08-10.44,2.8-14.1,1.83-4.09,11.41-6.67,11.41-6.67-1.08-3.01-30.99-3.77-35.94-3.01h0Z"/><path id="darker-2" class="cls-4" d="M286.89,57.9c0-1.08,0-2.15-.11-3.12-10.76,3.01-29.38,6.78-53.38,6.78s-42.08-4.73-53.27-8.72c-.22,1.72-.32,3.34-.32,5.06,0,29.49,24,53.48,53.48,53.48s53.48-24,53.59-53.48h0Z"/></g><path d="M123.43,97.07L160.23,18.51h9.47l-36.7,78.45h-9.58v.11Z"/><g id="tagAnimal"><path class="cls-3" d="M115.57,57.9c0,31.85-25.93,57.79-57.79,57.79S0,89.75,0,57.9,25.93,.11,57.79,.11s57.79,25.83,57.79,57.79Z"/><path class="cls-15" d="M111.38,57.9c0,29.49-24,53.48-53.48,53.48S4.41,87.38,4.41,57.9,28.3,4.3,57.79,4.3s53.59,23.89,53.59,53.59h0Z"/><path class="cls-8" d="M106.11,57.9c0,26.69-21.63,48.32-48.43,48.32S9.47,84.48,9.47,57.9,31.1,9.47,57.9,9.47s48.21,21.63,48.21,48.43h0Z"/><path id="darker-3" class="cls-5" d="M111.38,57.9c0-1.08,0-2.15-.11-3.12-10.76,3.01-29.38,6.78-53.38,6.78S15.82,56.82,4.63,52.84c-.22,1.72-.32,3.34-.32,5.06,0,29.49,24,53.48,53.48,53.48s53.59-24,53.59-53.48h0Z"/><path class="cls-13" d="M45.3,25.07c-.32,0-3.01,.32-4.52,2.58-.65,.86-.97,1.83-1.08,2.8-.43,2.04-1.08,5.81,.43,10.33,.75,2.15,1.61,4.73,3.98,6.56,.75,.54,2.26,1.61,4.2,1.4,2.15-.22,3.44-1.83,3.87-2.37,1.83-2.15,1.83-4.63,1.94-7.32,0-1.29,0-5.27-2.04-9.47-1.4-2.8-2.58-3.55-3.12-3.77-1.61-1.08-3.23-.86-3.66-.75h0Z"/><path class="cls-13" d="M71.02,23.46c-.32-.11-2.91-.65-5.17,.86-.86,.54-1.51,1.29-2.04,2.26-1.08,1.83-3.12,4.95-3.23,9.79-.11,2.37-.22,5.06,1.51,7.53,.54,.75,1.61,2.26,3.44,2.69,2.04,.54,3.87-.43,4.52-.86,2.37-1.4,3.44-3.77,4.52-6.24,.43-1.18,1.83-4.95,1.4-9.58-.32-3.12-1.18-4.2-1.72-4.63-1.29-1.29-2.8-1.61-3.23-1.83h0Z"/><path class="cls-13" d="M27.87,39.92c-.32,.11-2.91,.65-4.3,3.01-.54,.97-.75,1.83-.86,2.91-.22,2.04-.54,5.81,1.29,10.22,.97,2.04,1.94,4.52,4.63,6.13,.86,.43,2.37,1.29,4.3,.97,2.15-.32,3.23-2.04,3.77-2.69,1.61-2.37,1.51-4.84,1.29-7.53-.11-1.29-.43-5.17-3.01-9.25-1.61-2.58-2.91-3.23-3.55-3.55-1.61-.54-3.01-.22-3.55-.22h0Z"/><path class="cls-13" d="M86.52,37.77c-.32-.11-2.91-.65-5.17,.97-.86,.65-1.4,1.4-1.94,2.37-1.08,1.83-3.01,5.06-3.01,9.9,0,2.37-.11,5.06,1.72,7.43,.54,.75,1.72,2.26,3.55,2.58,2.04,.43,3.77-.54,4.52-.97,2.37-1.4,3.34-3.87,4.3-6.35,.43-1.18,1.72-4.95,1.08-9.58-.43-3.12-1.29-4.2-1.72-4.63-1.29-1.29-2.8-1.61-3.34-1.72h0Z"/><path class="cls-7" d="M85.87,40.68c-.22,0-2.15-.43-3.77,.75-.65,.43-1.08,1.08-1.51,1.72-.75,1.4-2.15,3.77-2.26,7.32,0,1.72-.11,3.77,1.29,5.6,.43,.54,1.18,1.72,2.58,1.94,1.61,.32,2.91-.43,3.34-.65,1.72-1.08,2.37-2.8,3.12-4.73,.43-.97,1.29-3.77,.86-7.21-.32-2.26-1.08-3.12-1.29-3.44-.86-.97-1.94-1.29-2.37-1.29Z"/><path class="cls-7" d="M70.27,26.58c-.22-.11-2.15-.43-3.77,.54-.65,.43-1.08,.97-1.51,1.72-.86,1.29-2.26,3.66-2.37,7.32-.11,1.72-.22,3.77,1.08,5.6,.43,.54,1.08,1.72,2.48,2.04,1.61,.32,2.91-.32,3.34-.54,1.72-1.08,2.48-2.69,3.23-4.52,.43-.97,1.4-3.66,1.08-7.1-.32-2.26-.97-3.12-1.18-3.44-.97-1.29-2.04-1.51-2.37-1.61h0Z"/><path class="cls-7" d="M45.63,28.09c-.22,0-2.15,.32-3.34,1.83-.43,.65-.65,1.29-.86,2.04-.32,1.51-.86,4.2,.32,7.64,.54,1.61,1.08,3.55,3.01,4.84,.54,.32,1.72,1.08,3.12,1.08,1.61-.22,2.48-1.29,2.91-1.72,1.29-1.61,1.4-3.44,1.51-5.38,0-.97,0-3.87-1.61-6.99-1.08-2.04-1.94-2.58-2.37-2.8-1.18-.65-2.26-.65-2.69-.54h0Z"/><path class="cls-7" d="M28.52,42.61c-.22,0-2.26,.43-3.23,2.37-.43,.75-.54,1.4-.65,2.26-.22,1.61-.43,4.52,1.08,7.86,.65,1.61,1.51,3.55,3.55,4.63,.65,.32,1.83,.97,3.23,.75,1.61-.32,2.48-1.61,2.8-2.04,1.18-1.83,1.08-3.77,1.08-5.81-.11-.97-.43-3.98-2.26-7.1-1.18-2.04-2.26-2.48-2.69-2.69-1.4-.43-2.69-.11-2.91-.22h0Z"/><path class="cls-13" d="M57.68,47.56c-1.29,.11-2.69,.11-4.3,.97-1.72,.97-2.8,2.37-3.77,3.55-.86,1.08-.75,1.18-1.94,3.12-1.08,1.72-1.72,2.69-2.69,3.87-1.18,1.4-2.37,2.26-4.52,3.87-2.37,1.83-2.48,1.72-3.12,2.37-1.61,1.83-1.94,3.87-2.26,5.27-.22,1.29-.65,3.77,.43,6.56,.43,1.18,1.29,3.55,3.44,4.52,.86,.32,1.72,.43,3.77,.32,3.44-.22,5.81-.86,7.86-1.29,2.37-.54,4.95-1.08,8.07-1.18,3.77-.11,7.21,.54,8.93,.86,2.04,.32,3.55,.86,6.46,1.08,2.37,.32,3.66,.22,5.06-.32,.86-.32,2.37-.75,3.44-2.04,1.18-1.51,1.29-3.12,1.29-4.73,.11-1.08,.11-3.87-1.51-6.99-.65-1.4-1.18-2.04-3.34-4.63-5.81-7.21-6.03-7.96-8.39-10.01-1.4-1.18-2.8-2.37-4.95-3.44-1.29-.54-4.2-1.94-7.96-1.72h0Z"/><path class="cls-7" d="M58,50.04c-1.08,.11-2.37,.11-3.77,.86-1.51,.86-2.37,2.04-3.12,3.12-.75,.97-.65,.97-1.72,2.8-.97,1.51-1.51,2.37-2.37,3.23-1.08,1.18-2.04,1.94-3.87,3.34-2.04,1.61-2.15,1.4-2.8,2.15-1.4,1.61-2.58,3.98-2.91,5.17-.22,1.08-.54,3.12,.32,5.6,.43,1.08,1.08,3.12,3.01,3.87,.75,.32,2.37-.11,4.09-.32,3.01-.22,5.06-.75,6.78-1.08,2.04-.43,4.3-.97,6.99-.97,3.23-.11,6.13,.43,7.75,.75,1.72,.32,3.12,.75,5.49,.97,2.04,.22,4.52,.97,5.7,.65,.75-.22,1.94-.75,3.01-1.94,1.08-1.18,.75-3.87,.86-5.27,.11-.97-.75-3.01-2.37-5.7-.75-1.29-1.08-1.83-2.91-3.98-4.95-6.13-5.27-6.89-7.21-8.61-1.18-.97-2.37-2.04-4.3-3.01-.97-.54-3.44-1.83-6.67-1.61h0Z"/></g></svg>