<?xml version="1.0" encoding="UTF-8"?><svg id="Layer" xmlns="http://www.w3.org/2000/svg" xmlns:xlink="http://www.w3.org/1999/xlink" viewBox="0 0 721 379.91"><defs><style>.cls-1{fill:url(#linear-gradient-2);}.cls-2,.cls-3{fill:#020303;}.cls-4{fill:url(#linear-gradient-6);}.cls-5{fill:#48ad38;}.cls-6{fill:#1f1f1e;}.cls-7{fill:#fff;opacity:0;stroke:#1d1d1b;}.cls-7,.cls-8,.cls-9,.cls-10{stroke-miterlimit:10;}.cls-11{fill:url(#Nowy_wzorek_3);opacity:.1;}.cls-11,.cls-3,.cls-12,.cls-13{isolation:isolate;}.cls-8{fill:#010202;stroke:#030304;stroke-width:1.9px;}.cls-14{fill:#cd141b;}.cls-15{fill:url(#linear-gradient-10);}.cls-16{fill:#18291b;}.cls-17{fill:url(#radial-gradient);}.cls-18{fill:url(#linear-gradient-5);}.cls-19,.cls-10{fill:none;}.cls-3{opacity:.08;}.cls-20{fill:url(#linear-gradient-7);}.cls-12{opacity:.05;}.cls-12,.cls-21{fill:#030304;}.cls-9{fill:#0b572a;stroke:#1d4422;stroke-width:3.7px;}.cls-22{fill:url(#linear-gradient-9);}.cls-23{fill:url(#linear-gradient-3);}.cls-24{fill:#115729;}.cls-25{fill:url(#linear-gradient);}.cls-13{fill:#e03d15;opacity:.5;}.cls-26{fill:url(#linear-gradient-4);}.cls-27{fill:#010101;}.cls-28{fill:url(#linear-gradient-8);}.cls-10{stroke:#010202;stroke-width:1.88px;}</style><linearGradient id="linear-gradient" x1="-443.23" y1="1813.03" x2="-365.26" y2="1735.06" gradientTransform="translate(-350.73 -1466.73) rotate(-45)" gradientUnits="userSpaceOnUse"><stop offset="0" stop-color="#1f4d23"/><stop offset=".43" stop-color="#4b6e30"/><stop offset="1" stop-color="#95a946"/></linearGradient><radialGradient id="radial-gradient" cx="617.88" cy="326.72" fx="617.88" fy="326.72" r="49.79" gradientTransform="translate(0 -253.18)" gradientUnits="userSpaceOnUse"><stop offset=".25" stop-color="#95a946"/><stop offset="1" stop-color="#397931"/></radialGradient><linearGradient id="linear-gradient-2" x1="466.08" y1="268.91" x2="466.08" y2="312.14" gradientTransform="translate(0 364.09) scale(1 -1)" gradientUnits="userSpaceOnUse"><stop offset="0" stop-color="#542913"/><stop offset=".45" stop-color="#542913" stop-opacity=".7"/><stop offset=".58" stop-color="#e03d15" stop-opacity=".5"/><stop offset="1" stop-color="#e03d15" stop-opacity=".5"/></linearGradient><linearGradient id="linear-gradient-3" x1="278.7" y1="4.12" x2="-1.52" y2="284.31" gradientTransform="translate(0 364.63) scale(1 -1)" gradientUnits="userSpaceOnUse"><stop offset="0" stop-color="#9e9d9c"/><stop offset=".54" stop-color="#010202"/><stop offset="1" stop-color="#9e9d9c"/></linearGradient><linearGradient id="linear-gradient-4" x1="138.66" y1="-5.81" x2="138.66" y2="294.21" gradientTransform="translate(0 364.63) scale(1 -1)" gradientUnits="userSpaceOnUse"><stop offset="0" stop-color="#462c1b"/><stop offset="1" stop-color="#b18048"/></linearGradient><linearGradient id="linear-gradient-5" x1="138.6" y1="-1.63" x2="138.6" y2="290.19" gradientTransform="translate(0 364.63) scale(1 -1)" gradientUnits="userSpaceOnUse"><stop offset="0" stop-color="#946137"/><stop offset="1" stop-color="#805127"/></linearGradient><pattern id="Nowy_wzorek_3" x="0" y="0" width="19.7" height="21.7" patternTransform="translate(43.9 -32159.12) scale(1 -1)" patternUnits="userSpaceOnUse" viewBox="0 0 19.7 21.7"><g><rect class="cls-19" width="19.7" height="21.7"/><g><rect class="cls-19" width="19.7" height="21.7"/><g><rect class="cls-19" width="19.7" height="21.7"/><g><rect class="cls-19" width="19.7" height="21.7"/><g><rect class="cls-19" width="19.7" height="21.7"/><g><rect class="cls-19" width="19.7" height="21.7"/><path class="cls-6" d="M16.6,13c2.1-2.1,2.1-5.6,0-7.7l-1.2-1.2c-2.1-2.1-5.6-2.1-7.8,0L3.1,8.7c-2.1,2.1-2.1,5.6,0,7.7l1.2,1.2c2.1,2.1,5.6,2.1,7.7,0l4.6-4.6Z"/></g></g></g></g></g></g></pattern><linearGradient id="linear-gradient-6" x1="176.61" y1="21.82" x2="176.61" y2="130.67" gradientTransform="translate(0 363.62) scale(1 -1)" gradientUnits="userSpaceOnUse"><stop offset=".16" stop-color="#823a13"/><stop offset=".18" stop-color="#985c1a"/><stop offset=".22" stop-color="#ae7d22"/><stop offset=".26" stop-color="#c39d26"/><stop offset=".3" stop-color="#d6b92e"/><stop offset=".35" stop-color="#e4cf36"/><stop offset=".41" stop-color="#efe036"/><stop offset=".48" stop-color="#f6e947"/><stop offset=".58" stop-color="#f8ea4e"/><stop offset=".86" stop-color="#f6ea4d"/><stop offset="1" stop-color="#fcf4f9"/></linearGradient><linearGradient id="linear-gradient-7" x1="176.61" y1="136.47" x2="176.61" y2="-29.91" gradientTransform="translate(0 363.62) scale(1 -1)" gradientUnits="userSpaceOnUse"><stop offset=".26" stop-color="#f6ea4d"/><stop offset=".86" stop-color="#803813"/></linearGradient><linearGradient id="linear-gradient-8" x1="176.66" y1="23.32" x2="176.66" y2="129.05" gradientTransform="translate(0 363.62) scale(1 -1)" gradientUnits="userSpaceOnUse"><stop offset=".16" stop-color="#803813"/><stop offset=".17" stop-color="#8c471e"/><stop offset=".18" stop-color="#a26b3c"/><stop offset=".2" stop-color="#b78954"/><stop offset=".22" stop-color="#c7a468"/><stop offset=".24" stop-color="#d7bb7a"/><stop offset=".26" stop-color="#e2cc88"/><stop offset=".3" stop-color="#ead891"/><stop offset=".34" stop-color="#eede97"/><stop offset=".46" stop-color="#efe097"/><stop offset=".7" stop-color="#803813"/><stop offset=".73" stop-color="#e6d234"/><stop offset=".74" stop-color="#ebd948"/><stop offset=".75" stop-color="#eede6d"/><stop offset=".77" stop-color="#f0e28a"/><stop offset=".79" stop-color="#f8ebaa"/><stop offset=".8" stop-color="#f8edbf"/><stop offset=".83" stop-color="#faf0cf"/><stop offset=".85" stop-color="#fcf2da"/><stop offset=".89" stop-color="#fdf4e1"/><stop offset=".99" stop-color="#fdf5e3"/></linearGradient><linearGradient id="linear-gradient-9" x1="176.58" y1="113.56" x2="176.58" y2="-49.62" gradientTransform="translate(0 363.62) scale(1 -1)" gradientUnits="userSpaceOnUse"><stop offset=".26" stop-color="#f6ea4d"/><stop offset=".77" stop-color="#803813"/></linearGradient><linearGradient id="linear-gradient-10" x1="-639.6" y1="1158.57" x2="-562.67" y2="1081.58" gradientTransform="translate(-190.8 -1064.09) rotate(-45)" gradientUnits="userSpaceOnUse"><stop offset="0" stop-color="#0f6936"/><stop offset=".04" stop-color="#0f6c37"/><stop offset=".08" stop-color="#077739"/><stop offset=".13" stop-color="#108837"/><stop offset=".15" stop-color="#0a9039"/><stop offset=".35" stop-color="#36993d"/><stop offset=".76" stop-color="#5fb048"/><stop offset="1" stop-color="#6fb74b"/></linearGradient></defs><rect class="cls-7" x=".5" y=".5" width="720" height="378.91"/><g id="animal"><rect class="cls-2" x="559.36" y="15.04" width="117.03" height="117.03"/><rect class="cls-25" x="562.74" y="18.41" width="110.27" height="110.27"/><rect class="cls-17" x="568.09" y="23.76" width="99.57" height="99.57"/><path id="darker" class="cls-3" d="M673,128.68h-110.27v-60.44s34.73,5.35,55.09,5.35,55.18-5.35,55.18-5.35v60.44Z"/><path class="cls-24" d="M606.19,45.54c-.28,0-3.01,.38-4.6,2.63-.66,.84-.94,1.78-1.12,2.81-.38,2.07-1.12,5.82,.38,10.41,.75,2.16,1.6,4.79,4.03,6.57,.75,.56,2.25,1.6,4.23,1.41,2.16-.18,3.47-1.78,3.95-2.35,1.88-2.16,1.88-4.69,1.97-7.42,0-1.32,0-5.35-2.07-9.57-1.41-2.81-2.63-3.57-3.19-3.85-1.5-.94-3.09-.75-3.57-.66h0Z"/><path class="cls-24" d="M632.09,43.94c-.28-.1-2.91-.66-5.16,.84-.84,.56-1.5,1.32-2.07,2.25-1.12,1.78-3.09,4.97-3.29,9.85-.1,2.35-.18,5.07,1.5,7.6,.56,.75,1.6,2.25,3.47,2.72,2.07,.56,3.95-.47,4.51-.84,2.44-1.41,3.47-3.75,4.51-6.29,.47-1.22,1.88-4.97,1.41-9.67-.28-3.09-1.22-4.23-1.69-4.69-1.22-1.22-2.72-1.6-3.19-1.78h.01Z"/><path class="cls-24" d="M588.64,60.54c-.28,.1-2.91,.66-4.31,3.01-.56,.94-.75,1.78-.84,2.91-.18,2.07-.56,5.82,1.32,10.33,.94,2.07,1.97,4.6,4.69,6.2,.84,.47,2.44,1.32,4.31,.94,2.16-.38,3.29-2.07,3.75-2.72,1.6-2.35,1.5-4.88,1.32-7.6-.1-1.32-.47-5.25-3.01-9.29-1.6-2.63-2.91-3.29-3.57-3.57-1.69-.56-3.09-.28-3.65-.18v-.02Z"/><path class="cls-24" d="M647.76,58.29c-.28-.1-2.91-.66-5.16,.94-.84,.66-1.41,1.41-1.97,2.35-1.03,1.88-3.01,5.07-3.01,9.95,0,2.35-.1,5.07,1.69,7.5,.56,.75,1.69,2.25,3.57,2.63,2.07,.47,3.85-.56,4.51-.94,2.44-1.41,3.37-3.85,4.31-6.38,.47-1.22,1.78-4.97,1.12-9.67-.38-3.09-1.32-4.23-1.78-4.69-1.32-1.22-2.81-1.6-3.29-1.69h.01Z"/><path class="cls-16" d="M647.11,61.3c-.18,0-2.16-.47-3.85,.75-.66,.47-1.03,1.03-1.5,1.69-.75,1.41-2.16,3.75-2.25,7.42,0,1.69-.1,3.75,1.32,5.63,.38,.56,1.22,1.69,2.63,1.97,1.6,.38,2.91-.47,3.37-.66,1.78-1.12,2.44-2.81,3.19-4.79,.38-.94,1.32-3.75,.84-7.22-.28-2.25-1.03-3.09-1.32-3.47-.94-1.03-2.07-1.32-2.44-1.32h0Z"/><path class="cls-16" d="M631.33,47.04c-.18-.1-2.16-.47-3.85,.56-.66,.47-1.03,.94-1.5,1.69-.84,1.32-2.25,3.65-2.44,7.32-.1,1.69-.18,3.75,1.12,5.63,.38,.56,1.12,1.69,2.53,2.07,1.6,.38,2.91-.38,3.37-.56,1.78-1.03,2.53-2.72,3.29-4.6,.38-.94,1.41-3.65,1.03-7.14-.28-2.25-.94-3.09-1.22-3.47-.94-1.12-1.97-1.41-2.35-1.5h0Z"/><path class="cls-16" d="M606.56,48.63c-.18,0-2.16,.28-3.37,1.88-.47,.66-.66,1.32-.84,2.07-.28,1.5-.84,4.23,.28,7.7,.56,1.6,1.12,3.57,3.01,4.88,.56,.38,1.69,1.12,3.09,1.03,1.6-.18,2.53-1.32,2.91-1.69,1.32-1.6,1.41-3.47,1.5-5.44,0-.94,0-3.95-1.6-7.04-1.03-2.07-1.97-2.63-2.35-2.81-1.12-.75-2.25-.66-2.63-.56h0Z"/><path class="cls-16" d="M589.3,63.27c-.18,0-2.25,.47-3.29,2.35-.47,.75-.56,1.41-.66,2.25-.18,1.6-.47,4.51,1.03,7.88,.66,1.6,1.5,3.57,3.57,4.69,.66,.38,1.88,1.03,3.29,.75,1.6-.28,2.53-1.6,2.81-2.07,1.22-1.78,1.12-3.75,1.03-5.82-.1-1.03-.38-4.03-2.25-7.14-1.22-2.07-2.25-2.53-2.72-2.72-1.32-.47-2.53-.18-2.81-.18h-.01Z"/><path class="cls-24" d="M618.67,68.24c-1.32,.1-2.72,.1-4.31,.94-1.78,.94-2.81,2.35-3.75,3.57-.84,1.12-.75,1.22-1.97,3.19-1.12,1.69-1.69,2.72-2.72,3.85-1.22,1.41-2.44,2.25-4.6,3.95-2.35,1.78-2.53,1.69-3.19,2.44-1.6,1.88-1.97,3.95-2.25,5.35-.18,1.32-.66,3.75,.38,6.57,.47,1.22,1.32,3.57,3.47,4.6,.84,.38,1.69,.47,3.75,.38,3.47-.18,5.82-.84,7.88-1.32,2.44-.56,4.97-1.12,8.16-1.22,3.85-.1,7.22,.56,9.01,.84,2.07,.38,3.57,.84,6.48,1.12,2.44,.28,3.65,.18,5.07-.28,.84-.28,2.35-.75,3.47-2.07,1.22-1.5,1.32-3.09,1.32-4.79,.1-1.12,.1-3.85-1.5-7.04-.66-1.41-1.22-2.07-3.37-4.69-5.82-7.22-6.1-8.07-8.44-10.04-1.41-1.22-2.81-2.44-4.97-3.47-1.12-.66-4.03-2.07-7.88-1.88h-.02Z"/><path class="cls-16" d="M618.95,70.68c-1.12,.1-2.35,.1-3.75,.84-1.5,.84-2.44,2.07-3.19,3.09-.75,.94-.66,1.03-1.69,2.81-.94,1.5-1.5,2.35-2.35,3.29-1.03,1.22-2.07,1.97-3.95,3.37-2.07,1.6-2.16,1.41-2.81,2.16-1.41,1.6-2.63,4.03-2.91,5.16-.18,1.12-.56,3.19,.28,5.63,.38,1.12,1.12,3.09,3.01,3.95,.75,.38,2.44-.1,4.13-.28,3.01-.18,5.07-.75,6.85-1.12,2.07-.47,4.31-.94,7.04-1.03,3.29-.1,6.2,.47,7.78,.75,1.78,.38,3.09,.75,5.54,.94,2.07,.18,4.6,1.03,5.72,.66,.75-.18,1.97-.75,3.01-1.97,1.03-1.22,.75-3.85,.84-5.35,.1-.94-.75-3.01-2.35-5.72-.75-1.32-1.12-1.78-2.91-4.03-4.97-6.2-5.25-6.94-7.22-8.64-1.22-1.03-2.44-2.07-4.31-3.01-.94-.47-3.47-1.69-6.76-1.5h.01Z"/></g><g id="arrow"><path class="cls-13" d="M526.32,73.55l-57.46-26.55,6.95,13.8h-64.76s-1.95,6.22-1.95,12.2,1.95,10.87,1.95,10.87h65.98l-8.18,16.25,57.46-26.55h.01Z"/><path class="cls-1" d="M480.84,81.52h-68.1c-.53-1.78-1.29-4.96-1.29-8.52,0-3.78,.84-7.72,1.39-9.86h66.78l-5.64-11.19,46.75,21.62-46.75,21.62,6.87-13.64h0v-.02Z"/><path class="cls-14" d="M485.87,78.43h-70.73c-.32-1.5-.6-3.41-.6-5.42,0-2.36,.38-4.82,.77-6.77h69.34l-3.9-7.76,32.61,15.07-32.61,15.07,5.13-10.2h0Z"/><path class="cls-10" d="M480.84,81.52h-68.1c-.53-1.78-1.29-4.96-1.29-8.52,0-3.78,.84-7.72,1.39-9.86h66.78l-5.64-11.19,46.75,21.62-46.75,21.62,6.87-13.64h0v-.02Z"/></g><g id="prodBg"><rect id="external-border" class="cls-23" x="12.97" y="65.83" width="251.24" height="309.19"/><rect id="internal-border" class="cls-26" x="17.57" y="70.42" width="242.19" height="300.02"/><rect id="bg" class="cls-18" x="21.59" y="74.45" width="234.02" height="291.82"/><rect id="bgPattern" class="cls-11" x="21.59" y="74.45" width="234.02" height="291.82"/></g><g id="mln"><polygon id="obram_czarne" class="cls-8" points="136.32 229.65 118.82 247.14 118.82 327.61 136.32 345.1 216.9 345.1 234.3 327.61 234.3 247.14 216.9 229.65 136.32 229.65"/><polygon id="obram_zolte" class="cls-4" points="138.59 232.95 122.25 249.42 122.25 325.36 138.59 341.8 214.53 341.8 230.97 325.36 230.97 249.42 214.53 232.95 138.59 232.95"/><polygon id="tlo_wew" class="cls-20" points="139.74 234.57 123.75 250.54 123.75 324.21 139.74 340.2 213.48 340.2 229.47 324.21 229.47 250.54 213.48 234.57 139.74 234.57"/><path id="obram_skosne" class="cls-28" d="M221.8,307.77c-2.92,0-5.3-2.37-5.3-5.3v-30.16c0-2.92,2.37-5.3,5.3-5.3h7.57v-16.44l-15.89-15.99h-16.54v7.57c0,2.92-2.37,5.3-5.3,5.3h-30.16c-2.92,0-5.3-2.37-5.3-5.3v-7.57h-16.44l-15.99,15.99v16.54h7.57c2.92,0,5.3,2.37,5.3,5.3v30.16c0,2.92-2.37,5.3-5.3,5.3h-7.57v16.44l15.99,15.99h16.54v-7.57c0-2.92,2.37-5.3,5.3-5.3h30.16c2.92,0,5.3,2.37,5.3,5.3v7.57h16.54l15.99-15.99v-16.54h-7.77Z"/><path id="tlo_zew" class="cls-22" d="M221.53,309.57c-3.6,0-6.52-3.6-6.52-7.2v-29.99c0-3.6,2.92-7.2,6.52-7.2h6.15v-13.42l-15.52-15.42h-13.34v6.15c0,3.6-3.6,6.52-7.2,6.52h-29.99c-3.6,0-7.2-2.92-7.2-6.52v-6.15h-13.52l-15.42,15.42v13.42h6.15c3.6,0,6.52,3.6,6.52,7.2v29.99c0,3.6-2.92,7.2-6.52,7.2h-6.15v13.42l15.42,15.42h13.42v-6.15c0-3.6,3.6-6.52,7.2-6.52h29.89c3.6,0,7.2,2.92,7.2,6.52v6.15h13.42l15.42-15.42v-13.42h-5.92Z"/></g><g id="plant"><rect class="cls-21" x="118.42" y="95.26" width="115.45" height="115.45"/><rect class="cls-15" x="121.75" y="98.59" width="108.8" height="108.8"/><rect class="cls-5" x="127.02" y="103.86" width="98.23" height="98.23"/><path id="leaf" class="cls-9" d="M176.1,128.12c-14.07,1.95-24.81,11.12-24.81,24.81,0,3.32,.65,6.57,1.85,9.55-2.6,1.75-6.4,4.07-8.25,4.72-3.25,1.1-9.72,.37-10,.92s1.85,6.4,2.6,6.67,6.67,.27,10-.92c2.4-.82,6.75-3.62,9.27-5.47,4.55,5.75,11.57,9.35,19.44,9.35,13.69,0,24.64-8.62,24.64-22.31,0-5.27,1.3-11.94,3.25-16.12,2.12-4.62,13.14-7.6,13.14-7.6-1.1-3.62-35.56-4.35-41.11-3.62h-.03v.02Z"/><path id="darker-2" class="cls-12" d="M230.55,207.39H121.75v-59.62s34.26,5.27,54.35,5.27,54.45-5.27,54.45-5.27v59.62Z"/></g><path class="cls-27" d="M180.92,310.99v-13.02h-22.76v-7.32l22.36-28.44h8.92v28.44h5.7v7.32h-5.7v13.02h-8.52Zm-14.97-20.32h15.17v-19.12l-15.17,19.12Z"/><path class="cls-27" d="M65.32,318.14v-24.16h-24.16v-9.92h24.16v-24.16h9.92v24.16h24.16v9.92h-24.16v24.16h-9.92Z"/><path class="cls-27" d="M54.78,162.78v-13.54h32.51v13.54H54.78Z"/></svg>