<?xml version="1.0" encoding="UTF-8"?><svg id="Layer_1" xmlns="http://www.w3.org/2000/svg" viewBox="0 0 830.21 141.73"><defs><style>.cls-1{fill:#8c8c8b;}.cls-2{fill:#fff;}.cls-3{fill:#5c5c5c;}</style></defs><path class="cls-1" d="M758.9,141.73H71.08c-6.14,0-11.76-3.47-14.52-8.96L1.75,23.53C-3.67,12.73,4.18,0,16.27,0H813.95c12.1,0,19.95,12.75,14.51,23.56l-55.06,109.24c-2.76,5.48-8.37,8.93-14.51,8.93h.01Z"/><path class="cls-3" d="M758.9,141.73H71.08c-6.14,0-11.76-3.47-14.52-8.96L1.75,23.53C-3.67,12.73,4.18,0,16.27,0H813.95c12.1,0,19.95,12.75,14.51,23.56l-55.06,109.24c-2.76,5.48-8.37,8.93-14.51,8.93h.01Z"/><path class="cls-2" d="M71.08,127.56c-.79,0-1.5-.44-1.85-1.14L14.41,17.17c-.13-.26-.52-1.03,.09-2.02,.61-.98,1.48-.98,1.76-.98H813.95c.29,0,1.16,0,1.76,.98,.61,.99,.21,1.76,.09,2.02l-55.06,109.24c-.35,.7-1.06,1.14-1.85,1.14H71.08Z"/><polygon class="cls-3" points="73.3 121.89 22.1 19.84 808.11 19.84 756.68 121.89 73.3 121.89"/></svg>