<?xml version="1.0" encoding="UTF-8"?><svg id="a" xmlns="http://www.w3.org/2000/svg" xmlns:xlink="http://www.w3.org/1999/xlink" viewBox="0 0 720 378.91"><defs><style>.h,.i,.j{stroke-width:.9px;}.h,.i,.j,.k{stroke-miterlimit:10;}.h,.k{fill:none;stroke:#1f1f1e;}.l{fill:#fff;opacity:0;}.m{fill:#45ac3c;}.n{fill:#1f1f1e;}.i{stroke:url(#g);}.i,.j{fill:#e2161c;}.j{stroke:url(#f);}.o{fill:url(#e);}.k{stroke-width:.28px;}.p{fill:url(#c);}.q{fill:#030304;}</style><linearGradient id="c" x1="351.35" y1="118.45" x2="351.35" y2="253.15" gradientTransform="translate(0 375.25) scale(1 -1)" gradientUnits="userSpaceOnUse"><stop offset="0" stop-color="#0f6936"/><stop offset=".15" stop-color="#0a9039"/><stop offset=".62" stop-color="#28a138"/><stop offset=".65" stop-color="#2da33a"/><stop offset=".84" stop-color="#4dae44"/><stop offset="1" stop-color="#55b047"/></linearGradient><radialGradient id="e" cx="411.45" cy="219.55" fx="411.45" fy="219.55" r="18.23" gradientTransform="translate(0 375.25) scale(1 -1)" gradientUnits="userSpaceOnUse"><stop offset="0" stop-color="#f6ee84"/><stop offset=".78" stop-color="#f6ee84"/><stop offset=".91" stop-color="#f6ee84"/><stop offset=".91" stop-color="#f7ee87"/><stop offset=".94" stop-color="#faf4b7"/><stop offset=".96" stop-color="#fdfadc"/><stop offset=".97" stop-color="#fefcf1"/><stop offset=".99" stop-color="#fffffe"/><stop offset="1" stop-color="#fff"/></radialGradient><linearGradient id="f" x1="412.89" y1="212.05" x2="402.53" y2="222.42" gradientTransform="translate(0 375.25) scale(1 -1)" gradientUnits="userSpaceOnUse"><stop offset="0" stop-color="#5d1512"/><stop offset=".1" stop-color="#611912"/><stop offset=".26" stop-color="#732b23"/><stop offset=".48" stop-color="#914d44"/><stop offset=".73" stop-color="#be8880"/><stop offset="1" stop-color="#fbdede"/></linearGradient><linearGradient id="g" x1="420.29" y1="217.05" x2="409.91" y2="227.44" xlink:href="#f"/></defs><rect class="l" width="720" height="378.91"/><g><g id="b"><polygon class="q" points="351.4 260.01 290.3 224.7 290.3 154.3 351.4 118.91 412.5 154.3 412.5 224.7 351.4 260.01"/><polygon class="p" points="351.4 256.81 293 223.1 293 155.8 351.4 122.11 409.7 155.8 409.7 223.1 351.4 256.81"/><polygon class="m" points="351.4 252.01 297.3 220.7 297.3 158.3 351.4 127.01 405.5 158.3 405.5 220.7 351.4 252.01"/><path class="n" d="M360,230.7c-.6,.6-12.7-.7-14.7,0-1,1,1.6-3.4,1.6-5.8v-43.6h9v44.2c.1,2.5,4.6,4.6,4.1,5.2Z"/><path class="n" d="M356.7,163.8c6.9,8.2,8,18.8,2.4,23.5-5.6,4.7-15.7,1.8-22.7-6.4-6.9-8.2-8-18.8-2.4-23.5s15.8-1.9,22.7,6.4Z"/><path class="n" d="M349.8,180.21c0,6.2-7.1,11.1-15.9,11.1s-15.9-4.9-15.9-11.1,7.1-11.1,15.9-11.1,15.9,4.9,15.9,11.1Z"/><path class="n" d="M376.6,165.6c2.3,10.9-2.1,21.1-9.7,22.7s-15.8-5.8-18.1-16.7,2.1-21.1,9.7-22.7c7.7-1.8,15.8,5.8,18.1,16.7Z"/><path class="n" d="M381.4,183.41c-1.5,5.1-8.6,7.4-16,5.4-7.5-2.2-12.3-7.9-10.8-13.1,1.5-5,8.6-7.5,16-5.4,7.5,2.2,12.3,8,10.8,13.1Z"/><path class="n" d="M375.1,188.6c-.1,1.1-5.5,1.6-12.2,1.1-6.6-.5-12-1.7-11.9-2.9s5.5-1.6,12.2-1.1c6.6,.5,12,1.8,11.9,2.9Z"/></g><g id="d"><path class="o" d="M429.7,155.71c0,10.1-8.2,18.2-18.2,18.2s-18.3-8.1-18.3-18.2,8.2-18.2,18.3-18.2,18.2,8.2,18.2,18.2Z"/><path class="h" d="M429.7,155.71c0,10.1-8.2,18.2-18.2,18.2s-18.3-8.1-18.3-18.2,8.2-18.2,18.2-18.2,18.3,8.2,18.3,18.2Z"/><path class="k" d="M427.6,155.71c0,8.9-7.2,16.1-16.1,16.1s-16.1-7.2-16.1-16.1,7.2-16.1,16.1-16.1,16.1,7.2,16.1,16.1Z"/><path class="j" d="M414.6,158.01c0,3.8-3.1,6.9-6.9,6.9s-6.9-3.1-6.9-6.9,3.1-6.9,6.9-6.9,6.9,3.1,6.9,6.9Z"/><path class="i" d="M422,153.01c0,3.8-3.1,6.9-6.9,6.9s-6.9-3.1-6.9-6.9,3.1-6.9,6.9-6.9,6.9,3.1,6.9,6.9Z"/></g></g></svg>