<?xml version="1.0" encoding="utf-8"?>
<!-- Generator: Adobe Illustrator 26.3.1, SVG Export Plug-In . SVG Version: 6.00 Build 0)  -->
<svg version="1.1" id="Layer" xmlns="http://www.w3.org/2000/svg" xmlns:xlink="http://www.w3.org/1999/xlink" x="0px" y="0px"
	 viewBox="0 0 183.4 124.7" style="enable-background:new 0 0 183.4 124.7;" xml:space="preserve">
<style type="text/css">
	.st0{fill:#020303;}
	.st1{fill:url(#SVGID_1_);}
	.st2{fill:#44AC36;}
	.st3{fill:#07562A;stroke:#1C4421;stroke-width:4;stroke-miterlimit:10;}
	.st4{opacity:5.000000e-02;fill:#020303;enable-background:new    ;}
	.st5{fill:#FFFFFF;}
</style>
<g id="plant">
	<rect x="58.7" y="0" class="st0" width="124.7" height="124.7"/>
	
		<linearGradient id="SVGID_1_" gradientUnits="userSpaceOnUse" x1="-1342.4368" y1="-1566.0518" x2="-1259.3516" y2="-1482.9667" gradientTransform="matrix(0.7071 -0.7071 -0.7071 -0.7071 -37.0297 -1935.512)">
		<stop  offset="0" style="stop-color:#0C6835"/>
		<stop  offset="4.000000e-02" style="stop-color:#0A6B36"/>
		<stop  offset="8.000000e-02" style="stop-color:#047638"/>
		<stop  offset="0.13" style="stop-color:#078738"/>
		<stop  offset="0.15" style="stop-color:#058F39"/>
		<stop  offset="0.35" style="stop-color:#34993D"/>
		<stop  offset="0.76" style="stop-color:#5EAF47"/>
		<stop  offset="1" style="stop-color:#6EB74A"/>
	</linearGradient>
	<rect x="62.3" y="3.6" class="st1" width="117.5" height="117.5"/>
	<rect x="68" y="9.3" class="st2" width="106.1" height="106.1"/>
	<path id="leaf" class="st3" d="M121,35.5c-15.2,2.1-26.8,12-26.8,26.8c0,3.6,0.7,7.1,2,10.3c-2.8,1.9-6.9,4.4-8.9,5.1
		c-3.5,1.2-10.5,0.4-10.8,1s2,6.9,2.8,7.2s7.2,0.3,10.8-1c2.6-0.9,7.3-3.9,10-5.9c4.9,6.2,12.5,10.1,21,10.1
		c14.8,0,26.6-9.3,26.6-24.1c0-5.7,1.4-12.9,3.5-17.4c2.3-5,14.2-8.2,14.2-8.2C164.2,35.5,127,34.7,121,35.5L121,35.5L121,35.5z"/>
	<path id="darker" class="st4" d="M179.8,121.1H62.3V56.7c0,0,37,5.7,58.7,5.7s58.8-5.7,58.8-5.7V121.1z"/>
</g>
<path class="st5" d="M29.9,91.8V76.4h-27v-8.7L29.4,34H40v33.7h6.8v8.7H40v15.4C40,91.8,29.9,91.8,29.9,91.8z M12.1,67.7h18V45.1
	L12.1,67.7L12.1,67.7z"/>
</svg>
