<?xml version="1.0" encoding="UTF-8"?><svg id="Layer" xmlns="http://www.w3.org/2000/svg" xmlns:xlink="http://www.w3.org/1999/xlink" viewBox="0 0 103.46 103.46"><defs><style>.cls-1{fill:url(#linear-gradient-2);}.cls-2{fill:#010101;stroke:#020303;stroke-miterlimit:10;stroke-width:1.67px;}.cls-3{fill:url(#linear-gradient-3);}.cls-4{fill:url(#linear-gradient);}.cls-5{fill:url(#linear-gradient-4);}</style><linearGradient id="linear-gradient" x1="51.77" y1="-13.07" x2="51.77" y2="82.89" gradientTransform="translate(0 86.64) scale(1 -1)" gradientUnits="userSpaceOnUse"><stop offset=".16" stop-color="#813912"/><stop offset=".18" stop-color="#975a19"/><stop offset=".22" stop-color="#ae7d21"/><stop offset=".26" stop-color="#c39d27"/><stop offset=".3" stop-color="#d6b92e"/><stop offset=".35" stop-color="#e4cf35"/><stop offset=".41" stop-color="#efe036"/><stop offset=".48" stop-color="#f6e942"/><stop offset=".58" stop-color="#f8ea48"/><stop offset=".86" stop-color="#f7ea47"/><stop offset="1" stop-color="#fcf4f9"/></linearGradient><linearGradient id="linear-gradient-2" x1="51.77" y1="88" x2="51.77" y2="-58.67" gradientTransform="translate(0 86.64) scale(1 -1)" gradientUnits="userSpaceOnUse"><stop offset=".26" stop-color="#f7ea47"/><stop offset=".86" stop-color="#803612"/></linearGradient><linearGradient id="linear-gradient-3" x1="51.81" y1="-11.74" x2="51.81" y2="81.47" gradientTransform="translate(0 86.64) scale(1 -1)" gradientUnits="userSpaceOnUse"><stop offset=".16" stop-color="#803612"/><stop offset=".17" stop-color="#8b461e"/><stop offset=".18" stop-color="#a26a3b"/><stop offset=".2" stop-color="#b78954"/><stop offset=".22" stop-color="#c7a468"/><stop offset=".24" stop-color="#d7bb7a"/><stop offset=".26" stop-color="#e2cc88"/><stop offset=".3" stop-color="#ead891"/><stop offset=".34" stop-color="#eede97"/><stop offset=".46" stop-color="#efe097"/><stop offset=".7" stop-color="#803612"/><stop offset=".73" stop-color="#e6d234"/><stop offset=".74" stop-color="#ead848"/><stop offset=".75" stop-color="#eede6d"/><stop offset=".77" stop-color="#f1e38b"/><stop offset=".79" stop-color="#f7eaa9"/><stop offset=".8" stop-color="#f8edbf"/><stop offset=".83" stop-color="#faf0cf"/><stop offset=".85" stop-color="#fcf2da"/><stop offset=".89" stop-color="#fdf4e1"/><stop offset=".99" stop-color="#fdf5e3"/></linearGradient><linearGradient id="linear-gradient-4" x1="51.77" y1="67.8" x2="51.77" y2="-76.06" gradientTransform="translate(0 86.64) scale(1 -1)" gradientUnits="userSpaceOnUse"><stop offset=".26" stop-color="#f7ea47"/><stop offset=".77" stop-color="#803612"/></linearGradient></defs><g id="mln"><polygon id="obram_czarne" class="cls-2" points="16.26 .83 .83 16.26 .83 87.21 16.26 102.63 87.29 102.63 102.63 87.21 102.63 16.26 87.29 .83 16.26 .83"/><polygon id="obram_zolte" class="cls-4" points="18.26 3.75 3.84 18.26 3.84 85.2 18.26 99.71 85.2 99.71 99.71 85.2 99.71 18.26 85.2 3.75 18.26 3.75"/><polygon id="tlo_wew" class="cls-1" points="19.26 5.17 5.17 19.26 5.17 84.2 19.26 98.29 84.29 98.29 98.38 84.2 98.38 19.26 84.29 5.17 19.26 5.17"/><path id="obram_skosne" class="cls-3" d="M91.62,69.7c-2.58,0-4.67-2.08-4.67-4.67v-26.6c0-2.58,2.08-4.67,4.67-4.67h6.67v-14.51l-14.01-14.09h-14.59v6.67c0,2.58-2.08,4.67-4.67,4.67h-26.6c-2.58,0-4.67-2.08-4.67-4.67V5.17h-14.51L5.17,19.26v14.59h6.67c2.58,0,4.67,2.08,4.67,4.67v26.6c0,2.58-2.08,4.67-4.67,4.67H5.17v14.51l14.09,14.09h14.59v-6.67c0-2.58,2.08-4.67,4.67-4.67h26.6c2.58,0,4.67,2.08,4.67,4.67v6.67h14.59l14.09-14.09v-14.59h-6.84Z"/><path id="tlo_zew" class="cls-5" d="M91.37,71.28c-3.17,0-5.75-3.17-5.75-6.34v-26.43c0-3.17,2.58-6.34,5.75-6.34h5.42v-11.84l-13.67-13.59h-11.76v5.42c0,3.17-3.17,5.75-6.34,5.75h-26.43c-3.17,0-6.34-2.58-6.34-5.75V6.75h-11.92L6.75,20.34v11.84h5.42c3.17,0,5.75,3.17,5.75,6.34v26.43c0,3.17-2.58,6.34-5.75,6.34H6.75v11.84l13.59,13.59h11.84v-5.42c0-3.17,3.17-5.75,6.34-5.75h26.34c3.17,0,6.34,2.58,6.34,5.75v5.42h11.84l13.59-13.59v-11.84h-5.25Z"/></g><path d="M38.32,74.64v-6.94c4.58,1.77,8.38,2.66,11.41,2.66,2.67,0,4.85-.7,6.56-2.11,1.71-1.41,2.56-3.3,2.56-5.67,0-1.73-.45-3.3-1.34-4.7-.9-1.41-2.2-2.5-3.92-3.28s-4.43-1.17-8.14-1.17h-2.84v-5.53l2.41-.03c3.54,0,6.08-.32,7.62-.95,1.54-.63,2.75-1.62,3.62-2.95,.88-1.33,1.31-2.77,1.31-4.31,0-1.85-.63-3.36-1.89-4.53-1.26-1.17-3.22-1.75-5.89-1.75-3.38,0-6.99,.88-10.84,2.62v-6.31c1.94-.67,3.47-1.11,4.61-1.33,1.13-.22,2.46-.4,3.98-.55,1.52-.15,2.96-.22,4.31-.22,4.85,0,8.6,1,11.23,3,2.63,2,3.95,4.68,3.95,8.05,0,2.73-.85,5.05-2.55,6.97-1.7,1.93-4.26,3.45-7.67,4.57,2.98,.69,5.25,1.64,6.83,2.86,1.57,1.22,2.78,2.66,3.61,4.31,.83,1.66,1.25,3.43,1.25,5.33,0,3.5-1.38,6.62-4.14,9.36-2.76,2.74-7.22,4.11-13.39,4.11-1.62,0-3.35-.05-5.17-.14-1.82-.09-4.32-.55-7.48-1.36Z"/></svg>