<?xml version="1.0" encoding="utf-8"?>
<!-- Generator: Adobe Illustrator 26.3.1, SVG Export Plug-In . SVG Version: 6.00 Build 0)  -->
<svg version="1.1" id="Layer" xmlns="http://www.w3.org/2000/svg" xmlns:xlink="http://www.w3.org/1999/xlink" x="0px" y="0px"
	 viewBox="0 0 185 124.7" style="enable-background:new 0 0 185 124.7;" xml:space="preserve">
<style type="text/css">
	.st0{fill:#020303;}
	.st1{fill:url(#SVGID_1_);}
	.st2{fill:url(#SVGID_00000008858915700532660390000006017327095841366692_);}
	.st3{opacity:8.000000e-02;fill:#020303;enable-background:new    ;}
	.st4{fill:#115729;}
	.st5{fill:#18291B;}
	.st6{fill:#FFFFFF;}
</style>
<g id="animal">
	<rect x="60.3" y="0" class="st0" width="124.7" height="124.7"/>
	
		<linearGradient id="SVGID_1_" gradientUnits="userSpaceOnUse" x1="-1173.4736" y1="1889.0488" x2="-1090.3885" y2="1805.9637" gradientTransform="matrix(0.7071 -0.7071 0.7071 0.7071 -383.3481 -2044.4303)">
		<stop  offset="0" style="stop-color:#1F4D23"/>
		<stop  offset="0.43" style="stop-color:#4B6E30"/>
		<stop  offset="1" style="stop-color:#95A946"/>
	</linearGradient>
	<rect x="63.9" y="3.6" class="st1" width="117.5" height="117.5"/>
	
		<radialGradient id="SVGID_00000016772035809701805310000007905193181190883720_" cx="122.64" cy="916.6336" r="53.05" gradientTransform="matrix(1 0 0 1 0 -854.2836)" gradientUnits="userSpaceOnUse">
		<stop  offset="0.25" style="stop-color:#95A946"/>
		<stop  offset="1" style="stop-color:#397931"/>
	</radialGradient>
	
		<rect x="69.6" y="9.3" style="fill:url(#SVGID_00000016772035809701805310000007905193181190883720_);" width="106.1" height="106.1"/>
	<path id="darker" class="st3" d="M181.4,121.1H63.9V56.7c0,0,37,5.7,58.7,5.7s58.8-5.7,58.8-5.7V121.1L181.4,121.1z"/>
	<path class="st4" d="M110.2,32.5c-0.3,0-3.2,0.4-4.9,2.8c-0.7,0.9-1,1.9-1.2,3c-0.4,2.2-1.2,6.2,0.4,11.1c0.8,2.3,1.7,5.1,4.3,7
		c0.8,0.6,2.4,1.7,4.5,1.5c2.3-0.2,3.7-1.9,4.2-2.5c2-2.3,2-5,2.1-7.9c0-1.4,0-5.7-2.2-10.2c-1.5-3-2.8-3.8-3.4-4.1
		C112.4,32.2,110.7,32.4,110.2,32.5z"/>
	<path class="st4" d="M137.8,30.8c-0.3-0.1-3.1-0.7-5.5,0.9c-0.9,0.6-1.6,1.4-2.2,2.4c-1.2,1.9-3.3,5.3-3.5,10.5
		c-0.1,2.5-0.2,5.4,1.6,8.1c0.6,0.8,1.7,2.4,3.7,2.9c2.2,0.6,4.2-0.5,4.8-0.9c2.6-1.5,3.7-4,4.8-6.7c0.5-1.3,2-5.3,1.5-10.3
		c-0.3-3.3-1.3-4.5-1.8-5C139.9,31.4,138.3,31,137.8,30.8L137.8,30.8L137.8,30.8z"/>
	<path class="st4" d="M91.5,48.5c-0.3,0.1-3.1,0.7-4.6,3.2c-0.6,1-0.8,1.9-0.9,3.1c-0.2,2.2-0.6,6.2,1.4,11c1,2.2,2.1,4.9,5,6.6
		c0.9,0.5,2.6,1.4,4.6,1c2.3-0.4,3.5-2.2,4-2.9c1.7-2.5,1.6-5.2,1.4-8.1c-0.1-1.4-0.5-5.6-3.2-9.9c-1.7-2.8-3.1-3.5-3.8-3.8
		C93.6,48.1,92.1,48.4,91.5,48.5z"/>
	<path class="st4" d="M154.5,46.1c-0.3-0.1-3.1-0.7-5.5,1c-0.9,0.7-1.5,1.5-2.1,2.5c-1.1,2-3.2,5.4-3.2,10.6c0,2.5-0.1,5.4,1.8,8
		c0.6,0.8,1.8,2.4,3.8,2.8c2.2,0.5,4.1-0.6,4.8-1c2.6-1.5,3.6-4.1,4.6-6.8c0.5-1.3,1.9-5.3,1.2-10.3c-0.4-3.3-1.4-4.5-1.9-5
		C156.6,46.6,155,46.2,154.5,46.1L154.5,46.1L154.5,46.1z"/>
	<path class="st5" d="M153.8,49.3c-0.2,0-2.3-0.5-4.1,0.8c-0.7,0.5-1.1,1.1-1.6,1.8c-0.8,1.5-2.3,4-2.4,7.9c0,1.8-0.1,4,1.4,6
		c0.4,0.6,1.3,1.8,2.8,2.1c1.7,0.4,3.1-0.5,3.6-0.7c1.9-1.2,2.6-3,3.4-5.1c0.4-1,1.4-4,0.9-7.7c-0.3-2.4-1.1-3.3-1.4-3.7
		C155.4,49.6,154.2,49.3,153.8,49.3L153.8,49.3L153.8,49.3z"/>
	<path class="st5" d="M137,34.1c-0.2-0.1-2.3-0.5-4.1,0.6c-0.7,0.5-1.1,1-1.6,1.8c-0.9,1.4-2.4,3.9-2.6,7.8c-0.1,1.8-0.2,4,1.2,6
		c0.4,0.6,1.2,1.8,2.7,2.2c1.7,0.4,3.1-0.4,3.6-0.6c1.9-1.1,2.7-2.9,3.5-4.9c0.4-1,1.5-3.9,1.1-7.6c-0.3-2.4-1-3.3-1.3-3.7
		C138.5,34.5,137.4,34.2,137,34.1L137,34.1L137,34.1z"/>
	<path class="st5" d="M110.6,35.8c-0.2,0-2.3,0.3-3.6,2c-0.5,0.7-0.7,1.4-0.9,2.2c-0.3,1.6-0.9,4.5,0.3,8.2c0.6,1.7,1.2,3.8,3.2,5.2
		c0.6,0.4,1.8,1.2,3.3,1.1c1.7-0.2,2.7-1.4,3.1-1.8c1.4-1.7,1.5-3.7,1.6-5.8c0-1,0-4.2-1.7-7.5c-1.1-2.2-2.1-2.8-2.5-3
		C112.2,35.6,111,35.7,110.6,35.8z"/>
	<path class="st5" d="M92.2,51.4c-0.2,0-2.4,0.5-3.5,2.5c-0.5,0.8-0.6,1.5-0.7,2.4c-0.2,1.7-0.5,4.8,1.1,8.4c0.7,1.7,1.6,3.8,3.8,5
		c0.7,0.4,2,1.1,3.5,0.8c1.7-0.3,2.7-1.7,3-2.2c1.3-1.9,1.2-4,1.1-6.2c-0.1-1.1-0.4-4.3-2.4-7.6c-1.3-2.2-2.4-2.7-2.9-2.9
		C93.8,51.1,92.5,51.4,92.2,51.4z"/>
	<path class="st4" d="M123.5,56.7c-1.4,0.1-2.9,0.1-4.6,1c-1.9,1-3,2.5-4,3.8c-0.9,1.2-0.8,1.3-2.1,3.4c-1.2,1.8-1.8,2.9-2.9,4.1
		c-1.3,1.5-2.6,2.4-4.9,4.2c-2.5,1.9-2.7,1.8-3.4,2.6c-1.7,2-2.1,4.2-2.4,5.7c-0.2,1.4-0.7,4,0.4,7c0.5,1.3,1.4,3.8,3.7,4.9
		c0.9,0.4,1.8,0.5,4,0.4c3.7-0.2,6.2-0.9,8.4-1.4c2.6-0.6,5.3-1.2,8.7-1.3c4.1-0.1,7.7,0.6,9.6,0.9c2.2,0.4,3.8,0.9,6.9,1.2
		c2.6,0.3,3.9,0.2,5.4-0.3c0.9-0.3,2.5-0.8,3.7-2.2c1.3-1.6,1.4-3.3,1.4-5.1c0.1-1.2,0.1-4.1-1.6-7.5c-0.7-1.5-1.3-2.2-3.6-5
		c-6.2-7.7-6.5-8.6-9-10.7c-1.5-1.3-3-2.6-5.3-3.7C130.7,58,127.6,56.5,123.5,56.7L123.5,56.7L123.5,56.7z"/>
	<path class="st5" d="M123.8,59.3c-1.2,0.1-2.5,0.1-4,0.9c-1.6,0.9-2.6,2.2-3.4,3.3c-0.8,1-0.7,1.1-1.8,3c-1,1.6-1.6,2.5-2.5,3.5
		c-1.1,1.3-2.2,2.1-4.2,3.6c-2.2,1.7-2.3,1.5-3,2.3c-1.5,1.7-2.8,4.3-3.1,5.5c-0.2,1.2-0.6,3.4,0.3,6c0.4,1.2,1.2,3.3,3.2,4.2
		c0.8,0.4,2.6-0.1,4.4-0.3c3.2-0.2,5.4-0.8,7.3-1.2c2.2-0.5,4.6-1,7.5-1.1c3.5-0.1,6.6,0.5,8.3,0.8c1.9,0.4,3.3,0.8,5.9,1
		c2.2,0.2,4.9,1.1,6.1,0.7c0.8-0.2,2.1-0.8,3.2-2.1c1.1-1.3,0.8-4.1,0.9-5.7c0.1-1-0.8-3.2-2.5-6.1c-0.8-1.4-1.2-1.9-3.1-4.3
		c-5.3-6.6-5.6-7.4-7.7-9.2c-1.3-1.1-2.6-2.2-4.6-3.2C130,60.4,127.3,59.1,123.8,59.3C123.8,59.3,123.8,59.3,123.8,59.3z"/>
</g>
<path class="st6" d="M29.9,92.8V77.4h-27v-8.7L29.4,35H40v33.7h6.8v8.7H40v15.4L29.9,92.8L29.9,92.8z M12.1,68.7h18V46.1L12.1,68.7
	L12.1,68.7z"/>
</svg>
