<?xml version="1.0" encoding="UTF-8"?><svg id="Layer" xmlns="http://www.w3.org/2000/svg" xmlns:xlink="http://www.w3.org/1999/xlink" viewBox="0 0 183.71 124.7"><defs><style>.cls-1{isolation:isolate;opacity:.15;}.cls-1,.cls-2{fill:#020203;}.cls-3{fill:#946137;}.cls-4{fill:#332015;}.cls-5{fill:url(#linear-gradient);}</style><linearGradient id="linear-gradient" x1="-786.76" y1="1211.56" x2="-703.67" y2="1128.47" gradientTransform="translate(-179.02 -1291.91) rotate(-45)" gradientUnits="userSpaceOnUse"><stop offset="0" stop-color="#442a19"/><stop offset=".05" stop-color="#583518"/><stop offset=".1" stop-color="#683d14"/><stop offset=".32" stop-color="#75471d"/><stop offset=".75" stop-color="#8b5930"/><stop offset="1" stop-color="#946137"/></linearGradient></defs><g id="steel"><rect class="cls-2" x="59.01" width="124.7" height="124.7"/><rect class="cls-5" x="62.61" y="3.6" width="117.5" height="117.5"/><rect class="cls-3" x="68.31" y="9.3" width="106.1" height="106.1"/><g><path class="cls-4" d="M132.41,97.4l2.6-49.3-6-.7-.9-2.1h-4.6l-.8,2.2-7-.3v-12.8h8.1l.6,2.5,3.8,.5,.9-2.9h8.3l1.6,1.4,1.4-1.4h10.3l1.2,2,1.8-2,7.8,6.4-.5,4.4s-4.3-4-6.4-4-5.1-.1-5.1-.1l-4.3,6.9-2.6,.2,2.4,49.1h-12.6Z"/><polygon class="cls-4" points="109.11 32.3 100.71 27.7 100.61 39.1 93.01 39.1 93.01 27.7 83.41 32.1 83.41 46.1 92.31 50.4 89.21 97.4 103.51 97.4 100.71 50.4 109.11 46.6 109.11 32.3"/></g><path id="darker" class="cls-1" d="M180.11,121.1H62.61V56.7s37,5.7,58.7,5.7,58.8-5.7,58.8-5.7V121.1Z"/></g><path d="M4.92,90.52v-9.14c3.49-4.69,6.87-8.46,10.15-11.33l4.72-4.18c3.38-2.99,6.18-5.96,8.38-8.89s3.31-6,3.31-9.2c0-2.89-.93-5.12-2.79-6.7-1.86-1.58-4.38-2.36-7.56-2.36-4.22,0-9.13,1.43-14.73,4.3v-8.48c5.88-2.19,11.56-3.28,17.05-3.28,6.06,0,10.96,1.45,14.69,4.36,3.73,2.9,5.6,6.79,5.6,11.66,0,3.07-.79,5.97-2.36,8.69-1.57,2.72-4.85,6.09-9.81,10.1l-3.9,3.12c-1.72,1.38-3.59,3.15-5.63,5.31-2.04,2.16-3.38,4.45-4.03,6.88h25.51v9.14H4.92Z"/></svg>