<?xml version="1.0" encoding="utf-8"?>
<!-- Generator: Adobe Illustrator 26.3.1, SVG Export Plug-In . SVG Version: 6.00 Build 0)  -->
<svg version="1.1" id="Layer" xmlns="http://www.w3.org/2000/svg" xmlns:xlink="http://www.w3.org/1999/xlink" x="0px" y="0px"
	 viewBox="0 0 185.3 124.7" style="enable-background:new 0 0 185.3 124.7;" xml:space="preserve">
<style type="text/css">
	.st0{fill:#FFFFFF;}
	.st1{fill:#020303;}
	.st2{fill:url(#SVGID_1_);}
	.st3{fill:#95C125;}
	.st4{fill:#3C481E;}
	.st5{opacity:0.12;fill:#020303;enable-background:new    ;}
</style>
<path class="st0" d="M7,90.1v-8.7c5.7,2.2,10.5,3.3,14.3,3.3c3.3,0,6.1-0.9,8.2-2.6s3.2-4.1,3.2-7.1c0-2.2-0.6-4.1-1.7-5.9
	c-1.1-1.8-2.8-3.1-4.9-4.1s-5.5-1.5-10.2-1.5h-3.6v-6.9l3,0c4.4,0,7.6-0.4,9.5-1.2c1.9-0.8,3.4-2,4.5-3.7s1.6-3.5,1.6-5.4
	c0-2.3-0.8-4.2-2.4-5.7c-1.6-1.5-4-2.2-7.4-2.2c-4.2,0-8.7,1.1-13.6,3.3v-7.9c2.4-0.8,4.3-1.4,5.8-1.7c1.4-0.3,3.1-0.5,5-0.7
	c1.9-0.2,3.7-0.3,5.4-0.3c6.1,0,10.8,1.2,14,3.7s4.9,5.8,4.9,10.1c0,3.4-1.1,6.3-3.2,8.7s-5.3,4.3-9.6,5.7c3.7,0.9,6.6,2,8.5,3.6
	c2,1.5,3.5,3.3,4.5,5.4c1,2.1,1.6,4.3,1.6,6.7c0,4.4-1.7,8.3-5.2,11.7s-9,5.1-16.7,5.1c-2,0-4.2-0.1-6.5-0.2
	C14.1,91.7,11,91.2,7,90.1L7,90.1z"/>
<g id="microbe">
	<rect x="60.6" y="0" class="st1" width="124.7" height="124.7"/>
	
		<linearGradient id="SVGID_1_" gradientUnits="userSpaceOnUse" x1="-1004.8397" y1="-1009.5638" x2="-921.7547" y2="-926.4686" gradientTransform="matrix(0.7071 -0.7071 -0.7071 -0.7071 119.6232 -1303.2948)">
		<stop  offset="0" style="stop-color:#3C481E"/>
		<stop  offset="0.14" style="stop-color:#4A5D23"/>
		<stop  offset="0.42" style="stop-color:#68842B"/>
		<stop  offset="0.66" style="stop-color:#80A42A"/>
		<stop  offset="0.86" style="stop-color:#8FB923"/>
		<stop  offset="1" style="stop-color:#95C125"/>
	</linearGradient>
	<rect x="64.2" y="3.6" class="st2" width="117.5" height="117.5"/>
	<rect x="69.9" y="9.3" class="st3" width="106.1" height="106.1"/>
	<g id="microbes">
		<polygon class="st4" points="124.3,73 119.3,73.6 120,78.6 115,77.8 114.2,82.8 109.7,80.5 107.5,85 103.8,81.5 100.4,85.2 
			97.9,80.8 93.5,83.2 92.5,78.3 87.6,79.4 88,74.4 83,73.9 84.9,69.3 80.3,67.4 83.5,63.5 79.6,60.3 83.8,57.5 81,53.4 85.8,52 
			84.4,47.1 89.4,47.2 89.5,42.2 94.3,43.7 95.8,39 99.9,41.8 102.8,37.7 105.9,41.7 109.8,38.6 111.6,43.3 116.3,41.6 116.6,46.6 
			121.6,46.3 120.4,51.2 125.3,52.3 122.7,56.6 127.1,59.2 123.3,62.6 126.7,66.3 122.1,68.4 		"/>
		<polygon class="st4" points="167.4,52.9 165.7,53.5 165.7,55.8 163.1,55 161.5,56.5 158.9,54.8 156.3,55.5 149,56.5 145.9,56.2 
			142.7,50.1 139.1,49 136.2,45.9 132.7,44.2 130,40.9 126.7,39.4 124.7,35.7 121.9,33.3 120.8,30.5 118.8,28.3 118.6,26 116.9,24 
			118.3,22.5 118.4,20.3 119.9,20.4 121.3,18.8 123.4,19.7 126.8,16.5 129.4,18.4 132.4,18.6 135.4,20.8 138.9,21.8 140.8,26.7 
			144.6,28.2 147.2,31.4 150.8,33.4 153,36.5 156.4,38.8 162,41.8 164.7,44.4 165.1,46.6 166.9,48.8 166.4,50.7 		"/>
		<polygon class="st4" points="161.8,76.8 162.2,77.4 162.9,78.9 161.5,79.8 161.6,81.5 158.2,82.8 156.8,85 152.6,89.1 147.9,91.3 
			141.7,93.1 138,95.4 133,96.5 128.8,98.5 123.9,99.4 120,101.3 115.3,101.5 111.1,102.8 107.8,102.7 104.4,103.5 102.2,102.9 
			99.1,103.4 98.9,101.9 98,101.5 98.2,100 98,98.5 100.3,97.3 100.1,93.7 103.8,92.4 106.2,90.3 110.4,88.9 115.3,87.6 119.7,86.9 
			123.9,84.5 128.7,83.7 133.2,81.8 137.6,81.1 142.2,79.4 149.1,76.2 153.5,75.2 155.7,75.6 159,75 160.2,76 		"/>
	</g>
	<path id="darker" class="st5" d="M181.7,121.1H64.2V56.7c0,0,37,5.7,58.7,5.7s58.8-5.7,58.8-5.7V121.1z"/>
</g>
</svg>
