<?xml version="1.0" encoding="utf-8"?>
<!-- Generator: Adobe Illustrator 26.3.1, SVG Export Plug-In . SVG Version: 6.00 Build 0)  -->
<svg version="1.1" id="Layer" xmlns="http://www.w3.org/2000/svg" xmlns:xlink="http://www.w3.org/1999/xlink" x="0px" y="0px"
	 viewBox="0 0 183.7 124.7" style="enable-background:new 0 0 183.7 124.7;" xml:space="preserve">
<style type="text/css">
	.st0{fill:#020203;}
	.st1{fill:url(#SVGID_1_);}
	.st2{fill:#946137;}
	.st3{fill:#332015;}
	.st4{opacity:0.15;fill:#020203;enable-background:new    ;}
	.st5{fill:#FFFFFF;}
</style>
<g id="steel">
	<rect x="59" y="0" class="st0" width="124.7" height="124.7"/>
	
		<linearGradient id="SVGID_1_" gradientUnits="userSpaceOnUse" x1="-1007.3742" y1="-1018.1643" x2="-924.2891" y2="-935.0792" gradientTransform="matrix(0.7071 -0.7071 -0.7071 -0.7071 113.7303 -1311.172)">
		<stop  offset="0" style="stop-color:#442A19"/>
		<stop  offset="5.000000e-02" style="stop-color:#583518"/>
		<stop  offset="0.1" style="stop-color:#683D14"/>
		<stop  offset="0.32" style="stop-color:#75471D"/>
		<stop  offset="0.75" style="stop-color:#8B5930"/>
		<stop  offset="1" style="stop-color:#946137"/>
	</linearGradient>
	<rect x="62.6" y="3.6" class="st1" width="117.5" height="117.5"/>
	<rect x="68.3" y="9.3" class="st2" width="106.1" height="106.1"/>
	<g>
		<path class="st3" d="M132.4,97.4l2.6-49.3l-6-0.7l-0.9-2.1h-4.6l-0.8,2.2l-7-0.3V34.4h8.1l0.6,2.5l3.8,0.5l0.9-2.9h8.3l1.6,1.4
			l1.4-1.4h10.3l1.2,2l1.8-2l7.8,6.4l-0.5,4.4c0,0-4.3-4-6.4-4s-5.1-0.1-5.1-0.1l-4.3,6.9l-2.6,0.2l2.4,49.1L132.4,97.4L132.4,97.4z
			"/>
		<polygon class="st3" points="109.1,32.3 100.7,27.7 100.6,39.1 93,39.1 93,27.7 83.4,32.1 83.4,46.1 92.3,50.4 89.2,97.4 
			103.5,97.4 100.7,50.4 109.1,46.6 		"/>
	</g>
	<path id="darker" class="st4" d="M180.1,121.1H62.6V56.7c0,0,37,5.7,58.7,5.7s58.8-5.7,58.8-5.7V121.1z"/>
</g>
<path class="st5" d="M4.9,90.5v-9.1c3.5-4.7,6.9-8.5,10.1-11.3l4.7-4.2c3.4-3,6.2-6,8.4-8.9s3.3-6,3.3-9.2c0-2.9-0.9-5.1-2.8-6.7
	c-1.9-1.6-4.4-2.4-7.6-2.4c-4.2,0-9.1,1.4-14.7,4.3v-8.5c5.9-2.2,11.6-3.3,17-3.3c6.1,0,11,1.4,14.7,4.4c3.7,2.9,5.6,6.8,5.6,11.7
	c0,3.1-0.8,6-2.4,8.7c-1.6,2.7-4.8,6.1-9.8,10.1l-3.9,3.1c-1.7,1.4-3.6,3.2-5.6,5.3c-2,2.2-3.4,4.4-4,6.9h25.5v9.1
	C43.5,90.5,4.9,90.5,4.9,90.5z"/>
</svg>
