<?xml version="1.0" encoding="UTF-8"?><svg id="prodBg" xmlns="http://www.w3.org/2000/svg" xmlns:xlink="http://www.w3.org/1999/xlink" viewBox="0 0 121.7 121.3"><defs><style>.cls-1{fill:url(#linear-gradient-2);}.cls-2,.cls-3{fill:#020202;}.cls-4{fill:#1e1e1c;}.cls-5{fill:#43aa35;}.cls-6{fill:url(#Nowy_wzorek);opacity:.1;}.cls-6,.cls-3{isolation:isolate;}.cls-3{opacity:.05;}.cls-7{fill:none;}.cls-8{fill:#05562a;stroke:#1b4420;stroke-miterlimit:10;stroke-width:2.67px;}.cls-9{fill:url(#linear-gradient-3);}.cls-10{fill:url(#linear-gradient);}.cls-11{fill:url(#linear-gradient-4);}</style><linearGradient id="linear-gradient" x1="121.6" y1="-15.89" x2=".1" y2="105.61" gradientTransform="translate(0 105.51) scale(1 -1)" gradientUnits="userSpaceOnUse"><stop offset="0" stop-color="#9c9c9c"/><stop offset=".54" stop-color="#000"/><stop offset="1" stop-color="#9c9c9c"/></linearGradient><linearGradient id="linear-gradient-2" x1="60.9" y1="-12.59" x2="60.9" y2="102.31" gradientTransform="translate(0 105.51) scale(1 -1)" gradientUnits="userSpaceOnUse"><stop offset="0" stop-color="#442a19"/><stop offset="1" stop-color="#b1804a"/></linearGradient><linearGradient id="linear-gradient-3" x1="60.85" y1="-9.69" x2="60.85" y2="99.51" gradientTransform="translate(0 105.51) scale(1 -1)" gradientUnits="userSpaceOnUse"><stop offset="0" stop-color="#946137"/><stop offset="1" stop-color="#7e4f25"/></linearGradient><pattern id="Nowy_wzorek" x="0" y="0" width="19.7" height="21.7" patternTransform="translate(1.5 -16133.58) scale(1 -1)" patternUnits="userSpaceOnUse" viewBox="0 0 19.7 21.7"><g><rect class="cls-7" width="19.7" height="21.7"/><g><rect class="cls-7" width="19.7" height="21.7"/><g><rect class="cls-7" width="19.7" height="21.7"/><g><rect class="cls-7" width="19.7" height="21.7"/><path class="cls-4" d="M16.6,13c2.1-2.1,2.1-5.6,0-7.7l-1.2-1.2c-2.1-2.1-5.6-2.1-7.8,0L3.1,8.7c-2.1,2.1-2.1,5.6,0,7.7l1.2,1.2c2.1,2.1,5.6,2.1,7.7,0l4.6-4.6Z"/></g></g></g></g></pattern><linearGradient id="linear-gradient-4" x1="-824.48" y1="1174.51" x2="-768.99" y2="1119.03" gradientTransform="translate(-186.61 -1313.11) rotate(-45)" gradientUnits="userSpaceOnUse"><stop offset="0" stop-color="#096835"/><stop offset=".04" stop-color="#066a35"/><stop offset=".08" stop-color="#007538"/><stop offset=".13" stop-color="#028538"/><stop offset=".15" stop-color="#008d39"/><stop offset=".35" stop-color="#32973c"/><stop offset=".76" stop-color="#5dae46"/><stop offset="1" stop-color="#6db549"/></linearGradient></defs><g id="prodBg-2"><rect id="external-border" class="cls-10" width="121.7" height="121.3"/><rect id="internal-border" class="cls-1" x="3.2" y="3.2" width="115.4" height="114.9"/><rect id="bg" class="cls-9" x="6" y="6" width="109.7" height="109.2"/><rect id="bgPattern" class="cls-6" x="6" y="6" width="109.7" height="109.2"/></g><g id="plant"><rect class="cls-2" x="19.26" y="19.5" width="83.28" height="83.28"/><rect class="cls-11" x="21.67" y="21.9" width="78.47" height="78.47"/><rect class="cls-5" x="25.47" y="25.71" width="70.86" height="70.86"/><path id="leaf" class="cls-8" d="M60.87,43.21c-10.15,1.4-17.9,8.01-17.9,17.9,0,2.4,.47,4.74,1.34,6.88-1.87,1.27-4.61,2.94-5.94,3.41-2.34,.8-7.01,.27-7.21,.67s1.34,4.61,1.87,4.81,4.81,.2,7.21-.67c1.74-.6,4.88-2.6,6.68-3.94,3.27,4.14,8.35,6.74,14.02,6.74,9.88,0,17.76-6.21,17.76-16.09,0-3.81,.93-8.61,2.34-11.62,1.54-3.34,9.48-5.48,9.48-5.48-.8-2.6-25.64-3.14-29.65-2.6Z"/><path id="darker" class="cls-3" d="M100.13,100.37H21.67V57.37s24.71,3.81,39.2,3.81,39.27-3.81,39.27-3.81v43.01Z"/></g></svg>