<?xml version="1.0" encoding="UTF-8"?><svg id="Layer" xmlns="http://www.w3.org/2000/svg" xmlns:xlink="http://www.w3.org/1999/xlink" viewBox="0 0 183.44 124.7"><defs><style>.cls-1,.cls-2{fill:#020303;}.cls-3{fill:#07562a;stroke:#1c4421;stroke-miterlimit:10;stroke-width:4px;}.cls-4{fill:#44ac36;}.cls-2{isolation:isolate;opacity:.05;}.cls-5{fill:url(#linear-gradient);}</style><linearGradient id="linear-gradient" x1="-1121.81" y1="1759.44" x2="-1038.72" y2="1676.35" gradientTransform="translate(-329.78 -1916.25) rotate(-45)" gradientUnits="userSpaceOnUse"><stop offset="0" stop-color="#0c6835"/><stop offset=".04" stop-color="#0a6b36"/><stop offset=".08" stop-color="#047638"/><stop offset=".13" stop-color="#078738"/><stop offset=".15" stop-color="#058f39"/><stop offset=".35" stop-color="#34993d"/><stop offset=".76" stop-color="#5eaf47"/><stop offset="1" stop-color="#6eb74a"/></linearGradient></defs><g id="plant"><rect class="cls-1" x="58.74" width="124.7" height="124.7"/><rect class="cls-5" x="62.34" y="3.6" width="117.5" height="117.5"/><rect class="cls-4" x="68.04" y="9.3" width="106.1" height="106.1"/><path id="leaf" class="cls-3" d="M121.04,35.5c-15.2,2.1-26.8,12-26.8,26.8,0,3.6,.7,7.1,2,10.3-2.8,1.9-6.9,4.4-8.9,5.1-3.5,1.2-10.5,.4-10.8,1s2,6.9,2.8,7.2,7.2,.3,10.8-1c2.6-.9,7.3-3.9,10-5.9,4.9,6.2,12.5,10.1,21,10.1,14.8,0,26.6-9.3,26.6-24.1,0-5.7,1.4-12.9,3.5-17.4,2.3-5,14.2-8.2,14.2-8.2-1.2-3.9-38.4-4.7-44.4-3.9h0Z"/><path id="darker" class="cls-2" d="M179.84,121.1H62.34V56.7s37,5.7,58.7,5.7,58.8-5.7,58.8-5.7V121.1Z"/></g><path d="M29.88,91.83v-15.43H2.89v-8.67L29.41,34.02h10.59v33.71h6.76v8.67h-6.76v15.43h-10.12Zm-17.76-24.1H30.12v-22.68l-17.99,22.68Z"/></svg>