<?xml version="1.0" encoding="utf-8"?>
<!-- Generator: Adobe Illustrator 26.3.1, SVG Export Plug-In . SVG Version: 6.00 Build 0)  -->
<svg version="1.1" id="Layer" xmlns="http://www.w3.org/2000/svg" xmlns:xlink="http://www.w3.org/1999/xlink" x="0px" y="0px"
	 viewBox="0 0 185.3 124.7" style="enable-background:new 0 0 185.3 124.7;" xml:space="preserve">
<style type="text/css">
	.st0{fill:#020303;}
	.st1{fill:url(#SVGID_1_);}
	.st2{fill:#44AC36;}
	.st3{fill:#07562A;stroke:#1C4421;stroke-width:4;stroke-miterlimit:10;}
	.st4{opacity:5.000000e-02;fill:#020303;enable-background:new    ;}
	.st5{fill:#FFFFFF;}
</style>
<g id="plant">
	<rect x="60.6" y="0" class="st0" width="124.7" height="124.7"/>
	
		<linearGradient id="SVGID_1_" gradientUnits="userSpaceOnUse" x1="-1004.8397" y1="-1009.5638" x2="-921.7547" y2="-926.4686" gradientTransform="matrix(0.7071 -0.7071 -0.7071 -0.7071 119.6232 -1303.2948)">
		<stop  offset="0" style="stop-color:#0C6835"/>
		<stop  offset="4.000000e-02" style="stop-color:#0A6B36"/>
		<stop  offset="8.000000e-02" style="stop-color:#047638"/>
		<stop  offset="0.13" style="stop-color:#078738"/>
		<stop  offset="0.15" style="stop-color:#058F39"/>
		<stop  offset="0.35" style="stop-color:#34993D"/>
		<stop  offset="0.76" style="stop-color:#5EAF47"/>
		<stop  offset="1" style="stop-color:#6EB74A"/>
	</linearGradient>
	<rect x="64.2" y="3.6" class="st1" width="117.5" height="117.5"/>
	<rect x="69.9" y="9.3" class="st2" width="106.1" height="106.1"/>
	<path id="leaf" class="st3" d="M122.9,35.5c-15.2,2.1-26.8,12-26.8,26.8c0,3.6,0.7,7.1,2,10.3c-2.8,1.9-6.9,4.4-8.9,5.1
		c-3.5,1.2-10.5,0.4-10.8,1s2,6.9,2.8,7.2s7.2,0.3,10.8-1c2.6-0.9,7.3-3.9,10-5.9c4.9,6.2,12.5,10.1,21,10.1
		c14.8,0,26.6-9.3,26.6-24.1c0-5.7,1.4-12.9,3.5-17.4c2.3-5,14.2-8.2,14.2-8.2C166.1,35.5,128.9,34.7,122.9,35.5L122.9,35.5z"/>
	<path id="darker" class="st4" d="M181.7,121.1H64.2V56.7c0,0,37,5.7,58.7,5.7s58.8-5.7,58.8-5.7V121.1z"/>
</g>
<path class="st5" d="M7,90.1v-8.7c5.7,2.2,10.5,3.3,14.3,3.3c3.3,0,6.1-0.9,8.2-2.6s3.2-4.1,3.2-7.1c0-2.2-0.6-4.1-1.7-5.9
	c-1.1-1.8-2.8-3.1-4.9-4.1s-5.5-1.5-10.2-1.5h-3.6v-6.9l3,0c4.4,0,7.6-0.4,9.5-1.2c1.9-0.8,3.4-2,4.5-3.7s1.6-3.5,1.6-5.4
	c0-2.3-0.8-4.2-2.4-5.7c-1.6-1.5-4-2.2-7.4-2.2c-4.2,0-8.7,1.1-13.6,3.3v-7.9c2.4-0.8,4.3-1.4,5.8-1.7c1.4-0.3,3.1-0.5,5-0.7
	c1.9-0.2,3.7-0.3,5.4-0.3c6.1,0,10.8,1.2,14,3.7s4.9,5.8,4.9,10.1c0,3.4-1.1,6.3-3.2,8.7s-5.3,4.3-9.6,5.7c3.7,0.9,6.6,2,8.5,3.6
	c2,1.5,3.5,3.3,4.5,5.4c1,2.1,1.6,4.3,1.6,6.7c0,4.4-1.7,8.3-5.2,11.7s-9,5.1-16.7,5.1c-2,0-4.2-0.1-6.5-0.2
	C14.1,91.7,11,91.2,7,90.1L7,90.1z"/>
</svg>
