<?xml version="1.0" encoding="UTF-8"?><svg id="Layer" xmlns="http://www.w3.org/2000/svg" xmlns:xlink="http://www.w3.org/1999/xlink" viewBox="0 0 366.85 103.47"><defs><style>.cls-1{fill:url(#linear-gradient-2);}.cls-2,.cls-3{fill:#020303;}.cls-4{fill:#332116;}.cls-5{fill:url(#linear-gradient-6);}.cls-6{fill:#946137;}.cls-3{opacity:.15;}.cls-3,.cls-7{isolation:isolate;}.cls-8{fill:#ce141e;}.cls-9{fill:#010101;stroke-width:1.67px;}.cls-9,.cls-10{stroke:#020303;stroke-miterlimit:10;}.cls-7{fill:#e03e17;opacity:.5;}.cls-11{fill:url(#linear-gradient-5);}.cls-12{fill:url(#linear-gradient-3);}.cls-13{fill:url(#linear-gradient);}.cls-14{fill:url(#linear-gradient-4);}.cls-10{fill:none;stroke-width:1.66px;}</style><linearGradient id="linear-gradient" x1="180.5" y1="-202.33" x2="180.5" y2="-164.17" gradientTransform="translate(0 -131.72) scale(1 -1)" gradientUnits="userSpaceOnUse"><stop offset="0" stop-color="#532a15"/><stop offset=".45" stop-color="#532a15" stop-opacity=".7"/><stop offset=".58" stop-color="#e03e17" stop-opacity=".5"/><stop offset="1" stop-color="#e03e17" stop-opacity=".5"/></linearGradient><linearGradient id="linear-gradient-2" x1="315.16" y1="391.98" x2="315.16" y2="296.02" gradientTransform="translate(0 -292.27)" gradientUnits="userSpaceOnUse"><stop offset=".16" stop-color="#813912"/><stop offset=".18" stop-color="#975a19"/><stop offset=".22" stop-color="#ae7d21"/><stop offset=".26" stop-color="#c39d27"/><stop offset=".3" stop-color="#d6b92e"/><stop offset=".35" stop-color="#e4cf35"/><stop offset=".41" stop-color="#efe036"/><stop offset=".48" stop-color="#f6e942"/><stop offset=".58" stop-color="#f8ea48"/><stop offset=".86" stop-color="#f7ea47"/><stop offset="1" stop-color="#fcf4f9"/></linearGradient><linearGradient id="linear-gradient-3" x1="315.16" y1="290.91" x2="315.16" y2="437.58" gradientTransform="translate(0 -292.27)" gradientUnits="userSpaceOnUse"><stop offset=".26" stop-color="#f7ea47"/><stop offset=".86" stop-color="#803612"/></linearGradient><linearGradient id="linear-gradient-4" x1="315.19" y1="390.66" x2="315.19" y2="297.43" gradientTransform="translate(0 -292.27)" gradientUnits="userSpaceOnUse"><stop offset=".16" stop-color="#803612"/><stop offset=".17" stop-color="#8b461e"/><stop offset=".18" stop-color="#a26a3b"/><stop offset=".2" stop-color="#b78954"/><stop offset=".22" stop-color="#c7a468"/><stop offset=".24" stop-color="#d7bb7a"/><stop offset=".26" stop-color="#e2cc88"/><stop offset=".3" stop-color="#ead891"/><stop offset=".34" stop-color="#eede97"/><stop offset=".46" stop-color="#efe097"/><stop offset=".7" stop-color="#803612"/><stop offset=".73" stop-color="#e6d234"/><stop offset=".74" stop-color="#ead848"/><stop offset=".75" stop-color="#eede6d"/><stop offset=".77" stop-color="#f1e38b"/><stop offset=".79" stop-color="#f7eaa9"/><stop offset=".8" stop-color="#f8edbf"/><stop offset=".83" stop-color="#faf0cf"/><stop offset=".85" stop-color="#fcf2da"/><stop offset=".89" stop-color="#fdf4e1"/><stop offset=".99" stop-color="#fdf5e3"/></linearGradient><linearGradient id="linear-gradient-5" x1="315.16" y1="311.11" x2="315.16" y2="454.97" gradientTransform="translate(0 -292.27)" gradientUnits="userSpaceOnUse"><stop offset=".26" stop-color="#f7ea47"/><stop offset=".77" stop-color="#803612"/></linearGradient><linearGradient id="linear-gradient-6" x1="-971.15" y1="-1108.72" x2="-903.32" y2="-1040.88" gradientTransform="translate(-46.37 -1371.32) rotate(-45) scale(1 -1)" gradientUnits="userSpaceOnUse"><stop offset="0" stop-color="#452b1a"/><stop offset=".05" stop-color="#583519"/><stop offset=".1" stop-color="#683e15"/><stop offset=".32" stop-color="#76481e"/><stop offset=".75" stop-color="#8c5a31"/><stop offset="1" stop-color="#946137"/></linearGradient></defs><g id="strzalka_efekt"><path class="cls-7" d="M233.69,51.53l-50.73-23.44,6.14,12.19h-57.18s-1.73,5.49-1.73,10.78,1.73,9.6,1.73,9.6h58.25l-7.22,14.34,50.73-23.44h0v-.02h0Z"/><path class="cls-13" d="M193.53,58.57h-60.13c-.46-1.56-1.14-4.37-1.14-7.53,0-3.34,.75-6.81,1.23-8.71h58.96l-4.98-9.89,41.27,19.08-41.27,19.08,6.07-12.04h0Z"/><path class="cls-8" d="M197.98,55.85h-62.45c-.28-1.32-.53-3.01-.53-4.78,0-2.09,.34-4.26,.67-5.97h61.22l-3.44-6.86,28.79,13.31-28.79,13.31,4.54-9h0Z"/><path class="cls-10" d="M193.53,58.57h-60.13c-.46-1.56-1.14-4.37-1.14-7.53,0-3.34,.75-6.81,1.23-8.71h58.96l-4.98-9.89,41.27,19.08-41.27,19.08,6.07-12.04h0Z"/></g><g id="mln"><polygon id="obram_czarne" class="cls-9" points="279.64 .83 264.22 16.27 264.22 87.21 279.64 102.63 350.67 102.63 366.01 87.21 366.01 16.27 350.67 .83 279.64 .83"/><polygon id="obram_zolte" class="cls-1" points="281.64 3.75 267.22 18.27 267.22 85.2 281.64 99.71 348.59 99.71 363.1 85.2 363.1 18.27 348.59 3.75 281.64 3.75"/><polygon id="tlo_wew" class="cls-12" points="282.64 5.18 268.56 19.27 268.56 84.2 282.64 98.3 347.67 98.3 361.76 84.2 361.76 19.27 347.67 5.18 282.64 5.18"/><path id="obram_skosne" class="cls-14" d="M355.01,69.7c-2.58,0-4.67-2.08-4.67-4.67v-26.6c0-2.58,2.08-4.67,4.67-4.67h6.67v-14.51l-14.01-14.09h-14.59v6.67c0,2.58-2.08,4.67-4.67,4.67h-26.6c-2.58,0-4.67-2.08-4.67-4.67V5.18h-14.51l-14.09,14.09v14.59h6.67c2.58,0,4.67,2.08,4.67,4.67v26.6c0,2.58-2.08,4.67-4.67,4.67h-6.67v14.51l14.09,14.09h14.59v-6.67c0-2.58,2.08-4.67,4.67-4.67h26.6c2.58,0,4.67,2.08,4.67,4.67v6.67h14.59l14.09-14.09v-14.59h-6.83Z"/><path id="tlo_zew" class="cls-11" d="M354.76,71.28c-3.17,0-5.75-3.17-5.75-6.34v-26.43c0-3.17,2.58-6.34,5.75-6.34h5.42v-11.84l-13.67-13.59h-11.76v5.42c0,3.17-3.17,5.75-6.34,5.75h-26.43c-3.17,0-6.34-2.58-6.34-5.75V6.75h-11.92l-13.59,13.59v11.84h5.42c3.17,0,5.75,3.17,5.75,6.34v26.43c0,3.17-2.58,6.34-5.75,6.34h-5.42v11.84l13.59,13.59h11.84v-5.42c0-3.17,3.17-5.75,6.34-5.75h26.34c3.17,0,6.34,2.58,6.34,5.75v5.42h11.84l13.59-13.59v-11.84h-5.25Z"/></g><path d="M302.42,74.99c.27-2.23,.67-4.12,1.19-5.69,.52-1.56,1.37-3.43,2.55-5.61s3.67-6.05,7.48-11.61l10.88-15.84h-24.06v-7.5h31.62v7.5c-4.44,5.58-7.97,10.66-10.61,15.23-2.64,4.57-4.76,8.82-6.38,12.75s-2.42,7.52-2.42,10.77h-10.25Z"/><g id="steel"><rect class="cls-2" y=".5" width="101.79" height="101.79"/><rect class="cls-5" x="2.94" y="3.45" width="95.92" height="95.92"/><rect class="cls-6" x="7.59" y="8.1" width="86.61" height="86.61"/><g><path class="cls-4" d="M59.92,80.02l2.12-40.24-4.9-.57-.73-1.71h-3.76l-.65,1.8-5.71-.24v-10.45h6.61l.49,2.04,3.1,.41,.73-2.37h6.78l1.31,1.14,1.14-1.14h8.41l.98,1.63,1.47-1.63,6.37,5.22-.41,3.59s-3.51-3.27-5.22-3.27-4.16-.08-4.16-.08l-3.51,5.63-2.12,.16,1.96,40.08h-10.3Z"/><polygon class="cls-4" points="40.9 26.88 34.04 23.12 33.96 32.42 27.75 32.42 27.75 23.12 19.92 26.71 19.92 38.14 27.18 41.64 24.65 80.02 36.33 80.02 34.04 41.64 40.9 38.55 40.9 26.88"/></g><path id="darker" class="cls-3" d="M98.86,99.35H2.94V46.78s30.2,4.65,47.92,4.65,48-4.65,48-4.65v52.57Z"/></g></svg>