<?xml version="1.0" encoding="UTF-8"?><svg id="Layer" xmlns="http://www.w3.org/2000/svg" xmlns:xlink="http://www.w3.org/1999/xlink" viewBox="0 0 185.31 124.7"><defs><style>.cls-1,.cls-2{fill:#020303;}.cls-2{isolation:isolate;opacity:.12;}.cls-3{fill:#3c481e;}.cls-4{fill:#95c125;}.cls-5{fill:url(#linear-gradient);}</style><linearGradient id="linear-gradient" x1="-784.51" y1="1203.66" x2="-701.43" y2="1120.57" gradientTransform="translate(-173.42 -1284.74) rotate(-45)" gradientUnits="userSpaceOnUse"><stop offset="0" stop-color="#3c481e"/><stop offset=".14" stop-color="#4a5d23"/><stop offset=".42" stop-color="#68842b"/><stop offset=".66" stop-color="#80a42a"/><stop offset=".86" stop-color="#8fb923"/><stop offset="1" stop-color="#95c125"/></linearGradient></defs><path d="M7.03,90.11v-8.67c5.73,2.21,10.48,3.32,14.26,3.32,3.33,0,6.07-.88,8.2-2.64,2.13-1.76,3.2-4.12,3.2-7.09,0-2.16-.56-4.12-1.68-5.88-1.12-1.76-2.75-3.12-4.9-4.1s-5.54-1.46-10.18-1.46h-3.55v-6.91l3.01-.04c4.43,0,7.6-.4,9.53-1.19,1.93-.79,3.44-2.02,4.53-3.69,1.09-1.67,1.64-3.46,1.64-5.39,0-2.32-.79-4.21-2.36-5.66-1.58-1.46-4.03-2.19-7.36-2.19-4.22,0-8.74,1.09-13.55,3.28v-7.89c2.42-.83,4.34-1.39,5.76-1.66,1.42-.27,3.08-.5,4.98-.68,1.9-.18,3.7-.27,5.39-.27,6.07,0,10.75,1.25,14.04,3.75,3.29,2.5,4.94,5.85,4.94,10.06,0,3.41-1.06,6.31-3.18,8.72-2.12,2.41-5.32,4.31-9.59,5.72,3.72,.86,6.57,2.05,8.54,3.57,1.97,1.52,3.47,3.32,4.51,5.39,1.04,2.07,1.56,4.29,1.56,6.66,0,4.38-1.73,8.28-5.18,11.7-3.45,3.42-9.03,5.14-16.74,5.14-2.03,0-4.19-.06-6.46-.18-2.28-.12-5.4-.68-9.36-1.7Z"/><g id="microbe"><rect class="cls-1" x="60.61" width="124.7" height="124.7"/><rect class="cls-5" x="64.21" y="3.6" width="117.5" height="117.5"/><rect class="cls-4" x="69.91" y="9.3" width="106.1" height="106.1"/><g id="microbes"><polygon class="cls-3" points="124.31 73 119.31 73.6 120.01 78.6 115.01 77.8 114.21 82.8 109.71 80.5 107.51 85 103.81 81.5 100.41 85.2 97.91 80.8 93.51 83.2 92.51 78.3 87.61 79.4 88.01 74.4 83.01 73.9 84.91 69.3 80.31 67.4 83.51 63.5 79.61 60.3 83.81 57.5 81.01 53.4 85.81 52 84.41 47.1 89.41 47.2 89.51 42.2 94.31 43.7 95.81 39 99.91 41.8 102.81 37.7 105.91 41.7 109.81 38.6 111.61 43.3 116.31 41.6 116.61 46.6 121.61 46.3 120.41 51.2 125.31 52.3 122.71 56.6 127.11 59.2 123.31 62.6 126.71 66.3 122.11 68.4 124.31 73"/><polygon class="cls-3" points="167.41 52.9 165.71 53.5 165.71 55.8 163.11 55 161.51 56.5 158.91 54.8 156.31 55.5 149.01 56.5 145.91 56.2 142.71 50.1 139.11 49 136.21 45.9 132.71 44.2 130.01 40.9 126.71 39.4 124.71 35.7 121.91 33.3 120.81 30.5 118.81 28.3 118.61 26 116.91 24 118.31 22.5 118.41 20.3 119.91 20.4 121.31 18.8 123.41 19.7 126.81 16.5 129.41 18.4 132.41 18.6 135.41 20.8 138.91 21.8 140.81 26.7 144.61 28.2 147.21 31.4 150.81 33.4 153.01 36.5 156.41 38.8 162.01 41.8 164.71 44.4 165.11 46.6 166.91 48.8 166.41 50.7 167.41 52.9"/><polygon class="cls-3" points="161.81 76.8 162.21 77.4 162.91 78.9 161.51 79.8 161.61 81.5 158.21 82.8 156.81 85 152.61 89.1 147.91 91.3 141.71 93.1 138.01 95.4 133.01 96.5 128.81 98.5 123.91 99.4 120.01 101.3 115.31 101.5 111.11 102.8 107.81 102.7 104.41 103.5 102.21 102.9 99.11 103.4 98.91 101.9 98.01 101.5 98.21 100 98.01 98.5 100.31 97.3 100.11 93.7 103.81 92.4 106.21 90.3 110.41 88.9 115.31 87.6 119.71 86.9 123.91 84.5 128.71 83.7 133.21 81.8 137.61 81.1 142.21 79.4 149.11 76.2 153.51 75.2 155.71 75.6 159.01 75 160.21 76 161.81 76.8"/></g><path id="darker" class="cls-2" d="M181.71,121.1H64.21V56.7s37,5.7,58.7,5.7,58.8-5.7,58.8-5.7V121.1Z"/></g></svg>