<?xml version="1.0" encoding="UTF-8"?><svg id="Layer" xmlns="http://www.w3.org/2000/svg" xmlns:xlink="http://www.w3.org/1999/xlink" viewBox="0 0 184.99 124.7"><defs><style>.cls-1,.cls-2{fill:#020303;}.cls-3{fill:#18291b;}.cls-4{fill:url(#radial-gradient);}.cls-2{isolation:isolate;opacity:.08;}.cls-5{fill:#115729;}.cls-6{fill:url(#linear-gradient);}</style><linearGradient id="linear-gradient" x1="-952.85" y1="-1230.38" x2="-869.76" y2="-1147.29" gradientTransform="translate(-73.61 -1422.68) rotate(-45) scale(1 -1)" gradientUnits="userSpaceOnUse"><stop offset="0" stop-color="#1f4d23"/><stop offset=".43" stop-color="#4b6e30"/><stop offset="1" stop-color="#95a946"/></linearGradient><radialGradient id="radial-gradient" cx="122.64" cy="-190.61" fx="122.64" fy="-190.61" r="53.05" gradientTransform="translate(0 -128.26) scale(1 -1)" gradientUnits="userSpaceOnUse"><stop offset=".25" stop-color="#95a946"/><stop offset="1" stop-color="#397931"/></radialGradient></defs><g id="animal"><rect class="cls-1" x="60.29" width="124.7" height="124.7"/><rect class="cls-6" x="63.89" y="3.6" width="117.5" height="117.5"/><rect class="cls-4" x="69.59" y="9.3" width="106.1" height="106.1"/><path id="darker" class="cls-2" d="M181.39,121.1H63.89V56.7s37,5.7,58.7,5.7,58.8-5.7,58.8-5.7V121.1h0Z"/><path class="cls-5" d="M110.19,32.5c-.3,0-3.2,.4-4.9,2.8-.7,.9-1,1.9-1.2,3-.4,2.2-1.2,6.2,.4,11.1,.8,2.3,1.7,5.1,4.3,7,.8,.6,2.4,1.7,4.5,1.5,2.3-.2,3.7-1.9,4.2-2.5,2-2.3,2-5,2.1-7.9,0-1.4,0-5.7-2.2-10.2-1.5-3-2.8-3.8-3.4-4.1-1.6-1-3.3-.8-3.8-.7Z"/><path class="cls-5" d="M137.79,30.8c-.3-.1-3.1-.7-5.5,.9-.9,.6-1.6,1.4-2.2,2.4-1.2,1.9-3.3,5.3-3.5,10.5-.1,2.5-.2,5.4,1.6,8.1,.6,.8,1.7,2.4,3.7,2.9,2.2,.6,4.2-.5,4.8-.9,2.6-1.5,3.7-4,4.8-6.7,.5-1.3,2-5.3,1.5-10.3-.3-3.3-1.3-4.5-1.8-5-1.3-1.3-2.9-1.7-3.4-1.9h0Z"/><path class="cls-5" d="M91.49,48.5c-.3,.1-3.1,.7-4.6,3.2-.6,1-.8,1.9-.9,3.1-.2,2.2-.6,6.2,1.4,11,1,2.2,2.1,4.9,5,6.6,.9,.5,2.6,1.4,4.6,1,2.3-.4,3.5-2.2,4-2.9,1.7-2.5,1.6-5.2,1.4-8.1-.1-1.4-.5-5.6-3.2-9.9-1.7-2.8-3.1-3.5-3.8-3.8-1.8-.6-3.3-.3-3.9-.2Z"/><path class="cls-5" d="M154.49,46.1c-.3-.1-3.1-.7-5.5,1-.9,.7-1.5,1.5-2.1,2.5-1.1,2-3.2,5.4-3.2,10.6,0,2.5-.1,5.4,1.8,8,.6,.8,1.8,2.4,3.8,2.8,2.2,.5,4.1-.6,4.8-1,2.6-1.5,3.6-4.1,4.6-6.8,.5-1.3,1.9-5.3,1.2-10.3-.4-3.3-1.4-4.5-1.9-5-1.4-1.3-3-1.7-3.5-1.8h0Z"/><path class="cls-3" d="M153.79,49.3c-.2,0-2.3-.5-4.1,.8-.7,.5-1.1,1.1-1.6,1.8-.8,1.5-2.3,4-2.4,7.9,0,1.8-.1,4,1.4,6,.4,.6,1.3,1.8,2.8,2.1,1.7,.4,3.1-.5,3.6-.7,1.9-1.2,2.6-3,3.4-5.1,.4-1,1.4-4,.9-7.7-.3-2.4-1.1-3.3-1.4-3.7-1-1.1-2.2-1.4-2.6-1.4h0Z"/><path class="cls-3" d="M136.99,34.1c-.2-.1-2.3-.5-4.1,.6-.7,.5-1.1,1-1.6,1.8-.9,1.4-2.4,3.9-2.6,7.8-.1,1.8-.2,4,1.2,6,.4,.6,1.2,1.8,2.7,2.2,1.7,.4,3.1-.4,3.6-.6,1.9-1.1,2.7-2.9,3.5-4.9,.4-1,1.5-3.9,1.1-7.6-.3-2.4-1-3.3-1.3-3.7-1-1.2-2.1-1.5-2.5-1.6h0Z"/><path class="cls-3" d="M110.59,35.8c-.2,0-2.3,.3-3.6,2-.5,.7-.7,1.4-.9,2.2-.3,1.6-.9,4.5,.3,8.2,.6,1.7,1.2,3.8,3.2,5.2,.6,.4,1.8,1.2,3.3,1.1,1.7-.2,2.7-1.4,3.1-1.8,1.4-1.7,1.5-3.7,1.6-5.8,0-1,0-4.2-1.7-7.5-1.1-2.2-2.1-2.8-2.5-3-1.2-.8-2.4-.7-2.8-.6Z"/><path class="cls-3" d="M92.19,51.4c-.2,0-2.4,.5-3.5,2.5-.5,.8-.6,1.5-.7,2.4-.2,1.7-.5,4.8,1.1,8.4,.7,1.7,1.6,3.8,3.8,5,.7,.4,2,1.1,3.5,.8,1.7-.3,2.7-1.7,3-2.2,1.3-1.9,1.2-4,1.1-6.2-.1-1.1-.4-4.3-2.4-7.6-1.3-2.2-2.4-2.7-2.9-2.9-1.4-.5-2.7-.2-3-.2Z"/><path class="cls-5" d="M123.49,56.7c-1.4,.1-2.9,.1-4.6,1-1.9,1-3,2.5-4,3.8-.9,1.2-.8,1.3-2.1,3.4-1.2,1.8-1.8,2.9-2.9,4.1-1.3,1.5-2.6,2.4-4.9,4.2-2.5,1.9-2.7,1.8-3.4,2.6-1.7,2-2.1,4.2-2.4,5.7-.2,1.4-.7,4,.4,7,.5,1.3,1.4,3.8,3.7,4.9,.9,.4,1.8,.5,4,.4,3.7-.2,6.2-.9,8.4-1.4,2.6-.6,5.3-1.2,8.7-1.3,4.1-.1,7.7,.6,9.6,.9,2.2,.4,3.8,.9,6.9,1.2,2.6,.3,3.9,.2,5.4-.3,.9-.3,2.5-.8,3.7-2.2,1.3-1.6,1.4-3.3,1.4-5.1,.1-1.2,.1-4.1-1.6-7.5-.7-1.5-1.3-2.2-3.6-5-6.2-7.7-6.5-8.6-9-10.7-1.5-1.3-3-2.6-5.3-3.7-1.2-.7-4.3-2.2-8.4-2h0Z"/><path class="cls-3" d="M123.79,59.3c-1.2,.1-2.5,.1-4,.9-1.6,.9-2.6,2.2-3.4,3.3-.8,1-.7,1.1-1.8,3-1,1.6-1.6,2.5-2.5,3.5-1.1,1.3-2.2,2.1-4.2,3.6-2.2,1.7-2.3,1.5-3,2.3-1.5,1.7-2.8,4.3-3.1,5.5-.2,1.2-.6,3.4,.3,6,.4,1.2,1.2,3.3,3.2,4.2,.8,.4,2.6-.1,4.4-.3,3.2-.2,5.4-.8,7.3-1.2,2.2-.5,4.6-1,7.5-1.1,3.5-.1,6.6,.5,8.3,.8,1.9,.4,3.3,.8,5.9,1,2.2,.2,4.9,1.1,6.1,.7,.8-.2,2.1-.8,3.2-2.1,1.1-1.3,.8-4.1,.9-5.7,.1-1-.8-3.2-2.5-6.1-.8-1.4-1.2-1.9-3.1-4.3-5.3-6.6-5.6-7.4-7.7-9.2-1.3-1.1-2.6-2.2-4.6-3.2-1-.5-3.7-1.8-7.2-1.6h0Z"/></g><path d="M29.88,92.84v-15.43H2.89v-8.67L29.41,35.02h10.59v33.71h6.76v8.67h-6.76v15.43h-10.12Zm-17.76-24.1H30.12v-22.68l-17.99,22.68Z"/></svg>