<?xml version="1.0" encoding="UTF-8"?><svg id="Layer" xmlns="http://www.w3.org/2000/svg" xmlns:xlink="http://www.w3.org/1999/xlink" viewBox="0 0 566.93 141.73"><defs><style>.cls-1{fill:url(#linear-gradient-2);}.cls-2{fill:#010101;stroke-width:.76px;}.cls-2,.cls-3{stroke:#020303;stroke-miterlimit:10;}.cls-4,.cls-5{fill:#020303;}.cls-6{fill:rgba(255,255,255,0);}.cls-7{fill:url(#linear-gradient-6);}.cls-8{fill:#1f1f1d;}.cls-5{opacity:.15;}.cls-5,.cls-9{isolation:isolate;}.cls-10{fill:#7e348b;}.cls-9{fill:url(#Nowy_wzorek);opacity:.1;}.cls-11{fill:url(#linear-gradient-5);}.cls-12{fill:none;}.cls-13{fill:url(#linear-gradient-7);}.cls-14{fill:url(#linear-gradient-3);}.cls-15{fill:url(#linear-gradient);}.cls-3{fill:#fff;stroke-width:.37px;}.cls-16{fill:url(#linear-gradient-4);}.cls-17{fill:url(#linear-gradient-8);}</style><linearGradient id="linear-gradient" x1="572.42" y1="142.43" x2="460.21" y2="30.22" gradientTransform="translate(0 -15.46)" gradientUnits="userSpaceOnUse"><stop offset="0" stop-color="#9d9d9c"/><stop offset=".54" stop-color="#010101"/><stop offset="1" stop-color="#9d9d9c"/></linearGradient><linearGradient id="linear-gradient-2" x1="516.35" y1="146.36" x2="516.35" y2="26.3" gradientTransform="translate(0 -15.46)" gradientUnits="userSpaceOnUse"><stop offset="0" stop-color="#452b1a"/><stop offset="1" stop-color="#b18049"/></linearGradient><linearGradient id="linear-gradient-3" x1="516.32" y1="144.69" x2="516.32" y2="27.91" gradientTransform="translate(0 -15.46)" gradientUnits="userSpaceOnUse"><stop offset="0" stop-color="#946137"/><stop offset="1" stop-color="#7f5026"/></linearGradient><pattern id="Nowy_wzorek" x="0" y="0" width="19.7" height="21.7" patternTransform="translate(8.6 16522.9)" patternUnits="userSpaceOnUse" viewBox="0 0 19.7 21.7"><g><rect class="cls-12" width="19.7" height="21.7"/><g><rect class="cls-12" width="19.7" height="21.7"/><g><rect class="cls-12" width="19.7" height="21.7"/><g><rect class="cls-12" width="19.7" height="21.7"/><g><rect class="cls-12" width="19.7" height="21.7"/><path class="cls-8" d="M16.6,8.7c2.1,2.1,2.1,5.6,0,7.7l-1.2,1.2c-2.1,2.1-5.6,2.1-7.8,0L3.1,13c-2.1-2.1-2.1-5.6,0-7.7l1.2-1.2c2.1-2.1,5.6-2.1,7.7,0l4.6,4.6Z"/></g></g></g></g></g></pattern><linearGradient id="linear-gradient-4" x1="531.64" y1="135.93" x2="531.64" y2="92.37" gradientTransform="translate(0 -16.47)" gradientUnits="userSpaceOnUse"><stop offset=".16" stop-color="#813912"/><stop offset=".18" stop-color="#975a19"/><stop offset=".22" stop-color="#ae7d21"/><stop offset=".26" stop-color="#c39d27"/><stop offset=".3" stop-color="#d6b92e"/><stop offset=".35" stop-color="#e4cf35"/><stop offset=".41" stop-color="#efe036"/><stop offset=".48" stop-color="#f6e942"/><stop offset=".58" stop-color="#f8ea48"/><stop offset=".86" stop-color="#f7ea47"/><stop offset="1" stop-color="#fcf4f9"/></linearGradient><linearGradient id="linear-gradient-5" x1="531.64" y1="90.05" x2="531.64" y2="156.63" gradientTransform="translate(0 -16.47)" gradientUnits="userSpaceOnUse"><stop offset=".26" stop-color="#f7ea47"/><stop offset=".86" stop-color="#803612"/></linearGradient><linearGradient id="linear-gradient-6" x1="531.67" y1="135.33" x2="531.67" y2="93.02" gradientTransform="translate(0 -16.47)" gradientUnits="userSpaceOnUse"><stop offset=".16" stop-color="#803612"/><stop offset=".17" stop-color="#8b461e"/><stop offset=".18" stop-color="#a26a3b"/><stop offset=".2" stop-color="#b78954"/><stop offset=".22" stop-color="#c7a468"/><stop offset=".24" stop-color="#d7bb7a"/><stop offset=".26" stop-color="#e2cc88"/><stop offset=".3" stop-color="#ead891"/><stop offset=".34" stop-color="#eede97"/><stop offset=".46" stop-color="#efe097"/><stop offset=".7" stop-color="#803612"/><stop offset=".73" stop-color="#e6d234"/><stop offset=".74" stop-color="#ead848"/><stop offset=".75" stop-color="#eede6d"/><stop offset=".77" stop-color="#f1e38b"/><stop offset=".79" stop-color="#f7eaa9"/><stop offset=".8" stop-color="#f8edbf"/><stop offset=".83" stop-color="#faf0cf"/><stop offset=".85" stop-color="#fcf2da"/><stop offset=".89" stop-color="#fdf4e1"/><stop offset=".99" stop-color="#fdf5e3"/></linearGradient><linearGradient id="linear-gradient-7" x1="531.63" y1="99.22" x2="531.63" y2="164.52" gradientTransform="translate(0 -16.47)" gradientUnits="userSpaceOnUse"><stop offset=".26" stop-color="#f7ea47"/><stop offset=".77" stop-color="#803612"/></linearGradient><linearGradient id="linear-gradient-8" x1="-288.92" y1="1073.9" x2="-258.14" y2="1043.1" gradientTransform="translate(-23.44 -897.96) rotate(-45)" gradientUnits="userSpaceOnUse"><stop offset="0" stop-color="#1d1327"/><stop offset=".24" stop-color="#372348"/><stop offset=".49" stop-color="#573a6c"/><stop offset=".71" stop-color="#714f8b"/><stop offset=".89" stop-color="#825c9f"/><stop offset="1" stop-color="#8862a6"/></linearGradient></defs><rect class="cls-6" width="566.93" height="141.73"/><g id="prodBg"><rect id="external-border" class="cls-15" x="465.97" y="9" width="100.69" height="123.73"/><rect id="internal-border" class="cls-1" x="467.81" y="10.84" width="97.07" height="120.06"/><rect id="bg" class="cls-14" x="469.42" y="12.45" width="93.8" height="116.78"/><rect id="bgPattern" class="cls-9" x="469.42" y="12.45" width="93.8" height="116.78"/></g><path d="M487.07,109.97v-9.67h-9.67v-3.97h9.67v-9.67h3.97v9.67h9.67v3.97h-9.67v9.67h-3.97Z"/><path d="M483,46.63v-5.42h13.01v5.42h-13.01Z"/><g id="mln"><polygon id="obram_czarne" class="cls-2" points="515.52 74.58 508.52 81.58 508.52 113.78 515.52 120.78 547.76 120.78 554.73 113.78 554.73 81.58 547.76 74.58 515.52 74.58"/><polygon id="obram_zolte" class="cls-16" points="516.43 75.9 509.88 82.49 509.88 112.87 516.43 119.46 546.82 119.46 553.4 112.87 553.4 82.49 546.82 75.9 516.43 75.9"/><polygon id="tlo_wew" class="cls-11" points="516.88 76.55 510.49 82.94 510.49 112.42 516.88 118.82 546.4 118.82 552.8 112.42 552.8 82.94 546.4 76.55 516.88 76.55"/><path id="obram_skosne" class="cls-7" d="M549.73,105.84c-1.17,0-2.12-.95-2.12-2.12v-12.07c0-1.17,.95-2.12,2.12-2.12h3.03v-6.58l-6.36-6.4h-6.62v3.03c0,1.17-.95,2.12-2.12,2.12h-12.07c-1.17,0-2.12-.95-2.12-2.12v-3.03h-6.58l-6.4,6.4v6.62h3.03c1.17,0,2.12,.95,2.12,2.12v12.07c0,1.17-.95,2.12-2.12,2.12h-3.03v6.58l6.4,6.4h6.62v-3.03c0-1.17,.95-2.12,2.12-2.12h12.07c1.17,0,2.12,.95,2.12,2.12v3.03h6.62l6.4-6.4v-6.62h-3.11Z"/><path id="tlo_zew" class="cls-13" d="M549.62,106.55c-1.44,0-2.61-1.44-2.61-2.88v-12c0-1.44,1.17-2.88,2.61-2.88h2.46v-5.37l-6.21-6.17h-5.34v2.46c0,1.44-1.44,2.61-2.88,2.61h-12c-1.44,0-2.88-1.17-2.88-2.61v-2.46h-5.41l-6.17,6.17v5.37h2.46c1.44,0,2.61,1.44,2.61,2.88v12c0,1.44-1.17,2.88-2.61,2.88h-2.46v5.37l6.17,6.17h5.37v-2.46c0-1.44,1.44-2.61,2.88-2.61h11.96c1.44,0,2.88,1.17,2.88,2.61v2.46h5.37l6.17-6.17v-5.37h-2.37Z"/></g><g id="energy"><rect class="cls-4" x="508.52" y="20.83" width="46.2" height="46.2"/><rect class="cls-17" x="509.85" y="22.16" width="43.54" height="43.54"/><polygon class="cls-10" points="551.28 24.27 551.28 63.59 511.97 63.59 511.97 24.27 551.28 24.27"/><polygon class="cls-3" points="526.83 39.43 539.79 31.39 532.86 41.43 536.53 47.4 523.79 55.44 530.2 45.43 526.83 39.43"/><path id="darker" class="cls-5" d="M553.39,65.7h-43.54v-23.86s13.71,2.11,21.75,2.11,21.79-2.11,21.79-2.11v23.86h0Z"/></g><path d="M533.18,107.21v-5.21h-9.11v-2.93l8.95-11.38h3.57v11.38h2.28v2.93h-2.28v5.21h-3.41Zm-5.99-8.13h6.07v-7.65l-6.07,7.65Z"/></svg>