<?xml version="1.0" encoding="UTF-8"?><svg id="Layer" xmlns="http://www.w3.org/2000/svg" xmlns:xlink="http://www.w3.org/1999/xlink" viewBox="0 0 566.93 141.73"><defs><style>.cls-1{fill:url(#linear-gradient-2);}.cls-2{fill:#010101;stroke:#020303;stroke-width:.76px;}.cls-2,.cls-3{stroke-miterlimit:10;}.cls-4,.cls-5{fill:#020303;}.cls-6{fill:rgba(255,255,255,0);}.cls-3{fill:#07562a;stroke:#1c4421;stroke-width:1.48px;}.cls-7{fill:url(#linear-gradient-6);}.cls-8{fill:#1f1f1d;}.cls-9{fill:#44ac36;}.cls-10{fill:url(#Nowy_wzorek);opacity:.1;}.cls-10,.cls-5{isolation:isolate;}.cls-11{fill:url(#linear-gradient-5);}.cls-12{fill:none;}.cls-13{fill:url(#linear-gradient-7);}.cls-14{fill:url(#linear-gradient-3);}.cls-5{opacity:.05;}.cls-15{fill:url(#linear-gradient);}.cls-16{fill:url(#linear-gradient-4);}.cls-17{fill:url(#linear-gradient-8);}</style><linearGradient id="linear-gradient" x1="572.46" y1="142.39" x2="460.32" y2="30.26" gradientTransform="translate(0 -15.46)" gradientUnits="userSpaceOnUse"><stop offset="0" stop-color="#9d9d9c"/><stop offset=".54" stop-color="#010101"/><stop offset="1" stop-color="#9d9d9c"/></linearGradient><linearGradient id="linear-gradient-2" x1="516.42" y1="146.36" x2="516.42" y2="26.3" gradientTransform="translate(0 -15.46)" gradientUnits="userSpaceOnUse"><stop offset="0" stop-color="#452b1a"/><stop offset="1" stop-color="#b18049"/></linearGradient><linearGradient id="linear-gradient-3" x1="516.4" y1="144.69" x2="516.4" y2="27.91" gradientTransform="translate(0 -15.46)" gradientUnits="userSpaceOnUse"><stop offset="0" stop-color="#946137"/><stop offset="1" stop-color="#7f5026"/></linearGradient><pattern id="Nowy_wzorek" x="0" y="0" width="19.7" height="21.7" patternTransform="translate(8.6 16522.9)" patternUnits="userSpaceOnUse" viewBox="0 0 19.7 21.7"><g><rect class="cls-12" width="19.7" height="21.7"/><g><rect class="cls-12" width="19.7" height="21.7"/><g><rect class="cls-12" width="19.7" height="21.7"/><g><rect class="cls-12" width="19.7" height="21.7"/><g><rect class="cls-12" width="19.7" height="21.7"/><path class="cls-8" d="M16.6,8.7c2.1,2.1,2.1,5.6,0,7.7l-1.2,1.2c-2.1,2.1-5.6,2.1-7.8,0L3.1,13c-2.1-2.1-2.1-5.6,0-7.7l1.2-1.2c2.1-2.1,5.6-2.1,7.7,0l4.6,4.6Z"/></g></g></g></g></g></pattern><linearGradient id="linear-gradient-4" x1="531.6" y1="135.91" x2="531.6" y2="92.35" gradientTransform="translate(0 -16.47)" gradientUnits="userSpaceOnUse"><stop offset=".16" stop-color="#813912"/><stop offset=".18" stop-color="#975a19"/><stop offset=".22" stop-color="#ae7d21"/><stop offset=".26" stop-color="#c39d27"/><stop offset=".3" stop-color="#d6b92e"/><stop offset=".35" stop-color="#e4cf35"/><stop offset=".41" stop-color="#efe036"/><stop offset=".48" stop-color="#f6e942"/><stop offset=".58" stop-color="#f8ea48"/><stop offset=".86" stop-color="#f7ea47"/><stop offset="1" stop-color="#fcf4f9"/></linearGradient><linearGradient id="linear-gradient-5" x1="531.61" y1="90.03" x2="531.61" y2="156.61" gradientTransform="translate(0 -16.47)" gradientUnits="userSpaceOnUse"><stop offset=".26" stop-color="#f7ea47"/><stop offset=".86" stop-color="#803612"/></linearGradient><linearGradient id="linear-gradient-6" x1="531.63" y1="135.31" x2="531.63" y2="93" gradientTransform="translate(0 -16.47)" gradientUnits="userSpaceOnUse"><stop offset=".16" stop-color="#803612"/><stop offset=".17" stop-color="#8b461e"/><stop offset=".18" stop-color="#a26a3b"/><stop offset=".2" stop-color="#b78954"/><stop offset=".22" stop-color="#c7a468"/><stop offset=".24" stop-color="#d7bb7a"/><stop offset=".26" stop-color="#e2cc88"/><stop offset=".3" stop-color="#ead891"/><stop offset=".34" stop-color="#eede97"/><stop offset=".46" stop-color="#efe097"/><stop offset=".7" stop-color="#803612"/><stop offset=".73" stop-color="#e6d234"/><stop offset=".74" stop-color="#ead848"/><stop offset=".75" stop-color="#eede6d"/><stop offset=".77" stop-color="#f1e38b"/><stop offset=".79" stop-color="#f7eaa9"/><stop offset=".8" stop-color="#f8edbf"/><stop offset=".83" stop-color="#faf0cf"/><stop offset=".85" stop-color="#fcf2da"/><stop offset=".89" stop-color="#fdf4e1"/><stop offset=".99" stop-color="#fdf5e3"/></linearGradient><linearGradient id="linear-gradient-7" x1="531.6" y1="99.2" x2="531.6" y2="164.5" gradientTransform="translate(0 -16.47)" gradientUnits="userSpaceOnUse"><stop offset=".26" stop-color="#f7ea47"/><stop offset=".77" stop-color="#803612"/></linearGradient><linearGradient id="linear-gradient-8" x1="-289.02" y1="-931.52" x2="-258.24" y2="-900.72" gradientTransform="translate(77.11 -797.4) rotate(-45) scale(1 -1)" gradientUnits="userSpaceOnUse"><stop offset="0" stop-color="#0c6835"/><stop offset=".04" stop-color="#0a6b36"/><stop offset=".08" stop-color="#047638"/><stop offset=".13" stop-color="#078738"/><stop offset=".15" stop-color="#058f39"/><stop offset=".35" stop-color="#34993d"/><stop offset=".76" stop-color="#5eaf47"/><stop offset="1" stop-color="#6eb74a"/></linearGradient></defs><rect class="cls-6" width="566.93" height="141.73"/><g id="prodBg"><rect id="external-border" class="cls-15" x="466.12" y="9" width="100.54" height="123.73"/><rect id="internal-border" class="cls-1" x="467.96" y="10.84" width="96.92" height="120.06"/><rect id="bg" class="cls-14" x="469.57" y="12.45" width="93.65" height="116.78"/><rect id="bgPattern" class="cls-10" x="469.57" y="12.45" width="93.65" height="116.78"/></g><g id="mln"><polygon id="obram_czarne" class="cls-2" points="515.48 74.56 508.48 81.56 508.48 113.76 515.48 120.76 547.73 120.76 554.69 113.76 554.69 81.56 547.73 74.56 515.48 74.56"/><polygon id="obram_zolte" class="cls-16" points="516.39 75.88 509.85 82.47 509.85 112.86 516.39 119.44 546.78 119.44 553.36 112.86 553.36 82.47 546.78 75.88 516.39 75.88"/><polygon id="tlo_wew" class="cls-11" points="516.85 76.53 510.45 82.92 510.45 112.4 516.85 118.8 546.36 118.8 552.76 112.4 552.76 82.92 546.36 76.53 516.85 76.53"/><path id="obram_skosne" class="cls-7" d="M549.69,105.82c-1.17,0-2.12-.95-2.12-2.12v-12.07c0-1.17,.95-2.12,2.12-2.12h3.03v-6.58l-6.36-6.4h-6.62v3.03c0,1.17-.95,2.12-2.12,2.12h-12.07c-1.17,0-2.12-.95-2.12-2.12v-3.03h-6.58l-6.4,6.4v6.62h3.03c1.17,0,2.12,.95,2.12,2.12v12.07c0,1.17-.95,2.12-2.12,2.12h-3.03v6.58l6.4,6.4h6.62v-3.03c0-1.17,.95-2.12,2.12-2.12h12.07c1.17,0,2.12,.95,2.12,2.12v3.03h6.62l6.4-6.4v-6.62h-3.11Z"/><path id="tlo_zew" class="cls-13" d="M549.58,106.54c-1.44,0-2.61-1.44-2.61-2.88v-12c0-1.44,1.17-2.88,2.61-2.88h2.46v-5.37l-6.21-6.17h-5.34v2.46c0,1.44-1.44,2.61-2.88,2.61h-12c-1.44,0-2.88-1.17-2.88-2.61v-2.46h-5.41l-6.17,6.17v5.37h2.46c1.44,0,2.61,1.44,2.61,2.88v12c0,1.44-1.17,2.88-2.61,2.88h-2.46v5.37l6.17,6.17h5.37v-2.46c0-1.44,1.44-2.61,2.88-2.61h11.96c1.44,0,2.88,1.17,2.88,2.61v2.46h5.37l6.17-6.17v-5.37h-2.37Z"/></g><g id="plant"><rect class="cls-4" x="508.32" y="20.78" width="46.2" height="46.2"/><rect class="cls-17" x="509.65" y="22.11" width="43.54" height="43.54"/><rect class="cls-9" x="511.76" y="24.22" width="39.31" height="39.31"/><path id="leaf" class="cls-3" d="M531.4,33.93c-5.63,.78-9.93,4.45-9.93,9.93,0,1.33,.26,2.63,.74,3.82-1.04,.7-2.56,1.63-3.3,1.89-1.3,.44-3.89,.15-4,.37s.74,2.56,1.04,2.67,2.67,.11,4-.37c.96-.33,2.7-1.45,3.71-2.19,1.82,2.3,4.63,3.74,7.78,3.74,5.48,0,9.86-3.45,9.86-8.93,0-2.11,.52-4.78,1.3-6.45,.85-1.85,5.26-3.04,5.26-3.04-.44-1.45-14.23-1.74-16.45-1.45h-.01Z"/><path id="darker" class="cls-5" d="M553.19,65.65h-43.54v-23.86s13.71,2.11,21.75,2.11,21.79-2.11,21.79-2.11v23.86Z"/></g><path d="M533.33,107.11v-5.21h-9.11v-2.93l8.95-11.38h3.57v11.38h2.28v2.93h-2.28v5.21h-3.41Zm-5.99-8.13h6.07v-7.65l-6.07,7.65Z"/><path d="M487.07,109.97v-9.67h-9.67v-3.97h9.67v-9.67h3.97v9.67h9.67v3.97h-9.67v9.67h-3.97Z"/><path d="M482.85,47.8v-5.42h13.01v5.42h-13.01Z"/></svg>