<?xml version="1.0" encoding="UTF-8"?><svg id="Layer" xmlns="http://www.w3.org/2000/svg" xmlns:xlink="http://www.w3.org/1999/xlink" viewBox="0 0 221.79 101.79"><defs><style>.cls-1{fill:url(#linear-gradient-2);}.cls-2{fill:#3d4920;}.cls-3{fill:#96c227;}.cls-4,.cls-5{fill:#030304;}.cls-6{fill:url(#linear-gradient);}.cls-5{isolation:isolate;opacity:.12;}</style><linearGradient id="linear-gradient" x1="-1046.89" y1="-1306.64" x2="-979.07" y2="-1238.81" gradientTransform="translate(-132.77 -1565.34) rotate(-45) scale(1 -1)" gradientUnits="userSpaceOnUse"><stop offset="0" stop-color="#3d4920"/><stop offset=".14" stop-color="#4b5e24"/><stop offset=".42" stop-color="#69852b"/><stop offset=".66" stop-color="#81a42c"/><stop offset=".86" stop-color="#8fb923"/><stop offset="1" stop-color="#96c227"/></linearGradient><linearGradient id="linear-gradient-2" x1="-962.04" y1="-1391.49" x2="-894.22" y2="-1323.67" xlink:href="#linear-gradient"/></defs><g id="microbe"><rect class="cls-4" width="101.79" height="101.79"/><rect class="cls-6" x="2.94" y="2.94" width="95.92" height="95.92"/><rect class="cls-3" x="7.59" y="7.59" width="86.61" height="86.61"/><g id="microbes"><polygon class="cls-2" points="52 59.59 47.92 60.08 48.49 64.16 44.41 63.51 43.75 67.59 40.08 65.71 38.29 69.39 35.26 66.53 32.49 69.55 30.45 65.96 26.86 67.92 26.04 63.92 22.04 64.82 22.37 60.73 18.29 60.33 19.84 56.57 16.08 55.02 18.69 51.84 15.51 49.22 18.94 46.94 16.65 43.59 20.57 42.45 19.43 38.45 23.51 38.53 23.59 34.45 27.51 35.67 28.73 31.84 32.08 34.12 34.45 30.78 36.98 34.04 40.16 31.51 41.63 35.35 45.47 33.96 45.71 38.04 49.8 37.8 48.82 41.8 52.82 42.69 50.69 46.2 54.29 48.33 51.18 51.1 53.96 54.12 50.2 55.84 52 59.59"/><polygon class="cls-2" points="87.18 43.18 85.8 43.67 85.8 45.55 83.67 44.9 82.37 46.12 80.24 44.73 78.12 45.31 72.16 46.12 69.63 45.88 67.02 40.9 64.08 40 61.71 37.47 58.86 36.08 56.65 33.39 53.96 32.16 52.33 29.14 50.04 27.18 49.14 24.9 47.51 23.1 47.35 21.22 45.96 19.59 47.1 18.37 47.18 16.57 48.41 16.65 49.55 15.35 51.26 16.08 54.04 13.47 56.16 15.02 58.61 15.18 61.06 16.98 63.92 17.8 65.47 21.8 68.57 23.02 70.69 25.63 73.63 27.27 75.43 29.8 78.2 31.67 82.77 34.12 84.98 36.24 85.31 38.04 86.77 39.84 86.37 41.39 87.18 43.18"/><polygon class="cls-2" points="82.61 62.69 82.94 63.18 83.51 64.41 82.37 65.14 82.45 66.53 79.67 67.59 78.53 69.39 75.1 72.73 71.26 74.53 66.2 76 63.18 77.88 59.1 78.77 55.67 80.41 51.67 81.14 48.49 82.69 44.65 82.86 41.22 83.92 38.53 83.84 35.75 84.49 33.96 84 31.43 84.41 31.27 83.18 30.53 82.86 30.69 81.63 30.53 80.41 32.41 79.43 32.24 76.49 35.26 75.43 37.22 73.71 40.65 72.57 44.65 71.51 48.24 70.94 51.67 68.98 55.59 68.33 59.26 66.77 62.86 66.2 66.61 64.82 72.24 62.2 75.84 61.39 77.63 61.71 80.33 61.22 81.31 62.04 82.61 62.69"/></g><path id="darker" class="cls-5" d="M98.86,98.86H2.94V46.29s30.2,4.65,47.92,4.65,48-4.65,48-4.65v52.57Z"/></g><g id="microbe-2"><rect class="cls-4" x="120" width="101.79" height="101.79"/><rect class="cls-1" x="122.94" y="2.94" width="95.92" height="95.92"/><rect class="cls-3" x="127.59" y="7.59" width="86.61" height="86.61"/><g id="microbes-2"><polygon class="cls-2" points="172 59.59 167.92 60.08 168.49 64.16 164.41 63.51 163.75 67.59 160.08 65.71 158.29 69.39 155.26 66.53 152.49 69.55 150.45 65.96 146.86 67.92 146.04 63.92 142.04 64.82 142.37 60.73 138.29 60.33 139.84 56.57 136.08 55.02 138.69 51.84 135.51 49.22 138.94 46.94 136.65 43.59 140.57 42.45 139.43 38.45 143.51 38.53 143.59 34.45 147.51 35.67 148.73 31.84 152.08 34.12 154.45 30.78 156.98 34.04 160.16 31.51 161.63 35.35 165.47 33.96 165.71 38.04 169.8 37.8 168.82 41.8 172.82 42.69 170.69 46.2 174.29 48.33 171.18 51.1 173.96 54.12 170.2 55.84 172 59.59"/><polygon class="cls-2" points="207.18 43.18 205.8 43.67 205.8 45.55 203.67 44.9 202.37 46.12 200.24 44.73 198.12 45.31 192.16 46.12 189.63 45.88 187.02 40.9 184.08 40 181.71 37.47 178.86 36.08 176.65 33.39 173.96 32.16 172.33 29.14 170.04 27.18 169.14 24.9 167.51 23.1 167.35 21.22 165.96 19.59 167.1 18.37 167.18 16.57 168.41 16.65 169.55 15.35 171.26 16.08 174.04 13.47 176.16 15.02 178.61 15.18 181.06 16.98 183.92 17.8 185.47 21.8 188.57 23.02 190.69 25.63 193.63 27.27 195.43 29.8 198.2 31.67 202.77 34.12 204.98 36.24 205.31 38.04 206.77 39.84 206.37 41.39 207.18 43.18"/><polygon class="cls-2" points="202.61 62.69 202.94 63.18 203.51 64.41 202.37 65.14 202.45 66.53 199.67 67.59 198.53 69.39 195.1 72.73 191.26 74.53 186.2 76 183.18 77.88 179.1 78.77 175.67 80.41 171.67 81.14 168.49 82.69 164.65 82.86 161.22 83.92 158.53 83.84 155.75 84.49 153.96 84 151.43 84.41 151.27 83.18 150.53 82.86 150.69 81.63 150.53 80.41 152.41 79.43 152.24 76.49 155.26 75.43 157.22 73.71 160.65 72.57 164.65 71.51 168.24 70.94 171.67 68.98 175.59 68.33 179.26 66.77 182.86 66.2 186.61 64.82 192.24 62.2 195.84 61.39 197.63 61.71 200.33 61.22 201.31 62.04 202.61 62.69"/></g><path id="darker-2" class="cls-5" d="M218.86,98.86H122.94V46.29s30.2,4.65,47.92,4.65,48-4.65,48-4.65v52.57Z"/></g></svg>