<?xml version="1.0" encoding="utf-8"?>
<!-- Generator: Adobe Illustrator 26.3.1, SVG Export Plug-In . SVG Version: 6.00 Build 0)  -->
<svg version="1.1" id="Layer" xmlns="http://www.w3.org/2000/svg" xmlns:xlink="http://www.w3.org/1999/xlink" x="0px" y="0px"
	 viewBox="0 0 448.1 108.1" style="enable-background:new 0 0 448.1 108.1;" xml:space="preserve">
<style type="text/css">
	.st0{opacity:0.5;fill:#E03E17;enable-background:new    ;}
	.st1{fill:url(#SVGID_1_);}
	.st2{fill:#CE141E;}
	.st3{fill:none;stroke:#020303;stroke-width:1.66;stroke-miterlimit:10;}
	
		.st4{fill:url(#SVGID_00000126286438748303997960000000419137299793505711_);stroke:#020303;stroke-width:2.45;stroke-miterlimit:10;}
	.st5{fill:url(#SVGID_00000072249214186870548050000003777796865074911374_);}
	.st6{fill:none;stroke:#020303;stroke-width:3.67;stroke-miterlimit:10;}
	.st7{fill:none;stroke:#020303;stroke-width:1.84;stroke-miterlimit:10;}
	.st8{fill:#020303;}
	.st9{fill:none;stroke:#020303;stroke-width:2.45;stroke-linecap:square;stroke-miterlimit:10;}
	.st10{opacity:0.31;fill:url(#darker_00000160878734810551992630000002190234078865284245_);enable-background:new    ;}
	.st11{fill:#FFFFFF;}
	.st12{fill:#030304;}
	.st13{fill:url(#SVGID_00000130648756415583844500000003195646983477737909_);}
	.st14{fill:#96C227;}
	.st15{fill:#3D4920;}
	.st16{opacity:0.12;fill:#030304;enable-background:new    ;}
</style>
<g id="strzalka_efekt">
	<path class="st0" d="M277.4,54.9l-50.7-23.4l6.1,12.2h-57.2c0,0-1.7,5.5-1.7,10.8s1.7,9.6,1.7,9.6h58.2l-7.2,14.3L277.4,54.9
		L277.4,54.9L277.4,54.9L277.4,54.9z"/>
	
		<linearGradient id="SVGID_1_" gradientUnits="userSpaceOnUse" x1="224.24" y1="-200.5964" x2="224.24" y2="-162.4364" gradientTransform="matrix(1 0 0 -1 0 -126.6164)">
		<stop  offset="0" style="stop-color:#532A15"/>
		<stop  offset="0.45" style="stop-color:#532A15;stop-opacity:0.7"/>
		<stop  offset="0.58" style="stop-color:#E03E17;stop-opacity:0.5"/>
		<stop  offset="1" style="stop-color:#E03E17;stop-opacity:0.5"/>
	</linearGradient>
	<path class="st1" d="M237.3,62h-60.1c-0.5-1.6-1.1-4.4-1.1-7.5c0-3.3,0.8-6.8,1.2-8.7h59l-5-9.9l41.3,19.1L231.2,74L237.3,62
		L237.3,62L237.3,62z"/>
	<path class="st2" d="M241.7,59.2h-62.4c-0.3-1.3-0.5-3-0.5-4.8c0-2.1,0.3-4.3,0.7-6h61.2l-3.4-6.9L266,54.9l-28.8,13.3L241.7,59.2
		L241.7,59.2L241.7,59.2z"/>
	<path class="st3" d="M237.3,62h-60.1c-0.5-1.6-1.1-4.4-1.1-7.5c0-3.3,0.8-6.8,1.2-8.7h59l-5-9.9l41.3,19.1L231.2,74L237.3,62
		L237.3,62L237.3,62z"/>
</g>
<g id="tr">
	
		<linearGradient id="SVGID_00000000199926250536727970000008001035087703801484_" gradientUnits="userSpaceOnUse" x1="372.21" y1="739.4736" x2="372.21" y2="633.8536" gradientTransform="matrix(1 0 0 1 0 -632.6336)">
		<stop  offset="0" style="stop-color:#951917"/>
		<stop  offset="0.21" style="stop-color:#B13C1E"/>
		<stop  offset="0.44" style="stop-color:#CB5E26"/>
		<stop  offset="0.66" style="stop-color:#E17932"/>
		<stop  offset="0.85" style="stop-color:#EE8C39"/>
		<stop  offset="1" style="stop-color:#F3923B"/>
	</linearGradient>
	
		<rect x="297.5" y="1.2" style="fill:url(#SVGID_00000000199926250536727970000008001035087703801484_);stroke:#020303;stroke-width:2.45;stroke-miterlimit:10;" width="149.4" height="105.6"/>
	
		<radialGradient id="SVGID_00000006697548764997614280000011904559460988298410_" cx="372.27" cy="686.6636" r="60.1565" gradientTransform="matrix(1 0 0 1 0 -632.6336)" gradientUnits="userSpaceOnUse">
		<stop  offset="0" style="stop-color:#F3923B;stop-opacity:0.5"/>
		<stop  offset="1" style="stop-color:#D23F16"/>
	</radialGradient>
	
		<rect x="302.1" y="5.9" style="fill:url(#SVGID_00000006697548764997614280000011904559460988298410_);" width="140.3" height="96.3"/>
	<g id="logo">
		<g>
			<circle class="st6" cx="372.3" cy="50.6" r="27.2"/>
			<path class="st7" d="M372.3,23.4c0,0,14.1,5.8,14.1,27.2s-14.1,27.2-14.1,27.2"/>
			<path class="st7" d="M372.3,23.4c0,0-14.1,5.8-14.1,27.2s14.1,27.2,14.1,27.2"/>
			<line class="st7" x1="372.3" y1="23.4" x2="372.3" y2="77.7"/>
			<line class="st7" x1="345.1" y1="50.5" x2="399.4" y2="50.5"/>
			<path class="st7" d="M351.1,33.4c0,0,8,4,21,4s21-4,21-4"/>
			<path class="st7" d="M351.1,68.1c0-0.1,8-4,21-4s21,4,21,4"/>
			<polygon class="st8" points="388.5,28.3 395.8,21.7 386.2,19.7 407,13.7 402.3,35.4 399.4,24.6 392.6,32.6 			"/>
			<polyline class="st9" points="372.3,84 362.5,84 366.6,84 366.6,93.6 			"/>
			<polyline class="st9" points="379.2,93.6 379.2,84 377.4,84 375.1,90.4 374.4,90.4 372.4,87.4 370.9,87.4 370.9,93.6 			"/>
			<path class="st8" d="M363.2,90.1c0,1.5-3.7,3.7-5.1,3.7s-10.3,0.6-10.3-0.9s8.8-4.5,10.3-4.5C359.5,88.5,363.2,88.6,363.2,90.1
				L363.2,90.1z"/>
			<path class="st8" d="M358.8,86.8c-0.9,0.7-4.2-0.5-4.9-1.3s-5.4-6-4.5-6.7s7.1,3.3,7.8,4.2C357.9,83.7,359.7,86,358.8,86.8
				L358.8,86.8z"/>
			<path class="st8" d="M352.3,88.5c-0.2,1.1-3.4,2.3-4.6,2.1c-1.1-0.2-10.4-1-10.2-2.1s9.9-2.3,11-2.1
				C349.7,86.6,352.6,87.4,352.3,88.5L352.3,88.5z"/>
			<path class="st8" d="M349.9,85.6c-1.1,0.4-3.8-1.7-4.2-2.8s-4.6-9.4-3.7-9.8s7.1,7.2,7.6,8.3C350,82.4,350.8,85.2,349.9,85.6
				L349.9,85.6z"/>
			<path class="st8" d="M343.1,85.1c-0.7,1.1-4.3,1.1-5.3,0.5s-9.7-4.8-8.9-5.9s10.5,1.2,11.5,2C341.4,82.2,343.9,84,343.1,85.1
				L343.1,85.1z"/>
			<path class="st8" d="M340.7,81.1c-1.2,0-2.9-2.8-2.9-3.9s-1-9.8,0.2-9.8s4.2,8.8,4.2,9.9C342,78.3,341.9,81.1,340.7,81.1
				L340.7,81.1z"/>
			<path class="st8" d="M334.2,73.7c-1.1-0.2-2.2-3.3-2-4.4c0.2-1,1.2-9.5,2.3-9.3c1.1,0.2,2,9.3,1.7,10.3
				C336,71.4,335.3,73.9,334.2,73.7z"/>
			<path class="st8" d="M334.8,78.4c-1,0.7-4.3-0.4-5-1.2c-0.7-1-7.6-7.5-6.6-8.2s9.3,4.5,10,5.4C334,75.3,335.7,77.7,334.8,78.4
				L334.8,78.4z"/>
			<path class="st8" d="M329.2,69.3c-1,0.5-3.9-1.1-4.4-2.1s-5.8-8.3-4.6-8.9c1-0.5,7.8,6,8.3,7C328.9,66.2,330.2,68.7,329.2,69.3
				L329.2,69.3z"/>
			<path class="st8" d="M329.8,65.7c-0.9-0.4-1.2-3.4-0.9-4.4s2.7-9.4,3.5-9.1c0.9,0.4,0.1,9.3-0.2,10.3
				C331.8,63.6,330.7,66.1,329.8,65.7L329.8,65.7z"/>
			<path class="st8" d="M326,60c-1,0.2-3.1-2.2-3.3-3.4c-0.2-1.1-3.1-9.7-2.2-9.9c1-0.2,5.4,8.1,5.6,9.2C326.4,56.9,327,59.9,326,60
				L326,60z"/>
			<path class="st8" d="M327.7,56.2c-0.9-0.5-0.7-3.3-0.2-4.2s3.7-7.7,4.5-7.2s-1.1,8.3-1.6,9.1C329.9,54.7,328.6,56.7,327.7,56.2
				L327.7,56.2z"/>
			<path class="st8" d="M325.1,49.2c-1-0.1-2.3-2.9-2.2-4s-0.1-9.5,0.9-9.5c1,0.1,2.8,8.8,2.7,9.9S326.1,49.3,325.1,49.2L325.1,49.2
				z"/>
			<path class="st8" d="M327.6,46.4c-0.6-0.6,0.4-3.4,1.1-4s6.1-6.7,6.7-6c0.6,0.6-3.8,7.8-4.5,8.4
				C330.2,45.4,328.2,47.1,327.6,46.4L327.6,46.4z"/>
			<path class="st8" d="M331.3,37.5c-0.5-0.6,0.2-2.7,0.9-3.3c0.6-0.5,4.9-5.4,5.4-4.8s-2.9,6.2-3.5,6.8
				C333.2,36.6,331.8,37.9,331.3,37.5L331.3,37.5z"/>
			<path class="st8" d="M327.1,38.7c-0.7-0.2-1.2-3.2-1-4.2s2-9.3,2.7-9.2c0.7,0.2,0.4,8.9,0.1,9.9C328.8,36.5,328,39,327.1,38.7
				L327.1,38.7z"/>
			<path class="st8" d="M331.8,32.2c-1-0.4-1.5-3.3-1.1-4.3c0.4-1,2.3-8.9,3.3-8.6c1,0.4,0.5,8.9,0.1,9.9
				C333.7,30.1,332.7,32.5,331.8,32.2L331.8,32.2z"/>
			<path class="st8" d="M381.3,89.7c0,1.5,3.7,3.7,5.1,3.7s10.3,0.6,10.3-0.9s-8.8-4.5-10.3-4.5S381.3,88.2,381.3,89.7L381.3,89.7z"
				/>
			<path class="st8" d="M385.7,86.4c0.9,0.7,4.2-0.5,4.9-1.3s5.4-6,4.5-6.7c-0.9-0.7-7.1,3.3-7.8,4.2
				C386.6,83.4,384.9,85.7,385.7,86.4L385.7,86.4z"/>
			<path class="st8" d="M392.2,88.1c0.2,1.1,3.4,2.3,4.6,2.1c1.1-0.2,10.4-1,10.2-2.1s-9.9-2.3-11-2.1C394.8,86.3,392,87,392.2,88.1
				L392.2,88.1z"/>
			<path class="st8" d="M394.7,85.2c1.1,0.4,3.8-1.7,4.2-2.8s4.6-9.4,3.5-9.8s-7.1,7.2-7.6,8.3C394.6,82,393.7,84.8,394.7,85.2z"/>
			<path class="st8" d="M401.4,84.7c0.7,1.1,4.3,1.1,5.3,0.5s9.5-4.8,8.8-5.9c-0.7-1.1-10.5,1.2-11.5,2
				C403.1,81.9,400.7,83.6,401.4,84.7L401.4,84.7z"/>
			<path class="st8" d="M403.9,80.8c1.2,0,2.9-2.8,2.9-3.9s1-9.8-0.2-9.8s-4.2,8.8-4.2,9.9C402.5,78.1,402.6,80.8,403.9,80.8
				L403.9,80.8z"/>
			<path class="st8" d="M410.3,73.3c1.1-0.2,2.2-3.3,2-4.4c-0.2-1-1.2-9.5-2.3-9.3c-1.1,0.2-2,9.3-1.7,10.3
				C408.5,71,409.2,73.5,410.3,73.3z"/>
			<path class="st8" d="M409.7,78.1c1,0.7,4.3-0.4,5-1.2c0.7-1,7.6-7.5,6.6-8.2c-1-0.7-9.3,4.5-10,5.4
				C410.6,75,408.9,77.4,409.7,78.1L409.7,78.1z"/>
			<path class="st8" d="M415.4,68.9c1,0.5,3.9-1.1,4.4-2.1s5.8-8.3,4.6-8.9c-1-0.5-7.8,6-8.3,7C415.6,65.9,414.4,68.4,415.4,68.9
				L415.4,68.9z"/>
			<path class="st8" d="M414.7,65.5c0.9-0.4,1.4-3.4,0.9-4.4s-2.7-9.4-3.5-9.1c-0.9,0.4-0.1,9.3,0.2,10.3
				C412.8,63.3,413.9,65.8,414.7,65.5L414.7,65.5z"/>
			<path class="st8" d="M418.5,59.6c1,0.2,3.1-2.2,3.3-3.4c0.2-1.1,3.2-9.7,2.2-9.9c-1-0.2-5.4,8.1-5.6,9.2
				C418.2,56.7,417.5,59.5,418.5,59.6L418.5,59.6z"/>
			<path class="st8" d="M416.8,55.8c0.9-0.5,0.9-3.3,0.2-4.2c-0.5-0.9-3.8-7.7-4.5-7.2s1.1,8.3,1.6,9.1
				C414.6,54.4,416,56.4,416.8,55.8L416.8,55.8z"/>
			<path class="st8" d="M419.4,48.8c1-0.1,2.3-2.9,2.2-4c-0.1-1.1,0.1-9.7-0.9-9.5c-1,0.1-2.8,8.8-2.7,9.9
				C418,46.2,418.4,48.9,419.4,48.8L419.4,48.8z"/>
			<path class="st8" d="M416.9,46c0.6-0.6-0.4-3.4-1.1-4s-6.1-6.7-6.7-6c-0.6,0.6,3.8,7.8,4.5,8.4C414.4,45,416.3,46.8,416.9,46
				L416.9,46z"/>
			<path class="st8" d="M413.3,37.1c0.5-0.6-0.2-2.7-0.9-3.3s-4.9-5.4-5.4-4.8s2.9,6.2,3.5,6.8C411.2,36.4,412.8,37.6,413.3,37.1
				L413.3,37.1z"/>
			<path class="st8" d="M417.3,38.4c0.7-0.2,1.2-3.2,1-4.2s-2-9.3-2.7-9.2c-0.7,0.2-0.4,8.9-0.1,9.9
				C415.7,36.1,416.6,38.7,417.3,38.4L417.3,38.4z"/>
			<path class="st8" d="M412.8,31.8c1-0.4,1.5-3.3,1.1-4.3c-0.4-1-2.3-8.9-3.3-8.6c-1,0.4-0.5,8.9-0.1,9.9
				C410.8,29.7,411.8,32.2,412.8,31.8L412.8,31.8z"/>
		</g>
	</g>
	
		<linearGradient id="darker_00000051366431178482719710000005516062041975327664_" gradientUnits="userSpaceOnUse" x1="372.21" y1="739.4736" x2="372.21" y2="672.1926" gradientTransform="matrix(1 0 0 1 0 -632.6336)">
		<stop  offset="0" style="stop-color:#1F1F1D"/>
		<stop  offset="1" style="stop-color:#3E3D3C"/>
	</linearGradient>
	
		<path id="darker" style="opacity:0.31;fill:url(#darker_00000051366431178482719710000005516062041975327664_);enable-background:new    ;" d="
		M446.4,39.8c-2.3,4.7-41.7,12.2-74.2,12.2s-72.5-8.3-74.8-12.2v67.1h149.4V40.5C446.8,39.6,446.6,39.3,446.4,39.8L446.4,39.8z"/>
</g>
<path class="st11" d="M0,77.4v-7.1c4.7,1.8,8.6,2.7,11.6,2.7c2.7,0,5-0.7,6.7-2.2s2.6-3.4,2.6-5.8c0-1.8-0.5-3.4-1.4-4.8
	c-0.9-1.4-2.2-2.5-4-3.3s-4.5-1.2-8.3-1.2H4.4v-5.6l2.5,0c3.6,0,6.2-0.3,7.8-1s2.8-1.7,3.7-3s1.3-2.8,1.3-4.4c0-1.9-0.6-3.4-1.9-4.6
	c-1.3-1.2-3.3-1.8-6-1.8c-3.4,0-7.1,0.9-11.1,2.7v-6.4c2-0.7,3.5-1.1,4.7-1.4s2.5-0.4,4.1-0.6c1.6-0.1,3-0.2,4.4-0.2
	c5,0,8.8,1,11.5,3.1s4,4.8,4,8.2c0,2.8-0.9,5.2-2.6,7.1s-4.3,3.5-7.8,4.7c3,0.7,5.4,1.7,7,2.9c1.6,1.2,2.8,2.7,3.7,4.4
	c0.9,1.7,1.3,3.5,1.3,5.4c0,3.6-1.4,6.8-4.2,9.6S19.2,79,12.9,79c-1.7,0-3.4-0.1-5.3-0.2C5.8,78.7,3.2,78.3,0,77.4L0,77.4L0,77.4z"
	/>
<g id="microbe">
	<rect x="43.7" y="3.9" class="st12" width="101.8" height="101.8"/>
	
		<linearGradient id="SVGID_00000046301998872676710390000006157706892555202736_" gradientUnits="userSpaceOnUse" x1="-1134.1571" y1="1728.8986" x2="-1066.3314" y2="1661.0629" gradientTransform="matrix(0.7071 -0.7071 0.7071 0.7071 -325.9022 -1921.7524)">
		<stop  offset="0" style="stop-color:#3D4920"/>
		<stop  offset="0.14" style="stop-color:#4B5E24"/>
		<stop  offset="0.42" style="stop-color:#69852B"/>
		<stop  offset="0.66" style="stop-color:#81A42C"/>
		<stop  offset="0.86" style="stop-color:#8FB923"/>
		<stop  offset="1" style="stop-color:#96C227"/>
	</linearGradient>
	
		<rect x="46.7" y="6.8" style="fill:url(#SVGID_00000046301998872676710390000006157706892555202736_);" width="95.9" height="95.9"/>
	<rect x="51.3" y="11.5" class="st14" width="86.6" height="86.6"/>
	<g id="microbes">
		<polygon class="st15" points="95.7,63.5 91.7,64 92.2,68 88.2,67.4 87.5,71.5 83.8,69.6 82,73.3 79,70.4 76.2,73.4 74.2,69.8 
			70.6,71.8 69.8,67.8 65.8,68.7 66.1,64.6 62,64.2 63.6,60.4 59.8,58.9 62.4,55.7 59.2,53.1 62.7,50.8 60.4,47.5 64.3,46.3 
			63.2,42.3 67.2,42.4 67.3,38.3 71.2,39.5 72.5,35.7 75.8,38 78.2,34.7 80.7,37.9 83.9,35.4 85.4,39.2 89.2,37.8 89.4,41.9 
			93.5,41.7 92.6,45.7 96.6,46.6 94.4,50.1 98,52.2 94.9,55 97.7,58 93.9,59.7 		"/>
		<polygon class="st15" points="130.9,47 129.5,47.5 129.5,49.4 127.4,48.8 126.1,50 124,48.6 121.9,49.2 115.9,50 113.4,49.8 
			110.8,44.8 107.8,43.9 105.4,41.3 102.6,40 100.4,37.3 97.7,36 96.1,33 93.8,31.1 92.9,28.8 91.2,27 91.1,25.1 89.7,23.5 
			90.8,22.2 90.9,20.4 92.2,20.5 93.3,19.2 95,20 97.8,17.3 99.9,18.9 102.3,19.1 104.8,20.9 107.7,21.7 109.2,25.7 112.3,26.9 
			114.4,29.5 117.4,31.1 119.2,33.7 121.9,35.5 126.5,38 128.7,40.1 129,41.9 130.5,43.7 130.1,45.3 		"/>
		<polygon class="st15" points="126.3,66.6 126.7,67.1 127.2,68.3 126.1,69 126.2,70.4 123.4,71.5 122.3,73.3 118.8,76.6 115,78.4 
			109.9,79.9 106.9,81.8 102.8,82.7 99.4,84.3 95.4,85 92.2,86.6 88.4,86.7 85,87.8 82.3,87.7 79.5,88.4 77.7,87.9 75.2,88.3 
			75,87.1 74.3,86.7 74.4,85.5 74.3,84.3 76.2,83.3 76,80.4 79,79.3 81,77.6 84.4,76.4 88.4,75.4 92,74.8 95.4,72.8 99.3,72.2 
			103,70.7 106.6,70.1 110.3,68.7 116,66.1 119.6,65.3 121.4,65.6 124.1,65.1 125,65.9 		"/>
	</g>
	<path id="darker-2" class="st16" d="M142.6,102.7H46.7V50.2c0,0,30.2,4.7,47.9,4.7s48-4.7,48-4.7L142.6,102.7L142.6,102.7z"/>
</g>
</svg>
