<?xml version="1.0" encoding="UTF-8"?><svg id="Layer" xmlns="http://www.w3.org/2000/svg" xmlns:xlink="http://www.w3.org/1999/xlink" viewBox="0 0 512.93 156.51"><defs><style>.cls-1{fill:url(#linear-gradient-2);}.cls-2,.cls-3{fill:#020303;}.cls-4{stroke:#fff;}.cls-4,.cls-5{stroke-width:2.19px;}.cls-4,.cls-5,.cls-6{stroke-miterlimit:10;}.cls-4,.cls-6{fill:none;}.cls-7{fill:#ce141e;}.cls-3{opacity:.12;}.cls-3,.cls-8,.cls-9{isolation:isolate;}.cls-10{fill:#3c481e;}.cls-5{fill:url(#linear-gradient-4);}.cls-5,.cls-6{stroke:#020303;}.cls-8{fill:url(#linear-gradient-5);}.cls-8,.cls-9{opacity:.5;}.cls-9{fill:#e03e17;}.cls-11{fill:#95c125;}.cls-6{stroke-width:2.03px;}.cls-12{fill:url(#linear-gradient-3);}.cls-13{fill:url(#linear-gradient);}</style><linearGradient id="linear-gradient" x1="-756.88" y1="1014.61" x2="-673.8" y2="931.53" gradientTransform="translate(-119.89 -1114.72) rotate(-45)" gradientUnits="userSpaceOnUse"><stop offset="0" stop-color="#3c481e"/><stop offset=".14" stop-color="#4a5d23"/><stop offset=".42" stop-color="#68842b"/><stop offset=".66" stop-color="#80a42a"/><stop offset=".86" stop-color="#8fb923"/><stop offset="1" stop-color="#95c125"/></linearGradient><linearGradient id="linear-gradient-2" x1="369.84" y1="339.34" x2="369.84" y2="292.59" gradientTransform="translate(0 -236.64)" gradientUnits="userSpaceOnUse"><stop offset="0" stop-color="#532a15"/><stop offset=".45" stop-color="#532a15" stop-opacity=".7"/><stop offset=".58" stop-color="#e03e17" stop-opacity=".5"/><stop offset="1" stop-color="#e03e17" stop-opacity=".5"/></linearGradient><linearGradient id="linear-gradient-3" x1="-652.23" y1="1119.27" x2="-569.14" y2="1036.18" xlink:href="#linear-gradient"/><linearGradient id="linear-gradient-4" x1="489.96" y1="-65.59" x2="489.96" y2="88.74" gradientTransform="translate(0 89.83) scale(1 -1)" gradientUnits="userSpaceOnUse"><stop offset=".08" stop-color="#42c0f0"/><stop offset=".15" stop-color="#51a5d4"/><stop offset=".23" stop-color="#5c84b3"/><stop offset=".3" stop-color="#62699b"/><stop offset=".37" stop-color="#66558b"/><stop offset=".42" stop-color="#674880"/><stop offset=".46" stop-color="#67447d"/><stop offset=".55" stop-color="#903d60"/><stop offset=".67" stop-color="#b6303b"/><stop offset=".75" stop-color="#cc2021"/><stop offset=".79" stop-color="#d4161a"/></linearGradient><linearGradient id="linear-gradient-5" x1="483.65" y1="-38.1" x2="475.33" y2="-29.78" gradientTransform="translate(0 89.83) scale(1 -1)" gradientUnits="userSpaceOnUse"><stop offset="0" stop-color="#1f1f1d" stop-opacity="0"/><stop offset="1" stop-color="#fff"/></linearGradient></defs><g id="microbe"><rect class="cls-2" y="16.81" width="124.7" height="124.7"/><rect class="cls-13" x="3.6" y="20.41" width="117.5" height="117.5"/><rect class="cls-11" x="9.3" y="26.11" width="106.1" height="106.1"/><g id="microbes"><polygon class="cls-10" points="63.7 89.81 58.7 90.41 59.4 95.41 54.4 94.61 53.6 99.61 49.1 97.31 46.9 101.81 43.2 98.31 39.8 102.01 37.3 97.61 32.9 100.01 31.9 95.11 27 96.21 27.4 91.21 22.4 90.71 24.3 86.11 19.7 84.21 22.9 80.31 19 77.11 23.2 74.31 20.4 70.21 25.2 68.81 23.8 63.91 28.8 64.01 28.9 59.01 33.7 60.51 35.2 55.81 39.3 58.61 42.2 54.51 45.3 58.51 49.2 55.41 51 60.11 55.7 58.41 56 63.41 61 63.11 59.8 68.01 64.7 69.11 62.1 73.41 66.5 76.01 62.7 79.41 66.1 83.11 61.5 85.21 63.7 89.81"/><polygon class="cls-10" points="106.8 69.71 105.1 70.31 105.1 72.61 102.5 71.81 100.9 73.31 98.3 71.61 95.7 72.31 88.4 73.31 85.3 73.01 82.1 66.91 78.5 65.81 75.6 62.71 72.1 61.01 69.4 57.71 66.1 56.21 64.1 52.51 61.3 50.11 60.2 47.31 58.2 45.11 58 42.81 56.3 40.81 57.7 39.31 57.8 37.11 59.3 37.21 60.7 35.61 62.8 36.51 66.2 33.31 68.8 35.21 71.8 35.41 74.8 37.61 78.3 38.61 80.2 43.51 84 45.01 86.6 48.21 90.2 50.21 92.4 53.31 95.8 55.61 101.4 58.61 104.1 61.21 104.5 63.41 106.3 65.61 105.8 67.51 106.8 69.71"/><polygon class="cls-10" points="101.2 93.61 101.6 94.21 102.3 95.71 100.9 96.61 101 98.31 97.6 99.61 96.2 101.81 92 105.91 87.3 108.11 81.1 109.91 77.4 112.21 72.4 113.31 68.2 115.31 63.3 116.21 59.4 118.11 54.7 118.31 50.5 119.61 47.2 119.51 43.8 120.31 41.6 119.71 38.5 120.21 38.3 118.71 37.4 118.31 37.6 116.81 37.4 115.31 39.7 114.11 39.5 110.51 43.2 109.21 45.6 107.11 49.8 105.71 54.7 104.41 59.1 103.71 63.3 101.31 68.1 100.51 72.6 98.61 77 97.91 81.6 96.21 88.5 93.01 92.9 92.01 95.1 92.41 98.4 91.81 99.6 92.81 101.2 93.61"/></g><path id="darker" class="cls-3" d="M121.1,137.91H3.6V73.51s37,5.7,58.7,5.7,58.8-5.7,58.8-5.7v64.4Z"/></g><g id="strzalka_efekt"><path class="cls-9" d="M435,79.31l-62.15-28.72,7.52,14.93h-70.04s-2.11,6.73-2.11,13.2,2.11,11.76,2.11,11.76h71.36l-8.84,17.57,62.15-28.72h0v-.02Z"/><path class="cls-1" d="M385.81,87.95h-73.66c-.56-1.91-1.4-5.36-1.4-9.22,0-4.09,.92-8.34,1.5-10.67h72.23l-6.1-12.11,50.56,23.37-50.56,23.37,7.44-14.75h-.01Z"/><path class="cls-7" d="M391.26,84.6h-76.5c-.34-1.62-.65-3.69-.65-5.86,0-2.56,.41-5.22,.82-7.32h75l-4.22-8.4,35.27,16.3-35.27,16.3,5.56-11.03h-.01Z"/><path class="cls-6" d="M385.81,87.95h-73.66c-.56-1.91-1.4-5.36-1.4-9.22,0-4.09,.92-8.34,1.5-10.67h72.23l-6.1-12.11,50.56,23.37-50.56,23.37,7.44-14.75h-.01Z"/></g><g id="microbe-2"><rect class="cls-2" x="148" y="16.81" width="124.7" height="124.7"/><rect class="cls-12" x="151.6" y="20.41" width="117.5" height="117.5"/><rect class="cls-11" x="157.3" y="26.11" width="106.1" height="106.1"/><g id="microbes-2"><polygon class="cls-10" points="211.7 89.81 206.7 90.41 207.4 95.41 202.4 94.61 201.6 99.61 197.1 97.31 194.9 101.81 191.2 98.31 187.8 102.01 185.3 97.61 180.9 100.01 179.9 95.11 175 96.21 175.4 91.21 170.4 90.71 172.3 86.11 167.7 84.21 170.9 80.31 167 77.11 171.2 74.31 168.4 70.21 173.2 68.81 171.8 63.91 176.8 64.01 176.9 59.01 181.7 60.51 183.2 55.81 187.3 58.61 190.2 54.51 193.3 58.51 197.2 55.41 199 60.11 203.7 58.41 204 63.41 209 63.11 207.8 68.01 212.7 69.11 210.1 73.41 214.5 76.01 210.7 79.41 214.1 83.11 209.5 85.21 211.7 89.81"/><polygon class="cls-10" points="254.8 69.71 253.1 70.31 253.1 72.61 250.5 71.81 248.9 73.31 246.3 71.61 243.7 72.31 236.4 73.31 233.3 73.01 230.1 66.91 226.5 65.81 223.6 62.71 220.1 61.01 217.4 57.71 214.1 56.21 212.1 52.51 209.3 50.11 208.2 47.31 206.2 45.11 206 42.81 204.3 40.81 205.7 39.31 205.8 37.11 207.3 37.21 208.7 35.61 210.8 36.51 214.2 33.31 216.8 35.21 219.8 35.41 222.8 37.61 226.3 38.61 228.2 43.51 232 45.01 234.6 48.21 238.2 50.21 240.4 53.31 243.8 55.61 249.4 58.61 252.1 61.21 252.5 63.41 254.3 65.61 253.8 67.51 254.8 69.71"/><polygon class="cls-10" points="249.2 93.61 249.6 94.21 250.3 95.71 248.9 96.61 249 98.31 245.6 99.61 244.2 101.81 240 105.91 235.3 108.11 229.1 109.91 225.4 112.21 220.4 113.31 216.2 115.31 211.3 116.21 207.4 118.11 202.7 118.31 198.5 119.61 195.2 119.51 191.8 120.31 189.6 119.71 186.5 120.21 186.3 118.71 185.4 118.31 185.6 116.81 185.4 115.31 187.7 114.11 187.5 110.51 191.2 109.21 193.6 107.11 197.8 105.71 202.7 104.41 207.1 103.71 211.3 101.31 216.1 100.51 220.6 98.61 225 97.91 229.6 96.21 236.5 93.01 240.9 92.01 243.1 92.41 246.4 91.81 247.6 92.81 249.2 93.61"/></g><path id="darker-2" class="cls-3" d="M269.1,137.91h-117.5V73.51s37,5.7,58.7,5.7,58.8-5.7,58.8-5.7v64.4Z"/></g><g id="tempIcon"><path class="cls-5" d="M500.2,114.45V11.34c0-5.59-4.66-10.24-10.24-10.24s-10.24,4.66-10.24,10.24V114.22c-6.75,3.72-11.64,10.94-11.64,19.32,0,12.1,9.78,21.88,21.88,21.88s21.88-9.78,21.88-21.88c0-8.38-4.66-15.6-11.64-19.09Z"/><line class="cls-4" x1="485.53" y1="23.44" x2="494.61" y2="23.44"/><line class="cls-4" x1="485.53" y1="52.07" x2="494.61" y2="52.07"/><line class="cls-4" x1="485.53" y1="78.14" x2="494.61" y2="78.14"/><line class="cls-4" x1="485.53" y1="102.35" x2="494.61" y2="102.35"/><line class="cls-4" x1="485.53" y1="133.07" x2="494.61" y2="133.07"/><path class="cls-8" d="M483.67,127.72c-3.26,3.49-7.91,4.19-10.24,2.09-2.33-2.33-1.4-6.98,1.86-10.24s7.91-4.19,10.24-1.86,1.63,6.75-1.86,10.01Z"/></g></svg>