<?xml version="1.0" encoding="utf-8"?>
<!-- Generator: Adobe Illustrator 26.3.1, SVG Export Plug-In . SVG Version: 6.00 Build 0)  -->
<svg version="1.1" id="Layer" xmlns="http://www.w3.org/2000/svg" xmlns:xlink="http://www.w3.org/1999/xlink" x="0px" y="0px"
	 viewBox="0 0 185.3 124.7" style="enable-background:new 0 0 185.3 124.7;" xml:space="preserve">
<style type="text/css">
	.st0{fill:#020303;}
	.st1{fill:url(#SVGID_1_);}
	.st2{fill:#44AC36;}
	.st3{fill:#07562A;stroke:#1C4421;stroke-width:4;stroke-miterlimit:10;}
	.st4{opacity:5.000000e-02;fill:#020303;enable-background:new    ;}
	.st5{fill:#FFFFFF;}
</style>
<g id="plant">
	<rect x="60.6" y="0" class="st0" width="124.7" height="124.7"/>
	
		<linearGradient id="SVGID_1_" gradientUnits="userSpaceOnUse" x1="-1172.5583" y1="1887.5922" x2="-1089.4734" y2="1804.5071" gradientTransform="matrix(0.7071 -0.7071 0.7071 0.7071 -382.6452 -2042.7532)">
		<stop  offset="0" style="stop-color:#0C6835"/>
		<stop  offset="4.000000e-02" style="stop-color:#0A6B36"/>
		<stop  offset="8.000000e-02" style="stop-color:#047638"/>
		<stop  offset="0.13" style="stop-color:#078738"/>
		<stop  offset="0.15" style="stop-color:#058F39"/>
		<stop  offset="0.35" style="stop-color:#34993D"/>
		<stop  offset="0.76" style="stop-color:#5EAF47"/>
		<stop  offset="1" style="stop-color:#6EB74A"/>
	</linearGradient>
	<rect x="64.2" y="3.6" class="st1" width="117.5" height="117.5"/>
	<rect x="69.9" y="9.3" class="st2" width="106.1" height="106.1"/>
	<path id="leaf" class="st3" d="M122.9,35.5c-15.2,2.1-26.8,12-26.8,26.8c0,3.6,0.7,7.1,2,10.3c-2.8,1.9-6.9,4.4-8.9,5.1
		c-3.5,1.2-10.5,0.4-10.8,1s2,6.9,2.8,7.2s7.2,0.3,10.8-1c2.6-0.9,7.3-3.9,10-5.9c4.9,6.2,12.5,10.1,21,10.1
		c14.8,0,26.6-9.3,26.6-24.1c0-5.7,1.4-12.9,3.5-17.4c2.3-5,14.2-8.2,14.2-8.2C166.1,35.5,128.9,34.7,122.9,35.5L122.9,35.5
		L122.9,35.5z"/>
	<path id="darker" class="st4" d="M181.7,121.1H64.2V56.7c0,0,37,5.7,58.7,5.7s58.8-5.7,58.8-5.7V121.1z"/>
</g>
<path class="st5" d="M9.1,90.5v-8.4C14,84,18.2,85,21.5,85c3.6,0,6.3-1.1,8.1-3.3c1.8-2.2,2.7-4.7,2.7-7.7c0-3.7-1.5-6.7-4.4-9
	s-7.4-3.4-13.5-3.4c-1.4,0-2.8,0.1-4.2,0.3V33h33.2v9.1H18.5L18,54.6c9,0,15.7,1.8,20,5.5s6.5,8.3,6.5,13.9c0,5.2-1.9,9.5-5.7,13
	s-9.5,5.2-17.1,5.2c-1.8,0-3.5-0.1-4.9-0.2S12.7,91.3,9.1,90.5L9.1,90.5z"/>
</svg>
