<?xml version="1.0" encoding="UTF-8"?><svg id="Layer" xmlns="http://www.w3.org/2000/svg" xmlns:xlink="http://www.w3.org/1999/xlink" viewBox="0 0 628.42 159.96"><defs><style>.cls-1{fill:url(#linear-gradient-2);}.cls-2{stroke:url(#linear-gradient-4);}.cls-2,.cls-3,.cls-4,.cls-5,.cls-6{stroke-miterlimit:10;}.cls-2,.cls-5,.cls-6{stroke-width:3.85px;}.cls-2,.cls-6{fill:#e2131b;}.cls-7,.cls-8{fill:#020303;}.cls-3{stroke-width:1.2px;}.cls-3,.cls-4,.cls-5{fill:none;}.cls-3,.cls-5{stroke:#1f1f1d;}.cls-9{fill:url(#radial-gradient);}.cls-10{fill:#ce141e;}.cls-8{opacity:.12;}.cls-8,.cls-11{isolation:isolate;}.cls-12{fill:#3c481e;}.cls-11{fill:#e03e17;opacity:.5;}.cls-13{fill:#95c125;}.cls-4{stroke:#020303;stroke-width:2.03px;}.cls-14{fill:url(#linear-gradient-3);}.cls-15{fill:url(#linear-gradient);}.cls-6{stroke:url(#linear-gradient-5);}</style><linearGradient id="linear-gradient" x1="-756.88" y1="1016.34" x2="-673.8" y2="933.25" gradientTransform="translate(-121.11 -1114.21) rotate(-45)" gradientUnits="userSpaceOnUse"><stop offset="0" stop-color="#3c481e"/><stop offset=".14" stop-color="#4a5d23"/><stop offset=".42" stop-color="#68842b"/><stop offset=".66" stop-color="#80a42a"/><stop offset=".86" stop-color="#8fb923"/><stop offset="1" stop-color="#95c125"/></linearGradient><linearGradient id="linear-gradient-2" x1="369.84" y1="341.06" x2="369.84" y2="294.31" gradientTransform="translate(0 -236.64)" gradientUnits="userSpaceOnUse"><stop offset="0" stop-color="#532a15"/><stop offset=".45" stop-color="#532a15" stop-opacity=".7"/><stop offset=".58" stop-color="#e03e17" stop-opacity=".5"/><stop offset="1" stop-color="#e03e17" stop-opacity=".5"/></linearGradient><linearGradient id="linear-gradient-3" x1="-652.23" y1="1120.99" x2="-569.14" y2="1037.91" xlink:href="#linear-gradient"/><radialGradient id="radial-gradient" cx="548.57" cy="333.16" fx="548.57" fy="333.16" r="78.06" gradientTransform="translate(0 -253.17)" gradientUnits="userSpaceOnUse"><stop offset="0" stop-color="#f6ee82"/><stop offset=".78" stop-color="#f6ee82"/><stop offset=".91" stop-color="#f6ee82"/><stop offset=".91" stop-color="#f7ee85"/><stop offset=".94" stop-color="#faf4b6"/><stop offset=".96" stop-color="#fdfada"/><stop offset=".97" stop-color="#fefcef"/><stop offset=".99" stop-color="#fffffd"/><stop offset="1" stop-color="#fff"/></radialGradient><linearGradient id="linear-gradient-4" x1="554.92" y1="364.89" x2="510.55" y2="320.52" gradientTransform="translate(0 -253.17)" gradientUnits="userSpaceOnUse"><stop offset="0" stop-color="#5c1410"/><stop offset=".1" stop-color="#611912"/><stop offset=".26" stop-color="#722a22"/><stop offset=".48" stop-color="#904c43"/><stop offset=".73" stop-color="#be887f"/><stop offset="1" stop-color="#fbdede"/></linearGradient><linearGradient id="linear-gradient-5" x1="586.35" y1="343.67" x2="541.98" y2="299.3" xlink:href="#linear-gradient-4"/></defs><g id="microbe"><rect class="cls-7" y="18.53" width="124.7" height="124.7"/><rect class="cls-15" x="3.6" y="22.13" width="117.5" height="117.5"/><rect class="cls-13" x="9.3" y="27.83" width="106.1" height="106.1"/><g id="microbes"><polygon class="cls-12" points="63.7 91.53 58.7 92.13 59.4 97.13 54.4 96.33 53.6 101.33 49.1 99.03 46.9 103.53 43.2 100.03 39.8 103.73 37.3 99.33 32.9 101.73 31.9 96.83 27 97.93 27.4 92.93 22.4 92.43 24.3 87.83 19.7 85.93 22.9 82.03 19 78.83 23.2 76.03 20.4 71.93 25.2 70.53 23.8 65.63 28.8 65.73 28.9 60.73 33.7 62.23 35.2 57.53 39.3 60.33 42.2 56.23 45.3 60.23 49.2 57.13 51 61.83 55.7 60.13 56 65.13 61 64.83 59.8 69.73 64.7 70.83 62.1 75.13 66.5 77.73 62.7 81.13 66.1 84.83 61.5 86.93 63.7 91.53"/><polygon class="cls-12" points="106.8 71.43 105.1 72.03 105.1 74.33 102.5 73.53 100.9 75.03 98.3 73.33 95.7 74.03 88.4 75.03 85.3 74.73 82.1 68.63 78.5 67.53 75.6 64.43 72.1 62.73 69.4 59.43 66.1 57.93 64.1 54.23 61.3 51.83 60.2 49.03 58.2 46.83 58 44.53 56.3 42.53 57.7 41.03 57.8 38.83 59.3 38.93 60.7 37.33 62.8 38.23 66.2 35.03 68.8 36.93 71.8 37.13 74.8 39.33 78.3 40.33 80.2 45.23 84 46.73 86.6 49.93 90.2 51.93 92.4 55.03 95.8 57.33 101.4 60.33 104.1 62.93 104.5 65.13 106.3 67.33 105.8 69.23 106.8 71.43"/><polygon class="cls-12" points="101.2 95.33 101.6 95.93 102.3 97.43 100.9 98.33 101 100.03 97.6 101.33 96.2 103.53 92 107.63 87.3 109.83 81.1 111.63 77.4 113.93 72.4 115.03 68.2 117.03 63.3 117.93 59.4 119.83 54.7 120.03 50.5 121.33 47.2 121.23 43.8 122.03 41.6 121.43 38.5 121.93 38.3 120.43 37.4 120.03 37.6 118.53 37.4 117.03 39.7 115.83 39.5 112.23 43.2 110.93 45.6 108.83 49.8 107.43 54.7 106.13 59.1 105.43 63.3 103.03 68.1 102.23 72.6 100.33 77 99.63 81.6 97.93 88.5 94.73 92.9 93.73 95.1 94.13 98.4 93.53 99.6 94.53 101.2 95.33"/></g><path id="darker" class="cls-8" d="M121.1,139.63H3.6V75.23s37,5.7,58.7,5.7,58.8-5.7,58.8-5.7v64.4Z"/></g><g id="strzalka_efekt"><path class="cls-11" d="M435,81.04l-62.15-28.72,7.52,14.93h-70.04s-2.11,6.73-2.11,13.2,2.11,11.76,2.11,11.76h71.36l-8.84,17.57,62.15-28.72h0v-.02Z"/><path class="cls-1" d="M385.81,89.67h-73.66c-.56-1.91-1.4-5.36-1.4-9.22,0-4.09,.92-8.34,1.5-10.67h72.23l-6.1-12.11,50.56,23.37-50.56,23.37,7.44-14.75h-.01Z"/><path class="cls-10" d="M391.26,86.32h-76.5c-.34-1.62-.65-3.69-.65-5.86,0-2.56,.41-5.22,.82-7.32h75l-4.22-8.4,35.27,16.3-35.27,16.3,5.56-11.03h-.01Z"/><path class="cls-4" d="M385.81,89.67h-73.66c-.56-1.91-1.4-5.36-1.4-9.22,0-4.09,.92-8.34,1.5-10.67h72.23l-6.1-12.11,50.56,23.37-50.56,23.37,7.44-14.75h-.01Z"/></g><g id="microbe-2"><rect class="cls-7" x="148" y="18.53" width="124.7" height="124.7"/><rect class="cls-14" x="151.6" y="22.13" width="117.5" height="117.5"/><rect class="cls-13" x="157.3" y="27.83" width="106.1" height="106.1"/><g id="microbes-2"><polygon class="cls-12" points="211.7 91.53 206.7 92.13 207.4 97.13 202.4 96.33 201.6 101.33 197.1 99.03 194.9 103.53 191.2 100.03 187.8 103.73 185.3 99.33 180.9 101.73 179.9 96.83 175 97.93 175.4 92.93 170.4 92.43 172.3 87.83 167.7 85.93 170.9 82.03 167 78.83 171.2 76.03 168.4 71.93 173.2 70.53 171.8 65.63 176.8 65.73 176.9 60.73 181.7 62.23 183.2 57.53 187.3 60.33 190.2 56.23 193.3 60.23 197.2 57.13 199 61.83 203.7 60.13 204 65.13 209 64.83 207.8 69.73 212.7 70.83 210.1 75.13 214.5 77.73 210.7 81.13 214.1 84.83 209.5 86.93 211.7 91.53"/><polygon class="cls-12" points="254.8 71.43 253.1 72.03 253.1 74.33 250.5 73.53 248.9 75.03 246.3 73.33 243.7 74.03 236.4 75.03 233.3 74.73 230.1 68.63 226.5 67.53 223.6 64.43 220.1 62.73 217.4 59.43 214.1 57.93 212.1 54.23 209.3 51.83 208.2 49.03 206.2 46.83 206 44.53 204.3 42.53 205.7 41.03 205.8 38.83 207.3 38.93 208.7 37.33 210.8 38.23 214.2 35.03 216.8 36.93 219.8 37.13 222.8 39.33 226.3 40.33 228.2 45.23 232 46.73 234.6 49.93 238.2 51.93 240.4 55.03 243.8 57.33 249.4 60.33 252.1 62.93 252.5 65.13 254.3 67.33 253.8 69.23 254.8 71.43"/><polygon class="cls-12" points="249.2 95.33 249.6 95.93 250.3 97.43 248.9 98.33 249 100.03 245.6 101.33 244.2 103.53 240 107.63 235.3 109.83 229.1 111.63 225.4 113.93 220.4 115.03 216.2 117.03 211.3 117.93 207.4 119.83 202.7 120.03 198.5 121.33 195.2 121.23 191.8 122.03 189.6 121.43 186.5 121.93 186.3 120.43 185.4 120.03 185.6 118.53 185.4 117.03 187.7 115.83 187.5 112.23 191.2 110.93 193.6 108.83 197.8 107.43 202.7 106.13 207.1 105.43 211.3 103.03 216.1 102.23 220.6 100.33 225 99.63 229.6 97.93 236.5 94.73 240.9 93.73 243.1 94.13 246.4 93.53 247.6 94.53 249.2 95.33"/></g><path id="darker-2" class="cls-8" d="M269.1,139.63h-117.5V75.23s37,5.7,58.7,5.7,58.8-5.7,58.8-5.7v64.4Z"/></g><g id="oxIcon"><path class="cls-9" d="M626.62,79.98c0,43.09-34.97,78.06-78.06,78.06s-78.06-34.97-78.06-78.06S505.48,1.93,548.57,1.93c43.09,.13,78.06,34.97,78.06,78.06Z"/><path class="cls-5" d="M626.49,79.98c0,43.09-34.97,78.06-78.06,78.06s-77.92-34.97-77.92-78.06S505.48,1.93,548.57,1.93s77.92,35.1,77.92,78.06Z"/><path class="cls-3" d="M617.59,79.98c0,38.11-30.91,69.02-69.02,69.02s-69.02-30.91-69.02-69.02,30.91-68.89,69.02-68.89,69.02,30.78,69.02,68.89Z"/><path class="cls-2" d="M562.19,89.54c0,16.24-13.23,29.47-29.47,29.47s-29.47-13.23-29.47-29.47,13.23-29.47,29.47-29.47c16.37,0,29.47,13.23,29.47,29.47Z"/><path class="cls-6" d="M593.62,68.32c0,16.24-13.23,29.47-29.47,29.47s-29.47-13.23-29.47-29.47,13.23-29.47,29.47-29.47c16.37,0,29.47,13.23,29.47,29.47Z"/></g></svg>