<?xml version="1.0" encoding="UTF-8"?><svg id="a" xmlns="http://www.w3.org/2000/svg" xmlns:xlink="http://www.w3.org/1999/xlink" viewBox="0 0 720 378.91"><defs><style>.f{fill:rgba(255,255,255,0);}.g{fill:none;stroke:#030304;stroke-miterlimit:10;stroke-width:1.62px;}.h{isolation:isolate;opacity:.29;}.h,.i{fill:#010202;}.j{fill:url(#d);}.k{fill:url(#c);}.l{fill:#030304;}</style><linearGradient id="c" x1="359.99" y1="64.93" x2="359.99" y2="286.93" gradientTransform="translate(0 365.2) scale(1 -1)" gradientUnits="userSpaceOnUse"><stop offset="0" stop-color="#010202"/><stop offset="1" stop-color="#fff"/></linearGradient><radialGradient id="d" cx="360.18" cy="175.93" fx="360.18" fy="175.93" r="96.9" gradientTransform="translate(0 365.2) scale(1 -1)" gradientUnits="userSpaceOnUse"><stop offset="0" stop-color="#c9c7c7"/><stop offset="1" stop-color="#737171"/></radialGradient></defs><rect class="f" width="720" height="378.91"/><g id="b"><polygon class="i" points="459.21 246.63 459.21 132.1 360.09 74.93 260.79 132.1 260.79 246.63 360.09 303.98 459.21 246.63"/><polygon class="k" points="456.05 244.77 456.05 133.77 360.09 78.27 263.94 133.77 263.94 244.77 360.09 300.27 456.05 244.77"/><polygon class="j" points="449.93 241.24 449.93 137.48 360.09 85.7 270.44 137.48 270.44 241.24 360.09 292.84 449.93 241.24"/><path class="h" d="M458.65,243.28v-71.46h0c-65.71,9.77-131.48,9.77-197.31,0h0v71.46l98.56,56.98,98.75-56.98Z"/><g id="e"><path class="g" d="M291.41,201.89c0-36.75,30.81-66.27,68.49-66.27"/><path class="g" d="M428.21,201.89c0-36.75-31-66.27-69.24-66.27"/><rect class="l" x="290.11" y="197.62" width="139.4" height="8.72"/><rect class="l" x="297.35" y="189.46" width="4.27" height="8.17"/><rect class="l" x="299.58" y="182.96" width="2.04" height="6.68"/><rect class="l" x="305.89" y="188.53" width="7.61" height="9.28"/><rect class="l" x="305.89" y="177.95" width="3.71" height="10.58"/><rect class="l" x="315.91" y="186.11" width="3.16" height="11.32"/><rect class="l" x="319.07" y="163.47" width="3.53" height="34.15"/><rect class="l" x="320.93" y="159.76" width="1.86" height="3.53"/><rect class="l" x="322.78" y="189.46" width="5.94" height="8.17"/><rect class="l" x="327.61" y="185.37" width="1.11" height="4.27"/><rect class="l" x="328.72" y="155.12" width="4.83" height="42.51"/><rect class="l" x="333.55" y="162.73" width="2.41" height="34.71"/><rect class="l" x="336.15" y="175.16" width="5.01" height="22.46"/><rect class="l" x="341.16" y="179.8" width="3.16" height="18"/><rect class="l" x="347.1" y="168.85" width="6.68" height="28.77"/><rect class="l" x="353.97" y="180.17" width="3.34" height="17.45"/><rect class="l" x="357.31" y="148.06" width="8.17" height="49.56"/><rect class="l" x="369.37" y="159.01" width="4.27" height="38.61"/><rect class="l" x="377.91" y="167" width="4.64" height="30.63"/><rect class="l" x="373.27" y="187.41" width="4.64" height="10.21"/><rect class="l" x="382.55" y="192.05" width="3.34" height="5.75"/><rect class="l" x="389.79" y="188.9" width="2.97" height="8.54"/><rect class="l" x="392.76" y="175.16" width="5.2" height="22.46"/><rect class="l" x="397.77" y="164.77" width="3.71" height="32.85"/><rect class="l" x="401.48" y="187.78" width="3.16" height="9.84"/><rect class="l" x="406.49" y="181.84" width="4.08" height="15.78"/><rect class="l" x="410.58" y="180.17" width="4.45" height="17.45"/><rect class="l" x="417.82" y="189.83" width="2.04" height="7.98"/><rect class="l" x="419.86" y="193.72" width="3.71" height="4.08"/></g></g></svg>