<?xml version="1.0" encoding="UTF-8"?><svg id="a" xmlns="http://www.w3.org/2000/svg" xmlns:xlink="http://www.w3.org/1999/xlink" viewBox="0 0 720 378.9"><defs><style>.y{fill:#010101;stroke:#020303;stroke-width:.63px;}.y,.z{stroke-miterlimit:10;}.z{stroke:#020203;stroke-width:1.49px;}.z,.aa{fill:none;}.ab{fill:url(#i);}.ac{fill:rgba(255,255,255,0);}.ad{fill:#020203;}.ae{fill:url(#s);}.af{fill:url(#q);}.ag{fill:url(#g);}.ah{fill:#1f1f1d;}.ai{opacity:.29;}.ai,.aj{isolation:isolate;}.aj{fill:url(#m);opacity:.1;}.ak{fill:url(#d);}.al{fill:url(#u);}.am{fill:url(#c);}.an{fill:url(#w);}.ao{fill:url(#k);}</style><linearGradient id="c" x1="352.85" y1="909.32" x2="352.85" y2="706.64" gradientTransform="translate(0 -618.7)" gradientUnits="userSpaceOnUse"><stop offset="0" stop-color="#000"/><stop offset="1" stop-color="#fff"/></linearGradient><radialGradient id="d" cx="353.02" cy="807.98" fx="353.02" fy="807.98" r="88.47" gradientTransform="translate(0 -618.7)" gradientUnits="userSpaceOnUse"><stop offset="0" stop-color="#c7c6c6"/><stop offset="1" stop-color="#716f6f"/></radialGradient><linearGradient id="g" x1="457.58" y1="218.14" x2="399.2" y2="276.52" gradientTransform="translate(0 364.56) scale(1 -1)" gradientUnits="userSpaceOnUse"><stop offset="0" stop-color="#9d9d9c"/><stop offset=".54" stop-color="#010101"/><stop offset="1" stop-color="#9d9d9c"/></linearGradient><linearGradient id="i" x1="428.4" y1="219.84" x2="428.4" y2="274.84" gradientTransform="translate(0 364.56) scale(1 -1)" gradientUnits="userSpaceOnUse"><stop offset="0" stop-color="#452b1a"/><stop offset="1" stop-color="#b18049"/></linearGradient><linearGradient id="k" x1="428.4" y1="221.22" x2="428.4" y2="273.5" gradientTransform="translate(0 364.56) scale(1 -1)" gradientUnits="userSpaceOnUse"><stop offset="0" stop-color="#946137"/><stop offset="1" stop-color="#7f5026"/></linearGradient><pattern id="m" x="0" y="0" width="19.7" height="21.7" patternTransform="translate(8.9 -32133.13) scale(1 -1)" patternUnits="userSpaceOnUse" viewBox="0 0 19.7 21.7"><g><rect class="aa" width="19.7" height="21.7"/><g><rect class="aa" width="19.7" height="21.7"/><g><rect class="aa" width="19.7" height="21.7"/><g><rect class="aa" width="19.7" height="21.7"/><g><rect class="aa" width="19.7" height="21.7"/><g><rect class="aa" width="19.7" height="21.7"/><path class="ah" d="M16.6,13c2.1-2.1,2.1-5.6,0-7.7l-1.2-1.2c-2.1-2.1-5.6-2.1-7.8,0L3.1,8.7c-2.1,2.1-2.1,5.6,0,7.7l1.2,1.2c2.1,2.1,5.6,2.1,7.7,0l4.6-4.6Z"/></g></g></g></g></g></g></pattern><linearGradient id="q" x1="428.74" y1="228.2" x2="428.74" y2="264.5" gradientTransform="translate(0 363.55) scale(1 -1)" gradientUnits="userSpaceOnUse"><stop offset=".16" stop-color="#813912"/><stop offset=".18" stop-color="#975a19"/><stop offset=".22" stop-color="#ae7d21"/><stop offset=".26" stop-color="#c39d27"/><stop offset=".3" stop-color="#d6b92e"/><stop offset=".35" stop-color="#e4cf35"/><stop offset=".41" stop-color="#efe036"/><stop offset=".48" stop-color="#f6e942"/><stop offset=".58" stop-color="#f8ea48"/><stop offset=".86" stop-color="#f7ea47"/><stop offset="1" stop-color="#fcf4f9"/></linearGradient><linearGradient id="s" x1="428.74" y1="266.43" x2="428.74" y2="210.93" gradientTransform="translate(0 363.55) scale(1 -1)" gradientUnits="userSpaceOnUse"><stop offset=".26" stop-color="#f7ea47"/><stop offset=".86" stop-color="#803612"/></linearGradient><linearGradient id="u" x1="428.75" y1="228.69" x2="428.75" y2="263.97" gradientTransform="translate(0 363.55) scale(1 -1)" gradientUnits="userSpaceOnUse"><stop offset=".16" stop-color="#803612"/><stop offset=".17" stop-color="#8b461e"/><stop offset=".18" stop-color="#a26a3b"/><stop offset=".2" stop-color="#b78954"/><stop offset=".22" stop-color="#c7a468"/><stop offset=".24" stop-color="#d7bb7a"/><stop offset=".26" stop-color="#e2cc88"/><stop offset=".3" stop-color="#ead891"/><stop offset=".34" stop-color="#eede97"/><stop offset=".46" stop-color="#efe097"/><stop offset=".7" stop-color="#803612"/><stop offset=".73" stop-color="#e6d234"/><stop offset=".74" stop-color="#ead848"/><stop offset=".75" stop-color="#eede6d"/><stop offset=".77" stop-color="#f1e38b"/><stop offset=".79" stop-color="#f7eaa9"/><stop offset=".8" stop-color="#f8edbf"/><stop offset=".83" stop-color="#faf0cf"/><stop offset=".85" stop-color="#fcf2da"/><stop offset=".89" stop-color="#fdf4e1"/><stop offset=".99" stop-color="#fdf5e3"/></linearGradient><linearGradient id="w" x1="428.73" y1="258.78" x2="428.73" y2="204.35" gradientTransform="translate(0 363.55) scale(1 -1)" gradientUnits="userSpaceOnUse"><stop offset=".26" stop-color="#f7ea47"/><stop offset=".77" stop-color="#803612"/></linearGradient></defs><rect class="ac" width="720" height="378.9"/><g><g id="b"><polygon points="443.43 241.64 443.43 137.09 352.93 84.89 262.27 137.09 262.27 241.64 352.93 294.01 443.43 241.64"/><polygon class="am" points="440.55 239.95 440.55 138.61 352.93 87.94 265.15 138.61 265.15 239.95 352.93 290.62 440.55 239.95"/><polygon class="ak" points="434.95 236.73 434.95 142 352.93 94.72 271.08 142 271.08 236.73 352.93 283.84 434.95 236.73"/><path class="ai" d="M442.92,238.59v-65.24h0c-59.99,8.93-120.04,8.93-180.14,0h0v65.24l89.99,52.03,90.15-52.03Z"/><g id="e"><path class="z" d="M290.23,200.8c0-33.55,28.13-60.5,62.53-60.5"/><path class="z" d="M415.13,200.8c0-33.55-28.3-60.5-63.21-60.5"/><rect class="ad" x="289.05" y="196.91" width="127.27" height="7.96"/><rect class="ad" x="295.65" y="189.45" width="3.9" height="7.46"/><rect class="ad" x="297.69" y="183.52" width="1.86" height="6.1"/><rect class="ad" x="303.45" y="188.6" width="6.95" height="8.47"/><rect class="ad" x="303.45" y="178.94" width="3.39" height="9.66"/><rect class="ad" x="312.6" y="186.4" width="2.88" height="10.34"/><rect class="ad" x="315.48" y="165.73" width="3.22" height="31.18"/><rect class="ad" x="317.18" y="162.34" width="1.69" height="3.22"/><rect class="ad" x="318.87" y="189.45" width="5.42" height="7.46"/><rect class="ad" x="323.28" y="185.72" width="1.02" height="3.9"/><rect class="ad" x="324.29" y="158.1" width="4.41" height="38.81"/><rect class="ad" x="328.7" y="165.05" width="2.2" height="31.69"/><rect class="ad" x="331.07" y="176.4" width="4.58" height="20.51"/><rect class="ad" x="335.65" y="180.64" width="2.88" height="16.44"/><rect class="ad" x="341.07" y="170.64" width="6.1" height="26.27"/><rect class="ad" x="347.34" y="180.98" width="3.05" height="15.93"/><rect class="ad" x="350.39" y="151.66" width="7.46" height="45.25"/><rect class="ad" x="361.41" y="161.66" width="3.9" height="35.25"/><rect class="ad" x="369.2" y="168.94" width="4.24" height="27.96"/><rect class="ad" x="364.97" y="187.59" width="4.24" height="9.32"/><rect class="ad" x="373.44" y="191.82" width="3.05" height="5.25"/><rect class="ad" x="380.05" y="188.94" width="2.71" height="7.8"/><rect class="ad" x="382.76" y="176.4" width="4.75" height="20.51"/><rect class="ad" x="387.33" y="166.91" width="3.39" height="30"/><rect class="ad" x="390.72" y="187.92" width="2.88" height="8.98"/><rect class="ad" x="395.3" y="182.5" width="3.73" height="14.4"/><rect class="ad" x="399.03" y="180.98" width="4.07" height="15.93"/><rect class="ad" x="405.64" y="189.79" width="1.86" height="7.29"/><rect class="ad" x="407.5" y="193.35" width="3.39" height="3.73"/></g></g><g><g id="f"><rect id="h" class="ag" x="399.04" y="88.2" width="58.69" height="58.08"/><rect id="j" class="ab" x="400.57" y="89.72" width="55.67" height="55.01"/><rect id="l" class="ao" x="401.93" y="91.06" width="52.94" height="52.28"/><rect id="n" class="aj" x="401.93" y="91.06" width="52.94" height="52.28"/></g><g id="o"><polygon id="p" class="y" points="415.3 97.94 409.47 103.77 409.47 130.63 415.3 136.46 442.17 136.46 447.99 130.63 447.99 103.77 442.17 97.94 415.3 97.94"/><polygon id="r" class="af" points="416.06 99.06 410.6 104.53 410.6 129.87 416.06 135.36 441.39 135.36 446.88 129.87 446.88 104.53 441.39 99.06 416.06 99.06"/><polygon id="t" class="ae" points="416.43 99.58 411.11 104.92 411.11 129.49 416.43 134.83 441.04 134.83 446.38 129.49 446.38 104.92 441.04 99.58 416.43 99.58"/><path id="v" class="al" d="M443.82,124c-.98,0-1.76-.8-1.76-1.76v-10.07c0-.98,.8-1.76,1.76-1.76h2.53v-5.49l-5.3-5.34h-5.52v2.53c0,.98-.8,1.76-1.76,1.76h-10.07c-.98,0-1.76-.8-1.76-1.76v-2.53h-5.49l-5.34,5.34v5.52h2.53c.98,0,1.76,.8,1.76,1.76v10.07c0,.98-.8,1.76-1.76,1.76h-2.53v5.49l5.34,5.34h5.52v-2.53c0-.98,.8-1.76,1.76-1.76h10.07c.98,0,1.76,.8,1.76,1.76v2.53h5.52l5.34-5.34v-5.52h-2.59Z"/><path id="x" class="an" d="M443.73,124.6c-1.2,0-2.17-1.2-2.17-2.41v-10c0-1.2,.98-2.41,2.17-2.41h2.05v-4.47l-5.19-5.15h-4.46v2.05c0,1.2-1.2,2.17-2.41,2.17h-10c-1.2,0-2.41-.98-2.41-2.17v-2.05h-4.51l-5.15,5.15v4.47h2.05c1.2,0,2.17,1.2,2.17,2.41v10c0,1.2-.98,2.41-2.17,2.41h-2.05v4.47l5.15,5.15h4.47v-2.05c0-1.2,1.2-2.17,2.41-2.17h9.96c1.2,0,2.41,.98,2.41,2.17v2.05h4.47l5.15-5.15v-4.47h-1.97Z"/></g><path d="M427.94,125.26v-14.37h-2.17l-.07-1.63,5.49-.47v16.47h-3.25Z"/></g></g></svg>