<?xml version="1.0" encoding="UTF-8"?><svg id="Layer" xmlns="http://www.w3.org/2000/svg" xmlns:xlink="http://www.w3.org/1999/xlink" viewBox="0 0 721 379.91"><defs><style>.cls-1{fill:url(#linear-gradient-2);}.cls-2,.cls-3{fill:#030404;}.cls-4{fill:#cf1820;}.cls-5{fill:#3f4b22;}.cls-6{stroke-width:2.28px;}.cls-6,.cls-7,.cls-8,.cls-9,.cls-10,.cls-11{stroke-miterlimit:10;}.cls-6,.cls-7,.cls-10,.cls-11{stroke:#030404;}.cls-6,.cls-8,.cls-10,.cls-11{fill:none;}.cls-12{fill:url(#linear-gradient-6);}.cls-7{fill:url(#linear-gradient-3);}.cls-7,.cls-11{stroke-width:3.05px;}.cls-8{stroke:#030304;stroke-width:1.87px;}.cls-9{fill:#fff;opacity:0;stroke:#1d1d1b;}.cls-13{fill:url(#radial-gradient);}.cls-10{stroke-width:4.58px;}.cls-14{fill:#98c32c;}.cls-15{fill:url(#linear-gradient-5);}.cls-11{stroke-linecap:square;}.cls-16{fill:url(#linear-gradient-4);opacity:.31;}.cls-16,.cls-17,.cls-3{isolation:isolate;}.cls-17{fill:#e03f19;opacity:.5;}.cls-18{fill:url(#linear-gradient);}.cls-3{opacity:.12;}</style><linearGradient id="linear-gradient" x1="-476.56" y1="-806.35" x2="-399.12" y2="-728.91" gradientTransform="translate(200.99 -752.49) rotate(-45) scale(1 -1)" gradientUnits="userSpaceOnUse"><stop offset="0" stop-color="#3f4b22"/><stop offset=".14" stop-color="#4d5f26"/><stop offset=".42" stop-color="#6b862b"/><stop offset=".66" stop-color="#83a530"/><stop offset=".86" stop-color="#8fb923"/><stop offset="1" stop-color="#98c32c"/></linearGradient><linearGradient id="linear-gradient-2" x1="285.63" y1="253.35" x2="285.63" y2="296.48" gradientTransform="translate(0 374.81) scale(1 -1)" gradientUnits="userSpaceOnUse"><stop offset="0" stop-color="#522b16"/><stop offset=".45" stop-color="#522b16" stop-opacity=".7"/><stop offset=".58" stop-color="#e03f19" stop-opacity=".5"/><stop offset="1" stop-color="#e03f19" stop-opacity=".5"/></linearGradient><linearGradient id="linear-gradient-3" x1="612" y1="19.68" x2="612" y2="151.42" gradientTransform="translate(0 357.8) scale(1 -1)" gradientUnits="userSpaceOnUse"><stop offset="0" stop-color="#95191b"/><stop offset=".21" stop-color="#b13c1e"/><stop offset=".44" stop-color="#cb5e26"/><stop offset=".66" stop-color="#e27a34"/><stop offset=".85" stop-color="#ef8e3b"/><stop offset="1" stop-color="#f3943d"/></linearGradient><radialGradient id="radial-gradient" cx="612.06" cy="85.61" fx="612.06" fy="85.61" r="75.02" gradientTransform="translate(0 357.8) scale(1 -1)" gradientUnits="userSpaceOnUse"><stop offset="0" stop-color="#f3943d" stop-opacity=".5"/><stop offset="1" stop-color="#d34118"/></radialGradient><linearGradient id="linear-gradient-4" x1="612" y1="19.68" x2="612" y2="103.6" gradientTransform="translate(0 357.8) scale(1 -1)" gradientUnits="userSpaceOnUse"><stop offset="0" stop-color="#20201e"/><stop offset="1" stop-color="#403e3c"/></linearGradient><linearGradient id="linear-gradient-5" x1="427.02" y1="80.99" x2="427.02" y2="124.06" xlink:href="#linear-gradient-2"/><linearGradient id="linear-gradient-6" x1="-703.5" y1="-823.17" x2="-626.06" y2="-745.73" xlink:href="#linear-gradient"/></defs><rect class="cls-9" x=".5" y=".5" width="720" height="378.91"/><g><g><g id="microbe-4"><rect class="cls-2" x="376.07" y="41.79" width="116.22" height="116.22"/><rect class="cls-18" x="379.42" y="45.14" width="109.52" height="109.52"/><rect class="cls-14" x="384.72" y="50.43" width="98.92" height="98.92"/><g id="microbes-3"><polygon class="cls-5" points="435.42 109.79 430.77 110.44 431.42 115.09 426.77 114.33 426.02 118.98 421.8 116.82 419.75 121.03 416.39 117.79 413.15 121.25 410.88 117.14 406.77 119.3 405.8 114.76 401.26 115.84 401.58 111.19 396.93 110.65 398.77 106.44 394.45 104.6 397.47 101.03 393.8 98 397.69 95.41 395.1 91.63 399.53 90.22 398.23 85.68 402.88 85.79 402.99 81.14 407.53 82.54 408.93 78.11 412.72 80.81 415.42 76.92 418.34 80.71 421.91 77.79 423.64 82.11 427.96 80.6 428.29 85.25 432.94 84.92 431.85 89.46 436.39 90.54 433.91 94.54 438.02 96.92 434.56 100.17 437.69 103.63 433.37 105.57 435.42 109.79"/><polygon class="cls-5" points="475.64 91.08 474.02 91.63 474.02 93.79 471.64 93.03 470.13 94.44 467.75 92.92 465.26 93.57 458.45 94.44 455.53 94.22 452.61 88.49 449.26 87.52 446.56 84.6 443.31 82.98 440.72 79.95 437.69 78.54 435.85 75.08 433.26 72.81 432.18 70.22 430.34 68.16 430.12 66 428.5 64.16 429.91 62.76 429.91 60.71 431.31 60.81 432.61 59.3 434.56 60.16 437.8 57.14 440.18 58.98 442.99 59.19 445.8 61.14 449.04 62.11 450.77 66.65 454.34 68.06 456.83 71.08 460.18 72.92 462.23 75.84 465.37 78 470.56 80.81 473.15 83.19 473.48 85.25 475.21 87.3 474.67 89.03 475.64 91.08"/><polygon class="cls-5" points="470.45 113.36 470.77 113.9 471.42 115.3 470.13 116.17 470.23 117.79 466.99 118.98 465.8 121.03 461.8 124.82 457.48 126.87 451.64 128.6 448.18 130.76 443.53 131.73 439.64 133.57 435.1 134.44 431.42 136.17 427.1 136.38 423.1 137.57 420.07 137.46 416.93 138.22 414.88 137.68 411.96 138.22 411.75 136.82 410.99 136.38 411.1 134.98 410.99 133.57 413.04 132.49 412.93 129.14 416.39 127.95 418.56 126 422.45 124.71 427.1 123.41 431.21 122.76 435.1 120.6 439.53 119.84 443.75 118 447.85 117.36 452.18 115.84 458.56 112.82 462.67 111.84 464.72 112.27 467.75 111.73 468.94 112.6 470.45 113.36"/></g><path id="darker-3" class="cls-3" d="M488.94,154.65h-109.52v-60s34.49,5.3,54.7,5.3,54.81-5.3,54.81-5.3v60h0Z"/></g><g id="arrow-2"><path class="cls-17" d="M345.69,99.95l-57.3-26.49,6.92,13.73h-64.65s-1.95,6.16-1.95,12.22,1.95,10.81,1.95,10.81h65.84l-8.22,16.22,57.41-26.49h0Z"/><path class="cls-1" d="M300.39,107.84h-68c-.54-1.73-1.3-4.97-1.3-8.54,0-3.78,.86-7.68,1.41-9.84h66.6l-5.62-11.14,46.7,21.51-46.7,21.62,6.92-13.62h0Z"/><path class="cls-4" d="M305.36,104.81h-70.6c-.32-1.51-.54-3.35-.54-5.41,0-2.38,.43-4.87,.76-6.7h69.19l-3.89-7.89,32.54,15.03-32.54,15.14,5.08-10.16h0Z"/><path class="cls-8" d="M300.39,107.84h-68c-.54-1.73-1.3-4.97-1.3-8.54,0-3.78,.86-7.68,1.41-9.84h66.6l-5.62-11.14,46.7,21.51-46.7,21.62,6.92-13.62h0Z"/></g></g><g><g id="tr"><rect class="cls-7" x="518.81" y="206.39" width="186.38" height="131.74"/><rect class="cls-13" x="524.58" y="212.16" width="174.96" height="120.06"/><g id="logo"><g><circle class="cls-10" cx="612.06" cy="267.96" r="33.86"/><path class="cls-6" d="M612.06,234.09s17.57,7.18,17.57,33.86-17.57,33.86-17.57,33.86"/><path class="cls-6" d="M612.06,234.09s-17.57,7.18-17.57,33.86,17.57,33.86,17.57,33.86"/><line class="cls-6" x1="612.06" y1="234.09" x2="612.06" y2="301.82"/><line class="cls-6" x1="578.2" y1="267.96" x2="645.92" y2="267.96"/><path class="cls-6" d="M585.64,246.53s9.88,5,26.3,5,26.3-5,26.3-5"/><path class="cls-6" d="M585.64,289.76c0-.13,9.88-5,26.3-5s26.3,5,26.3,5"/><polygon class="cls-2" points="632.33 240.12 641.31 231.91 629.51 229.47 655.42 222.03 649.39 248.97 645.92 235.5 637.33 245.51 632.33 240.12"/><polyline class="cls-11" points="612.06 309.52 599.87 309.52 605.01 309.52 605.01 321.7"/><polyline class="cls-11" points="620.78 321.7 620.78 309.52 618.47 309.52 615.52 317.73 614.63 317.73 612.19 313.88 610.39 313.88 610.39 321.7"/><path class="cls-2" d="M600.77,317.21c0,1.8-4.62,4.62-6.41,4.62s-12.83,.77-12.83-1.03,11.03-5.64,12.83-5.64c1.8,.13,6.41,.26,6.41,2.05h0Z"/><path class="cls-2" d="M595.26,313.11c-1.03,.9-5.13-.64-6.16-1.67s-6.67-7.44-5.64-8.47,8.85,4.1,9.75,5.26,3.08,3.98,2.05,4.87h0Z"/><path class="cls-2" d="M587.18,315.29c-.26,1.41-4.23,2.95-5.77,2.57-1.41-.26-12.96-1.15-12.7-2.57s12.31-2.95,13.73-2.57c1.54,.26,5,1.15,4.75,2.57h0Z"/><path class="cls-2" d="M584.1,311.57c-1.41,.38-4.75-2.18-5.13-3.46s-5.77-11.8-4.62-12.19,8.85,8.98,9.49,10.39c.38,1.28,1.41,4.75,.26,5.26h0Z"/><path class="cls-2" d="M575.76,310.93c-.9,1.41-5.39,1.41-6.54,.64s-12.06-5.9-11.16-7.31,13.08,1.54,14.37,2.44c1.15,.77,4.23,2.95,3.34,4.23h0Z"/><path class="cls-2" d="M572.68,306.05c-1.54,0-3.59-3.46-3.59-4.87s-1.28-12.19,.26-12.19,5.13,11.03,5.13,12.31c-.13,1.28-.26,4.75-1.8,4.75h0Z"/><path class="cls-2" d="M564.6,296.82c-1.41-.26-2.69-4.1-2.44-5.52,.26-1.15,1.54-11.93,2.95-11.54s2.44,11.54,2.18,12.83c-.38,1.28-1.28,4.49-2.69,4.23h0Z"/><path class="cls-2" d="M565.37,302.72c-1.28,.9-5.39-.38-6.29-1.54-.9-1.15-9.49-9.36-8.21-10.26s11.54,5.64,12.57,6.67c.77,1.15,2.95,4.23,1.92,5.13h0Z"/><path class="cls-2" d="M558.31,291.3c-1.28,.64-4.87-1.41-5.52-2.57s-7.18-10.39-5.77-11.16c1.28-.64,9.75,7.44,10.39,8.72,.64,1.15,2.18,4.23,.9,5h0Z"/><path class="cls-2" d="M559.08,286.81c-1.03-.38-1.54-4.23-1.03-5.52s3.34-11.8,4.49-11.29c1.03,.38,.13,11.54-.26,12.83-.77,1.41-2.18,4.49-3.21,3.98h0Z"/><path class="cls-2" d="M554.34,279.63c-1.28,.26-3.85-2.69-4.1-4.23-.26-1.41-3.85-12.06-2.69-12.31,1.28-.26,6.67,10.01,7.06,11.42,.26,1.41,.9,5-.26,5.13h0Z"/><path class="cls-2" d="M556.52,274.88c-1.03-.64-.9-4.1-.26-5.26s4.62-9.62,5.64-8.98-1.41,10.39-1.92,11.29c-.77,1.15-2.44,3.59-3.46,2.95h0Z"/><path class="cls-2" d="M553.31,266.29c-1.28-.13-2.95-3.59-2.69-5s-.13-11.93,1.03-11.93c1.28,.13,3.46,11.03,3.34,12.31s-.51,4.75-1.67,4.62h0Z"/><path class="cls-2" d="M556.39,262.7c-.77-.77,.38-4.23,1.41-5s7.7-8.34,8.34-7.44c.77,.77-4.75,9.75-5.64,10.52-.9,.77-3.46,2.82-4.1,1.92h0Z"/><path class="cls-2" d="M560.88,251.54c-.64-.77,.26-3.34,1.03-4.1,.77-.64,6.16-6.67,6.67-5.9s-3.59,7.82-4.49,8.59c-.77,.38-2.57,2.05-3.21,1.41h0Z"/><path class="cls-2" d="M555.75,253.08c-.9-.26-1.54-3.98-1.28-5.13s2.44-11.54,3.34-11.42c.9,.26,.38,11.16,.13,12.31-.13,1.54-1.15,4.75-2.18,4.23h0Z"/><path class="cls-2" d="M561.52,245c-1.28-.38-1.8-4.1-1.41-5.39,.38-1.28,2.95-11.16,4.1-10.65,1.28,.38,.64,11.16,.13,12.31-.38,1.15-1.54,4.23-2.82,3.72h0Z"/><path class="cls-2" d="M623.35,316.7c0,1.8,4.62,4.62,6.41,4.62s12.83,.77,12.83-1.03-11.03-5.64-12.83-5.64-6.41,.26-6.41,2.05h0Z"/><path class="cls-2" d="M628.86,312.6c1.03,.9,5.13-.64,6.16-1.67s6.67-7.44,5.64-8.47-8.85,4.1-9.75,5.26-3.21,3.98-2.05,4.87h0Z"/><path class="cls-2" d="M636.95,314.78c.26,1.41,4.23,2.95,5.77,2.57,1.41-.26,12.96-1.15,12.7-2.57-.26-1.41-12.31-2.95-13.73-2.57-1.54,.26-5.13,1.15-4.75,2.57h0Z"/><path class="cls-2" d="M640.02,311.06c1.41,.38,4.75-2.18,5.13-3.46s5.77-11.8,4.49-12.19-8.85,8.98-9.49,10.39c-.26,1.28-1.41,4.87-.13,5.26h0Z"/><path class="cls-2" d="M648.36,310.54c.9,1.41,5.39,1.41,6.54,.64s11.93-5.9,11.03-7.31-13.08,1.54-14.37,2.44c-1.03,.64-4.1,2.82-3.21,4.23h0Z"/><path class="cls-2" d="M651.44,305.67c1.54,0,3.59-3.46,3.59-4.87s1.28-12.19-.26-12.19-5.13,11.03-5.13,12.31c.13,1.41,.26,4.75,1.8,4.75h0Z"/><path class="cls-2" d="M659.52,296.3c1.41-.26,2.69-4.1,2.44-5.52-.26-1.15-1.54-11.93-2.95-11.54s-2.44,11.54-2.18,12.83c.38,1.28,1.28,4.49,2.69,4.23h0Z"/><path class="cls-2" d="M658.75,302.33c1.28,.9,5.39-.38,6.29-1.54,.9-1.15,9.49-9.36,8.21-10.26s-11.54,5.64-12.57,6.67c-.9,1.28-3.08,4.1-1.92,5.13h0Z"/><path class="cls-2" d="M665.81,290.79c1.28,.64,4.87-1.41,5.52-2.57s7.18-10.39,5.77-11.16c-1.28-.64-9.75,7.44-10.39,8.72-.64,1.15-2.18,4.36-.9,5h0Z"/><path class="cls-2" d="M665.04,286.56c1.03-.38,1.67-4.23,1.03-5.52s-3.34-11.8-4.49-11.29c-1.03,.38-.13,11.54,.26,12.83,.77,1.15,2.05,4.36,3.21,3.98h0Z"/><path class="cls-2" d="M669.78,279.24c1.28,.26,3.85-2.69,4.1-4.23,.26-1.41,3.98-12.06,2.69-12.31-1.28-.26-6.67,10.01-7.06,11.42-.26,1.41-1.03,5,.26,5.13h0Z"/><path class="cls-2" d="M667.6,274.5c1.03-.64,1.03-4.1,.26-5.26-.64-1.03-4.75-9.62-5.64-8.98s1.41,10.39,1.92,11.29c.77,1.03,2.44,3.72,3.46,2.95h0Z"/><path class="cls-2" d="M670.81,265.78c1.28-.13,2.95-3.59,2.69-5-.13-1.41,.13-12.06-1.03-11.93-1.28,.13-3.46,11.03-3.34,12.31,0,1.41,.38,4.75,1.67,4.62h0Z"/><path class="cls-2" d="M667.73,262.31c.77-.77-.38-4.23-1.41-5s-7.7-8.34-8.34-7.44c-.77,.77,4.75,9.75,5.64,10.52,.9,.64,3.34,2.82,4.1,1.92h0Z"/><path class="cls-2" d="M663.11,251.15c.64-.77-.26-3.34-1.03-4.1s-6.16-6.67-6.67-5.9,3.59,7.82,4.49,8.59c.64,.51,2.69,2.05,3.21,1.41h0Z"/><path class="cls-2" d="M668.24,252.82c.9-.26,1.54-3.98,1.28-5.13s-2.44-11.54-3.34-11.42c-.9,.26-.38,11.16-.13,12.31,.13,1.28,1.28,4.49,2.18,4.23h0Z"/><path class="cls-2" d="M662.6,244.61c1.28-.38,1.8-4.1,1.41-5.39-.38-1.28-2.95-11.16-4.1-10.65-1.28,.38-.64,11.16-.13,12.31,.26,1.03,1.54,4.1,2.82,3.72h0Z"/></g></g><path id="darker" class="cls-16" d="M704.55,254.49c-2.95,5.77-52.08,15.26-92.48,15.26s-90.3-10.39-93.25-15.26v83.63h186.38v-82.74c-.26-1.03-.51-1.54-.64-.9Z"/></g><g id="arrow"><path class="cls-17" d="M486.97,272.31l-57.3-26.49,6.92,13.73h-64.54s-1.95,6.16-1.95,12.11,1.95,10.81,1.95,10.81h65.73l-8.11,16.22,57.3-26.38h0Z"/><path class="cls-15" d="M441.67,280.2h-67.79c-.54-1.73-1.3-4.97-1.3-8.43,0-3.78,.86-7.68,1.41-9.84h66.49l-5.62-11.14,46.6,21.51-46.6,21.51,6.81-13.62h0Z"/><path class="cls-4" d="M446.75,277.17h-70.49c-.32-1.51-.54-3.35-.54-5.41,0-2.38,.32-4.76,.76-6.7h69.08l-3.89-7.78,32.54,15.03-32.65,14.92,5.19-10.05h0Z"/><path class="cls-8" d="M441.67,280.2h-67.79c-.54-1.73-1.3-4.97-1.3-8.43,0-3.78,.86-7.68,1.41-9.84h66.49l-5.62-11.14,46.6,21.51-46.6,21.51,6.81-13.62h0Z"/></g><g id="microbe-3"><rect class="cls-2" x="227.39" y="214.14" width="116.22" height="116.22"/><rect class="cls-12" x="230.85" y="217.49" width="109.52" height="109.52"/><rect class="cls-14" x="236.15" y="222.79" width="98.92" height="98.92"/><g id="microbes-2"><polygon class="cls-5" points="286.85 282.15 282.2 282.79 282.85 287.44 278.2 286.69 277.44 291.34 273.23 289.17 271.17 293.39 267.71 290.15 264.58 293.61 262.2 289.5 258.09 291.66 257.12 287.12 252.58 288.2 253.01 283.55 248.36 283.01 250.09 278.79 245.77 276.96 248.79 273.39 245.12 270.36 249.01 267.77 246.42 263.98 250.96 262.58 249.66 258.04 254.31 258.14 254.42 253.5 258.85 254.9 260.25 250.47 264.04 253.17 266.74 249.28 269.66 253.06 273.34 250.14 274.96 254.47 279.39 252.96 279.61 257.6 284.26 257.28 283.17 261.82 287.72 262.9 285.34 266.9 289.44 269.28 285.88 272.52 289.01 275.98 284.8 277.93 286.85 282.15"/><polygon class="cls-5" points="326.96 263.44 325.45 263.98 325.45 266.15 322.96 265.39 321.45 266.79 319.07 265.28 316.69 265.93 309.88 266.79 306.96 266.58 303.93 260.85 300.58 259.87 297.88 256.96 294.63 255.33 292.15 252.31 289.01 250.9 287.17 247.44 284.58 245.17 283.61 242.58 281.66 240.52 281.55 238.36 279.93 236.52 281.23 235.12 281.34 233.06 282.74 233.17 284.04 231.66 285.99 232.52 289.12 229.5 291.61 231.33 294.42 231.55 297.12 233.5 300.47 234.47 302.2 239.01 305.77 240.41 308.15 243.44 311.5 245.28 313.55 248.2 316.69 250.36 321.99 253.17 324.47 255.55 324.8 257.6 326.53 259.66 326.09 261.39 326.96 263.44"/><polygon class="cls-5" points="321.77 285.71 322.09 286.25 322.85 287.66 321.45 288.52 321.55 290.15 318.42 291.34 317.12 293.39 313.23 297.17 308.8 299.23 303.07 300.96 299.61 303.12 294.96 304.09 290.96 305.93 286.42 306.8 282.85 308.53 278.42 308.74 274.53 309.93 271.39 309.82 268.25 310.58 266.2 310.04 263.28 310.58 263.17 309.17 262.31 308.74 262.53 307.34 262.31 305.93 264.47 304.85 264.25 301.5 267.71 300.31 269.98 298.36 273.88 297.07 278.42 295.77 282.53 295.12 286.42 292.96 290.96 292.2 295.07 290.36 299.18 289.71 303.5 288.2 309.88 285.17 313.99 284.2 316.04 284.63 319.18 284.09 320.26 284.96 321.77 285.71"/></g><path id="darker-2" class="cls-3" d="M340.37,327.01h-109.52v-60s34.49,5.3,54.7,5.3,54.81-5.3,54.81-5.3v60Z"/></g><g><path d="M42.84,300.2c-5.51,0-10.38-1.19-14.49-3.46s-7.24-5.62-9.3-9.95-3.24-9.19-3.24-14.6,1.08-10.27,3.24-14.6,5.3-7.57,9.41-9.95c4.11-2.27,8.97-3.46,14.38-3.46s10.27,1.19,14.38,3.46c4.11,2.27,7.24,5.62,9.41,9.95s3.24,9.19,3.24,14.6-1.08,10.27-3.24,14.6-5.3,7.57-9.3,9.95-8.97,3.46-14.49,3.46h0Zm0-7.35c5.08,0,8.97-2.05,11.46-6.27s3.78-8.97,3.78-14.38-1.3-10.27-3.78-14.38-6.38-6.27-11.46-6.27-8.97,2.05-11.46,6.27-3.78,8.97-3.78,14.38,1.3,10.16,3.78,14.38,6.27,6.27,11.46,6.27h0Z"/><path d="M79.82,298.9v-53.19h19.89c4.11,0,7.14,.54,9.3,1.51s3.78,2.59,5.08,4.65c1.19,2.05,1.84,4.43,1.84,7.03,0,3.14-.86,6.05-2.7,8.87s-4.32,4.87-7.57,6.38l17.41,24.87h-13.51l-13.19-21.73h-6.05v21.73l-10.49-.11h0Zm10.38-29.08h2.59c4.54,0,7.68-.97,9.51-3.03s2.59-4.22,2.59-6.7c0-2.16-.65-3.89-2.16-5.19-1.41-1.3-4.32-1.95-8.65-1.95h-3.89v16.87h0Z"/></g><path d="M171.49,299.77v-8.32c5.51,2.16,10.05,3.14,13.62,3.14,3.24,0,5.84-.86,7.89-2.49s3.03-4,3.03-6.81c0-2.05-.54-4-1.62-5.62s-2.59-3.03-4.76-3.89-5.3-1.41-9.73-1.41h-3.35v-6.59h2.92c4.22,0,7.35-.32,9.19-1.19,1.84-.76,3.24-1.95,4.32-3.57,1.08-1.62,1.62-3.35,1.62-5.19,0-2.27-.76-4-2.27-5.41s-3.89-2.05-7.03-2.05c-4,0-8.43,1.08-12.97,3.14v-7.57c2.27-.76,4.22-1.3,5.51-1.62,1.41-.22,2.92-.43,4.76-.65,1.84-.22,3.57-.22,5.19-.22,5.84,0,10.27,1.19,13.51,3.57s4.76,5.62,4.76,9.62c0,3.24-.97,6.05-3.03,8.32s-5.08,4.11-9.19,5.51c3.57,.86,6.27,1.95,8.22,3.46s3.35,3.14,4.32,5.19c.97,1.95,1.51,4.11,1.51,6.38,0,4.22-1.62,7.89-4.97,11.24s-8.65,4.97-16.11,4.97c-1.95,0-4-.11-6.16-.22-2.38-.22-5.41-.76-9.19-1.73h0Z"/></g></g></svg>