<?xml version="1.0" encoding="UTF-8"?><svg id="a" xmlns="http://www.w3.org/2000/svg" xmlns:xlink="http://www.w3.org/1999/xlink" viewBox="0 0 720 378.91"><defs><style>.e{fill:#fff;opacity:0;}.f{fill:url(#c);stroke:#030304;}.f,.g{stroke-miterlimit:10;stroke-width:2.85px;}.h{fill:url(#d);isolation:isolate;opacity:.5;}.g{fill:none;stroke:#fff;}</style><linearGradient id="c" x1="360" y1="22.38" x2="360" y2="223.11" gradientTransform="translate(0 312.2) scale(1 -1)" gradientUnits="userSpaceOnUse"><stop offset=".08" stop-color="#47c0f0"/><stop offset=".15" stop-color="#52a5d5"/><stop offset=".23" stop-color="#5d85b4"/><stop offset=".3" stop-color="#626a9c"/><stop offset=".37" stop-color="#67568c"/><stop offset=".42" stop-color="#684981"/><stop offset=".46" stop-color="#68457e"/><stop offset=".55" stop-color="#923e61"/><stop offset=".67" stop-color="#b7323c"/><stop offset=".75" stop-color="#cc2321"/><stop offset=".79" stop-color="#d41a1c"/></linearGradient><linearGradient id="d" x1="351.79" y1="58.15" x2="340.97" y2="68.97" gradientTransform="translate(0 312.2) scale(1 -1)" gradientUnits="userSpaceOnUse"><stop offset="0" stop-color="#1f1f1e" stop-opacity="0"/><stop offset="1" stop-color="#fff"/></linearGradient></defs><rect class="e" width="720" height="378.91"/><g id="b"><path class="f" d="M373.31,236.53V102.41c0-7.27-6.06-13.32-13.32-13.32s-13.32,6.06-13.32,13.32V236.23c-8.78,4.85-15.13,14.23-15.13,25.13,0,15.74,12.72,28.46,28.46,28.46s28.46-12.72,28.46-28.46c0-10.9-6.06-20.29-15.13-24.82h-.02Z"/><line class="g" x1="354.23" y1="118.16" x2="366.05" y2="118.16"/><line class="g" x1="354.23" y1="155.4" x2="366.05" y2="155.4"/><line class="g" x1="354.23" y1="189.3" x2="366.05" y2="189.3"/><line class="g" x1="354.23" y1="220.78" x2="366.05" y2="220.78"/><line class="g" x1="354.23" y1="260.75" x2="366.05" y2="260.75"/><path class="h" d="M351.82,253.78c-4.24,4.54-10.3,5.45-13.32,2.72-3.03-3.03-1.82-9.09,2.42-13.32,4.24-4.24,10.3-5.45,13.32-2.42s2.12,8.78-2.42,13.02h0Z"/></g></svg>