<?xml version="1.0" encoding="UTF-8"?><svg id="Layer" xmlns="http://www.w3.org/2000/svg" xmlns:xlink="http://www.w3.org/1999/xlink" viewBox="0 0 566.93 141.73"><defs><style>.cls-1{fill:url(#linear-gradient-2);}.cls-2{fill:#fff;opacity:0;}.cls-3{fill:url(#linear-gradient-6);}.cls-4{fill:#1f1f1d;}.cls-5{fill:url(#Nowy_wzorek);isolation:isolate;opacity:.1;}.cls-6{fill:url(#linear-gradient-5);}.cls-7{fill:#010101;stroke:#020303;stroke-miterlimit:10;stroke-width:.76px;}.cls-8{fill:none;}.cls-9{fill:url(#linear-gradient-7);}.cls-10{fill:url(#linear-gradient-3);}.cls-11{fill:url(#linear-gradient);}.cls-12{fill:url(#linear-gradient-4);}</style><linearGradient id="linear-gradient" x1="566.48" y1="20.74" x2="496.45" y2="90.77" gradientTransform="translate(0 126.27) scale(1 -1)" gradientUnits="userSpaceOnUse"><stop offset="0" stop-color="#9d9d9c"/><stop offset=".54" stop-color="#010101"/><stop offset="1" stop-color="#9d9d9c"/></linearGradient><linearGradient id="linear-gradient-2" x1="531.49" y1="22.76" x2="531.49" y2="88.75" gradientTransform="translate(0 126.27) scale(1 -1)" gradientUnits="userSpaceOnUse"><stop offset="0" stop-color="#452b1a"/><stop offset="1" stop-color="#b18049"/></linearGradient><linearGradient id="linear-gradient-3" x1="531.46" y1="24.42" x2="531.46" y2="87.14" gradientTransform="translate(0 126.27) scale(1 -1)" gradientUnits="userSpaceOnUse"><stop offset="0" stop-color="#946137"/><stop offset="1" stop-color="#7f5026"/></linearGradient><pattern id="Nowy_wzorek" x="0" y="0" width="19.7" height="21.7" patternTransform="translate(8.6 -16239.44) scale(1 -1)" patternUnits="userSpaceOnUse" viewBox="0 0 19.7 21.7"><g><rect class="cls-8" width="19.7" height="21.7"/><g><rect class="cls-8" width="19.7" height="21.7"/><g><rect class="cls-8" width="19.7" height="21.7"/><g><rect class="cls-8" width="19.7" height="21.7"/><path class="cls-4" d="M16.6,13c2.1-2.1,2.1-5.6,0-7.7l-1.2-1.2c-2.1-2.1-5.6-2.1-7.8,0L3.1,8.7c-2.1,2.1-2.1,5.6,0,7.7l1.2,1.2c2.1,2.1,5.6,2.1,7.7,0l4.6-4.6Z"/></g></g></g></g></pattern><linearGradient id="linear-gradient-4" x1="531.88" y1="33" x2="531.88" y2="76.55" gradientTransform="translate(0 125.26) scale(1 -1)" gradientUnits="userSpaceOnUse"><stop offset=".16" stop-color="#813912"/><stop offset=".18" stop-color="#975a19"/><stop offset=".22" stop-color="#ae7d21"/><stop offset=".26" stop-color="#c39d27"/><stop offset=".3" stop-color="#d6b92e"/><stop offset=".35" stop-color="#e4cf35"/><stop offset=".41" stop-color="#efe036"/><stop offset=".48" stop-color="#f6e942"/><stop offset=".58" stop-color="#f8ea48"/><stop offset=".86" stop-color="#f7ea47"/><stop offset="1" stop-color="#fcf4f9"/></linearGradient><linearGradient id="linear-gradient-5" x1="531.88" y1="78.87" x2="531.88" y2="12.3" gradientTransform="translate(0 125.26) scale(1 -1)" gradientUnits="userSpaceOnUse"><stop offset=".26" stop-color="#f7ea47"/><stop offset=".86" stop-color="#803612"/></linearGradient><linearGradient id="linear-gradient-6" x1="531.9" y1="33.6" x2="531.9" y2="75.91" gradientTransform="translate(0 125.26) scale(1 -1)" gradientUnits="userSpaceOnUse"><stop offset=".16" stop-color="#803612"/><stop offset=".17" stop-color="#8b461e"/><stop offset=".18" stop-color="#a26a3b"/><stop offset=".2" stop-color="#b78954"/><stop offset=".22" stop-color="#c7a468"/><stop offset=".24" stop-color="#d7bb7a"/><stop offset=".26" stop-color="#e2cc88"/><stop offset=".3" stop-color="#ead891"/><stop offset=".34" stop-color="#eede97"/><stop offset=".46" stop-color="#efe097"/><stop offset=".7" stop-color="#803612"/><stop offset=".73" stop-color="#e6d234"/><stop offset=".74" stop-color="#ead848"/><stop offset=".75" stop-color="#eede6d"/><stop offset=".77" stop-color="#f1e38b"/><stop offset=".79" stop-color="#f7eaa9"/><stop offset=".8" stop-color="#f8edbf"/><stop offset=".83" stop-color="#faf0cf"/><stop offset=".85" stop-color="#fcf2da"/><stop offset=".89" stop-color="#fdf4e1"/><stop offset=".99" stop-color="#fdf5e3"/></linearGradient><linearGradient id="linear-gradient-7" x1="531.88" y1="69.7" x2="531.88" y2="4.4" gradientTransform="translate(0 125.26) scale(1 -1)" gradientUnits="userSpaceOnUse"><stop offset=".26" stop-color="#f7ea47"/><stop offset=".77" stop-color="#803612"/></linearGradient></defs><rect class="cls-2" width="566.93" height="141.73"/><g id="prodBg"><rect id="external-border" class="cls-11" x="496.26" y="35.68" width="70.4" height="69.66"/><rect id="internal-border" class="cls-1" x="498.1" y="37.52" width="66.78" height="65.99"/><rect id="bg" class="cls-10" x="499.71" y="39.13" width="63.5" height="62.71"/><rect id="bgPattern" class="cls-5" x="499.71" y="39.13" width="63.5" height="62.71"/></g><g id="mln"><polygon id="obram_czarne" class="cls-7" points="515.76 47.38 508.76 54.38 508.76 86.59 515.76 93.59 548 93.59 554.96 86.59 554.96 54.38 548 47.38 515.76 47.38"/><polygon id="obram_zolte" class="cls-12" points="516.67 48.71 510.12 55.29 510.12 85.68 516.67 92.26 547.06 92.26 553.64 85.68 553.64 55.29 547.06 48.71 516.67 48.71"/><polygon id="tlo_wew" class="cls-6" points="517.12 49.35 510.73 55.75 510.73 85.23 517.12 91.62 546.64 91.62 553.03 85.23 553.03 55.75 546.64 49.35 517.12 49.35"/><path id="obram_skosne" class="cls-3" d="M549.97,78.64c-1.17,0-2.12-.95-2.12-2.12v-12.07c0-1.17,.95-2.12,2.12-2.12h3.03v-6.58l-6.36-6.4h-6.62v3.03c0,1.17-.95,2.12-2.12,2.12h-12.07c-1.17,0-2.12-.95-2.12-2.12v-3.03h-6.58l-6.4,6.4v6.62h3.03c1.17,0,2.12,.95,2.12,2.12v12.07c0,1.17-.95,2.12-2.12,2.12h-3.03v6.58l6.4,6.4h6.62v-3.03c0-1.17,.95-2.12,2.12-2.12h12.07c1.17,0,2.12,.95,2.12,2.12v3.03h6.62l6.4-6.4v-6.62h-3.1Z"/><path id="tlo_zew" class="cls-9" d="M549.86,79.36c-1.44,0-2.61-1.44-2.61-2.88v-12c0-1.44,1.17-2.88,2.61-2.88h2.46v-5.37l-6.21-6.17h-5.34v2.46c0,1.44-1.44,2.61-2.88,2.61h-12c-1.44,0-2.88-1.17-2.88-2.61v-2.46h-5.41l-6.17,6.17v5.37h2.46c1.44,0,2.61,1.44,2.61,2.88v12c0,1.44-1.17,2.88-2.61,2.88h-2.46v5.37l6.17,6.17h5.37v-2.46c0-1.44,1.44-2.61,2.88-2.61h11.96c1.44,0,2.88,1.17,2.88,2.61v2.46h5.37l6.17-6.17v-5.37h-2.38Z"/></g><path d="M525.56,79.93v-3.08c1.18-1.58,2.32-2.86,3.42-3.82l1.59-1.41c1.14-1.01,2.08-2.01,2.83-3,.75-.99,1.12-2.02,1.12-3.1,0-.98-.31-1.73-.94-2.26-.63-.53-1.48-.8-2.55-.8-1.42,0-3.08,.48-4.97,1.45v-2.86c1.98-.74,3.9-1.11,5.75-1.11,2.05,0,3.7,.49,4.96,1.47s1.89,2.29,1.89,3.94c0,1.04-.27,2.02-.8,2.93-.53,.92-1.64,2.05-3.31,3.41l-1.32,1.05c-.58,.47-1.21,1.06-1.9,1.79s-1.14,1.5-1.36,2.32h8.61v3.08h-13.03Z"/></svg>