<?xml version="1.0" encoding="UTF-8"?><svg id="Layer_1" xmlns="http://www.w3.org/2000/svg" xmlns:xlink="http://www.w3.org/1999/xlink" viewBox="0 0 168.78 168.78"><defs><style>.cls-1{fill:#054e35;}.cls-2{fill:#fff;stroke:#000;stroke-miterlimit:10;stroke-width:8px;}.cls-3{fill:url(#linear-gradient);}</style><linearGradient id="linear-gradient" x1="84.39" y1="27.22" x2="84.39" y2="139.46" gradientTransform="translate(0 167.73) scale(1 -1)" gradientUnits="userSpaceOnUse"><stop offset="0" stop-color="#4d4d4d"/><stop offset="1" stop-color="#fff"/></linearGradient></defs><circle class="cls-1" cx="84.39" cy="84.39" r="84.39"/><circle class="cls-2" cx="84.39" cy="84.39" r="65.25"/><circle class="cls-3" cx="84.39" cy="84.39" r="56.12"/><path d="M84.39,67.31c-8.54,0-15.6,6.28-16.86,14.47,6.06-2.93,12.88-2.44,17.18,1.82,4.43,4.4,4.87,11.51,1.67,17.74,8.49-.99,15.08-8.2,15.08-16.95,0-9.43-7.65-17.08-17.08-17.08Z"/><path d="M84.39,40.88c-24.03,0-43.51,19.48-43.51,43.51,0,6.6,1.48,12.85,4.1,18.45l16.78-16.92c.15-.15,.32-.29,.47-.44-.02-.36-.05-.72-.05-1.09,0-12.26,9.94-22.2,22.2-22.2s22.2,9.94,22.2,22.2-9.94,22.2-22.2,22.2c-.59,0-1.16-.04-1.74-.09-.02,.02-.04,.04-.06,.06l-16.95,17.09c5.68,2.71,12.03,4.24,18.74,4.24,24.03,0,43.51-19.48,43.51-43.51s-19.48-43.51-43.51-43.51Z"/></svg>