<?xml version="1.0" encoding="UTF-8"?><svg id="city" xmlns="http://www.w3.org/2000/svg" xmlns:xlink="http://www.w3.org/1999/xlink" viewBox="0 0 115.34 123.4"><defs><style>.cls-1{fill:url(#linear-gradient-2);}.cls-2{fill:#020203;}.cls-3{fill:url(#linear-gradient-6);}.cls-4{fill:#1f1f1d;}.cls-5{opacity:.29;}.cls-5,.cls-6{isolation:isolate;}.cls-7{fill:url(#radial-gradient);}.cls-8{stroke:#020203;stroke-width:.88px;}.cls-8,.cls-9{fill:none;}.cls-8,.cls-10{stroke-miterlimit:10;}.cls-6{fill:url(#Nowy_wzorek);opacity:.1;}.cls-11{fill:url(#linear-gradient-5);}.cls-12{fill:url(#linear-gradient-7);}.cls-13{fill:url(#linear-gradient-3);}.cls-14{fill:url(#linear-gradient);}.cls-10{fill:#010101;stroke:#020303;stroke-width:.37px;}.cls-15{fill:url(#linear-gradient-4);}.cls-16{fill:url(#linear-gradient-8);}</style><linearGradient id="linear-gradient" x1="53.45" y1="-14.08" x2="53.45" y2="105.52" gradientTransform="translate(0 107.32) scale(1 -1)" gradientUnits="userSpaceOnUse"><stop offset="0" stop-color="#000"/><stop offset="1" stop-color="#fff"/></linearGradient><radialGradient id="radial-gradient" cx="53.55" cy="45.72" fx="53.55" fy="45.72" r="52.21" gradientTransform="translate(0 107.32) scale(1 -1)" gradientUnits="userSpaceOnUse"><stop offset="0" stop-color="#c7c6c6"/><stop offset="1" stop-color="#716f6f"/></radialGradient><linearGradient id="linear-gradient-2" x1="115.25" y1="51.77" x2="80.8" y2="17.32" gradientTransform="translate(0 -15.46)" gradientUnits="userSpaceOnUse"><stop offset="0" stop-color="#9d9d9c"/><stop offset=".54" stop-color="#010101"/><stop offset="1" stop-color="#9d9d9c"/></linearGradient><linearGradient id="linear-gradient-3" x1="98.04" y1="50.78" x2="98.04" y2="18.31" gradientTransform="translate(0 -15.46)" gradientUnits="userSpaceOnUse"><stop offset="0" stop-color="#452b1a"/><stop offset="1" stop-color="#b18049"/></linearGradient><linearGradient id="linear-gradient-4" x1="98.03" y1="49.96" x2="98.03" y2="19.1" gradientTransform="translate(0 -15.46)" gradientUnits="userSpaceOnUse"><stop offset="0" stop-color="#946137"/><stop offset="1" stop-color="#7f5026"/></linearGradient><pattern id="Nowy_wzorek" x="0" y="0" width="19.7" height="21.7" patternTransform="translate(-.5 16514.2)" patternUnits="userSpaceOnUse" viewBox="0 0 19.7 21.7"><g><rect class="cls-9" width="19.7" height="21.7"/><g><rect class="cls-9" width="19.7" height="21.7"/><g><rect class="cls-9" width="19.7" height="21.7"/><g><rect class="cls-9" width="19.7" height="21.7"/><g><rect class="cls-9" width="19.7" height="21.7"/><path class="cls-4" d="M16.6,8.7c2.1,2.1,2.1,5.6,0,7.7l-1.2,1.2c-2.1,2.1-5.6,2.1-7.8,0L3.1,13c-2.1-2.1-2.1-5.6,0-7.7l1.2-1.2c2.1-2.1,5.6-2.1,7.7,0l4.6,4.6Z"/></g></g></g></g></g></pattern><linearGradient id="linear-gradient-5" x1="98.23" y1="46.25" x2="98.23" y2="24.83" gradientTransform="translate(0 -16.47)" gradientUnits="userSpaceOnUse"><stop offset=".16" stop-color="#813912"/><stop offset=".18" stop-color="#975a19"/><stop offset=".22" stop-color="#ae7d21"/><stop offset=".26" stop-color="#c39d27"/><stop offset=".3" stop-color="#d6b92e"/><stop offset=".35" stop-color="#e4cf35"/><stop offset=".41" stop-color="#efe036"/><stop offset=".48" stop-color="#f6e942"/><stop offset=".58" stop-color="#f8ea48"/><stop offset=".86" stop-color="#f7ea47"/><stop offset="1" stop-color="#fcf4f9"/></linearGradient><linearGradient id="linear-gradient-6" x1="98.23" y1="23.69" x2="98.23" y2="56.44" gradientTransform="translate(0 -16.47)" gradientUnits="userSpaceOnUse"><stop offset=".26" stop-color="#f7ea47"/><stop offset=".86" stop-color="#803612"/></linearGradient><linearGradient id="linear-gradient-7" x1="98.24" y1="45.96" x2="98.24" y2="25.14" gradientTransform="translate(0 -16.47)" gradientUnits="userSpaceOnUse"><stop offset=".16" stop-color="#803612"/><stop offset=".17" stop-color="#8b461e"/><stop offset=".18" stop-color="#a26a3b"/><stop offset=".2" stop-color="#b78954"/><stop offset=".22" stop-color="#c7a468"/><stop offset=".24" stop-color="#d7bb7a"/><stop offset=".26" stop-color="#e2cc88"/><stop offset=".3" stop-color="#ead891"/><stop offset=".34" stop-color="#eede97"/><stop offset=".46" stop-color="#efe097"/><stop offset=".7" stop-color="#803612"/><stop offset=".73" stop-color="#e6d234"/><stop offset=".74" stop-color="#ead848"/><stop offset=".75" stop-color="#eede6d"/><stop offset=".77" stop-color="#f1e38b"/><stop offset=".79" stop-color="#f7eaa9"/><stop offset=".8" stop-color="#f8edbf"/><stop offset=".83" stop-color="#faf0cf"/><stop offset=".85" stop-color="#fcf2da"/><stop offset=".89" stop-color="#fdf4e1"/><stop offset=".99" stop-color="#fdf5e3"/></linearGradient><linearGradient id="linear-gradient-8" x1="98.23" y1="28.2" x2="98.23" y2="60.32" gradientTransform="translate(0 -16.47)" gradientUnits="userSpaceOnUse"><stop offset=".26" stop-color="#f7ea47"/><stop offset=".77" stop-color="#803612"/></linearGradient></defs><g id="city-2"><polygon points="106.9 92.5 106.9 30.8 53.5 0 0 30.8 0 92.5 53.5 123.4 106.9 92.5"/><polygon class="cls-14" points="105.2 91.5 105.2 31.7 53.5 1.8 1.7 31.7 1.7 91.5 53.5 121.4 105.2 91.5"/><polygon class="cls-7" points="101.9 89.6 101.9 33.7 53.5 5.8 5.2 33.7 5.2 89.6 53.5 117.4 101.9 89.6"/><path class="cls-5" d="M106.6,90.7V52.2h0q-53.1,7.9-106.3,0H.3v38.5l53.1,30.7,53.2-30.7Z"/><g id="city-logo"><path class="cls-8" d="M16.5,68.4c0-19.8,16.6-35.7,36.9-35.7"/><path class="cls-8" d="M90.2,68.4c0-19.8-16.7-35.7-37.3-35.7"/><rect class="cls-2" x="15.8" y="66.1" width="75.1" height="4.7"/><rect class="cls-2" x="19.7" y="61.7" width="2.3" height="4.4"/><rect class="cls-2" x="20.9" y="58.2" width="1.1" height="3.6"/><rect class="cls-2" x="24.3" y="61.2" width="4.1" height="5"/><rect class="cls-2" x="24.3" y="55.5" width="2" height="5.7"/><rect class="cls-2" x="29.7" y="59.9" width="1.7" height="6.1"/><rect class="cls-2" x="31.4" y="47.7" width="1.9" height="18.4"/><rect class="cls-2" x="32.4" y="45.7" width="1" height="1.9"/><rect class="cls-2" x="33.4" y="61.7" width="3.2" height="4.4"/><rect class="cls-2" x="36" y="59.5" width=".6" height="2.3"/><rect class="cls-2" x="36.6" y="43.2" width="2.6" height="22.9"/><rect class="cls-2" x="39.2" y="47.3" width="1.3" height="18.7"/><rect class="cls-2" x="40.6" y="54" width="2.7" height="12.1"/><rect class="cls-2" x="43.3" y="56.5" width="1.7" height="9.7"/><rect class="cls-2" x="46.5" y="50.6" width="3.6" height="15.5"/><rect class="cls-2" x="50.2" y="56.7" width="1.8" height="9.4"/><rect class="cls-2" x="52" y="39.4" width="4.4" height="26.7"/><rect class="cls-2" x="58.5" y="45.3" width="2.3" height="20.8"/><rect class="cls-2" x="63.1" y="49.6" width="2.5" height="16.5"/><rect class="cls-2" x="60.6" y="60.6" width="2.5" height="5.5"/><rect class="cls-2" x="65.6" y="63.1" width="1.8" height="3.1"/><rect class="cls-2" x="69.5" y="61.4" width="1.6" height="4.6"/><rect class="cls-2" x="71.1" y="54" width="2.8" height="12.1"/><rect class="cls-2" x="73.8" y="48.4" width="2" height="17.7"/><rect class="cls-2" x="75.8" y="60.8" width="1.7" height="5.3"/><rect class="cls-2" x="78.5" y="57.6" width="2.2" height="8.5"/><rect class="cls-2" x="80.7" y="56.7" width="2.4" height="9.4"/><rect class="cls-2" x="84.6" y="61.9" width="1.1" height="4.3"/><rect class="cls-2" x="85.7" y="64" width="2" height="2.2"/></g></g><g><g id="prodBg"><rect id="external-border" class="cls-1" x="80.71" y="1.95" width="34.63" height="34.27"/><rect id="internal-border" class="cls-13" x="81.61" y="2.85" width="32.85" height="32.46"/><rect id="bg" class="cls-15" x="82.41" y="3.64" width="31.24" height="30.85"/><rect id="bgPattern" class="cls-6" x="82.41" y="3.64" width="31.24" height="30.85"/></g><g id="mln"><polygon id="obram_czarne" class="cls-10" points="90.3 7.7 86.86 11.14 86.86 26.99 90.3 30.43 106.16 30.43 109.59 26.99 109.59 11.14 106.16 7.7 90.3 7.7"/><polygon id="obram_zolte" class="cls-11" points="90.75 8.36 87.53 11.59 87.53 26.54 90.75 29.78 105.7 29.78 108.94 26.54 108.94 11.59 105.7 8.36 90.75 8.36"/><polygon id="tlo_wew" class="cls-3" points="90.97 8.67 87.83 11.82 87.83 26.32 90.97 29.47 105.49 29.47 108.64 26.32 108.64 11.82 105.49 8.67 90.97 8.67"/><path id="obram_skosne" class="cls-12" d="M107.13,23.08c-.58,0-1.04-.47-1.04-1.04v-5.94c0-.58,.47-1.04,1.04-1.04h1.49v-3.24l-3.13-3.15h-3.26v1.49c0,.58-.47,1.04-1.04,1.04h-5.94c-.58,0-1.04-.47-1.04-1.04v-1.49h-3.24l-3.15,3.15v3.26h1.49c.58,0,1.04,.47,1.04,1.04v5.94c0,.58-.47,1.04-1.04,1.04h-1.49v3.24l3.15,3.15h3.26v-1.49c0-.58,.47-1.04,1.04-1.04h5.94c.58,0,1.04,.47,1.04,1.04v1.49h3.26l3.15-3.15v-3.26h-1.53Z"/><path id="tlo_zew" class="cls-16" d="M107.08,23.43c-.71,0-1.28-.71-1.28-1.42v-5.9c0-.71,.58-1.42,1.28-1.42h1.21v-2.64l-3.06-3.04h-2.63v1.21c0,.71-.71,1.28-1.42,1.28h-5.9c-.71,0-1.42-.58-1.42-1.28v-1.21h-2.66l-3.04,3.04v2.64h1.21c.71,0,1.28,.71,1.28,1.42v5.9c0,.71-.58,1.42-1.28,1.42h-1.21v2.64l3.04,3.04h2.64v-1.21c0-.71,.71-1.28,1.42-1.28h5.88c.71,0,1.42,.58,1.42,1.28v1.21h2.64l3.04-3.04v-2.64h-1.17Z"/></g><path d="M97.76,23.82V15.34h-1.28l-.04-.96,3.24-.28v9.72h-1.92Z"/></g></svg>