<?xml version="1.0" encoding="UTF-8"?><svg id="Layer" xmlns="http://www.w3.org/2000/svg" xmlns:xlink="http://www.w3.org/1999/xlink" viewBox="0 0 566.93 141.73"><defs><style>.cls-1{fill:url(#linear-gradient-2);}.cls-2{opacity:.15;}.cls-2,.cls-3{fill:#020303;}.cls-2,.cls-4{isolation:isolate;}.cls-5{fill:#332116;}.cls-6{fill:#fff;opacity:0;}.cls-7{fill:#946137;}.cls-8{fill:#1f1f1d;}.cls-4{fill:url(#Nowy_wzorek);opacity:.1;}.cls-9{fill:none;}.cls-10{fill:url(#linear-gradient-3);}.cls-11{fill:url(#linear-gradient);}.cls-12{fill:url(#linear-gradient-4);}</style><linearGradient id="linear-gradient" x1="566.44" y1="20.7" x2="496.34" y2="90.8" gradientTransform="translate(0 126.27) scale(1 -1)" gradientUnits="userSpaceOnUse"><stop offset="0" stop-color="#9d9d9c"/><stop offset=".54" stop-color="#010101"/><stop offset="1" stop-color="#9d9d9c"/></linearGradient><linearGradient id="linear-gradient-2" x1="531.42" y1="22.76" x2="531.42" y2="88.75" gradientTransform="translate(0 126.27) scale(1 -1)" gradientUnits="userSpaceOnUse"><stop offset="0" stop-color="#452b1a"/><stop offset="1" stop-color="#b18049"/></linearGradient><linearGradient id="linear-gradient-3" x1="531.39" y1="24.42" x2="531.39" y2="87.14" gradientTransform="translate(0 126.27) scale(1 -1)" gradientUnits="userSpaceOnUse"><stop offset="0" stop-color="#946137"/><stop offset="1" stop-color="#7f5026"/></linearGradient><pattern id="Nowy_wzorek" x="0" y="0" width="19.7" height="21.7" patternTransform="translate(8.6 -16239.44) scale(1 -1)" patternUnits="userSpaceOnUse" viewBox="0 0 19.7 21.7"><g><rect class="cls-9" width="19.7" height="21.7"/><g><rect class="cls-9" width="19.7" height="21.7"/><g><rect class="cls-9" width="19.7" height="21.7"/><g><rect class="cls-9" width="19.7" height="21.7"/><path class="cls-8" d="M16.6,13c2.1-2.1,2.1-5.6,0-7.7l-1.2-1.2c-2.1-2.1-5.6-2.1-7.8,0L3.1,8.7c-2.1,2.1-2.1,5.6,0,7.7l1.2,1.2c2.1,2.1,5.6,2.1,7.7,0l4.6-4.6Z"/></g></g></g></g></pattern><linearGradient id="linear-gradient-4" x1="-307.82" y1="1092.7" x2="-277.04" y2="1061.92" gradientTransform="translate(-23.11 -897.62) rotate(-45)" gradientUnits="userSpaceOnUse"><stop offset="0" stop-color="#452b1a"/><stop offset=".05" stop-color="#583519"/><stop offset=".1" stop-color="#683e15"/><stop offset=".32" stop-color="#76481e"/><stop offset=".75" stop-color="#8c5a31"/><stop offset="1" stop-color="#946137"/></linearGradient></defs><rect class="cls-6" width="566.93" height="141.73"/><g id="prodBg"><rect id="external-border" class="cls-11" x="496.12" y="35.68" width="70.54" height="69.66"/><rect id="internal-border" class="cls-1" x="497.96" y="37.52" width="66.92" height="65.99"/><rect id="bg" class="cls-10" x="499.57" y="39.13" width="63.65" height="62.71"/><rect id="bgPattern" class="cls-4" x="499.57" y="39.13" width="63.65" height="62.71"/></g><g id="steel"><rect class="cls-3" x="508.78" y="47.82" width="46.2" height="46.2"/><rect class="cls-12" x="510.12" y="49.15" width="43.54" height="43.54"/><rect class="cls-7" x="512.23" y="51.26" width="39.31" height="39.31"/><g><path class="cls-5" d="M535.98,83.91l.96-18.27-2.22-.26-.33-.78h-1.7l-.3,.82-2.59-.11v-4.74h3l.22,.93,1.41,.19,.33-1.07h3.08l.59,.52,.52-.52h3.82l.44,.74,.67-.74,2.89,2.37-.19,1.63s-1.59-1.48-2.37-1.48-1.89-.04-1.89-.04l-1.59,2.56-.96,.07,.89,18.19h-4.67Z"/><polygon class="cls-5" points="527.35 59.79 524.23 58.08 524.2 62.31 521.38 62.31 521.38 58.08 517.82 59.71 517.82 64.9 521.12 66.49 519.97 83.91 525.27 83.91 524.23 66.49 527.35 65.08 527.35 59.79"/></g><path id="darker" class="cls-2" d="M553.65,92.69h-43.54v-23.86s13.71,2.11,21.75,2.11,21.79-2.11,21.79-2.11v23.86Z"/></g></svg>