<?xml version="1.0" encoding="UTF-8"?><svg id="Layer_1" xmlns="http://www.w3.org/2000/svg" xmlns:xlink="http://www.w3.org/1999/xlink" viewBox="0 0 168.78 168.78"><defs><style>.cls-1{fill:#054e35;}.cls-2{stroke-width:2.67px;}.cls-2,.cls-3{stroke:#000;stroke-miterlimit:10;}.cls-4{opacity:.8;}.cls-3{fill:#fff;stroke-width:8px;}.cls-5{fill:url(#linear-gradient);}</style><linearGradient id="linear-gradient" x1="84.39" y1="27.22" x2="84.39" y2="139.46" gradientTransform="translate(0 167.73) scale(1 -1)" gradientUnits="userSpaceOnUse"><stop offset="0" stop-color="#4d4d4d"/><stop offset="1" stop-color="#fff"/></linearGradient></defs><circle class="cls-1" cx="84.39" cy="84.39" r="84.39"/><circle class="cls-3" cx="84.39" cy="84.39" r="65.25"/><circle class="cls-5" cx="84.39" cy="84.39" r="56.12"/><g id="logo_3_czesc"><polygon points="73.89 57.28 39.28 57.28 49.95 75.7 84.57 75.7 73.89 57.28"/><polygon points="73.89 57.28 39.28 57.28 49.95 75.7 84.57 75.7 73.89 57.28"/><polygon class="cls-4" points="73.89 57.28 39.28 57.28 49.95 75.7 84.57 75.7 73.89 57.28"/><polygon class="cls-2" points="73.89 57.28 39.28 57.28 49.95 75.7 84.57 75.7 73.89 57.28"/></g><g id="logo_2_czesc"><polygon points="95.25 57.28 129.87 57.28 119.19 75.7 84.57 75.7 95.25 57.28"/><polygon points="95.25 57.28 129.87 57.28 119.19 75.7 84.57 75.7 95.25 57.28"/><polygon class="cls-4" points="95.25 57.28 129.87 57.28 119.19 75.7 84.57 75.7 95.25 57.28"/><polygon class="cls-2" points="95.25 57.28 129.87 57.28 119.19 75.7 84.57 75.7 95.25 57.28"/></g><g id="logo_1_czesc"><polygon points="95.44 94.11 84.53 134.57 74.06 94.4 84.74 75.7 95.44 94.11"/><polygon points="95.44 94.11 84.53 134.57 74.06 94.4 84.74 75.7 95.44 94.11"/><polygon class="cls-4" points="95.44 94.11 84.53 134.57 74.06 94.4 84.74 75.7 95.44 94.11"/><polygon class="cls-2" points="95.44 94.11 84.53 134.57 74.06 94.4 84.74 75.7 95.44 94.11"/></g></svg>