<?xml version="1.0" encoding="utf-8"?>
<!-- Generator: Adobe Illustrator 26.3.1, SVG Export Plug-In . SVG Version: 6.00 Build 0)  -->
<svg version="1.1" id="Layer_1" xmlns="http://www.w3.org/2000/svg" xmlns:xlink="http://www.w3.org/1999/xlink" x="0px" y="0px"
	 viewBox="0 0 297.6 187.1" style="enable-background:new 0 0 297.6 187.1;" xml:space="preserve">
<style type="text/css">
	.st0{fill:#3AAA35;stroke:#000000;stroke-width:1.6528;stroke-miterlimit:10;}
	
		.st1{fill:url(#logo_00000134968780341345691080000006271510393813142663_);stroke:url(#logo_00000157283633625061092500000009688847947785160121_);stroke-width:1.3222;stroke-miterlimit:10;}
	.st2{fill:url(#SVGID_1_);}
	.st3{opacity:0.6;fill:url(#SVGID_00000109721492310693638060000010785029658869065884_);}
</style>
<g id="LOGO_6_">
	<g id="tekst_rozwijamy_twoj_swiat_2_">
		<path d="M41.6,112.7H39v2.4h2.9v0.7h-3.8v-6.7h3.6v0.7H39v2.1h2.6V112.7z"/>
		<path d="M52.7,115.8l-2.2-6.7h0.9l1,3.3c0.3,0.9,0.5,1.7,0.7,2.5h0c0.2-0.8,0.5-1.6,0.8-2.5l1.1-3.3H56l-2.4,6.7H52.7z"/>
		<path d="M70.6,112.4c0,2.3-1.4,3.5-3.1,3.5c-1.8,0-3-1.4-3-3.4c0-2.1,1.3-3.5,3.1-3.5C69.4,109,70.6,110.4,70.6,112.4z
			 M65.4,112.5c0,1.4,0.8,2.7,2.1,2.7c1.4,0,2.1-1.3,2.1-2.8c0-1.3-0.7-2.7-2.1-2.7C66.1,109.7,65.4,111,65.4,112.5z"/>
		<path d="M79.8,109.1h0.9v6h2.9v0.7h-3.7V109.1z"/>
		<path d="M93.5,115.8l-2.2-6.7h0.9l1,3.3c0.3,0.9,0.5,1.7,0.7,2.5h0c0.2-0.8,0.5-1.6,0.8-2.5l1.1-3.3h0.9l-2.4,6.7H93.5z"/>
		<path d="M106.5,109.1v6.7h-0.9v-6.7H106.5z"/>
		<path d="M116.1,115.8v-6.7h0.9l2.1,3.4c0.5,0.8,0.9,1.5,1.2,2.2l0,0c-0.1-0.9-0.1-1.7-0.1-2.7v-2.8h0.8v6.7h-0.9l-2.1-3.4
			c-0.5-0.7-0.9-1.5-1.2-2.2l0,0c0,0.8,0.1,1.6,0.1,2.8v2.9H116.1z"/>
		<path d="M135.8,115.5c-0.4,0.1-1.2,0.4-2.1,0.4c-1,0-1.8-0.3-2.5-0.9c-0.6-0.6-0.9-1.4-0.9-2.5c0-2,1.4-3.5,3.6-3.5
			c0.8,0,1.4,0.2,1.7,0.3l-0.2,0.7c-0.4-0.2-0.8-0.3-1.5-0.3c-1.6,0-2.7,1-2.7,2.7c0,1.7,1,2.7,2.6,2.7c0.6,0,1-0.1,1.2-0.2v-2h-1.4
			v-0.7h2.2V115.5z"/>
		<path d="M156.5,115.8V113l-2.1-3.8h1l0.9,1.8c0.3,0.5,0.5,0.9,0.7,1.4h0c0.2-0.4,0.4-0.9,0.7-1.4l1-1.8h1l-2.2,3.8v2.8H156.5z"/>
		<path d="M173.9,112.4c0,2.3-1.4,3.5-3.1,3.5c-1.8,0-3-1.4-3-3.4c0-2.1,1.3-3.5,3.1-3.5C172.7,109,173.9,110.4,173.9,112.4z
			 M168.7,112.5c0,1.4,0.8,2.7,2.1,2.7c1.4,0,2.1-1.3,2.1-2.8c0-1.3-0.7-2.7-2.1-2.7C169.4,109.7,168.7,111,168.7,112.5z"/>
		<path d="M184,109.1v4c0,1.5,0.7,2.1,1.6,2.1c1,0,1.6-0.7,1.6-2.1v-4h0.9v3.9c0,2.1-1.1,2.9-2.5,2.9c-1.4,0-2.4-0.8-2.4-2.9v-3.9
			H184z"/>
		<path d="M197.6,109.2c0.4-0.1,1.1-0.1,1.7-0.1c0.9,0,1.5,0.2,1.9,0.5c0.3,0.3,0.5,0.8,0.5,1.3c0,0.9-0.6,1.5-1.3,1.7v0
			c0.5,0.2,0.8,0.7,1,1.3c0.2,0.9,0.4,1.6,0.5,1.8h-0.9c-0.1-0.2-0.3-0.8-0.4-1.6c-0.2-0.9-0.6-1.3-1.3-1.3h-0.8v2.9h-0.9V109.2z
			 M198.5,112.3h0.9c0.9,0,1.5-0.5,1.5-1.3c0-0.9-0.6-1.2-1.5-1.2c-0.4,0-0.7,0-0.9,0.1V112.3z"/>
		<path d="M222,115.8l-1.7-6.7h0.9l0.8,3.4c0.2,0.8,0.4,1.7,0.5,2.3h0c0.1-0.7,0.3-1.5,0.5-2.3l0.9-3.4h0.9l0.8,3.4
			c0.2,0.8,0.4,1.6,0.5,2.3h0c0.1-0.7,0.3-1.5,0.5-2.3l0.9-3.4h0.9l-1.9,6.7h-0.9l-0.8-3.5c-0.2-0.9-0.3-1.5-0.4-2.2h0
			c-0.1,0.7-0.3,1.3-0.5,2.2l-1,3.5H222z"/>
		<path d="M243.1,112.4c0,2.3-1.4,3.5-3.1,3.5c-1.8,0-3-1.4-3-3.4c0-2.1,1.3-3.5,3.1-3.5C242,109,243.1,110.4,243.1,112.4z
			 M238,112.5c0,1.4,0.8,2.7,2.1,2.7c1.4,0,2.1-1.3,2.1-2.8c0-1.3-0.7-2.7-2.1-2.7C238.7,109.7,238,111,238,112.5z"/>
		<path d="M252.4,109.2c0.4-0.1,1.1-0.1,1.7-0.1c0.9,0,1.5,0.2,1.9,0.5c0.3,0.3,0.5,0.8,0.5,1.3c0,0.9-0.6,1.5-1.3,1.7v0
			c0.5,0.2,0.8,0.7,1,1.3c0.2,0.9,0.4,1.6,0.5,1.8h-0.9c-0.1-0.2-0.3-0.8-0.4-1.6c-0.2-0.9-0.6-1.3-1.3-1.3h-0.8v2.9h-0.9V109.2z
			 M253.2,112.3h0.9c0.9,0,1.5-0.5,1.5-1.3c0-0.9-0.6-1.2-1.5-1.2c-0.4,0-0.7,0-0.9,0.1V112.3z"/>
		<path d="M265.8,109.1h0.9v6h2.9v0.7h-3.7V109.1z"/>
		<path d="M278.6,109.2c0.5-0.1,1.2-0.1,1.8-0.1c1.2,0,2.1,0.3,2.7,0.8c0.6,0.5,0.9,1.3,0.9,2.4c0,1.1-0.3,2-1,2.6
			c-0.6,0.6-1.7,1-3,1c-0.6,0-1.1,0-1.6-0.1V109.2z M279.5,115.1c0.2,0,0.5,0,0.9,0c1.8,0,2.8-1,2.8-2.8c0-1.6-0.9-2.6-2.7-2.6
			c-0.4,0-0.8,0-1,0.1V115.1z"/>
	</g>
	<g id="tekst_ecoline_2_">
		<g>
			<path class="st0" d="M126.1,93.7h-11v7.2h12.3v3.7h-17.6V80.1h16.9v3.7h-11.6v6.3h11V93.7z"/>
			<path class="st0" d="M156.9,103.8c-1.3,0.5-4,1.1-7.5,1.1c-9.3,0-14.9-4.9-14.9-12.3c0-8.1,6.7-12.9,15.6-12.9
				c3.5,0,6,0.6,7.1,1.1l-1.2,3.6c-1.4-0.5-3.3-0.9-5.7-0.9c-5.9,0-10.2,3.1-10.2,9c0,5.4,3.8,8.8,10.2,8.8c2.2,0,4.4-0.4,5.8-0.9
				L156.9,103.8z"/>
			<path class="st0" d="M190,92.1c0,8.2-5.9,12.9-14,12.9c-8.2,0-13.4-5.3-13.4-12.5c0-7.5,5.6-12.8,13.8-12.8
				C185,79.7,190,85.1,190,92.1z M168.3,92.4c0,5,3,8.9,8.1,8.9c5.1,0,8-4,8-9.1c0-4.6-2.7-9-8-9C171.1,83.3,168.3,87.4,168.3,92.4z
				"/>
			<path class="st0" d="M198.5,80.1h5.3v20.8h12v3.7h-17.3V80.1z"/>
			<path class="st0" d="M229,80.1v24.5h-5.3V80.1H229z"/>
			<path class="st0" d="M239,104.6V80.1h6.1l7.5,10.5c1.9,2.7,3.6,5.6,5,8.2h0.1c-0.3-3.3-0.5-6.4-0.5-10.2v-8.5h4.9v24.5h-5.5
				L249,93.8c-1.9-2.7-3.8-5.7-5.2-8.5l-0.1,0c0.2,3.2,0.3,6.4,0.3,10.4v8.8H239z"/>
			<path class="st0" d="M288.4,93.7h-11v7.2h12.3v3.7h-17.6V80.1h16.9v3.7h-11.6v6.3h11V93.7z"/>
		</g>
	</g>
	<g id="logo_7_">
		
			<linearGradient id="logo_00000023978298688695233670000003824162571380597632_" gradientUnits="userSpaceOnUse" x1="6.6997" y1="84.4441" x2="93.2273" y2="112.5586">
			<stop  offset="0" style="stop-color:#1F6C17"/>
			<stop  offset="0.2408" style="stop-color:#2E7A1C"/>
			<stop  offset="0.7004" style="stop-color:#549E2B"/>
			<stop  offset="1" style="stop-color:#71B935"/>
		</linearGradient>
		
			<linearGradient id="logo_00000018226444958833399620000013448775475963605891_" gradientUnits="userSpaceOnUse" x1="61.6059" y1="125.196" x2="27.5692" y2="68.5496">
			<stop  offset="0" style="stop-color:#1D1D1B"/>
			<stop  offset="0.5335" style="stop-color:#1B1B19"/>
			<stop  offset="0.7257" style="stop-color:#141413"/>
			<stop  offset="0.8621" style="stop-color:#090908"/>
			<stop  offset="0.9251" style="stop-color:#000000"/>
			<stop  offset="0.9324" style="stop-color:#111111"/>
			<stop  offset="0.947" style="stop-color:#3C3C3C"/>
			<stop  offset="0.9672" style="stop-color:#818181"/>
			<stop  offset="0.9923" style="stop-color:#E0E0E0"/>
			<stop  offset="1" style="stop-color:#FFFFFF"/>
		</linearGradient>
		
			<path id="logo_10_" style="fill:url(#logo_00000023978298688695233670000003824162571380597632_);stroke:url(#logo_00000018226444958833399620000013448775475963605891_);stroke-width:1.3222;stroke-miterlimit:10;" d="
			M40.7,68.9c25.4-1,42.4,14,55.7,34c-14.4,0-28.8,0-43.2,0c-5.9,0-11.9,0-17.8,0c-0.5,0-0.5-2.1-1.1-4c-2-5.3-7.3-7.4-12.7-7.4
			l0,2.3c0,0,2.5,0.4,4,0.9c5.2,1.6,7.3,5.8,6.4,11.1c-2,11.8-15.2,15-24.2,8.4c-9.8-7.2-4.7-24.2,1.9-31.9
			C17.9,72.8,28.6,69.3,40.7,68.9z"/>
		<linearGradient id="SVGID_1_" gradientUnits="userSpaceOnUse" x1="53.0019" y1="115.3392" x2="36.3691" y2="69.641">
			<stop  offset="0" style="stop-color:#1F7E17"/>
			<stop  offset="0.1908" style="stop-color:#258219"/>
			<stop  offset="0.4481" style="stop-color:#368F1F"/>
			<stop  offset="0.7419" style="stop-color:#52A32A"/>
			<stop  offset="1" style="stop-color:#71B935"/>
		</linearGradient>
		<path class="st2" d="M18,115.5c-3.2,0-6.4-1.1-9-3c-2.6-1.9-4.1-4.8-4.5-8.5c-0.8-7.2,2.9-16,6.8-20.5c7-8.2,16.4-12.2,29.5-12.7
			c0.7,0,1.5,0,2.2,0c19.3,0,35.1,9.6,49.6,30.1H36.7c0,0,0-0.1,0-0.1c-0.1-0.7-0.3-1.6-0.6-2.5l0-0.1l0-0.1
			c-2.1-5.4-7.5-8.7-14.5-8.7h-2l0,5.9l1.7,0.3c0.7,0.1,2.6,0.4,3.7,0.8c5.1,1.6,5.6,5.7,5.1,8.9C28.8,112.9,22.8,115.5,18,115.5z"
			/>
		
			<linearGradient id="SVGID_00000024000117592339499690000003046575289957564057_" gradientUnits="userSpaceOnUse" x1="44.2513" y1="84.9901" x2="40.2685" y2="70.126">
			<stop  offset="0" style="stop-color:#1F6C17"/>
			<stop  offset="0.1289" style="stop-color:#34811C"/>
			<stop  offset="0.5409" style="stop-color:#72BF29"/>
			<stop  offset="0.8427" style="stop-color:#99E632"/>
			<stop  offset="1" style="stop-color:#A8F535"/>
		</linearGradient>
		<path style="opacity:0.6;fill:url(#SVGID_00000024000117592339499690000003046575289957564057_);" d="M60.3,77.6
			c0,3.5-8.1,6.3-18,6.3c-10,0-18-2.8-18-6.3c0-3.5,8.1-6.3,18-6.3C52.2,71.2,60.3,74.1,60.3,77.6z"/>
	</g>
</g>
</svg>
