<?xml version="1.0" encoding="UTF-8"?><svg xmlns="http://www.w3.org/2000/svg" xmlns:xlink="http://www.w3.org/1999/xlink" viewBox="0 0 297.6 187.1"><defs><style>.cls-1{fill:url(#linear-gradient-2);}.cls-2{opacity:.7;}.cls-3{fill:url(#linear-gradient-3);}.cls-3,.cls-4{mix-blend-mode:darken;}.cls-5{fill:#fff;opacity:0;}.cls-6{isolation:isolate;}.cls-7{stroke:#000;stroke-miterlimit:10;stroke-width:.87px;}.cls-8{fill:url(#radial-gradient);}.cls-9{filter:url(#luminosity-invert);}.cls-10{fill:url(#linear-gradient-5);}.cls-11{fill:url(#radial-gradient-2);}.cls-12{mask:url(#mask);}.cls-13{fill:url(#linear-gradient);}.cls-14{fill:#fcd610;}.cls-4{fill:url(#linear-gradient-4);}</style><linearGradient id="linear-gradient" x1="81.18" y1="123.53" x2="21.23" y2="63.57" gradientTransform="matrix(1, 0, 0, 1, 0, 0)" gradientUnits="userSpaceOnUse"><stop offset="0" stop-color="#942100"/><stop offset=".88" stop-color="#ffc515"/><stop offset="1" stop-color="#ffd054"/></linearGradient><radialGradient id="radial-gradient" cx="51.21" cy="93.55" fx="51.21" fy="93.55" r="40.36" gradientTransform="matrix(1, 0, 0, 1, 0, 0)" gradientUnits="userSpaceOnUse"><stop offset="0" stop-color="#fcd610"/><stop offset="1" stop-color="#e3b600"/></radialGradient><radialGradient id="radial-gradient-2" cx="51.21" cy="93.55" fx="51.21" fy="93.55" r="38.12" gradientTransform="matrix(1, 0, 0, 1, 0, 0)" gradientUnits="userSpaceOnUse"><stop offset="0" stop-color="#fcd610"/><stop offset=".23" stop-color="#fcd610"/><stop offset=".26" stop-color="#fcd610"/><stop offset=".36" stop-color="#f9d20e"/><stop offset=".43" stop-color="#f1c809"/><stop offset=".51" stop-color="#e4b700"/><stop offset=".51" stop-color="#e3b600"/><stop offset="1" stop-color="#fcd610"/></radialGradient><linearGradient id="linear-gradient-2" x1="154.05" y1="124.62" x2="154.05" y2="62.34" gradientTransform="matrix(1, 0, 0, 1, 0, 0)" gradientUnits="userSpaceOnUse"><stop offset="0" stop-color="#706f6f"/><stop offset=".15" stop-color="#686767"/><stop offset=".39" stop-color="#535252"/><stop offset=".67" stop-color="#313030"/><stop offset=".99" stop-color="#020202"/><stop offset="1" stop-color="#000"/></linearGradient><linearGradient id="linear-gradient-3" x1="192.01" y1="114.38" x2="192.01" y2="93.48" gradientTransform="matrix(1, 0, 0, 1, 0, 0)" gradientUnits="userSpaceOnUse"><stop offset="0" stop-color="#878787" stop-opacity="0"/><stop offset=".21" stop-color="#595958" stop-opacity=".09"/><stop offset="1" stop-color="#1d1d1b" stop-opacity=".2"/></linearGradient><linearGradient id="linear-gradient-4" x1="57.68" y1="126.36" x2="57.68" y2="91.74" gradientTransform="matrix(1, 0, 0, 1, 0, 0)" gradientUnits="userSpaceOnUse"><stop offset="0" stop-color="#878787" stop-opacity="0"/><stop offset=".28" stop-color="#4e4e4d" stop-opacity=".53"/><stop offset=".61" stop-color="#292927" stop-opacity=".89"/><stop offset="1" stop-color="#1d1d1b"/></linearGradient><filter id="luminosity-invert" color-interpolation-filters="sRGB" filterUnits="userSpaceOnUse"><feColorMatrix values="-1 0 0 0 1 0 -1 0 0 1 0 0 -1 0 1 0 0 0 1 0"/></filter><mask id="mask" x="104.64" y="58.67" width="128.42" height="33.44" maskUnits="userSpaceOnUse"><g class="cls-9"><g class="cls-2"><path d="M110.23,62.2c0-.26,.23-.35,.63-.35h8.03c.4,0,.57,.09,.57,.26v5.3c0,.2,.11,.26,.17,.26s.29-.06,.57-.17c.97-.47,2.34-.84,3.99-.84,2.39,0,5.47,.73,5.47,3v14.29c0,.09-.17,.17-.34,.17h-7.86c-.23,0-.4-.09-.4-.2v-12.05c0-.44-.46-.58-.91-.58s-.91,.15-.91,.58v12.02c0,.12-.17,.23-.4,.23h-8.15c-.23,0-.46-.15-.46-.26v-21.65Z"/><path d="M133.87,71.36c0-3.43,5.18-4.71,9.8-4.71,6.44,0,10.14,2.53,10.14,5.38v1.77c0,.15-.23,.26-.51,.26h-9.51c-.23,0-.34,.09-.34,.23v4.57c0,.47,.4,.64,.91,.64,.4,0,.91-.17,.91-.61v-1.77c0-.12,.17-.23,.51-.23l7.35,.2c.34,.03,.57,.15,.57,.32v1.86c0,3.72-5.01,4.83-10.25,4.83-6.09,0-9.57-2.21-9.57-5.53v-7.22Zm9.57,.99c0,.09,.17,.15,.34,.15,1.31,0,1.48,0,1.48-.15,0-1.86-.06-2.07-.97-2.07-.46,0-.85,.17-.85,.61v1.46Z"/><path d="M158.48,84.11c-.23,0-.46-.15-.46-.26v-21.65c0-.26,.23-.35,.63-.35h8.03c.4,0,.57,.09,.57,.26v21.77c0,.12-.23,.23-.46,.23h-8.32Z"/><path d="M181.03,83.87c0,.12-.17,.23-.4,.23h-8.37c-.23,0-.46-.15-.46-.26v-16.85c0-.2,.23-.35,.57-.35h8.09c.34,0,.57,.15,.57,.29v16.94Zm-.57-18.45c0,.17-.23,.32-.57,.32h-6.95c-.29,0-.57-.17-.57-.35v-3.61c0-.15,.28-.32,.57-.32h7.01c.23,0,.51,.09,.51,.23v3.72Z"/><path d="M185.25,71.16c0-2.68,3.93-4.51,9.8-4.51s9.8,1.8,9.8,4.66v8.26c0,2.71-3.93,4.54-9.8,4.54s-9.8-1.86-9.8-4.54v-8.41Zm8.89,7.65c0,.35,.28,.58,.91,.58s.91-.23,.91-.58v-6.93c0-.32-.34-.58-.91-.58-.63,0-.91,.26-.91,.58v6.93Z"/><path d="M209.51,84.11c-.23,0-.46-.12-.46-.29v-16.96c0-.12,.17-.2,.4-.2h7.12c.4,0,.85,1.22,1.08,1.22,.06,0,.17-.03,.4-.17,1.03-.67,2.05-1.05,4.44-1.05,2.79,0,5.58,1.11,5.58,3.08v14.23c0,.09-.11,.15-.28,.15h-7.86c-.23,0-.4-.09-.4-.2v-11.9c0-.44-.46-.58-.91-.58s-.91,.15-.91,.58v11.93c0,.12-.11,.17-.4,.17h-7.8Z"/></g></g></mask><linearGradient id="linear-gradient-5" x1="168.85" y1="85.64" x2="168.85" y2="59.49" gradientTransform="matrix(1, 0, 0, 1, 0, 0)" gradientUnits="userSpaceOnUse"><stop offset="0" stop-color="#878787"/><stop offset=".45" stop-color="#000"/><stop offset=".46" stop-color="#878787"/><stop offset=".85" stop-color="#000"/></linearGradient></defs><g class="cls-6"><g id="Layer_1"><g id="LOGO"><circle cx="51.21" cy="93.55" r="45.49" transform="translate(-51.15 63.61) rotate(-45)"/><circle class="cls-13" cx="51.21" cy="93.55" r="42.39"/><circle class="cls-8" cx="51.21" cy="93.55" r="40.36"/><polygon class="cls-11" points="51.21 55.43 53.7 74.65 61.07 56.73 58.5 75.94 70.27 60.54 62.81 78.43 78.16 66.6 66.33 81.95 84.22 74.49 68.82 86.26 88.03 83.68 70.1 91.06 89.33 93.55 70.1 96.04 88.03 103.42 68.82 100.84 84.22 112.61 66.33 105.15 78.16 120.5 62.81 108.67 70.27 126.56 58.5 111.16 61.07 130.37 53.7 112.45 51.21 131.67 48.72 112.45 41.34 130.37 43.91 111.16 32.15 126.56 39.6 108.67 24.25 120.5 36.09 105.15 18.19 112.61 33.6 100.84 14.39 103.42 32.31 96.04 13.09 93.55 32.31 91.06 14.39 83.68 33.6 86.26 18.19 74.49 36.09 81.95 24.25 66.6 39.6 78.43 32.15 60.54 43.91 75.94 41.34 56.73 48.72 74.65 51.21 55.43"/><polygon id="zew" points="291.89 93.91 246.83 73.44 246.83 85.64 73.24 85.64 73.24 60.59 56.91 60.59 56.91 85.64 44.49 85.64 44.49 60.59 28.16 60.59 28.16 85.64 18.69 85.64 18.69 102.19 28.16 102.19 28.16 126.36 44.49 126.36 44.49 102.19 56.91 102.19 56.91 126.36 73.24 126.36 73.24 102.19 246.83 102.19 246.83 114.38 291.89 93.91"/><polygon id="wew" class="cls-1" points="58.65 124.62 58.65 100.45 42.75 100.45 42.75 124.62 29.9 124.62 29.9 100.45 20.43 100.45 20.43 87.38 29.9 87.38 29.9 62.34 42.75 62.34 42.75 87.38 58.65 87.38 58.65 62.34 71.5 62.34 71.5 87.38 248.57 87.38 248.57 76.15 287.68 93.91 248.57 111.68 248.57 100.45 71.5 100.45 71.5 124.62 58.65 124.62"/><path class="cls-14" d="M285.04,93.91l-35.38-16.08v10.63H96.42c.19,1.67,.28,3.36,.28,5.08,0,1.97-.13,3.91-.37,5.81H249.66v10.63l35.38-16.08Z"/><path id="ciemniej_strzalka" class="cls-3" d="M288.15,95.61c-17.1-.62-38.05-2.13-57.01-2.13-23.84,0-105.09,2.18-118.15,2.18-4.12,0-9.81-.25-16.31-.63-.08,2.44-.35,4.83-.8,7.16H246.83v12.2l41.32-18.77Z"/><path id="ciemniej_kolo" class="cls-4" d="M96.68,95.02c-19.1-1.11-45.26-3.29-59.78-3.29-6.46,0-12.47,.36-18.21,.93v9.52h9.47v24.17h16.33v-24.17h12.41v24.17h16.33v-24.17h22.64c.45-2.33,.72-4.72,.8-7.16Z"/><g><path class="cls-7" d="M110.23,62.2c0-.26,.23-.35,.63-.35h8.03c.4,0,.57,.09,.57,.26v5.3c0,.2,.11,.26,.17,.26s.29-.06,.57-.17c.97-.47,2.34-.84,3.99-.84,2.39,0,5.47,.73,5.47,3v14.29c0,.09-.17,.17-.34,.17h-7.86c-.23,0-.4-.09-.4-.2v-12.05c0-.44-.46-.58-.91-.58s-.91,.15-.91,.58v12.02c0,.12-.17,.23-.4,.23h-8.15c-.23,0-.46-.15-.46-.26v-21.65Z"/><path class="cls-7" d="M133.87,71.36c0-3.43,5.18-4.71,9.8-4.71,6.44,0,10.14,2.53,10.14,5.38v1.77c0,.15-.23,.26-.51,.26h-9.51c-.23,0-.34,.09-.34,.23v4.57c0,.47,.4,.64,.91,.64,.4,0,.91-.17,.91-.61v-1.77c0-.12,.17-.23,.51-.23l7.35,.2c.34,.03,.57,.15,.57,.32v1.86c0,3.72-5.01,4.83-10.25,4.83-6.09,0-9.57-2.21-9.57-5.53v-7.22Zm9.57,.99c0,.09,.17,.15,.34,.15,1.31,0,1.48,0,1.48-.15,0-1.86-.06-2.07-.97-2.07-.46,0-.85,.17-.85,.61v1.46Z"/><path class="cls-7" d="M158.48,84.11c-.23,0-.46-.15-.46-.26v-21.65c0-.26,.23-.35,.63-.35h8.03c.4,0,.57,.09,.57,.26v21.77c0,.12-.23,.23-.46,.23h-8.32Z"/><path class="cls-7" d="M181.03,83.87c0,.12-.17,.23-.4,.23h-8.37c-.23,0-.46-.15-.46-.26v-16.85c0-.2,.23-.35,.57-.35h8.09c.34,0,.57,.15,.57,.29v16.94Zm-.57-18.45c0,.17-.23,.32-.57,.32h-6.95c-.29,0-.57-.17-.57-.35v-3.61c0-.15,.28-.32,.57-.32h7.01c.23,0,.51,.09,.51,.23v3.72Z"/><path class="cls-7" d="M185.25,71.16c0-2.68,3.93-4.51,9.8-4.51s9.8,1.8,9.8,4.66v8.26c0,2.71-3.93,4.54-9.8,4.54s-9.8-1.86-9.8-4.54v-8.41Zm8.89,7.65c0,.35,.28,.58,.91,.58s.91-.23,.91-.58v-6.93c0-.32-.34-.58-.91-.58-.63,0-.91,.26-.91,.58v6.93Z"/><path class="cls-7" d="M209.51,84.11c-.23,0-.46-.12-.46-.29v-16.96c0-.12,.17-.2,.4-.2h7.12c.4,0,.85,1.22,1.08,1.22,.06,0,.17-.03,.4-.17,1.03-.67,2.05-1.05,4.44-1.05,2.79,0,5.58,1.11,5.58,3.08v14.23c0,.09-.11,.15-.28,.15h-7.86c-.23,0-.4-.09-.4-.2v-11.9c0-.44-.46-.58-.91-.58s-.91,.15-.91,.58v11.93c0,.12-.11,.17-.4,.17h-7.8Z"/></g><g class="cls-12"><rect id="ciemniej_tekst" class="cls-10" x="104.64" y="59.49" width="128.42" height="26.14"/></g></g><rect class="cls-5" width="297.6" height="187.1"/></g></g></svg>