<?xml version="1.0" encoding="UTF-8"?><svg id="Layer_1" xmlns="http://www.w3.org/2000/svg" xmlns:xlink="http://www.w3.org/1999/xlink" viewBox="0 0 297.64 187.09"><defs><style>.cls-1{fill:url(#linear-gradient-2);}.cls-2{opacity:0;}.cls-2,.cls-3{fill:#fff;}.cls-4{filter:url(#drop-shadow-3);}.cls-5{filter:url(#drop-shadow-1);}.cls-6{fill:url(#radial-gradient);}.cls-7,.cls-8{stroke-width:3.01px;}.cls-7,.cls-8,.cls-9{fill:none;stroke:#010101;stroke-linecap:round;}.cls-7,.cls-9{stroke-miterlimit:15;}.cls-10{filter:url(#drop-shadow-2);}.cls-11{fill:url(#linear-gradient-6);opacity:.1;}.cls-12{fill:url(#radial-gradient-2);}.cls-3{opacity:.2;}.cls-8{stroke-miterlimit:10;}.cls-13{mask:url(#mask);}.cls-14{fill:url(#linear-gradient-3);}.cls-14,.cls-15,.cls-16{opacity:.3;}.cls-15{fill:url(#linear-gradient-5);}.cls-17{fill:url(#linear-gradient);}.cls-18{fill:url(#linear-gradient-7);opacity:.15;}.cls-16{fill:url(#linear-gradient-4);}.cls-9{stroke-width:3.61px;}</style><filter id="drop-shadow-1" filterUnits="userSpaceOnUse"><feOffset dx="3.61" dy="3.61"/><feGaussianBlur result="blur" stdDeviation="3.31"/><feFlood flood-color="#010101" flood-opacity=".72"/><feComposite in2="blur" operator="in"/><feComposite in="SourceGraphic"/></filter><filter id="drop-shadow-2" filterUnits="userSpaceOnUse"><feOffset dx="3.61" dy="3.61"/><feGaussianBlur result="blur-2" stdDeviation="3.31"/><feFlood flood-color="#010101" flood-opacity=".5"/><feComposite in2="blur-2" operator="in"/><feComposite in="SourceGraphic"/></filter><linearGradient id="linear-gradient" x1="42.3" y1="128.24" x2="42.3" y2="67.28" gradientTransform="matrix(1, 0, 0, 1, 0, 0)" gradientUnits="userSpaceOnUse"><stop offset="0" stop-color="#192340"/><stop offset="1" stop-color="#0197c0"/></linearGradient><linearGradient id="linear-gradient-2" x1="42.3" y1="127.79" x2="42.3" y2="67.73" gradientTransform="matrix(1, 0, 0, 1, 0, 0)" gradientUnits="userSpaceOnUse"><stop offset="0" stop-color="#06526a"/><stop offset="1" stop-color="#88cfe6"/></linearGradient><radialGradient id="radial-gradient" cx="42.1" cy="114.77" fx="42.1" fy="114.77" r="12.4" gradientTransform="matrix(1, 0, 0, 1, 0, 0)" gradientUnits="userSpaceOnUse"><stop offset="0" stop-color="#fff" stop-opacity=".5"/><stop offset=".32" stop-color="#fafafb" stop-opacity=".49"/><stop offset=".48" stop-color="#ecedef" stop-opacity=".46"/><stop offset=".62" stop-color="#d4d5db" stop-opacity=".41"/><stop offset=".73" stop-color="#b1b4be" stop-opacity=".33"/><stop offset=".83" stop-color="#848999" stop-opacity=".23"/><stop offset=".93" stop-color="#4e556c" stop-opacity=".12"/><stop offset="1" stop-color="#192340" stop-opacity="0"/></radialGradient><linearGradient id="linear-gradient-3" x1="48.55" y1="114.47" x2="33.04" y2="63.75" gradientTransform="matrix(1, 0, 0, 1, 0, 0)" gradientUnits="userSpaceOnUse"><stop offset="0" stop-color="#fff"/><stop offset=".02" stop-color="#fdfefe"/><stop offset=".03" stop-color="#f6fbfd"/><stop offset=".03" stop-color="#eaf6fa"/><stop offset=".04" stop-color="#d9eff7"/><stop offset=".04" stop-color="#c3e7f2"/><stop offset=".04" stop-color="#a9dcec"/><stop offset=".05" stop-color="#89cfe6"/><stop offset=".05" stop-color="#88cfe6"/><stop offset="1" stop-color="#1e1e1c" stop-opacity="0"/></linearGradient><linearGradient id="linear-gradient-4" x1="47.53" y1="99.61" x2="31.13" y2="62.78" gradientTransform="matrix(1, 0, 0, 1, 0, 0)" gradientUnits="userSpaceOnUse"><stop offset=".03" stop-color="#fff"/><stop offset=".07" stop-color="#88cfe6"/><stop offset="1" stop-color="#1e1e1c" stop-opacity="0"/></linearGradient><linearGradient id="linear-gradient-5" x1="36.15" y1="85.49" x2="20.1" y2="67.66" gradientTransform="matrix(1, 0, 0, 1, 0, 0)" gradientUnits="userSpaceOnUse"><stop offset="0" stop-color="#fff"/><stop offset=".05" stop-color="#fff"/><stop offset=".09" stop-color="#88cfe6"/><stop offset="1" stop-color="#1e1e1c" stop-opacity="0"/></linearGradient><linearGradient id="linear-gradient-6" x1="28.2" y1="78.53" x2="18.71" y2="69.04" gradientTransform="matrix(1, 0, 0, 1, 0, 0)" gradientUnits="userSpaceOnUse"><stop offset="0" stop-color="#bee4f5"/><stop offset=".04" stop-color="#88cfe6"/><stop offset="1" stop-color="#1e1e1c" stop-opacity="0"/></linearGradient><filter id="drop-shadow-3" filterUnits="userSpaceOnUse"><feOffset dx=".3" dy=".3"/><feGaussianBlur result="blur-3" stdDeviation=".3"/><feFlood flood-color="#010101" flood-opacity=".5"/><feComposite in2="blur-3" operator="in"/><feComposite in="SourceGraphic"/></filter><linearGradient id="linear-gradient-7" x1="41.71" y1="96.75" x2="42.75" y2="66.97" gradientTransform="matrix(1, 0, 0, 1, 0, 0)" gradientUnits="userSpaceOnUse"><stop offset="0" stop-color="#fff"/><stop offset=".43" stop-color="#88cfe6"/><stop offset="1" stop-color="#fff"/></linearGradient><mask id="mask" x=".96" y="52.2" width="82.69" height="82.69" maskUnits="userSpaceOnUse"><rect class="cls-1" x="20.02" y="67.73" width="44.55" height="60.06"/></mask><radialGradient id="radial-gradient-2" cx="42.3" cy="93.54" fx="42.3" fy="93.54" r="41.34" gradientTransform="matrix(1, 0, 0, 1, 0, 0)" gradientUnits="userSpaceOnUse"><stop offset=".57" stop-color="#161413" stop-opacity="0"/><stop offset=".79" stop-color="#161413" stop-opacity=".65"/><stop offset=".83" stop-color="#161413" stop-opacity=".74"/><stop offset="1" stop-color="#161413" stop-opacity=".95"/></radialGradient></defs><rect class="cls-2" width="297.64" height="187.09"/><g id="LOGO"><g id="tekst_inventrix" class="cls-5"><g><line class="cls-7" x1="269.5" y1="87.9" x2="273.2" y2="87.9"/><line class="cls-7" x1="281.51" y1="87.9" x2="284.68" y2="87.9"/><line class="cls-7" x1="284.68" y1="87.9" x2="269.5" y2="106.26"/><line class="cls-7" x1="269.5" y1="106.26" x2="273.2" y2="106.26"/><line class="cls-7" x1="281.51" y1="106.26" x2="284.68" y2="106.26"/><line class="cls-7" x1="284.68" y1="106.26" x2="269.5" y2="87.9"/></g><line class="cls-8" x1="80.23" y1="106.26" x2="80.23" y2="87.9"/><g><line class="cls-8" x1="231.15" y1="106.26" x2="231.15" y2="87.9"/><path class="cls-8" d="M231.15,87.9s15.08-1.2,15.08,4.06"/><path class="cls-8" d="M246.23,91.96c0,6.77-14.91,5.12-14.91,5.12"/><path class="cls-8" d="M231.32,97.08s10.55,.87,12.24,2.56"/><path class="cls-8" d="M243.56,99.64c1.95,1.95,2.68,6.62,2.68,6.62"/></g><g><line class="cls-8" x1="212.84" y1="106.26" x2="212.84" y2="87.9"/><line class="cls-8" x1="203.16" y1="87.9" x2="222.44" y2="87.9"/></g><g><line class="cls-8" x1="175.74" y1="106.14" x2="175.74" y2="87.78"/><line class="cls-8" x1="175.74" y1="87.78" x2="193.8" y2="106.14"/><line class="cls-8" x1="193.8" y1="106.14" x2="193.8" y2="87.78"/></g><g><line class="cls-8" x1="164.37" y1="87.9" x2="151.39" y2="87.9"/><line class="cls-8" x1="151.39" y1="87.9" x2="151.39" y2="106.26"/><line class="cls-8" x1="151.39" y1="106.26" x2="164.37" y2="106.26"/><line class="cls-8" x1="151.39" y1="97.08" x2="163.62" y2="97.08"/></g><g><line class="cls-8" x1="126.29" y1="87.9" x2="122.68" y2="87.9"/><line class="cls-8" x1="122.68" y1="87.9" x2="131.47" y2="106.26"/><line class="cls-8" x1="131.47" y1="106.26" x2="141.04" y2="87.9"/><line class="cls-8" x1="141.04" y1="87.9" x2="137.28" y2="87.9"/></g><g><line class="cls-8" x1="93.63" y1="106.26" x2="93.63" y2="87.9"/><line class="cls-8" x1="93.63" y1="87.9" x2="111.69" y2="106.26"/><line class="cls-8" x1="111.69" y1="106.26" x2="111.69" y2="87.9"/></g><line class="cls-8" x1="257.4" y1="106.14" x2="257.4" y2="87.78"/></g><g class="cls-10"><rect class="cls-17" x="19.57" y="67.28" width="45.46" height="60.96"/><rect class="cls-1" x="20.02" y="67.73" width="44.55" height="60.06"/><path class="cls-6" d="M61.67,114.77c0,6.47-8.76,11.72-19.57,11.72s-19.57-5.25-19.57-11.72,8.76-11.72,19.57-11.72,19.57,5.25,19.57,11.72Z"/><path class="cls-14" d="M47.47,114.77c5.64-1.98,11.98-4.27,17.11-6.47v-40.57H20.02v52.6c7.82-1.1,20.49-3.13,27.45-5.56Z"/><path class="cls-16" d="M20.02,107.99c2.34-.23,4.67-.53,6.27-.92,4.52-1.1,15.25-4.11,20.77-7.53,4.6-2.84,12.81-7.91,17.51-12.65v-19.16H20.02v40.26Z"/><path class="cls-15" d="M20.02,67.73v28.26c1.88-.66,3.61-1.39,4.97-2.17,4.01-2.31,10.24-6.22,14.65-12.95,2.95-4.49,5-9.07,6.1-13.15H20.02Z"/><path class="cls-11" d="M20.02,67.73v17.25c2.47-1.2,4.78-2.58,6.57-5.11,2.63-3.7,4.5-7.22,5.43-12.14h-12.01Z"/><path class="cls-3" d="M37.82,72.06c0,2.11-7.82,6.99-11.34,6.99s-4.08-2.83-4.08-4.93,2.85-3.81,6.37-3.81,9.04-.35,9.04,1.76Z"/><g id="symbol_linie" class="cls-4"><line class="cls-9" x1="27.3" y1="73.65" x2="56.9" y2="121.21"/><line class="cls-9" x1="56.9" y1="121.21" x2="51.98" y2="121.21"/><line class="cls-9" x1="32.01" y1="121.21" x2="27.3" y2="121.21"/><line class="cls-9" x1="27.3" y1="121.21" x2="56.9" y2="73.65"/><line class="cls-9" x1="56.9" y1="73.65" x2="51.98" y2="73.65"/><line class="cls-9" x1="31.31" y1="88.7" x2="52.89" y2="88.7"/><line class="cls-9" x1="31.31" y1="106.26" x2="52.89" y2="106.26"/><line class="cls-9" x1="27.3" y1="73.65" x2="32.01" y2="73.65"/></g><path class="cls-18" d="M20.02,91.34c5.71,5.59,16.26,5.29,22.08,5.29s17.27,.74,22.48-4.84v-24.06H20.02v23.61Z"/><g class="cls-13"><circle class="cls-12" cx="42.3" cy="93.54" r="41.34"/></g></g></g></svg>