<?xml version="1.0" encoding="UTF-8"?><svg id="Layer_1" xmlns="http://www.w3.org/2000/svg" xmlns:xlink="http://www.w3.org/1999/xlink" viewBox="0 0 297.64 187.09"><defs><style>.cls-1,.cls-2,.cls-3{fill:#fff;}.cls-4{fill:#2a3180;}.cls-2{opacity:0;}.cls-5{filter:url(#drop-shadow-1);}.cls-3{stroke:#010101;stroke-miterlimit:10;stroke-width:2.25px;}</style><filter id="drop-shadow-1" filterUnits="userSpaceOnUse"><feOffset dx="5.63" dy="5.63"/><feGaussianBlur result="blur" stdDeviation="5.25"/><feFlood flood-color="#010101" flood-opacity=".7"/><feComposite in2="blur" operator="in"/><feComposite in="SourceGraphic"/></filter></defs><rect class="cls-2" width="297.64" height="187.09"/><g id="LOGO"><g id="logo" class="cls-5"><rect class="cls-4" x="9.05" y="66.91" width="272.51" height="53.26" rx="14.07" ry="14.07"/><path class="cls-3" d="M143.04,56.16c-20.65,0-37.38,16.74-37.38,37.38s16.74,37.38,37.38,37.38,37.38-16.74,37.38-37.38-16.74-37.38-37.38-37.38Zm-9.01,64.07c-14.72,0-26.66-11.93-26.66-26.66s11.93-26.66,26.66-26.66,26.66,11.93,26.66,26.66-11.93,26.66-26.66,26.66Z"/></g><g id="logo_tekst"><path class="cls-1" d="M18.99,80.69c1.56-.31,3.76-.54,6.85-.54s5.35,.69,6.85,2.07c1.43,1.3,2.39,3.45,2.39,5.98s-.73,4.68-2.06,6.14c-1.73,1.88-4.29,2.72-7.28,2.72-.67,0-1.26-.04-1.73-.12v9.24h-5.02v-25.5Zm5.02,11.73c.43,.11,.96,.15,1.7,.15,2.69,0,4.36-1.57,4.36-4.22,0-2.38-1.43-3.8-3.96-3.8-1.03,0-1.73,.12-2.09,.23v7.63Z"/><path class="cls-1" d="M54.37,80.34v9.93h8.35v-9.93h5.05v25.85h-5.05v-10.81h-8.35v10.81h-5.09v-25.85h5.09Z"/><path class="cls-1" d="M103.69,93c0,8.47-4.46,13.61-11.01,13.61s-10.54-5.79-10.54-13.15c0-7.75,4.29-13.54,10.91-13.54s10.64,5.94,10.64,13.08Zm-16.19,.34c0,5.06,2.06,8.63,5.45,8.63s5.39-3.76,5.39-8.78c0-4.64-1.93-8.63-5.42-8.63s-5.42,3.76-5.42,8.78Z"/><path class="cls-1" d="M117.99,80.69c1.33-.31,4.02-.54,6.55-.54,3.09,0,4.99,.35,6.62,1.46,1.56,.96,2.69,2.72,2.69,5.06s-1.16,4.45-3.69,5.52v.08c2.56,.81,4.46,3.03,4.46,6.37,0,2.34-.93,4.18-2.33,5.48-1.63,1.5-4.36,2.34-8.81,2.34-2.49,0-4.36-.19-5.49-.38v-25.38Zm5.02,9.89h1.66c2.66,0,4.09-1.27,4.09-3.18s-1.3-2.99-3.59-2.99c-1.1,0-1.73,.08-2.16,.15v6.02Zm0,11.47c.5,.08,1.1,.08,1.96,.08,2.29,0,4.32-1,4.32-3.72s-2.03-3.64-4.56-3.64h-1.73v7.29Z"/><path class="cls-1" d="M189.62,80.34h5.09v20.94h8.91v4.91h-14v-25.85Z"/><path class="cls-1" d="M236.83,93c0,8.47-4.46,13.61-11,13.61s-10.54-5.79-10.54-13.15c0-7.75,4.29-13.54,10.91-13.54s10.64,5.94,10.64,13.08Zm-16.19,.34c0,5.06,2.06,8.63,5.45,8.63s5.39-3.76,5.39-8.78c0-4.64-1.93-8.63-5.42-8.63s-5.42,3.76-5.42,8.78Z"/><path class="cls-1" d="M269.85,105c-1.56,.61-4.52,1.46-7.48,1.46-4.09,0-7.05-1.19-9.11-3.49-2.06-2.22-3.19-5.6-3.16-9.4,.03-8.59,5.45-13.5,12.8-13.5,2.89,0,5.12,.65,6.22,1.27l-1.06,4.68c-1.23-.61-2.76-1.11-5.22-1.11-4.22,0-7.42,2.76-7.42,8.36s2.89,8.48,7.05,8.48c1.16,0,2.09-.15,2.49-.38v-5.41h-3.46v-4.56h8.34v13.61Z"/></g></g></svg>