<?xml version="1.0" encoding="UTF-8"?><svg id="Layer_1" xmlns="http://www.w3.org/2000/svg" xmlns:xlink="http://www.w3.org/1999/xlink" viewBox="0 0 297.64 187.09"><defs><style>.cls-1,.cls-2,.cls-3,.cls-4{fill:#fff;}.cls-2{opacity:0;}.cls-3{stroke:#010101;stroke-miterlimit:10;stroke-width:1.13px;}.cls-5{filter:url(#drop-shadow-1);}.cls-4{filter:url(#drop-shadow-2);}.cls-6{fill:url(#linear-gradient);}</style><linearGradient id="linear-gradient" x1="4.5" y1="93.54" x2="293.14" y2="93.54" gradientTransform="matrix(1, 0, 0, 1, 0, 0)" gradientUnits="userSpaceOnUse"><stop offset="0" stop-color="#111226"/><stop offset=".06" stop-color="#111328"/><stop offset=".1" stop-color="#131631"/><stop offset=".14" stop-color="#161b40"/><stop offset=".17" stop-color="#1a2355"/><stop offset=".2" stop-color="#1f2d70"/><stop offset=".22" stop-color="#25378a"/><stop offset=".79" stop-color="#25378a"/><stop offset=".81" stop-color="#1f2c6e"/><stop offset=".84" stop-color="#1a2354"/><stop offset=".87" stop-color="#161b3f"/><stop offset=".9" stop-color="#131631"/><stop offset=".94" stop-color="#111228"/><stop offset="1" stop-color="#111226"/></linearGradient><filter id="drop-shadow-1" filterUnits="userSpaceOnUse"><feOffset dx="0" dy="0"/><feGaussianBlur result="blur" stdDeviation="6.38"/><feFlood flood-color="#fff" flood-opacity=".5"/><feComposite in2="blur" operator="in"/><feComposite in="SourceGraphic"/></filter><filter id="drop-shadow-2" filterUnits="userSpaceOnUse"><feOffset dx="-3" dy="3"/><feGaussianBlur result="blur-2" stdDeviation="2.25"/><feFlood flood-color="#fff" flood-opacity=".5"/><feComposite in2="blur-2" operator="in"/><feComposite in="SourceGraphic"/></filter></defs><rect class="cls-2" width="297.64" height="187.09"/><g id="LOGO"><g id="logo_niebieskie"><ellipse class="cls-3" cx="148.82" cy="93.54" rx="146.57" ry="23.02"/><path class="cls-6" d="M148.82,114.31c-39.04,0-75.72-2.38-103.29-6.71-32.39-5.09-41.03-11.23-41.03-14.05s8.64-8.97,41.03-14.05c27.57-4.33,64.25-6.71,103.29-6.71s75.72,2.38,103.29,6.71c32.39,5.09,41.03,11.23,41.03,14.05s-8.64,8.97-41.03,14.05c-27.57,4.33-64.25,6.71-103.29,6.71Z"/></g><g id="tekst_logo"><path class="cls-1" d="M49.75,97.4c.83,.51,2.05,.94,3.34,.94,1.9,0,3.02-1.01,3.02-2.46,0-1.35-.77-2.12-2.72-2.87-2.35-.83-3.81-2.05-3.81-4.09,0-2.25,1.86-3.92,4.66-3.92,1.48,0,2.55,.34,3.19,.71l-.51,1.52c-.47-.26-1.43-.68-2.74-.68-1.97,0-2.72,1.18-2.72,2.16,0,1.35,.88,2.01,2.87,2.78,2.44,.94,3.68,2.12,3.68,4.24,0,2.23-1.65,4.15-5.05,4.15-1.39,0-2.91-.41-3.68-.92l.47-1.56Z"/><path class="cls-1" d="M63.53,95.14l-1.5,4.54h-1.93l4.9-14.42h2.25l4.92,14.42h-1.99l-1.54-4.54h-5.11Zm4.73-1.46l-1.41-4.15c-.32-.94-.53-1.8-.75-2.63h-.04c-.21,.86-.45,1.73-.73,2.61l-1.41,4.17h4.34Z"/><path class="cls-1" d="M76.02,86.84h-4.39v-1.58h10.68v1.58h-4.41v12.84h-1.88v-12.84Z"/><path class="cls-1" d="M86.42,85.25v8.54c0,3.23,1.43,4.6,3.36,4.6,2.14,0,3.51-1.41,3.51-4.6v-8.54h1.88v8.41c0,4.43-2.33,6.25-5.46,6.25-2.95,0-5.18-1.69-5.18-6.16v-8.49h1.88Z"/><path class="cls-1" d="M99.04,85.45c.94-.19,2.29-.3,3.57-.3,1.99,0,3.27,.36,4.17,1.18,.73,.64,1.13,1.63,1.13,2.74,0,1.9-1.2,3.17-2.72,3.68v.06c1.11,.38,1.78,1.41,2.12,2.91,.47,2.01,.81,3.4,1.11,3.96h-1.93c-.24-.41-.56-1.65-.96-3.44-.43-1.99-1.2-2.74-2.89-2.8h-1.75v6.25h-1.86v-14.23Zm1.86,6.57h1.9c1.99,0,3.25-1.09,3.25-2.74,0-1.86-1.35-2.67-3.32-2.7-.9,0-1.54,.09-1.84,.17v5.26Z"/><path class="cls-1" d="M111.19,99.67v-14.42h2.03l4.62,7.29c1.07,1.69,1.9,3.21,2.59,4.69l.04-.02c-.17-1.93-.21-3.68-.21-5.93v-6.03h1.75v14.42h-1.88l-4.58-7.32c-1.01-1.6-1.97-3.25-2.7-4.81l-.06,.02c.11,1.82,.15,3.55,.15,5.95v6.16h-1.75Z"/><path class="cls-1" d="M172.24,97.4c.83,.51,2.05,.94,3.34,.94,1.9,0,3.02-1.01,3.02-2.46,0-1.35-.77-2.12-2.72-2.87-2.35-.83-3.81-2.05-3.81-4.09,0-2.25,1.86-3.92,4.66-3.92,1.48,0,2.55,.34,3.19,.71l-.51,1.52c-.47-.26-1.43-.68-2.74-.68-1.97,0-2.72,1.18-2.72,2.16,0,1.35,.88,2.01,2.87,2.78,2.44,.94,3.68,2.12,3.68,4.24,0,2.23-1.65,4.15-5.05,4.15-1.39,0-2.91-.41-3.68-.92l.47-1.56Z"/><path class="cls-1" d="M186.89,99.67v-6.12l-4.56-8.3h2.12l2.03,3.98c.56,1.09,.98,1.97,1.43,2.97h.04c.41-.94,.9-1.88,1.46-2.97l2.08-3.98h2.12l-4.83,8.28v6.14h-1.88Z"/><path class="cls-1" d="M195.36,97.4c.83,.51,2.05,.94,3.34,.94,1.9,0,3.02-1.01,3.02-2.46,0-1.35-.77-2.12-2.72-2.87-2.35-.83-3.81-2.05-3.81-4.09,0-2.25,1.86-3.92,4.66-3.92,1.48,0,2.55,.34,3.19,.71l-.51,1.52c-.47-.26-1.43-.68-2.74-.68-1.97,0-2.72,1.18-2.72,2.16,0,1.35,.88,2.01,2.87,2.78,2.44,.94,3.68,2.12,3.68,4.24,0,2.23-1.65,4.15-5.05,4.15-1.39,0-2.91-.41-3.68-.92l.47-1.56Z"/><path class="cls-1" d="M209.54,86.84h-4.39v-1.58h10.67v1.58h-4.41v12.84h-1.88v-12.84Z"/><path class="cls-1" d="M225.54,92.91h-5.6v5.2h6.25v1.56h-8.11v-14.42h7.79v1.56h-5.93v4.56h5.6v1.54Z"/><path class="cls-1" d="M241.4,93.34c-.11-2.01-.24-4.43-.21-6.23h-.06c-.49,1.69-1.09,3.49-1.82,5.48l-2.55,7h-1.41l-2.33-6.87c-.68-2.03-1.26-3.89-1.67-5.6h-.04c-.04,1.8-.15,4.21-.28,6.38l-.38,6.18h-1.78l1-14.42h2.38l2.46,6.97c.6,1.78,1.09,3.36,1.46,4.86h.06c.36-1.45,.88-3.04,1.52-4.86l2.57-6.97h2.38l.9,14.42h-1.82l-.36-6.33Z"/><path class="cls-1" d="M246.83,97.4c.83,.51,2.05,.94,3.34,.94,1.9,0,3.02-1.01,3.02-2.46,0-1.35-.77-2.12-2.72-2.87-2.35-.83-3.81-2.05-3.81-4.09,0-2.25,1.86-3.92,4.66-3.92,1.48,0,2.55,.34,3.19,.71l-.51,1.52c-.47-.26-1.43-.68-2.74-.68-1.97,0-2.72,1.18-2.72,2.16,0,1.35,.88,2.01,2.87,2.78,2.44,.94,3.68,2.12,3.68,4.24,0,2.23-1.65,4.15-5.05,4.15-1.39,0-2.91-.41-3.68-.92l.47-1.56Z"/></g><g id="logo_biale"><g id="logo_srodek" class="cls-5"><path class="cls-4" d="M149.13,87.6c-2.97,0-5.43,2.18-5.87,5.03,2.11-1.02,4.48-.85,5.98,.63,1.54,1.53,1.69,4,.58,6.17,2.95-.34,5.25-2.85,5.25-5.9,0-3.28-2.66-5.94-5.94-5.94Z"/><path class="cls-1" d="M149.13,78.41c-8.36,0-15.14,6.78-15.14,15.14,0,2.3,.51,4.47,1.43,6.42l5.84-5.89c.05-.05,.11-.1,.17-.15,0-.13-.02-.25-.02-.38,0-4.27,3.46-7.72,7.72-7.72s7.72,3.46,7.72,7.72-3.46,7.72-7.72,7.72c-.2,0-.4-.02-.6-.03l-.02,.02-5.9,5.95c1.97,.94,4.19,1.47,6.52,1.47,8.36,0,15.14-6.78,15.14-15.14s-6.78-15.14-15.14-15.14Z"/></g><g id="gwiazdki"><polygon class="cls-1" points="124.7 79.3 123.28 78.82 122.39 80.03 122.1 78.56 120.61 78.39 121.73 77.4 121.13 76.03 122.55 76.51 123.43 75.3 123.73 76.77 125.22 76.93 124.1 77.92 124.7 79.3"/><polygon class="cls-1" points="165.79 76.98 165.57 76.9 165.43 77.09 165.38 76.86 165.15 76.84 165.33 76.68 165.23 76.47 165.45 76.55 165.59 76.36 165.64 76.59 165.87 76.61 165.69 76.76 165.79 76.98"/><polygon class="cls-1" points="168.14 105.35 167.89 105.27 167.73 105.49 167.67 105.22 167.4 105.19 167.61 105.01 167.5 104.76 167.75 104.85 167.91 104.63 167.97 104.9 168.24 104.93 168.03 105.11 168.14 105.35"/><polygon class="cls-1" points="176.13 111.27 175.52 111.06 175.14 111.58 175.02 110.95 174.38 110.88 174.86 110.46 174.6 109.88 175.21 110.08 175.59 109.56 175.71 110.19 176.35 110.26 175.87 110.68 176.13 111.27"/><polygon class="cls-1" points="198.7 107.1 197.6 106.73 196.92 107.67 196.69 106.53 195.54 106.41 196.41 105.64 195.94 104.58 197.04 104.95 197.72 104.02 197.95 105.15 199.1 105.28 198.23 106.04 198.7 107.1"/><polygon class="cls-1" points="221.21 108.92 220.59 108.71 220.2 109.25 220.07 108.6 219.41 108.53 219.91 108.09 219.64 107.49 220.27 107.7 220.66 107.17 220.79 107.81 221.44 107.89 220.95 108.32 221.21 108.92"/><polygon class="cls-1" points="233.71 105.3 232.73 104.97 232.12 105.8 231.92 104.79 230.89 104.68 231.67 103.99 231.25 103.05 232.23 103.38 232.84 102.54 233.04 103.56 234.07 103.67 233.3 104.35 233.71 105.3"/><polygon class="cls-1" points="261.71 91.91 261.05 91.69 260.65 92.24 260.51 91.57 259.83 91.49 260.34 91.04 260.06 90.41 260.72 90.63 261.12 90.07 261.26 90.75 261.94 90.82 261.43 91.28 261.71 91.91"/><polygon class="cls-1" points="269.56 98.21 268.57 97.87 267.96 98.71 267.75 97.69 266.72 97.58 267.5 96.9 267.08 95.95 268.07 96.28 268.68 95.44 268.88 96.46 269.92 96.57 269.14 97.26 269.56 98.21"/><polygon class="cls-1" points="282.07 92.25 281.7 92.12 281.47 92.44 281.39 92.06 281 92.01 281.3 91.75 281.14 91.39 281.51 91.52 281.74 91.2 281.82 91.59 282.21 91.63 281.92 91.89 282.07 92.25"/><polygon class="cls-1" points="219.54 81.76 218.68 81.47 218.14 82.2 217.96 81.31 217.06 81.21 217.74 80.62 217.38 79.79 218.24 80.07 218.77 79.34 218.95 80.23 219.85 80.33 219.17 80.93 219.54 81.76"/><polygon class="cls-1" points="197.48 80.84 196.28 80.43 195.53 81.46 195.28 80.21 194.02 80.08 194.97 79.24 194.46 78.08 195.66 78.48 196.41 77.46 196.66 78.7 197.92 78.84 196.97 79.68 197.48 80.84"/><polygon class="cls-1" points="178.99 79.86 178.64 79.75 178.42 80.05 178.34 79.68 177.97 79.64 178.25 79.39 178.1 79.05 178.46 79.17 178.68 78.87 178.75 79.24 179.12 79.28 178.84 79.52 178.99 79.86"/><polygon class="cls-1" points="127.22 109.9 126 109.49 125.24 110.53 124.99 109.27 123.71 109.13 124.67 108.28 124.15 107.1 125.37 107.51 126.13 106.47 126.39 107.73 127.67 107.87 126.7 108.72 127.22 109.9"/><polygon class="cls-1" points="100.96 79.23 100.66 79.13 100.47 79.38 100.41 79.07 100.09 79.04 100.33 78.83 100.21 78.54 100.51 78.64 100.7 78.38 100.76 78.69 101.07 78.73 100.84 78.94 100.96 79.23"/><polygon class="cls-1" points="110.53 106.37 110.07 106.22 109.78 106.61 109.69 106.13 109.2 106.08 109.57 105.76 109.37 105.31 109.83 105.47 110.12 105.07 110.22 105.55 110.7 105.6 110.34 105.93 110.53 106.37"/><polygon class="cls-1" points="129.77 102.22 129.41 102.1 129.18 102.41 129.11 102.04 128.72 101.99 129.01 101.74 128.86 101.39 129.22 101.51 129.45 101.2 129.52 101.58 129.91 101.62 129.62 101.87 129.77 102.22"/><polygon class="cls-1" points="100.96 106.66 100.66 106.56 100.47 106.82 100.41 106.5 100.1 106.47 100.33 106.26 100.21 105.97 100.51 106.07 100.69 105.81 100.76 106.13 101.07 106.16 100.84 106.37 100.96 106.66"/><polygon class="cls-1" points="90.48 89.75 90.16 89.65 89.96 89.92 89.89 89.59 89.56 89.55 89.81 89.33 89.68 89.03 89.99 89.13 90.19 88.86 90.26 89.19 90.59 89.23 90.34 89.45 90.48 89.75"/><polygon class="cls-1" points="75.01 107.38 74.08 107.06 73.51 107.85 73.31 106.9 72.34 106.79 73.08 106.15 72.68 105.25 73.61 105.56 74.18 104.78 74.38 105.73 75.35 105.84 74.61 106.48 75.01 107.38"/><polygon class="cls-1" points="72.18 81.36 71.67 81.18 71.35 81.62 71.24 81.09 70.71 81.03 71.11 80.68 70.9 80.19 71.41 80.36 71.72 79.93 71.83 80.45 72.36 80.51 71.96 80.87 72.18 81.36"/><polygon class="cls-1" points="39.32 100.32 38.55 100.06 38.07 100.72 37.91 99.92 37.11 99.84 37.72 99.3 37.39 98.56 38.16 98.82 38.64 98.17 38.8 98.96 39.6 99.05 38.99 99.58 39.32 100.32"/><polygon class="cls-1" points="44.37 89.53 43.74 89.32 43.36 89.85 43.23 89.2 42.57 89.13 43.06 88.7 42.8 88.09 43.42 88.3 43.81 87.77 43.94 88.42 44.6 88.49 44.1 88.93 44.37 89.53"/><polygon class="cls-1" points="24.13 97.61 23.66 97.45 23.37 97.85 23.28 97.37 22.79 97.31 23.16 96.99 22.96 96.54 23.43 96.7 23.71 96.31 23.81 96.78 24.3 96.84 23.93 97.16 24.13 97.61"/><polygon class="cls-1" points="15.54 92.76 15.18 92.64 14.96 92.94 14.88 92.57 14.5 92.53 14.79 92.28 14.64 91.93 14.99 92.05 15.22 91.75 15.29 92.12 15.67 92.16 15.39 92.41 15.54 92.76"/><polygon class="cls-1" points="32.52 89.12 31.79 88.87 31.33 89.5 31.18 88.74 30.41 88.65 30.99 88.14 30.68 87.43 31.41 87.68 31.87 87.05 32.02 87.81 32.79 87.9 32.21 88.41 32.52 89.12"/></g></g></g></svg>