<?xml version="1.0" encoding="UTF-8"?><svg id="Layer_1" xmlns="http://www.w3.org/2000/svg" xmlns:xlink="http://www.w3.org/1999/xlink" viewBox="0 0 297.6 193.2"><defs><style>.cls-1{fill:#fff;opacity:0;}.cls-2{fill:url(#linear-gradient);filter:url(#drop-shadow-1);}.cls-3{fill:url(#linear-gradient-2);filter:url(#drop-shadow-2);}</style><linearGradient id="linear-gradient" x1="198.41" y1="122.82" x2="99.35" y2="23.77" gradientTransform="matrix(1, 0, 0, 1, 0, 0)" gradientUnits="userSpaceOnUse"><stop offset="0" stop-color="#a91700"/><stop offset=".5" stop-color="#a91700"/><stop offset=".5" stop-color="#ff6b2a"/><stop offset="1" stop-color="#ff6b2a"/></linearGradient><filter id="drop-shadow-1" filterUnits="userSpaceOnUse"><feOffset dx="4.37" dy="4.37"/><feGaussianBlur result="blur" stdDeviation="8.73"/><feFlood flood-color="#000" flood-opacity=".8"/><feComposite in2="blur" operator="in"/><feComposite in="SourceGraphic"/></filter><linearGradient id="linear-gradient-2" x1="148.88" y1="119.37" x2="148.88" y2="27.22" gradientTransform="matrix(1, 0, 0, 1, 0, 0)" gradientUnits="userSpaceOnUse"><stop offset="0" stop-color="#ffa37f"/><stop offset=".02" stop-color="#fe966c"/><stop offset=".04" stop-color="#fd824e"/><stop offset=".07" stop-color="#fd7439"/><stop offset=".1" stop-color="#fd6b2d"/><stop offset=".13" stop-color="#fd6929"/><stop offset=".3" stop-color="#f76426"/><stop offset=".5" stop-color="#e9551f"/><stop offset=".73" stop-color="#d13e13"/><stop offset=".96" stop-color="#af1d03"/><stop offset="1" stop-color="#a91700"/></linearGradient><filter id="drop-shadow-2" filterUnits="userSpaceOnUse"><feOffset dx="4.37" dy="4.37"/><feGaussianBlur result="blur-2" stdDeviation="8.73"/><feFlood flood-color="#000" flood-opacity=".8"/><feComposite in2="blur-2" operator="in"/><feComposite in="SourceGraphic"/></filter></defs><rect class="cls-1" y="6.1" width="297.6" height="187.1"/><g id="LOGO"><g id="tekst_logo"><path d="M77.52,142.38h-7.46v-3.48h21.35v3.48h-7.58v14.85h-6.31v-14.85Z"/><path d="M101.06,138.89v7.05h10.34v-7.05h6.26v18.34h-6.26v-7.67h-10.34v7.67h-6.31v-18.34h6.31Z"/><path d="M129.62,152.52l-1.98,4.71h-6.51l8.49-18.34h8.24l8.61,18.34h-6.76l-2.14-4.71h-7.95Zm7.05-3.1l-1.73-3.89c-.49-1.09-.99-2.45-1.4-3.54h-.08c-.41,1.09-.82,2.48-1.28,3.54l-1.65,3.89h6.14Z"/><path d="M150.18,139.14c2.02-.22,5.03-.38,8.37-.38,4.12,0,7.01,.41,8.98,1.44,1.65,.87,2.56,2.15,2.56,3.84,0,2.34-2.51,3.95-4.9,4.52v.08c1.94,.52,3.01,1.74,3.71,3.43,.87,2.07,1.73,4.46,2.27,5.17h-6.43c-.45-.52-1.11-2.01-1.94-4.27-.74-2.29-1.94-2.91-4.49-2.94h-1.9v7.21h-6.22v-18.09Zm6.22,7.89h2.47c3.13,0,4.99-1.03,4.99-2.64,0-1.69-1.73-2.53-4.62-2.56-1.53,0-2.39,.08-2.84,.14v5.06Z"/><path d="M174.83,152.96c1.69,.57,4.29,1.14,6.97,1.14,2.88,0,4.41-.79,4.41-1.99s-1.32-1.79-4.66-2.58c-4.62-1.06-7.62-2.75-7.62-5.41,0-3.13,3.96-5.52,10.51-5.52,3.13,0,5.44,.44,7.09,.93l-1.4,3.35c-1.11-.35-3.09-.87-5.81-.87s-4.04,.82-4.04,1.77c0,1.17,1.57,1.69,5.15,2.58,4.9,1.2,7.21,2.88,7.21,5.47,0,3.07-3.58,5.69-11.21,5.69-3.17,0-6.31-.54-7.87-1.12l1.28-3.43Z"/><path d="M203.18,138.89v18.34h-6.31v-18.34h6.31Z"/><path d="M208.83,152.96c1.69,.57,4.29,1.14,6.97,1.14,2.88,0,4.41-.79,4.41-1.99s-1.32-1.79-4.66-2.58c-4.62-1.06-7.62-2.75-7.62-5.41,0-3.13,3.96-5.52,10.51-5.52,3.13,0,5.44,.44,7.09,.93l-1.4,3.35c-1.11-.35-3.09-.87-5.81-.87s-4.04,.82-4.04,1.77c0,1.17,1.57,1.69,5.15,2.58,4.9,1.2,7.21,2.88,7.21,5.47,0,3.07-3.59,5.69-11.21,5.69-3.17,0-6.31-.54-7.87-1.12l1.28-3.43Z"/><path d="M61.16,163.88c2.02-.22,5.03-.38,8.37-.38,4.12,0,7.01,.41,8.98,1.44,1.65,.87,2.56,2.15,2.56,3.84,0,2.34-2.51,3.95-4.9,4.52v.08c1.94,.52,3.01,1.74,3.71,3.43,.87,2.07,1.73,4.46,2.27,5.17h-6.43c-.45-.52-1.11-2.01-1.94-4.27-.74-2.29-1.94-2.91-4.49-2.94h-1.9v7.21h-6.22v-18.09Zm6.22,7.89h2.47c3.13,0,4.99-1.03,4.99-2.64,0-1.69-1.73-2.53-4.62-2.56-1.52,0-2.39,.08-2.84,.14v5.06Z"/><path d="M102.13,174.22h-10.22v4.35h11.42v3.4h-17.72v-18.34h17.15v3.4h-10.84v3.81h10.22v3.37Z"/><path d="M107.61,163.88c1.94-.22,4.66-.38,8.49-.38s6.64,.49,8.49,1.47c1.77,.92,2.97,2.45,2.97,4.24s-.91,3.32-2.56,4.35c-2.14,1.33-5.32,1.93-9.03,1.93-.82,0-1.57-.03-2.14-.08v6.56h-6.22v-18.09Zm6.22,8.32c.54,.08,1.2,.11,2.1,.11,3.34,0,5.4-1.12,5.4-2.99,0-1.69-1.77-2.69-4.9-2.69-1.28,0-2.14,.08-2.6,.16v5.41Z"/><path d="M137.82,163.64v10.56c0,3.16,1.81,4.76,5.03,4.76s5.11-1.52,5.11-4.76v-10.56h6.27v10.28c0,5.66-4.33,8.35-11.58,8.35s-11.13-2.56-11.13-8.41v-10.23h6.31Z"/><path d="M159.66,163.88c1.65-.22,4.99-.38,8.12-.38,3.83,0,6.18,.25,8.2,1.03,1.94,.68,3.34,1.93,3.34,3.59s-1.44,3.16-4.57,3.92v.05c3.17,.57,5.52,2.15,5.52,4.52,0,1.66-1.15,2.96-2.88,3.89-2.02,1.06-5.4,1.66-10.92,1.66-3.09,0-5.4-.14-6.8-.27v-18.01Zm6.22,7.02h2.06c3.3,0,5.07-.9,5.07-2.26s-1.61-2.12-4.45-2.12c-1.36,0-2.14,.05-2.68,.11v4.27Zm0,8.13c.62,.05,1.36,.05,2.43,.05,2.84,0,5.36-.71,5.36-2.64s-2.51-2.58-5.65-2.58h-2.14v5.17Z"/><path d="M184.55,163.64h6.31v14.85h11.05v3.48h-17.35v-18.34Z"/><path d="M211.92,163.64v18.34h-6.31v-18.34h6.31Z"/><path d="M237.76,181.46c-1.15,.38-3.75,.79-7.13,.79-9.6,0-14.55-3.95-14.55-9.17,0-6.26,6.76-9.74,15.17-9.74,3.26,0,5.73,.44,6.84,.82l-1.28,3.29c-1.28-.35-3.05-.68-5.28-.68-4.99,0-8.86,1.99-8.86,6.07,0,3.67,3.3,5.99,8.9,5.99,1.9,0,4-.27,5.23-.6l.95,3.24Z"/></g><g id="logo"><rect class="cls-2" x="98.19" y="22.52" width="101.39" height="101.55" rx="4.12" ry="4.12"/><rect class="cls-3" x="102.87" y="27.22" width="92.01" height="92.16" rx="3.74" ry="3.74"/><polygon points="105.42 79.29 131.94 33.36 158.46 79.29 105.42 79.29"/><polygon points="151.83 90.76 165.07 67.83 178.31 90.76 151.83 90.76"/><polygon points="165.07 67.79 178.31 44.86 191.55 67.79 165.07 67.79"/><polygon points="138.59 113.69 151.83 90.76 165.07 113.69 138.59 113.69"/></g></g></svg>