<?xml version="1.0" encoding="UTF-8"?><svg id="Layer_1" xmlns="http://www.w3.org/2000/svg" xmlns:xlink="http://www.w3.org/1999/xlink" viewBox="0 0 297.64 187.09"><defs><style>.cls-1{fill:#be1823;stroke-linejoin:round;}.cls-1,.cls-2,.cls-3{stroke:#010101;stroke-width:.86px;}.cls-4{opacity:0;}.cls-4,.cls-2{fill:#fff;}.cls-5{filter:url(#drop-shadow-1);}.cls-2,.cls-3{stroke-miterlimit:10;}.cls-3{fill:#302d7e;}.cls-6{fill:#010101;}</style><filter id="drop-shadow-1" filterUnits="userSpaceOnUse"><feOffset dx="4.88" dy="4.88"/><feGaussianBlur result="blur" stdDeviation="5.17"/><feFlood flood-color="#010101" flood-opacity=".9"/><feComposite in2="blur" operator="in"/><feComposite in="SourceGraphic"/></filter></defs><rect class="cls-4" width="297.64" height="187.09"/><g id="LOGO" class="cls-5"><g id="logo_tekst"><path class="cls-6" d="M108.03,87.41h-4.55v15.77h-2.81v-15.77h-4.55v-2.85h11.91v2.85Z"/><path class="cls-6" d="M133.79,84.57v18.62h-2.82v-8.14h-7.08v8.14h-2.82v-18.62h2.82v8.01h7.08v-8.01h2.82Z"/><path class="cls-6" d="M162.6,93.88c0,1.36-.18,2.63-.55,3.79s-.88,2.17-1.55,3.02-1.47,1.51-2.41,1.99c-.94,.48-1.98,.71-3.13,.71s-2.18-.24-3.12-.71c-.94-.48-1.74-1.14-2.41-1.99-.67-.85-1.19-1.86-1.56-3.02-.37-1.16-.55-2.43-.55-3.79s.18-2.63,.55-3.79c.37-1.16,.89-2.17,1.56-3.02,.67-.85,1.48-1.51,2.41-1.99,.94-.48,1.98-.71,3.12-.71,.77,0,1.48,.11,2.16,.33,.67,.22,1.29,.53,1.86,.93,.56,.4,1.07,.88,1.52,1.45s.83,1.21,1.14,1.91,.55,1.47,.71,2.29c.16,.82,.24,1.69,.24,2.6Zm-2.87,0c0-1.02-.11-1.94-.33-2.75s-.54-1.5-.95-2.07-.91-1-1.5-1.3c-.59-.3-1.25-.45-1.99-.45s-1.4,.15-1.99,.45-1.09,.73-1.5,1.3-.73,1.26-.96,2.07-.33,1.73-.33,2.75,.11,1.94,.33,2.75c.22,.81,.54,1.5,.96,2.06,.41,.56,.91,.99,1.5,1.29,.59,.3,1.25,.45,1.99,.45s1.4-.15,1.99-.45c.59-.3,1.09-.73,1.5-1.29,.41-.56,.73-1.25,.95-2.06,.22-.81,.33-1.73,.33-2.75Z"/><path class="cls-6" d="M187.91,103.18h-2.54c-.48,0-.83-.23-1.04-.7l-3.17-5.96c-.12-.22-.25-.38-.39-.48-.14-.09-.35-.14-.63-.14h-1.2v7.27h-2.81v-18.62h4.6c1.02,0,1.9,.13,2.63,.39,.73,.26,1.34,.63,1.8,1.1,.47,.47,.82,1.04,1.04,1.69,.22,.66,.33,1.38,.33,2.17,0,.63-.08,1.22-.22,1.78-.15,.56-.37,1.06-.65,1.52-.28,.46-.63,.85-1.04,1.2-.41,.34-.89,.61-1.41,.81,.18,.13,.35,.28,.5,.46,.15,.18,.29,.38,.42,.62l3.78,6.88Zm-7.22-9.76c.53,0,.99-.08,1.38-.24s.72-.39,.97-.68,.44-.63,.57-1.02c.12-.39,.19-.83,.19-1.3,0-.94-.25-1.67-.76-2.18-.5-.51-1.28-.76-2.31-.76h-1.79v6.18h1.75Z"/><path class="cls-6" d="M212.84,93.85v7.53c-.76,.7-1.58,1.2-2.45,1.53-.87,.32-1.79,.48-2.78,.48-1.23,0-2.35-.24-3.34-.71s-1.85-1.13-2.56-1.97c-.71-.84-1.25-1.85-1.63-3.01-.38-1.17-.57-2.44-.57-3.82s.18-2.68,.55-3.85c.37-1.17,.89-2.17,1.57-3.01,.68-.84,1.5-1.49,2.47-1.96,.97-.46,2.05-.7,3.25-.7,.61,0,1.18,.06,1.72,.18s1.03,.29,1.48,.5,.87,.47,1.25,.77,.72,.63,1.03,.99l-.8,1.57c-.12,.25-.29,.4-.49,.46-.2,.06-.42,0-.66-.19-.23-.16-.46-.33-.69-.49-.23-.16-.48-.3-.77-.42-.28-.12-.6-.22-.95-.3-.35-.08-.76-.12-1.22-.12-.74,0-1.42,.15-2.02,.46-.6,.31-1.12,.75-1.54,1.33-.42,.58-.75,1.27-.98,2.07-.23,.81-.34,1.71-.34,2.7,0,1.06,.12,2.01,.37,2.85s.59,1.54,1.04,2.12c.45,.58,.99,1.02,1.62,1.33s1.34,.46,2.12,.46c.56,0,1.05-.07,1.49-.22,.44-.15,.87-.34,1.28-.59v-3.37h-1.9c-.18,0-.32-.06-.42-.19-.1-.12-.15-.28-.15-.46v-1.96h5.01Z"/><path class="cls-6" d="M239.36,103.18h-2.17c-.24,0-.44-.08-.59-.23-.15-.15-.27-.34-.34-.56l-1.13-3.8h-6.25l-1.13,3.8c-.06,.2-.16,.38-.32,.54s-.36,.24-.59,.24h-2.19l5.94-18.62h2.86l5.93,18.62Zm-4.96-7.03l-1.84-6.19c-.09-.27-.18-.6-.28-.98-.1-.38-.19-.79-.29-1.22-.09,.44-.18,.85-.28,1.23-.1,.38-.19,.71-.28,1l-1.83,6.17h4.8Z"/><path class="cls-6" d="M261.06,87.41h-4.55v15.77h-2.81v-15.77h-4.55v-2.85h11.91v2.85Z"/><path class="cls-6" d="M276.92,87.32v5.16h5.28v2.67h-5.28v5.27h6.7v2.77h-9.52v-18.62h9.52v2.75h-6.7Z"/></g><g id="logo"><g><polygon class="cls-1" points="16.29 103.18 16.29 83.38 40.12 74.29 8.16 74.29 8.16 111.99 39.95 111.99 16.29 103.18"/><polygon class="cls-1" points="56.79 74.29 79.93 83.38 79.93 103.18 56.54 111.99 88.06 111.99 88.06 74.29 56.79 74.29"/></g><polygon class="cls-3" points="34.19 89.26 43.18 97.44 40.12 108.16 21.17 101.46 21.17 84.91 44.71 76.77 34.19 89.26"/><polygon class="cls-3" points="51.12 109.93 75.05 101.65 75.05 85 55.67 78.21 52.18 89.79 61.31 98.13 51.12 109.93"/><polygon class="cls-2" points="40.36 117.49 57.73 97.78 49.04 89.98 55.05 69.6 37.73 89.45 46.34 97.35 40.36 117.49"/></g></g></svg>