<?xml version="1.0" encoding="UTF-8"?><svg id="Layer_1" xmlns="http://www.w3.org/2000/svg" xmlns:xlink="http://www.w3.org/1999/xlink" viewBox="0 0 297.64 196.08"><defs><style>.cls-1,.cls-2{fill:#fff;}.cls-2{opacity:0;}.cls-3{filter:url(#drop-shadow-1);}.cls-3,.cls-4{fill:#3abff0;}.cls-5{stroke-width:1.64px;}.cls-5,.cls-6{fill:none;stroke:#fff;stroke-miterlimit:10;}.cls-6{stroke-width:4.26px;}</style><filter id="drop-shadow-1" filterUnits="userSpaceOnUse"><feOffset dx="4.92" dy="4.92"/><feGaussianBlur result="blur" stdDeviation="5.9"/><feFlood flood-color="#010101" flood-opacity=".75"/><feComposite in2="blur" operator="in"/><feComposite in="SourceGraphic"/></filter></defs><rect class="cls-2" y="1.46" width="297.64" height="187.09"/><g id="LOGO"><polygon id="tlo" class="cls-3" points="197.25 12.86 100.39 12.86 100.39 173.15 149.07 162.66 197.25 173.15 197.25 12.86"/><g id="logo_teksty"><g><path class="cls-1" d="M124.77,106.67c.3,0,.56-.05,.79-.15s.43-.24,.59-.42,.28-.39,.37-.65c.08-.25,.13-.54,.13-.85v-4.93h1.53v4.93c0,.49-.08,.94-.24,1.36-.16,.42-.38,.77-.68,1.08s-.65,.54-1.07,.71c-.42,.17-.9,.25-1.42,.25s-1.01-.08-1.43-.25-.78-.4-1.07-.71-.52-.66-.68-1.08c-.16-.42-.24-.87-.24-1.36v-4.93h1.53v4.92c0,.32,.04,.6,.13,.85,.09,.25,.21,.47,.37,.65,.16,.18,.36,.32,.59,.42s.5,.15,.79,.15Z"/><path class="cls-1" d="M139.58,99.67v8.23h-.79c-.12,0-.22-.02-.3-.06s-.16-.11-.24-.2l-4.3-5.49c.02,.25,.03,.48,.03,.69v5.05h-1.35v-8.23h.8c.06,0,.12,0,.17,0,.05,0,.09,.02,.12,.03,.04,.02,.07,.04,.11,.07s.07,.08,.11,.13l4.31,5.51c-.01-.13-.02-.26-.03-.39,0-.13-.01-.25-.01-.36v-5h1.35Z"/><path class="cls-1" d="M145.68,107.9h-1.54v-8.23h1.54v8.23Z"/><path class="cls-1" d="M155.99,100.93h-2.48v6.97h-1.53v-6.97h-2.48v-1.26h6.49v1.26Z"/><path class="cls-1" d="M161.34,100.89v2.28h2.88v1.18h-2.88v2.33h3.65v1.22h-5.19v-8.23h5.19v1.22h-3.65Z"/><path class="cls-1" d="M176.38,103.79c0,.6-.1,1.16-.3,1.66s-.48,.94-.85,1.3-.8,.65-1.31,.85-1.08,.3-1.71,.3h-3.13v-8.23h3.13c.63,0,1.2,.1,1.71,.3s.95,.49,1.31,.85,.65,.8,.85,1.3,.3,1.06,.3,1.66Zm-1.57,0c0-.45-.06-.86-.18-1.22-.12-.36-.29-.66-.52-.91-.23-.25-.5-.44-.82-.57s-.68-.2-1.08-.2h-1.6v5.79h1.6c.4,0,.76-.07,1.08-.2s.59-.32,.82-.57c.23-.25,.4-.55,.52-.91,.12-.36,.18-.76,.18-1.21Z"/></g><g><path class="cls-1" d="M128.4,113.77v8.23h-.79c-.12,0-.22-.02-.3-.06s-.16-.11-.24-.2l-4.3-5.49c.02,.25,.03,.48,.03,.69v5.05h-1.35v-8.23h.8c.06,0,.12,0,.17,0,.05,0,.09,.02,.12,.03,.04,.02,.07,.04,.11,.07s.07,.08,.11,.13l4.31,5.51c-.01-.13-.02-.26-.03-.39,0-.13-.01-.25-.01-.36v-5h1.35Z"/><path class="cls-1" d="M138.13,122h-1.18c-.13,0-.24-.03-.32-.1s-.15-.15-.19-.25l-.61-1.68h-3.41l-.61,1.68c-.03,.09-.09,.17-.18,.24s-.2,.11-.32,.11h-1.19l3.24-8.23h1.56l3.23,8.23Zm-2.7-3.11l-1-2.74c-.05-.12-.1-.27-.15-.43s-.11-.35-.16-.54c-.05,.19-.1,.38-.15,.54s-.1,.32-.15,.44l-1,2.73h2.62Z"/><path class="cls-1" d="M144.78,115.03h-2.48v6.97h-1.53v-6.97h-2.48v-1.26h6.49v1.26Z"/><path class="cls-1" d="M148.25,122h-1.54v-8.23h1.54v8.23Z"/><path class="cls-1" d="M158.79,117.89c0,.6-.1,1.16-.3,1.68-.2,.51-.48,.96-.84,1.33s-.8,.67-1.31,.88c-.51,.21-1.08,.32-1.71,.32s-1.19-.11-1.7-.32c-.51-.21-.95-.5-1.32-.88s-.65-.82-.85-1.33c-.2-.51-.3-1.07-.3-1.68s.1-1.16,.3-1.68c.2-.51,.48-.96,.85-1.33s.8-.67,1.32-.88c.51-.21,1.08-.32,1.7-.32,.42,0,.81,.05,1.18,.15,.37,.1,.71,.23,1.01,.41,.31,.18,.58,.39,.83,.64,.25,.25,.45,.53,.62,.85,.17,.31,.3,.65,.39,1.01,.09,.36,.13,.75,.13,1.15Zm-1.56,0c0-.45-.06-.86-.18-1.22-.12-.36-.29-.66-.52-.91-.22-.25-.5-.44-.82-.58-.32-.13-.68-.2-1.08-.2s-.76,.07-1.08,.2c-.32,.13-.59,.32-.82,.58-.23,.25-.4,.55-.52,.91-.12,.36-.18,.76-.18,1.22s.06,.86,.18,1.21c.12,.36,.29,.66,.52,.91,.23,.25,.5,.44,.82,.57,.32,.13,.68,.2,1.08,.2s.76-.07,1.08-.2c.32-.13,.59-.32,.82-.57,.22-.25,.4-.55,.52-.91,.12-.36,.18-.76,.18-1.21Z"/><path class="cls-1" d="M167.93,113.77v8.23h-.79c-.12,0-.22-.02-.3-.06-.08-.04-.16-.11-.24-.2l-4.3-5.49c.02,.25,.03,.48,.03,.69v5.05h-1.35v-8.23h.8c.06,0,.12,0,.17,0,.05,0,.09,.02,.13,.03,.04,.02,.07,.04,.1,.07s.07,.08,.11,.13l4.31,5.51c-.01-.13-.02-.26-.03-.39s-.01-.25-.01-.36v-5h1.35Z"/><path class="cls-1" d="M174.99,115.27c-.04,.08-.09,.14-.14,.17-.05,.04-.12,.05-.19,.05s-.17-.03-.26-.09-.2-.12-.33-.2-.28-.14-.45-.2-.38-.09-.61-.09c-.21,0-.4,.03-.56,.08-.16,.05-.29,.12-.4,.21-.11,.09-.19,.2-.24,.33-.05,.13-.08,.27-.08,.42,0,.19,.05,.35,.16,.48s.25,.24,.43,.33,.38,.17,.61,.25,.46,.15,.7,.23c.24,.08,.47,.18,.7,.28s.43,.25,.61,.41,.32,.37,.43,.61c.11,.24,.16,.53,.16,.87,0,.37-.06,.72-.19,1.04s-.31,.61-.56,.85c-.25,.24-.54,.43-.9,.57-.35,.14-.76,.21-1.21,.21-.26,0-.52-.03-.77-.08-.25-.05-.5-.12-.73-.22s-.45-.21-.66-.34c-.2-.13-.39-.28-.55-.44l.45-.73c.04-.05,.09-.1,.15-.13s.12-.05,.19-.05c.09,0,.2,.04,.31,.12,.11,.08,.24,.16,.39,.26,.15,.09,.33,.18,.53,.26,.2,.08,.45,.12,.73,.12,.44,0,.77-.1,1.01-.31s.36-.5,.36-.89c0-.22-.05-.39-.16-.53s-.25-.25-.43-.34c-.18-.09-.38-.17-.61-.24s-.46-.13-.69-.21c-.24-.08-.47-.17-.69-.27s-.43-.25-.61-.42c-.18-.17-.32-.38-.43-.64-.11-.26-.16-.57-.16-.95,0-.3,.06-.59,.18-.88,.12-.28,.29-.54,.52-.76,.23-.22,.51-.4,.84-.53,.33-.13,.72-.2,1.15-.2,.49,0,.93,.08,1.34,.23,.41,.15,.76,.36,1.05,.64l-.38,.72Z"/></g><g><path class="cls-1" d="M130.38,127.86v8.23h-1.35v-5.32c0-.21,.01-.44,.03-.69l-2.49,4.67c-.12,.22-.3,.34-.54,.34h-.22c-.24,0-.42-.11-.54-.34l-2.51-4.69c.01,.12,.02,.25,.03,.37,0,.12,.01,.23,.01,.34v5.32h-1.35v-8.23h1.15c.07,0,.13,0,.18,0s.09,.01,.13,.03c.04,.02,.08,.04,.11,.07s.06,.08,.09,.14l2.46,4.57c.06,.12,.12,.25,.18,.38,.05,.13,.11,.26,.16,.4,.05-.14,.11-.28,.17-.41,.06-.13,.12-.26,.18-.38l2.43-4.56c.03-.06,.06-.1,.1-.14s.07-.06,.11-.07c.04-.01,.08-.02,.13-.03s.11,0,.18,0h1.16Z"/><path class="cls-1" d="M147.29,136.1h-1.18c-.13,0-.24-.03-.32-.1s-.15-.15-.19-.25l-.61-1.68h-3.41l-.61,1.68c-.03,.09-.09,.17-.18,.24s-.2,.11-.32,.11h-1.19l3.24-8.23h1.56l3.23,8.23Zm-2.7-3.11l-1-2.74c-.05-.12-.1-.27-.15-.43s-.11-.35-.16-.54c-.05,.19-.1,.38-.15,.54s-.1,.32-.15,.44l-1,2.73h2.62Z"/><path class="cls-1" d="M162.59,136.1h-1.38c-.26,0-.45-.1-.57-.31l-1.73-2.64c-.06-.1-.14-.17-.21-.21-.08-.04-.19-.06-.34-.06h-.65v3.22h-1.53v-8.23h2.51c.56,0,1.04,.06,1.44,.17,.4,.12,.73,.28,.98,.49,.26,.21,.45,.46,.57,.75s.18,.61,.18,.96c0,.28-.04,.54-.12,.79-.08,.25-.2,.47-.35,.67s-.34,.38-.57,.53c-.23,.15-.48,.27-.77,.36,.1,.06,.19,.12,.27,.2,.08,.08,.16,.17,.23,.28l2.06,3.04Zm-3.94-4.31c.29,0,.54-.04,.75-.11s.39-.17,.53-.3,.24-.28,.31-.45c.07-.17,.1-.37,.1-.58,0-.42-.14-.74-.41-.96-.28-.22-.7-.34-1.26-.34h-.98v2.73h.96Z"/><path class="cls-1" d="M175.88,129.36c-.04,.08-.09,.14-.14,.17-.05,.04-.12,.05-.19,.05s-.17-.03-.26-.09-.2-.12-.33-.2-.28-.14-.45-.2-.38-.09-.61-.09c-.21,0-.4,.03-.56,.08-.16,.05-.29,.12-.4,.21-.11,.09-.19,.2-.24,.33-.05,.13-.08,.27-.08,.42,0,.19,.05,.35,.16,.48s.25,.24,.43,.33,.38,.17,.61,.25,.46,.15,.7,.23c.24,.08,.47,.18,.7,.28s.43,.25,.61,.41,.32,.37,.43,.61c.11,.24,.16,.53,.16,.87,0,.37-.06,.72-.19,1.04s-.31,.61-.56,.85c-.25,.24-.54,.43-.9,.57-.35,.14-.76,.21-1.21,.21-.26,0-.52-.03-.77-.08-.25-.05-.5-.12-.73-.22s-.45-.21-.66-.34c-.2-.13-.39-.28-.55-.44l.45-.73c.04-.05,.09-.1,.15-.13s.12-.05,.19-.05c.09,0,.2,.04,.31,.12,.11,.08,.24,.16,.39,.26,.15,.09,.33,.18,.53,.26,.2,.08,.45,.12,.73,.12,.44,0,.77-.1,1.01-.31s.36-.5,.36-.89c0-.22-.05-.39-.16-.53s-.25-.25-.43-.34c-.18-.09-.38-.17-.61-.24s-.46-.13-.69-.21c-.24-.08-.47-.17-.69-.27s-.43-.25-.61-.42c-.18-.17-.32-.38-.43-.64-.11-.26-.16-.57-.16-.95,0-.3,.06-.59,.18-.88,.12-.28,.29-.54,.52-.76,.23-.22,.51-.4,.84-.53,.33-.13,.72-.2,1.15-.2,.49,0,.93,.08,1.34,.23,.41,.15,.76,.36,1.05,.64l-.38,.72Z"/></g><g><path class="cls-1" d="M123,150.52h-1.54v-8.23h1.54v8.23Z"/><path class="cls-1" d="M131.57,142.29v8.23h-.79c-.12,0-.22-.02-.3-.06s-.16-.11-.24-.2l-4.3-5.49c.02,.25,.03,.48,.03,.69v5.05h-1.35v-8.23h.8c.06,0,.12,0,.17,0,.05,0,.09,.02,.12,.03,.04,.02,.07,.04,.11,.07s.07,.08,.11,.13l4.31,5.51c-.01-.13-.02-.26-.03-.39,0-.13-.01-.25-.01-.36v-5h1.35Z"/><path class="cls-1" d="M134.73,150.52h-1.54v-8.23h1.54v8.23Z"/><path class="cls-1" d="M142.11,143.55h-2.48v6.97h-1.53v-6.97h-2.48v-1.26h6.49v1.26Z"/><path class="cls-1" d="M144.52,150.52h-1.54v-8.23h1.54v8.23Z"/><path class="cls-1" d="M153.2,150.52h-1.18c-.13,0-.24-.03-.32-.1-.08-.07-.15-.15-.19-.25l-.61-1.68h-3.41l-.61,1.68c-.03,.09-.09,.17-.18,.24s-.2,.11-.32,.11h-1.19l3.24-8.23h1.56l3.23,8.23Zm-2.7-3.11l-1-2.74c-.05-.12-.1-.27-.15-.43s-.11-.35-.16-.54c-.05,.19-.1,.38-.15,.54s-.1,.32-.15,.44l-1,2.73h2.62Z"/><path class="cls-1" d="M158.8,143.55h-2.48v6.97h-1.53v-6.97h-2.48v-1.26h6.49v1.26Z"/><path class="cls-1" d="M161.21,150.52h-1.54v-8.23h1.54v8.23Z"/><path class="cls-1" d="M169.89,142.29l-3.32,8.23h-1.38l-3.32-8.23h1.23c.13,0,.24,.03,.32,.1,.08,.07,.15,.15,.19,.25l1.94,5.02c.06,.16,.13,.34,.19,.54,.06,.2,.11,.4,.17,.61,.04-.21,.09-.42,.15-.61s.11-.38,.18-.54l1.93-5.02c.03-.09,.09-.17,.18-.24,.09-.07,.2-.11,.33-.11h1.24Z"/><path class="cls-1" d="M172.08,143.51v2.28h2.88v1.18h-2.88v2.33h3.65v1.22h-5.19v-8.23h5.19v1.22h-3.65Z"/></g></g><g id="logo_biale_okrag"><circle class="cls-6" cx="149.11" cy="57.68" r="25.81"/><line class="cls-5" x1="149.11" y1="31.86" x2="149.11" y2="83.49"/><line class="cls-5" x1="123.29" y1="57.68" x2="174.92" y2="57.68"/><path class="cls-5" d="M145.2,32.16s-9.33,9.29-9.33,25.52,9.33,25.52,9.33,25.52"/><path class="cls-5" d="M152.65,32.16s9.33,9.29,9.33,25.52-9.33,25.52-9.33,25.52"/><path class="cls-5" d="M129.42,74.38s5.22-3.67,19.69-3.67,19.69,3.67,19.69,3.67"/><path class="cls-5" d="M129.42,41.51s5.22,3.67,19.69,3.67,19.69-3.67,19.69-3.67"/><path class="cls-1" d="M164.64,35.88l6.8-5.82-4.51,.41c-2.46-1.45-5.41-2.46-5.41-2.46l21.06-5.82-5.57,21.55s-.91-3.72-2.62-5.98l.53-4.79-6.13,6.92-4.16-4.02Z"/></g><rect id="tlo_pod_UNMI" class="cls-4" x="127.27" y="50.22" width="42.62" height="13.85"/><g><path class="cls-1" d="M133.87,60.55c.39,0,.74-.06,1.05-.18,.31-.12,.57-.28,.78-.49,.21-.21,.37-.47,.49-.77,.11-.3,.17-.64,.17-1.02v-5.86h2.03v5.86c0,.58-.1,1.12-.31,1.61-.21,.49-.51,.92-.9,1.28s-.86,.64-1.42,.84c-.56,.2-1.19,.3-1.89,.3s-1.34-.1-1.89-.3-1.03-.48-1.42-.84-.69-.79-.9-1.28-.31-1.03-.31-1.61v-5.86h2.03v5.85c0,.37,.06,.71,.17,1.02s.28,.56,.49,.77c.21,.21,.48,.38,.78,.5,.31,.12,.66,.18,1.05,.18Z"/><path class="cls-1" d="M149.6,52.23v9.79h-1.04c-.16,0-.3-.02-.4-.07-.11-.05-.21-.13-.31-.24l-5.69-6.52c.03,.3,.05,.57,.05,.83v6.01h-1.79v-9.79h1.06c.09,0,.16,0,.22,0,.06,0,.12,.02,.17,.04,.05,.02,.09,.05,.14,.09,.04,.04,.1,.09,.15,.15l5.72,6.55c-.02-.16-.03-.31-.04-.47-.01-.15-.02-.3-.02-.43v-5.95h1.79Z"/><path class="cls-1" d="M163.59,52.23v9.79h-1.79v-6.32c0-.25,.01-.53,.04-.82l-3.3,5.56c-.16,.27-.39,.4-.72,.4h-.29c-.32,0-.56-.13-.72-.4l-3.33-5.58c.01,.15,.03,.3,.04,.44,0,.14,.01,.28,.01,.4v6.32h-1.79v-9.79h1.53c.09,0,.17,0,.23,0,.07,0,.12,.02,.18,.03s.1,.05,.14,.09,.08,.09,.12,.16l3.27,5.44c.09,.14,.17,.29,.24,.45,.07,.15,.14,.31,.21,.47,.07-.17,.14-.33,.22-.48,.08-.16,.16-.31,.24-.45l3.22-5.42c.04-.07,.08-.12,.13-.16s.09-.07,.15-.09,.11-.03,.18-.03c.07,0,.14,0,.23,0h1.53Z"/><path class="cls-1" d="M167.78,62.02h-2.04v-9.79h2.04v9.79Z"/></g><g id="logo_biale_male"><path class="cls-1" d="M154.64,27.34c-.4-.18-.84-.49-.67-.87,.17-.38,.89-.51,1.42-.45,.44,.04,4.22,2.25,4.05,2.63-.17,.38-4.41-1.13-4.81-1.31Z"/><path class="cls-1" d="M152.6,25.79c-.46,.02-1.01-.06-1.02-.42,0-.36,.62-.72,1.15-.88,.43-.13,5.01,.14,5.02,.5,.01,.36-4.68,.79-5.14,.8Z"/><path class="cls-1" d="M149.04,26.79c-.42-.12-.9-.38-.78-.78,.12-.4,.82-.62,1.35-.64,.44-.02,4.48,1.68,4.36,2.08-.12,.4-4.52-.54-4.94-.67Z"/><path class="cls-1" d="M146.82,25.52c-.46,.08-1.01,.07-1.07-.28-.06-.36,.52-.8,1.02-1.02,.41-.19,4.99-.51,5.04-.15,.06,.35-4.54,1.39-5,1.46Z"/><path class="cls-1" d="M143.17,27.43c-.44-.01-.96-.14-.95-.56,.02-.42,.64-.8,1.15-.95,.42-.13,4.76,.51,4.74,.93-.02,.42-4.51,.6-4.95,.58Z"/><path class="cls-1" d="M140.7,26.75c-.42,.19-.96,.32-1.11,0-.14-.33,.31-.9,.73-1.25,.35-.29,4.7-1.74,4.85-1.41,.14,.33-4.05,2.48-4.47,2.66Z"/><path class="cls-1" d="M137.76,29.01c-.44,.04-.97-.01-1.01-.43-.04-.42,.53-.88,1.02-1.09,.4-.18,4.78-.11,4.82,.31,.04,.42-4.39,1.18-4.83,1.22Z"/><path class="cls-1" d="M135.23,28.66c-.4,.24-.91,.44-1.1,.14-.19-.31,.19-.93,.57-1.33,.31-.33,4.44-2.33,4.62-2.03,.19,.31-3.69,2.98-4.09,3.22Z"/><path class="cls-1" d="M132.74,31.56c-.42,.14-.95,.19-1.08-.21-.13-.4,.33-.97,.76-1.29,.35-.26,4.65-1.14,4.78-.74,.13,.4-4.04,2.1-4.46,2.23Z"/><path class="cls-1" d="M130.19,31.76c-.33,.32-.8,.63-1.04,.37-.25-.26-.02-.95,.27-1.42,.24-.39,3.83-3.23,4.08-2.97,.25,.26-2.97,3.71-3.3,4.02Z"/><path class="cls-1" d="M128.2,34.88c-.4,.19-.92,.32-1.1-.06-.18-.38,.2-1.01,.59-1.38,.32-.31,4.46-1.73,4.64-1.35,.18,.38-3.73,2.61-4.13,2.79Z"/><path class="cls-1" d="M125.69,35.41c-.29,.36-.71,.73-.99,.5-.28-.23-.14-.94,.08-1.44,.18-.42,3.38-3.7,3.66-3.48,.28,.23-2.46,4.06-2.75,4.42Z"/><path class="cls-1" d="M124.24,39.27c-.34,.28-.81,.54-1.08,.21-.27-.32-.06-1.02,.23-1.48,.23-.38,3.89-2.79,4.16-2.46,.27,.32-2.97,3.45-3.3,3.73Z"/><path class="cls-1" d="M121.95,40.41c-.19,.42-.5,.88-.83,.73-.33-.15-.37-.88-.28-1.42,.07-.45,2.35-4.43,2.68-4.28,.33,.15-1.37,4.55-1.56,4.96Z"/><path class="cls-1" d="M121.27,44.05c-.3,.33-.73,.64-1.04,.35-.31-.29-.19-1.01,.03-1.5,.18-.4,3.49-3.27,3.8-2.99,.31,.29-2.49,3.81-2.79,4.13Z"/><path class="cls-1" d="M119.14,45.47c-.13,.44-.39,.94-.73,.83-.34-.11-.48-.82-.46-1.37,.01-.45,1.75-4.7,2.1-4.59,.34,.11-.77,4.69-.9,5.13Z"/><path class="cls-1" d="M119.25,49.61c-.22,.38-.57,.79-.94,.58-.36-.21-.41-.94-.31-1.46,.08-.43,2.66-3.98,3.03-3.77,.36,.21-1.57,4.27-1.79,4.65Z"/><path class="cls-1" d="M117.51,51.48c-.03,.46-.16,1-.52,.98-.36-.03-.66-.69-.76-1.23-.09-.44,.65-4.97,1.01-4.94,.36,.03,.31,4.74,.27,5.2Z"/><path class="cls-1" d="M118.14,55.13c-.16,.41-.47,.85-.85,.69-.39-.16-.53-.88-.49-1.41,.03-.44,2.12-4.29,2.52-4.13,.39,.16-1,4.44-1.17,4.85Z"/><path class="cls-1" d="M116.65,57.21c.03,.46-.03,1.02-.39,1.04-.36,.02-.74-.6-.92-1.12-.15-.43,0-5.01,.36-5.03,.36-.02,.92,4.66,.95,5.12Z"/><path class="cls-1" d="M118.18,61.03c-.06,.44-.24,.94-.65,.88-.42-.06-.73-.72-.83-1.24-.08-.43,.99-4.68,1.41-4.62,.42,.06,.14,4.55,.08,4.98Z"/><path class="cls-1" d="M117.26,63.42c.14,.44,.22,.99-.12,1.1-.34,.11-.87-.4-1.17-.86-.25-.38-1.25-4.85-.91-4.96,.34-.11,2.05,4.28,2.19,4.72Z"/><path class="cls-1" d="M119.21,66.57c0,.44-.11,.96-.53,.96-.42,0-.82-.62-.99-1.13-.14-.42,.37-4.77,.79-4.77,.42,0,.73,4.49,.72,4.93Z"/><path class="cls-1" d="M118.6,69.06c.2,.42,.35,.95,.02,1.11-.33,.15-.91-.28-1.27-.7-.3-.34-1.87-4.65-1.55-4.8,.32-.15,2.59,3.98,2.79,4.39Z"/><path class="cls-1" d="M121.23,71.83c.09,.43,.1,.97-.32,1.05-.41,.09-.93-.43-1.2-.89-.23-.38-.66-4.74-.25-4.83,.41-.09,1.68,4.23,1.77,4.66Z"/><path class="cls-1" d="M121.17,74.39c.28,.37,.55,.86,.26,1.08-.28,.22-.95-.08-1.39-.41-.36-.27-2.83-4.14-2.54-4.36,.28-.22,3.39,3.33,3.67,3.69Z"/><path class="cls-1" d="M124.07,76.68c.15,.42,.22,.95-.18,1.09-.4,.14-.98-.3-1.31-.72-.27-.35-1.27-4.61-.87-4.76,.4-.14,2.21,3.98,2.36,4.39Z"/><path class="cls-1" d="M124.35,79.23c.33,.32,.65,.78,.4,1.03-.25,.25-.95,.05-1.43-.23-.39-.22-3.34-3.74-3.09-3.99,.25-.25,3.79,2.86,4.12,3.19Z"/><path class="cls-1" d="M128.04,81.06c.25,.36,.45,.86,.1,1.1-.35,.23-1.03-.05-1.45-.37-.35-.27-2.38-4.15-2.03-4.39,.35-.23,3.13,3.3,3.38,3.67Z"/><path class="cls-1" d="M128.94,83.46c.4,.23,.83,.59,.64,.9-.18,.31-.91,.28-1.44,.14-.44-.12-4.17-2.79-3.98-3.1,.18-.31,4.38,1.82,4.78,2.06Z"/><path class="cls-1" d="M132.49,84.51c.29,.33,.56,.79,.24,1.07-.32,.28-1.02,.09-1.48-.18-.38-.22-2.9-3.8-2.58-4.09,.32-.28,3.54,2.86,3.83,3.2Z"/><path class="cls-1" d="M133.7,86.77c.43,.18,.9,.48,.76,.81-.14,.33-.86,.4-1.41,.32-.45-.06-4.49-2.22-4.35-2.55,.14-.33,4.58,1.24,5.01,1.42Z"/><path class="cls-1" d="M137.99,87.12c.37,.25,.74,.63,.5,.98-.24,.35-.97,.33-1.48,.19-.42-.12-3.75-2.98-3.51-3.33,.24-.35,4.13,1.91,4.49,2.16Z"/><path class="cls-1" d="M139.71,89.02c.46,.07,.99,.24,.93,.6-.06,.36-.74,.6-1.29,.66-.45,.05-4.9-1.05-4.85-1.41,.06-.35,4.75,.08,5.2,.15Z"/><path class="cls-1" d="M143.4,88.68c.4,.2,.81,.53,.62,.91-.19,.37-.92,.46-1.45,.38-.44-.06-4.1-2.47-3.91-2.84,.19-.37,4.34,1.36,4.74,1.56Z"/><path class="cls-1" d="M145.35,90.34c.46,0,1.01,.11,1,.47,0,.36-.66,.69-1.19,.82-.44,.11-5-.4-4.99-.77,0-.36,4.72-.54,5.18-.53Z"/><path class="cls-1" d="M149.28,89.12c.43,.09,.92,.31,.83,.72-.09,.41-.78,.67-1.31,.73-.44,.05-4.59-1.37-4.49-1.78,.09-.41,4.55,.23,4.97,.33Z"/><path class="cls-1" d="M151.59,90.24c.45-.11,1.01-.14,1.09,.21,.08,.35-.46,.83-.95,1.09-.4,.22-4.94,.85-5.02,.5-.08-.35,4.43-1.7,4.88-1.8Z"/><path class="cls-1" d="M154.88,88.55c.44,.04,.95,.19,.91,.61-.04,.42-.68,.77-1.2,.89-.43,.1-4.72-.76-4.69-1.18,.04-.42,4.54-.36,4.98-.32Z"/><path class="cls-1" d="M157.31,89.36c.43-.17,.98-.27,1.11,.07,.13,.34-.35,.88-.8,1.21-.37,.27-4.79,1.49-4.91,1.15-.13-.34,4.18-2.26,4.61-2.42Z"/><path class="cls-1" d="M160.52,86.74c.44-.06,.97-.03,1.03,.39,.06,.42-.49,.9-.97,1.14-.39,.2-4.77,.33-4.83-.09-.06-.42,4.34-1.37,4.77-1.43Z"/><path class="cls-1" d="M163.07,86.98c.38-.26,.89-.48,1.09-.18,.2,.3-.14,.94-.51,1.35-.3,.34-4.33,2.53-4.53,2.23-.2-.3,3.56-3.14,3.94-3.4Z"/><path class="cls-1" d="M165.56,84.24c.42-.12,.96-.15,1.07,.25s-.37,.96-.81,1.25c-.36,.25-4.69,.95-4.81,.54-.11-.41,4.12-1.93,4.55-2.04Z"/><path class="cls-1" d="M168.12,84.15c.35-.31,.82-.6,1.06-.33,.24,.27-.02,.95-.33,1.41-.25,.38-3.96,3.07-4.2,2.8-.24-.27,3.12-3.58,3.47-3.88Z"/><path class="cls-1" d="M170.21,80.6c.38-.22,.89-.39,1.1-.02,.21,.36-.12,1.02-.47,1.42-.29,.33-4.31,2.08-4.52,1.72-.21-.36,3.51-2.89,3.9-3.11Z"/><path class="cls-1" d="M172.66,79.87c.26-.38,.65-.78,.94-.58,.3,.2,.22,.93,.04,1.45-.15,.43-3.07,3.96-3.37,3.76-.3-.2,2.13-4.24,2.39-4.62Z"/><path class="cls-1" d="M173.96,76.4c.35-.27,.83-.5,1.09-.17,.25,.34,.01,1.03-.29,1.47-.25,.37-4,2.63-4.26,2.29-.25-.33,3.11-3.33,3.46-3.59Z"/><path class="cls-1" d="M176.3,75.35c.21-.41,.54-.86,.86-.7,.32,.16,.33,.89,.22,1.43-.09,.44-2.53,4.33-2.85,4.16-.32-.16,1.56-4.48,1.77-4.89Z"/><path class="cls-1" d="M176.88,71.58c.28-.34,.7-.67,1.03-.4,.32,.27,.23,1,.03,1.49-.16,.41-3.34,3.42-3.67,3.15-.32-.27,2.32-3.92,2.61-4.25Z"/><path class="cls-1" d="M178.94,70.06c.11-.45,.34-.96,.69-.87,.35,.09,.52,.8,.52,1.35,0,.45-1.54,4.77-1.89,4.68-.35-.09,.56-4.71,.68-5.16Z"/><path class="cls-1" d="M178.98,66.36c.24-.37,.61-.75,.97-.53,.35,.23,.36,.96,.23,1.48-.11,.43-2.87,3.83-3.23,3.6-.35-.23,1.79-4.19,2.03-4.55Z"/><path class="cls-1" d="M180.82,64.58c.06-.46,.22-.99,.57-.95,.36,.05,.62,.72,.7,1.27,.06,.45-.91,4.93-1.27,4.89-.36-.04-.06-4.75,0-5.2Z"/><path class="cls-1" d="M180.01,60.54c.14-.42,.41-.88,.8-.75,.4,.13,.59,.84,.59,1.37,0,.44-1.83,4.42-2.23,4.29-.4-.13,.69-4.5,.83-4.91Z"/><path class="cls-1" d="M181.36,58.36c-.06-.46-.04-1.02,.32-1.06,.36-.04,.78,.55,.99,1.05,.17,.42,.35,5-.01,5.05-.36,.05-1.24-4.58-1.3-5.04Z"/><path class="cls-1" d="M180.01,54.91c.08-.43,.29-.93,.7-.85,.41,.08,.69,.76,.76,1.29,.06,.44-1.23,4.62-1.65,4.55-.41-.08,.1-4.55,.18-4.98Z"/><path class="cls-1" d="M181.06,52.58c-.12-.45-.17-1,.18-1.09,.35-.09,.84,.44,1.12,.92,.23,.39,1,4.91,.65,5.01-.35,.09-1.83-4.38-1.94-4.83Z"/><path class="cls-1" d="M179.19,49.26c.01-.44,.14-.96,.56-.95,.42,.01,.8,.64,.96,1.15,.13,.42-.49,4.76-.92,4.75-.42-.01-.61-4.51-.6-4.95Z"/><path class="cls-1" d="M179.86,46.79c-.19-.42-.33-.96,0-1.11,.33-.14,.9,.3,1.25,.73,.29,.35,1.75,4.69,1.42,4.84-.33,.14-2.49-4.04-2.68-4.46Z"/></g></g></svg>