<?xml version="1.0" encoding="UTF-8"?><svg id="a" xmlns="http://www.w3.org/2000/svg" xmlns:xlink="http://www.w3.org/1999/xlink" viewBox="0 0 297.64 187.09"><defs><style>.l{fill:url(#i);opacity:.1;}.l,.m,.n,.o,.p,.q{isolation:isolate;}.m{fill:url(#g);}.m,.n,.o{opacity:.3;}.n{fill:url(#h);}.r{fill:url(#e);}.o{fill:url(#f);}.s{fill:url(#d);}.p{fill:url(#k);opacity:.15;}.t{fill:none;stroke:#010101;stroke-linecap:round;stroke-miterlimit:15;stroke-width:10.5px;}.u{fill:url(#c);}.v{fill:rgba(255,255,255,0);opacity:0;}.q{fill:#fff;opacity:.2;}</style><linearGradient id="c" x1="148.82" y1="7.79" x2="148.82" y2="185.17" gradientTransform="translate(0 190.02) scale(1 -1)" gradientUnits="userSpaceOnUse"><stop offset="0" stop-color="#192340"/><stop offset="1" stop-color="#0197c0"/></linearGradient><linearGradient id="d" x1="148.81" y1="9.1" x2="148.81" y2="183.86" gradientTransform="translate(0 190.02) scale(1 -1)" gradientUnits="userSpaceOnUse"><stop offset="0" stop-color="#06526a"/><stop offset="1" stop-color="#88cfe6"/></linearGradient><radialGradient id="e" cx="148.24" cy="46.98" fx="148.24" fy="46.98" r="36.08" gradientTransform="translate(0 190.02) scale(1 -1)" gradientUnits="userSpaceOnUse"><stop offset="0" stop-color="#fff" stop-opacity=".5"/><stop offset=".32" stop-color="#fafafb" stop-opacity=".49"/><stop offset=".48" stop-color="#ecedef" stop-opacity=".46"/><stop offset=".62" stop-color="#d4d5db" stop-opacity=".41"/><stop offset=".73" stop-color="#b1b4be" stop-opacity=".33"/><stop offset=".83" stop-color="#848999" stop-opacity=".23"/><stop offset=".93" stop-color="#4e556c" stop-opacity=".12"/><stop offset="1" stop-color="#192340" stop-opacity="0"/></radialGradient><linearGradient id="f" x1="167.01" y1="47.85" x2="121.88" y2="195.44" gradientTransform="translate(0 190.02) scale(1 -1)" gradientUnits="userSpaceOnUse"><stop offset="0" stop-color="#fff"/><stop offset=".02" stop-color="#fdfefe"/><stop offset=".03" stop-color="#f6fbfd"/><stop offset=".03" stop-color="#eaf6fa"/><stop offset=".04" stop-color="#d9eff7"/><stop offset=".04" stop-color="#c3e7f2"/><stop offset=".04" stop-color="#a9dcec"/><stop offset=".05" stop-color="#89cfe6"/><stop offset=".05" stop-color="#88cfe6"/><stop offset="1" stop-color="#1e1e1c" stop-opacity="0"/></linearGradient><linearGradient id="g" x1="164.03" y1="91.09" x2="116.31" y2="198.25" gradientTransform="translate(0 190.02) scale(1 -1)" gradientUnits="userSpaceOnUse"><stop offset=".03" stop-color="#fff"/><stop offset=".07" stop-color="#88cfe6"/><stop offset="1" stop-color="#1e1e1c" stop-opacity="0"/></linearGradient><linearGradient id="h" x1="130.94" y1="132.18" x2="84.21" y2="184.08" gradientTransform="translate(0 190.02) scale(1 -1)" gradientUnits="userSpaceOnUse"><stop offset="0" stop-color="#fff"/><stop offset=".05" stop-color="#fff"/><stop offset=".09" stop-color="#88cfe6"/><stop offset="1" stop-color="#1e1e1c" stop-opacity="0"/></linearGradient><linearGradient id="i" x1="107.78" y1="152.44" x2="80.16" y2="180.05" gradientTransform="translate(0 190.02) scale(1 -1)" gradientUnits="userSpaceOnUse"><stop offset="0" stop-color="#bee4f5"/><stop offset=".04" stop-color="#88cfe6"/><stop offset="1" stop-color="#1e1e1c" stop-opacity="0"/></linearGradient><linearGradient id="k" x1="147.09" y1="99.4" x2="150.12" y2="186.08" gradientTransform="translate(0 190.02) scale(1 -1)" gradientUnits="userSpaceOnUse"><stop offset="0" stop-color="#fff"/><stop offset=".43" stop-color="#88cfe6"/><stop offset="1" stop-color="#fff"/></linearGradient></defs><rect class="v" width="297.64" height="187.09"/><g id="b"><rect class="u" x="82.68" y="4.86" width="132.27" height="177.37"/><rect class="s" x="83.99" y="6.17" width="129.63" height="174.76"/><path class="r" d="M205.18,143.04c0,18.83-25.49,34.1-56.94,34.1s-56.94-15.28-56.94-34.1,25.49-34.1,56.94-34.1,56.94,15.28,56.94,34.1Z"/><path class="o" d="M163.86,143.04c16.41-5.76,34.86-12.42,49.78-18.83V6.17H83.99V159.22c22.75-3.2,59.62-9.11,79.87-16.18Z"/><path class="m" d="M83.99,123.31c6.81-.67,13.59-1.54,18.24-2.68,13.15-3.2,44.37-11.96,60.43-21.91,13.38-8.26,37.27-23.02,50.95-36.81V6.17H83.99V123.31Z"/><path class="n" d="M83.99,6.17V88.39c5.47-1.92,10.5-4.04,14.46-6.31,11.67-6.72,29.8-18.1,42.63-37.68,8.58-13.06,14.55-26.39,17.75-38.26H83.99v.03Z"/><path class="l" d="M83.99,6.17V56.36c7.19-3.49,13.91-7.51,19.12-14.87,7.65-10.77,13.09-21.01,15.8-35.32h-34.92Z"/><path class="q" d="M135.78,18.77c0,6.14-22.75,20.34-33,20.34s-11.87-8.23-11.87-14.34,8.29-11.09,18.53-11.09,26.3-1.02,26.3,5.12l.03-.03Z"/><g id="j"><line class="t" x1="105.17" y1="23.39" x2="191.3" y2="161.78"/><line class="t" x1="191.3" y1="161.78" x2="176.99" y2="161.78"/><line class="t" x1="118.88" y1="161.78" x2="105.17" y2="161.78"/><line class="t" x1="105.17" y1="161.78" x2="191.3" y2="23.39"/><line class="t" x1="191.3" y1="23.39" x2="176.99" y2="23.39"/><line class="t" x1="116.84" y1="67.18" x2="179.63" y2="67.18"/><line class="t" x1="116.84" y1="118.28" x2="179.63" y2="118.28"/><line class="t" x1="105.17" y1="23.39" x2="118.88" y2="23.39"/></g><path class="p" d="M83.99,74.86c16.61,16.27,47.31,15.39,64.25,15.39s50.25,2.15,65.41-14.08V6.17H83.99V74.86Z"/></g></svg>