<?xml version="1.0" encoding="utf-8"?>
<!-- Generator: Adobe Illustrator 26.3.1, SVG Export Plug-In . SVG Version: 6.00 Build 0)  -->
<svg version="1.1" id="Layer_1" xmlns="http://www.w3.org/2000/svg" xmlns:xlink="http://www.w3.org/1999/xlink" x="0px" y="0px"
	 viewBox="0 0 168.8 168.8" style="enable-background:new 0 0 168.8 168.8;" xml:space="preserve">
<style type="text/css">
	.st0{fill:#054E35;}
	.st1{fill:#FFFFFF;stroke:#000000;stroke-width:8;stroke-miterlimit:10;}
	.st2{fill:url(#SVGID_1_);}
	.st3{stroke:#000000;stroke-width:1.03;stroke-miterlimit:10;}
	.st4{fill:none;stroke:#000000;stroke-width:5.32;stroke-linecap:round;stroke-miterlimit:10;}
</style>
<circle class="st0" cx="84.4" cy="84.4" r="84.4"/>
<circle class="st1" cx="84.4" cy="84.4" r="65.2"/>
<linearGradient id="SVGID_1_" gradientUnits="userSpaceOnUse" x1="84.39" y1="27.2223" x2="84.39" y2="139.4623" gradientTransform="matrix(1 0 0 -1 0 167.7323)">
	<stop  offset="0" style="stop-color:#4D4D4D"/>
	<stop  offset="1" style="stop-color:#FFFFFF"/>
</linearGradient>
<circle class="st2" cx="84.4" cy="84.4" r="56.1"/>
<path class="st3" d="M60.9,107c0.5,1.6,1.3,2.8,2.3,3.6c1.1,0.8,2.4,1.2,4.1,1.2c0.5,0,1,0,1.5-0.1c0.5-0.1,1.1-0.2,1.6-0.3
	s1.1-0.3,1.6-0.5c0.5-0.2,1-0.4,1.5-0.6v5c-1.2,0.5-2.4,0.9-3.5,1.2s-2.3,0.4-3.6,0.4c-3.2,0-5.8-0.8-7.8-2.5s-3.3-4.1-4-7.3h-3.1
	v-3.4h2.7c0-0.3,0-0.5,0-0.8v-0.7c0-0.3,0-0.7,0-1.1c0-0.4,0-0.7,0.1-1.1h-2.7v-3.4H55c0.4-1.6,1-3,1.7-4.2c0.7-1.2,1.6-2.3,2.6-3.1
	s2.2-1.5,3.5-1.9s2.7-0.7,4.2-0.7c0.6,0,1.2,0,1.8,0s1.1,0.1,1.7,0.2c0.5,0.1,1.1,0.2,1.6,0.3s1.1,0.3,1.7,0.5v5.4
	c-1.2-0.6-2.3-1-3.4-1.2s-2.1-0.4-3-0.4c-1.7,0-3,0.5-4.1,1.4c-1.1,0.9-1.8,2.2-2.4,3.7H69v3.4h-8.8c0,0.3,0,0.6,0,0.9v1.8
	c0,0.3,0,0.7,0,1H69v3.4L60.9,107L60.9,107z"/>
<path d="M84.7,87.6c3.2,3.9,5.2,8.9,5.2,14.3c0,12.4-10,22.4-22.4,22.4s-22.4-10-22.4-22.4s10-22.4,22.4-22.4c5.6,0,10.7,2,14.6,5.4
	l3.1-5.6c-4.9-3.8-11-6.1-17.7-6.1c-15.9,0-28.7,12.9-28.7,28.7s12.9,28.7,28.7,28.7s28.7-12.9,28.7-28.7c0-6.5-2.2-12.6-5.9-17.4
	L84.7,87.6L84.7,87.6z"/>
<path class="st3" d="M83.8,85.9c0,0,8.7-14.4,12.4-18.1c3.7-3.7,25-18.1,25-18.1s-15.6,20.1-19.2,23.6C98.6,76.8,83.8,86,83.8,85.9
	L83.8,85.9z"/>
<path class="st4" d="M102.9,80.4c5.6-3.6,13.1-2,16.7,3.6c2.9,4.5,1.6,10.5-2.9,13.4c-3.6,2.3-8.4,1.3-10.7-2.3
	c-1.9-2.9-1-6.7,1.8-8.6c2.3-1.5,5.4-0.8,6.8,1.5c1.2,1.8,0.7,4.3-1.2,5.5"/>
<line class="st4" x1="89.1" y1="88.2" x2="102.9" y2="80.4"/>
<line class="st4" x1="102.9" y1="80.4" x2="90.8" y2="90.9"/>
<path class="st4" d="M89.2,67.2c3.7-5.5,2.2-13.1-3.3-16.8c-4.4-3-10.4-1.8-13.4,2.6c-2.4,3.5-1.4,8.4,2.1,10.7
	c2.8,1.9,6.7,1.2,8.6-1.7c1.5-2.3,0.9-5.3-1.3-6.9c-1.8-1.2-4.3-0.7-5.5,1.1"/>
<line class="st4" x1="81.2" y1="80.9" x2="89.2" y2="67.2"/>
<line class="st4" x1="89.2" y1="67.2" x2="78.5" y2="79.1"/>
</svg>
