<?xml version="1.0" encoding="UTF-8"?><svg id="Layer_1" xmlns="http://www.w3.org/2000/svg" xmlns:xlink="http://www.w3.org/1999/xlink" viewBox="0 0 168.78 168.78"><defs><style>.cls-1{fill:#054e35;}.cls-2{fill:#fff;stroke:#000;stroke-width:8px;}.cls-2,.cls-3{stroke-miterlimit:10;}.cls-3{stroke:url(#linear-gradient-2);stroke-width:1.46px;}.cls-4{fill:url(#linear-gradient);}</style><linearGradient id="linear-gradient" x1="84.39" y1="27.22" x2="84.39" y2="139.46" gradientTransform="translate(0 167.73) scale(1 -1)" gradientUnits="userSpaceOnUse"><stop offset="0" stop-color="#4d4d4d"/><stop offset="1" stop-color="#fff"/></linearGradient><linearGradient id="linear-gradient-2" x1="97.87" y1="118.52" x2="60.33" y2="56.05" gradientTransform="matrix(1, 0, 0, 1, 0, 0)" gradientUnits="userSpaceOnUse"><stop offset="0" stop-color="#1d1d1b"/><stop offset=".53" stop-color="#1b1b19"/><stop offset=".73" stop-color="#141412"/><stop offset=".86" stop-color="#080807"/><stop offset=".93" stop-color="#000"/><stop offset=".93" stop-color="#101010"/><stop offset=".95" stop-color="#3b3b3b"/><stop offset=".97" stop-color="#818181"/><stop offset=".99" stop-color="#e0e0e0"/><stop offset="1" stop-color="#fff"/></linearGradient></defs><circle class="cls-1" cx="84.39" cy="84.39" r="84.39"/><circle class="cls-2" cx="84.39" cy="84.39" r="65.25"/><circle class="cls-4" cx="84.39" cy="84.39" r="56.12"/><g id="logo"><path id="logo-2" class="cls-3" d="M74.78,56.39c27.98-1.06,46.75,15.48,61.43,37.55H68.89c-.52,0-.59-2.37-1.21-4.43-2.23-5.82-8.05-8.15-13.96-8.15v2.49s2.77,.43,4.42,.95c5.69,1.8,8.04,6.41,7.08,12.23-2.16,13.07-16.8,16.53-26.64,9.24-10.77-7.99-5.19-26.65,2.09-35.14,8.97-10.46,20.75-14.24,34.09-14.75Z"/><path d="M49.79,107.85c-3.49,0-7.01-1.18-9.9-3.33-2.86-2.12-4.54-5.27-5-9.36-.9-7.99,3.17-17.6,7.45-22.6,7.71-8.99,18.05-13.44,32.52-13.99,.82-.03,1.64-.05,2.45-.05,21.29,0,38.76,10.58,54.75,33.22h-61.65l-.02-.13c-.14-.79-.32-1.78-.62-2.75l-.02-.08-.03-.07c-2.3-5.98-8.28-9.55-16-9.55h-2.19v6.55l1.86,.29c.72,.11,2.87,.49,4.09,.88,5.66,1.79,6.16,6.31,5.59,9.79-1.36,8.24-8,11.16-13.28,11.16Z"/></g></svg>