<?xml version="1.0" encoding="UTF-8"?><svg id="Layer_1" xmlns="http://www.w3.org/2000/svg" xmlns:xlink="http://www.w3.org/1999/xlink" viewBox="0 0 168.78 168.78"><defs><style>.cls-1{stroke-width:.8px;}.cls-1,.cls-2,.cls-3,.cls-4{stroke:#000;stroke-miterlimit:10;}.cls-5{fill:#054e35;}.cls-2{fill:#fff;stroke-width:8px;}.cls-3{stroke-width:1.7px;}.cls-4{stroke-width:.76px;}.cls-6{fill:url(#linear-gradient);}</style><linearGradient id="linear-gradient" x1="84.39" y1="27.22" x2="84.39" y2="139.46" gradientTransform="translate(0 167.73) scale(1 -1)" gradientUnits="userSpaceOnUse"><stop offset="0" stop-color="#4d4d4d"/><stop offset="1" stop-color="#fff"/></linearGradient></defs><circle class="cls-5" cx="84.39" cy="84.39" r="84.39"/><circle class="cls-2" cx="84.39" cy="84.39" r="65.25"/><circle class="cls-6" cx="84.39" cy="84.39" r="56.12"/><path class="cls-4" d="M49.39,68.04h-8.52l-4.26,7.38,4.26,7.38h8.52l4.26-7.38-4.26-7.38Zm-4.26,10.6c-1.78,0-3.23-1.44-3.23-3.23s1.44-3.23,3.23-3.23,3.23,1.44,3.23,3.23-1.44,3.23-3.23,3.23Z"/><path class="cls-4" d="M49.39,86.41h-8.52l-4.26,7.38,4.26,7.38h8.52l4.26-7.38-4.26-7.38Zm-4.26,10.6c-1.78,0-3.23-1.44-3.23-3.23s1.44-3.23,3.23-3.23,3.23,1.44,3.23,3.23-1.44,3.23-3.23,3.23Z"/><path class="cls-4" d="M65.96,77.27h-8.52l-4.26,7.38,4.26,7.38h8.52l4.26-7.38-4.26-7.38Zm-4.26,10.6c-1.78,0-3.23-1.44-3.23-3.23s1.44-3.23,3.23-3.23,3.23,1.44,3.23,3.23-1.44,3.23-3.23,3.23Z"/><circle class="cls-3" cx="84.31" cy="42.97" r="13.32"/><polygon class="cls-1" points="131.75 104.45 98.97 84.97 131.75 65.5 131.75 104.45"/><path class="cls-3" d="M58.58,42.97c-1.08,1.08,2.33,11.82,4.5,13.99,2.16,2.17,11.74,12.74,11.74,26.85s-7.74,24.93-9.62,29.35-6.37,19.65-3.75,19.61c4.87,0,7.44-20.48,22.85-20.48s17.15,20.48,22.36,20.48c2.87,.3-1.37-12.87-4-18.98-2.62-6.11-10.37-15.95-10.37-29.6s10.41-25.9,12.49-27.89c2.08-1.99,5.8-11.2,4.46-12.54s-8.09,3.74-8.09,3.74c0,0-3.13,13.95-16.86,13.95s-17.98-13.95-17.98-13.95c0,0-6.67-5.61-7.75-4.53Z"/></svg>