<?xml version="1.0" encoding="UTF-8"?><svg id="Layer" xmlns="http://www.w3.org/2000/svg" xmlns:xlink="http://www.w3.org/1999/xlink" viewBox="0 0 566.93 141.73"><defs><style>.cls-1{fill:url(#linear-gradient-2);}.cls-2{fill:#010101;stroke-width:.76px;}.cls-2,.cls-3{stroke:#020303;stroke-miterlimit:10;}.cls-4,.cls-5{fill:#020303;}.cls-6{fill:rgba(255,255,255,0);}.cls-7{fill:url(#linear-gradient-6);}.cls-8{fill:#1f1f1d;}.cls-5{opacity:.15;}.cls-5,.cls-9{isolation:isolate;}.cls-10{fill:#7e348b;}.cls-9{fill:url(#Nowy_wzorek);opacity:.1;}.cls-11{fill:url(#linear-gradient-5);}.cls-12{fill:none;}.cls-13{fill:url(#linear-gradient-7);}.cls-14{fill:url(#linear-gradient-3);}.cls-15{fill:url(#linear-gradient);}.cls-3{fill:#fff;stroke-width:.37px;}.cls-16{fill:url(#linear-gradient-4);}.cls-17{fill:url(#linear-gradient-8);}</style><linearGradient id="linear-gradient" x1="546.09" y1="141.37" x2="435.3" y2="30.57" gradientTransform="translate(0 -15.46)" gradientUnits="userSpaceOnUse"><stop offset="0" stop-color="#9d9d9c"/><stop offset=".54" stop-color="#010101"/><stop offset="1" stop-color="#9d9d9c"/></linearGradient><linearGradient id="linear-gradient-2" x1="490.72" y1="118.97" x2="490.72" y2="52.98" gradientTransform="translate(0 -15.46)" gradientUnits="userSpaceOnUse"><stop offset="0" stop-color="#452b1a"/><stop offset="1" stop-color="#b18049"/></linearGradient><linearGradient id="linear-gradient-3" x1="490.69" y1="117.3" x2="490.69" y2="54.59" gradientTransform="translate(0 -15.46)" gradientUnits="userSpaceOnUse"><stop offset="0" stop-color="#946137"/><stop offset="1" stop-color="#7f5026"/></linearGradient><pattern id="Nowy_wzorek" x="0" y="0" width="19.7" height="21.7" patternTransform="translate(8.6 16522.9)" patternUnits="userSpaceOnUse" viewBox="0 0 19.7 21.7"><g><rect class="cls-12" width="19.7" height="21.7"/><g><rect class="cls-12" width="19.7" height="21.7"/><g><rect class="cls-12" width="19.7" height="21.7"/><g><rect class="cls-12" width="19.7" height="21.7"/><g><rect class="cls-12" width="19.7" height="21.7"/><path class="cls-8" d="M16.6,8.7c2.1,2.1,2.1,5.6,0,7.7l-1.2,1.2c-2.1,2.1-5.6,2.1-7.8,0L3.1,13c-2.1-2.1-2.1-5.6,0-7.7l1.2-1.2c2.1-2.1,5.6-2.1,7.7,0l4.6,4.6Z"/></g></g></g></g></g></pattern><linearGradient id="linear-gradient-4" x1="530.73" y1="108.52" x2="530.73" y2="64.96" gradientTransform="translate(0 -16.47)" gradientUnits="userSpaceOnUse"><stop offset=".16" stop-color="#813912"/><stop offset=".18" stop-color="#975a19"/><stop offset=".22" stop-color="#ae7d21"/><stop offset=".26" stop-color="#c39d27"/><stop offset=".3" stop-color="#d6b92e"/><stop offset=".35" stop-color="#e4cf35"/><stop offset=".41" stop-color="#efe036"/><stop offset=".48" stop-color="#f6e942"/><stop offset=".58" stop-color="#f8ea48"/><stop offset=".86" stop-color="#f7ea47"/><stop offset="1" stop-color="#fcf4f9"/></linearGradient><linearGradient id="linear-gradient-5" x1="530.74" y1="62.64" x2="530.74" y2="129.22" gradientTransform="translate(0 -16.47)" gradientUnits="userSpaceOnUse"><stop offset=".26" stop-color="#f7ea47"/><stop offset=".86" stop-color="#803612"/></linearGradient><linearGradient id="linear-gradient-6" x1="530.76" y1="107.92" x2="530.76" y2="65.61" gradientTransform="translate(0 -16.47)" gradientUnits="userSpaceOnUse"><stop offset=".16" stop-color="#803612"/><stop offset=".17" stop-color="#8b461e"/><stop offset=".18" stop-color="#a26a3b"/><stop offset=".2" stop-color="#b78954"/><stop offset=".22" stop-color="#c7a468"/><stop offset=".24" stop-color="#d7bb7a"/><stop offset=".26" stop-color="#e2cc88"/><stop offset=".3" stop-color="#ead891"/><stop offset=".34" stop-color="#eede97"/><stop offset=".46" stop-color="#efe097"/><stop offset=".7" stop-color="#803612"/><stop offset=".73" stop-color="#e6d234"/><stop offset=".74" stop-color="#ead848"/><stop offset=".75" stop-color="#eede6d"/><stop offset=".77" stop-color="#f1e38b"/><stop offset=".79" stop-color="#f7eaa9"/><stop offset=".8" stop-color="#f8edbf"/><stop offset=".83" stop-color="#faf0cf"/><stop offset=".85" stop-color="#fcf2da"/><stop offset=".89" stop-color="#fdf4e1"/><stop offset=".99" stop-color="#fdf5e3"/></linearGradient><linearGradient id="linear-gradient-7" x1="530.73" y1="71.81" x2="530.73" y2="137.11" gradientTransform="translate(0 -16.47)" gradientUnits="userSpaceOnUse"><stop offset=".26" stop-color="#f7ea47"/><stop offset=".77" stop-color="#803612"/></linearGradient><linearGradient id="linear-gradient-8" x1="-350.02" y1="1050.05" x2="-319.23" y2="1019.27" gradientTransform="translate(-23.44 -897.96) rotate(-45)" gradientUnits="userSpaceOnUse"><stop offset="0" stop-color="#1d1327"/><stop offset=".24" stop-color="#372348"/><stop offset=".49" stop-color="#573a6c"/><stop offset=".71" stop-color="#714f8b"/><stop offset=".89" stop-color="#825c9f"/><stop offset="1" stop-color="#8862a6"/></linearGradient></defs><rect class="cls-6" width="566.93" height="141.73"/><g id="prodBg"><rect id="external-border" class="cls-15" x="414.73" y="35.68" width="151.93" height="69.66"/><rect id="internal-border" class="cls-1" x="416.56" y="37.52" width="148.32" height="65.99"/><rect id="bg" class="cls-14" x="418.17" y="39.13" width="145.04" height="62.71"/><rect id="bgPattern" class="cls-9" x="418.17" y="39.13" width="145.04" height="62.71"/></g><g id="mln"><polygon id="obram_czarne" class="cls-2" points="514.61 47.17 507.61 54.17 507.61 86.37 514.61 93.37 546.85 93.37 553.82 86.37 553.82 54.17 546.85 47.17 514.61 47.17"/><polygon id="obram_zolte" class="cls-16" points="515.52 48.49 508.97 55.08 508.97 85.46 515.52 92.05 545.91 92.05 552.49 85.46 552.49 55.08 545.91 48.49 515.52 48.49"/><polygon id="tlo_wew" class="cls-11" points="515.97 49.14 509.58 55.53 509.58 85.01 515.97 91.41 545.49 91.41 551.89 85.01 551.89 55.53 545.49 49.14 515.97 49.14"/><path id="obram_skosne" class="cls-7" d="M548.82,78.43c-1.17,0-2.12-.95-2.12-2.12v-12.07c0-1.17,.95-2.12,2.12-2.12h3.03v-6.58l-6.36-6.4h-6.62v3.03c0,1.17-.95,2.12-2.12,2.12h-12.07c-1.17,0-2.12-.95-2.12-2.12v-3.03h-6.58l-6.4,6.4v6.62h3.03c1.17,0,2.12,.95,2.12,2.12v12.07c0,1.17-.95,2.12-2.12,2.12h-3.03v6.58l6.4,6.4h6.62v-3.03c0-1.17,.95-2.12,2.12-2.12h12.07c1.17,0,2.12,.95,2.12,2.12v3.03h6.62l6.4-6.4v-6.62h-3.11Z"/><path id="tlo_zew" class="cls-13" d="M548.71,79.14c-1.44,0-2.61-1.44-2.61-2.88v-12c0-1.44,1.17-2.88,2.61-2.88h2.46v-5.37l-6.21-6.17h-5.34v2.46c0,1.44-1.44,2.61-2.88,2.61h-12c-1.44,0-2.88-1.17-2.88-2.61v-2.46h-5.41l-6.17,6.17v5.37h2.46c1.44,0,2.61,1.44,2.61,2.88v12c0,1.44-1.17,2.88-2.61,2.88h-2.46v5.37l6.17,6.17h5.37v-2.46c0-1.44,1.44-2.61,2.88-2.61h11.96c1.44,0,2.88,1.17,2.88,2.61v2.46h5.37l6.17-6.17v-5.37h-2.37Z"/></g><g><path d="M518.97,72.51v-2.44h5.85v2.44h-5.85Z"/><path d="M527.64,79.59v-3.08c1.18-1.58,2.32-2.86,3.42-3.82l1.59-1.41c1.14-1.01,2.08-2.01,2.83-3s1.12-2.02,1.12-3.1c0-.98-.31-1.73-.94-2.26s-1.48-.8-2.55-.8c-1.42,0-3.08,.48-4.97,1.45v-2.86c1.98-.74,3.9-1.11,5.75-1.11,2.05,0,3.7,.49,4.96,1.47s1.89,2.29,1.89,3.94c0,1.04-.27,2.02-.8,2.93-.53,.92-1.64,2.05-3.31,3.41l-1.32,1.05c-.58,.47-1.21,1.06-1.9,1.79s-1.14,1.5-1.36,2.32h8.61v3.08h-13.02Z"/></g><g id="energy"><rect class="cls-4" x="448.46" y="47.17" width="46.2" height="46.2"/><rect class="cls-17" x="449.79" y="48.5" width="43.54" height="43.54"/><polygon class="cls-10" points="491.22 50.61 491.22 89.93 451.9 89.93 451.9 50.61 491.22 50.61"/><polygon class="cls-3" points="466.76 65.77 479.73 57.73 472.8 67.77 476.47 73.74 463.72 81.78 470.13 71.77 466.76 65.77"/><path id="darker" class="cls-5" d="M493.33,92.04h-43.54v-23.86s13.71,2.11,21.75,2.11,21.79-2.11,21.79-2.11v23.86Z"/></g><path d="M426.87,74.23v-5.42h13.01v5.42h-13.01Z"/></svg>