<?xml version="1.0" encoding="UTF-8"?><svg id="Layer" xmlns="http://www.w3.org/2000/svg" xmlns:xlink="http://www.w3.org/1999/xlink" viewBox="0 0 566.93 141.73"><defs><style>.cls-1{fill:url(#linear-gradient-2);}.cls-2{opacity:.15;}.cls-2,.cls-3{fill:#020303;}.cls-2,.cls-4{isolation:isolate;}.cls-5{stroke-width:.37px;}.cls-5,.cls-6{fill:#fff;}.cls-5,.cls-7{stroke:#020303;stroke-miterlimit:10;}.cls-6{opacity:0;}.cls-8{fill:url(#linear-gradient-6);}.cls-9{fill:#1f1f1d;}.cls-10{fill:#7e348b;}.cls-4{fill:url(#Nowy_wzorek);opacity:.1;}.cls-11{fill:url(#linear-gradient-5);}.cls-7{fill:#010101;stroke-width:.76px;}.cls-12{fill:none;}.cls-13{fill:url(#linear-gradient-7);}.cls-14{fill:url(#linear-gradient-9);}.cls-15{fill:url(#linear-gradient-3);}.cls-16{fill:url(#linear-gradient);}.cls-17{fill:url(#linear-gradient-4);}.cls-18{fill:url(#linear-gradient-8);}</style><linearGradient id="linear-gradient" x1="558.92" y1="-14.2" x2="419.71" y2="125.01" gradientTransform="translate(0 126.27) scale(1 -1)" gradientUnits="userSpaceOnUse"><stop offset="0" stop-color="#9d9d9c"/><stop offset=".54" stop-color="#010101"/><stop offset="1" stop-color="#9d9d9c"/></linearGradient><linearGradient id="linear-gradient-2" x1="489.34" y1="-4.63" x2="489.34" y2="115.43" gradientTransform="translate(0 126.27) scale(1 -1)" gradientUnits="userSpaceOnUse"><stop offset="0" stop-color="#452b1a"/><stop offset="1" stop-color="#b18049"/></linearGradient><linearGradient id="linear-gradient-3" x1="489.32" y1="-2.96" x2="489.32" y2="113.82" gradientTransform="translate(0 126.27) scale(1 -1)" gradientUnits="userSpaceOnUse"><stop offset="0" stop-color="#946137"/><stop offset="1" stop-color="#7f5026"/></linearGradient><pattern id="Nowy_wzorek" x="0" y="0" width="19.7" height="21.7" patternTransform="translate(8.6 -16239.44) scale(1 -1)" patternUnits="userSpaceOnUse" viewBox="0 0 19.7 21.7"><g><rect class="cls-12" width="19.7" height="21.7"/><g><rect class="cls-12" width="19.7" height="21.7"/><g><rect class="cls-12" width="19.7" height="21.7"/><g><rect class="cls-12" width="19.7" height="21.7"/><path class="cls-9" d="M16.6,13c2.1-2.1,2.1-5.6,0-7.7l-1.2-1.2c-2.1-2.1-5.6-2.1-7.8,0L3.1,8.7c-2.1,2.1-2.1,5.6,0,7.7l1.2,1.2c2.1,2.1,5.6,2.1,7.7,0l4.6-4.6Z"/></g></g></g></g></pattern><linearGradient id="linear-gradient-4" x1="504" y1="5.72" x2="504" y2="49.27" gradientTransform="translate(0 125.26) scale(1 -1)" gradientUnits="userSpaceOnUse"><stop offset=".16" stop-color="#813912"/><stop offset=".18" stop-color="#975a19"/><stop offset=".22" stop-color="#ae7d21"/><stop offset=".26" stop-color="#c39d27"/><stop offset=".3" stop-color="#d6b92e"/><stop offset=".35" stop-color="#e4cf35"/><stop offset=".41" stop-color="#efe036"/><stop offset=".48" stop-color="#f6e942"/><stop offset=".58" stop-color="#f8ea48"/><stop offset=".86" stop-color="#f7ea47"/><stop offset="1" stop-color="#fcf4f9"/></linearGradient><linearGradient id="linear-gradient-5" x1="504" y1="51.59" x2="504" y2="-14.98" gradientTransform="translate(0 125.26) scale(1 -1)" gradientUnits="userSpaceOnUse"><stop offset=".26" stop-color="#f7ea47"/><stop offset=".86" stop-color="#803612"/></linearGradient><linearGradient id="linear-gradient-6" x1="504.02" y1="6.32" x2="504.02" y2="48.63" gradientTransform="translate(0 125.26) scale(1 -1)" gradientUnits="userSpaceOnUse"><stop offset=".16" stop-color="#803612"/><stop offset=".17" stop-color="#8b461e"/><stop offset=".18" stop-color="#a26a3b"/><stop offset=".2" stop-color="#b78954"/><stop offset=".22" stop-color="#c7a468"/><stop offset=".24" stop-color="#d7bb7a"/><stop offset=".26" stop-color="#e2cc88"/><stop offset=".3" stop-color="#ead891"/><stop offset=".34" stop-color="#eede97"/><stop offset=".46" stop-color="#efe097"/><stop offset=".7" stop-color="#803612"/><stop offset=".73" stop-color="#e6d234"/><stop offset=".74" stop-color="#ead848"/><stop offset=".75" stop-color="#eede6d"/><stop offset=".77" stop-color="#f1e38b"/><stop offset=".79" stop-color="#f7eaa9"/><stop offset=".8" stop-color="#f8edbf"/><stop offset=".83" stop-color="#faf0cf"/><stop offset=".85" stop-color="#fcf2da"/><stop offset=".89" stop-color="#fdf4e1"/><stop offset=".99" stop-color="#fdf5e3"/></linearGradient><linearGradient id="linear-gradient-7" x1="504" y1="42.43" x2="504" y2="-22.87" gradientTransform="translate(0 125.26) scale(1 -1)" gradientUnits="userSpaceOnUse"><stop offset=".26" stop-color="#f7ea47"/><stop offset=".77" stop-color="#803612"/></linearGradient><linearGradient id="linear-gradient-8" x1="-289.39" y1="-931.71" x2="-258.6" y2="-900.93" gradientTransform="translate(76.78 -797.74) rotate(-45) scale(1 -1)" gradientUnits="userSpaceOnUse"><stop offset="0" stop-color="#1d1327"/><stop offset=".24" stop-color="#372348"/><stop offset=".49" stop-color="#573a6c"/><stop offset=".71" stop-color="#714f8b"/><stop offset=".89" stop-color="#825c9f"/><stop offset="1" stop-color="#8862a6"/></linearGradient><linearGradient id="linear-gradient-9" x1="-326.86" y1="-894.24" x2="-296.08" y2="-863.45" xlink:href="#linear-gradient-8"/></defs><rect class="cls-6" width="566.93" height="141.73"/><g id="prodBg"><rect id="external-border" class="cls-16" x="411.97" y="9" width="154.69" height="123.73"/><rect id="internal-border" class="cls-1" x="413.81" y="10.84" width="151.07" height="120.06"/><rect id="bg" class="cls-15" x="415.42" y="12.45" width="147.8" height="116.78"/><rect id="bgPattern" class="cls-4" x="415.42" y="12.45" width="147.8" height="116.78"/></g><g id="mln"><polygon id="obram_czarne" class="cls-7" points="487.88 74.66 480.88 81.66 480.88 113.86 487.88 120.87 520.12 120.87 527.08 113.86 527.08 81.66 520.12 74.66 487.88 74.66"/><polygon id="obram_zolte" class="cls-17" points="488.79 75.98 482.24 82.57 482.24 112.96 488.79 119.54 519.17 119.54 525.76 112.96 525.76 82.57 519.17 75.98 488.79 75.98"/><polygon id="tlo_wew" class="cls-11" points="489.24 76.63 482.85 83.02 482.85 112.5 489.24 118.9 518.76 118.9 525.15 112.5 525.15 83.02 518.76 76.63 489.24 76.63"/><path id="obram_skosne" class="cls-8" d="M522.09,105.92c-1.17,0-2.12-.95-2.12-2.12v-12.07c0-1.17,.95-2.12,2.12-2.12h3.03v-6.58l-6.36-6.4h-6.62v3.03c0,1.17-.95,2.12-2.12,2.12h-12.07c-1.17,0-2.12-.95-2.12-2.12v-3.03h-6.58l-6.4,6.4v6.62h3.03c1.17,0,2.12,.95,2.12,2.12v12.07c0,1.17-.95,2.12-2.12,2.12h-3.03v6.58l6.4,6.4h6.62v-3.03c0-1.17,.95-2.12,2.12-2.12h12.07c1.17,0,2.12,.95,2.12,2.12v3.03h6.62l6.4-6.4v-6.62h-3.1Z"/><path id="tlo_zew" class="cls-13" d="M521.97,106.64c-1.44,0-2.61-1.44-2.61-2.88v-12c0-1.44,1.17-2.88,2.61-2.88h2.46v-5.37l-6.21-6.17h-5.34v2.46c0,1.44-1.44,2.61-2.88,2.61h-12c-1.44,0-2.88-1.17-2.88-2.61v-2.46h-5.41l-6.17,6.17v5.37h2.46c1.44,0,2.61,1.44,2.61,2.88v12c0,1.44-1.17,2.88-2.61,2.88h-2.46v5.37l6.17,6.17h5.37v-2.46c0-1.44,1.44-2.61,2.88-2.61h11.96c1.44,0,2.88,1.17,2.88,2.61v2.46h5.37l6.17-6.17v-5.37h-2.38Z"/></g><path d="M498.71,107.27v-2.83c1.66,.64,3.05,.96,4.17,.96,1.22,0,2.13-.37,2.73-1.1,.6-.73,.9-1.6,.9-2.59,0-1.26-.5-2.27-1.49-3.04-.99-.77-2.51-1.15-4.55-1.15-.48,0-.95,.04-1.43,.12v-9.8h11.21v3.08h-8.36l-.2,4.21c3.04,0,5.29,.62,6.76,1.87,1.46,1.25,2.19,2.81,2.19,4.68,0,1.74-.65,3.2-1.94,4.38-1.29,1.18-3.21,1.77-5.76,1.77-.62,0-1.17-.03-1.67-.09-.5-.06-1.36-.22-2.58-.48Z"/><path d="M428.35,46.63v-5.42h13.01v5.42h-13.01Z"/><g id="energy"><rect class="cls-3" x="507.87" y="20.83" width="46.2" height="46.2"/><rect class="cls-18" x="509.2" y="22.16" width="43.54" height="43.54"/><polygon class="cls-10" points="550.63 24.27 550.63 63.59 511.31 63.59 511.31 24.27 550.63 24.27"/><polygon class="cls-5" points="526.17 39.43 539.14 31.39 532.21 41.43 535.88 47.4 523.13 55.44 529.54 45.43 526.17 39.43"/><path id="darker" class="cls-2" d="M552.74,65.7h-43.54v-23.86s13.71,2.11,21.75,2.11,21.79-2.11,21.79-2.11v23.86Z"/></g><path d="M457.86,109.1v-9.67h-9.67v-3.97h9.67v-9.67h3.97v9.67h9.67v3.97h-9.67v9.67h-3.97Z"/><g id="energy-2"><rect class="cls-3" x="454.87" y="20.83" width="46.2" height="46.2"/><rect class="cls-14" x="456.2" y="22.16" width="43.54" height="43.54"/><polygon class="cls-10" points="497.63 24.27 497.63 63.59 458.31 63.59 458.31 24.27 497.63 24.27"/><polygon class="cls-5" points="473.17 39.43 486.14 31.39 479.21 41.43 482.88 47.4 470.13 55.44 476.54 45.43 473.17 39.43"/><path id="darker-2" class="cls-2" d="M499.74,65.7h-43.54v-23.86s13.71,2.11,21.75,2.11,21.79-2.11,21.79-2.11v23.86Z"/></g></svg>