<?xml version="1.0" encoding="UTF-8"?><svg id="Layer" xmlns="http://www.w3.org/2000/svg" xmlns:xlink="http://www.w3.org/1999/xlink" viewBox="0 0 566.93 141.73"><defs><style>.cls-1{fill:url(#linear-gradient-2);}.cls-2{opacity:.15;}.cls-2,.cls-3{fill:#020303;}.cls-2,.cls-4{isolation:isolate;}.cls-5{stroke:#020303;stroke-miterlimit:10;stroke-width:.37px;}.cls-5,.cls-6{fill:#fff;}.cls-6{opacity:0;}.cls-7{fill:#1f1f1d;}.cls-8{fill:#7e348b;}.cls-4{fill:url(#Nowy_wzorek);opacity:.1;}.cls-9{fill:none;}.cls-10{fill:url(#linear-gradient-3);}.cls-11{fill:url(#linear-gradient);}.cls-12{fill:url(#linear-gradient-4);}</style><linearGradient id="linear-gradient" x1="566.43" y1="20.69" x2="496.3" y2="90.82" gradientTransform="translate(0 126.27) scale(1 -1)" gradientUnits="userSpaceOnUse"><stop offset="0" stop-color="#9d9d9c"/><stop offset=".54" stop-color="#010101"/><stop offset="1" stop-color="#9d9d9c"/></linearGradient><linearGradient id="linear-gradient-2" x1="531.39" y1="22.76" x2="531.39" y2="88.75" gradientTransform="translate(0 126.27) scale(1 -1)" gradientUnits="userSpaceOnUse"><stop offset="0" stop-color="#452b1a"/><stop offset="1" stop-color="#b18049"/></linearGradient><linearGradient id="linear-gradient-3" x1="531.36" y1="24.42" x2="531.36" y2="87.14" gradientTransform="translate(0 126.27) scale(1 -1)" gradientUnits="userSpaceOnUse"><stop offset="0" stop-color="#946137"/><stop offset="1" stop-color="#7f5026"/></linearGradient><pattern id="Nowy_wzorek" x="0" y="0" width="19.7" height="21.7" patternTransform="translate(8.6 -16239.44) scale(1 -1)" patternUnits="userSpaceOnUse" viewBox="0 0 19.7 21.7"><g><rect class="cls-9" width="19.7" height="21.7"/><g><rect class="cls-9" width="19.7" height="21.7"/><g><rect class="cls-9" width="19.7" height="21.7"/><g><rect class="cls-9" width="19.7" height="21.7"/><path class="cls-7" d="M16.6,13c2.1-2.1,2.1-5.6,0-7.7l-1.2-1.2c-2.1-2.1-5.6-2.1-7.8,0L3.1,8.7c-2.1,2.1-2.1,5.6,0,7.7l1.2,1.2c2.1,2.1,5.6,2.1,7.7,0l4.6-4.6Z"/></g></g></g></g></pattern><linearGradient id="linear-gradient-4" x1="-307.59" y1="-950.76" x2="-276.81" y2="-919.97" gradientTransform="translate(76.78 -797.74) rotate(-45) scale(1 -1)" gradientUnits="userSpaceOnUse"><stop offset="0" stop-color="#1d1327"/><stop offset=".24" stop-color="#372348"/><stop offset=".49" stop-color="#573a6c"/><stop offset=".71" stop-color="#714f8b"/><stop offset=".89" stop-color="#825c9f"/><stop offset="1" stop-color="#8862a6"/></linearGradient></defs><rect class="cls-6" width="566.93" height="141.73"/><g id="prodBg"><rect id="external-border" class="cls-11" x="496.07" y="35.68" width="70.59" height="69.66"/><rect id="internal-border" class="cls-1" x="497.9" y="37.52" width="66.98" height="65.99"/><rect id="bg" class="cls-10" x="499.51" y="39.13" width="63.7" height="62.71"/><rect id="bgPattern" class="cls-4" x="499.51" y="39.13" width="63.7" height="62.71"/></g><g id="energy"><rect class="cls-3" x="508.46" y="47.17" width="46.2" height="46.2"/><rect class="cls-12" x="509.79" y="48.5" width="43.54" height="43.54"/><polygon class="cls-8" points="551.22 50.61 551.22 89.93 511.9 89.93 511.9 50.61 551.22 50.61"/><polygon class="cls-5" points="526.76 65.77 539.73 57.73 532.8 67.77 536.47 73.74 523.72 81.78 530.13 71.77 526.76 65.77"/><path id="darker" class="cls-2" d="M553.33,92.04h-43.54v-23.86s13.71,2.11,21.75,2.11,21.79-2.11,21.79-2.11v23.86Z"/></g></svg>