<?xml version="1.0" encoding="UTF-8"?><svg id="Layer" xmlns="http://www.w3.org/2000/svg" xmlns:xlink="http://www.w3.org/1999/xlink" viewBox="0 0 566.93 141.73"><defs><style>.cls-1{fill:url(#linear-gradient-2);}.cls-2,.cls-3{fill:#020303;}.cls-4{fill:#e52922;}.cls-5{fill:#fff;opacity:0;}.cls-6{fill:#1f1f1d;}.cls-3{opacity:.05;}.cls-3,.cls-7{isolation:isolate;}.cls-7{fill:url(#Nowy_wzorek);opacity:.1;}.cls-8{fill:none;}.cls-9{fill:#ffd110;}.cls-10{fill:url(#linear-gradient-3);}.cls-11{fill:url(#linear-gradient);}.cls-12{fill:url(#linear-gradient-4);}</style><linearGradient id="linear-gradient" x1="560.98" y1="15.24" x2="479.95" y2="96.27" gradientTransform="translate(0 126.27) scale(1 -1)" gradientUnits="userSpaceOnUse"><stop offset="0" stop-color="#9d9d9c"/><stop offset=".54" stop-color="#010101"/><stop offset="1" stop-color="#9d9d9c"/></linearGradient><linearGradient id="linear-gradient-2" x1="520.49" y1="22.76" x2="520.49" y2="88.75" gradientTransform="translate(0 126.27) scale(1 -1)" gradientUnits="userSpaceOnUse"><stop offset="0" stop-color="#452b1a"/><stop offset="1" stop-color="#b18049"/></linearGradient><linearGradient id="linear-gradient-3" x1="520.46" y1="24.42" x2="520.46" y2="87.14" gradientTransform="translate(0 126.27) scale(1 -1)" gradientUnits="userSpaceOnUse"><stop offset="0" stop-color="#946137"/><stop offset="1" stop-color="#7f5026"/></linearGradient><pattern id="Nowy_wzorek" x="0" y="0" width="19.7" height="21.7" patternTransform="translate(8.6 -16239.44) scale(1 -1)" patternUnits="userSpaceOnUse" viewBox="0 0 19.7 21.7"><g><rect class="cls-8" width="19.7" height="21.7"/><g><rect class="cls-8" width="19.7" height="21.7"/><g><rect class="cls-8" width="19.7" height="21.7"/><g><rect class="cls-8" width="19.7" height="21.7"/><path class="cls-6" d="M16.6,13c2.1-2.1,2.1-5.6,0-7.7l-1.2-1.2c-2.1-2.1-5.6-2.1-7.8,0L3.1,8.7c-2.1,2.1-2.1,5.6,0,7.7l1.2,1.2c2.1,2.1,5.6,2.1,7.7,0l4.6-4.6Z"/></g></g></g></g></pattern><linearGradient id="linear-gradient-4" x1="-307.39" y1="1092.52" x2="-276.61" y2="1061.74" gradientTransform="translate(-23.11 -897.62) rotate(-45)" gradientUnits="userSpaceOnUse"><stop offset="0" stop-color="#951917"/><stop offset=".21" stop-color="#b9231c"/><stop offset=".47" stop-color="#e52922"/><stop offset=".55" stop-color="#e62d28"/><stop offset=".84" stop-color="#e7393a"/><stop offset="1" stop-color="#e83e41"/></linearGradient></defs><rect class="cls-5" width="566.93" height="141.73"/><g id="prodBg"><rect id="external-border" class="cls-11" x="474.26" y="35.68" width="92.4" height="69.66"/><rect id="internal-border" class="cls-1" x="476.1" y="37.52" width="88.78" height="65.99"/><rect id="bg" class="cls-10" x="477.71" y="39.13" width="85.5" height="62.71"/><rect id="bgPattern" class="cls-7" x="477.71" y="39.13" width="85.5" height="62.71"/></g><g id="heat"><rect class="cls-2" x="508.96" y="47.38" width="46.2" height="46.2"/><rect class="cls-12" x="510.29" y="48.72" width="43.54" height="43.54"/><rect class="cls-4" x="512.4" y="50.83" width="39.31" height="39.31"/><path id="darker" class="cls-3" d="M553.83,92.26h-43.54v-23.86s13.71,2.11,21.75,2.11,21.79-2.11,21.79-2.11v23.86Z"/><g><polygon class="cls-9" points="527.15 72.51 522.19 68.21 522.19 68.21 522.19 55.09 517.22 68.47 522.22 72.69 522.22 72.69 522.19 85.88 527.15 72.51"/><polygon class="cls-9" points="537.04 72.51 532.08 68.21 532.04 68.21 532.08 55.09 527.11 68.47 532.08 72.69 532.08 72.69 532.08 85.88 537.04 72.51"/><polygon class="cls-9" points="547.2 72.51 542.23 68.21 542.2 68.21 542.23 55.09 537.27 68.47 542.23 72.69 542.23 72.69 542.23 85.88 547.2 72.51"/></g></g><path d="M494.95,79.72v-5.21h-9.11v-2.93l8.95-11.38h3.57v11.38h2.28v2.93h-2.28v5.21h-3.41Zm-5.99-8.13h6.07v-7.65l-6.07,7.65Z"/></svg>