<?xml version="1.0" encoding="UTF-8"?><svg id="Layer" xmlns="http://www.w3.org/2000/svg" xmlns:xlink="http://www.w3.org/1999/xlink" viewBox="0 0 566.93 141.73"><defs><style>.cls-1{fill:url(#linear-gradient-2);}.cls-2{fill:#010101;stroke:#020303;stroke-miterlimit:10;stroke-width:.76px;}.cls-3,.cls-4{fill:#020303;}.cls-5{fill:url(#linear-gradient-6);}.cls-6{fill:#946137;}.cls-7{fill:#1f1f1d;}.cls-8{fill:#452b1a;}.cls-9{fill:url(#Nowy_wzorek_2);opacity:.1;}.cls-9,.cls-4{isolation:isolate;}.cls-10{fill:url(#linear-gradient-5);}.cls-11{fill:none;}.cls-4{opacity:.08;}.cls-12{fill:url(#linear-gradient-7);}.cls-13{fill:rgba(255,255,255,0);opacity:0;}.cls-14{fill:url(#linear-gradient-3);}.cls-15{fill:url(#linear-gradient);}.cls-16{fill:url(#linear-gradient-4);}.cls-17{fill:url(#linear-gradient-8);}</style><linearGradient id="linear-gradient" x1="541.74" y1="-240.34" x2="422.24" y2="-120.84" gradientTransform="translate(0 -109.73) scale(1 -1)" gradientUnits="userSpaceOnUse"><stop offset="0" stop-color="#9d9d9c"/><stop offset=".54" stop-color="#010101"/><stop offset="1" stop-color="#9d9d9c"/></linearGradient><linearGradient id="linear-gradient-2" x1="482.02" y1="-213.59" x2="482.02" y2="-147.6" gradientTransform="translate(0 -109.73) scale(1 -1)" gradientUnits="userSpaceOnUse"><stop offset="0" stop-color="#452b1a"/><stop offset="1" stop-color="#b18049"/></linearGradient><linearGradient id="linear-gradient-3" x1="481.98" y1="-211.92" x2="481.98" y2="-149.21" gradientTransform="translate(0 -109.73) scale(1 -1)" gradientUnits="userSpaceOnUse"><stop offset="0" stop-color="#946137"/><stop offset="1" stop-color="#7f5026"/></linearGradient><pattern id="Nowy_wzorek_2" x="0" y="0" width="19.7" height="21.7" patternTransform="translate(-352.92 -32720.44) scale(1 -1)" patternUnits="userSpaceOnUse" viewBox="0 0 19.7 21.7"><g><rect class="cls-11" width="19.7" height="21.7"/><g><rect class="cls-11" width="19.7" height="21.7"/><g><rect class="cls-11" width="19.7" height="21.7"/><g><rect class="cls-11" width="19.7" height="21.7"/><g><rect class="cls-11" width="19.7" height="21.7"/><g><rect class="cls-11" width="19.7" height="21.7"/><path class="cls-7" d="M16.6,13c2.1-2.1,2.1-5.6,0-7.7l-1.2-1.2c-2.1-2.1-5.6-2.1-7.8,0L3.1,8.7c-2.1,2.1-2.1,5.6,0,7.7l1.2,1.2c2.1,2.1,5.6,2.1,7.7,0l4.6-4.6Z"/></g></g></g></g></g></g></pattern><linearGradient id="linear-gradient-4" x1="531.64" y1="415.5" x2="531.64" y2="372.68" gradientTransform="translate(0 -323.36)" gradientUnits="userSpaceOnUse"><stop offset="0" stop-color="#452b1a"/><stop offset=".03" stop-color="#462c1a"/><stop offset=".05" stop-color="#4c2e19"/><stop offset=".07" stop-color="#563519"/><stop offset=".08" stop-color="#653d17"/><stop offset=".08" stop-color="#683e15"/><stop offset=".31" stop-color="#76481e"/><stop offset=".75" stop-color="#8c5a31"/><stop offset="1" stop-color="#946137"/></linearGradient><linearGradient id="linear-gradient-5" x1="434.88" y1="-203.35" x2="434.88" y2="-159.8" gradientTransform="translate(0 -110.74) scale(1 -1)" gradientUnits="userSpaceOnUse"><stop offset=".16" stop-color="#813912"/><stop offset=".18" stop-color="#975a19"/><stop offset=".22" stop-color="#ae7d21"/><stop offset=".26" stop-color="#c39d27"/><stop offset=".3" stop-color="#d6b92e"/><stop offset=".35" stop-color="#e4cf35"/><stop offset=".41" stop-color="#efe036"/><stop offset=".48" stop-color="#f6e942"/><stop offset=".58" stop-color="#f8ea48"/><stop offset=".86" stop-color="#f7ea47"/><stop offset="1" stop-color="#fcf4f9"/></linearGradient><linearGradient id="linear-gradient-6" x1="434.88" y1="-157.48" x2="434.88" y2="-224.05" gradientTransform="translate(0 -110.74) scale(1 -1)" gradientUnits="userSpaceOnUse"><stop offset=".26" stop-color="#f7ea47"/><stop offset=".86" stop-color="#803612"/></linearGradient><linearGradient id="linear-gradient-7" x1="434.9" y1="-202.75" x2="434.9" y2="-160.44" gradientTransform="translate(0 -110.74) scale(1 -1)" gradientUnits="userSpaceOnUse"><stop offset=".16" stop-color="#803612"/><stop offset=".17" stop-color="#8b461e"/><stop offset=".18" stop-color="#a26a3b"/><stop offset=".2" stop-color="#b78954"/><stop offset=".22" stop-color="#c7a468"/><stop offset=".24" stop-color="#d7bb7a"/><stop offset=".26" stop-color="#e2cc88"/><stop offset=".3" stop-color="#ead891"/><stop offset=".34" stop-color="#eede97"/><stop offset=".46" stop-color="#efe097"/><stop offset=".7" stop-color="#803612"/><stop offset=".73" stop-color="#e6d234"/><stop offset=".74" stop-color="#ead848"/><stop offset=".75" stop-color="#eede6d"/><stop offset=".77" stop-color="#f1e38b"/><stop offset=".79" stop-color="#f7eaa9"/><stop offset=".8" stop-color="#f8edbf"/><stop offset=".83" stop-color="#faf0cf"/><stop offset=".85" stop-color="#fcf2da"/><stop offset=".89" stop-color="#fdf4e1"/><stop offset=".99" stop-color="#fdf5e3"/></linearGradient><linearGradient id="linear-gradient-8" x1="434.87" y1="-166.65" x2="434.87" y2="-231.95" gradientTransform="translate(0 -110.74) scale(1 -1)" gradientUnits="userSpaceOnUse"><stop offset=".26" stop-color="#f7ea47"/><stop offset=".77" stop-color="#803612"/></linearGradient></defs><rect class="cls-13" width="566.93" height="141.73"/><g id="prodBg"><rect id="external-border" class="cls-15" x="397.32" y="36.03" width="169.34" height="69.66"/><rect id="internal-border" class="cls-1" x="399.16" y="37.87" width="165.72" height="65.99"/><rect id="bg" class="cls-14" x="400.76" y="39.48" width="162.45" height="62.71"/><rect id="bgPattern" class="cls-9" x="400.76" y="39.48" width="162.45" height="62.71"/></g><g id="tagBuilding"><path class="cls-3" d="M554.7,70.75c0,12.74-10.36,23.1-23.1,23.1s-23.1-10.36-23.1-23.1,10.36-23.1,23.1-23.1,23.1,10.32,23.1,23.1Z"/><path class="cls-16" d="M553.03,70.75c0,11.81-9.58,21.39-21.39,21.39s-21.39-9.58-21.39-21.39,9.54-21.43,21.35-21.43,21.43,9.58,21.43,21.43h0Z"/><path class="cls-6" d="M550.94,70.75c0,10.66-8.64,19.34-19.34,19.34s-19.3-8.68-19.3-19.34,8.64-19.34,19.34-19.34,19.3,8.64,19.3,19.34Z"/><polygon class="cls-8" points="547.55 76.9 515.69 76.9 515.69 68.18 531.6 59.46 547.55 68.18 547.55 76.9"/><path id="darker" class="cls-4" d="M553.03,70.75c0-.45,0-.86-.04-1.27-4.32,1.19-11.74,2.72-21.35,2.72s-16.81-1.9-21.31-3.47c-.07,.67-.11,1.34-.11,2.01,0,11.81,9.58,21.39,21.39,21.39s21.43-9.58,21.43-21.39h0Z"/></g><path d="M490.51,79.24v-3.08c1.18-1.58,2.32-2.86,3.42-3.82l1.59-1.41c1.14-1.01,2.08-2.01,2.83-3s1.12-2.02,1.12-3.1c0-.98-.31-1.73-.94-2.26s-1.48-.8-2.55-.8c-1.42,0-3.08,.48-4.97,1.45v-2.86c1.98-.74,3.9-1.11,5.75-1.11,2.05,0,3.7,.49,4.96,1.47s1.89,2.29,1.89,3.94c0,1.04-.27,2.02-.8,2.93-.53,.92-1.64,2.05-3.31,3.41l-1.32,1.05c-.58,.47-1.21,1.06-1.9,1.79s-1.14,1.5-1.36,2.32h8.61v3.08h-13.02Z"/><path d="M466.54,83.55l12.85-27.47h3.3l-12.85,27.47h-3.3Z"/><g id="mln"><polygon id="obram_czarne" class="cls-2" points="418.76 47.73 411.76 54.73 411.76 86.94 418.76 93.94 451 93.94 457.96 86.94 457.96 54.73 451 47.73 418.76 47.73"/><polygon id="obram_zolte" class="cls-10" points="419.67 49.06 413.12 55.64 413.12 86.03 419.67 92.61 450.06 92.61 456.64 86.03 456.64 55.64 450.06 49.06 419.67 49.06"/><polygon id="tlo_wew" class="cls-5" points="420.12 49.7 413.73 56.1 413.73 85.58 420.12 91.97 449.64 91.97 456.03 85.58 456.03 56.1 449.64 49.7 420.12 49.7"/><path id="obram_skosne" class="cls-12" d="M452.97,78.99c-1.17,0-2.12-.95-2.12-2.12v-12.07c0-1.17,.95-2.12,2.12-2.12h3.03v-6.58l-6.36-6.4h-6.62v3.03c0,1.17-.95,2.12-2.12,2.12h-12.07c-1.17,0-2.12-.95-2.12-2.12v-3.03h-6.58l-6.4,6.4v6.62h3.03c1.17,0,2.12,.95,2.12,2.12v12.07c0,1.17-.95,2.12-2.12,2.12h-3.03v6.58l6.4,6.4h6.62v-3.03c0-1.17,.95-2.12,2.12-2.12h12.07c1.17,0,2.12,.95,2.12,2.12v3.03h6.62l6.4-6.4v-6.62h-3.11Z"/><path id="tlo_zew" class="cls-17" d="M452.86,79.71c-1.44,0-2.61-1.44-2.61-2.88v-12c0-1.44,1.17-2.88,2.61-2.88h2.46v-5.37l-6.21-6.17h-5.34v2.46c0,1.44-1.44,2.61-2.88,2.61h-12c-1.44,0-2.88-1.17-2.88-2.61v-2.46h-5.41l-6.17,6.17v5.37h2.46c1.44,0,2.61,1.44,2.61,2.88v12c0,1.44-1.17,2.88-2.61,2.88h-2.46v5.37l6.17,6.17h5.37v-2.46c0-1.44,1.44-2.61,2.88-2.61h11.96c1.44,0,2.88,1.17,2.88,2.61v2.46h5.37l6.17-6.17v-5.37h-2.37Z"/></g><path d="M433.64,79.21v-17.24h-2.61l-.08-1.95,6.59-.57v19.76h-3.9Z"/></svg>