<?xml version="1.0" encoding="UTF-8"?><svg id="Layer" xmlns="http://www.w3.org/2000/svg" xmlns:xlink="http://www.w3.org/1999/xlink" viewBox="0 0 566.93 141.73"><defs><style>.cls-1{fill:url(#linear-gradient-2);}.cls-2,.cls-3{fill:#020303;}.cls-4{fill:#fff;opacity:0;}.cls-3{opacity:.64;}.cls-3,.cls-5{isolation:isolate;}.cls-6{fill:#1f1f1d;}.cls-5{fill:url(#Nowy_wzorek);opacity:.1;}.cls-7{fill:#50504f;}.cls-8,.cls-9{fill:none;}.cls-10{fill:url(#linear-gradient-3);}.cls-11{fill:url(#linear-gradient);}.cls-12{fill:url(#linear-gradient-4);}.cls-9{stroke:#ffd80c;stroke-miterlimit:10;stroke-width:1.85px;}</style><linearGradient id="linear-gradient" x1="566.44" y1="20.7" x2="496.34" y2="90.8" gradientTransform="translate(0 126.27) scale(1 -1)" gradientUnits="userSpaceOnUse"><stop offset="0" stop-color="#9d9d9c"/><stop offset=".54" stop-color="#010101"/><stop offset="1" stop-color="#9d9d9c"/></linearGradient><linearGradient id="linear-gradient-2" x1="531.42" y1="22.76" x2="531.42" y2="88.75" gradientTransform="translate(0 126.27) scale(1 -1)" gradientUnits="userSpaceOnUse"><stop offset="0" stop-color="#452b1a"/><stop offset="1" stop-color="#b18049"/></linearGradient><linearGradient id="linear-gradient-3" x1="531.39" y1="24.42" x2="531.39" y2="87.14" gradientTransform="translate(0 126.27) scale(1 -1)" gradientUnits="userSpaceOnUse"><stop offset="0" stop-color="#946137"/><stop offset="1" stop-color="#7f5026"/></linearGradient><pattern id="Nowy_wzorek" x="0" y="0" width="19.7" height="21.7" patternTransform="translate(8.6 -16239.44) scale(1 -1)" patternUnits="userSpaceOnUse" viewBox="0 0 19.7 21.7"><g><rect class="cls-8" width="19.7" height="21.7"/><g><rect class="cls-8" width="19.7" height="21.7"/><g><rect class="cls-8" width="19.7" height="21.7"/><g><rect class="cls-8" width="19.7" height="21.7"/><path class="cls-6" d="M16.6,13c2.1-2.1,2.1-5.6,0-7.7l-1.2-1.2c-2.1-2.1-5.6-2.1-7.8,0L3.1,8.7c-2.1,2.1-2.1,5.6,0,7.7l1.2,1.2c2.1,2.1,5.6,2.1,7.7,0l4.6-4.6Z"/></g></g></g></g></pattern><linearGradient id="linear-gradient-4" x1="-307.78" y1="-951.41" x2="-277" y2="-920.62" gradientTransform="translate(76.78 -797.74) rotate(-45) scale(1 -1)" gradientUnits="userSpaceOnUse"><stop offset="0" stop-color="#020303"/><stop offset="1" stop-color="#797879"/></linearGradient></defs><rect class="cls-4" width="566.93" height="141.73"/><g id="prodBg"><rect id="external-border" class="cls-11" x="496.12" y="35.68" width="70.54" height="69.66"/><rect id="internal-border" class="cls-1" x="497.96" y="37.52" width="66.92" height="65.99"/><rect id="bg" class="cls-10" x="499.57" y="39.13" width="63.65" height="62.71"/><rect id="bgPattern" class="cls-5" x="499.57" y="39.13" width="63.65" height="62.71"/></g><g id="titan"><rect class="cls-2" x="508.78" y="47.76" width="46.2" height="46.2"/><rect class="cls-12" x="510.12" y="49.1" width="43.54" height="43.54"/><rect class="cls-7" x="512.23" y="51.21" width="39.31" height="39.31"/><path id="darker" class="cls-3" d="M553.65,92.63h-43.54v-23.86s13.71,2.11,21.75,2.11,21.79-2.11,21.79-2.11v23.86Z"/><polygon class="cls-9" points="532.13 58.03 536.24 66.66 545.72 67.88 538.76 74.44 540.54 83.82 532.13 79.22 523.75 83.82 525.53 74.44 518.56 67.88 528.05 66.66 532.13 58.03"/></g></svg>