<?xml version="1.0" encoding="UTF-8"?><svg id="a" xmlns="http://www.w3.org/2000/svg" xmlns:xlink="http://www.w3.org/1999/xlink" viewBox="0 0 229.89 660.87"><defs><style>.d{fill:#1d1d1b;stroke-width:3.28px;}.d,.e{stroke:#43b284;stroke-linecap:round;stroke-miterlimit:10;}.f{fill:url(#b);}.g{fill:url(#c);}.e{fill:none;stroke-width:4px;}</style><linearGradient id="b" x1="116.49" y1="329.98" x2="116.49" y2="20.45" gradientTransform="translate(228.9) rotate(-180) scale(1 -1)" gradientUnits="userSpaceOnUse"><stop offset="0" stop-color="#43b285" stop-opacity="0"/><stop offset="1" stop-color="#43b285"/></linearGradient><linearGradient id="c" x1="116.49" y1="11.57" x2="116.49" y2="-297.96" gradientTransform="translate(228.9 341.55) rotate(-180)" xlink:href="#b"/></defs><polyline class="d" points="71.26 329.98 227.26 12.7 157.63 12.7 1.64 329.98"/><polygon class="f" points="62.35 329.98 214.82 20.45 162.46 20.45 9.99 329.98 62.35 329.98"/><polyline class="d" points="71.26 329.98 227.26 647.25 157.63 647.25 1.64 329.98"/><polygon class="g" points="62.35 329.98 214.82 639.51 162.46 639.51 9.99 329.98 62.35 329.98"/><line class="e" x1="72.85" y1="2" x2="32.5" y2="2"/><line class="e" x1="32.5" y1="2" x2="32.5" y2="43.8"/><line class="e" x1="72.85" y1="658.87" x2="32.5" y2="658.87"/><line class="e" x1="32.5" y1="658.87" x2="32.5" y2="617.07"/></svg>