<?xml version="1.0" encoding="utf-8"?>
<!-- Generator: Adobe Illustrator 26.3.1, SVG Export Plug-In . SVG Version: 6.00 Build 0)  -->
<svg version="1.1" id="Layer_1" xmlns="http://www.w3.org/2000/svg" xmlns:xlink="http://www.w3.org/1999/xlink" x="0px" y="0px"
	 viewBox="0 0 830.2 141.7" style="enable-background:new 0 0 830.2 141.7;" xml:space="preserve">
<style type="text/css">
	.st0{fill:#8C8C8B;}
	.st1{fill:#4A4A4A;}
	.st2{fill:#FFFFFF;}
</style>
<path class="st0" d="M758.9,141.7H71.1c-6.1,0-11.8-3.5-14.5-9L1.8,23.5C-3.7,12.7,4.2,0,16.3,0H814c12.1,0,20,12.8,14.5,23.6
	l-55.1,109.2C770.6,138.3,765,141.7,758.9,141.7L758.9,141.7z"/>
<path class="st1" d="M758.9,141.7H71.1c-6.1,0-11.8-3.5-14.5-9L1.8,23.5C-3.7,12.7,4.2,0,16.3,0H814c12.1,0,20,12.8,14.5,23.6
	l-55.1,109.2C770.6,138.3,765,141.7,758.9,141.7L758.9,141.7z"/>
<path class="st2" d="M71.1,127.6c-0.8,0-1.5-0.4-1.8-1.1L14.4,17.2c-0.1-0.3-0.5-1,0.1-2c0.6-1,1.5-1,1.8-1H814c0.3,0,1.2,0,1.8,1
	c0.6,1,0.2,1.8,0.1,2l-55.1,109.2c-0.3,0.7-1.1,1.1-1.8,1.1L71.1,127.6L71.1,127.6z"/>
<polygon class="st1" points="73.3,121.9 22.1,19.8 808.1,19.8 756.7,121.9 "/>
</svg>
