<?xml version="1.0" encoding="utf-8"?>
<!-- Generator: Adobe Illustrator 27.5.0, SVG Export Plug-In . SVG Version: 6.00 Build 0)  -->
<svg version="1.1" id="tempIcon" xmlns="http://www.w3.org/2000/svg" xmlns:xlink="http://www.w3.org/1999/xlink" x="0px" y="0px"
	 viewBox="0 0 50.1 70.9" style="enable-background:new 0 0 50.1 70.9;" xml:space="preserve">
<style type="text/css">
	.st0{fill:url(#SVGID_1_);stroke:#020203;stroke-width:0.9408;stroke-miterlimit:10;}
	.st1{fill:none;stroke:#FFFFFF;stroke-width:0.9408;stroke-miterlimit:10;}
	.st2{opacity:0.5;fill:url(#SVGID_00000172405234792427343220000010638974779521595541_);enable-background:new    ;}
</style>
<g id="tempIcon_00000066476058545224329050000013774265875060671415_">
	
		<linearGradient id="SVGID_1_" gradientUnits="userSpaceOnUse" x1="25.1" y1="-65.9079" x2="25.1" y2="0.3921" gradientTransform="matrix(1 0 0 -1 0 2.9921)">
		<stop  offset="8.013940e-02" style="stop-color:#3FC0F0"/>
		<stop  offset="0.1462" style="stop-color:#50A4D3"/>
		<stop  offset="0.2266" style="stop-color:#5C83B3"/>
		<stop  offset="0.3014" style="stop-color:#62689A"/>
		<stop  offset="0.3681" style="stop-color:#65548A"/>
		<stop  offset="0.4244" style="stop-color:#66477F"/>
		<stop  offset="0.4634" style="stop-color:#66437C"/>
		<stop  offset="0.5543" style="stop-color:#8E3C5F"/>
		<stop  offset="0.67" style="stop-color:#B52E3A"/>
		<stop  offset="0.753" style="stop-color:#CB1D21"/>
		<stop  offset="0.7944" style="stop-color:#D41216"/>
	</linearGradient>
	<path class="st0" d="M29.5,51.3V7c0-2.4-2-4.4-4.4-4.4s-4.4,2-4.4,4.4v44.2c-2.9,1.6-5,4.7-5,8.3c0,5.2,4.2,9.4,9.4,9.4
		s9.4-4.2,9.4-9.4C34.5,55.9,32.5,52.8,29.5,51.3z"/>
	<line class="st1" x1="23.2" y1="12.2" x2="27.1" y2="12.2"/>
	<line class="st1" x1="23.2" y1="24.5" x2="27.1" y2="24.5"/>
	<line class="st1" x1="23.2" y1="35.7" x2="27.1" y2="35.7"/>
	<line class="st1" x1="23.2" y1="46.1" x2="27.1" y2="46.1"/>
	<line class="st1" x1="23.2" y1="59.3" x2="27.1" y2="59.3"/>
	
		<linearGradient id="SVGID_00000044890400331459984560000013647180935231193020_" gradientUnits="userSpaceOnUse" x1="22.3895" y1="-54.0974" x2="18.8156" y2="-50.5234" gradientTransform="matrix(1 0 0 -1 0 2.9921)">
		<stop  offset="0" style="stop-color:#1E1E1C;stop-opacity:0"/>
		<stop  offset="1" style="stop-color:#FFFFFF"/>
	</linearGradient>
	<path style="opacity:0.5;fill:url(#SVGID_00000044890400331459984560000013647180935231193020_);enable-background:new    ;" d="
		M22.4,57C21,58.5,19,58.8,18,57.9c-1-1-0.6-3,0.8-4.4s3.4-1.8,4.4-0.8S23.9,55.6,22.4,57z"/>
</g>
</svg>
