<?xml version="1.0" encoding="UTF-8"?><svg id="Layer" xmlns="http://www.w3.org/2000/svg" xmlns:xlink="http://www.w3.org/1999/xlink" viewBox="0 0 566.93 141.73"><defs><style>.cls-1{fill:url(#linear-gradient-2);}.cls-2{opacity:.15;}.cls-2,.cls-3,.cls-4{fill:#020303;}.cls-2,.cls-4,.cls-5{isolation:isolate;}.cls-6{stroke:#020303;stroke-width:.37px;}.cls-6,.cls-7{fill:#fff;}.cls-6,.cls-8{stroke-miterlimit:10;}.cls-7{opacity:0;}.cls-9{fill:url(#linear-gradient-6);}.cls-10{fill:#1f1f1d;}.cls-11{fill:#7e348b;}.cls-4{opacity:.05;}.cls-5{fill:url(#Nowy_wzorek);opacity:.1;}.cls-8{fill:#07562a;stroke:#1c4421;stroke-width:1.48px;}.cls-12{fill:#44ac36;}.cls-13{fill:url(#linear-gradient-5);}.cls-14{fill:none;}.cls-15{fill:url(#linear-gradient-3);}.cls-16{fill:url(#linear-gradient);}.cls-17{fill:url(#linear-gradient-4);}</style><linearGradient id="linear-gradient" x1="558.92" y1="-14.2" x2="419.71" y2="125.01" gradientTransform="translate(0 126.27) scale(1 -1)" gradientUnits="userSpaceOnUse"><stop offset="0" stop-color="#9d9d9c"/><stop offset=".54" stop-color="#010101"/><stop offset="1" stop-color="#9d9d9c"/></linearGradient><linearGradient id="linear-gradient-2" x1="489.34" y1="-4.63" x2="489.34" y2="115.43" gradientTransform="translate(0 126.27) scale(1 -1)" gradientUnits="userSpaceOnUse"><stop offset="0" stop-color="#452b1a"/><stop offset="1" stop-color="#b18049"/></linearGradient><linearGradient id="linear-gradient-3" x1="489.32" y1="-2.96" x2="489.32" y2="113.82" gradientTransform="translate(0 126.27) scale(1 -1)" gradientUnits="userSpaceOnUse"><stop offset="0" stop-color="#946137"/><stop offset="1" stop-color="#7f5026"/></linearGradient><pattern id="Nowy_wzorek" x="0" y="0" width="19.7" height="21.7" patternTransform="translate(8.6 -16239.44) scale(1 -1)" patternUnits="userSpaceOnUse" viewBox="0 0 19.7 21.7"><g><rect class="cls-14" width="19.7" height="21.7"/><g><rect class="cls-14" width="19.7" height="21.7"/><g><rect class="cls-14" width="19.7" height="21.7"/><g><rect class="cls-14" width="19.7" height="21.7"/><path class="cls-10" d="M16.6,13c2.1-2.1,2.1-5.6,0-7.7l-1.2-1.2c-2.1-2.1-5.6-2.1-7.8,0L3.1,8.7c-2.1,2.1-2.1,5.6,0,7.7l1.2,1.2c2.1,2.1,5.6,2.1,7.7,0l4.6-4.6Z"/></g></g></g></g></pattern><linearGradient id="linear-gradient-4" x1="-346.56" y1="1092.03" x2="-315.77" y2="1061.25" gradientTransform="translate(-23.11 -897.62) rotate(-45)" gradientUnits="userSpaceOnUse"><stop offset="0" stop-color="#0c6835"/><stop offset=".04" stop-color="#0a6b36"/><stop offset=".08" stop-color="#047638"/><stop offset=".13" stop-color="#078738"/><stop offset=".15" stop-color="#058f39"/><stop offset=".35" stop-color="#34993d"/><stop offset=".76" stop-color="#5eaf47"/><stop offset="1" stop-color="#6eb74a"/></linearGradient><linearGradient id="linear-gradient-5" x1="-289.39" y1="-931.71" x2="-258.6" y2="-900.93" gradientTransform="translate(76.78 -797.74) rotate(-45) scale(1 -1)" gradientUnits="userSpaceOnUse"><stop offset="0" stop-color="#1d1327"/><stop offset=".24" stop-color="#372348"/><stop offset=".49" stop-color="#573a6c"/><stop offset=".71" stop-color="#714f8b"/><stop offset=".89" stop-color="#825c9f"/><stop offset="1" stop-color="#8862a6"/></linearGradient><linearGradient id="linear-gradient-6" x1="-326.86" y1="-894.24" x2="-296.08" y2="-863.45" xlink:href="#linear-gradient-5"/></defs><rect class="cls-7" width="566.93" height="141.73"/><g id="prodBg"><rect id="external-border" class="cls-16" x="411.97" y="9" width="154.69" height="123.73"/><rect id="internal-border" class="cls-1" x="413.81" y="10.84" width="151.07" height="120.06"/><rect id="bg" class="cls-15" x="415.42" y="12.45" width="147.8" height="116.78"/><rect id="bgPattern" class="cls-5" x="415.42" y="12.45" width="147.8" height="116.78"/></g><g id="plant"><rect class="cls-3" x="480.92" y="74.73" width="46.2" height="46.2"/><rect class="cls-17" x="482.25" y="76.06" width="43.54" height="43.54"/><rect class="cls-12" x="484.37" y="78.18" width="39.31" height="39.31"/><path id="leaf" class="cls-8" d="M504,87.88c-5.63,.78-9.93,4.45-9.93,9.93,0,1.33,.26,2.63,.74,3.82-1.04,.7-2.56,1.63-3.3,1.89-1.3,.44-3.89,.15-4,.37s.74,2.56,1.04,2.67,2.67,.11,4-.37c.96-.33,2.7-1.45,3.71-2.19,1.82,2.3,4.63,3.74,7.78,3.74,5.48,0,9.86-3.45,9.86-8.93,0-2.11,.52-4.78,1.3-6.45,.85-1.85,5.26-3.04,5.26-3.04-.44-1.45-14.23-1.74-16.45-1.45Z"/><path id="darker" class="cls-4" d="M525.79,119.6h-43.54v-23.86s13.71,2.11,21.75,2.11,21.79-2.11,21.79-2.11v23.86Z"/></g><path d="M428.35,46.63v-5.42h13.01v5.42h-13.01Z"/><g id="energy"><rect class="cls-3" x="507.87" y="20.83" width="46.2" height="46.2"/><rect class="cls-13" x="509.2" y="22.16" width="43.54" height="43.54"/><polygon class="cls-11" points="550.63 24.27 550.63 63.59 511.31 63.59 511.31 24.27 550.63 24.27"/><polygon class="cls-6" points="526.17 39.43 539.14 31.39 532.21 41.43 535.88 47.4 523.13 55.44 529.54 45.43 526.17 39.43"/><path id="darker-2" class="cls-2" d="M552.74,65.7h-43.54v-23.86s13.71,2.11,21.75,2.11,21.79-2.11,21.79-2.11v23.86Z"/></g><path d="M457.86,109.1v-9.67h-9.67v-3.97h9.67v-9.67h3.97v9.67h9.67v3.97h-9.67v9.67h-3.97Z"/><g id="energy-2"><rect class="cls-3" x="454.87" y="20.83" width="46.2" height="46.2"/><rect class="cls-9" x="456.2" y="22.16" width="43.54" height="43.54"/><polygon class="cls-11" points="497.63 24.27 497.63 63.59 458.31 63.59 458.31 24.27 497.63 24.27"/><polygon class="cls-6" points="473.17 39.43 486.14 31.39 479.21 41.43 482.88 47.4 470.13 55.44 476.54 45.43 473.17 39.43"/><path id="darker-3" class="cls-2" d="M499.74,65.7h-43.54v-23.86s13.71,2.11,21.75,2.11,21.79-2.11,21.79-2.11v23.86Z"/></g></svg>