<?xml version="1.0" encoding="UTF-8"?><svg id="Layer" xmlns="http://www.w3.org/2000/svg" xmlns:xlink="http://www.w3.org/1999/xlink" viewBox="0 0 566.93 141.73"><defs><style>.cls-1{fill:url(#linear-gradient-2);}.cls-2{opacity:.15;}.cls-2,.cls-3,.cls-4{fill:#020303;}.cls-2,.cls-4,.cls-5{isolation:isolate;}.cls-6{fill:#e52922;}.cls-7{stroke:#020303;stroke-miterlimit:10;stroke-width:.37px;}.cls-7,.cls-8{fill:#fff;}.cls-8{opacity:0;}.cls-9{fill:url(#linear-gradient-6);}.cls-10{fill:#1f1f1d;}.cls-11{fill:#7e348b;}.cls-4{opacity:.05;}.cls-5{fill:url(#Nowy_wzorek);opacity:.1;}.cls-12{fill:url(#linear-gradient-5);}.cls-13{fill:none;}.cls-14{fill:#ffd110;}.cls-15{fill:url(#linear-gradient-7);}.cls-16{fill:url(#linear-gradient-3);}.cls-17{fill:url(#linear-gradient);}.cls-18{fill:url(#linear-gradient-4);}</style><linearGradient id="linear-gradient" x1="544.67" y1="-28.45" x2="376.96" y2="139.26" gradientTransform="translate(0 126.27) scale(1 -1)" gradientUnits="userSpaceOnUse"><stop offset="0" stop-color="#9d9d9c"/><stop offset=".54" stop-color="#010101"/><stop offset="1" stop-color="#9d9d9c"/></linearGradient><linearGradient id="linear-gradient-2" x1="460.84" y1="-4.63" x2="460.84" y2="115.43" gradientTransform="translate(0 126.27) scale(1 -1)" gradientUnits="userSpaceOnUse"><stop offset="0" stop-color="#452b1a"/><stop offset="1" stop-color="#b18049"/></linearGradient><linearGradient id="linear-gradient-3" x1="460.82" y1="-2.96" x2="460.82" y2="113.82" gradientTransform="translate(0 126.27) scale(1 -1)" gradientUnits="userSpaceOnUse"><stop offset="0" stop-color="#946137"/><stop offset="1" stop-color="#7f5026"/></linearGradient><pattern id="Nowy_wzorek" x="0" y="0" width="19.7" height="21.7" patternTransform="translate(8.6 -16239.44) scale(1 -1)" patternUnits="userSpaceOnUse" viewBox="0 0 19.7 21.7"><g><rect class="cls-13" width="19.7" height="21.7"/><g><rect class="cls-13" width="19.7" height="21.7"/><g><rect class="cls-13" width="19.7" height="21.7"/><g><rect class="cls-13" width="19.7" height="21.7"/><path class="cls-10" d="M16.6,13c2.1-2.1,2.1-5.6,0-7.7l-1.2-1.2c-2.1-2.1-5.6-2.1-7.8,0L3.1,8.7c-2.1,2.1-2.1,5.6,0,7.7l1.2,1.2c2.1,2.1,5.6,2.1,7.7,0l4.6-4.6Z"/></g></g></g></g></pattern><linearGradient id="linear-gradient-4" x1="-326.15" y1="-894.94" x2="-295.37" y2="-864.16" gradientTransform="translate(76.78 -797.74) rotate(-45) scale(1 -1)" gradientUnits="userSpaceOnUse"><stop offset="0" stop-color="#1d1327"/><stop offset=".24" stop-color="#372348"/><stop offset=".49" stop-color="#573a6c"/><stop offset=".71" stop-color="#714f8b"/><stop offset=".89" stop-color="#825c9f"/><stop offset="1" stop-color="#8862a6"/></linearGradient><linearGradient id="linear-gradient-5" x1="-326.79" y1="1111.79" x2="-296.01" y2="1081.01" gradientTransform="translate(-23.11 -897.62) rotate(-45)" gradientUnits="userSpaceOnUse"><stop offset="0" stop-color="#951917"/><stop offset=".21" stop-color="#b9231c"/><stop offset=".47" stop-color="#e52922"/><stop offset=".55" stop-color="#e62d28"/><stop offset=".84" stop-color="#e7393a"/><stop offset="1" stop-color="#e83e41"/></linearGradient><linearGradient id="linear-gradient-6" x1="-364.27" y1="1074.32" x2="-333.48" y2="1043.53" xlink:href="#linear-gradient-5"/><linearGradient id="linear-gradient-7" x1="-401.74" y1="1036.84" x2="-370.96" y2="1006.05" xlink:href="#linear-gradient-5"/></defs><rect class="cls-8" width="566.93" height="141.73"/><g id="prodBg"><rect id="external-border" class="cls-17" x="354.97" y="9" width="211.69" height="123.73"/><rect id="internal-border" class="cls-1" x="356.81" y="10.84" width="208.07" height="120.06"/><rect id="bg" class="cls-16" x="358.42" y="12.45" width="204.8" height="116.78"/><rect id="bgPattern" class="cls-5" x="358.42" y="12.45" width="204.8" height="116.78"/></g><path d="M432.35,46.63v-5.42h13.01v5.42h-13.01Z"/><g id="energy"><rect class="cls-3" x="455.87" y="20.83" width="46.2" height="46.2"/><rect class="cls-18" x="457.2" y="22.16" width="43.54" height="43.54"/><polygon class="cls-11" points="498.63 24.27 498.63 63.59 459.31 63.59 459.31 24.27 498.63 24.27"/><polygon class="cls-7" points="474.17 39.43 487.14 31.39 480.21 41.43 483.88 47.4 471.13 55.44 477.54 45.43 474.17 39.43"/><path id="darker" class="cls-2" d="M500.74,65.7h-43.54v-23.86s13.71,2.11,21.75,2.11,21.79-2.11,21.79-2.11v23.86Z"/></g><path d="M379.86,109.1v-9.67h-9.67v-3.97h9.67v-9.67h3.97v9.67h9.67v3.97h-9.67v9.67h-3.97Z"/><g id="heat"><rect class="cls-3" x="508.87" y="74.73" width="46.2" height="46.2"/><rect class="cls-12" x="510.2" y="76.06" width="43.54" height="43.54"/><rect class="cls-6" x="512.31" y="78.17" width="39.31" height="39.31"/><path id="darker-2" class="cls-4" d="M553.74,119.6h-43.54v-23.86s13.71,2.11,21.75,2.11,21.79-2.11,21.79-2.11v23.86Z"/><g><polygon class="cls-14" points="527.06 99.85 522.1 95.55 522.1 95.55 522.1 82.43 517.13 95.81 522.13 100.03 522.13 100.03 522.1 113.22 527.06 99.85"/><polygon class="cls-14" points="536.95 99.85 531.99 95.55 531.95 95.55 531.99 82.43 527.02 95.81 531.99 100.03 531.99 100.03 531.99 113.22 536.95 99.85"/><polygon class="cls-14" points="547.11 99.85 542.14 95.55 542.1 95.55 542.14 82.43 537.18 95.81 542.14 100.03 542.14 100.03 542.14 113.22 547.11 99.85"/></g></g><g id="heat-2"><rect class="cls-3" x="455.87" y="74.73" width="46.2" height="46.2"/><rect class="cls-9" x="457.2" y="76.06" width="43.54" height="43.54"/><rect class="cls-6" x="459.31" y="78.17" width="39.31" height="39.31"/><path id="darker-3" class="cls-4" d="M500.74,119.6h-43.54v-23.86s13.71,2.11,21.75,2.11,21.79-2.11,21.79-2.11v23.86Z"/><g><polygon class="cls-14" points="474.06 99.85 469.1 95.55 469.1 95.55 469.1 82.43 464.13 95.81 469.13 100.03 469.13 100.03 469.1 113.22 474.06 99.85"/><polygon class="cls-14" points="483.95 99.85 478.99 95.55 478.95 95.55 478.99 82.43 474.02 95.81 478.99 100.03 478.99 100.03 478.99 113.22 483.95 99.85"/><polygon class="cls-14" points="494.11 99.85 489.14 95.55 489.1 95.55 489.14 82.43 484.18 95.81 489.14 100.03 489.14 100.03 489.14 113.22 494.11 99.85"/></g></g><g id="heat-3"><rect class="cls-3" x="402.87" y="74.73" width="46.2" height="46.2"/><rect class="cls-15" x="404.2" y="76.06" width="43.54" height="43.54"/><rect class="cls-6" x="406.31" y="78.17" width="39.31" height="39.31"/><path id="darker-4" class="cls-4" d="M447.74,119.6h-43.54v-23.86s13.71,2.11,21.75,2.11,21.79-2.11,21.79-2.11v23.86Z"/><g><polygon class="cls-14" points="421.06 99.85 416.1 95.55 416.1 95.55 416.1 82.43 411.13 95.81 416.13 100.03 416.13 100.03 416.1 113.22 421.06 99.85"/><polygon class="cls-14" points="430.95 99.85 425.99 95.55 425.95 95.55 425.99 82.43 421.02 95.81 425.99 100.03 425.99 100.03 425.99 113.22 430.95 99.85"/><polygon class="cls-14" points="441.11 99.85 436.14 95.55 436.1 95.55 436.14 82.43 431.18 95.81 436.14 100.03 436.14 100.03 436.14 113.22 441.11 99.85"/></g></g></svg>