<?xml version="1.0" encoding="UTF-8"?><svg id="Layer" xmlns="http://www.w3.org/2000/svg" xmlns:xlink="http://www.w3.org/1999/xlink" viewBox="0 0 566.93 141.73"><defs><style>.cls-1{fill:url(#linear-gradient-2);}.cls-2{opacity:.15;}.cls-2,.cls-3,.cls-4{fill:#020303;}.cls-2,.cls-4,.cls-5{isolation:isolate;}.cls-6{stroke:#020303;stroke-width:.37px;}.cls-6,.cls-7{fill:#fff;}.cls-6,.cls-8{stroke-miterlimit:10;}.cls-7{opacity:0;}.cls-9{fill:#1f1f1d;}.cls-10{fill:#7e348b;}.cls-4{opacity:.05;}.cls-5{fill:url(#Nowy_wzorek);opacity:.1;}.cls-8{fill:#07562a;stroke:#1c4421;stroke-width:1.48px;}.cls-11{fill:#44ac36;}.cls-12{fill:url(#linear-gradient-5);}.cls-13{fill:none;}.cls-14{fill:url(#linear-gradient-3);}.cls-15{fill:url(#linear-gradient);}.cls-16{fill:url(#linear-gradient-4);}</style><linearGradient id="linear-gradient" x1="572.67" y1="-.45" x2="460.96" y2="111.26" gradientTransform="translate(0 126.27) scale(1 -1)" gradientUnits="userSpaceOnUse"><stop offset="0" stop-color="#9d9d9c"/><stop offset=".54" stop-color="#010101"/><stop offset="1" stop-color="#9d9d9c"/></linearGradient><linearGradient id="linear-gradient-2" x1="516.84" y1="-4.63" x2="516.84" y2="115.43" gradientTransform="translate(0 126.27) scale(1 -1)" gradientUnits="userSpaceOnUse"><stop offset="0" stop-color="#452b1a"/><stop offset="1" stop-color="#b18049"/></linearGradient><linearGradient id="linear-gradient-3" x1="516.82" y1="-2.96" x2="516.82" y2="113.82" gradientTransform="translate(0 126.27) scale(1 -1)" gradientUnits="userSpaceOnUse"><stop offset="0" stop-color="#946137"/><stop offset="1" stop-color="#7f5026"/></linearGradient><pattern id="Nowy_wzorek" x="0" y="0" width="19.7" height="21.7" patternTransform="translate(8.6 -16239.44) scale(1 -1)" patternUnits="userSpaceOnUse" viewBox="0 0 19.7 21.7"><g><rect class="cls-13" width="19.7" height="21.7"/><g><rect class="cls-13" width="19.7" height="21.7"/><g><rect class="cls-13" width="19.7" height="21.7"/><g><rect class="cls-13" width="19.7" height="21.7"/><path class="cls-9" d="M16.6,13c2.1-2.1,2.1-5.6,0-7.7l-1.2-1.2c-2.1-2.1-5.6-2.1-7.8,0L3.1,8.7c-2.1,2.1-2.1,5.6,0,7.7l1.2,1.2c2.1,2.1,5.6,2.1,7.7,0l4.6-4.6Z"/></g></g></g></g></pattern><linearGradient id="linear-gradient-4" x1="-288.92" y1="-932.18" x2="-258.14" y2="-901.39" gradientTransform="translate(76.78 -797.74) rotate(-45) scale(1 -1)" gradientUnits="userSpaceOnUse"><stop offset="0" stop-color="#1d1327"/><stop offset=".24" stop-color="#372348"/><stop offset=".49" stop-color="#573a6c"/><stop offset=".71" stop-color="#714f8b"/><stop offset=".89" stop-color="#825c9f"/><stop offset="1" stop-color="#8862a6"/></linearGradient><linearGradient id="linear-gradient-5" x1="-326.83" y1="1111.57" x2="-296.04" y2="1080.79" gradientTransform="translate(-23.11 -897.62) rotate(-45)" gradientUnits="userSpaceOnUse"><stop offset="0" stop-color="#0c6835"/><stop offset=".04" stop-color="#0a6b36"/><stop offset=".08" stop-color="#047638"/><stop offset=".13" stop-color="#078738"/><stop offset=".15" stop-color="#058f39"/><stop offset=".35" stop-color="#34993d"/><stop offset=".76" stop-color="#5eaf47"/><stop offset="1" stop-color="#6eb74a"/></linearGradient></defs><rect class="cls-7" width="566.93" height="141.73"/><g id="prodBg"><rect id="external-border" class="cls-15" x="466.97" y="9" width="99.69" height="123.73"/><rect id="internal-border" class="cls-1" x="468.81" y="10.84" width="96.07" height="120.06"/><rect id="bg" class="cls-14" x="470.42" y="12.45" width="92.8" height="116.78"/><rect id="bgPattern" class="cls-5" x="470.42" y="12.45" width="92.8" height="116.78"/></g><path d="M484,46.63v-5.42h13.01v5.42h-13.01Z"/><g id="energy"><rect class="cls-3" x="508.52" y="20.83" width="46.2" height="46.2"/><rect class="cls-16" x="509.85" y="22.16" width="43.54" height="43.54"/><polygon class="cls-10" points="551.28 24.27 551.28 63.59 511.97 63.59 511.97 24.27 551.28 24.27"/><polygon class="cls-6" points="526.83 39.43 539.79 31.39 532.86 41.43 536.53 47.4 523.79 55.44 530.2 45.43 526.83 39.43"/><path id="darker" class="cls-2" d="M553.39,65.7h-43.54v-23.86s13.71,2.11,21.75,2.11,21.79-2.11,21.79-2.11v23.86Z"/></g><g id="plant"><rect class="cls-3" x="508.69" y="74.6" width="46.2" height="46.2"/><rect class="cls-12" x="510.02" y="75.93" width="43.54" height="43.54"/><rect class="cls-11" x="512.13" y="78.04" width="39.31" height="39.31"/><path id="leaf" class="cls-8" d="M531.77,87.75c-5.63,.78-9.93,4.45-9.93,9.93,0,1.33,.26,2.63,.74,3.82-1.04,.7-2.56,1.63-3.3,1.89-1.3,.44-3.89,.15-4,.37s.74,2.56,1.04,2.67,2.67,.11,4-.37c.96-.33,2.7-1.45,3.71-2.19,1.82,2.3,4.63,3.74,7.78,3.74,5.48,0,9.86-3.45,9.86-8.93,0-2.11,.52-4.78,1.3-6.45,.85-1.85,5.26-3.04,5.26-3.04-.44-1.45-14.23-1.74-16.45-1.45Z"/><path id="darker-2" class="cls-4" d="M553.56,119.47h-43.54v-23.86s13.71,2.11,21.75,2.11,21.79-2.11,21.79-2.11v23.86Z"/></g><path d="M487.86,109.1v-9.67h-9.67v-3.97h9.67v-9.67h3.97v9.67h9.67v3.97h-9.67v9.67h-3.97Z"/></svg>