<?xml version="1.0" encoding="UTF-8"?><svg id="Layer" xmlns="http://www.w3.org/2000/svg" xmlns:xlink="http://www.w3.org/1999/xlink" viewBox="0 0 566.93 141.73"><defs><style>.cls-1{fill:url(#linear-gradient-2);}.cls-2,.cls-3,.cls-4{fill:#020303;}.cls-5{fill:rgba(255,255,255,0);}.cls-6{fill:#e52922;}.cls-7{fill:url(#linear-gradient-6);}.cls-8{fill:#1f1f1d;}.cls-3{opacity:.15;}.cls-3,.cls-9,.cls-10,.cls-11,.cls-4{isolation:isolate;}.cls-12{fill:#7e348b;}.cls-13{fill:url(#linear-gradient-10);}.cls-9{fill:url(#Nowy_wzorek);opacity:.1;}.cls-10{fill:url(#linear-gradient-5);}.cls-10,.cls-11{opacity:.4;}.cls-14{fill:none;}.cls-15{fill:#ffd110;}.cls-16{fill:url(#linear-gradient-7);}.cls-17{fill:url(#linear-gradient-9);}.cls-18{fill:url(#linear-gradient-3);}.cls-11{fill:url(#linear-gradient-8);}.cls-4{opacity:.05;}.cls-19{fill:url(#linear-gradient);}.cls-20{fill:#fff;stroke:#020303;stroke-miterlimit:10;stroke-width:.37px;}.cls-21{fill:url(#linear-gradient-4);}</style><linearGradient id="linear-gradient" x1="560.67" y1="154.18" x2="424.96" y2="18.47" gradientTransform="translate(0 -15.46)" gradientUnits="userSpaceOnUse"><stop offset="0" stop-color="#9d9d9c"/><stop offset=".54" stop-color="#010101"/><stop offset="1" stop-color="#9d9d9c"/></linearGradient><linearGradient id="linear-gradient-2" x1="492.85" y1="146.36" x2="492.85" y2="26.3" gradientTransform="translate(0 -15.46)" gradientUnits="userSpaceOnUse"><stop offset="0" stop-color="#452b1a"/><stop offset="1" stop-color="#b18049"/></linearGradient><linearGradient id="linear-gradient-3" x1="492.82" y1="144.69" x2="492.82" y2="27.91" gradientTransform="translate(0 -15.46)" gradientUnits="userSpaceOnUse"><stop offset="0" stop-color="#946137"/><stop offset="1" stop-color="#7f5026"/></linearGradient><pattern id="Nowy_wzorek" x="0" y="0" width="19.7" height="21.7" patternTransform="translate(8.6 16522.9)" patternUnits="userSpaceOnUse" viewBox="0 0 19.7 21.7"><g><rect class="cls-14" width="19.7" height="21.7"/><g><rect class="cls-14" width="19.7" height="21.7"/><g><rect class="cls-14" width="19.7" height="21.7"/><g><rect class="cls-14" width="19.7" height="21.7"/><g><rect class="cls-14" width="19.7" height="21.7"/><path class="cls-8" d="M16.6,8.7c2.1,2.1,2.1,5.6,0,7.7l-1.2,1.2c-2.1,2.1-5.6,2.1-7.8,0L3.1,13c-2.1-2.1-2.1-5.6,0-7.7l1.2-1.2c2.1-2.1,5.6-2.1,7.7,0l4.6,4.6Z"/></g></g></g></g></g></pattern><linearGradient id="linear-gradient-4" x1="-346.73" y1="1092.11" x2="-315.94" y2="1061.32" gradientTransform="translate(-23.44 -897.96) rotate(-45)" gradientUnits="userSpaceOnUse"><stop offset="0" stop-color="#1d1327"/><stop offset=".24" stop-color="#372348"/><stop offset=".49" stop-color="#573a6c"/><stop offset=".71" stop-color="#714f8b"/><stop offset=".89" stop-color="#825c9f"/><stop offset="1" stop-color="#8862a6"/></linearGradient><linearGradient id="linear-gradient-5" x1="475.71" y1="70.7" x2="475.71" y2="15.01" gradientTransform="translate(0 1.08)" gradientUnits="userSpaceOnUse"><stop offset="0" stop-color="#ffdc15"/><stop offset="0" stop-color="#ffdb16"/><stop offset=".05" stop-color="#f9bb1f"/><stop offset=".1" stop-color="#f59c1b"/><stop offset=".16" stop-color="#ef7b1b"/><stop offset=".22" stop-color="#e86212"/><stop offset=".27" stop-color="#e84b1f"/><stop offset=".34" stop-color="#e63a21"/><stop offset=".41" stop-color="#e63323"/><stop offset=".5" stop-color="#e63023"/><stop offset=".59" stop-color="#e63323"/><stop offset=".66" stop-color="#e63a21"/><stop offset=".73" stop-color="#e84b1f"/><stop offset=".78" stop-color="#e86212"/><stop offset=".84" stop-color="#ef7b1b"/><stop offset=".9" stop-color="#f59c1b"/><stop offset=".95" stop-color="#f9bb1f"/><stop offset="1" stop-color="#ffdb16"/><stop offset="1" stop-color="#ffdc15"/></linearGradient><linearGradient id="linear-gradient-6" x1="475.72" y1="68.65" x2="475.72" y2="17.06" gradientTransform="translate(0 1.08)" gradientUnits="userSpaceOnUse"><stop offset="0" stop-color="#ffdc15"/><stop offset="0" stop-color="#ffdb16"/><stop offset=".05" stop-color="#f9bb1f"/><stop offset=".1" stop-color="#f59c1b"/><stop offset=".16" stop-color="#ef7b1b"/><stop offset=".22" stop-color="#e86212"/><stop offset=".27" stop-color="#e84b1f"/><stop offset=".34" stop-color="#e63a21"/><stop offset=".41" stop-color="#e63323"/><stop offset=".5" stop-color="#e63023"/><stop offset=".59" stop-color="#e63323"/><stop offset=".66" stop-color="#e63a21"/><stop offset=".73" stop-color="#e84b1f"/><stop offset=".78" stop-color="#e86212"/><stop offset=".84" stop-color="#ef7b1b"/><stop offset=".9" stop-color="#f59c1b"/><stop offset=".95" stop-color="#f9bb1f"/><stop offset="1" stop-color="#ffdb16"/><stop offset="1" stop-color="#ffdc15"/></linearGradient><linearGradient id="linear-gradient-7" x1="-328.51" y1="-892.1" x2="-297.73" y2="-861.3" gradientTransform="translate(77.11 -797.4) rotate(-45) scale(1 -1)" gradientUnits="userSpaceOnUse"><stop offset="0" stop-color="#951917"/><stop offset=".21" stop-color="#b9231c"/><stop offset=".47" stop-color="#e52922"/><stop offset=".55" stop-color="#e62d28"/><stop offset=".84" stop-color="#e7393a"/><stop offset="1" stop-color="#e83e41"/></linearGradient><linearGradient id="linear-gradient-8" x1="531.71" y1="70.7" x2="531.71" y2="15.01" gradientTransform="translate(0 1.08)" gradientUnits="userSpaceOnUse"><stop offset="0" stop-color="#ffdc15"/><stop offset="0" stop-color="#ffdb16"/><stop offset=".05" stop-color="#f9bb1f"/><stop offset=".1" stop-color="#f59c1b"/><stop offset=".16" stop-color="#ef7b1b"/><stop offset=".22" stop-color="#e86212"/><stop offset=".27" stop-color="#e84b1f"/><stop offset=".34" stop-color="#e63a21"/><stop offset=".41" stop-color="#e63323"/><stop offset=".5" stop-color="#e63023"/><stop offset=".59" stop-color="#e63323"/><stop offset=".66" stop-color="#e63a21"/><stop offset=".73" stop-color="#e84b1f"/><stop offset=".78" stop-color="#e86212"/><stop offset=".84" stop-color="#ef7b1b"/><stop offset=".9" stop-color="#f59c1b"/><stop offset=".95" stop-color="#f9bb1f"/><stop offset="1" stop-color="#ffdb16"/><stop offset="1" stop-color="#ffdc15"/></linearGradient><linearGradient id="linear-gradient-9" x1="531.73" y1="68.65" x2="531.73" y2="17.06" gradientTransform="translate(0 1.08)" gradientUnits="userSpaceOnUse"><stop offset="0" stop-color="#ffdc15"/><stop offset="0" stop-color="#ffdb16"/><stop offset=".05" stop-color="#f9bb1f"/><stop offset=".1" stop-color="#f59c1b"/><stop offset=".16" stop-color="#ef7b1b"/><stop offset=".22" stop-color="#e86212"/><stop offset=".27" stop-color="#e84b1f"/><stop offset=".34" stop-color="#e63a21"/><stop offset=".41" stop-color="#e63323"/><stop offset=".5" stop-color="#e63023"/><stop offset=".59" stop-color="#e63323"/><stop offset=".66" stop-color="#e63a21"/><stop offset=".73" stop-color="#e84b1f"/><stop offset=".78" stop-color="#e86212"/><stop offset=".84" stop-color="#ef7b1b"/><stop offset=".9" stop-color="#f59c1b"/><stop offset=".95" stop-color="#f9bb1f"/><stop offset="1" stop-color="#ffdb16"/><stop offset="1" stop-color="#ffdc15"/></linearGradient><linearGradient id="linear-gradient-10" x1="-288.92" y1="-931.7" x2="-258.13" y2="-900.9" gradientTransform="translate(77.11 -797.4) rotate(-45) scale(1 -1)" gradientUnits="userSpaceOnUse"><stop offset="0" stop-color="#951917"/><stop offset=".21" stop-color="#b9231c"/><stop offset=".47" stop-color="#e52922"/><stop offset=".55" stop-color="#e62d28"/><stop offset=".84" stop-color="#e7393a"/><stop offset="1" stop-color="#e83e41"/></linearGradient></defs><rect class="cls-5" width="566.93" height="141.73"/><g id="prodBg"><rect id="external-border" class="cls-19" x="418.97" y="9" width="147.69" height="123.73"/><rect id="internal-border" class="cls-1" x="420.81" y="10.84" width="144.07" height="120.06"/><rect id="bg" class="cls-18" x="422.42" y="12.45" width="140.8" height="116.78"/><rect id="bgPattern" class="cls-9" x="422.42" y="12.45" width="140.8" height="116.78"/></g><path d="M459.07,109.97v-9.67h-9.67v-3.97h9.67v-9.67h3.97v9.67h9.67v3.97h-9.67v9.67h-3.97Z"/><g id="energy"><rect class="cls-2" x="480.52" y="74.58" width="46.2" height="46.2"/><rect class="cls-21" x="481.85" y="75.91" width="43.54" height="43.54"/><polygon class="cls-12" points="523.28 78.02 523.28 117.34 483.97 117.34 483.97 78.02 523.28 78.02"/><polygon class="cls-20" points="498.83 93.18 511.79 85.14 504.86 95.18 508.53 101.15 495.79 109.19 502.2 99.18 498.83 93.18"/><path id="darker" class="cls-3" d="M525.39,119.45h-43.54v-23.86s13.71,2.11,21.75,2.11,21.79-2.11,21.79-2.11v23.86Z"/></g><path d="M431,46.63v-5.42h13.01v5.42h-13.01Z"/><g id="heat"><rect class="cls-10" x="447.87" y="16.09" width="55.69" height="55.69"/><rect class="cls-7" x="449.93" y="18.14" width="51.59" height="51.59"/><rect class="cls-2" x="452.52" y="20.83" width="46.2" height="46.2"/><rect class="cls-16" x="453.85" y="22.16" width="43.54" height="43.54"/><rect class="cls-6" x="455.97" y="24.27" width="39.31" height="39.31"/><path id="darker-2" class="cls-4" d="M497.39,65.7h-43.54v-23.86s13.71,2.11,21.75,2.11,21.79-2.11,21.79-2.11v23.86Z"/><g><polygon class="cls-15" points="470.71 45.95 465.75 41.65 465.75 41.65 465.75 28.54 460.78 41.91 465.79 46.14 465.79 46.14 465.75 59.33 470.71 45.95"/><polygon class="cls-15" points="480.61 45.95 475.64 41.65 475.6 41.65 475.64 28.54 470.68 41.91 475.64 46.14 475.64 46.14 475.64 59.33 480.61 45.95"/><polygon class="cls-15" points="490.76 45.95 485.79 41.65 485.76 41.65 485.79 28.54 480.83 41.91 485.79 46.14 485.79 46.14 485.79 59.33 490.76 45.95"/></g></g><g id="heat-2"><rect class="cls-11" x="503.87" y="16.09" width="55.69" height="55.69"/><rect class="cls-17" x="505.93" y="18.14" width="51.59" height="51.59"/><rect class="cls-2" x="508.52" y="20.83" width="46.2" height="46.2"/><rect class="cls-13" x="509.85" y="22.16" width="43.54" height="43.54"/><rect class="cls-6" x="511.97" y="24.27" width="39.31" height="39.31"/><path id="darker-3" class="cls-4" d="M553.39,65.7h-43.54v-23.86s13.71,2.11,21.75,2.11,21.79-2.11,21.79-2.11v23.86h0Z"/><g><polygon class="cls-15" points="526.71 45.95 521.75 41.65 521.75 41.65 521.75 28.54 516.78 41.91 521.79 46.14 521.79 46.14 521.75 59.33 526.71 45.95"/><polygon class="cls-15" points="536.61 45.95 531.64 41.65 531.6 41.65 531.64 28.54 526.68 41.91 531.64 46.14 531.64 46.14 531.64 59.33 536.61 45.95"/><polygon class="cls-15" points="546.76 45.95 541.79 41.65 541.76 41.65 541.79 28.54 536.83 41.91 541.79 46.14 541.79 46.14 541.79 59.33 546.76 45.95"/></g></g></svg>