<?xml version="1.0" encoding="UTF-8"?><svg id="Layer" xmlns="http://www.w3.org/2000/svg" xmlns:xlink="http://www.w3.org/1999/xlink" viewBox="0 0 566.93 141.73"><defs><style>.cls-1{fill:url(#linear-gradient-2);}.cls-2{opacity:.15;}.cls-2,.cls-3{fill:#020303;}.cls-2,.cls-4{isolation:isolate;}.cls-5{fill:#332116;}.cls-6{stroke:#020303;stroke-miterlimit:10;stroke-width:.37px;}.cls-6,.cls-7{fill:#fff;}.cls-7{opacity:0;}.cls-8{fill:#946137;}.cls-9{fill:#1f1f1d;}.cls-10{fill:#7e348b;}.cls-4{fill:url(#Nowy_wzorek);opacity:.1;}.cls-11{fill:url(#linear-gradient-5);}.cls-12{fill:none;}.cls-13{fill:url(#linear-gradient-3);}.cls-14{fill:url(#linear-gradient);}.cls-15{fill:url(#linear-gradient-4);}</style><linearGradient id="linear-gradient" x1="579.96" y1="6.83" x2="482.82" y2="103.97" gradientTransform="translate(0 126.27) scale(1 -1)" gradientUnits="userSpaceOnUse"><stop offset="0" stop-color="#9d9d9c"/><stop offset=".54" stop-color="#010101"/><stop offset="1" stop-color="#9d9d9c"/></linearGradient><linearGradient id="linear-gradient-2" x1="531.42" y1="-4.63" x2="531.42" y2="115.43" gradientTransform="translate(0 126.27) scale(1 -1)" gradientUnits="userSpaceOnUse"><stop offset="0" stop-color="#452b1a"/><stop offset="1" stop-color="#b18049"/></linearGradient><linearGradient id="linear-gradient-3" x1="531.39" y1="-2.96" x2="531.39" y2="113.82" gradientTransform="translate(0 126.27) scale(1 -1)" gradientUnits="userSpaceOnUse"><stop offset="0" stop-color="#946137"/><stop offset="1" stop-color="#7f5026"/></linearGradient><pattern id="Nowy_wzorek" x="0" y="0" width="19.7" height="21.7" patternTransform="translate(8.6 -16239.44) scale(1 -1)" patternUnits="userSpaceOnUse" viewBox="0 0 19.7 21.7"><g><rect class="cls-12" width="19.7" height="21.7"/><g><rect class="cls-12" width="19.7" height="21.7"/><g><rect class="cls-12" width="19.7" height="21.7"/><g><rect class="cls-12" width="19.7" height="21.7"/><path class="cls-9" d="M16.6,13c2.1-2.1,2.1-5.6,0-7.7l-1.2-1.2c-2.1-2.1-5.6-2.1-7.8,0L3.1,8.7c-2.1,2.1-2.1,5.6,0,7.7l1.2,1.2c2.1,2.1,5.6,2.1,7.7,0l4.6-4.6Z"/></g></g></g></g></pattern><linearGradient id="linear-gradient-4" x1="-289.03" y1="-932" x2="-258.25" y2="-901.21" gradientTransform="translate(76.78 -797.74) rotate(-45) scale(1 -1)" gradientUnits="userSpaceOnUse"><stop offset="0" stop-color="#1d1327"/><stop offset=".24" stop-color="#372348"/><stop offset=".49" stop-color="#573a6c"/><stop offset=".71" stop-color="#714f8b"/><stop offset=".89" stop-color="#825c9f"/><stop offset="1" stop-color="#8862a6"/></linearGradient><linearGradient id="linear-gradient-5" x1="-326.89" y1="1111.35" x2="-296.11" y2="1080.56" gradientTransform="translate(-23.11 -897.62) rotate(-45)" gradientUnits="userSpaceOnUse"><stop offset="0" stop-color="#452b1a"/><stop offset=".05" stop-color="#583519"/><stop offset=".1" stop-color="#683e15"/><stop offset=".32" stop-color="#76481e"/><stop offset=".75" stop-color="#8c5a31"/><stop offset="1" stop-color="#946137"/></linearGradient></defs><rect class="cls-7" width="566.93" height="141.73"/><g id="prodBg"><rect id="external-border" class="cls-14" x="496.12" y="9" width="70.54" height="123.73"/><rect id="internal-border" class="cls-1" x="497.96" y="10.84" width="66.92" height="120.06"/><rect id="bg" class="cls-13" x="499.57" y="12.45" width="63.65" height="116.78"/><rect id="bgPattern" class="cls-4" x="499.57" y="12.45" width="63.65" height="116.78"/></g><g id="energy"><rect class="cls-3" x="508.32" y="20.78" width="46.2" height="46.2"/><rect class="cls-15" x="509.65" y="22.11" width="43.54" height="43.54"/><polygon class="cls-10" points="551.08 24.22 551.08 63.54 511.76 63.54 511.76 24.22 551.08 24.22"/><polygon class="cls-6" points="526.62 39.38 539.59 31.34 532.66 41.38 536.33 47.34 523.58 55.39 529.99 45.38 526.62 39.38"/><path id="darker" class="cls-2" d="M553.19,65.65h-43.54v-23.86s13.71,2.11,21.75,2.11,21.79-2.11,21.79-2.11v23.86Z"/></g><g id="steel"><rect class="cls-3" x="508.48" y="74.49" width="46.2" height="46.2"/><rect class="cls-11" x="509.82" y="75.82" width="43.54" height="43.54"/><rect class="cls-8" x="511.93" y="77.93" width="39.31" height="39.31"/><g><path class="cls-5" d="M535.68,110.57l.96-18.27-2.22-.26-.33-.78h-1.7l-.3,.82-2.59-.11v-4.74h3l.22,.93,1.41,.19,.33-1.07h3.08l.59,.52,.52-.52h3.82l.44,.74,.67-.74,2.89,2.37-.19,1.63s-1.59-1.48-2.37-1.48-1.89-.04-1.89-.04l-1.59,2.56-.96,.07,.89,18.19h-4.67Z"/><polygon class="cls-5" points="527.05 86.45 523.93 84.75 523.9 88.97 521.08 88.97 521.08 84.75 517.52 86.38 517.52 91.57 520.82 93.16 519.67 110.57 524.97 110.57 523.93 93.16 527.05 91.75 527.05 86.45"/></g><path id="darker-2" class="cls-2" d="M553.35,119.36h-43.54v-23.86s13.71,2.11,21.75,2.11,21.79-2.11,21.79-2.11v23.86Z"/></g></svg>