<?xml version="1.0" encoding="UTF-8"?><svg id="Layer" xmlns="http://www.w3.org/2000/svg" xmlns:xlink="http://www.w3.org/1999/xlink" viewBox="0 0 566.93 141.73"><defs><style>.cls-1{fill:url(#linear-gradient-2);}.cls-2{opacity:.15;}.cls-2,.cls-3,.cls-4{fill:#020303;}.cls-2,.cls-4,.cls-5{isolation:isolate;}.cls-6{fill:#e52922;}.cls-7{stroke:#020303;stroke-miterlimit:10;stroke-width:.37px;}.cls-7,.cls-8{fill:#fff;}.cls-8{opacity:0;}.cls-9{fill:#1f1f1d;}.cls-10{fill:#7e348b;}.cls-4{opacity:.05;}.cls-5{fill:url(#Nowy_wzorek);opacity:.1;}.cls-11{fill:url(#linear-gradient-5);}.cls-12{fill:none;}.cls-13{fill:#ffd110;}.cls-14{fill:url(#linear-gradient-3);}.cls-15{fill:url(#linear-gradient);}.cls-16{fill:url(#linear-gradient-4);}</style><linearGradient id="linear-gradient" x1="572.67" y1="-.45" x2="460.96" y2="111.26" gradientTransform="translate(0 126.27) scale(1 -1)" gradientUnits="userSpaceOnUse"><stop offset="0" stop-color="#9d9d9c"/><stop offset=".54" stop-color="#010101"/><stop offset="1" stop-color="#9d9d9c"/></linearGradient><linearGradient id="linear-gradient-2" x1="516.84" y1="-4.63" x2="516.84" y2="115.43" gradientTransform="translate(0 126.27) scale(1 -1)" gradientUnits="userSpaceOnUse"><stop offset="0" stop-color="#452b1a"/><stop offset="1" stop-color="#b18049"/></linearGradient><linearGradient id="linear-gradient-3" x1="516.82" y1="-2.96" x2="516.82" y2="113.82" gradientTransform="translate(0 126.27) scale(1 -1)" gradientUnits="userSpaceOnUse"><stop offset="0" stop-color="#946137"/><stop offset="1" stop-color="#7f5026"/></linearGradient><pattern id="Nowy_wzorek" x="0" y="0" width="19.7" height="21.7" patternTransform="translate(8.6 -16239.44) scale(1 -1)" patternUnits="userSpaceOnUse" viewBox="0 0 19.7 21.7"><g><rect class="cls-12" width="19.7" height="21.7"/><g><rect class="cls-12" width="19.7" height="21.7"/><g><rect class="cls-12" width="19.7" height="21.7"/><g><rect class="cls-12" width="19.7" height="21.7"/><path class="cls-9" d="M16.6,13c2.1-2.1,2.1-5.6,0-7.7l-1.2-1.2c-2.1-2.1-5.6-2.1-7.8,0L3.1,8.7c-2.1,2.1-2.1,5.6,0,7.7l1.2,1.2c2.1,2.1,5.6,2.1,7.7,0l4.6-4.6Z"/></g></g></g></g></pattern><linearGradient id="linear-gradient-4" x1="-288.92" y1="-932.18" x2="-258.14" y2="-901.39" gradientTransform="translate(76.78 -797.74) rotate(-45) scale(1 -1)" gradientUnits="userSpaceOnUse"><stop offset="0" stop-color="#1d1327"/><stop offset=".24" stop-color="#372348"/><stop offset=".49" stop-color="#573a6c"/><stop offset=".71" stop-color="#714f8b"/><stop offset=".89" stop-color="#825c9f"/><stop offset="1" stop-color="#8862a6"/></linearGradient><linearGradient id="linear-gradient-5" x1="-326.94" y1="1111.46" x2="-296.16" y2="1080.67" gradientTransform="translate(-23.11 -897.62) rotate(-45)" gradientUnits="userSpaceOnUse"><stop offset="0" stop-color="#951917"/><stop offset=".21" stop-color="#b9231c"/><stop offset=".47" stop-color="#e52922"/><stop offset=".55" stop-color="#e62d28"/><stop offset=".84" stop-color="#e7393a"/><stop offset="1" stop-color="#e83e41"/></linearGradient></defs><rect class="cls-8" width="566.93" height="141.73"/><g id="prodBg"><rect id="external-border" class="cls-15" x="466.97" y="9" width="99.69" height="123.73"/><rect id="internal-border" class="cls-1" x="468.81" y="10.84" width="96.07" height="120.06"/><rect id="bg" class="cls-14" x="470.42" y="12.45" width="92.8" height="116.78"/><rect id="bgPattern" class="cls-5" x="470.42" y="12.45" width="92.8" height="116.78"/></g><path d="M484,46.63v-5.42h13.01v5.42h-13.01Z"/><g id="energy"><rect class="cls-3" x="508.52" y="20.83" width="46.2" height="46.2"/><rect class="cls-16" x="509.85" y="22.16" width="43.54" height="43.54"/><polygon class="cls-10" points="551.28 24.27 551.28 63.59 511.97 63.59 511.97 24.27 551.28 24.27"/><polygon class="cls-7" points="526.83 39.43 539.79 31.39 532.86 41.43 536.53 47.4 523.79 55.44 530.2 45.43 526.83 39.43"/><path id="darker" class="cls-2" d="M553.39,65.7h-43.54v-23.86s13.71,2.11,21.75,2.11,21.79-2.11,21.79-2.11v23.86Z"/></g><path d="M533.18,107.21v-5.21h-9.11v-2.93l8.95-11.38h3.57v11.38h2.28v2.93h-2.28v5.21h-3.41Zm-5.99-8.13h6.07v-7.65l-6.07,7.65Z"/><g id="heat"><rect class="cls-3" x="508.52" y="74.6" width="46.2" height="46.2"/><rect class="cls-11" x="509.85" y="75.93" width="43.54" height="43.54"/><rect class="cls-6" x="511.97" y="78.04" width="39.31" height="39.31"/><path id="darker-2" class="cls-4" d="M553.39,119.47h-43.54v-23.86s13.71,2.11,21.75,2.11,21.79-2.11,21.79-2.11v23.86Z"/><g><polygon class="cls-13" points="526.71 99.72 521.75 95.42 521.75 95.42 521.75 82.3 516.78 95.68 521.79 99.9 521.79 99.9 521.75 113.1 526.71 99.72"/><polygon class="cls-13" points="536.61 99.72 531.64 95.42 531.6 95.42 531.64 82.3 526.68 95.68 531.64 99.9 531.64 99.9 531.64 113.1 536.61 99.72"/><polygon class="cls-13" points="546.76 99.72 541.79 95.42 541.76 95.42 541.79 82.3 536.83 95.68 541.79 99.9 541.79 99.9 541.79 113.1 546.76 99.72"/></g></g><path d="M492.09,107.21v-5.21h-9.11v-2.93l8.95-11.38h3.57v11.38h2.28v2.93h-2.28v5.21h-3.41Zm-5.99-8.13h6.07v-7.65l-6.07,7.65Z"/></svg>