<?xml version="1.0" encoding="UTF-8"?><svg id="Layer" xmlns="http://www.w3.org/2000/svg" xmlns:xlink="http://www.w3.org/1999/xlink" viewBox="0 0 566.93 141.73"><defs><style>.cls-1{fill:url(#linear-gradient-2);}.cls-2{fill:#010101;stroke:#020303;stroke-miterlimit:10;stroke-width:.76px;}.cls-3,.cls-4{fill:#020303;}.cls-5{fill:rgba(255,255,255,0);}.cls-6{fill:#e52922;}.cls-7{fill:url(#linear-gradient-6);}.cls-8{fill:#1f1f1d;}.cls-9{fill:url(#Nowy_wzorek);opacity:.1;}.cls-9,.cls-4{isolation:isolate;}.cls-10{fill:url(#linear-gradient-5);}.cls-11{fill:none;}.cls-12{fill:#ffd110;}.cls-13{fill:url(#linear-gradient-7);}.cls-14{fill:url(#linear-gradient-9);}.cls-15{fill:url(#linear-gradient-3);}.cls-4{opacity:.05;}.cls-16{fill:url(#linear-gradient);}.cls-17{fill:url(#linear-gradient-4);}.cls-18{fill:url(#linear-gradient-8);}</style><linearGradient id="linear-gradient" x1="560.67" y1="154.18" x2="424.96" y2="18.47" gradientTransform="translate(0 -15.46)" gradientUnits="userSpaceOnUse"><stop offset="0" stop-color="#9d9d9c"/><stop offset=".54" stop-color="#010101"/><stop offset="1" stop-color="#9d9d9c"/></linearGradient><linearGradient id="linear-gradient-2" x1="492.85" y1="146.36" x2="492.85" y2="26.3" gradientTransform="translate(0 -15.46)" gradientUnits="userSpaceOnUse"><stop offset="0" stop-color="#452b1a"/><stop offset="1" stop-color="#b18049"/></linearGradient><linearGradient id="linear-gradient-3" x1="492.82" y1="144.69" x2="492.82" y2="27.91" gradientTransform="translate(0 -15.46)" gradientUnits="userSpaceOnUse"><stop offset="0" stop-color="#946137"/><stop offset="1" stop-color="#7f5026"/></linearGradient><pattern id="Nowy_wzorek" x="0" y="0" width="19.7" height="21.7" patternTransform="translate(8.6 16522.9)" patternUnits="userSpaceOnUse" viewBox="0 0 19.7 21.7"><g><rect class="cls-11" width="19.7" height="21.7"/><g><rect class="cls-11" width="19.7" height="21.7"/><g><rect class="cls-11" width="19.7" height="21.7"/><g><rect class="cls-11" width="19.7" height="21.7"/><g><rect class="cls-11" width="19.7" height="21.7"/><path class="cls-8" d="M16.6,8.7c2.1,2.1,2.1,5.6,0,7.7l-1.2,1.2c-2.1,2.1-5.6,2.1-7.8,0L3.1,13c-2.1-2.1-2.1-5.6,0-7.7l1.2-1.2c2.1-2.1,5.6-2.1,7.7,0l4.6,4.6Z"/></g></g></g></g></g></pattern><linearGradient id="linear-gradient-4" x1="-327.11" y1="-893.51" x2="-296.31" y2="-862.72" gradientTransform="translate(77.11 -797.4) rotate(-45) scale(1 -1)" gradientUnits="userSpaceOnUse"><stop offset="0" stop-color="#951917"/><stop offset=".21" stop-color="#b9231c"/><stop offset=".47" stop-color="#e52922"/><stop offset=".55" stop-color="#e62d28"/><stop offset=".84" stop-color="#e7393a"/><stop offset="1" stop-color="#e83e41"/></linearGradient><linearGradient id="linear-gradient-5" x1="-288.92" y1="-931.7" x2="-258.13" y2="-900.9" gradientTransform="translate(77.11 -797.4) rotate(-45) scale(1 -1)" gradientUnits="userSpaceOnUse"><stop offset="0" stop-color="#951917"/><stop offset=".21" stop-color="#b9231c"/><stop offset=".47" stop-color="#e52922"/><stop offset=".55" stop-color="#e62d28"/><stop offset=".84" stop-color="#e7393a"/><stop offset="1" stop-color="#e83e41"/></linearGradient><linearGradient id="linear-gradient-6" x1="503.64" y1="135.93" x2="503.64" y2="92.37" gradientTransform="translate(0 -16.47)" gradientUnits="userSpaceOnUse"><stop offset=".16" stop-color="#813912"/><stop offset=".18" stop-color="#975a19"/><stop offset=".22" stop-color="#ae7d21"/><stop offset=".26" stop-color="#c39d27"/><stop offset=".3" stop-color="#d6b92e"/><stop offset=".35" stop-color="#e4cf35"/><stop offset=".41" stop-color="#efe036"/><stop offset=".48" stop-color="#f6e942"/><stop offset=".58" stop-color="#f8ea48"/><stop offset=".86" stop-color="#f7ea47"/><stop offset="1" stop-color="#fcf4f9"/></linearGradient><linearGradient id="linear-gradient-7" x1="503.64" y1="90.05" x2="503.64" y2="156.63" gradientTransform="translate(0 -16.47)" gradientUnits="userSpaceOnUse"><stop offset=".26" stop-color="#f7ea47"/><stop offset=".86" stop-color="#803612"/></linearGradient><linearGradient id="linear-gradient-8" x1="503.67" y1="135.33" x2="503.67" y2="93.02" gradientTransform="translate(0 -16.47)" gradientUnits="userSpaceOnUse"><stop offset=".16" stop-color="#803612"/><stop offset=".17" stop-color="#8b461e"/><stop offset=".18" stop-color="#a26a3b"/><stop offset=".2" stop-color="#b78954"/><stop offset=".22" stop-color="#c7a468"/><stop offset=".24" stop-color="#d7bb7a"/><stop offset=".26" stop-color="#e2cc88"/><stop offset=".3" stop-color="#ead891"/><stop offset=".34" stop-color="#eede97"/><stop offset=".46" stop-color="#efe097"/><stop offset=".7" stop-color="#803612"/><stop offset=".73" stop-color="#e6d234"/><stop offset=".74" stop-color="#ead848"/><stop offset=".75" stop-color="#eede6d"/><stop offset=".77" stop-color="#f1e38b"/><stop offset=".79" stop-color="#f7eaa9"/><stop offset=".8" stop-color="#f8edbf"/><stop offset=".83" stop-color="#faf0cf"/><stop offset=".85" stop-color="#fcf2da"/><stop offset=".89" stop-color="#fdf4e1"/><stop offset=".99" stop-color="#fdf5e3"/></linearGradient><linearGradient id="linear-gradient-9" x1="503.63" y1="99.22" x2="503.63" y2="164.52" gradientTransform="translate(0 -16.47)" gradientUnits="userSpaceOnUse"><stop offset=".26" stop-color="#f7ea47"/><stop offset=".77" stop-color="#803612"/></linearGradient></defs><rect class="cls-5" width="566.93" height="141.73"/><g id="prodBg"><rect id="external-border" class="cls-16" x="418.97" y="9" width="147.69" height="123.73"/><rect id="internal-border" class="cls-1" x="420.81" y="10.84" width="144.07" height="120.06"/><rect id="bg" class="cls-15" x="422.42" y="12.45" width="140.8" height="116.78"/><rect id="bgPattern" class="cls-9" x="422.42" y="12.45" width="140.8" height="116.78"/></g><path d="M459.07,109.97v-9.67h-9.67v-3.97h9.67v-9.67h3.97v9.67h9.67v3.97h-9.67v9.67h-3.97Z"/><path d="M432,46.63v-5.42h13.01v5.42h-13.01Z"/><g id="heat"><rect class="cls-3" x="454.52" y="20.83" width="46.2" height="46.2"/><rect class="cls-17" x="455.85" y="22.16" width="43.54" height="43.54"/><rect class="cls-6" x="457.97" y="24.27" width="39.31" height="39.31"/><path id="darker" class="cls-4" d="M499.39,65.7h-43.54v-23.86s13.71,2.11,21.75,2.11,21.79-2.11,21.79-2.11v23.86Z"/><g><polygon class="cls-12" points="472.71 45.95 467.75 41.65 467.75 41.65 467.75 28.54 462.78 41.91 467.79 46.14 467.79 46.14 467.75 59.33 472.71 45.95"/><polygon class="cls-12" points="482.61 45.95 477.64 41.65 477.6 41.65 477.64 28.54 472.68 41.91 477.64 46.14 477.64 46.14 477.64 59.33 482.61 45.95"/><polygon class="cls-12" points="492.76 45.95 487.79 41.65 487.76 41.65 487.79 28.54 482.83 41.91 487.79 46.14 487.79 46.14 487.79 59.33 492.76 45.95"/></g></g><g id="heat-2"><rect class="cls-3" x="508.52" y="20.83" width="46.2" height="46.2"/><rect class="cls-10" x="509.85" y="22.16" width="43.54" height="43.54"/><rect class="cls-6" x="511.97" y="24.27" width="39.31" height="39.31"/><path id="darker-2" class="cls-4" d="M553.39,65.7h-43.54v-23.86s13.71,2.11,21.75,2.11,21.79-2.11,21.79-2.11v23.86h0Z"/><g><polygon class="cls-12" points="526.71 45.95 521.75 41.65 521.75 41.65 521.75 28.54 516.78 41.91 521.79 46.14 521.79 46.14 521.75 59.33 526.71 45.95"/><polygon class="cls-12" points="536.61 45.95 531.64 41.65 531.6 41.65 531.64 28.54 526.68 41.91 531.64 46.14 531.64 46.14 531.64 59.33 536.61 45.95"/><polygon class="cls-12" points="546.76 45.95 541.79 41.65 541.76 41.65 541.79 28.54 536.83 41.91 541.79 46.14 541.79 46.14 541.79 59.33 546.76 45.95"/></g></g><g id="mln"><polygon id="obram_czarne" class="cls-2" points="487.52 74.58 480.52 81.58 480.52 113.78 487.52 120.78 519.76 120.78 526.73 113.78 526.73 81.58 519.76 74.58 487.52 74.58"/><polygon id="obram_zolte" class="cls-7" points="488.43 75.9 481.88 82.49 481.88 112.87 488.43 119.46 518.82 119.46 525.4 112.87 525.4 82.49 518.82 75.9 488.43 75.9"/><polygon id="tlo_wew" class="cls-13" points="488.88 76.55 482.49 82.94 482.49 112.42 488.88 118.82 518.4 118.82 524.8 112.42 524.8 82.94 518.4 76.55 488.88 76.55"/><path id="obram_skosne" class="cls-18" d="M521.73,105.84c-1.17,0-2.12-.95-2.12-2.12v-12.07c0-1.17,.95-2.12,2.12-2.12h3.03v-6.58l-6.36-6.4h-6.62v3.03c0,1.17-.95,2.12-2.12,2.12h-12.07c-1.17,0-2.12-.95-2.12-2.12v-3.03h-6.58l-6.4,6.4v6.62h3.03c1.17,0,2.12,.95,2.12,2.12v12.07c0,1.17-.95,2.12-2.12,2.12h-3.03v6.58l6.4,6.4h6.62v-3.03c0-1.17,.95-2.12,2.12-2.12h12.07c1.17,0,2.12,.95,2.12,2.12v3.03h6.62l6.4-6.4v-6.62h-3.11Z"/><path id="tlo_zew" class="cls-14" d="M521.62,106.55c-1.44,0-2.61-1.44-2.61-2.88v-12c0-1.44,1.17-2.88,2.61-2.88h2.46v-5.37l-6.21-6.17h-5.34v2.46c0,1.44-1.44,2.61-2.88,2.61h-12c-1.44,0-2.88-1.17-2.88-2.61v-2.46h-5.41l-6.17,6.17v5.37h2.46c1.44,0,2.61,1.44,2.61,2.88v12c0,1.44-1.17,2.88-2.61,2.88h-2.46v5.37l6.17,6.17h5.37v-2.46c0-1.44,1.44-2.61,2.88-2.61h11.96c1.44,0,2.88,1.17,2.88,2.61v2.46h5.37l6.17-6.17v-5.37h-2.37Z"/></g><path d="M498.16,107.37v-2.93c1.93,.75,3.54,1.12,4.81,1.12,1.12,0,2.05-.3,2.77-.89s1.08-1.39,1.08-2.39c0-.73-.19-1.39-.57-1.98-.38-.59-.93-1.05-1.65-1.38-.73-.33-1.87-.49-3.43-.49h-1.2v-2.33h1.01c1.49-.01,2.57-.15,3.22-.42s1.16-.68,1.53-1.25,.55-1.17,.55-1.82c0-.78-.27-1.42-.8-1.91-.53-.49-1.36-.74-2.49-.74-1.42,0-2.95,.37-4.57,1.11v-2.66c.82-.28,1.47-.47,1.94-.56,.48-.09,1.04-.17,1.68-.23s1.25-.09,1.82-.09c2.05,0,3.63,.42,4.74,1.26,1.11,.84,1.67,1.97,1.67,3.4,0,1.15-.36,2.13-1.07,2.94-.72,.81-1.79,1.46-3.24,1.93,1.26,.29,2.22,.69,2.88,1.21,.66,.51,1.17,1.12,1.52,1.82,.35,.7,.53,1.45,.53,2.25,0,1.48-.58,2.79-1.75,3.95-1.16,1.16-3.05,1.73-5.65,1.73-.69,0-1.41-.02-2.18-.06s-1.82-.23-3.16-.57v-.02Z"/></svg>