<?xml version="1.0" encoding="UTF-8"?><svg id="Layer" xmlns="http://www.w3.org/2000/svg" xmlns:xlink="http://www.w3.org/1999/xlink" viewBox="0 0 566.93 141.73"><defs><style>.cls-1{fill:url(#linear-gradient-2);}.cls-2{opacity:.15;}.cls-2,.cls-3{fill:#020303;}.cls-2,.cls-4{isolation:isolate;}.cls-5{stroke-width:.37px;}.cls-5,.cls-6{fill:#fff;}.cls-5,.cls-7{stroke:#020303;stroke-miterlimit:10;}.cls-6{opacity:0;}.cls-8{fill:url(#linear-gradient-6);}.cls-9{fill:#1f1f1d;}.cls-10{fill:#7e348b;}.cls-11{fill:url(#linear-gradient-10);}.cls-4{fill:url(#Nowy_wzorek);opacity:.1;}.cls-12{fill:url(#linear-gradient-5);}.cls-7{fill:#010101;stroke-width:.76px;}.cls-13{fill:none;}.cls-14{fill:url(#linear-gradient-7);}.cls-15{fill:url(#linear-gradient-9);}.cls-16{fill:url(#linear-gradient-3);}.cls-17{fill:url(#linear-gradient);}.cls-18{fill:url(#linear-gradient-4);}.cls-19{fill:url(#linear-gradient-8);}</style><linearGradient id="linear-gradient" x1="544.42" y1="-28.7" x2="376.21" y2="139.51" gradientTransform="translate(0 126.27) scale(1 -1)" gradientUnits="userSpaceOnUse"><stop offset="0" stop-color="#9d9d9c"/><stop offset=".54" stop-color="#010101"/><stop offset="1" stop-color="#9d9d9c"/></linearGradient><linearGradient id="linear-gradient-2" x1="460.34" y1="-4.63" x2="460.34" y2="115.43" gradientTransform="translate(0 126.27) scale(1 -1)" gradientUnits="userSpaceOnUse"><stop offset="0" stop-color="#452b1a"/><stop offset="1" stop-color="#b18049"/></linearGradient><linearGradient id="linear-gradient-3" x1="460.32" y1="-2.96" x2="460.32" y2="113.82" gradientTransform="translate(0 126.27) scale(1 -1)" gradientUnits="userSpaceOnUse"><stop offset="0" stop-color="#946137"/><stop offset="1" stop-color="#7f5026"/></linearGradient><pattern id="Nowy_wzorek" x="0" y="0" width="19.7" height="21.7" patternTransform="translate(8.6 -16239.44) scale(1 -1)" patternUnits="userSpaceOnUse" viewBox="0 0 19.7 21.7"><g><rect class="cls-13" width="19.7" height="21.7"/><g><rect class="cls-13" width="19.7" height="21.7"/><g><rect class="cls-13" width="19.7" height="21.7"/><g><rect class="cls-13" width="19.7" height="21.7"/><path class="cls-9" d="M16.6,13c2.1-2.1,2.1-5.6,0-7.7l-1.2-1.2c-2.1-2.1-5.6-2.1-7.8,0L3.1,8.7c-2.1,2.1-2.1,5.6,0,7.7l1.2,1.2c2.1,2.1,5.6,2.1,7.7,0l4.6-4.6Z"/></g></g></g></g></pattern><linearGradient id="linear-gradient-4" x1="-326.93" y1="-970.18" x2="-296.14" y2="-939.4" gradientTransform="translate(76.78 -797.74) rotate(-45) scale(1 -1)" gradientUnits="userSpaceOnUse"><stop offset="0" stop-color="#1d1327"/><stop offset=".24" stop-color="#372348"/><stop offset=".49" stop-color="#573a6c"/><stop offset=".71" stop-color="#714f8b"/><stop offset=".89" stop-color="#825c9f"/><stop offset="1" stop-color="#8862a6"/></linearGradient><linearGradient id="linear-gradient-5" x1="476.59" y1="59.58" x2="476.59" y2="103.13" gradientTransform="translate(0 125.26) scale(1 -1)" gradientUnits="userSpaceOnUse"><stop offset=".16" stop-color="#813912"/><stop offset=".18" stop-color="#975a19"/><stop offset=".22" stop-color="#ae7d21"/><stop offset=".26" stop-color="#c39d27"/><stop offset=".3" stop-color="#d6b92e"/><stop offset=".35" stop-color="#e4cf35"/><stop offset=".41" stop-color="#efe036"/><stop offset=".48" stop-color="#f6e942"/><stop offset=".58" stop-color="#f8ea48"/><stop offset=".86" stop-color="#f7ea47"/><stop offset="1" stop-color="#fcf4f9"/></linearGradient><linearGradient id="linear-gradient-6" x1="476.59" y1="105.45" x2="476.59" y2="38.88" gradientTransform="translate(0 125.26) scale(1 -1)" gradientUnits="userSpaceOnUse"><stop offset=".26" stop-color="#f7ea47"/><stop offset=".86" stop-color="#803612"/></linearGradient><linearGradient id="linear-gradient-7" x1="476.61" y1="60.18" x2="476.61" y2="102.49" gradientTransform="translate(0 125.26) scale(1 -1)" gradientUnits="userSpaceOnUse"><stop offset=".16" stop-color="#803612"/><stop offset=".17" stop-color="#8b461e"/><stop offset=".18" stop-color="#a26a3b"/><stop offset=".2" stop-color="#b78954"/><stop offset=".22" stop-color="#c7a468"/><stop offset=".24" stop-color="#d7bb7a"/><stop offset=".26" stop-color="#e2cc88"/><stop offset=".3" stop-color="#ead891"/><stop offset=".34" stop-color="#eede97"/><stop offset=".46" stop-color="#efe097"/><stop offset=".7" stop-color="#803612"/><stop offset=".73" stop-color="#e6d234"/><stop offset=".74" stop-color="#ead848"/><stop offset=".75" stop-color="#eede6d"/><stop offset=".77" stop-color="#f1e38b"/><stop offset=".79" stop-color="#f7eaa9"/><stop offset=".8" stop-color="#f8edbf"/><stop offset=".83" stop-color="#faf0cf"/><stop offset=".85" stop-color="#fcf2da"/><stop offset=".89" stop-color="#fdf4e1"/><stop offset=".99" stop-color="#fdf5e3"/></linearGradient><linearGradient id="linear-gradient-8" x1="476.59" y1="96.28" x2="476.59" y2="30.99" gradientTransform="translate(0 125.26) scale(1 -1)" gradientUnits="userSpaceOnUse"><stop offset=".26" stop-color="#f7ea47"/><stop offset=".77" stop-color="#803612"/></linearGradient><linearGradient id="linear-gradient-9" x1="-365.82" y1="-931.29" x2="-335.04" y2="-900.51" xlink:href="#linear-gradient-4"/><linearGradient id="linear-gradient-10" x1="-404.71" y1="-892.4" x2="-373.93" y2="-861.61" xlink:href="#linear-gradient-4"/></defs><rect class="cls-6" width="566.93" height="141.73"/><g id="prodBg"><rect id="external-border" class="cls-17" x="353.97" y="9" width="212.69" height="123.73"/><rect id="internal-border" class="cls-1" x="355.81" y="10.84" width="209.07" height="120.06"/><rect id="bg" class="cls-16" x="357.42" y="12.45" width="205.8" height="116.78"/><rect id="bgPattern" class="cls-4" x="357.42" y="12.45" width="205.8" height="116.78"/></g><path d="M377.07,109.97v-9.67h-9.67v-3.97h9.67v-9.67h3.97v9.67h9.67v3.97h-9.67v9.67h-3.97Z"/><g id="energy"><rect class="cls-3" x="508.52" y="74.58" width="46.2" height="46.2"/><rect class="cls-18" x="509.85" y="75.91" width="43.54" height="43.54"/><polygon class="cls-10" points="551.28 78.02 551.28 117.34 511.97 117.34 511.97 78.02 551.28 78.02"/><polygon class="cls-5" points="526.83 93.18 539.79 85.14 532.86 95.18 536.53 101.15 523.79 109.19 530.2 99.18 526.83 93.18"/><path id="darker" class="cls-2" d="M553.39,119.45h-43.54v-23.86s13.71,2.11,21.75,2.11,21.79-2.11,21.79-2.11v23.86Z"/></g><g id="mln"><polygon id="obram_czarne" class="cls-7" points="460.47 20.8 453.47 27.8 453.47 60.01 460.47 67.01 492.71 67.01 499.68 60.01 499.68 27.8 492.71 20.8 460.47 20.8"/><polygon id="obram_zolte" class="cls-12" points="461.38 22.13 454.83 28.71 454.83 59.1 461.38 65.68 491.77 65.68 498.35 59.1 498.35 28.71 491.77 22.13 461.38 22.13"/><polygon id="tlo_wew" class="cls-8" points="461.84 22.77 455.44 29.17 455.44 58.64 461.84 65.04 491.35 65.04 497.75 58.64 497.75 29.17 491.35 22.77 461.84 22.77"/><path id="obram_skosne" class="cls-14" d="M494.68,52.06c-1.17,0-2.12-.95-2.12-2.12v-12.07c0-1.17,.95-2.12,2.12-2.12h3.03v-6.58l-6.36-6.4h-6.62v3.03c0,1.17-.95,2.12-2.12,2.12h-12.07c-1.17,0-2.12-.95-2.12-2.12v-3.03h-6.58l-6.4,6.4v6.62h3.03c1.17,0,2.12,.95,2.12,2.12v12.07c0,1.17-.95,2.12-2.12,2.12h-3.03v6.58l6.4,6.4h6.62v-3.03c0-1.17,.95-2.12,2.12-2.12h12.07c1.17,0,2.12,.95,2.12,2.12v3.03h6.62l6.4-6.4v-6.62h-3.1Z"/><path id="tlo_zew" class="cls-19" d="M494.57,52.78c-1.44,0-2.61-1.44-2.61-2.88v-12c0-1.44,1.17-2.88,2.61-2.88h2.46v-5.37l-6.21-6.17h-5.34v2.46c0,1.44-1.44,2.61-2.88,2.61h-12c-1.44,0-2.88-1.17-2.88-2.61v-2.46h-5.41l-6.17,6.17v5.37h2.46c1.44,0,2.61,1.44,2.61,2.88v12c0,1.44-1.17,2.88-2.61,2.88h-2.46v5.37l6.17,6.17h5.37v-2.46c0-1.44,1.44-2.61,2.88-2.61h11.96c1.44,0,2.88,1.17,2.88,2.61v2.46h5.37l6.17-6.17v-5.37h-2.38Z"/></g><g><path d="M464.44,46.18v-2.44h5.85v2.44h-5.85Z"/><path d="M473.1,53.26v-3.08c1.18-1.58,2.32-2.86,3.42-3.82l1.59-1.41c1.14-1.01,2.08-2.01,2.83-3,.75-.99,1.12-2.02,1.12-3.1,0-.98-.31-1.73-.94-2.26-.63-.53-1.48-.8-2.55-.8-1.42,0-3.08,.48-4.97,1.45v-2.86c1.98-.74,3.9-1.11,5.75-1.11,2.05,0,3.7,.49,4.96,1.47s1.89,2.29,1.89,3.94c0,1.04-.27,2.02-.8,2.93-.53,.92-1.64,2.05-3.31,3.41l-1.32,1.05c-.58,.47-1.21,1.06-1.9,1.79s-1.14,1.5-1.36,2.32h8.61v3.08h-13.03Z"/></g><g id="energy-2"><rect class="cls-3" x="453.52" y="74.58" width="46.2" height="46.2"/><rect class="cls-15" x="454.85" y="75.91" width="43.54" height="43.54"/><polygon class="cls-10" points="496.28 78.02 496.28 117.34 456.97 117.34 456.97 78.02 496.28 78.02"/><polygon class="cls-5" points="471.83 93.18 484.79 85.14 477.86 95.18 481.53 101.15 468.79 109.19 475.2 99.18 471.83 93.18"/><path id="darker-2" class="cls-2" d="M498.39,119.45h-43.54v-23.86s13.71,2.11,21.75,2.11,21.79-2.11,21.79-2.11v23.86Z"/></g><g id="energy-3"><rect class="cls-3" x="398.52" y="74.58" width="46.2" height="46.2"/><rect class="cls-11" x="399.85" y="75.91" width="43.54" height="43.54"/><polygon class="cls-10" points="441.28 78.02 441.28 117.34 401.97 117.34 401.97 78.02 441.28 78.02"/><polygon class="cls-5" points="416.83 93.18 429.79 85.14 422.86 95.18 426.53 101.15 413.79 109.19 420.2 99.18 416.83 93.18"/><path id="darker-3" class="cls-2" d="M443.39,119.45h-43.54v-23.86s13.71,2.11,21.75,2.11,21.79-2.11,21.79-2.11v23.86Z"/></g></svg>