<?xml version="1.0" encoding="UTF-8"?><svg id="Layer" xmlns="http://www.w3.org/2000/svg" xmlns:xlink="http://www.w3.org/1999/xlink" viewBox="0 0 566.93 141.73"><defs><style>.cls-1{fill:url(#linear-gradient-2);}.cls-2{opacity:.15;}.cls-2,.cls-3,.cls-4{fill:#020303;}.cls-2,.cls-4,.cls-5{isolation:isolate;}.cls-6{stroke-width:.37px;}.cls-6,.cls-7{fill:#fff;}.cls-6,.cls-8{stroke:#020303;}.cls-6,.cls-8,.cls-9{stroke-miterlimit:10;}.cls-7{opacity:0;}.cls-10{fill:url(#linear-gradient-6);}.cls-4{opacity:.64;}.cls-11{fill:#1f1f1d;}.cls-12{fill:#7e348b;}.cls-5{fill:url(#Nowy_wzorek);opacity:.1;}.cls-13{fill:url(#linear-gradient-5);}.cls-8{fill:#010101;stroke-width:.76px;}.cls-14{fill:#50504f;}.cls-15,.cls-9{fill:none;}.cls-16{fill:url(#linear-gradient-7);}.cls-17{fill:url(#linear-gradient-9);}.cls-18{fill:url(#linear-gradient-3);}.cls-19{fill:url(#linear-gradient);}.cls-20{fill:url(#linear-gradient-4);}.cls-21{fill:url(#linear-gradient-8);}.cls-9{stroke:#ffd80c;stroke-width:1.85px;}</style><linearGradient id="linear-gradient" x1="558.92" y1="-14.2" x2="419.71" y2="125.01" gradientTransform="translate(0 126.27) scale(1 -1)" gradientUnits="userSpaceOnUse"><stop offset="0" stop-color="#9d9d9c"/><stop offset=".54" stop-color="#010101"/><stop offset="1" stop-color="#9d9d9c"/></linearGradient><linearGradient id="linear-gradient-2" x1="489.34" y1="-4.63" x2="489.34" y2="115.43" gradientTransform="translate(0 126.27) scale(1 -1)" gradientUnits="userSpaceOnUse"><stop offset="0" stop-color="#452b1a"/><stop offset="1" stop-color="#b18049"/></linearGradient><linearGradient id="linear-gradient-3" x1="489.32" y1="-2.96" x2="489.32" y2="113.82" gradientTransform="translate(0 126.27) scale(1 -1)" gradientUnits="userSpaceOnUse"><stop offset="0" stop-color="#946137"/><stop offset="1" stop-color="#7f5026"/></linearGradient><pattern id="Nowy_wzorek" x="0" y="0" width="19.7" height="21.7" patternTransform="translate(8.6 -16239.44) scale(1 -1)" patternUnits="userSpaceOnUse" viewBox="0 0 19.7 21.7"><g><rect class="cls-15" width="19.7" height="21.7"/><g><rect class="cls-15" width="19.7" height="21.7"/><g><rect class="cls-15" width="19.7" height="21.7"/><g><rect class="cls-15" width="19.7" height="21.7"/><path class="cls-11" d="M16.6,13c2.1-2.1,2.1-5.6,0-7.7l-1.2-1.2c-2.1-2.1-5.6-2.1-7.8,0L3.1,8.7c-2.1,2.1-2.1,5.6,0,7.7l1.2,1.2c2.1,2.1,5.6,2.1,7.7,0l4.6-4.6Z"/></g></g></g></g></pattern><linearGradient id="linear-gradient-4" x1="-308.01" y1="-913.08" x2="-277.23" y2="-882.3" gradientTransform="translate(76.78 -797.74) rotate(-45) scale(1 -1)" gradientUnits="userSpaceOnUse"><stop offset="0" stop-color="#1d1327"/><stop offset=".24" stop-color="#372348"/><stop offset=".49" stop-color="#573a6c"/><stop offset=".71" stop-color="#714f8b"/><stop offset=".89" stop-color="#825c9f"/><stop offset="1" stop-color="#8862a6"/></linearGradient><linearGradient id="linear-gradient-5" x1="-365.41" y1="-931.73" x2="-334.62" y2="-900.95" gradientTransform="translate(76.78 -797.74) rotate(-45) scale(1 -1)" gradientUnits="userSpaceOnUse"><stop offset="0" stop-color="#020303"/><stop offset="1" stop-color="#797879"/></linearGradient><linearGradient id="linear-gradient-6" x1="531.64" y1="5.78" x2="531.64" y2="49.34" gradientTransform="translate(0 125.26) scale(1 -1)" gradientUnits="userSpaceOnUse"><stop offset=".16" stop-color="#813912"/><stop offset=".18" stop-color="#975a19"/><stop offset=".22" stop-color="#ae7d21"/><stop offset=".26" stop-color="#c39d27"/><stop offset=".3" stop-color="#d6b92e"/><stop offset=".35" stop-color="#e4cf35"/><stop offset=".41" stop-color="#efe036"/><stop offset=".48" stop-color="#f6e942"/><stop offset=".58" stop-color="#f8ea48"/><stop offset=".86" stop-color="#f7ea47"/><stop offset="1" stop-color="#fcf4f9"/></linearGradient><linearGradient id="linear-gradient-7" x1="531.64" y1="51.66" x2="531.64" y2="-14.92" gradientTransform="translate(0 125.26) scale(1 -1)" gradientUnits="userSpaceOnUse"><stop offset=".26" stop-color="#f7ea47"/><stop offset=".86" stop-color="#803612"/></linearGradient><linearGradient id="linear-gradient-8" x1="531.66" y1="6.39" x2="531.66" y2="48.69" gradientTransform="translate(0 125.26) scale(1 -1)" gradientUnits="userSpaceOnUse"><stop offset=".16" stop-color="#803612"/><stop offset=".17" stop-color="#8b461e"/><stop offset=".18" stop-color="#a26a3b"/><stop offset=".2" stop-color="#b78954"/><stop offset=".22" stop-color="#c7a468"/><stop offset=".24" stop-color="#d7bb7a"/><stop offset=".26" stop-color="#e2cc88"/><stop offset=".3" stop-color="#ead891"/><stop offset=".34" stop-color="#eede97"/><stop offset=".46" stop-color="#efe097"/><stop offset=".7" stop-color="#803612"/><stop offset=".73" stop-color="#e6d234"/><stop offset=".74" stop-color="#ead848"/><stop offset=".75" stop-color="#eede6d"/><stop offset=".77" stop-color="#f1e38b"/><stop offset=".79" stop-color="#f7eaa9"/><stop offset=".8" stop-color="#f8edbf"/><stop offset=".83" stop-color="#faf0cf"/><stop offset=".85" stop-color="#fcf2da"/><stop offset=".89" stop-color="#fdf4e1"/><stop offset=".99" stop-color="#fdf5e3"/></linearGradient><linearGradient id="linear-gradient-9" x1="531.64" y1="42.49" x2="531.64" y2="-22.81" gradientTransform="translate(0 125.26) scale(1 -1)" gradientUnits="userSpaceOnUse"><stop offset=".26" stop-color="#f7ea47"/><stop offset=".77" stop-color="#803612"/></linearGradient></defs><rect class="cls-7" width="566.93" height="141.73"/><g id="prodBg"><rect id="external-border" class="cls-19" x="411.97" y="9" width="154.69" height="123.73"/><rect id="internal-border" class="cls-1" x="413.81" y="10.84" width="151.07" height="120.06"/><rect id="bg" class="cls-18" x="415.42" y="12.45" width="147.8" height="116.78"/><rect id="bgPattern" class="cls-5" x="415.42" y="12.45" width="147.8" height="116.78"/></g><path d="M458,46.63v-5.42h13.01v5.42h-13.01Z"/><g id="energy"><rect class="cls-3" x="481.52" y="20.83" width="46.2" height="46.2"/><rect class="cls-20" x="482.85" y="22.16" width="43.54" height="43.54"/><polygon class="cls-12" points="524.28 24.27 524.28 63.59 484.97 63.59 484.97 24.27 524.28 24.27"/><polygon class="cls-6" points="499.83 39.43 512.79 31.39 505.86 41.43 509.53 47.4 496.79 55.44 503.2 45.43 499.83 39.43"/><path id="darker" class="cls-2" d="M526.39,65.7h-43.54v-23.86s13.71,2.11,21.75,2.11,21.79-2.11,21.79-2.11v23.86Z"/></g><path d="M432.86,109.1v-9.67h-9.67v-3.97h9.67v-9.67h3.97v9.67h9.67v3.97h-9.67v9.67h-3.97Z"/><g id="titan"><rect class="cls-3" x="454.13" y="74.6" width="46.2" height="46.2"/><rect class="cls-13" x="455.46" y="75.93" width="43.54" height="43.54"/><rect class="cls-14" x="457.57" y="78.04" width="39.31" height="39.31"/><path id="darker-2" class="cls-4" d="M499,119.47h-43.54v-23.86s13.71,2.11,21.75,2.11,21.79-2.11,21.79-2.11v23.86Z"/><polygon class="cls-9" points="477.47 84.86 481.58 93.49 491.07 94.72 484.1 101.28 485.88 110.65 477.47 106.06 469.1 110.65 470.88 101.28 463.91 94.72 473.4 93.49 477.47 84.86"/></g><g id="mln"><polygon id="obram_czarne" class="cls-8" points="515.52 74.6 508.52 81.6 508.52 113.8 515.52 120.8 547.76 120.8 554.73 113.8 554.73 81.6 547.76 74.6 515.52 74.6"/><polygon id="obram_zolte" class="cls-10" points="516.43 75.92 509.88 82.51 509.88 112.89 516.43 119.48 546.82 119.48 553.4 112.89 553.4 82.51 546.82 75.92 516.43 75.92"/><polygon id="tlo_wew" class="cls-16" points="516.88 76.57 510.49 82.96 510.49 112.44 516.88 118.83 546.4 118.83 552.8 112.44 552.8 82.96 546.4 76.57 516.88 76.57"/><path id="obram_skosne" class="cls-21" d="M549.73,105.85c-1.17,0-2.12-.95-2.12-2.12v-12.07c0-1.17,.95-2.12,2.12-2.12h3.03v-6.58l-6.36-6.4h-6.62v3.03c0,1.17-.95,2.12-2.12,2.12h-12.07c-1.17,0-2.12-.95-2.12-2.12v-3.03h-6.58l-6.4,6.4v6.62h3.03c1.17,0,2.12,.95,2.12,2.12v12.07c0,1.17-.95,2.12-2.12,2.12h-3.03v6.58l6.4,6.4h6.62v-3.03c0-1.17,.95-2.12,2.12-2.12h12.07c1.17,0,2.12,.95,2.12,2.12v3.03h6.62l6.4-6.4v-6.62h-3.1Z"/><path id="tlo_zew" class="cls-17" d="M549.62,106.57c-1.44,0-2.61-1.44-2.61-2.88v-12c0-1.44,1.17-2.88,2.61-2.88h2.46v-5.37l-6.21-6.17h-5.34v2.46c0,1.44-1.44,2.61-2.88,2.61h-12c-1.44,0-2.88-1.17-2.88-2.61v-2.46h-5.41l-6.17,6.17v5.37h2.46c1.44,0,2.61,1.44,2.61,2.88v12c0,1.44-1.17,2.88-2.61,2.88h-2.46v5.37l6.17,6.17h5.37v-2.46c0-1.44,1.44-2.61,2.88-2.61h11.96c1.44,0,2.88,1.17,2.88,2.61v2.46h5.37l6.17-6.17v-5.37h-2.38Z"/></g><path d="M530.28,107.48v-17.24h-2.61l-.08-1.95,6.59-.57v19.76h-3.9Z"/></svg>