<?xml version="1.0" encoding="UTF-8"?><svg id="Layer" xmlns="http://www.w3.org/2000/svg" xmlns:xlink="http://www.w3.org/1999/xlink" viewBox="0 0 566.93 141.73"><defs><style>.cls-1{fill:url(#linear-gradient-2);}.cls-2,.cls-3,.cls-4{fill:#020303;}.cls-5{fill:rgba(255,255,255,0);}.cls-6{fill:#07562a;stroke:#1c4421;stroke-width:1.48px;}.cls-6,.cls-7{stroke-miterlimit:10;}.cls-8{fill:url(#linear-gradient-6);}.cls-9{fill:url(#linear-gradient-4);opacity:.4;}.cls-9,.cls-3,.cls-10,.cls-4{isolation:isolate;}.cls-11{fill:#1f1f1d;}.cls-3{opacity:.15;}.cls-12{fill:#7e348b;}.cls-13{fill:#44ac36;}.cls-10{fill:url(#Nowy_wzorek);opacity:.1;}.cls-14{fill:url(#linear-gradient-5);}.cls-15{fill:none;}.cls-16{fill:url(#linear-gradient-7);}.cls-17{fill:url(#linear-gradient-3);}.cls-4{opacity:.05;}.cls-18{fill:url(#linear-gradient);}.cls-7{fill:#fff;stroke:#020303;stroke-width:.37px;}.cls-19{fill:url(#linear-gradient-8);}</style><linearGradient id="linear-gradient" x1="558.96" y1="155.89" x2="419.82" y2="16.76" gradientTransform="translate(0 -15.46)" gradientUnits="userSpaceOnUse"><stop offset="0" stop-color="#9d9d9c"/><stop offset=".54" stop-color="#010101"/><stop offset="1" stop-color="#9d9d9c"/></linearGradient><linearGradient id="linear-gradient-2" x1="489.42" y1="146.36" x2="489.42" y2="26.3" gradientTransform="translate(0 -15.46)" gradientUnits="userSpaceOnUse"><stop offset="0" stop-color="#452b1a"/><stop offset="1" stop-color="#b18049"/></linearGradient><linearGradient id="linear-gradient-3" x1="489.39" y1="144.69" x2="489.39" y2="27.91" gradientTransform="translate(0 -15.46)" gradientUnits="userSpaceOnUse"><stop offset="0" stop-color="#946137"/><stop offset="1" stop-color="#7f5026"/></linearGradient><pattern id="Nowy_wzorek" x="0" y="0" width="19.7" height="21.7" patternTransform="translate(8.6 16522.9)" patternUnits="userSpaceOnUse" viewBox="0 0 19.7 21.7"><g><rect class="cls-15" width="19.7" height="21.7"/><g><rect class="cls-15" width="19.7" height="21.7"/><g><rect class="cls-15" width="19.7" height="21.7"/><g><rect class="cls-15" width="19.7" height="21.7"/><g><rect class="cls-15" width="19.7" height="21.7"/><path class="cls-11" d="M16.6,8.7c2.1,2.1,2.1,5.6,0,7.7l-1.2,1.2c-2.1,2.1-5.6,2.1-7.8,0L3.1,13c-2.1-2.1-2.1-5.6,0-7.7l1.2-1.2c2.1-2.1,5.6-2.1,7.7,0l4.6,4.6Z"/></g></g></g></g></g></pattern><linearGradient id="linear-gradient-4" x1="504.37" y1="70.61" x2="504.37" y2="126.3" gradientTransform="translate(0 142.27) scale(1 -1)" gradientUnits="userSpaceOnUse"><stop offset="0" stop-color="#ffdc12"/><stop offset="0" stop-color="#ffdb13"/><stop offset=".05" stop-color="#f9bb1b"/><stop offset=".1" stop-color="#f59b18"/><stop offset=".16" stop-color="#ef7b19"/><stop offset=".22" stop-color="#e86112"/><stop offset=".27" stop-color="#e84a1d"/><stop offset=".34" stop-color="#e5391e"/><stop offset=".41" stop-color="#e63121"/><stop offset=".5" stop-color="#e62e21"/><stop offset=".59" stop-color="#e63121"/><stop offset=".66" stop-color="#e5391e"/><stop offset=".73" stop-color="#e84a1d"/><stop offset=".78" stop-color="#e86112"/><stop offset=".84" stop-color="#ef7b19"/><stop offset=".9" stop-color="#f59b18"/><stop offset=".95" stop-color="#f9bb1b"/><stop offset="1" stop-color="#ffdb13"/><stop offset="1" stop-color="#ffdc12"/></linearGradient><linearGradient id="linear-gradient-5" x1="504.38" y1="72.66" x2="504.38" y2="124.25" gradientTransform="translate(0 142.27) scale(1 -1)" gradientUnits="userSpaceOnUse"><stop offset="0" stop-color="#ffdc12"/><stop offset="0" stop-color="#ffdb13"/><stop offset=".05" stop-color="#f9bb1b"/><stop offset=".1" stop-color="#f59b18"/><stop offset=".16" stop-color="#ef7b19"/><stop offset=".22" stop-color="#e86112"/><stop offset=".27" stop-color="#e84a1d"/><stop offset=".34" stop-color="#e5391e"/><stop offset=".41" stop-color="#e63121"/><stop offset=".5" stop-color="#e62e21"/><stop offset=".59" stop-color="#e63121"/><stop offset=".66" stop-color="#e5391e"/><stop offset=".73" stop-color="#e84a1d"/><stop offset=".78" stop-color="#e86112"/><stop offset=".84" stop-color="#ef7b19"/><stop offset=".9" stop-color="#f59b18"/><stop offset=".95" stop-color="#f9bb1b"/><stop offset="1" stop-color="#ffdb13"/><stop offset="1" stop-color="#ffdc12"/></linearGradient><linearGradient id="linear-gradient-6" x1="-308.11" y1="-912.42" x2="-277.33" y2="-881.64" gradientTransform="translate(77.11 -797.4) rotate(-45) scale(1 -1)" gradientUnits="userSpaceOnUse"><stop offset="0" stop-color="#0c6835"/><stop offset=".04" stop-color="#0a6b36"/><stop offset=".08" stop-color="#047638"/><stop offset=".13" stop-color="#078738"/><stop offset=".15" stop-color="#058f39"/><stop offset=".35" stop-color="#34993d"/><stop offset=".76" stop-color="#5eaf47"/><stop offset="1" stop-color="#6eb74a"/></linearGradient><linearGradient id="linear-gradient-7" x1="-326.94" y1="1111.9" x2="-296.14" y2="1081.12" gradientTransform="translate(-23.44 -897.96) rotate(-45)" gradientUnits="userSpaceOnUse"><stop offset="0" stop-color="#1d1327"/><stop offset=".24" stop-color="#372348"/><stop offset=".49" stop-color="#573a6c"/><stop offset=".71" stop-color="#714f8b"/><stop offset=".89" stop-color="#825c9f"/><stop offset="1" stop-color="#8862a6"/></linearGradient><linearGradient id="linear-gradient-8" x1="-365.11" y1="1073.73" x2="-334.33" y2="1042.93" gradientTransform="translate(-23.44 -897.96) rotate(-45)" gradientUnits="userSpaceOnUse"><stop offset="0" stop-color="#1d1327"/><stop offset=".24" stop-color="#372348"/><stop offset=".49" stop-color="#573a6c"/><stop offset=".71" stop-color="#714f8b"/><stop offset=".89" stop-color="#825c9f"/><stop offset="1" stop-color="#8862a6"/></linearGradient></defs><rect class="cls-5" width="566.93" height="141.73"/><g id="prodBg"><rect id="external-border" class="cls-18" x="412.12" y="9" width="154.54" height="123.73"/><rect id="internal-border" class="cls-1" x="413.96" y="10.84" width="150.92" height="120.06"/><rect id="bg" class="cls-17" x="415.57" y="12.45" width="147.65" height="116.78"/><rect id="bgPattern" class="cls-10" x="415.57" y="12.45" width="147.65" height="116.78"/></g><g id="plant"><rect class="cls-9" x="476.53" y="15.97" width="55.69" height="55.69"/><rect class="cls-14" x="478.59" y="18.02" width="51.59" height="51.59"/><rect class="cls-2" x="481.32" y="20.78" width="46.2" height="46.2"/><rect class="cls-8" x="482.65" y="22.11" width="43.54" height="43.54"/><rect class="cls-13" x="484.76" y="24.22" width="39.31" height="39.31"/><path id="leaf" class="cls-6" d="M504.4,33.93c-5.63,.78-9.93,4.45-9.93,9.93,0,1.33,.26,2.63,.74,3.82-1.04,.7-2.56,1.63-3.3,1.89-1.3,.44-3.89,.15-4,.37s.74,2.56,1.04,2.67,2.67,.11,4-.37c.96-.33,2.7-1.45,3.71-2.19,1.82,2.3,4.63,3.74,7.78,3.74,5.48,0,9.86-3.45,9.86-8.93,0-2.11,.52-4.78,1.3-6.45,.85-1.85,5.26-3.04,5.26-3.04-.44-1.45-14.23-1.74-16.45-1.45h0Z"/><path id="darker" class="cls-4" d="M526.19,65.65h-43.54v-23.86s13.71,2.11,21.75,2.11,21.79-2.11,21.79-2.11v23.86Z"/></g><path d="M433.07,109.97v-9.67h-9.67v-3.97h9.67v-9.67h3.97v9.67h9.67v3.97h-9.67v9.67h-3.97Z"/><path d="M453.85,47.8v-5.42h13.01v5.42h-13.01Z"/><g id="energy"><rect class="cls-2" x="508.52" y="74.58" width="46.2" height="46.2"/><rect class="cls-16" x="509.85" y="75.91" width="43.54" height="43.54"/><polygon class="cls-12" points="551.28 78.02 551.28 117.34 511.97 117.34 511.97 78.02 551.28 78.02"/><polygon class="cls-7" points="526.83 93.18 539.79 85.14 532.86 95.18 536.53 101.15 523.79 109.19 530.2 99.18 526.83 93.18"/><path id="darker-2" class="cls-3" d="M553.39,119.45h-43.54v-23.86s13.71,2.11,21.75,2.11,21.79-2.11,21.79-2.11v23.86h0Z"/></g><g id="energy-2"><rect class="cls-2" x="454.52" y="74.58" width="46.2" height="46.2"/><rect class="cls-19" x="455.85" y="75.91" width="43.54" height="43.54"/><polygon class="cls-12" points="497.28 78.02 497.28 117.34 457.97 117.34 457.97 78.02 497.28 78.02"/><polygon class="cls-7" points="472.83 93.18 485.79 85.14 478.86 95.18 482.53 101.15 469.79 109.19 476.2 99.18 472.83 93.18"/><path id="darker-3" class="cls-3" d="M499.39,119.45h-43.54v-23.86s13.71,2.11,21.75,2.11,21.79-2.11,21.79-2.11v23.86Z"/></g></svg>