<?xml version="1.0" encoding="UTF-8"?><svg id="Layer" xmlns="http://www.w3.org/2000/svg" xmlns:xlink="http://www.w3.org/1999/xlink" viewBox="0 0 566.93 141.73"><defs><style>.cls-1{fill:url(#linear-gradient-2);}.cls-2{opacity:.15;}.cls-2,.cls-3{fill:#020303;}.cls-2,.cls-4{isolation:isolate;}.cls-5{fill:#332116;}.cls-6{stroke:#020303;stroke-miterlimit:10;stroke-width:.37px;}.cls-6,.cls-7{fill:#fff;}.cls-7{opacity:0;}.cls-8{fill:url(#linear-gradient-6);}.cls-9{fill:#946137;}.cls-10{fill:#1f1f1d;}.cls-11{fill:#7e348b;}.cls-4{fill:url(#Nowy_wzorek);opacity:.1;}.cls-12{fill:url(#linear-gradient-5);}.cls-13{fill:none;}.cls-14{fill:url(#linear-gradient-7);}.cls-15{fill:url(#linear-gradient-3);}.cls-16{fill:url(#linear-gradient);}.cls-17{fill:url(#linear-gradient-4);}</style><linearGradient id="linear-gradient" x1="557.67" y1="-15.45" x2="415.96" y2="126.26" gradientTransform="translate(0 126.27) scale(1 -1)" gradientUnits="userSpaceOnUse"><stop offset="0" stop-color="#9d9d9c"/><stop offset=".54" stop-color="#010101"/><stop offset="1" stop-color="#9d9d9c"/></linearGradient><linearGradient id="linear-gradient-2" x1="486.84" y1="-4.63" x2="486.84" y2="115.43" gradientTransform="translate(0 126.27) scale(1 -1)" gradientUnits="userSpaceOnUse"><stop offset="0" stop-color="#452b1a"/><stop offset="1" stop-color="#b18049"/></linearGradient><linearGradient id="linear-gradient-3" x1="486.82" y1="-2.96" x2="486.82" y2="113.82" gradientTransform="translate(0 126.27) scale(1 -1)" gradientUnits="userSpaceOnUse"><stop offset="0" stop-color="#946137"/><stop offset="1" stop-color="#7f5026"/></linearGradient><pattern id="Nowy_wzorek" x="0" y="0" width="19.7" height="21.7" patternTransform="translate(8.6 -16239.44) scale(1 -1)" patternUnits="userSpaceOnUse" viewBox="0 0 19.7 21.7"><g><rect class="cls-13" width="19.7" height="21.7"/><g><rect class="cls-13" width="19.7" height="21.7"/><g><rect class="cls-13" width="19.7" height="21.7"/><g><rect class="cls-13" width="19.7" height="21.7"/><path class="cls-10" d="M16.6,13c2.1-2.1,2.1-5.6,0-7.7l-1.2-1.2c-2.1-2.1-5.6-2.1-7.8,0L3.1,8.7c-2.1,2.1-2.1,5.6,0,7.7l1.2,1.2c2.1,2.1,5.6,2.1,7.7,0l4.6-4.6Z"/></g></g></g></g></pattern><linearGradient id="linear-gradient-4" x1="-289.39" y1="-931.71" x2="-258.6" y2="-900.93" gradientTransform="translate(76.78 -797.74) rotate(-45) scale(1 -1)" gradientUnits="userSpaceOnUse"><stop offset="0" stop-color="#1d1327"/><stop offset=".24" stop-color="#372348"/><stop offset=".49" stop-color="#573a6c"/><stop offset=".71" stop-color="#714f8b"/><stop offset=".89" stop-color="#825c9f"/><stop offset="1" stop-color="#8862a6"/></linearGradient><linearGradient id="linear-gradient-5" x1="-326.86" y1="-894.24" x2="-296.08" y2="-863.45" xlink:href="#linear-gradient-4"/><linearGradient id="linear-gradient-6" x1="-364.89" y1="1073.6" x2="-334.1" y2="1042.81" gradientTransform="translate(-23.11 -897.62) rotate(-45)" gradientUnits="userSpaceOnUse"><stop offset="0" stop-color="#452b1a"/><stop offset=".05" stop-color="#583519"/><stop offset=".1" stop-color="#683e15"/><stop offset=".32" stop-color="#76481e"/><stop offset=".75" stop-color="#8c5a31"/><stop offset="1" stop-color="#946137"/></linearGradient><linearGradient id="linear-gradient-7" x1="-327.41" y1="1111.07" x2="-296.63" y2="1080.29" xlink:href="#linear-gradient-6"/></defs><rect class="cls-7" width="566.93" height="141.73"/><g id="prodBg"><rect id="external-border" class="cls-16" x="406.97" y="9" width="159.69" height="123.73"/><rect id="internal-border" class="cls-1" x="408.81" y="10.84" width="156.07" height="120.06"/><rect id="bg" class="cls-15" x="410.42" y="12.45" width="152.8" height="116.78"/><rect id="bgPattern" class="cls-4" x="410.42" y="12.45" width="152.8" height="116.78"/></g><path d="M428.35,46.63v-5.42h13.01v5.42h-13.01Z"/><g id="energy"><rect class="cls-3" x="507.87" y="20.83" width="46.2" height="46.2"/><rect class="cls-17" x="509.2" y="22.16" width="43.54" height="43.54"/><polygon class="cls-11" points="550.63 24.27 550.63 63.59 511.31 63.59 511.31 24.27 550.63 24.27"/><polygon class="cls-6" points="526.17 39.43 539.14 31.39 532.21 41.43 535.88 47.4 523.13 55.44 529.54 45.43 526.17 39.43"/><path id="darker" class="cls-2" d="M552.74,65.7h-43.54v-23.86s13.71,2.11,21.75,2.11,21.79-2.11,21.79-2.11v23.86Z"/></g><path d="M431.86,109.1v-9.67h-9.67v-3.97h9.67v-9.67h3.97v9.67h9.67v3.97h-9.67v9.67h-3.97Z"/><g id="energy-2"><rect class="cls-3" x="454.87" y="20.83" width="46.2" height="46.2"/><rect class="cls-12" x="456.2" y="22.16" width="43.54" height="43.54"/><polygon class="cls-11" points="497.63 24.27 497.63 63.59 458.31 63.59 458.31 24.27 497.63 24.27"/><polygon class="cls-6" points="473.17 39.43 486.14 31.39 479.21 41.43 482.88 47.4 470.13 55.44 476.54 45.43 473.17 39.43"/><path id="darker-2" class="cls-2" d="M499.74,65.7h-43.54v-23.86s13.71,2.11,21.75,2.11,21.79-2.11,21.79-2.11v23.86Z"/></g><g id="steel"><rect class="cls-3" x="454.92" y="74.66" width="46.2" height="46.2"/><rect class="cls-8" x="456.25" y="75.99" width="43.54" height="43.54"/><rect class="cls-9" x="458.37" y="78.1" width="39.31" height="39.31"/><g><path class="cls-5" d="M482.12,110.75l.96-18.27-2.22-.26-.33-.78h-1.7l-.3,.82-2.59-.11v-4.74h3l.22,.93,1.41,.19,.33-1.07h3.08l.59,.52,.52-.52h3.82l.44,.74,.67-.74,2.89,2.37-.19,1.63s-1.59-1.48-2.37-1.48-1.89-.04-1.89-.04l-1.59,2.56-.96,.07,.89,18.19h-4.67Z"/><polygon class="cls-5" points="473.48 86.62 470.37 84.92 470.33 89.14 467.52 89.14 467.52 84.92 463.96 86.55 463.96 91.74 467.26 93.33 466.11 110.75 471.41 110.75 470.37 93.33 473.48 91.92 473.48 86.62"/></g><path id="darker-3" class="cls-2" d="M499.79,119.53h-43.54v-23.86s13.71,2.11,21.75,2.11,21.79-2.11,21.79-2.11v23.86Z"/></g><g id="steel-2"><rect class="cls-3" x="507.92" y="74.66" width="46.2" height="46.2"/><rect class="cls-14" x="509.25" y="75.99" width="43.54" height="43.54"/><rect class="cls-9" x="511.37" y="78.1" width="39.31" height="39.31"/><g><path class="cls-5" d="M535.12,110.75l.96-18.27-2.22-.26-.33-.78h-1.7l-.3,.82-2.59-.11v-4.74h3l.22,.93,1.41,.19,.33-1.07h3.08l.59,.52,.52-.52h3.82l.44,.74,.67-.74,2.89,2.37-.19,1.63s-1.59-1.48-2.37-1.48-1.89-.04-1.89-.04l-1.59,2.56-.96,.07,.89,18.19h-4.67Z"/><polygon class="cls-5" points="526.48 86.62 523.37 84.92 523.33 89.14 520.52 89.14 520.52 84.92 516.96 86.55 516.96 91.74 520.26 93.33 519.11 110.75 524.41 110.75 523.37 93.33 526.48 91.92 526.48 86.62"/></g><path id="darker-4" class="cls-2" d="M552.79,119.53h-43.54v-23.86s13.71,2.11,21.75,2.11,21.79-2.11,21.79-2.11v23.86Z"/></g></svg>