<?xml version="1.0" encoding="UTF-8"?><svg id="Layer" xmlns="http://www.w3.org/2000/svg" xmlns:xlink="http://www.w3.org/1999/xlink" viewBox="0 0 122.74 69.66"><defs><style>.cls-1{fill:url(#linear-gradient-2);}.cls-2,.cls-3{fill:#020303;}.cls-4{fill:#1f1f1d;}.cls-3{opacity:.15;}.cls-3,.cls-5{isolation:isolate;}.cls-6{fill:#7e348b;}.cls-5{fill:url(#Nowy_wzorek);opacity:.1;}.cls-7{fill:url(#linear-gradient-5);}.cls-8{fill:none;}.cls-9{fill:url(#linear-gradient-3);}.cls-10{fill:url(#linear-gradient);}.cls-11{fill:#fff;stroke:#020303;stroke-miterlimit:10;stroke-width:.37px;}.cls-12{fill:url(#linear-gradient-4);}</style><linearGradient id="linear-gradient" x1="109.47" y1="335.57" x2="13.27" y2="239.37" gradientTransform="translate(0 -252.64)" gradientUnits="userSpaceOnUse"><stop offset="0" stop-color="#9d9d9c"/><stop offset=".54" stop-color="#010101"/><stop offset="1" stop-color="#9d9d9c"/></linearGradient><linearGradient id="linear-gradient-2" x1="61.4" y1="320.47" x2="61.4" y2="254.48" gradientTransform="translate(0 -252.64)" gradientUnits="userSpaceOnUse"><stop offset="0" stop-color="#452b1a"/><stop offset="1" stop-color="#b18049"/></linearGradient><linearGradient id="linear-gradient-3" x1="61.37" y1="318.8" x2="61.37" y2="256.09" gradientTransform="translate(0 -252.64)" gradientUnits="userSpaceOnUse"><stop offset="0" stop-color="#946137"/><stop offset="1" stop-color="#7f5026"/></linearGradient><pattern id="Nowy_wzorek" x="0" y="0" width="19.7" height="21.7" patternTransform="translate(-418.42 16733.9)" patternUnits="userSpaceOnUse" viewBox="0 0 19.7 21.7"><g><rect class="cls-8" width="19.7" height="21.7"/><g><rect class="cls-8" width="19.7" height="21.7"/><g><rect class="cls-8" width="19.7" height="21.7"/><g><rect class="cls-8" width="19.7" height="21.7"/><g><rect class="cls-8" width="19.7" height="21.7"/><path class="cls-4" d="M16.6,8.7c2.1,2.1,2.1,5.6,0,7.7l-1.2,1.2c-2.1,2.1-5.6,2.1-7.8,0L3.1,13c-2.1-2.1-2.1-5.6,0-7.7l1.2-1.2c2.1-2.1,5.6-2.1,7.7,0l4.6,4.6Z"/></g></g></g></g></g></pattern><linearGradient id="linear-gradient-4" x1="-857.21" y1="1313.16" x2="-826.42" y2="1282.36" gradientTransform="translate(-234.76 -1478.32) rotate(-45)" gradientUnits="userSpaceOnUse"><stop offset="0" stop-color="#1d1327"/><stop offset=".24" stop-color="#372348"/><stop offset=".49" stop-color="#573a6c"/><stop offset=".71" stop-color="#714f8b"/><stop offset=".89" stop-color="#825c9f"/><stop offset="1" stop-color="#8862a6"/></linearGradient><linearGradient id="linear-gradient-5" x1="-893.98" y1="1276.39" x2="-863.19" y2="1245.59" gradientTransform="translate(-234.76 -1478.32) rotate(-45)" gradientUnits="userSpaceOnUse"><stop offset="0" stop-color="#1d1327"/><stop offset=".24" stop-color="#372348"/><stop offset=".49" stop-color="#573a6c"/><stop offset=".71" stop-color="#714f8b"/><stop offset=".89" stop-color="#825c9f"/><stop offset="1" stop-color="#8862a6"/></linearGradient></defs><g id="prodBg"><rect id="external-border" class="cls-10" width="122.74" height="69.66"/><rect id="internal-border" class="cls-1" x="1.84" y="1.84" width="119.12" height="65.99"/><rect id="bg" class="cls-9" x="3.45" y="3.45" width="115.84" height="62.71"/><rect id="bgPattern" class="cls-5" x="3.45" y="3.45" width="115.84" height="62.71"/></g><g id="energy"><rect class="cls-2" x="64.54" y="11.49" width="46.2" height="46.2"/><rect class="cls-12" x="65.87" y="12.82" width="43.54" height="43.54"/><polygon class="cls-6" points="107.3 14.93 107.3 54.25 67.98 54.25 67.98 14.93 107.3 14.93"/><polygon class="cls-11" points="82.84 30.09 95.81 22.05 88.88 32.09 92.55 38.06 79.8 46.1 86.21 36.09 82.84 30.09"/><path id="darker" class="cls-3" d="M109.41,56.36h-43.54v-23.86s13.71,2.11,21.75,2.11,21.79-2.11,21.79-2.11v23.86Z"/></g><g id="energy-2"><rect class="cls-2" x="12.54" y="11.49" width="46.2" height="46.2"/><rect class="cls-7" x="13.87" y="12.82" width="43.54" height="43.54"/><polygon class="cls-6" points="55.3 14.93 55.3 54.25 15.98 54.25 15.98 14.93 55.3 14.93"/><polygon class="cls-11" points="30.84 30.09 43.81 22.05 36.88 32.09 40.55 38.06 27.8 46.1 34.21 36.09 30.84 30.09"/><path id="darker-2" class="cls-3" d="M57.41,56.36H13.87v-23.86s13.71,2.11,21.75,2.11,21.79-2.11,21.79-2.11v23.86Z"/></g></svg>