<?xml version="1.0" encoding="UTF-8"?><svg id="Layer" xmlns="http://www.w3.org/2000/svg" xmlns:xlink="http://www.w3.org/1999/xlink" viewBox="0 0 448.15 108.07"><defs><style>.cls-1{fill:url(#linear-gradient-3);opacity:.31;}.cls-1,.cls-2,.cls-3{isolation:isolate;}.cls-4{stroke-width:3.67px;}.cls-4,.cls-5,.cls-6,.cls-7,.cls-8{stroke:#020303;stroke-miterlimit:10;}.cls-4,.cls-5,.cls-7,.cls-8{fill:none;}.cls-9{fill:#020303;}.cls-5{stroke-linecap:square;}.cls-5,.cls-6{stroke-width:2.45px;}.cls-6{fill:url(#linear-gradient-2);}.cls-10{fill:url(#radial-gradient);}.cls-11{fill:#ce141e;}.cls-7{stroke-width:1.66px;}.cls-12{fill:#3d4920;}.cls-2{fill:#e03e17;opacity:.5;}.cls-13{fill:#96c227;}.cls-14,.cls-3{fill:#030304;}.cls-15{fill:url(#linear-gradient);}.cls-8{stroke-width:1.84px;}.cls-3{opacity:.12;}.cls-16{fill:url(#linear-gradient-4);}.cls-17{fill:#010101;}</style><linearGradient id="linear-gradient" x1="224.24" y1="310.63" x2="224.24" y2="272.46" gradientTransform="translate(0 -236.64)" gradientUnits="userSpaceOnUse"><stop offset="0" stop-color="#532a15"/><stop offset=".45" stop-color="#532a15" stop-opacity=".7"/><stop offset=".58" stop-color="#e03e17" stop-opacity=".5"/><stop offset="1" stop-color="#e03e17" stop-opacity=".5"/></linearGradient><linearGradient id="linear-gradient-2" x1="372.21" y1="-13.46" x2="372.21" y2="92.16" gradientTransform="translate(0 93.39) scale(1 -1)" gradientUnits="userSpaceOnUse"><stop offset="0" stop-color="#951917"/><stop offset=".21" stop-color="#b13c1e"/><stop offset=".44" stop-color="#cb5e26"/><stop offset=".66" stop-color="#e17932"/><stop offset=".85" stop-color="#ee8c39"/><stop offset="1" stop-color="#f3923b"/></linearGradient><radialGradient id="radial-gradient" cx="372.27" cy="39.35" fx="372.27" fy="39.35" r="60.16" gradientTransform="translate(0 93.39) scale(1 -1)" gradientUnits="userSpaceOnUse"><stop offset="0" stop-color="#f3923b" stop-opacity=".5"/><stop offset="1" stop-color="#d23f16"/></radialGradient><linearGradient id="linear-gradient-3" x1="372.21" y1="-13.46" x2="372.21" y2="53.83" gradientTransform="translate(0 93.39) scale(1 -1)" gradientUnits="userSpaceOnUse"><stop offset="0" stop-color="#1f1f1d"/><stop offset="1" stop-color="#3e3d3c"/></linearGradient><linearGradient id="linear-gradient-4" x1="-946.24" y1="-1165.2" x2="-878.42" y2="-1097.37" gradientTransform="translate(-60.19 -1390.29) rotate(-45) scale(1 -1)" gradientUnits="userSpaceOnUse"><stop offset="0" stop-color="#3d4920"/><stop offset=".14" stop-color="#4b5e24"/><stop offset=".42" stop-color="#69852b"/><stop offset=".66" stop-color="#81a42c"/><stop offset=".86" stop-color="#8fb923"/><stop offset="1" stop-color="#96c227"/></linearGradient></defs><g id="strzalka_efekt"><path class="cls-2" d="M277.43,54.9l-50.73-23.44,6.14,12.19h-57.18s-1.73,5.49-1.73,10.78,1.73,9.6,1.73,9.6h58.25l-7.22,14.34,50.73-23.44h0v-.02Z"/><path class="cls-15" d="M237.27,61.95h-60.13c-.46-1.56-1.14-4.37-1.14-7.53,0-3.34,.75-6.81,1.23-8.71h58.96l-4.98-9.89,41.27,19.08-41.27,19.08,6.07-12.04h0Z"/><path class="cls-11" d="M241.72,59.21h-62.45c-.28-1.32-.53-3.01-.53-4.78,0-2.09,.34-4.26,.67-5.97h61.22l-3.44-6.86,28.79,13.31-28.79,13.31,4.54-9h0Z"/><path class="cls-7" d="M237.27,61.95h-60.13c-.46-1.56-1.14-4.37-1.14-7.53,0-3.34,.75-6.81,1.23-8.71h58.96l-4.98-9.89,41.27,19.08-41.27,19.08,6.07-12.04h0Z"/></g><g id="tr"><rect class="cls-6" x="297.49" y="1.22" width="149.44" height="105.62"/><rect class="cls-10" x="302.14" y="5.87" width="140.26" height="96.32"/><g id="logo"><g><circle class="cls-4" cx="372.27" cy="50.55" r="27.17"/><path class="cls-8" d="M372.27,23.38s14.07,5.75,14.07,27.17-14.07,27.17-14.07,27.17"/><path class="cls-8" d="M372.27,23.38s-14.07,5.75-14.07,27.17,14.07,27.17,14.07,27.17"/><line class="cls-8" x1="372.27" y1="23.38" x2="372.27" y2="77.72"/><line class="cls-8" x1="345.1" y1="50.55" x2="399.44" y2="50.55"/><path class="cls-8" d="M351.1,33.41s7.96,4.04,21.05,4.04,21.05-4.04,21.05-4.04"/><path class="cls-8" d="M351.1,68.05c0-.12,7.96-4.04,21.05-4.04s21.05,4.04,21.05,4.04"/><polygon class="cls-9" points="388.55 28.27 395.77 21.66 386.22 19.7 407.03 13.71 402.26 35.37 399.44 24.6 392.59 32.56 388.55 28.27"/><polyline class="cls-5" points="372.27 83.96 362.48 83.96 366.64 83.96 366.64 93.63"/><polyline class="cls-5" points="379.25 93.63 379.25 83.96 377.41 83.96 375.09 90.44 374.35 90.44 372.39 87.38 370.93 87.38 370.93 93.63"/><path class="cls-9" d="M363.21,90.08c0,1.47-3.67,3.67-5.14,3.67s-10.28,.61-10.28-.86,8.81-4.53,10.28-4.53c1.47,.12,5.14,.24,5.14,1.71Z"/><path class="cls-9" d="M358.81,86.77c-.86,.73-4.16-.49-4.9-1.35s-5.39-6-4.53-6.73,7.1,3.3,7.83,4.16c.73,.86,2.45,3.18,1.59,3.92Z"/><path class="cls-9" d="M352.32,88.49c-.24,1.1-3.43,2.33-4.65,2.08-1.1-.24-10.4-.98-10.16-2.08s9.91-2.33,11.01-2.08c1.22,.24,4.04,.98,3.79,2.08Z"/><path class="cls-9" d="M349.87,85.55c-1.1,.37-3.79-1.71-4.16-2.81s-4.65-9.42-3.67-9.79,7.1,7.22,7.59,8.32c.37,1.1,1.22,3.92,.24,4.28Z"/><path class="cls-9" d="M343.14,85.06c-.73,1.1-4.28,1.1-5.26,.49s-9.67-4.77-8.93-5.87,10.53,1.22,11.5,1.96c.98,.61,3.43,2.33,2.69,3.43Z"/><path class="cls-9" d="M340.7,81.14c-1.22,0-2.94-2.81-2.94-3.92s-.98-9.79,.24-9.79,4.16,8.81,4.16,9.91c-.12,.98-.24,3.79-1.47,3.79Z"/><path class="cls-9" d="M334.21,73.68c-1.1-.24-2.2-3.3-1.96-4.41,.24-.98,1.22-9.55,2.33-9.3,1.1,.24,1.96,9.3,1.71,10.28-.24,1.1-.98,3.67-2.08,3.43Z"/><path class="cls-9" d="M334.82,78.45c-.98,.73-4.28-.37-5.02-1.22-.73-.98-7.59-7.47-6.61-8.2s9.3,4.53,10.04,5.39c.73,.86,2.45,3.3,1.59,4.04Z"/><path class="cls-9" d="M329.19,69.27c-.98,.49-3.92-1.1-4.41-2.08s-5.75-8.32-4.65-8.93c.98-.49,7.83,6,8.32,6.98,.49,.98,1.71,3.43,.73,4.04Z"/><path class="cls-9" d="M329.8,65.72c-.86-.37-1.22-3.43-.86-4.41s2.69-9.42,3.55-9.06c.86,.37,.12,9.3-.24,10.28-.49,1.1-1.59,3.55-2.45,3.18Z"/><path class="cls-9" d="M326.01,59.97c-.98,.24-3.06-2.2-3.3-3.43-.24-1.1-3.06-9.67-2.2-9.91,.98-.24,5.39,8.08,5.63,9.18,.24,1.1,.86,4.04-.12,4.16Z"/><path class="cls-9" d="M327.72,56.18c-.86-.49-.73-3.3-.24-4.16s3.67-7.71,4.53-7.22-1.1,8.32-1.59,9.06c-.49,.86-1.84,2.81-2.69,2.33Z"/><path class="cls-9" d="M325.15,49.2c-.98-.12-2.33-2.94-2.2-4.04s-.12-9.55,.86-9.55c.98,.12,2.81,8.81,2.69,9.91s-.37,3.79-1.35,3.67Z"/><path class="cls-9" d="M327.6,46.38c-.61-.61,.37-3.43,1.1-4.04s6.12-6.73,6.73-6c.61,.61-3.79,7.83-4.53,8.44-.73,.61-2.69,2.33-3.3,1.59Z"/><path class="cls-9" d="M331.27,37.45c-.49-.61,.24-2.69,.86-3.3,.61-.49,4.9-5.39,5.39-4.77s-2.94,6.24-3.55,6.85c-.73,.37-2.2,1.71-2.69,1.22Z"/><path class="cls-9" d="M327.11,38.67c-.73-.24-1.22-3.18-.98-4.16,.24-.98,1.96-9.3,2.69-9.18,.73,.24,.37,8.93,.12,9.91-.12,1.22-.98,3.79-1.84,3.43Z"/><path class="cls-9" d="M331.76,32.19c-.98-.37-1.47-3.3-1.1-4.28,.37-.98,2.33-8.93,3.3-8.57,.98,.37,.49,8.93,.12,9.91-.37,.86-1.35,3.3-2.33,2.94Z"/><path class="cls-9" d="M381.33,89.71c0,1.47,3.67,3.67,5.14,3.67s10.28,.61,10.28-.86-8.81-4.53-10.28-4.53-5.14,.24-5.14,1.71Z"/><path class="cls-9" d="M385.73,86.41c.86,.73,4.16-.49,4.9-1.35s5.39-6,4.53-6.73c-.86-.73-7.1,3.3-7.83,4.16-.73,.86-2.45,3.18-1.59,3.92Z"/><path class="cls-9" d="M392.22,88.12c.24,1.1,3.43,2.33,4.65,2.08,1.1-.24,10.4-.98,10.16-2.08-.24-1.1-9.91-2.33-11.01-2.08-1.22,.24-4.04,.98-3.79,2.08Z"/><path class="cls-9" d="M394.67,85.18c1.1,.37,3.79-1.71,4.16-2.81s4.65-9.42,3.55-9.79-7.1,7.22-7.59,8.32c-.24,1.1-1.1,3.92-.12,4.28Z"/><path class="cls-9" d="M401.4,84.69c.73,1.1,4.28,1.1,5.26,.49s9.55-4.77,8.81-5.87c-.73-1.1-10.53,1.22-11.5,1.96-.86,.61-3.3,2.33-2.57,3.43Z"/><path class="cls-9" d="M403.85,80.78c1.22,0,2.94-2.81,2.94-3.92s.98-9.79-.24-9.79-4.16,8.81-4.16,9.91c.12,1.1,.24,3.79,1.47,3.79Z"/><path class="cls-9" d="M410.33,73.31c1.1-.24,2.2-3.3,1.96-4.41-.24-.98-1.22-9.55-2.33-9.3-1.1,.24-1.96,9.3-1.71,10.28,.24,1.1,.98,3.67,2.08,3.43Z"/><path class="cls-9" d="M409.72,78.08c.98,.73,4.28-.37,5.02-1.22,.73-.98,7.59-7.47,6.61-8.2-.98-.73-9.3,4.53-10.04,5.39-.73,.98-2.45,3.3-1.59,4.04Z"/><path class="cls-9" d="M415.35,68.9c.98,.49,3.92-1.1,4.41-2.08s5.75-8.32,4.65-8.93c-.98-.49-7.83,6-8.32,6.98-.49,.98-1.71,3.55-.73,4.04Z"/><path class="cls-9" d="M414.74,65.48c.86-.37,1.35-3.43,.86-4.41s-2.69-9.42-3.55-9.06c-.86,.37-.12,9.3,.24,10.28,.49,.98,1.59,3.55,2.45,3.18Z"/><path class="cls-9" d="M418.53,59.6c.98,.24,3.06-2.2,3.3-3.43,.24-1.1,3.18-9.67,2.2-9.91-.98-.24-5.39,8.08-5.63,9.18-.24,1.22-.86,4.04,.12,4.16Z"/><path class="cls-9" d="M416.82,55.81c.86-.49,.86-3.3,.24-4.16-.49-.86-3.79-7.71-4.53-7.22s1.1,8.32,1.59,9.06c.49,.86,1.84,2.94,2.69,2.33Z"/><path class="cls-9" d="M419.39,48.83c.98-.12,2.33-2.94,2.2-4.04-.12-1.1,.12-9.67-.86-9.55-.98,.12-2.81,8.81-2.69,9.91,0,1.1,.37,3.79,1.35,3.67Z"/><path class="cls-9" d="M416.94,46.02c.61-.61-.37-3.43-1.1-4.04s-6.12-6.73-6.73-6c-.61,.61,3.79,7.83,4.53,8.44,.73,.61,2.69,2.33,3.3,1.59Z"/><path class="cls-9" d="M413.27,37.08c.49-.61-.24-2.69-.86-3.3s-4.9-5.39-5.39-4.77,2.94,6.24,3.55,6.85c.61,.49,2.2,1.71,2.69,1.22Z"/><path class="cls-9" d="M417.31,38.43c.73-.24,1.22-3.18,.98-4.16-.24-.98-1.96-9.3-2.69-9.18-.73,.24-.37,8.93-.12,9.91,.24,1.1,1.1,3.67,1.84,3.43Z"/><path class="cls-9" d="M412.78,31.82c.98-.37,1.47-3.3,1.1-4.28-.37-.98-2.33-8.93-3.3-8.57-.98,.37-.49,8.93-.12,9.91,.37,.86,1.35,3.3,2.33,2.94Z"/></g></g><path id="darker" class="cls-1" d="M446.44,39.78c-2.33,4.65-41.73,12.24-74.17,12.24s-72.45-8.32-74.78-12.24V106.84h149.44V40.51c-.12-.86-.37-1.22-.49-.73Z"/></g><path class="cls-17" d="M0,77.43v-7.08c4.68,1.8,8.55,2.71,11.64,2.71,2.72,0,4.96-.72,6.69-2.16s2.61-3.36,2.61-5.79c0-1.76-.46-3.36-1.37-4.8-.91-1.44-2.24-2.55-4-3.35s-4.52-1.19-8.31-1.19h-2.9v-5.64l2.46-.03c3.62,0,6.2-.33,7.78-.97,1.58-.64,2.81-1.65,3.7-3.01s1.34-2.82,1.34-4.4c0-1.89-.64-3.44-1.93-4.62-1.29-1.19-3.29-1.79-6.01-1.79-3.44,0-7.13,.89-11.06,2.68v-6.44c1.98-.68,3.54-1.13,4.7-1.36s2.51-.41,4.07-.56c1.55-.15,3.02-.22,4.4-.22,4.96,0,8.78,1.02,11.46,3.06s4.03,4.78,4.03,8.21c0,2.78-.87,5.15-2.6,7.12s-4.34,3.52-7.83,4.67c3.04,.7,5.36,1.67,6.97,2.91,1.61,1.24,2.83,2.71,3.68,4.4,.85,1.69,1.27,3.5,1.27,5.44,0,3.58-1.41,6.76-4.23,9.55s-7.37,4.2-13.67,4.2c-1.66,0-3.42-.05-5.27-.15-1.86-.1-4.41-.56-7.64-1.39v-.02Z"/><g id="microbe"><rect class="cls-14" x="43.74" y="3.87" width="101.79" height="101.79"/><rect class="cls-16" x="46.68" y="6.81" width="95.92" height="95.92"/><rect class="cls-13" x="51.33" y="11.46" width="86.61" height="86.61"/><g id="microbes"><polygon class="cls-12" points="95.74 63.46 91.66 63.95 92.23 68.03 88.15 67.38 87.49 71.46 83.82 69.58 82.02 73.26 79 70.4 76.23 73.42 74.19 69.83 70.59 71.79 69.78 67.79 65.78 68.69 66.11 64.61 62.02 64.2 63.57 60.44 59.82 58.89 62.43 55.71 59.25 53.1 62.68 50.81 60.39 47.46 64.31 46.32 63.17 42.32 67.25 42.4 67.33 38.32 71.25 39.54 72.47 35.71 75.82 37.99 78.19 34.65 80.72 37.91 83.9 35.38 85.37 39.22 89.21 37.83 89.45 41.91 93.53 41.67 92.55 45.67 96.55 46.56 94.43 50.08 98.02 52.2 94.92 54.97 97.7 57.99 93.94 59.71 95.74 63.46"/><polygon class="cls-12" points="130.92 47.05 129.53 47.54 129.53 49.42 127.41 48.77 126.1 49.99 123.98 48.61 121.86 49.18 115.9 49.99 113.37 49.75 110.76 44.77 107.82 43.87 105.45 41.34 102.59 39.95 100.39 37.26 97.7 36.03 96.06 33.01 93.78 31.05 92.88 28.77 91.25 26.97 91.08 25.1 89.7 23.46 90.84 22.24 90.92 20.44 92.15 20.52 93.29 19.22 95 19.95 97.78 17.34 99.9 18.89 102.35 19.06 104.8 20.85 107.66 21.67 109.21 25.67 112.31 26.89 114.43 29.5 117.37 31.14 119.17 33.67 121.94 35.54 126.51 37.99 128.72 40.12 129.04 41.91 130.51 43.71 130.1 45.26 130.92 47.05"/><polygon class="cls-12" points="126.35 66.56 126.68 67.05 127.25 68.28 126.1 69.01 126.19 70.4 123.41 71.46 122.27 73.26 118.84 76.61 115 78.4 109.94 79.87 106.92 81.75 102.84 82.65 99.41 84.28 95.41 85.01 92.23 86.56 88.39 86.73 84.96 87.79 82.27 87.71 79.49 88.36 77.7 87.87 75.17 88.28 75 87.05 74.27 86.73 74.43 85.5 74.27 84.28 76.15 83.3 75.98 80.36 79 79.3 80.96 77.58 84.39 76.44 88.39 75.38 91.98 74.81 95.41 72.85 99.33 72.2 103 70.65 106.59 70.07 110.35 68.69 115.98 66.07 119.57 65.26 121.37 65.58 124.06 65.1 125.04 65.91 126.35 66.56"/></g><path id="darker-2" class="cls-3" d="M142.59,102.73H46.68V50.16s30.2,4.65,47.92,4.65,48-4.65,48-4.65v52.57Z"/></g></svg>