<?xml version="1.0" encoding="UTF-8"?><svg id="Layer" xmlns="http://www.w3.org/2000/svg" xmlns:xlink="http://www.w3.org/1999/xlink" viewBox="0 0 185.31 124.7"><defs><style>.cls-1,.cls-2{fill:#020303;}.cls-3{fill:#07562a;stroke:#1c4421;stroke-miterlimit:10;stroke-width:4px;}.cls-4{fill:#44ac36;}.cls-2{isolation:isolate;opacity:.05;}.cls-5{fill:url(#linear-gradient);}</style><linearGradient id="linear-gradient" x1="-952.22" y1="-1229.64" x2="-869.13" y2="-1146.55" gradientTransform="translate(-73.2 -1421.71) rotate(-45) scale(1 -1)" gradientUnits="userSpaceOnUse"><stop offset="0" stop-color="#0c6835"/><stop offset=".04" stop-color="#0a6b36"/><stop offset=".08" stop-color="#047638"/><stop offset=".13" stop-color="#078738"/><stop offset=".15" stop-color="#058f39"/><stop offset=".35" stop-color="#34993d"/><stop offset=".76" stop-color="#5eaf47"/><stop offset="1" stop-color="#6eb74a"/></linearGradient></defs><g id="plant"><rect class="cls-1" x="60.61" width="124.7" height="124.7"/><rect class="cls-5" x="64.21" y="3.6" width="117.5" height="117.5"/><rect class="cls-4" x="69.91" y="9.3" width="106.1" height="106.1"/><path id="leaf" class="cls-3" d="M122.91,35.5c-15.2,2.1-26.8,12-26.8,26.8,0,3.6,.7,7.1,2,10.3-2.8,1.9-6.9,4.4-8.9,5.1-3.5,1.2-10.5,.4-10.8,1s2,6.9,2.8,7.2,7.2,.3,10.8-1c2.6-.9,7.3-3.9,10-5.9,4.9,6.2,12.5,10.1,21,10.1,14.8,0,26.6-9.3,26.6-24.1,0-5.7,1.4-12.9,3.5-17.4,2.3-5,14.2-8.2,14.2-8.2-1.2-3.9-38.4-4.7-44.4-3.9h0Z"/><path id="darker" class="cls-2" d="M181.71,121.1H64.21V56.7s37,5.7,58.7,5.7,58.8-5.7,58.8-5.7V121.1Z"/></g><path d="M9.1,90.54v-8.4c4.93,1.9,9.05,2.85,12.36,2.85,3.63,0,6.33-1.09,8.1-3.26,1.77-2.17,2.66-4.73,2.66-7.68,0-3.72-1.47-6.72-4.4-9-2.93-2.28-7.43-3.42-13.48-3.42-1.41,0-2.82,.12-4.23,.35v-29.02H43.32v9.14H18.55l-.59,12.46c9.01,0,15.68,1.85,20.02,5.55,4.34,3.7,6.5,8.32,6.5,13.87,0,5.16-1.91,9.49-5.74,12.99-3.83,3.5-9.52,5.25-17.07,5.25-1.82,0-3.47-.08-4.94-.25-1.47-.17-4.02-.64-7.64-1.43Z"/></svg>