<?xml version="1.0" encoding="UTF-8"?><svg id="Layer" xmlns="http://www.w3.org/2000/svg" xmlns:xlink="http://www.w3.org/1999/xlink" viewBox="0 0 124.7 124.7"><defs><style>.cls-1,.cls-2{fill:#020303;}.cls-2{isolation:isolate;opacity:.12;}.cls-3{fill:#3c481e;}.cls-4{fill:#95c125;}.cls-5{fill:url(#linear-gradient);}</style><linearGradient id="linear-gradient" x1="-845.12" y1="1203.81" x2="-762.03" y2="1120.72" gradientTransform="translate(-191.28 -1327.69) rotate(-45)" gradientUnits="userSpaceOnUse"><stop offset="0" stop-color="#3c481e"/><stop offset=".14" stop-color="#4a5d23"/><stop offset=".42" stop-color="#68842b"/><stop offset=".66" stop-color="#80a42a"/><stop offset=".86" stop-color="#8fb923"/><stop offset="1" stop-color="#95c125"/></linearGradient></defs><g id="microbe"><rect class="cls-1" width="124.7" height="124.7"/><rect class="cls-5" x="3.6" y="3.6" width="117.5" height="117.5"/><rect class="cls-4" x="9.3" y="9.3" width="106.1" height="106.1"/><g id="microbes"><polygon class="cls-3" points="63.7 73 58.7 73.6 59.4 78.6 54.4 77.8 53.6 82.8 49.1 80.5 46.9 85 43.2 81.5 39.8 85.2 37.3 80.8 32.9 83.2 31.9 78.3 27 79.4 27.4 74.4 22.4 73.9 24.3 69.3 19.7 67.4 22.9 63.5 19 60.3 23.2 57.5 20.4 53.4 25.2 52 23.8 47.1 28.8 47.2 28.9 42.2 33.7 43.7 35.2 39 39.3 41.8 42.2 37.7 45.3 41.7 49.2 38.6 51 43.3 55.7 41.6 56 46.6 61 46.3 59.8 51.2 64.7 52.3 62.1 56.6 66.5 59.2 62.7 62.6 66.1 66.3 61.5 68.4 63.7 73"/><polygon class="cls-3" points="106.8 52.9 105.1 53.5 105.1 55.8 102.5 55 100.9 56.5 98.3 54.8 95.7 55.5 88.4 56.5 85.3 56.2 82.1 50.1 78.5 49 75.6 45.9 72.1 44.2 69.4 40.9 66.1 39.4 64.1 35.7 61.3 33.3 60.2 30.5 58.2 28.3 58 26 56.3 24 57.7 22.5 57.8 20.3 59.3 20.4 60.7 18.8 62.8 19.7 66.2 16.5 68.8 18.4 71.8 18.6 74.8 20.8 78.3 21.8 80.2 26.7 84 28.2 86.6 31.4 90.2 33.4 92.4 36.5 95.8 38.8 101.4 41.8 104.1 44.4 104.5 46.6 106.3 48.8 105.8 50.7 106.8 52.9"/><polygon class="cls-3" points="101.2 76.8 101.6 77.4 102.3 78.9 100.9 79.8 101 81.5 97.6 82.8 96.2 85 92 89.1 87.3 91.3 81.1 93.1 77.4 95.4 72.4 96.5 68.2 98.5 63.3 99.4 59.4 101.3 54.7 101.5 50.5 102.8 47.2 102.7 43.8 103.5 41.6 102.9 38.5 103.4 38.3 101.9 37.4 101.5 37.6 100 37.4 98.5 39.7 97.3 39.5 93.7 43.2 92.4 45.6 90.3 49.8 88.9 54.7 87.6 59.1 86.9 63.3 84.5 68.1 83.7 72.6 81.8 77 81.1 81.6 79.4 88.5 76.2 92.9 75.2 95.1 75.6 98.4 75 99.6 76 101.2 76.8"/></g><path id="darker" class="cls-2" d="M121.1,121.1H3.6V56.7s37,5.7,58.7,5.7,58.8-5.7,58.8-5.7V121.1Z"/></g></svg>