<?xml version="1.0" encoding="UTF-8"?><svg id="Layer_1" xmlns="http://www.w3.org/2000/svg" xmlns:xlink="http://www.w3.org/1999/xlink" viewBox="0 0 168.78 168.78"><defs><style>.cls-1{fill:#054e35;}.cls-2{fill:#fff;stroke:#000;stroke-miterlimit:10;stroke-width:8px;}.cls-3{fill:url(#linear-gradient);}</style><linearGradient id="linear-gradient" x1="84.39" y1="27.22" x2="84.39" y2="139.46" gradientTransform="translate(0 167.73) scale(1 -1)" gradientUnits="userSpaceOnUse"><stop offset="0" stop-color="#4d4d4d"/><stop offset="1" stop-color="#fff"/></linearGradient></defs><circle class="cls-1" cx="84.39" cy="84.39" r="84.39"/><circle class="cls-2" cx="84.39" cy="84.39" r="65.25"/><circle class="cls-3" cx="84.39" cy="84.39" r="56.12"/><g id="LOGO"><polygon id="zew" points="139.53 84.89 112.47 68.69 112.47 75.27 97.73 75.27 97.73 46.16 78.74 46.16 78.74 75.27 64.31 75.27 64.31 46.16 45.32 46.16 45.32 75.27 34.31 75.27 34.31 94.51 45.32 94.51 45.32 122.61 64.31 122.61 64.31 94.51 78.74 94.51 78.74 122.61 97.73 122.61 97.73 94.51 112.47 94.51 112.47 101.09 139.53 84.89"/></g></svg>