<?xml version="1.0" encoding="UTF-8"?><svg id="Layer_1" xmlns="http://www.w3.org/2000/svg" xmlns:xlink="http://www.w3.org/1999/xlink" viewBox="0 0 168.78 168.78"><defs><style>.cls-1,.cls-2,.cls-3,.cls-4{fill:#fff;}.cls-5{fill:#054e35;}.cls-2{stroke-width:5.83px;}.cls-2,.cls-6,.cls-3,.cls-4{stroke:#000;stroke-miterlimit:10;}.cls-6{stroke-width:.26px;}.cls-3{stroke-width:8px;}.cls-7{fill:url(#linear-gradient);}.cls-4{stroke-width:2.24px;}</style><linearGradient id="linear-gradient" x1="84.39" y1="27.22" x2="84.39" y2="139.46" gradientTransform="translate(0 167.73) scale(1 -1)" gradientUnits="userSpaceOnUse"><stop offset="0" stop-color="#4d4d4d"/><stop offset="1" stop-color="#fff"/></linearGradient></defs><circle class="cls-5" cx="84.39" cy="84.39" r="84.39"/><circle class="cls-3" cx="84.39" cy="84.39" r="65.25"/><circle class="cls-7" cx="84.39" cy="84.39" r="56.12"/><g id="logo_biale_okrag"><circle class="cls-2" cx="85.26" cy="83.85" r="35.31"/><line class="cls-4" x1="85.26" y1="48.55" x2="85.26" y2="119.16"/><line class="cls-4" x1="49.95" y1="83.85" x2="120.56" y2="83.85"/><path class="cls-4" d="M79.91,48.95s-12.76,12.71-12.76,34.91,12.76,34.91,12.76,34.91"/><path class="cls-4" d="M90.11,48.95s12.76,12.71,12.76,34.91-12.76,34.91-12.76,34.91"/><path class="cls-4" d="M58.33,106.69s7.14-5.02,26.93-5.02,26.93,5.02,26.93,5.02"/><path class="cls-4" d="M58.33,61.75s7.14,5.02,26.93,5.02,26.93-5.02,26.93-5.02"/><path class="cls-6" d="M109.87,56.47l5.36-4.58-3.55,.32c-1.94-1.14-4.26-1.94-4.26-1.94l16.59-4.58-4.39,16.98s-.72-2.93-2.07-4.71l.42-3.78-4.83,5.45-3.27-3.16Z"/></g><rect id="tlo_pod_UNMI" class="cls-1" x="55.38" y="73.65" width="58.29" height="18.94"/><g><path d="M64.41,87.78c.54,0,1.02-.08,1.44-.24,.42-.16,.78-.39,1.07-.68s.51-.64,.67-1.06c.15-.41,.23-.88,.23-1.39v-8.02h2.78v8.02c0,.8-.14,1.53-.43,2.21-.29,.68-.69,1.26-1.23,1.75-.53,.49-1.18,.87-1.94,1.15-.76,.27-1.62,.41-2.58,.41s-1.83-.14-2.59-.41c-.76-.27-1.41-.66-1.94-1.15-.53-.49-.94-1.07-1.23-1.75-.29-.68-.43-1.41-.43-2.21v-8.02h2.78v8.01c0,.51,.08,.98,.23,1.39s.38,.77,.67,1.06c.29,.29,.65,.52,1.07,.68,.42,.16,.9,.24,1.44,.24Z"/><path d="M85.94,76.4v13.39h-1.42c-.22,0-.4-.03-.55-.1-.15-.06-.29-.17-.43-.33l-7.79-8.92c.04,.41,.06,.78,.06,1.13v8.22h-2.44v-13.39h1.45c.12,0,.22,0,.3,.01s.16,.03,.23,.06,.13,.07,.19,.12c.06,.05,.13,.12,.21,.21l7.82,8.96c-.02-.22-.04-.43-.05-.64s-.02-.4-.02-.58v-8.14h2.45Z"/><path d="M105.06,76.4v13.39h-2.45v-8.65c0-.35,.02-.72,.06-1.12l-4.51,7.6c-.21,.36-.54,.55-.98,.55h-.39c-.44,0-.77-.18-.98-.55l-4.56-7.63c.02,.2,.04,.4,.05,.6,.01,.2,.02,.38,.02,.55v8.65h-2.45v-13.39h2.09c.12,0,.23,0,.32,0,.09,0,.17,.02,.24,.05,.07,.02,.14,.06,.2,.12s.12,.13,.17,.22l4.47,7.43c.12,.2,.22,.4,.32,.61,.1,.21,.2,.43,.29,.65,.1-.23,.2-.45,.3-.66,.1-.21,.21-.42,.33-.62l4.41-7.42c.05-.09,.11-.17,.17-.22,.06-.06,.13-.1,.2-.12,.07-.02,.15-.04,.24-.05,.09,0,.2,0,.32,0h2.09Z"/><path d="M110.8,89.79h-2.79v-13.39h2.79v13.39Z"/></g><g id="logo_biale_male"><path d="M92.83,42.36c-.55-.24-1.15-.67-.91-1.2,.23-.53,1.22-.69,1.95-.62,.6,.05,5.78,3.07,5.54,3.6-.23,.53-6.03-1.54-6.58-1.79Z"/><path d="M90.04,40.24c-.63,.02-1.39-.08-1.4-.57-.01-.49,.85-.99,1.57-1.21,.59-.18,6.85,.19,6.87,.69,.01,.49-6.4,1.08-7.04,1.09Z"/><path d="M85.16,41.61c-.58-.17-1.23-.51-1.06-1.07,.16-.55,1.12-.84,1.85-.87,.6-.02,6.13,2.3,5.97,2.85-.16,.55-6.18-.74-6.76-.92Z"/><path d="M82.12,39.87c-.62,.1-1.39,.1-1.46-.39-.08-.49,.71-1.09,1.4-1.4,.56-.26,6.82-.7,6.9-.21,.08,.48-6.21,1.9-6.83,2Z"/><path d="M77.13,42.48c-.6-.02-1.31-.19-1.29-.77,.02-.58,.88-1.1,1.58-1.3,.58-.17,6.51,.7,6.49,1.28-.02,.57-6.17,.82-6.77,.8Z"/><path d="M73.76,41.55c-.58,.26-1.32,.44-1.51-.01-.2-.45,.42-1.23,1-1.7,.48-.39,6.43-2.38,6.63-1.92,.2,.45-5.54,3.39-6.12,3.64Z"/><path d="M69.74,44.64c-.6,.06-1.33-.02-1.38-.59-.05-.57,.73-1.2,1.39-1.5,.55-.25,6.54-.16,6.6,.42,.05,.57-6.01,1.62-6.61,1.67Z"/><path d="M66.28,44.16c-.54,.33-1.25,.61-1.5,.19-.25-.42,.26-1.28,.77-1.82,.43-.45,6.07-3.19,6.32-2.77,.25,.42-5.05,4.08-5.59,4.4Z"/><path d="M62.87,48.13c-.57,.19-1.3,.27-1.48-.28-.18-.55,.45-1.33,1.04-1.76,.48-.36,6.36-1.56,6.54-1.01,.17,.55-5.52,2.87-6.1,3.05Z"/><path d="M59.38,48.4c-.46,.44-1.09,.86-1.43,.5-.34-.36-.03-1.3,.37-1.94,.32-.53,5.24-4.42,5.58-4.06,.34,.36-4.06,5.07-4.52,5.5Z"/><path d="M56.66,52.67c-.54,.26-1.26,.43-1.5-.09-.25-.52,.27-1.38,.8-1.88,.43-.42,6.1-2.37,6.35-1.85,.24,.52-5.1,3.56-5.65,3.82Z"/><path d="M53.23,53.4c-.4,.49-.97,1-1.35,.69-.38-.31-.2-1.29,.11-1.98,.25-.57,4.62-5.07,5.01-4.75,.38,.31-3.37,5.55-3.76,6.04Z"/><path d="M51.25,58.67c-.46,.39-1.11,.73-1.48,.29-.37-.44-.08-1.4,.31-2.02,.32-.51,5.32-3.82,5.69-3.37,.37,.44-4.06,4.72-4.52,5.1Z"/><path d="M48.11,60.23c-.26,.58-.69,1.21-1.14,1-.45-.21-.51-1.2-.39-1.94,.1-.61,3.21-6.06,3.66-5.85,.45,.2-1.87,6.22-2.14,6.79Z"/><path d="M47.18,65.21c-.41,.44-1,.87-1.43,.48-.42-.39-.26-1.38,.04-2.05,.25-.55,4.77-4.48,5.2-4.08,.42,.39-3.41,5.21-3.82,5.65Z"/><path d="M44.27,67.16c-.18,.61-.53,1.29-1,1.14-.47-.15-.66-1.12-.63-1.87,.02-.62,2.4-6.42,2.87-6.28,.47,.15-1.05,6.41-1.24,7.01Z"/><path d="M44.43,72.82c-.3,.53-.78,1.07-1.28,.79-.5-.29-.56-1.29-.42-2,.12-.59,3.64-5.44,4.15-5.15,.5,.29-2.15,5.84-2.45,6.36Z"/><path d="M42.04,75.38c-.04,.63-.23,1.37-.71,1.34-.49-.04-.9-.94-1.04-1.68-.12-.61,.89-6.8,1.38-6.76,.49,.04,.42,6.48,.37,7.11Z"/><path d="M42.9,80.37c-.23,.56-.64,1.17-1.17,.95-.53-.22-.73-1.2-.68-1.93,.04-.6,2.91-5.87,3.44-5.65,.53,.22-1.37,6.07-1.6,6.63Z"/><path d="M40.86,83.21c.04,.63-.04,1.39-.53,1.42-.49,.03-1.01-.82-1.25-1.53-.2-.59,0-6.86,.49-6.89,.49-.03,1.26,6.37,1.3,7Z"/><path d="M42.96,88.44c-.08,.6-.32,1.29-.9,1.21-.57-.08-1-.98-1.14-1.7-.11-.59,1.35-6.4,1.93-6.33,.57,.08,.19,6.22,.1,6.82Z"/><path d="M41.69,91.71c.2,.6,.3,1.36-.16,1.51-.47,.15-1.18-.54-1.59-1.17-.34-.52-1.71-6.64-1.24-6.79,.47-.15,2.81,5.86,3,6.46Z"/><path d="M44.36,96.01c0,.6-.15,1.32-.73,1.32-.58,0-1.12-.84-1.35-1.54-.19-.57,.51-6.52,1.09-6.52,.57,0,1,6.14,.99,6.75Z"/><path d="M43.53,99.42c.27,.57,.48,1.31,.03,1.52-.44,.21-1.24-.38-1.73-.96-.4-.47-2.56-6.36-2.11-6.57,.44-.21,3.55,5.44,3.81,6.01Z"/><path d="M47.13,103.21c.13,.59,.13,1.32-.43,1.44-.56,.12-1.28-.58-1.65-1.21-.31-.52-.91-6.48-.34-6.61,.56-.12,2.29,5.79,2.42,6.38Z"/><path d="M47.05,106.71c.39,.5,.75,1.17,.36,1.47-.39,.3-1.3-.11-1.9-.56-.5-.37-3.87-5.66-3.47-5.96,.39-.3,4.63,4.55,5.01,5.05Z"/><path d="M51.02,109.85c.21,.57,.3,1.29-.24,1.49-.54,.19-1.34-.41-1.79-.99-.37-.47-1.74-6.31-1.19-6.5,.54-.19,3.03,5.44,3.22,6.01Z"/><path d="M51.4,113.33c.45,.44,.89,1.07,.55,1.41-.35,.35-1.3,.06-1.96-.31-.54-.31-4.57-5.11-4.22-5.46,.35-.35,5.18,3.91,5.63,4.36Z"/><path d="M56.44,115.84c.34,.5,.62,1.18,.14,1.5-.48,.32-1.4-.07-1.98-.51-.48-.37-3.26-5.68-2.78-6,.48-.32,4.29,4.51,4.62,5.01Z"/><path d="M57.67,119.11c.55,.32,1.13,.81,.88,1.23-.25,.42-1.24,.38-1.97,.19-.6-.16-5.7-3.81-5.45-4.24,.25-.42,6,2.5,6.54,2.82Z"/><path d="M62.53,120.55c.4,.45,.76,1.09,.33,1.47-.43,.38-1.4,.12-2.03-.25-.52-.3-3.97-5.2-3.54-5.59,.43-.38,4.84,3.92,5.23,4.37Z"/><path d="M64.18,123.64c.58,.24,1.23,.66,1.03,1.11-.19,.45-1.18,.54-1.93,.44-.62-.08-6.15-3.03-5.95-3.49,.19-.45,6.27,1.69,6.85,1.94Z"/><path d="M70.05,124.13c.5,.34,1.01,.87,.68,1.34-.33,.47-1.33,.46-2.03,.26-.58-.16-5.12-4.07-4.8-4.55,.33-.47,5.65,2.61,6.14,2.96Z"/><path d="M72.4,126.72c.63,.09,1.35,.33,1.27,.82-.08,.49-1.01,.82-1.76,.9-.62,.07-6.7-1.44-6.63-1.93,.08-.48,6.49,.11,7.12,.21Z"/><path d="M77.45,126.26c.54,.27,1.11,.73,.85,1.24-.26,.51-1.26,.63-1.98,.52-.6-.09-5.61-3.37-5.35-3.89,.26-.51,5.94,1.86,6.48,2.13Z"/><path d="M80.12,128.53c.63,.01,1.38,.16,1.37,.65-.01,.49-.9,.94-1.63,1.12-.6,.15-6.83-.55-6.82-1.05,.01-.49,6.45-.74,7.08-.72Z"/><path d="M85.5,126.86c.59,.13,1.26,.43,1.13,.99-.13,.56-1.06,.92-1.79,.99-.6,.06-6.27-1.87-6.15-2.44,.13-.56,6.22,.32,6.8,.45Z"/><path d="M88.65,128.39c.62-.15,1.38-.19,1.49,.29,.11,.48-.64,1.14-1.3,1.49-.55,.3-6.76,1.17-6.87,.68-.11-.48,6.06-2.32,6.68-2.46Z"/><path d="M93.16,126.08c.6,.05,1.3,.26,1.25,.84-.05,.57-.93,1.05-1.64,1.22-.59,.14-6.46-1.04-6.41-1.61,.05-.57,6.21-.49,6.81-.44Z"/><path d="M96.48,127.19c.59-.23,1.34-.37,1.51,.09,.17,.46-.48,1.21-1.09,1.65-.5,.36-6.55,2.04-6.72,1.57-.17-.46,5.71-3.09,6.3-3.31Z"/><path d="M100.86,123.6c.6-.09,1.33-.04,1.41,.53,.08,.57-.67,1.23-1.33,1.56-.54,.27-6.53,.45-6.61-.13-.08-.57,5.93-1.88,6.53-1.96Z"/><path d="M104.35,123.93c.52-.35,1.22-.66,1.49-.25,.27,.41-.2,1.29-.69,1.85-.41,.47-5.92,3.46-6.19,3.05-.27-.41,4.87-4.3,5.39-4.65Z"/><path d="M107.77,120.19c.58-.16,1.31-.21,1.46,.34s-.51,1.31-1.11,1.72c-.5,.34-6.42,1.29-6.57,.73-.15-.55,5.64-2.64,6.22-2.79Z"/><path d="M111.26,120.06c.47-.42,1.13-.82,1.45-.45,.32,.37-.03,1.3-.45,1.93-.34,.52-5.42,4.2-5.74,3.83-.32-.37,4.27-4.9,4.74-5.31Z"/><path d="M114.12,115.2c.52-.3,1.22-.53,1.5-.03,.29,.5-.16,1.39-.65,1.94-.4,.45-5.89,2.85-6.18,2.35-.29-.5,4.8-3.96,5.33-4.26Z"/><path d="M117.47,114.2c.36-.52,.89-1.07,1.29-.79,.41,.28,.3,1.27,.05,1.98-.2,.59-4.2,5.42-4.61,5.14-.4-.28,2.91-5.8,3.27-6.32Z"/><path d="M119.25,109.46c.48-.37,1.14-.69,1.49-.23,.35,.46,.02,1.4-.39,2.01-.34,.5-5.47,3.59-5.82,3.13-.35-.46,4.25-4.55,4.73-4.91Z"/><path d="M122.45,108.03c.29-.57,.74-1.18,1.18-.95,.44,.22,.46,1.22,.3,1.96-.12,.61-3.46,5.92-3.9,5.69-.44-.22,2.13-6.13,2.42-6.69Z"/><path d="M123.24,102.87c.39-.46,.96-.91,1.4-.54,.44,.37,.32,1.37,.05,2.04-.22,.56-4.57,4.68-5.02,4.31-.44-.37,3.17-5.36,3.56-5.81Z"/><path d="M126.06,100.79c.16-.61,.47-1.31,.95-1.18,.48,.12,.71,1.09,.72,1.84,0,.62-2.11,6.52-2.59,6.4-.47-.12,.77-6.45,.93-7.06Z"/><path d="M126.11,95.72c.32-.51,.84-1.03,1.32-.72,.48,.31,.5,1.31,.31,2.02-.15,.58-3.92,5.24-4.41,4.93-.48-.31,2.45-5.72,2.78-6.23Z"/><path d="M128.64,93.3c.08-.63,.3-1.36,.78-1.3,.49,.06,.85,.99,.95,1.73,.09,.61-1.24,6.74-1.74,6.68-.49-.06-.08-6.49,0-7.12Z"/><path d="M127.53,87.77c.19-.57,.55-1.21,1.1-1.03,.55,.18,.81,1.15,.81,1.88,0,.6-2.5,6.05-3.05,5.87-.54-.18,.95-6.15,1.14-6.72Z"/><path d="M129.37,84.79c-.08-.63-.05-1.39,.44-1.45,.49-.06,1.07,.75,1.35,1.44,.24,.57,.47,6.84-.02,6.9-.49,.06-1.7-6.27-1.77-6.89Z"/><path d="M127.53,80.07c.11-.59,.39-1.27,.96-1.16,.57,.11,.95,1.04,1.05,1.76,.08,.6-1.69,6.32-2.26,6.22-.56-.11,.14-6.22,.25-6.82Z"/><path d="M128.96,76.88c-.16-.61-.23-1.37,.24-1.5,.48-.12,1.15,.6,1.53,1.26,.31,.54,1.36,6.72,.88,6.85-.48,.12-2.5-5.99-2.66-6.61Z"/><path d="M126.4,72.34c.02-.6,.19-1.31,.76-1.3,.58,.02,1.1,.87,1.31,1.57,.17,.58-.67,6.51-1.25,6.49-.57-.02-.84-6.17-.82-6.77Z"/><path d="M127.32,68.96c-.26-.58-.44-1.32,0-1.52,.45-.2,1.23,.42,1.71,1,.39,.48,2.4,6.42,1.95,6.62-.45,.2-3.41-5.53-3.66-6.11Z"/></g></svg>